G75*
%MOIN*%
%OFA0B0*%
%FSLAX25Y25*%
%IPPOS*%
%LPD*%
%AMOC8*
5,1,8,0,0,1.08239X$1,22.5*
%
%ADD10C,0.00000*%
%ADD11R,0.05906X0.05118*%
%ADD12R,0.03937X0.04331*%
%ADD13R,0.05000X0.10000*%
%ADD14R,0.10000X0.05000*%
%ADD15R,0.04331X0.03937*%
%ADD16R,0.06000X0.04000*%
%ADD17R,0.04000X0.06000*%
%ADD18R,0.03346X0.08661*%
%ADD19R,0.03937X0.04134*%
D10*
X0156177Y0131750D02*
X0294617Y0131378D01*
X0363514Y0250712D01*
X0293972Y0370419D01*
X0155532Y0370791D01*
X0086634Y0251457D01*
X0156177Y0131750D01*
D11*
X0179174Y0265922D03*
X0179174Y0273402D03*
D12*
X0179875Y0258260D03*
X0179875Y0251567D03*
D13*
X0215397Y0139064D03*
X0225397Y0139064D03*
X0235397Y0139064D03*
X0234752Y0363105D03*
X0224752Y0363105D03*
X0214752Y0363105D03*
D14*
G36*
X0135658Y0311369D02*
X0126998Y0316368D01*
X0129498Y0320699D01*
X0138158Y0315700D01*
X0135658Y0311369D01*
G37*
G36*
X0130658Y0302709D02*
X0121998Y0307708D01*
X0124498Y0312039D01*
X0133158Y0307040D01*
X0130658Y0302709D01*
G37*
G36*
X0125658Y0294049D02*
X0116998Y0299048D01*
X0119498Y0303379D01*
X0128158Y0298380D01*
X0125658Y0294049D01*
G37*
G36*
X0128481Y0204348D02*
X0119821Y0199349D01*
X0117321Y0203680D01*
X0125981Y0208679D01*
X0128481Y0204348D01*
G37*
G36*
X0133481Y0195688D02*
X0124821Y0190689D01*
X0122321Y0195020D01*
X0130981Y0200019D01*
X0133481Y0195688D01*
G37*
G36*
X0138481Y0187027D02*
X0129821Y0182028D01*
X0127321Y0186359D01*
X0135981Y0191358D01*
X0138481Y0187027D01*
G37*
G36*
X0314490Y0190800D02*
X0323150Y0185801D01*
X0320650Y0181470D01*
X0311990Y0186469D01*
X0314490Y0190800D01*
G37*
G36*
X0319490Y0199460D02*
X0328150Y0194461D01*
X0325650Y0190130D01*
X0316990Y0195129D01*
X0319490Y0199460D01*
G37*
G36*
X0324490Y0208120D02*
X0333150Y0203121D01*
X0330650Y0198790D01*
X0321990Y0203789D01*
X0324490Y0208120D01*
G37*
G36*
X0321713Y0297758D02*
X0330373Y0302757D01*
X0332873Y0298426D01*
X0324213Y0293427D01*
X0321713Y0297758D01*
G37*
G36*
X0316713Y0306418D02*
X0325373Y0311417D01*
X0327873Y0307086D01*
X0319213Y0302087D01*
X0316713Y0306418D01*
G37*
G36*
X0311713Y0315078D02*
X0320373Y0320077D01*
X0322873Y0315746D01*
X0314213Y0310747D01*
X0311713Y0315078D01*
G37*
D15*
X0269875Y0281760D03*
X0269875Y0275067D03*
D16*
X0259687Y0276719D03*
X0259687Y0271719D03*
X0259687Y0266719D03*
X0259687Y0261719D03*
X0259687Y0256719D03*
X0259687Y0251719D03*
X0259687Y0246719D03*
X0259687Y0241719D03*
X0259687Y0236719D03*
X0259687Y0231719D03*
X0259687Y0226719D03*
X0259687Y0221719D03*
X0259687Y0216719D03*
X0259687Y0211719D03*
X0259687Y0206719D03*
X0189687Y0206719D03*
X0189687Y0211719D03*
X0189687Y0216719D03*
X0189687Y0221719D03*
X0189687Y0226719D03*
X0189687Y0231719D03*
X0189687Y0236719D03*
X0189687Y0241719D03*
X0189687Y0246719D03*
X0189687Y0251719D03*
X0189687Y0256719D03*
X0189687Y0261719D03*
X0189687Y0266719D03*
X0189687Y0271719D03*
X0189687Y0276719D03*
X0189687Y0281719D03*
X0189687Y0286719D03*
X0189687Y0291719D03*
X0189687Y0296719D03*
X0189687Y0301719D03*
X0259687Y0301719D03*
X0259687Y0296719D03*
X0259687Y0291719D03*
X0259687Y0286719D03*
X0259687Y0281719D03*
D17*
X0239687Y0306719D03*
X0234687Y0306719D03*
X0229687Y0306719D03*
X0224687Y0306719D03*
X0219687Y0306719D03*
X0214687Y0306719D03*
X0209687Y0306719D03*
D18*
X0219218Y0335913D03*
X0230045Y0335913D03*
D19*
X0224632Y0329909D03*
X0224632Y0341917D03*
M02*
