%
M48
M72
T01C0.01181
T02C0.01200
T03C0.02362
T04C0.03937
T05C0.04000
%
T01
X110459Y225223
X126653Y216334
X133403Y204642
X146958Y209737
X145287Y193845
X146006Y169334
X140006Y168984
X166256Y170234
X210406Y152734
X226356Y173134
X243934Y153805
X246356Y160634
X244034Y139106
X303506Y161834
X307145Y187392
X311895Y195619
X332545Y211986
X319295Y219636
X315394Y218078
X348506Y259334
X322664Y287029
X316264Y298114
X299156Y309945
X299521Y314313
X292717Y300204
X313291Y322263
X308052Y331765
X282256Y361834
X263534Y327157
X235734Y332207
X235734Y335957
X235734Y339707
X230734Y327207
X230834Y323507
X230834Y319757
X230834Y316007
X225934Y313107
X215534Y320207
X213934Y317007
X213634Y313307
X218134Y323007
X217934Y326807
X213234Y332207
X213234Y335957
X213234Y339707
X209284Y345265
X205584Y347865
X205584Y363065
X228784Y354365
X238184Y354365
X178506Y360584
X143544Y316458
X137994Y306845
X138158Y287929
X132269Y283130
X118326Y291180
T02
X147674Y155212
X151574Y155212
X154774Y168212
X158174Y168212
X162674Y170162
X154074Y172762
X155774Y181662
X155874Y181662
X139424Y199262
X153424Y202762
X161824Y202862
X167724Y202262
X172624Y202162
X184824Y198162
X178824Y185562
X178924Y170212
X183024Y170162
X187524Y170162
X203274Y176762
X203274Y180162
X197524Y185862
X202024Y194362
X207744Y198745
X207800Y205337
X207800Y214737
X203769Y216859
X197599Y207373
X217900Y206237
X222900Y206237
X230000Y206487
X218724Y196112
X218824Y192612
X224400Y189287
X227724Y185762
X225200Y182937
X220174Y179262
X217674Y176462
X209424Y170703
X223724Y176062
X228400Y176637
X232566Y182370
X235824Y178262
X235624Y173962
X244000Y167637
X247624Y155462
X226424Y147712
X215174Y152712
X213000Y148537
X230950Y189287
X234150Y189287
X226100Y195537
X245600Y201837
X247700Y198137
X250700Y201937
X248200Y205337
X250469Y214146
X235400Y225537
X228725Y226612
X228700Y226637
X223384Y234633
X228725Y243887
X235266Y243015
X204950Y261387
X195900Y236737
X195900Y231637
X251900Y192337
X252324Y189062
X268424Y198062
X270000Y204837
X285000Y203337
X284883Y183320
X273924Y173962
X271324Y176562
X269500Y183837
X286027Y166984
T03
X194477Y150331
X175382Y150331
T04
X174201Y138402
X195658Y138402
T05
X224625Y319362
M30
