G75*
%MOIN*%
%OFA0B0*%
%FSLAX25Y25*%
%IPPOS*%
%LPD*%
%AMOC8*
5,1,8,0,0,1.08239X$1,22.5*
%
%ADD10C,0.00000*%
%ADD11R,0.03937X0.04331*%
%ADD12R,0.04331X0.03937*%
%ADD13R,0.02371X0.03551*%
%ADD14R,0.02367X0.01966*%
%ADD15R,0.02357X0.01963*%
%ADD16R,0.02357X0.01977*%
%ADD17R,0.02756X0.03937*%
%ADD18R,0.02756X0.02362*%
%ADD19R,0.04724X0.03150*%
%ADD20R,0.05000X0.10000*%
%ADD21R,0.10000X0.05000*%
%ADD22R,0.02756X0.02953*%
%ADD23R,0.03150X0.03150*%
%ADD24R,0.03543X0.03150*%
%ADD25R,0.04724X0.02165*%
%ADD26R,0.03350X0.01400*%
%ADD27R,0.05906X0.01102*%
%ADD28R,0.01102X0.05906*%
%ADD29R,0.01575X0.07087*%
%ADD30R,0.06693X0.02500*%
%ADD31R,0.07087X0.03937*%
%ADD32R,0.07972X0.05020*%
%ADD33R,0.05512X0.06299*%
D10*
X0156177Y0131750D02*
X0294617Y0131378D01*
X0363514Y0250712D01*
X0293972Y0370419D01*
X0155532Y0370791D01*
X0086634Y0251457D01*
X0156177Y0131750D01*
D11*
X0162624Y0147315D03*
X0162624Y0154008D03*
X0162674Y0174365D03*
X0162674Y0181058D03*
X0153374Y0191565D03*
X0153374Y0198258D03*
X0197524Y0181058D03*
X0197524Y0174365D03*
X0201978Y0158562D03*
X0208670Y0158562D03*
X0255424Y0195615D03*
X0255424Y0202308D03*
X0262974Y0190008D03*
X0262974Y0183315D03*
X0263074Y0177908D03*
X0263074Y0171215D03*
X0263274Y0165708D03*
X0263274Y0159015D03*
X0221524Y0214667D03*
X0221524Y0221360D03*
D12*
X0214325Y0221408D03*
X0214325Y0214715D03*
X0228725Y0214715D03*
X0228725Y0221408D03*
X0197374Y0198108D03*
X0197374Y0191415D03*
X0190274Y0191465D03*
X0190274Y0198158D03*
X0179624Y0198108D03*
X0179624Y0191415D03*
X0169674Y0181058D03*
X0169674Y0174365D03*
X0162674Y0166058D03*
X0162674Y0159365D03*
X0160724Y0191565D03*
X0160724Y0198258D03*
X0201978Y0166512D03*
X0208671Y0166512D03*
X0220628Y0158262D03*
X0227321Y0158262D03*
X0233328Y0158212D03*
X0240020Y0158212D03*
X0270574Y0158965D03*
X0270574Y0165658D03*
X0262974Y0195565D03*
X0262974Y0202258D03*
D13*
X0187565Y0159755D03*
D14*
X0187564Y0166453D03*
D15*
X0179684Y0166455D03*
D16*
X0179685Y0158967D03*
D17*
X0187561Y0159759D03*
D18*
X0187561Y0166452D03*
X0179687Y0166452D03*
X0179687Y0158972D03*
D19*
X0169324Y0159068D03*
X0169324Y0166155D03*
D20*
X0215397Y0139064D03*
X0225397Y0139064D03*
X0235397Y0139064D03*
X0234752Y0363105D03*
X0224752Y0363105D03*
X0214752Y0363105D03*
D21*
G36*
X0135658Y0311369D02*
X0126998Y0316368D01*
X0129498Y0320699D01*
X0138158Y0315700D01*
X0135658Y0311369D01*
G37*
G36*
X0130658Y0302709D02*
X0121998Y0307708D01*
X0124498Y0312039D01*
X0133158Y0307040D01*
X0130658Y0302709D01*
G37*
G36*
X0125658Y0294049D02*
X0116998Y0299048D01*
X0119498Y0303379D01*
X0128158Y0298380D01*
X0125658Y0294049D01*
G37*
G36*
X0128481Y0204348D02*
X0119821Y0199349D01*
X0117321Y0203680D01*
X0125981Y0208679D01*
X0128481Y0204348D01*
G37*
G36*
X0133481Y0195688D02*
X0124821Y0190689D01*
X0122321Y0195020D01*
X0130981Y0200019D01*
X0133481Y0195688D01*
G37*
G36*
X0138481Y0187027D02*
X0129821Y0182028D01*
X0127321Y0186359D01*
X0135981Y0191358D01*
X0138481Y0187027D01*
G37*
G36*
X0314490Y0190800D02*
X0323150Y0185801D01*
X0320650Y0181470D01*
X0311990Y0186469D01*
X0314490Y0190800D01*
G37*
G36*
X0319490Y0199460D02*
X0328150Y0194461D01*
X0325650Y0190130D01*
X0316990Y0195129D01*
X0319490Y0199460D01*
G37*
G36*
X0324490Y0208120D02*
X0333150Y0203121D01*
X0330650Y0198790D01*
X0321990Y0203789D01*
X0324490Y0208120D01*
G37*
G36*
X0321713Y0297758D02*
X0330373Y0302757D01*
X0332873Y0298426D01*
X0324213Y0293427D01*
X0321713Y0297758D01*
G37*
G36*
X0316713Y0306418D02*
X0325373Y0311417D01*
X0327873Y0307086D01*
X0319213Y0302087D01*
X0316713Y0306418D01*
G37*
G36*
X0311713Y0315078D02*
X0320373Y0320077D01*
X0322873Y0315746D01*
X0314213Y0310747D01*
X0311713Y0315078D01*
G37*
D22*
X0256424Y0189066D03*
X0256424Y0183357D03*
D23*
X0172674Y0192259D03*
X0167674Y0192259D03*
X0167674Y0198164D03*
X0172674Y0198164D03*
D24*
X0154605Y0177362D03*
X0146337Y0181102D03*
X0146337Y0173622D03*
D25*
X0178806Y0173972D03*
X0178806Y0177712D03*
X0178806Y0181452D03*
X0189042Y0181452D03*
X0189042Y0173972D03*
D26*
X0154699Y0164771D03*
X0154699Y0162212D03*
X0154699Y0159653D03*
X0145749Y0159653D03*
X0145749Y0162212D03*
X0145749Y0164771D03*
D27*
X0211892Y0173512D03*
X0211892Y0175481D03*
X0211892Y0177449D03*
X0211892Y0179418D03*
X0211892Y0181386D03*
X0211892Y0183355D03*
X0211892Y0185323D03*
X0211892Y0187292D03*
X0211892Y0189260D03*
X0211892Y0191229D03*
X0211892Y0193197D03*
X0211892Y0195166D03*
X0245356Y0195166D03*
X0245356Y0193197D03*
X0245356Y0191229D03*
X0245356Y0189260D03*
X0245356Y0187292D03*
X0245356Y0185323D03*
X0245356Y0183355D03*
X0245356Y0181386D03*
X0245356Y0179418D03*
X0245356Y0177449D03*
X0245356Y0175481D03*
X0245356Y0173512D03*
D28*
X0239451Y0167607D03*
X0237482Y0167607D03*
X0235514Y0167607D03*
X0233545Y0167607D03*
X0231577Y0167607D03*
X0229608Y0167607D03*
X0227640Y0167607D03*
X0225671Y0167607D03*
X0223703Y0167607D03*
X0221734Y0167607D03*
X0219766Y0167607D03*
X0217797Y0167607D03*
X0217797Y0201071D03*
X0219766Y0201071D03*
X0221734Y0201071D03*
X0223703Y0201071D03*
X0225671Y0201071D03*
X0227640Y0201071D03*
X0229608Y0201071D03*
X0231577Y0201071D03*
X0233545Y0201071D03*
X0235514Y0201071D03*
X0237482Y0201071D03*
X0239451Y0201071D03*
D29*
X0190047Y0149819D03*
X0187488Y0149819D03*
X0184929Y0149819D03*
X0182370Y0149819D03*
X0179811Y0149819D03*
D30*
X0170756Y0145489D03*
X0199103Y0145489D03*
D31*
X0254524Y0163691D03*
X0254524Y0173533D03*
D32*
X0234567Y0234847D03*
X0214586Y0234847D03*
X0214586Y0267619D03*
X0234567Y0267619D03*
D33*
X0278700Y0198651D03*
X0278700Y0169124D03*
M02*
