G75*
%MOIN*%
%OFA0B0*%
%FSLAX25Y25*%
%IPPOS*%
%LPD*%
%AMOC8*
5,1,8,0,0,1.08239X$1,22.5*
%
%ADD10C,0.00000*%
%ADD11R,0.03937X0.04331*%
%ADD12R,0.04331X0.03937*%
%ADD13R,0.02756X0.03937*%
%ADD14R,0.02756X0.02362*%
%ADD15R,0.04724X0.03150*%
%ADD16OC8,0.06000*%
%ADD17R,0.05000X0.10000*%
%ADD18R,0.10000X0.05000*%
%ADD19R,0.02756X0.02953*%
%ADD20R,0.03150X0.03150*%
%ADD21R,0.03543X0.03150*%
%ADD22R,0.04724X0.02165*%
%ADD23R,0.03350X0.01400*%
%ADD24R,0.05906X0.01102*%
%ADD25R,0.01102X0.05906*%
%ADD26R,0.01575X0.07087*%
%ADD27R,0.07000X0.07000*%
%ADD28C,0.04724*%
%ADD29R,0.06693X0.02500*%
%ADD30R,0.07087X0.03937*%
%ADD31R,0.07972X0.05020*%
%ADD32C,0.01000*%
%ADD33R,0.05000X0.02500*%
%ADD34R,0.05512X0.06299*%
%ADD35C,0.01600*%
%ADD36OC8,0.02400*%
%ADD37OC8,0.02381*%
%ADD38C,0.01200*%
%ADD39C,0.00600*%
D10*
X0156177Y0131750D02*
X0294617Y0131378D01*
X0363514Y0250712D01*
X0293972Y0370419D01*
X0155532Y0370791D01*
X0086634Y0251457D01*
X0156177Y0131750D01*
D11*
X0162624Y0147315D03*
X0162624Y0154008D03*
X0162674Y0174365D03*
X0162674Y0181058D03*
X0153374Y0191565D03*
X0153374Y0198258D03*
X0197524Y0181058D03*
X0197524Y0174365D03*
X0201978Y0158562D03*
X0208670Y0158562D03*
X0255424Y0195615D03*
X0255424Y0202308D03*
X0262974Y0190008D03*
X0262974Y0183315D03*
X0263074Y0177908D03*
X0263074Y0171215D03*
X0263274Y0165708D03*
X0263274Y0159015D03*
X0221524Y0214667D03*
X0221524Y0221360D03*
D12*
X0214325Y0221408D03*
X0214325Y0214715D03*
X0228725Y0214715D03*
X0228725Y0221408D03*
X0197374Y0198108D03*
X0197374Y0191415D03*
X0190274Y0191465D03*
X0190274Y0198158D03*
X0179624Y0198108D03*
X0179624Y0191415D03*
X0169674Y0181058D03*
X0169674Y0174365D03*
X0162674Y0166058D03*
X0162674Y0159365D03*
X0160724Y0191565D03*
X0160724Y0198258D03*
X0201978Y0166512D03*
X0208671Y0166512D03*
X0220628Y0158262D03*
X0227321Y0158262D03*
X0233328Y0158212D03*
X0240020Y0158212D03*
X0270574Y0158965D03*
X0270574Y0165658D03*
X0262974Y0195565D03*
X0262974Y0202258D03*
D13*
X0187561Y0159759D03*
D14*
X0187561Y0166452D03*
X0179687Y0166452D03*
X0179687Y0158972D03*
D15*
X0169324Y0159068D03*
X0169324Y0166155D03*
D16*
X0224625Y0319362D03*
D17*
X0224752Y0363105D03*
X0234752Y0363105D03*
X0214752Y0363105D03*
X0215397Y0139064D03*
X0225397Y0139064D03*
X0235397Y0139064D03*
D18*
G36*
X0314490Y0190800D02*
X0323150Y0185801D01*
X0320650Y0181470D01*
X0311990Y0186469D01*
X0314490Y0190800D01*
G37*
G36*
X0319490Y0199460D02*
X0328150Y0194461D01*
X0325650Y0190130D01*
X0316990Y0195129D01*
X0319490Y0199460D01*
G37*
G36*
X0324490Y0208120D02*
X0333150Y0203121D01*
X0330650Y0198790D01*
X0321990Y0203789D01*
X0324490Y0208120D01*
G37*
G36*
X0321713Y0297758D02*
X0330373Y0302757D01*
X0332873Y0298426D01*
X0324213Y0293427D01*
X0321713Y0297758D01*
G37*
G36*
X0316713Y0306418D02*
X0325373Y0311417D01*
X0327873Y0307086D01*
X0319213Y0302087D01*
X0316713Y0306418D01*
G37*
G36*
X0311713Y0315078D02*
X0320373Y0320077D01*
X0322873Y0315746D01*
X0314213Y0310747D01*
X0311713Y0315078D01*
G37*
G36*
X0135658Y0311369D02*
X0126998Y0316368D01*
X0129498Y0320699D01*
X0138158Y0315700D01*
X0135658Y0311369D01*
G37*
G36*
X0130658Y0302709D02*
X0121998Y0307708D01*
X0124498Y0312039D01*
X0133158Y0307040D01*
X0130658Y0302709D01*
G37*
G36*
X0125658Y0294049D02*
X0116998Y0299048D01*
X0119498Y0303379D01*
X0128158Y0298380D01*
X0125658Y0294049D01*
G37*
G36*
X0128481Y0204348D02*
X0119821Y0199349D01*
X0117321Y0203680D01*
X0125981Y0208679D01*
X0128481Y0204348D01*
G37*
G36*
X0133481Y0195688D02*
X0124821Y0190689D01*
X0122321Y0195020D01*
X0130981Y0200019D01*
X0133481Y0195688D01*
G37*
G36*
X0138481Y0187027D02*
X0129821Y0182028D01*
X0127321Y0186359D01*
X0135981Y0191358D01*
X0138481Y0187027D01*
G37*
D19*
X0256424Y0189066D03*
X0256424Y0183357D03*
D20*
X0172674Y0192259D03*
X0167674Y0192259D03*
X0167674Y0198164D03*
X0172674Y0198164D03*
D21*
X0154605Y0177362D03*
X0146337Y0181102D03*
X0146337Y0173622D03*
D22*
X0178806Y0173972D03*
X0178806Y0177712D03*
X0178806Y0181452D03*
X0189042Y0181452D03*
X0189042Y0173972D03*
D23*
X0154699Y0164771D03*
X0154699Y0162212D03*
X0154699Y0159653D03*
X0145749Y0159653D03*
X0145749Y0162212D03*
X0145749Y0164771D03*
D24*
X0211892Y0173512D03*
X0211892Y0175481D03*
X0211892Y0177449D03*
X0211892Y0179418D03*
X0211892Y0181386D03*
X0211892Y0183355D03*
X0211892Y0185323D03*
X0211892Y0187292D03*
X0211892Y0189260D03*
X0211892Y0191229D03*
X0211892Y0193197D03*
X0211892Y0195166D03*
X0245356Y0195166D03*
X0245356Y0193197D03*
X0245356Y0191229D03*
X0245356Y0189260D03*
X0245356Y0187292D03*
X0245356Y0185323D03*
X0245356Y0183355D03*
X0245356Y0181386D03*
X0245356Y0179418D03*
X0245356Y0177449D03*
X0245356Y0175481D03*
X0245356Y0173512D03*
D25*
X0239451Y0167607D03*
X0237482Y0167607D03*
X0235514Y0167607D03*
X0233545Y0167607D03*
X0231577Y0167607D03*
X0229608Y0167607D03*
X0227640Y0167607D03*
X0225671Y0167607D03*
X0223703Y0167607D03*
X0221734Y0167607D03*
X0219766Y0167607D03*
X0217797Y0167607D03*
X0217797Y0201071D03*
X0219766Y0201071D03*
X0221734Y0201071D03*
X0223703Y0201071D03*
X0225671Y0201071D03*
X0227640Y0201071D03*
X0229608Y0201071D03*
X0231577Y0201071D03*
X0233545Y0201071D03*
X0235514Y0201071D03*
X0237482Y0201071D03*
X0239451Y0201071D03*
D26*
X0190047Y0149819D03*
X0187488Y0149819D03*
X0184929Y0149819D03*
X0182370Y0149819D03*
X0179811Y0149819D03*
D27*
X0174201Y0138402D03*
X0195658Y0138402D03*
D28*
X0194477Y0150331D03*
X0175382Y0150331D03*
D29*
X0170756Y0145489D03*
X0199103Y0145489D03*
D30*
X0254524Y0163691D03*
X0254524Y0173533D03*
D31*
X0234567Y0234847D03*
X0214586Y0234847D03*
X0214586Y0267619D03*
X0234567Y0267619D03*
D32*
X0159156Y0148570D02*
X0148140Y0148570D01*
X0147560Y0149569D02*
X0159156Y0149569D01*
X0159156Y0149678D02*
X0159156Y0147800D01*
X0162140Y0147800D01*
X0162140Y0146831D01*
X0163108Y0146831D01*
X0163108Y0143650D01*
X0164790Y0143650D01*
X0165172Y0143752D01*
X0165514Y0143950D01*
X0165793Y0144229D01*
X0165910Y0144431D01*
X0165910Y0144041D01*
X0166012Y0143660D01*
X0166209Y0143318D01*
X0166489Y0143038D01*
X0166831Y0142841D01*
X0167212Y0142739D01*
X0169452Y0142739D01*
X0169303Y0142481D01*
X0169201Y0142099D01*
X0169201Y0138886D01*
X0173717Y0138886D01*
X0173717Y0137918D01*
X0174685Y0137918D01*
X0174685Y0138886D01*
X0179201Y0138886D01*
X0179201Y0142099D01*
X0179099Y0142481D01*
X0178901Y0142823D01*
X0178622Y0143102D01*
X0178280Y0143300D01*
X0177898Y0143402D01*
X0175352Y0143402D01*
X0175500Y0143660D01*
X0175603Y0144041D01*
X0175603Y0145364D01*
X0170881Y0145364D01*
X0170881Y0145614D01*
X0170631Y0145614D01*
X0170631Y0148239D01*
X0167212Y0148239D01*
X0166831Y0148136D01*
X0166489Y0147939D01*
X0166209Y0147660D01*
X0166012Y0147318D01*
X0165910Y0146936D01*
X0165910Y0146831D01*
X0163108Y0146831D01*
X0163108Y0147800D01*
X0166093Y0147800D01*
X0166093Y0149678D01*
X0165990Y0150060D01*
X0165793Y0150402D01*
X0165514Y0150681D01*
X0165179Y0150874D01*
X0165693Y0151387D01*
X0165693Y0156629D01*
X0165660Y0156662D01*
X0165939Y0156941D01*
X0165939Y0156960D01*
X0166506Y0156394D01*
X0172142Y0156394D01*
X0172786Y0157038D01*
X0172786Y0161099D01*
X0172142Y0161743D01*
X0166506Y0161743D01*
X0166028Y0161265D01*
X0165939Y0161265D01*
X0165939Y0161789D01*
X0165295Y0162434D01*
X0160053Y0162434D01*
X0159409Y0161789D01*
X0159409Y0161553D01*
X0157874Y0161553D01*
X0157874Y0162212D01*
X0157874Y0163109D01*
X0157772Y0163491D01*
X0157574Y0163833D01*
X0157474Y0163933D01*
X0157474Y0165912D01*
X0157594Y0165912D01*
X0158074Y0165432D01*
X0158074Y0165432D01*
X0158848Y0164658D01*
X0158894Y0164612D01*
X0159409Y0164612D01*
X0159409Y0163634D01*
X0160053Y0162990D01*
X0165295Y0162990D01*
X0165939Y0163634D01*
X0165939Y0164047D01*
X0166506Y0163480D01*
X0172142Y0163480D01*
X0172786Y0164125D01*
X0172786Y0164312D01*
X0173637Y0164312D01*
X0173824Y0164125D01*
X0173824Y0160716D01*
X0173824Y0159775D01*
X0173824Y0159775D01*
X0173824Y0159775D01*
X0174402Y0159197D01*
X0175414Y0158185D01*
X0175414Y0158185D01*
X0175927Y0157672D01*
X0176527Y0157072D01*
X0176527Y0157072D01*
X0176527Y0157072D01*
X0177472Y0157072D01*
X0177853Y0156690D01*
X0177911Y0156690D01*
X0177911Y0153264D01*
X0177844Y0153331D01*
X0177212Y0153754D01*
X0176509Y0154045D01*
X0175762Y0154193D01*
X0175473Y0154193D01*
X0175473Y0150422D01*
X0175292Y0150422D01*
X0175292Y0154193D01*
X0175002Y0154193D01*
X0174256Y0154045D01*
X0173553Y0153754D01*
X0172920Y0153331D01*
X0172382Y0152793D01*
X0171959Y0152161D01*
X0171668Y0151458D01*
X0171520Y0150712D01*
X0171520Y0150422D01*
X0175291Y0150422D01*
X0175291Y0150241D01*
X0171520Y0150241D01*
X0171520Y0149951D01*
X0171668Y0149205D01*
X0171959Y0148502D01*
X0172135Y0148239D01*
X0170881Y0148239D01*
X0170881Y0145614D01*
X0175603Y0145614D01*
X0175603Y0146469D01*
X0175762Y0146469D01*
X0176509Y0146617D01*
X0177212Y0146908D01*
X0177844Y0147331D01*
X0177924Y0147411D01*
X0177924Y0145820D01*
X0178568Y0145176D01*
X0181054Y0145176D01*
X0181091Y0145212D01*
X0181127Y0145176D01*
X0183613Y0145176D01*
X0183650Y0145212D01*
X0183686Y0145176D01*
X0186172Y0145176D01*
X0186209Y0145212D01*
X0186245Y0145176D01*
X0188239Y0145176D01*
X0188339Y0145076D01*
X0188681Y0144878D01*
X0189063Y0144776D01*
X0190047Y0144776D01*
X0190047Y0149819D01*
X0190047Y0149819D01*
X0190047Y0144776D01*
X0191032Y0144776D01*
X0191414Y0144878D01*
X0191756Y0145076D01*
X0192035Y0145355D01*
X0192233Y0145697D01*
X0192335Y0146079D01*
X0192335Y0147117D01*
X0192647Y0146908D01*
X0193350Y0146617D01*
X0194096Y0146469D01*
X0194256Y0146469D01*
X0194256Y0145614D01*
X0198977Y0145614D01*
X0198978Y0145614D02*
X0198978Y0148239D01*
X0197723Y0148239D01*
X0197899Y0148502D01*
X0198190Y0149205D01*
X0198339Y0149951D01*
X0198339Y0150241D01*
X0194567Y0150241D01*
X0194567Y0150422D01*
X0194386Y0150422D01*
X0194386Y0154193D01*
X0194096Y0154193D01*
X0193350Y0154045D01*
X0192647Y0153754D01*
X0192335Y0153545D01*
X0192335Y0153560D01*
X0192233Y0153942D01*
X0192035Y0154284D01*
X0191756Y0154563D01*
X0191414Y0154760D01*
X0191032Y0154863D01*
X0190047Y0154863D01*
X0189063Y0154863D01*
X0188681Y0154760D01*
X0188339Y0154563D01*
X0188239Y0154463D01*
X0186329Y0154463D01*
X0186329Y0156290D01*
X0187372Y0156290D01*
X0187372Y0159570D01*
X0187750Y0159570D01*
X0187750Y0156290D01*
X0189136Y0156290D01*
X0189518Y0156393D01*
X0189860Y0156590D01*
X0190139Y0156869D01*
X0190337Y0157211D01*
X0190439Y0157593D01*
X0190439Y0159570D01*
X0187750Y0159570D01*
X0187750Y0159948D01*
X0187372Y0159948D01*
X0187372Y0163227D01*
X0186329Y0163227D01*
X0186329Y0163240D01*
X0187260Y0164171D01*
X0189395Y0164171D01*
X0190039Y0164815D01*
X0190039Y0168089D01*
X0189395Y0168733D01*
X0189348Y0168733D01*
X0189824Y0169209D01*
X0189824Y0171114D01*
X0189150Y0171789D01*
X0191860Y0171789D01*
X0192504Y0172433D01*
X0192504Y0175510D01*
X0191860Y0176154D01*
X0186224Y0176154D01*
X0185580Y0175510D01*
X0185580Y0172433D01*
X0186061Y0171952D01*
X0185274Y0171164D01*
X0183977Y0172462D01*
X0182268Y0172462D01*
X0182268Y0175510D01*
X0182219Y0175559D01*
X0182368Y0175708D01*
X0182566Y0176050D01*
X0182668Y0176432D01*
X0182668Y0177670D01*
X0178847Y0177670D01*
X0178847Y0177753D01*
X0182668Y0177753D01*
X0182668Y0178992D01*
X0182566Y0179373D01*
X0182368Y0179715D01*
X0182219Y0179865D01*
X0182268Y0179914D01*
X0182268Y0182990D01*
X0181624Y0183635D01*
X0180224Y0183635D01*
X0180224Y0183709D01*
X0181124Y0184609D01*
X0181124Y0186514D01*
X0179777Y0187862D01*
X0177871Y0187862D01*
X0176524Y0186514D01*
X0176524Y0184609D01*
X0177424Y0183709D01*
X0177424Y0183635D01*
X0175988Y0183635D01*
X0175344Y0182990D01*
X0175344Y0179914D01*
X0175393Y0179865D01*
X0175243Y0179715D01*
X0175046Y0179373D01*
X0174944Y0178992D01*
X0174944Y0177753D01*
X0178765Y0177753D01*
X0178765Y0177670D01*
X0174944Y0177670D01*
X0174944Y0176432D01*
X0175046Y0176050D01*
X0175243Y0175708D01*
X0175290Y0175662D01*
X0174628Y0175662D01*
X0174225Y0176065D01*
X0174225Y0176065D01*
X0174225Y0176065D01*
X0173420Y0176065D01*
X0172939Y0176065D01*
X0172939Y0176789D01*
X0172295Y0177434D01*
X0167053Y0177434D01*
X0166409Y0176789D01*
X0166409Y0171941D01*
X0167053Y0171297D01*
X0172295Y0171297D01*
X0172939Y0171941D01*
X0172939Y0172542D01*
X0173220Y0172262D01*
X0173931Y0172262D01*
X0174628Y0172262D01*
X0175515Y0172262D01*
X0175988Y0171789D01*
X0177249Y0171789D01*
X0176624Y0171164D01*
X0176624Y0169259D01*
X0177502Y0168381D01*
X0177209Y0168089D01*
X0177209Y0166114D01*
X0177153Y0166170D01*
X0176324Y0166999D01*
X0175810Y0167513D01*
X0175211Y0168112D01*
X0174420Y0168112D01*
X0173637Y0168112D01*
X0173637Y0168112D01*
X0172786Y0168112D01*
X0172786Y0168185D01*
X0172142Y0168830D01*
X0166506Y0168830D01*
X0165939Y0168263D01*
X0165939Y0168482D01*
X0165295Y0169127D01*
X0164892Y0169127D01*
X0164974Y0169209D01*
X0164974Y0171100D01*
X0165098Y0171100D01*
X0165743Y0171744D01*
X0165743Y0176986D01*
X0165229Y0177500D01*
X0165564Y0177693D01*
X0165843Y0177972D01*
X0166040Y0178314D01*
X0166102Y0178544D01*
X0166111Y0178511D01*
X0166308Y0178169D01*
X0166588Y0177889D01*
X0166930Y0177692D01*
X0167311Y0177590D01*
X0169190Y0177590D01*
X0169190Y0180574D01*
X0170158Y0180574D01*
X0170158Y0177590D01*
X0172037Y0177590D01*
X0172418Y0177692D01*
X0172760Y0177889D01*
X0173040Y0178169D01*
X0173237Y0178511D01*
X0173339Y0178892D01*
X0173339Y0180574D01*
X0170158Y0180574D01*
X0170158Y0181542D01*
X0173339Y0181542D01*
X0173339Y0183224D01*
X0173237Y0183606D01*
X0173040Y0183948D01*
X0172760Y0184227D01*
X0172418Y0184424D01*
X0172037Y0184527D01*
X0170158Y0184527D01*
X0170158Y0181543D01*
X0169190Y0181543D01*
X0169190Y0184527D01*
X0167311Y0184527D01*
X0166930Y0184424D01*
X0166588Y0184227D01*
X0166308Y0183948D01*
X0166111Y0183606D01*
X0166102Y0183572D01*
X0166040Y0183803D01*
X0165843Y0184145D01*
X0165564Y0184424D01*
X0165222Y0184621D01*
X0164840Y0184724D01*
X0163158Y0184724D01*
X0163158Y0181543D01*
X0162190Y0181543D01*
X0162190Y0184724D01*
X0160508Y0184724D01*
X0160127Y0184621D01*
X0159785Y0184424D01*
X0159505Y0184145D01*
X0159308Y0183803D01*
X0159206Y0183421D01*
X0159206Y0181542D01*
X0162190Y0181542D01*
X0162190Y0180574D01*
X0159206Y0180574D01*
X0159206Y0178695D01*
X0159308Y0178314D01*
X0159505Y0177972D01*
X0159785Y0177693D01*
X0160119Y0177500D01*
X0159606Y0176986D01*
X0159606Y0176065D01*
X0159273Y0176065D01*
X0157670Y0174462D01*
X0155627Y0174462D01*
X0155402Y0174687D01*
X0156832Y0174687D01*
X0157476Y0175331D01*
X0157476Y0179392D01*
X0157167Y0179702D01*
X0158174Y0180709D01*
X0158174Y0182614D01*
X0156827Y0183962D01*
X0154821Y0183962D01*
X0153474Y0182614D01*
X0153474Y0181766D01*
X0153307Y0181599D01*
X0152874Y0181166D01*
X0152874Y0181166D01*
X0152874Y0181166D01*
X0152874Y0180037D01*
X0152377Y0180037D01*
X0151733Y0179392D01*
X0151733Y0175331D01*
X0152377Y0174687D01*
X0152747Y0174687D01*
X0152521Y0174462D01*
X0150978Y0174462D01*
X0150715Y0174725D01*
X0150178Y0175262D01*
X0149351Y0175262D01*
X0149209Y0175262D01*
X0149209Y0175652D01*
X0148564Y0176296D01*
X0144274Y0176296D01*
X0144274Y0178427D01*
X0148564Y0178427D01*
X0149209Y0179071D01*
X0149209Y0183132D01*
X0148564Y0183777D01*
X0144110Y0183777D01*
X0143465Y0183132D01*
X0143465Y0182562D01*
X0143394Y0182562D01*
X0142574Y0181742D01*
X0142574Y0181742D01*
X0141474Y0180642D01*
X0141474Y0180056D01*
X0141474Y0163206D01*
X0141474Y0162632D01*
X0141474Y0162632D01*
X0141474Y0162632D01*
X0142090Y0162016D01*
X0142474Y0161632D01*
X0142474Y0161632D01*
X0142974Y0161132D01*
X0142974Y0161056D01*
X0143098Y0160932D01*
X0142974Y0160808D01*
X0142974Y0158497D01*
X0143618Y0157853D01*
X0144049Y0157853D01*
X0144049Y0157841D01*
X0144049Y0157282D01*
X0144049Y0156433D01*
X0145045Y0155437D01*
X0145374Y0155108D01*
X0145374Y0154259D01*
X0146721Y0152912D01*
X0148627Y0152912D01*
X0149624Y0153909D01*
X0150621Y0152912D01*
X0152527Y0152912D01*
X0153874Y0154259D01*
X0153874Y0156164D01*
X0152527Y0157512D01*
X0151374Y0157512D01*
X0151374Y0161892D01*
X0150554Y0162712D01*
X0149654Y0163612D01*
X0148521Y0163612D01*
X0148524Y0163615D01*
X0148524Y0165926D01*
X0147880Y0166571D01*
X0144274Y0166571D01*
X0144274Y0170947D01*
X0148564Y0170947D01*
X0149125Y0171507D01*
X0149570Y0171062D01*
X0149570Y0171062D01*
X0149570Y0171062D01*
X0150281Y0171062D01*
X0152521Y0171062D01*
X0153121Y0170462D01*
X0153771Y0170462D01*
X0152474Y0169164D01*
X0152474Y0167259D01*
X0153162Y0166571D01*
X0152568Y0166571D01*
X0151924Y0165926D01*
X0151924Y0163933D01*
X0151824Y0163833D01*
X0151626Y0163491D01*
X0151524Y0163109D01*
X0151524Y0162212D01*
X0154699Y0162212D01*
X0154699Y0162212D01*
X0157874Y0162212D01*
X0154699Y0162212D01*
X0154699Y0162212D01*
X0151524Y0162212D01*
X0151524Y0161314D01*
X0151626Y0160933D01*
X0151824Y0160591D01*
X0151924Y0160490D01*
X0151924Y0158497D01*
X0152568Y0157853D01*
X0153812Y0157853D01*
X0153912Y0157753D01*
X0159409Y0157753D01*
X0159409Y0156941D01*
X0159638Y0156712D01*
X0159556Y0156629D01*
X0159556Y0151387D01*
X0160069Y0150874D01*
X0159735Y0150681D01*
X0159455Y0150402D01*
X0159258Y0150060D01*
X0159156Y0149678D01*
X0159621Y0150567D02*
X0146980Y0150567D01*
X0146400Y0151566D02*
X0159556Y0151566D01*
X0159556Y0152564D02*
X0145820Y0152564D01*
X0146070Y0153563D02*
X0145240Y0153563D01*
X0145374Y0154561D02*
X0144660Y0154561D01*
X0144922Y0155560D02*
X0144080Y0155560D01*
X0144049Y0156558D02*
X0143500Y0156558D01*
X0144049Y0157557D02*
X0142919Y0157557D01*
X0142974Y0158555D02*
X0142339Y0158555D01*
X0141759Y0159554D02*
X0142974Y0159554D01*
X0142974Y0160552D02*
X0141179Y0160552D01*
X0140599Y0161551D02*
X0142555Y0161551D01*
X0141557Y0162549D02*
X0140019Y0162549D01*
X0139439Y0163548D02*
X0141474Y0163548D01*
X0141474Y0164546D02*
X0138859Y0164546D01*
X0138279Y0165545D02*
X0141474Y0165545D01*
X0141474Y0166543D02*
X0137699Y0166543D01*
X0137119Y0167542D02*
X0141474Y0167542D01*
X0141474Y0168540D02*
X0136539Y0168540D01*
X0135959Y0169539D02*
X0141474Y0169539D01*
X0141474Y0170537D02*
X0135378Y0170537D01*
X0134798Y0171536D02*
X0141474Y0171536D01*
X0141474Y0172534D02*
X0134218Y0172534D01*
X0133638Y0173533D02*
X0141474Y0173533D01*
X0141474Y0174531D02*
X0133058Y0174531D01*
X0132478Y0175530D02*
X0141474Y0175530D01*
X0141474Y0176528D02*
X0131898Y0176528D01*
X0131318Y0177527D02*
X0141474Y0177527D01*
X0141474Y0178525D02*
X0130738Y0178525D01*
X0130158Y0179524D02*
X0141474Y0179524D01*
X0141474Y0180522D02*
X0129578Y0180522D01*
X0129976Y0180848D02*
X0139425Y0186303D01*
X0139661Y0187184D01*
X0138983Y0188358D01*
X0144520Y0191554D01*
X0146236Y0191554D01*
X0147577Y0192896D01*
X0147577Y0194793D01*
X0146236Y0196135D01*
X0144338Y0196135D01*
X0142996Y0194793D01*
X0142996Y0194370D01*
X0137383Y0191129D01*
X0136706Y0192303D01*
X0135825Y0192539D01*
X0126376Y0187083D01*
X0126183Y0186365D01*
X0124528Y0189214D01*
X0124623Y0189189D01*
X0125018Y0189189D01*
X0125399Y0189291D01*
X0129468Y0191640D01*
X0127718Y0194671D01*
X0128584Y0195171D01*
X0128084Y0196037D01*
X0133280Y0199037D01*
X0132378Y0200598D01*
X0132760Y0200496D01*
X0133709Y0200242D01*
X0133709Y0200242D01*
X0133709Y0200242D01*
X0134321Y0200595D01*
X0146189Y0207447D01*
X0147907Y0207447D01*
X0149248Y0208789D01*
X0149248Y0210686D01*
X0147907Y0212028D01*
X0146009Y0212028D01*
X0144667Y0210686D01*
X0144667Y0209802D01*
X0135694Y0204621D01*
X0135694Y0205591D01*
X0134352Y0206933D01*
X0133928Y0206933D01*
X0128944Y0215566D01*
X0128944Y0217282D01*
X0127602Y0218624D01*
X0125704Y0218624D01*
X0124363Y0217282D01*
X0124363Y0215385D01*
X0125704Y0214043D01*
X0126128Y0214043D01*
X0131113Y0205410D01*
X0131113Y0203836D01*
X0130666Y0203956D01*
X0130308Y0204052D01*
X0129747Y0203728D01*
X0126844Y0202052D01*
X0126747Y0202078D01*
X0129425Y0203624D01*
X0129661Y0204504D01*
X0126706Y0209624D01*
X0125825Y0209859D01*
X0116376Y0204404D01*
X0116164Y0203612D01*
X0088368Y0251459D01*
X0115854Y0299067D01*
X0116054Y0298324D01*
X0125503Y0292868D01*
X0126383Y0293104D01*
X0127086Y0294321D01*
X0136104Y0289115D01*
X0135867Y0288878D01*
X0135867Y0286980D01*
X0137209Y0285639D01*
X0139106Y0285639D01*
X0140448Y0286980D01*
X0140448Y0288878D01*
X0139335Y0289991D01*
X0139237Y0290356D01*
X0139033Y0291119D01*
X0137885Y0291782D01*
X0137885Y0291782D01*
X0128686Y0297093D01*
X0129339Y0298223D01*
X0129103Y0299104D01*
X0119654Y0304559D01*
X0118910Y0304360D01*
X0120571Y0307238D01*
X0120600Y0307130D01*
X0120798Y0306788D01*
X0121077Y0306509D01*
X0125145Y0304160D01*
X0126895Y0307191D01*
X0127761Y0306691D01*
X0126011Y0303660D01*
X0130079Y0301311D01*
X0130461Y0301209D01*
X0130856Y0301209D01*
X0131237Y0301311D01*
X0131579Y0301509D01*
X0131859Y0301788D01*
X0132957Y0303691D01*
X0127761Y0306691D01*
X0128261Y0307557D01*
X0129929Y0310446D01*
X0129865Y0310685D01*
X0129234Y0313041D01*
X0129251Y0313070D01*
X0129566Y0313616D01*
X0126054Y0315644D01*
X0125854Y0316388D01*
X0124193Y0313510D01*
X0124301Y0313539D01*
X0124696Y0313539D01*
X0125077Y0313437D01*
X0129145Y0311088D01*
X0127395Y0308057D01*
X0128261Y0307557D01*
X0133457Y0304557D01*
X0134125Y0305714D01*
X0134208Y0305407D01*
X0134508Y0304286D01*
X0198598Y0267284D01*
X0198600Y0267247D01*
X0198600Y0236017D01*
X0198200Y0236417D01*
X0198200Y0237690D01*
X0196852Y0239037D01*
X0194947Y0239037D01*
X0193600Y0237690D01*
X0193600Y0235785D01*
X0194947Y0234437D01*
X0196220Y0234437D01*
X0196720Y0233937D01*
X0194947Y0233937D01*
X0193600Y0232590D01*
X0193600Y0230685D01*
X0194947Y0229337D01*
X0196000Y0229337D01*
X0196000Y0213358D01*
X0196088Y0213269D01*
X0201250Y0208108D01*
X0201982Y0207376D01*
X0202070Y0207287D01*
X0206497Y0207287D01*
X0205500Y0206290D01*
X0205500Y0204385D01*
X0206400Y0203485D01*
X0206400Y0202858D01*
X0210500Y0198758D01*
X0210500Y0196817D01*
X0208483Y0196817D01*
X0207839Y0196173D01*
X0207839Y0185370D01*
X0206930Y0186239D01*
X0207018Y0195693D01*
X0207024Y0195699D01*
X0207024Y0196355D01*
X0207030Y0197010D01*
X0207024Y0197016D01*
X0207024Y0197024D01*
X0206561Y0197488D01*
X0206102Y0197956D01*
X0206093Y0197956D01*
X0204340Y0199708D01*
X0200639Y0199708D01*
X0200639Y0200532D01*
X0199995Y0201177D01*
X0194753Y0201177D01*
X0194109Y0200532D01*
X0194109Y0195684D01*
X0194753Y0195040D01*
X0199724Y0195040D01*
X0199724Y0194484D01*
X0194753Y0194484D01*
X0194109Y0193839D01*
X0194109Y0193392D01*
X0193539Y0193388D01*
X0193539Y0193889D01*
X0192895Y0194534D01*
X0187653Y0194534D01*
X0187009Y0193889D01*
X0187009Y0193062D01*
X0185837Y0193062D01*
X0185524Y0193374D01*
X0185524Y0194549D01*
X0185524Y0195862D01*
X0185777Y0195862D01*
X0186473Y0196558D01*
X0187009Y0196558D01*
X0187009Y0195734D01*
X0187653Y0195090D01*
X0192895Y0195090D01*
X0193539Y0195734D01*
X0193539Y0200582D01*
X0192895Y0201227D01*
X0187653Y0201227D01*
X0187009Y0200582D01*
X0187009Y0199758D01*
X0186480Y0199758D01*
X0185777Y0200462D01*
X0183871Y0200462D01*
X0182889Y0199480D01*
X0182889Y0200532D01*
X0182245Y0201177D01*
X0177003Y0201177D01*
X0176359Y0200532D01*
X0176359Y0195684D01*
X0177003Y0195040D01*
X0181833Y0195040D01*
X0182324Y0194549D01*
X0182324Y0194405D01*
X0182245Y0194484D01*
X0177003Y0194484D01*
X0176378Y0193859D01*
X0175349Y0193859D01*
X0175349Y0194289D01*
X0174705Y0194934D01*
X0170644Y0194934D01*
X0170174Y0194464D01*
X0169704Y0194934D01*
X0165644Y0194934D01*
X0164999Y0194289D01*
X0164999Y0193859D01*
X0163989Y0193859D01*
X0163989Y0193989D01*
X0163345Y0194634D01*
X0158103Y0194634D01*
X0157459Y0193989D01*
X0157459Y0189141D01*
X0158103Y0188497D01*
X0163345Y0188497D01*
X0163989Y0189141D01*
X0163989Y0190659D01*
X0164999Y0190659D01*
X0164999Y0190229D01*
X0165644Y0189584D01*
X0169704Y0189584D01*
X0170174Y0190054D01*
X0170644Y0189584D01*
X0174705Y0189584D01*
X0175349Y0190229D01*
X0175349Y0190659D01*
X0176359Y0190659D01*
X0176359Y0188991D01*
X0177003Y0188347D01*
X0182245Y0188347D01*
X0182889Y0188991D01*
X0182889Y0191484D01*
X0183261Y0191112D01*
X0183261Y0191112D01*
X0183910Y0190463D01*
X0184511Y0189862D01*
X0184511Y0189862D01*
X0184511Y0189862D01*
X0185106Y0189862D01*
X0187009Y0189862D01*
X0187009Y0189041D01*
X0187653Y0188397D01*
X0192895Y0188397D01*
X0193539Y0189041D01*
X0193539Y0189588D01*
X0194109Y0189592D01*
X0194109Y0188991D01*
X0194753Y0188347D01*
X0195574Y0188347D01*
X0195574Y0187164D01*
X0195224Y0186814D01*
X0195224Y0184909D01*
X0195624Y0184509D01*
X0195624Y0184324D01*
X0195100Y0184324D01*
X0194456Y0183679D01*
X0194456Y0183352D01*
X0192143Y0183352D01*
X0191860Y0183635D01*
X0186224Y0183635D01*
X0185580Y0182990D01*
X0185580Y0179914D01*
X0186224Y0179269D01*
X0191860Y0179269D01*
X0192143Y0179552D01*
X0194456Y0179552D01*
X0194456Y0178437D01*
X0194969Y0177924D01*
X0194635Y0177731D01*
X0194355Y0177452D01*
X0194158Y0177110D01*
X0194056Y0176728D01*
X0194056Y0174850D01*
X0197040Y0174850D01*
X0197040Y0173881D01*
X0198008Y0173881D01*
X0198008Y0170700D01*
X0199690Y0170700D01*
X0200072Y0170802D01*
X0200414Y0171000D01*
X0200693Y0171279D01*
X0200890Y0171621D01*
X0200993Y0172002D01*
X0200993Y0173881D01*
X0198008Y0173881D01*
X0198008Y0174850D01*
X0200993Y0174850D01*
X0200993Y0175791D01*
X0202321Y0174462D01*
X0204227Y0174462D01*
X0205574Y0175809D01*
X0205574Y0176062D01*
X0207439Y0176062D01*
X0207439Y0175481D01*
X0211891Y0175481D01*
X0211891Y0175481D01*
X0207439Y0175481D01*
X0207439Y0174732D01*
X0207541Y0174350D01*
X0207738Y0174008D01*
X0207839Y0173908D01*
X0207839Y0172505D01*
X0207906Y0172438D01*
X0207124Y0171656D01*
X0207124Y0171007D01*
X0207088Y0170971D01*
X0207070Y0170954D01*
X0207070Y0170396D01*
X0207070Y0169580D01*
X0206050Y0169580D01*
X0205536Y0169067D01*
X0205343Y0169401D01*
X0205064Y0169681D01*
X0204722Y0169878D01*
X0204340Y0169980D01*
X0202462Y0169980D01*
X0202462Y0166996D01*
X0201493Y0166996D01*
X0201493Y0166027D01*
X0202462Y0166027D01*
X0202462Y0163512D01*
X0201315Y0162365D01*
X0200777Y0161827D01*
X0199553Y0161827D01*
X0198909Y0161183D01*
X0198909Y0155941D01*
X0199553Y0155296D01*
X0204402Y0155296D01*
X0205046Y0155941D01*
X0205046Y0161112D01*
X0205602Y0161112D01*
X0205602Y0155941D01*
X0206246Y0155296D01*
X0211095Y0155296D01*
X0211739Y0155941D01*
X0211739Y0156962D01*
X0213587Y0156962D01*
X0216962Y0160337D01*
X0216962Y0158746D01*
X0220143Y0158746D01*
X0220143Y0157777D01*
X0221112Y0157777D01*
X0221112Y0154793D01*
X0222990Y0154793D01*
X0223372Y0154895D01*
X0223714Y0155093D01*
X0223993Y0155372D01*
X0224186Y0155707D01*
X0224700Y0155193D01*
X0229941Y0155193D01*
X0230299Y0155551D01*
X0230707Y0155143D01*
X0235949Y0155143D01*
X0236462Y0155657D01*
X0236655Y0155322D01*
X0236934Y0155043D01*
X0237276Y0154845D01*
X0237658Y0154743D01*
X0239536Y0154743D01*
X0239536Y0157727D01*
X0240505Y0157727D01*
X0240505Y0154743D01*
X0241644Y0154743D01*
X0241644Y0152857D01*
X0242334Y0152166D01*
X0242334Y0140645D01*
X0241744Y0140054D01*
X0241744Y0138157D01*
X0241839Y0138062D01*
X0238997Y0138062D01*
X0238997Y0144520D01*
X0238352Y0145164D01*
X0232441Y0145164D01*
X0231797Y0144520D01*
X0231797Y0133609D01*
X0232360Y0133046D01*
X0229008Y0133055D01*
X0229097Y0133143D01*
X0229294Y0133485D01*
X0229397Y0133867D01*
X0229397Y0138564D01*
X0225897Y0138564D01*
X0225897Y0139564D01*
X0229397Y0139564D01*
X0229397Y0144262D01*
X0229294Y0144643D01*
X0229097Y0144985D01*
X0228818Y0145265D01*
X0228476Y0145462D01*
X0228094Y0145564D01*
X0227528Y0145564D01*
X0228724Y0146760D01*
X0228724Y0148665D01*
X0227376Y0150012D01*
X0226386Y0150012D01*
X0222087Y0154312D01*
X0216827Y0154312D01*
X0216127Y0155012D01*
X0214221Y0155012D01*
X0212874Y0153664D01*
X0212874Y0151759D01*
X0213796Y0150837D01*
X0212047Y0150837D01*
X0210700Y0149490D01*
X0210700Y0147585D01*
X0212047Y0146237D01*
X0213820Y0146237D01*
X0214000Y0146058D01*
X0214000Y0145164D01*
X0212441Y0145164D01*
X0211797Y0144520D01*
X0211797Y0133609D01*
X0212306Y0133099D01*
X0157041Y0133248D01*
X0129280Y0181034D01*
X0129976Y0180848D01*
X0131142Y0181521D02*
X0142353Y0181521D01*
X0143352Y0182519D02*
X0132871Y0182519D01*
X0134601Y0183518D02*
X0143851Y0183518D01*
X0139482Y0186514D02*
X0176524Y0186514D01*
X0176524Y0185515D02*
X0138060Y0185515D01*
X0136330Y0184516D02*
X0159945Y0184516D01*
X0159232Y0183518D02*
X0157270Y0183518D01*
X0158174Y0182519D02*
X0159206Y0182519D01*
X0158174Y0181521D02*
X0162190Y0181521D01*
X0163158Y0181521D02*
X0169190Y0181521D01*
X0169190Y0181542D02*
X0169190Y0180574D01*
X0166009Y0180574D01*
X0166009Y0180574D01*
X0163158Y0180574D01*
X0163158Y0181542D01*
X0166143Y0181542D01*
X0166143Y0181542D01*
X0169190Y0181542D01*
X0170158Y0181521D02*
X0175344Y0181521D01*
X0175344Y0182519D02*
X0173339Y0182519D01*
X0173261Y0183518D02*
X0175872Y0183518D01*
X0176617Y0184516D02*
X0172075Y0184516D01*
X0170158Y0184516D02*
X0169190Y0184516D01*
X0169190Y0183518D02*
X0170158Y0183518D01*
X0170158Y0182519D02*
X0169190Y0182519D01*
X0169190Y0180522D02*
X0170158Y0180522D01*
X0170158Y0179524D02*
X0169190Y0179524D01*
X0169190Y0178525D02*
X0170158Y0178525D01*
X0173241Y0178525D02*
X0174944Y0178525D01*
X0174944Y0177527D02*
X0165277Y0177527D01*
X0165743Y0176528D02*
X0166409Y0176528D01*
X0166409Y0175530D02*
X0165743Y0175530D01*
X0165743Y0174531D02*
X0166409Y0174531D01*
X0166409Y0173533D02*
X0165743Y0173533D01*
X0165743Y0172534D02*
X0166409Y0172534D01*
X0166814Y0171536D02*
X0165534Y0171536D01*
X0164974Y0170537D02*
X0176624Y0170537D01*
X0176624Y0169539D02*
X0164974Y0169539D01*
X0165881Y0168540D02*
X0166217Y0168540D01*
X0166439Y0163548D02*
X0165853Y0163548D01*
X0165939Y0161551D02*
X0166314Y0161551D01*
X0166342Y0156558D02*
X0165693Y0156558D01*
X0165693Y0155560D02*
X0177911Y0155560D01*
X0177911Y0156558D02*
X0172306Y0156558D01*
X0172786Y0157557D02*
X0176042Y0157557D01*
X0175044Y0158555D02*
X0172786Y0158555D01*
X0172786Y0159554D02*
X0174045Y0159554D01*
X0173824Y0160552D02*
X0172786Y0160552D01*
X0172334Y0161551D02*
X0173824Y0161551D01*
X0173824Y0162549D02*
X0157874Y0162549D01*
X0157739Y0163548D02*
X0159495Y0163548D01*
X0159409Y0164546D02*
X0157474Y0164546D01*
X0157474Y0165545D02*
X0157961Y0165545D01*
X0159409Y0157557D02*
X0151374Y0157557D01*
X0151374Y0158555D02*
X0151924Y0158555D01*
X0151924Y0159554D02*
X0151374Y0159554D01*
X0151374Y0160552D02*
X0151862Y0160552D01*
X0151524Y0161551D02*
X0151374Y0161551D01*
X0151524Y0162549D02*
X0150716Y0162549D01*
X0151659Y0163548D02*
X0149718Y0163548D01*
X0148524Y0164546D02*
X0151924Y0164546D01*
X0151924Y0165545D02*
X0148524Y0165545D01*
X0147907Y0166543D02*
X0152541Y0166543D01*
X0152474Y0167542D02*
X0144274Y0167542D01*
X0144274Y0168540D02*
X0152474Y0168540D01*
X0152848Y0169539D02*
X0144274Y0169539D01*
X0144274Y0170537D02*
X0153046Y0170537D01*
X0152591Y0174531D02*
X0150909Y0174531D01*
X0150178Y0175262D02*
X0150178Y0175262D01*
X0150178Y0175262D01*
X0149209Y0175530D02*
X0151733Y0175530D01*
X0151733Y0176528D02*
X0144274Y0176528D01*
X0144274Y0177527D02*
X0151733Y0177527D01*
X0151733Y0178525D02*
X0148663Y0178525D01*
X0149209Y0179524D02*
X0151865Y0179524D01*
X0152874Y0180522D02*
X0149209Y0180522D01*
X0149209Y0181521D02*
X0153229Y0181521D01*
X0153474Y0182519D02*
X0149209Y0182519D01*
X0148823Y0183518D02*
X0154378Y0183518D01*
X0153858Y0187900D02*
X0155540Y0187900D01*
X0155922Y0188002D01*
X0156264Y0188200D01*
X0156543Y0188479D01*
X0156740Y0188821D01*
X0156843Y0189202D01*
X0156843Y0191081D01*
X0153858Y0191081D01*
X0153858Y0187900D01*
X0153858Y0188511D02*
X0152890Y0188511D01*
X0152890Y0187900D02*
X0152890Y0191081D01*
X0153858Y0191081D01*
X0153858Y0192050D01*
X0156843Y0192050D01*
X0156843Y0193928D01*
X0156740Y0194310D01*
X0156543Y0194652D01*
X0156264Y0194931D01*
X0155929Y0195124D01*
X0156443Y0195637D01*
X0156443Y0200879D01*
X0155798Y0201524D01*
X0155439Y0201524D01*
X0155724Y0201809D01*
X0155724Y0203714D01*
X0154377Y0205062D01*
X0152471Y0205062D01*
X0151871Y0204462D01*
X0148631Y0204462D01*
X0148628Y0204465D01*
X0147927Y0204462D01*
X0147227Y0204462D01*
X0147224Y0204459D01*
X0145944Y0204453D01*
X0145936Y0204455D01*
X0145310Y0204623D01*
X0145310Y0204623D01*
X0145310Y0204623D01*
X0144704Y0204273D01*
X0144090Y0203919D01*
X0144090Y0203919D01*
X0140008Y0201562D01*
X0138471Y0201562D01*
X0137124Y0200214D01*
X0137124Y0198309D01*
X0138471Y0196962D01*
X0140377Y0196962D01*
X0141724Y0198309D01*
X0141724Y0198627D01*
X0145790Y0200974D01*
X0145964Y0200928D01*
X0146183Y0201054D01*
X0147934Y0201062D01*
X0150488Y0201062D01*
X0150306Y0200879D01*
X0150306Y0195637D01*
X0150819Y0195124D01*
X0150485Y0194931D01*
X0150205Y0194652D01*
X0150008Y0194310D01*
X0149906Y0193928D01*
X0149906Y0192050D01*
X0152890Y0192050D01*
X0152890Y0191081D01*
X0149906Y0191081D01*
X0149906Y0189202D01*
X0150008Y0188821D01*
X0150205Y0188479D01*
X0150485Y0188200D01*
X0150827Y0188002D01*
X0151208Y0187900D01*
X0152890Y0187900D01*
X0152890Y0189509D02*
X0153858Y0189509D01*
X0153858Y0190508D02*
X0152890Y0190508D01*
X0152890Y0191506D02*
X0144437Y0191506D01*
X0142707Y0190508D02*
X0149906Y0190508D01*
X0149906Y0189509D02*
X0140978Y0189509D01*
X0139248Y0188511D02*
X0150187Y0188511D01*
X0149906Y0192505D02*
X0147186Y0192505D01*
X0147577Y0193503D02*
X0149906Y0193503D01*
X0150119Y0194502D02*
X0147577Y0194502D01*
X0146871Y0195500D02*
X0150443Y0195500D01*
X0150306Y0196499D02*
X0134745Y0196499D01*
X0134879Y0196268D02*
X0133780Y0198171D01*
X0128584Y0195171D01*
X0130334Y0192140D01*
X0134402Y0194488D01*
X0134681Y0194768D01*
X0134879Y0195110D01*
X0134981Y0195491D01*
X0134981Y0195886D01*
X0134879Y0196268D01*
X0134981Y0195500D02*
X0143703Y0195500D01*
X0142996Y0194502D02*
X0134415Y0194502D01*
X0132695Y0193503D02*
X0141495Y0193503D01*
X0139766Y0192505D02*
X0135953Y0192505D01*
X0135766Y0192505D02*
X0130966Y0192505D01*
X0130123Y0192505D02*
X0128968Y0192505D01*
X0129236Y0191506D02*
X0134036Y0191506D01*
X0132307Y0190508D02*
X0127507Y0190508D01*
X0125777Y0189509D02*
X0130578Y0189509D01*
X0128848Y0188511D02*
X0124937Y0188511D01*
X0125517Y0187512D02*
X0127119Y0187512D01*
X0126223Y0186514D02*
X0126097Y0186514D01*
X0132901Y0186693D02*
X0145287Y0193845D01*
X0145297Y0193842D01*
X0140912Y0197497D02*
X0150306Y0197497D01*
X0150306Y0198496D02*
X0141724Y0198496D01*
X0143227Y0199494D02*
X0150306Y0199494D01*
X0150306Y0200493D02*
X0144956Y0200493D01*
X0143345Y0203488D02*
X0139332Y0203488D01*
X0141061Y0204487D02*
X0145074Y0204487D01*
X0145818Y0204487D02*
X0151896Y0204487D01*
X0153424Y0202762D02*
X0153374Y0202712D01*
X0153374Y0198258D01*
X0156443Y0198496D02*
X0157459Y0198496D01*
X0157459Y0199494D02*
X0156443Y0199494D01*
X0156443Y0200493D02*
X0157459Y0200493D01*
X0157459Y0200682D02*
X0157459Y0195834D01*
X0158103Y0195190D01*
X0163345Y0195190D01*
X0163989Y0195834D01*
X0163989Y0200682D01*
X0163443Y0201228D01*
X0164124Y0201909D01*
X0164124Y0203814D01*
X0162777Y0205162D01*
X0160871Y0205162D01*
X0159524Y0203814D01*
X0159524Y0202824D01*
X0159124Y0202424D01*
X0159124Y0201836D01*
X0159124Y0201327D01*
X0158103Y0201327D01*
X0157459Y0200682D01*
X0155831Y0201491D02*
X0159124Y0201491D01*
X0159124Y0202424D02*
X0159124Y0202424D01*
X0159124Y0202424D01*
X0159189Y0202490D02*
X0155724Y0202490D01*
X0155724Y0203488D02*
X0159524Y0203488D01*
X0160196Y0204487D02*
X0154952Y0204487D01*
X0160724Y0201762D02*
X0160724Y0198258D01*
X0163989Y0198496D02*
X0164999Y0198496D01*
X0164999Y0199494D02*
X0163989Y0199494D01*
X0163989Y0200493D02*
X0165297Y0200493D01*
X0164999Y0200195D02*
X0165644Y0200839D01*
X0165894Y0200839D01*
X0165424Y0201309D01*
X0165424Y0203214D01*
X0166771Y0204562D01*
X0168677Y0204562D01*
X0170024Y0203214D01*
X0170024Y0201309D01*
X0169554Y0200839D01*
X0169704Y0200839D01*
X0170174Y0200370D01*
X0170644Y0200839D01*
X0170694Y0200839D01*
X0170324Y0201209D01*
X0170324Y0203114D01*
X0171671Y0204462D01*
X0173577Y0204462D01*
X0174924Y0203114D01*
X0174924Y0201209D01*
X0174554Y0200839D01*
X0174705Y0200839D01*
X0175349Y0200195D01*
X0175349Y0196134D01*
X0174705Y0195490D01*
X0170644Y0195490D01*
X0170174Y0195959D01*
X0169704Y0195490D01*
X0165644Y0195490D01*
X0164999Y0196134D01*
X0164999Y0200195D01*
X0165424Y0201491D02*
X0163706Y0201491D01*
X0164124Y0202490D02*
X0165424Y0202490D01*
X0165698Y0203488D02*
X0164124Y0203488D01*
X0163452Y0204487D02*
X0166696Y0204487D01*
X0168752Y0204487D02*
X0205500Y0204487D01*
X0205500Y0205485D02*
X0142791Y0205485D01*
X0144520Y0206484D02*
X0205693Y0206484D01*
X0206396Y0203488D02*
X0174550Y0203488D01*
X0174924Y0202490D02*
X0206768Y0202490D01*
X0207766Y0201491D02*
X0174924Y0201491D01*
X0175051Y0200493D02*
X0176359Y0200493D01*
X0176359Y0199494D02*
X0175349Y0199494D01*
X0175349Y0198496D02*
X0176359Y0198496D01*
X0176359Y0197497D02*
X0175349Y0197497D01*
X0175349Y0196499D02*
X0176359Y0196499D01*
X0176543Y0195500D02*
X0174715Y0195500D01*
X0175137Y0194502D02*
X0182324Y0194502D01*
X0183924Y0195212D02*
X0183924Y0192712D01*
X0185174Y0191462D01*
X0190270Y0191462D01*
X0190274Y0191465D01*
X0187009Y0189509D02*
X0182889Y0189509D01*
X0182889Y0190508D02*
X0183865Y0190508D01*
X0182409Y0188511D02*
X0187539Y0188511D01*
X0187009Y0193503D02*
X0185524Y0193503D01*
X0185524Y0194502D02*
X0187621Y0194502D01*
X0187243Y0195500D02*
X0185524Y0195500D01*
X0185524Y0194549D02*
X0185524Y0194549D01*
X0183924Y0195212D02*
X0181028Y0198108D01*
X0179624Y0198108D01*
X0182889Y0199494D02*
X0182904Y0199494D01*
X0182889Y0200493D02*
X0187009Y0200493D01*
X0184824Y0198162D02*
X0184828Y0198158D01*
X0190274Y0198158D01*
X0193539Y0198496D02*
X0194109Y0198496D01*
X0194109Y0199494D02*
X0193539Y0199494D01*
X0193539Y0200493D02*
X0194109Y0200493D01*
X0194109Y0197497D02*
X0193539Y0197497D01*
X0193539Y0196499D02*
X0194109Y0196499D01*
X0194293Y0195500D02*
X0193305Y0195500D01*
X0192927Y0194502D02*
X0199724Y0194502D01*
X0202024Y0194362D02*
X0203324Y0193062D01*
X0203324Y0184862D01*
X0206824Y0181362D01*
X0211867Y0181362D01*
X0216524Y0181362D01*
X0217674Y0180212D01*
X0217674Y0176462D01*
X0220174Y0179262D02*
X0220174Y0180637D01*
X0217450Y0183362D01*
X0211899Y0183362D01*
X0211892Y0183355D01*
X0211884Y0183362D01*
X0207624Y0183362D01*
X0205324Y0185562D01*
X0205424Y0196362D01*
X0203678Y0198108D01*
X0197374Y0198108D01*
X0200639Y0200493D02*
X0208765Y0200493D01*
X0209763Y0199494D02*
X0204554Y0199494D01*
X0205553Y0198496D02*
X0210500Y0198496D01*
X0210500Y0197497D02*
X0206552Y0197497D01*
X0207025Y0196499D02*
X0208165Y0196499D01*
X0207839Y0195500D02*
X0207016Y0195500D01*
X0207007Y0194502D02*
X0207839Y0194502D01*
X0207839Y0193503D02*
X0206998Y0193503D01*
X0206988Y0192505D02*
X0207839Y0192505D01*
X0207839Y0191506D02*
X0206979Y0191506D01*
X0206970Y0190508D02*
X0207839Y0190508D01*
X0207839Y0189509D02*
X0206961Y0189509D01*
X0206951Y0188511D02*
X0207839Y0188511D01*
X0207839Y0187512D02*
X0206942Y0187512D01*
X0206933Y0186514D02*
X0207839Y0186514D01*
X0207839Y0185515D02*
X0207688Y0185515D01*
X0211867Y0181362D02*
X0211892Y0181386D01*
X0207439Y0175530D02*
X0205295Y0175530D01*
X0204296Y0174531D02*
X0207493Y0174531D01*
X0207839Y0173533D02*
X0200993Y0173533D01*
X0200993Y0172534D02*
X0207839Y0172534D01*
X0207124Y0171536D02*
X0200841Y0171536D01*
X0201493Y0169980D02*
X0199615Y0169980D01*
X0199233Y0169878D01*
X0198891Y0169681D01*
X0198612Y0169401D01*
X0198414Y0169059D01*
X0198312Y0168678D01*
X0198312Y0166996D01*
X0201493Y0166996D01*
X0201493Y0169980D01*
X0201493Y0169539D02*
X0202462Y0169539D01*
X0202462Y0168540D02*
X0201493Y0168540D01*
X0201493Y0167542D02*
X0202462Y0167542D01*
X0201493Y0166543D02*
X0190039Y0166543D01*
X0190039Y0165545D02*
X0198312Y0165545D01*
X0198312Y0166027D02*
X0198312Y0164346D01*
X0198414Y0163964D01*
X0198612Y0163622D01*
X0198891Y0163343D01*
X0199233Y0163145D01*
X0199615Y0163043D01*
X0201493Y0163043D01*
X0201493Y0166027D01*
X0198312Y0166027D01*
X0198312Y0164546D02*
X0189770Y0164546D01*
X0189518Y0163125D02*
X0189136Y0163227D01*
X0187750Y0163227D01*
X0187750Y0159948D01*
X0190439Y0159948D01*
X0190439Y0161925D01*
X0190337Y0162306D01*
X0190139Y0162648D01*
X0189860Y0162928D01*
X0189518Y0163125D01*
X0190197Y0162549D02*
X0201499Y0162549D01*
X0201315Y0162365D02*
X0201315Y0162365D01*
X0201493Y0163548D02*
X0202462Y0163548D01*
X0202462Y0164546D02*
X0201493Y0164546D01*
X0201493Y0165545D02*
X0202462Y0165545D01*
X0203924Y0162712D02*
X0207574Y0162712D01*
X0208624Y0163762D01*
X0208624Y0166465D01*
X0208671Y0166512D01*
X0208670Y0170291D01*
X0209012Y0170291D01*
X0209424Y0170703D01*
X0208670Y0170291D02*
X0211892Y0173512D01*
X0207070Y0170954D02*
X0207070Y0170954D01*
X0207070Y0170954D01*
X0207070Y0170537D02*
X0189824Y0170537D01*
X0189824Y0169539D02*
X0198749Y0169539D01*
X0198312Y0168540D02*
X0189587Y0168540D01*
X0190039Y0167542D02*
X0198312Y0167542D01*
X0197040Y0170700D02*
X0197040Y0173881D01*
X0194056Y0173881D01*
X0194056Y0172002D01*
X0194158Y0171621D01*
X0194355Y0171279D01*
X0194635Y0171000D01*
X0194977Y0170802D01*
X0195358Y0170700D01*
X0197040Y0170700D01*
X0197040Y0171536D02*
X0198008Y0171536D01*
X0198008Y0172534D02*
X0197040Y0172534D01*
X0197040Y0173533D02*
X0198008Y0173533D01*
X0198008Y0174531D02*
X0202252Y0174531D01*
X0201253Y0175530D02*
X0200993Y0175530D01*
X0197040Y0174531D02*
X0192504Y0174531D01*
X0192504Y0173533D02*
X0194056Y0173533D01*
X0194056Y0172534D02*
X0192504Y0172534D01*
X0194207Y0171536D02*
X0189403Y0171536D01*
X0185645Y0171536D02*
X0184903Y0171536D01*
X0185580Y0172534D02*
X0182268Y0172534D01*
X0182268Y0173533D02*
X0185580Y0173533D01*
X0185580Y0174531D02*
X0182268Y0174531D01*
X0182248Y0175530D02*
X0185600Y0175530D01*
X0182668Y0176528D02*
X0194056Y0176528D01*
X0194056Y0175530D02*
X0192484Y0175530D01*
X0194430Y0177527D02*
X0182668Y0177527D01*
X0182668Y0178525D02*
X0194456Y0178525D01*
X0194456Y0179524D02*
X0192115Y0179524D01*
X0191977Y0183518D02*
X0194456Y0183518D01*
X0195617Y0184516D02*
X0181031Y0184516D01*
X0181124Y0185515D02*
X0195224Y0185515D01*
X0195224Y0186514D02*
X0181124Y0186514D01*
X0180126Y0187512D02*
X0195574Y0187512D01*
X0194589Y0188511D02*
X0193009Y0188511D01*
X0193539Y0189509D02*
X0194109Y0189509D01*
X0194109Y0193503D02*
X0193539Y0193503D01*
X0187009Y0196499D02*
X0186414Y0196499D01*
X0179624Y0191415D02*
X0178780Y0192259D01*
X0172674Y0192259D01*
X0175349Y0190508D02*
X0176359Y0190508D01*
X0176359Y0189509D02*
X0163989Y0189509D01*
X0163989Y0190508D02*
X0164999Y0190508D01*
X0163359Y0188511D02*
X0176839Y0188511D01*
X0177522Y0187512D02*
X0139472Y0187512D01*
X0138037Y0191506D02*
X0137166Y0191506D01*
X0137936Y0197497D02*
X0134169Y0197497D01*
X0132613Y0197497D02*
X0130613Y0197497D01*
X0130884Y0196499D02*
X0128884Y0196499D01*
X0128084Y0196037D02*
X0127218Y0195537D01*
X0125468Y0198568D01*
X0121399Y0196219D01*
X0121120Y0195940D01*
X0120923Y0195598D01*
X0120890Y0195476D01*
X0119207Y0198374D01*
X0119976Y0198168D01*
X0123488Y0200196D01*
X0123587Y0200026D01*
X0124208Y0199859D01*
X0124707Y0199726D01*
X0126596Y0199219D01*
X0126334Y0199068D01*
X0128084Y0196037D01*
X0127817Y0196499D02*
X0126662Y0196499D01*
X0126086Y0197497D02*
X0127240Y0197497D01*
X0126664Y0198496D02*
X0125509Y0198496D01*
X0125343Y0198496D02*
X0120543Y0198496D01*
X0119716Y0197497D02*
X0123613Y0197497D01*
X0121884Y0196499D02*
X0120296Y0196499D01*
X0120877Y0195500D02*
X0120897Y0195500D01*
X0122272Y0199494D02*
X0125571Y0199494D01*
X0124707Y0199726D02*
X0124707Y0199726D01*
X0123587Y0200026D02*
X0123587Y0200026D01*
X0123587Y0200026D01*
X0127461Y0202490D02*
X0127602Y0202490D01*
X0129190Y0203488D02*
X0129332Y0203488D01*
X0129656Y0204487D02*
X0131113Y0204487D01*
X0130308Y0204052D02*
X0130308Y0204052D01*
X0130308Y0204052D01*
X0131069Y0205485D02*
X0129095Y0205485D01*
X0128518Y0206484D02*
X0130492Y0206484D01*
X0129916Y0207482D02*
X0127942Y0207482D01*
X0127365Y0208481D02*
X0129339Y0208481D01*
X0128763Y0209479D02*
X0126789Y0209479D01*
X0125167Y0209479D02*
X0112755Y0209479D01*
X0112175Y0210478D02*
X0128186Y0210478D01*
X0127610Y0211476D02*
X0111595Y0211476D01*
X0111015Y0212475D02*
X0127033Y0212475D01*
X0126457Y0213473D02*
X0110435Y0213473D01*
X0109855Y0214472D02*
X0125275Y0214472D01*
X0124363Y0215470D02*
X0109275Y0215470D01*
X0108695Y0216469D02*
X0124363Y0216469D01*
X0124548Y0217467D02*
X0108115Y0217467D01*
X0107535Y0218466D02*
X0125546Y0218466D01*
X0127760Y0218466D02*
X0196000Y0218466D01*
X0196000Y0219464D02*
X0106955Y0219464D01*
X0106375Y0220463D02*
X0196000Y0220463D01*
X0196000Y0221461D02*
X0105795Y0221461D01*
X0105215Y0222460D02*
X0196000Y0222460D01*
X0196000Y0223458D02*
X0104634Y0223458D01*
X0104054Y0224457D02*
X0196000Y0224457D01*
X0196000Y0225455D02*
X0103474Y0225455D01*
X0102894Y0226454D02*
X0196000Y0226454D01*
X0196000Y0227452D02*
X0102314Y0227452D01*
X0101734Y0228451D02*
X0196000Y0228451D01*
X0194835Y0229449D02*
X0101154Y0229449D01*
X0100574Y0230448D02*
X0193836Y0230448D01*
X0193600Y0231447D02*
X0099994Y0231447D01*
X0099414Y0232445D02*
X0193600Y0232445D01*
X0194453Y0233444D02*
X0098834Y0233444D01*
X0098254Y0234442D02*
X0194942Y0234442D01*
X0193944Y0235441D02*
X0097674Y0235441D01*
X0097093Y0236439D02*
X0193600Y0236439D01*
X0193600Y0237438D02*
X0096513Y0237438D01*
X0095933Y0238436D02*
X0194346Y0238436D01*
X0197454Y0238436D02*
X0198600Y0238436D01*
X0198600Y0237438D02*
X0198200Y0237438D01*
X0198200Y0236439D02*
X0198600Y0236439D01*
X0201400Y0236439D02*
X0209500Y0236439D01*
X0209500Y0235441D02*
X0201400Y0235441D01*
X0201400Y0234442D02*
X0209500Y0234442D01*
X0209500Y0233444D02*
X0201400Y0233444D01*
X0201400Y0232445D02*
X0209500Y0232445D01*
X0209500Y0231881D02*
X0210144Y0231237D01*
X0212725Y0231237D01*
X0212725Y0224477D01*
X0211704Y0224477D01*
X0211060Y0223832D01*
X0211060Y0218984D01*
X0211704Y0218340D01*
X0216946Y0218340D01*
X0217591Y0218984D01*
X0217591Y0223832D01*
X0216946Y0224477D01*
X0215925Y0224477D01*
X0215925Y0231237D01*
X0219028Y0231237D01*
X0219673Y0231881D01*
X0219673Y0237812D01*
X0219028Y0238457D01*
X0210144Y0238457D01*
X0209500Y0237812D01*
X0209500Y0231881D01*
X0209935Y0231447D02*
X0201400Y0231447D01*
X0201400Y0230448D02*
X0212725Y0230448D01*
X0212725Y0229449D02*
X0201400Y0229449D01*
X0201400Y0228451D02*
X0212725Y0228451D01*
X0212725Y0227452D02*
X0201400Y0227452D01*
X0201400Y0226454D02*
X0212725Y0226454D01*
X0212725Y0225455D02*
X0201400Y0225455D01*
X0201400Y0224457D02*
X0211685Y0224457D01*
X0211060Y0223458D02*
X0201400Y0223458D01*
X0201400Y0222460D02*
X0211060Y0222460D01*
X0211060Y0221461D02*
X0201400Y0221461D01*
X0201400Y0220463D02*
X0211060Y0220463D01*
X0211060Y0219464D02*
X0201400Y0219464D01*
X0201400Y0218466D02*
X0211578Y0218466D01*
X0211704Y0217784D02*
X0211060Y0217140D01*
X0211060Y0216115D01*
X0209674Y0216115D01*
X0208752Y0217037D01*
X0206847Y0217037D01*
X0205500Y0215690D01*
X0205500Y0213785D01*
X0206747Y0212537D01*
X0204380Y0212537D01*
X0201400Y0215517D01*
X0201400Y0266722D01*
X0201420Y0266744D01*
X0201400Y0267298D01*
X0201400Y0267716D01*
X0201502Y0267894D01*
X0201358Y0268430D01*
X0201347Y0268739D01*
X0201252Y0268828D01*
X0201202Y0269014D01*
X0200806Y0269242D01*
X0200498Y0269529D01*
X0200321Y0269522D01*
X0139199Y0304811D01*
X0140284Y0305897D01*
X0140284Y0307613D01*
X0144069Y0314168D01*
X0144493Y0314168D01*
X0145834Y0315510D01*
X0145834Y0317407D01*
X0144493Y0318749D01*
X0142595Y0318749D01*
X0141253Y0317407D01*
X0141253Y0315691D01*
X0137469Y0309136D01*
X0137045Y0309136D01*
X0136305Y0308396D01*
X0136034Y0309410D01*
X0132570Y0311410D01*
X0132420Y0311969D01*
X0135503Y0310189D01*
X0136383Y0310425D01*
X0139339Y0315544D01*
X0139103Y0316424D01*
X0129654Y0321880D01*
X0128910Y0321680D01*
X0156397Y0369289D01*
X0211731Y0369140D01*
X0211152Y0368561D01*
X0211152Y0357649D01*
X0211796Y0357005D01*
X0213184Y0357005D01*
X0213184Y0348927D01*
X0211121Y0346865D01*
X0210923Y0346865D01*
X0210233Y0347555D01*
X0208335Y0347555D01*
X0207874Y0347094D01*
X0207874Y0348813D01*
X0207184Y0349504D01*
X0207184Y0361425D01*
X0207874Y0362116D01*
X0207874Y0364013D01*
X0206533Y0365355D01*
X0204635Y0365355D01*
X0203293Y0364013D01*
X0203293Y0362116D01*
X0203984Y0361425D01*
X0203984Y0349504D01*
X0203293Y0348813D01*
X0203293Y0346916D01*
X0204635Y0345574D01*
X0206533Y0345574D01*
X0206993Y0346035D01*
X0206993Y0344316D01*
X0208335Y0342974D01*
X0210233Y0342974D01*
X0210923Y0343665D01*
X0211121Y0343665D01*
X0211121Y0343665D01*
X0211500Y0343665D01*
X0212447Y0343665D01*
X0212464Y0343682D01*
X0213384Y0344602D01*
X0215447Y0346665D01*
X0216384Y0347602D01*
X0216384Y0357005D01*
X0217708Y0357005D01*
X0218352Y0357649D01*
X0218352Y0368561D01*
X0217789Y0369124D01*
X0221140Y0369115D01*
X0221052Y0369026D01*
X0220854Y0368684D01*
X0220752Y0368302D01*
X0220752Y0363605D01*
X0224252Y0363605D01*
X0224252Y0362605D01*
X0225252Y0362605D01*
X0225252Y0363605D01*
X0228752Y0363605D01*
X0228752Y0368302D01*
X0228650Y0368684D01*
X0228452Y0369026D01*
X0228383Y0369095D01*
X0231678Y0369086D01*
X0231152Y0368561D01*
X0231152Y0357649D01*
X0231796Y0357005D01*
X0237708Y0357005D01*
X0238352Y0357649D01*
X0238352Y0359755D01*
X0238885Y0359222D01*
X0239700Y0358408D01*
X0239700Y0356088D01*
X0239133Y0356655D01*
X0237235Y0356655D01*
X0236545Y0355965D01*
X0230423Y0355965D01*
X0229733Y0356655D01*
X0227835Y0356655D01*
X0226493Y0355313D01*
X0226493Y0353416D01*
X0227835Y0352074D01*
X0229733Y0352074D01*
X0230423Y0352765D01*
X0236545Y0352765D01*
X0237235Y0352074D01*
X0239133Y0352074D01*
X0239700Y0352641D01*
X0239700Y0271103D01*
X0239474Y0271329D01*
X0239132Y0271526D01*
X0238750Y0271628D01*
X0235067Y0271628D01*
X0235067Y0268119D01*
X0234067Y0268119D01*
X0234067Y0271628D01*
X0230383Y0271628D01*
X0230001Y0271526D01*
X0229659Y0271329D01*
X0229380Y0271049D01*
X0229183Y0270707D01*
X0229080Y0270326D01*
X0229080Y0268119D01*
X0234067Y0268119D01*
X0234067Y0267119D01*
X0235067Y0267119D01*
X0235067Y0263609D01*
X0238750Y0263609D01*
X0239132Y0263711D01*
X0239474Y0263908D01*
X0239700Y0264134D01*
X0239700Y0229117D01*
X0239427Y0229390D01*
X0238880Y0229937D01*
X0236580Y0229937D01*
X0235900Y0230617D01*
X0235900Y0231237D01*
X0239008Y0231237D01*
X0239653Y0231881D01*
X0239653Y0237812D01*
X0239008Y0238457D01*
X0230125Y0238457D01*
X0229480Y0237812D01*
X0229480Y0231881D01*
X0230125Y0231237D01*
X0233100Y0231237D01*
X0233100Y0230617D01*
X0233100Y0230617D01*
X0233100Y0229458D01*
X0233784Y0228773D01*
X0233920Y0228637D01*
X0234720Y0227837D01*
X0234447Y0227837D01*
X0233100Y0226490D01*
X0233100Y0224585D01*
X0233373Y0224312D01*
X0232470Y0224312D01*
X0231991Y0223833D01*
X0231346Y0224477D01*
X0230125Y0224477D01*
X0230125Y0224759D01*
X0231025Y0225659D01*
X0231025Y0227564D01*
X0231000Y0227590D01*
X0231000Y0227590D01*
X0229652Y0228937D01*
X0227747Y0228937D01*
X0226400Y0227590D01*
X0226400Y0225685D01*
X0226425Y0225659D01*
X0227325Y0224759D01*
X0227325Y0224477D01*
X0226104Y0224477D01*
X0225460Y0223832D01*
X0225460Y0218984D01*
X0226104Y0218340D01*
X0231122Y0218340D01*
X0231120Y0218337D01*
X0230566Y0217784D01*
X0226104Y0217784D01*
X0225460Y0217139D01*
X0225460Y0216067D01*
X0224592Y0216067D01*
X0224592Y0217288D01*
X0224079Y0217801D01*
X0224413Y0217994D01*
X0224693Y0218273D01*
X0224890Y0218615D01*
X0224992Y0218997D01*
X0224992Y0220875D01*
X0222008Y0220875D01*
X0222008Y0221844D01*
X0221040Y0221844D01*
X0221040Y0225025D01*
X0219358Y0225025D01*
X0218976Y0224923D01*
X0218634Y0224725D01*
X0218355Y0224446D01*
X0218158Y0224104D01*
X0218055Y0223722D01*
X0218055Y0221844D01*
X0221040Y0221844D01*
X0221040Y0220875D01*
X0218055Y0220875D01*
X0218055Y0218997D01*
X0218158Y0218615D01*
X0218355Y0218273D01*
X0218634Y0217994D01*
X0218969Y0217801D01*
X0218455Y0217288D01*
X0218455Y0212537D01*
X0217591Y0212537D01*
X0217591Y0217140D01*
X0216946Y0217784D01*
X0211704Y0217784D01*
X0211388Y0217467D02*
X0201400Y0217467D01*
X0201400Y0216469D02*
X0206278Y0216469D01*
X0205500Y0215470D02*
X0201447Y0215470D01*
X0202445Y0214472D02*
X0205500Y0214472D01*
X0205811Y0213473D02*
X0203444Y0213473D01*
X0199878Y0209479D02*
X0149248Y0209479D01*
X0149248Y0210478D02*
X0198879Y0210478D01*
X0197881Y0211476D02*
X0148458Y0211476D01*
X0145457Y0211476D02*
X0131305Y0211476D01*
X0131881Y0210478D02*
X0144667Y0210478D01*
X0144109Y0209479D02*
X0132458Y0209479D01*
X0133034Y0208481D02*
X0142379Y0208481D01*
X0140650Y0207482D02*
X0133611Y0207482D01*
X0134801Y0206484D02*
X0138920Y0206484D01*
X0137191Y0205485D02*
X0135694Y0205485D01*
X0133403Y0204642D02*
X0126653Y0216334D01*
X0128944Y0216469D02*
X0196000Y0216469D01*
X0196000Y0217467D02*
X0128759Y0217467D01*
X0128999Y0215470D02*
X0196000Y0215470D01*
X0196000Y0214472D02*
X0129575Y0214472D01*
X0130152Y0213473D02*
X0196000Y0213473D01*
X0196882Y0212475D02*
X0130728Y0212475D01*
X0123438Y0208481D02*
X0113336Y0208481D01*
X0113916Y0207482D02*
X0121708Y0207482D01*
X0119979Y0206484D02*
X0114496Y0206484D01*
X0115076Y0205485D02*
X0118249Y0205485D01*
X0116520Y0204487D02*
X0115656Y0204487D01*
X0128393Y0195500D02*
X0129154Y0195500D01*
X0128970Y0194502D02*
X0127815Y0194502D01*
X0128392Y0193503D02*
X0129546Y0193503D01*
X0132343Y0198496D02*
X0137124Y0198496D01*
X0137124Y0199494D02*
X0133016Y0199494D01*
X0132773Y0200493D02*
X0132439Y0200493D01*
X0134143Y0200493D02*
X0137402Y0200493D01*
X0138401Y0201491D02*
X0135873Y0201491D01*
X0137602Y0202490D02*
X0141615Y0202490D01*
X0147942Y0207482D02*
X0201875Y0207482D01*
X0200877Y0208481D02*
X0148940Y0208481D01*
X0156443Y0197497D02*
X0157459Y0197497D01*
X0157459Y0196499D02*
X0156443Y0196499D01*
X0156305Y0195500D02*
X0157793Y0195500D01*
X0157971Y0194502D02*
X0156629Y0194502D01*
X0156843Y0193503D02*
X0157459Y0193503D01*
X0157459Y0192505D02*
X0156843Y0192505D01*
X0157459Y0191506D02*
X0153858Y0191506D01*
X0156843Y0190508D02*
X0157459Y0190508D01*
X0157459Y0189509D02*
X0156843Y0189509D01*
X0156561Y0188511D02*
X0158089Y0188511D01*
X0160724Y0191565D02*
X0161418Y0192259D01*
X0167674Y0192259D01*
X0165211Y0194502D02*
X0163477Y0194502D01*
X0163655Y0195500D02*
X0165633Y0195500D01*
X0164999Y0196499D02*
X0163989Y0196499D01*
X0163989Y0197497D02*
X0164999Y0197497D01*
X0169715Y0195500D02*
X0170633Y0195500D01*
X0170211Y0194502D02*
X0170137Y0194502D01*
X0170051Y0200493D02*
X0170297Y0200493D01*
X0170324Y0201491D02*
X0170024Y0201491D01*
X0170024Y0202490D02*
X0170324Y0202490D01*
X0170698Y0203488D02*
X0169750Y0203488D01*
X0161824Y0202862D02*
X0160724Y0201762D01*
X0162190Y0184516D02*
X0163158Y0184516D01*
X0163158Y0183518D02*
X0162190Y0183518D01*
X0162190Y0182519D02*
X0163158Y0182519D01*
X0165403Y0184516D02*
X0167273Y0184516D01*
X0166107Y0178525D02*
X0166097Y0178525D01*
X0160071Y0177527D02*
X0157476Y0177527D01*
X0157476Y0178525D02*
X0159251Y0178525D01*
X0159206Y0179524D02*
X0157345Y0179524D01*
X0157987Y0180522D02*
X0159206Y0180522D01*
X0159606Y0176528D02*
X0157476Y0176528D01*
X0157476Y0175530D02*
X0158738Y0175530D01*
X0157740Y0174531D02*
X0155557Y0174531D01*
X0144049Y0157841D02*
X0144049Y0157841D01*
X0149278Y0153563D02*
X0149970Y0153563D01*
X0153178Y0153563D02*
X0159556Y0153563D01*
X0159556Y0154561D02*
X0153874Y0154561D01*
X0153874Y0155560D02*
X0159556Y0155560D01*
X0159556Y0156558D02*
X0153480Y0156558D01*
X0148720Y0147572D02*
X0162140Y0147572D01*
X0162140Y0146831D02*
X0159156Y0146831D01*
X0159156Y0144952D01*
X0159258Y0144571D01*
X0159455Y0144229D01*
X0159735Y0143950D01*
X0160077Y0143752D01*
X0160458Y0143650D01*
X0162140Y0143650D01*
X0162140Y0146831D01*
X0162140Y0146573D02*
X0163108Y0146573D01*
X0163108Y0145575D02*
X0162140Y0145575D01*
X0162140Y0144576D02*
X0163108Y0144576D01*
X0163108Y0147572D02*
X0166159Y0147572D01*
X0166093Y0148570D02*
X0171931Y0148570D01*
X0171596Y0149569D02*
X0166093Y0149569D01*
X0165627Y0150567D02*
X0171520Y0150567D01*
X0171713Y0151566D02*
X0165693Y0151566D01*
X0165693Y0152564D02*
X0172229Y0152564D01*
X0173267Y0153563D02*
X0165693Y0153563D01*
X0165693Y0154561D02*
X0177911Y0154561D01*
X0177911Y0153563D02*
X0177498Y0153563D01*
X0175473Y0153563D02*
X0175292Y0153563D01*
X0175292Y0152564D02*
X0175473Y0152564D01*
X0175473Y0151566D02*
X0175292Y0151566D01*
X0175292Y0150567D02*
X0175473Y0150567D01*
X0176286Y0146573D02*
X0177924Y0146573D01*
X0178170Y0145575D02*
X0170881Y0145575D01*
X0170881Y0146573D02*
X0170631Y0146573D01*
X0170631Y0147572D02*
X0170881Y0147572D01*
X0169360Y0142579D02*
X0151621Y0142579D01*
X0152201Y0141580D02*
X0169201Y0141580D01*
X0169201Y0140582D02*
X0152781Y0140582D01*
X0153361Y0139583D02*
X0169201Y0139583D01*
X0169201Y0137918D02*
X0169201Y0134704D01*
X0169303Y0134323D01*
X0169501Y0133981D01*
X0169780Y0133702D01*
X0170122Y0133504D01*
X0170503Y0133402D01*
X0173717Y0133402D01*
X0173717Y0137918D01*
X0169201Y0137918D01*
X0169201Y0137586D02*
X0154521Y0137586D01*
X0155101Y0136588D02*
X0169201Y0136588D01*
X0169201Y0135589D02*
X0155681Y0135589D01*
X0156261Y0134591D02*
X0169231Y0134591D01*
X0169969Y0133592D02*
X0156841Y0133592D01*
X0153941Y0138585D02*
X0173717Y0138585D01*
X0174685Y0138585D02*
X0195173Y0138585D01*
X0195173Y0138886D02*
X0195173Y0137918D01*
X0190658Y0137918D01*
X0190658Y0134704D01*
X0190760Y0134323D01*
X0190957Y0133981D01*
X0191237Y0133702D01*
X0191579Y0133504D01*
X0191960Y0133402D01*
X0195173Y0133402D01*
X0195173Y0137918D01*
X0196142Y0137918D01*
X0196142Y0138886D01*
X0200658Y0138886D01*
X0200658Y0142099D01*
X0200555Y0142481D01*
X0200407Y0142739D01*
X0202646Y0142739D01*
X0203028Y0142841D01*
X0203370Y0143038D01*
X0203649Y0143318D01*
X0203847Y0143660D01*
X0203949Y0144041D01*
X0203949Y0145364D01*
X0199228Y0145364D01*
X0199228Y0145614D01*
X0203949Y0145614D01*
X0203949Y0146936D01*
X0203847Y0147318D01*
X0203649Y0147660D01*
X0203370Y0147939D01*
X0203028Y0148136D01*
X0202646Y0148239D01*
X0199228Y0148239D01*
X0199228Y0145614D01*
X0198978Y0145614D01*
X0198977Y0145614D02*
X0198977Y0145364D01*
X0194256Y0145364D01*
X0194256Y0144041D01*
X0194358Y0143660D01*
X0194507Y0143402D01*
X0191960Y0143402D01*
X0191579Y0143300D01*
X0191237Y0143102D01*
X0190957Y0142823D01*
X0190760Y0142481D01*
X0190658Y0142099D01*
X0190658Y0138886D01*
X0195173Y0138886D01*
X0196142Y0138585D02*
X0211797Y0138585D01*
X0211797Y0139583D02*
X0200658Y0139583D01*
X0200658Y0140582D02*
X0211797Y0140582D01*
X0211797Y0141580D02*
X0200658Y0141580D01*
X0200499Y0142579D02*
X0211797Y0142579D01*
X0211797Y0143578D02*
X0203799Y0143578D01*
X0203949Y0144576D02*
X0211853Y0144576D01*
X0211711Y0146573D02*
X0203949Y0146573D01*
X0203700Y0147572D02*
X0210713Y0147572D01*
X0210700Y0148570D02*
X0197928Y0148570D01*
X0198263Y0149569D02*
X0210778Y0149569D01*
X0211777Y0150567D02*
X0198339Y0150567D01*
X0198339Y0150712D02*
X0198190Y0151458D01*
X0197899Y0152161D01*
X0197477Y0152793D01*
X0196939Y0153331D01*
X0196306Y0153754D01*
X0195603Y0154045D01*
X0194857Y0154193D01*
X0194567Y0154193D01*
X0194567Y0150422D01*
X0198339Y0150422D01*
X0198339Y0150712D01*
X0198146Y0151566D02*
X0213067Y0151566D01*
X0212874Y0152564D02*
X0197630Y0152564D01*
X0196592Y0153563D02*
X0212874Y0153563D01*
X0213771Y0154561D02*
X0191758Y0154561D01*
X0192334Y0153563D02*
X0192361Y0153563D01*
X0194386Y0153563D02*
X0194567Y0153563D01*
X0194567Y0152564D02*
X0194386Y0152564D01*
X0194386Y0151566D02*
X0194567Y0151566D01*
X0194567Y0150567D02*
X0194386Y0150567D01*
X0193573Y0146573D02*
X0192335Y0146573D01*
X0192162Y0145575D02*
X0198977Y0145575D01*
X0199228Y0145575D02*
X0214000Y0145575D01*
X0216800Y0145575D02*
X0225309Y0145575D01*
X0225471Y0145412D02*
X0225897Y0145412D01*
X0225897Y0139564D01*
X0224897Y0139564D01*
X0224897Y0145564D01*
X0222699Y0145564D01*
X0222318Y0145462D01*
X0221976Y0145265D01*
X0221696Y0144985D01*
X0221499Y0144643D01*
X0221397Y0144262D01*
X0221397Y0139564D01*
X0224897Y0139564D01*
X0224897Y0138564D01*
X0221397Y0138564D01*
X0221397Y0133867D01*
X0221499Y0133485D01*
X0221696Y0133143D01*
X0221766Y0133074D01*
X0218471Y0133083D01*
X0218997Y0133609D01*
X0218997Y0144520D01*
X0218352Y0145164D01*
X0216800Y0145164D01*
X0216800Y0147217D01*
X0215980Y0148037D01*
X0215300Y0148717D01*
X0215300Y0149490D01*
X0214378Y0150412D01*
X0216127Y0150412D01*
X0216827Y0151112D01*
X0220761Y0151112D01*
X0224124Y0147749D01*
X0224124Y0146760D01*
X0225471Y0145412D01*
X0225897Y0144576D02*
X0224897Y0144576D01*
X0224897Y0143578D02*
X0225897Y0143578D01*
X0225897Y0142579D02*
X0224897Y0142579D01*
X0224897Y0141580D02*
X0225897Y0141580D01*
X0225897Y0140582D02*
X0224897Y0140582D01*
X0224897Y0139583D02*
X0225897Y0139583D01*
X0225897Y0138585D02*
X0231797Y0138585D01*
X0231797Y0139583D02*
X0229397Y0139583D01*
X0229397Y0140582D02*
X0231797Y0140582D01*
X0231797Y0141580D02*
X0229397Y0141580D01*
X0229397Y0142579D02*
X0231797Y0142579D01*
X0231797Y0143578D02*
X0229397Y0143578D01*
X0229312Y0144576D02*
X0231853Y0144576D01*
X0228537Y0146573D02*
X0242334Y0146573D01*
X0242334Y0145575D02*
X0227539Y0145575D01*
X0228724Y0147572D02*
X0242334Y0147572D01*
X0242334Y0148570D02*
X0228724Y0148570D01*
X0227820Y0149569D02*
X0242334Y0149569D01*
X0242334Y0150567D02*
X0225831Y0150567D01*
X0224833Y0151566D02*
X0242334Y0151566D01*
X0241936Y0152564D02*
X0223834Y0152564D01*
X0222836Y0153563D02*
X0241644Y0153563D01*
X0241644Y0154561D02*
X0216577Y0154561D01*
X0217262Y0155372D02*
X0217541Y0155093D01*
X0217883Y0154895D01*
X0218265Y0154793D01*
X0220143Y0154793D01*
X0220143Y0157777D01*
X0216962Y0157777D01*
X0216962Y0156096D01*
X0217064Y0155714D01*
X0217262Y0155372D01*
X0217154Y0155560D02*
X0211358Y0155560D01*
X0211739Y0156558D02*
X0216962Y0156558D01*
X0216962Y0157557D02*
X0214182Y0157557D01*
X0215180Y0158555D02*
X0220143Y0158555D01*
X0220143Y0157557D02*
X0221112Y0157557D01*
X0221112Y0156558D02*
X0220143Y0156558D01*
X0220143Y0155560D02*
X0221112Y0155560D01*
X0221424Y0152712D02*
X0215174Y0152712D01*
X0216282Y0150567D02*
X0221306Y0150567D01*
X0222304Y0149569D02*
X0215221Y0149569D01*
X0215447Y0148570D02*
X0223303Y0148570D01*
X0224124Y0147572D02*
X0216445Y0147572D01*
X0216800Y0146573D02*
X0224310Y0146573D01*
X0226424Y0147712D02*
X0221424Y0152712D01*
X0224101Y0155560D02*
X0224333Y0155560D01*
X0227321Y0158262D02*
X0227324Y0158265D01*
X0227324Y0161162D01*
X0229608Y0163446D01*
X0229608Y0167607D01*
X0227640Y0167607D02*
X0227639Y0167607D01*
X0227639Y0172059D01*
X0226891Y0172059D01*
X0226509Y0171957D01*
X0226167Y0171760D01*
X0226067Y0171659D01*
X0225324Y0171659D01*
X0225324Y0174409D01*
X0226024Y0175109D01*
X0226024Y0177014D01*
X0224677Y0178362D01*
X0223800Y0178362D01*
X0223800Y0178917D01*
X0223800Y0178917D01*
X0223800Y0179258D01*
X0226100Y0176958D01*
X0226100Y0175685D01*
X0227447Y0174337D01*
X0229352Y0174337D01*
X0230024Y0175009D01*
X0230024Y0171659D01*
X0229212Y0171659D01*
X0229112Y0171760D01*
X0228770Y0171957D01*
X0228388Y0172059D01*
X0227640Y0172059D01*
X0227640Y0167607D01*
X0227639Y0168540D02*
X0227640Y0168540D01*
X0227639Y0169539D02*
X0227640Y0169539D01*
X0227639Y0170537D02*
X0227640Y0170537D01*
X0227639Y0171536D02*
X0227640Y0171536D01*
X0225324Y0172534D02*
X0230024Y0172534D01*
X0230024Y0173533D02*
X0225324Y0173533D01*
X0225446Y0174531D02*
X0227253Y0174531D01*
X0226255Y0175530D02*
X0226024Y0175530D01*
X0226024Y0176528D02*
X0226100Y0176528D01*
X0225530Y0177527D02*
X0225512Y0177527D01*
X0224532Y0178525D02*
X0223800Y0178525D01*
X0223724Y0176062D02*
X0223724Y0167628D01*
X0223703Y0167607D01*
X0223724Y0167585D01*
X0223724Y0163662D01*
X0222524Y0162462D01*
X0216824Y0162462D01*
X0212924Y0158562D01*
X0208670Y0158562D01*
X0205602Y0158555D02*
X0205046Y0158555D01*
X0205046Y0157557D02*
X0205602Y0157557D01*
X0205602Y0156558D02*
X0205046Y0156558D01*
X0204665Y0155560D02*
X0205983Y0155560D01*
X0205602Y0159554D02*
X0205046Y0159554D01*
X0205046Y0160552D02*
X0205602Y0160552D01*
X0203924Y0162712D02*
X0201978Y0160765D01*
X0201978Y0158562D01*
X0198909Y0158555D02*
X0190439Y0158555D01*
X0190429Y0157557D02*
X0198909Y0157557D01*
X0198909Y0156558D02*
X0189805Y0156558D01*
X0190047Y0154863D02*
X0190047Y0149819D01*
X0190047Y0149819D01*
X0190047Y0154863D01*
X0190047Y0154561D02*
X0190047Y0154561D01*
X0190047Y0153563D02*
X0190047Y0153563D01*
X0190047Y0152564D02*
X0190047Y0152564D01*
X0190047Y0151566D02*
X0190047Y0151566D01*
X0190047Y0150567D02*
X0190047Y0150567D01*
X0190047Y0149569D02*
X0190047Y0149569D01*
X0190047Y0148570D02*
X0190047Y0148570D01*
X0190047Y0147572D02*
X0190047Y0147572D01*
X0190047Y0146573D02*
X0190047Y0146573D01*
X0190047Y0145575D02*
X0190047Y0145575D01*
X0190817Y0142579D02*
X0179042Y0142579D01*
X0179201Y0141580D02*
X0190658Y0141580D01*
X0190658Y0140582D02*
X0179201Y0140582D01*
X0179201Y0139583D02*
X0190658Y0139583D01*
X0190658Y0137586D02*
X0179201Y0137586D01*
X0179201Y0137918D02*
X0174685Y0137918D01*
X0174685Y0133402D01*
X0177898Y0133402D01*
X0178280Y0133504D01*
X0178622Y0133702D01*
X0178901Y0133981D01*
X0179099Y0134323D01*
X0179201Y0134704D01*
X0179201Y0137918D01*
X0179201Y0136588D02*
X0190658Y0136588D01*
X0190658Y0135589D02*
X0179201Y0135589D01*
X0179171Y0134591D02*
X0190688Y0134591D01*
X0191426Y0133592D02*
X0178433Y0133592D01*
X0174685Y0133592D02*
X0173717Y0133592D01*
X0173717Y0134591D02*
X0174685Y0134591D01*
X0174685Y0135589D02*
X0173717Y0135589D01*
X0173717Y0136588D02*
X0174685Y0136588D01*
X0174685Y0137586D02*
X0173717Y0137586D01*
X0175453Y0143578D02*
X0194406Y0143578D01*
X0194256Y0144576D02*
X0175603Y0144576D01*
X0166059Y0143578D02*
X0151041Y0143578D01*
X0150460Y0144576D02*
X0159256Y0144576D01*
X0159156Y0145575D02*
X0149880Y0145575D01*
X0149300Y0146573D02*
X0159156Y0146573D01*
X0172209Y0163548D02*
X0173824Y0163548D01*
X0176779Y0166543D02*
X0177209Y0166543D01*
X0176324Y0166999D02*
X0176324Y0166999D01*
X0175781Y0167542D02*
X0177209Y0167542D01*
X0177343Y0168540D02*
X0172431Y0168540D01*
X0175211Y0168112D02*
X0175211Y0168112D01*
X0175211Y0168112D01*
X0176995Y0171536D02*
X0172534Y0171536D01*
X0173220Y0172262D02*
X0173220Y0172262D01*
X0173220Y0172262D01*
X0172947Y0172534D02*
X0172939Y0172534D01*
X0174628Y0172262D02*
X0174628Y0172262D01*
X0174944Y0176528D02*
X0172939Y0176528D01*
X0173339Y0179524D02*
X0175133Y0179524D01*
X0175344Y0180522D02*
X0173339Y0180522D01*
X0181740Y0183518D02*
X0186108Y0183518D01*
X0185580Y0182519D02*
X0182268Y0182519D01*
X0182268Y0181521D02*
X0185580Y0181521D01*
X0185580Y0180522D02*
X0182268Y0180522D01*
X0182479Y0179524D02*
X0185970Y0179524D01*
X0186637Y0163548D02*
X0198686Y0163548D01*
X0199277Y0161551D02*
X0190439Y0161551D01*
X0190439Y0160552D02*
X0198909Y0160552D01*
X0198909Y0159554D02*
X0190439Y0159554D01*
X0187750Y0159554D02*
X0187372Y0159554D01*
X0187372Y0160552D02*
X0187750Y0160552D01*
X0187750Y0161551D02*
X0187372Y0161551D01*
X0187372Y0162549D02*
X0187750Y0162549D01*
X0187750Y0158555D02*
X0187372Y0158555D01*
X0187372Y0157557D02*
X0187750Y0157557D01*
X0187750Y0156558D02*
X0187372Y0156558D01*
X0186329Y0155560D02*
X0199290Y0155560D01*
X0199228Y0147572D02*
X0198978Y0147572D01*
X0198978Y0146573D02*
X0199228Y0146573D01*
X0200658Y0137918D02*
X0196142Y0137918D01*
X0196142Y0133402D01*
X0199355Y0133402D01*
X0199737Y0133504D01*
X0200079Y0133702D01*
X0200358Y0133981D01*
X0200555Y0134323D01*
X0200658Y0134704D01*
X0200658Y0137918D01*
X0200658Y0137586D02*
X0211797Y0137586D01*
X0211797Y0136588D02*
X0200658Y0136588D01*
X0200658Y0135589D02*
X0211797Y0135589D01*
X0211797Y0134591D02*
X0200627Y0134591D01*
X0199889Y0133592D02*
X0211813Y0133592D01*
X0218980Y0133592D02*
X0221470Y0133592D01*
X0221397Y0134591D02*
X0218997Y0134591D01*
X0218997Y0135589D02*
X0221397Y0135589D01*
X0221397Y0136588D02*
X0218997Y0136588D01*
X0218997Y0137586D02*
X0221397Y0137586D01*
X0221397Y0139583D02*
X0218997Y0139583D01*
X0218997Y0138585D02*
X0224897Y0138585D01*
X0221397Y0140582D02*
X0218997Y0140582D01*
X0218997Y0141580D02*
X0221397Y0141580D01*
X0221397Y0142579D02*
X0218997Y0142579D01*
X0218997Y0143578D02*
X0221397Y0143578D01*
X0221481Y0144576D02*
X0218941Y0144576D01*
X0229397Y0137586D02*
X0231797Y0137586D01*
X0231797Y0136588D02*
X0229397Y0136588D01*
X0229397Y0135589D02*
X0231797Y0135589D01*
X0231797Y0134591D02*
X0229397Y0134591D01*
X0229323Y0133592D02*
X0231813Y0133592D01*
X0236424Y0136462D02*
X0236424Y0138037D01*
X0235397Y0139064D01*
X0236424Y0136462D02*
X0245174Y0136462D01*
X0247624Y0138912D01*
X0247624Y0155462D01*
X0249224Y0153809D02*
X0249924Y0154509D01*
X0249924Y0156414D01*
X0248577Y0157762D01*
X0246671Y0157762D01*
X0245324Y0156414D01*
X0245324Y0155655D01*
X0244883Y0156096D01*
X0243686Y0156096D01*
X0243686Y0157727D01*
X0240505Y0157727D01*
X0240505Y0158696D01*
X0243686Y0158696D01*
X0243686Y0160378D01*
X0243584Y0160759D01*
X0243386Y0161101D01*
X0243107Y0161381D01*
X0242765Y0161578D01*
X0242383Y0161680D01*
X0240505Y0161680D01*
X0240505Y0158696D01*
X0239536Y0158696D01*
X0239536Y0161680D01*
X0237658Y0161680D01*
X0237276Y0161578D01*
X0236934Y0161381D01*
X0236655Y0161101D01*
X0236462Y0160767D01*
X0235949Y0161280D01*
X0235324Y0161280D01*
X0235324Y0161924D01*
X0233695Y0163554D01*
X0240457Y0163554D01*
X0241102Y0164198D01*
X0241102Y0166237D01*
X0242147Y0166237D01*
X0243047Y0165337D01*
X0244952Y0165337D01*
X0246300Y0166685D01*
X0246300Y0168590D01*
X0244952Y0169937D01*
X0243047Y0169937D01*
X0242147Y0169037D01*
X0241102Y0169037D01*
X0241102Y0171015D01*
X0240457Y0171659D01*
X0237224Y0171659D01*
X0237224Y0172309D01*
X0237924Y0173009D01*
X0237924Y0174914D01*
X0236827Y0176012D01*
X0238124Y0177309D01*
X0238124Y0179214D01*
X0236777Y0180562D01*
X0234871Y0180562D01*
X0233524Y0179214D01*
X0233524Y0178242D01*
X0232991Y0177709D01*
X0232287Y0178413D01*
X0229324Y0181376D01*
X0229324Y0183208D01*
X0230246Y0182286D01*
X0230266Y0182266D01*
X0230266Y0181417D01*
X0231613Y0180070D01*
X0233519Y0180070D01*
X0234866Y0181417D01*
X0234866Y0183323D01*
X0233519Y0184670D01*
X0232670Y0184670D01*
X0232650Y0184691D01*
X0232650Y0186975D01*
X0232921Y0186704D01*
X0235887Y0183737D01*
X0237212Y0183737D01*
X0241303Y0183737D01*
X0241303Y0182959D01*
X0241203Y0182858D01*
X0241006Y0182516D01*
X0240903Y0182135D01*
X0240903Y0181386D01*
X0240903Y0180637D01*
X0241006Y0180256D01*
X0241203Y0179914D01*
X0241303Y0179814D01*
X0241303Y0172505D01*
X0241948Y0171861D01*
X0247924Y0171861D01*
X0247924Y0165024D01*
X0247924Y0164337D01*
X0247924Y0163699D01*
X0247924Y0163699D01*
X0247924Y0163699D01*
X0248472Y0163151D01*
X0248861Y0162762D01*
X0248861Y0162762D01*
X0249166Y0162457D01*
X0249561Y0162062D01*
X0249561Y0162062D01*
X0249561Y0162062D01*
X0249881Y0162062D01*
X0249881Y0161266D01*
X0250525Y0160622D01*
X0258523Y0160622D01*
X0259167Y0161266D01*
X0259167Y0162062D01*
X0259687Y0162062D01*
X0260066Y0162441D01*
X0260459Y0162834D01*
X0260719Y0162574D01*
X0260384Y0162381D01*
X0260105Y0162102D01*
X0259908Y0161760D01*
X0259806Y0161378D01*
X0259806Y0159500D01*
X0262790Y0159500D01*
X0262790Y0158531D01*
X0263758Y0158531D01*
X0263758Y0155350D01*
X0265440Y0155350D01*
X0265822Y0155452D01*
X0266164Y0155650D01*
X0266443Y0155929D01*
X0266640Y0156271D01*
X0266743Y0156652D01*
X0266743Y0158531D01*
X0263758Y0158531D01*
X0263758Y0159500D01*
X0266743Y0159500D01*
X0266743Y0161378D01*
X0266640Y0161760D01*
X0266443Y0162102D01*
X0266164Y0162381D01*
X0265829Y0162574D01*
X0266343Y0163087D01*
X0266343Y0168329D01*
X0266110Y0168562D01*
X0266143Y0168594D01*
X0266143Y0173836D01*
X0265629Y0174350D01*
X0265964Y0174543D01*
X0266243Y0174822D01*
X0266440Y0175164D01*
X0266543Y0175545D01*
X0266543Y0177424D01*
X0263558Y0177424D01*
X0263558Y0178392D01*
X0266543Y0178392D01*
X0266543Y0180271D01*
X0266440Y0180653D01*
X0266243Y0180995D01*
X0266043Y0181195D01*
X0266043Y0185936D01*
X0265529Y0186450D01*
X0265864Y0186643D01*
X0266143Y0186922D01*
X0266340Y0187264D01*
X0266443Y0187645D01*
X0266443Y0189524D01*
X0263458Y0189524D01*
X0263458Y0190492D01*
X0266443Y0190492D01*
X0266443Y0192371D01*
X0266340Y0192753D01*
X0266161Y0193063D01*
X0266239Y0193141D01*
X0266239Y0193837D01*
X0266296Y0193837D01*
X0267704Y0193837D01*
X0268700Y0194833D01*
X0269128Y0195262D01*
X0269128Y0195262D01*
X0269619Y0195753D01*
X0270124Y0196258D01*
X0270124Y0196509D01*
X0270724Y0197109D01*
X0270724Y0197958D01*
X0271304Y0198537D01*
X0274844Y0198537D01*
X0274844Y0195046D01*
X0275488Y0194402D01*
X0281911Y0194402D01*
X0282556Y0195046D01*
X0282556Y0201737D01*
X0283347Y0201737D01*
X0284047Y0201037D01*
X0285952Y0201037D01*
X0287300Y0202385D01*
X0287300Y0204237D01*
X0300092Y0204237D01*
X0300270Y0204135D01*
X0300339Y0204154D01*
X0311155Y0197909D01*
X0310946Y0197909D01*
X0309604Y0196568D01*
X0309604Y0194851D01*
X0306620Y0189682D01*
X0306196Y0189682D01*
X0304854Y0188340D01*
X0304854Y0186443D01*
X0306196Y0185101D01*
X0308094Y0185101D01*
X0309435Y0186443D01*
X0309435Y0188159D01*
X0312420Y0193328D01*
X0312844Y0193328D01*
X0313924Y0194409D01*
X0314493Y0192287D01*
X0315497Y0191707D01*
X0315497Y0191707D01*
X0317351Y0190637D01*
X0317420Y0190379D01*
X0314646Y0191980D01*
X0313765Y0191745D01*
X0310810Y0186625D01*
X0311046Y0185745D01*
X0320495Y0180289D01*
X0321239Y0180489D01*
X0293752Y0132880D01*
X0238417Y0133029D01*
X0238997Y0133609D01*
X0238997Y0134862D01*
X0245837Y0134862D01*
X0246504Y0135529D01*
X0246774Y0135799D01*
X0248556Y0137581D01*
X0249224Y0138249D01*
X0249224Y0138341D01*
X0249224Y0153809D01*
X0249224Y0153563D02*
X0305693Y0153563D01*
X0306269Y0154561D02*
X0249924Y0154561D01*
X0249924Y0155560D02*
X0260540Y0155560D01*
X0260384Y0155650D02*
X0260727Y0155452D01*
X0261108Y0155350D01*
X0262790Y0155350D01*
X0262790Y0158531D01*
X0259806Y0158531D01*
X0259806Y0156652D01*
X0259908Y0156271D01*
X0260105Y0155929D01*
X0260384Y0155650D01*
X0259831Y0156558D02*
X0249780Y0156558D01*
X0248782Y0157557D02*
X0259806Y0157557D01*
X0259806Y0159554D02*
X0243686Y0159554D01*
X0243639Y0160552D02*
X0259806Y0160552D01*
X0259852Y0161551D02*
X0259167Y0161551D01*
X0259687Y0162062D02*
X0259687Y0162062D01*
X0259687Y0162062D01*
X0260174Y0162549D02*
X0260676Y0162549D01*
X0259524Y0164162D02*
X0259024Y0163662D01*
X0254553Y0163662D01*
X0254524Y0163691D01*
X0254495Y0163662D01*
X0250224Y0163662D01*
X0249524Y0164362D01*
X0249524Y0172962D01*
X0248974Y0173512D01*
X0245356Y0173512D01*
X0245356Y0175481D02*
X0252576Y0175481D01*
X0254524Y0173533D01*
X0254595Y0173462D01*
X0258824Y0173462D01*
X0259324Y0172962D01*
X0259324Y0172062D01*
X0260170Y0171215D01*
X0263074Y0171215D01*
X0266143Y0171536D02*
X0269235Y0171536D01*
X0268974Y0171274D02*
X0268974Y0168727D01*
X0267953Y0168727D01*
X0267309Y0168082D01*
X0267309Y0163234D01*
X0267953Y0162590D01*
X0273195Y0162590D01*
X0273839Y0163234D01*
X0273839Y0168082D01*
X0273195Y0168727D01*
X0272174Y0168727D01*
X0272174Y0169949D01*
X0273887Y0171662D01*
X0274444Y0171662D01*
X0274444Y0169624D01*
X0278200Y0169624D01*
X0278200Y0173773D01*
X0276224Y0173773D01*
X0276224Y0174914D01*
X0274877Y0176262D01*
X0273624Y0176262D01*
X0273624Y0177514D01*
X0272277Y0178862D01*
X0271287Y0178862D01*
X0271100Y0179049D01*
X0271100Y0182185D01*
X0271800Y0182885D01*
X0271800Y0184790D01*
X0270452Y0186137D01*
X0268547Y0186137D01*
X0267200Y0184790D01*
X0267200Y0182885D01*
X0267900Y0182185D01*
X0267900Y0177723D01*
X0269024Y0176599D01*
X0269024Y0175609D01*
X0270371Y0174262D01*
X0271624Y0174262D01*
X0271624Y0173924D01*
X0269911Y0172212D01*
X0268974Y0171274D01*
X0268974Y0170537D02*
X0266143Y0170537D01*
X0266143Y0169539D02*
X0268974Y0169539D01*
X0267767Y0168540D02*
X0266131Y0168540D01*
X0266343Y0167542D02*
X0267309Y0167542D01*
X0267309Y0166543D02*
X0266343Y0166543D01*
X0266343Y0165545D02*
X0267309Y0165545D01*
X0267309Y0164546D02*
X0266343Y0164546D01*
X0266343Y0163548D02*
X0267309Y0163548D01*
X0267953Y0162034D02*
X0267309Y0161389D01*
X0267309Y0156541D01*
X0267953Y0155897D01*
X0273195Y0155897D01*
X0273839Y0156541D01*
X0273839Y0157365D01*
X0280806Y0157365D01*
X0281079Y0157205D01*
X0281281Y0157258D01*
X0281480Y0157197D01*
X0281796Y0157365D01*
X0281833Y0157365D01*
X0281875Y0157407D01*
X0281901Y0157421D01*
X0282362Y0157542D01*
X0282467Y0157721D01*
X0282650Y0157819D01*
X0282790Y0158275D01*
X0286536Y0164684D01*
X0286980Y0164684D01*
X0288327Y0166031D01*
X0288327Y0167936D01*
X0287600Y0168664D01*
X0287600Y0181575D01*
X0287600Y0182900D01*
X0287183Y0183317D01*
X0287183Y0184273D01*
X0285836Y0185620D01*
X0283931Y0185620D01*
X0282583Y0184273D01*
X0282583Y0182367D01*
X0283931Y0181020D01*
X0284400Y0181020D01*
X0284400Y0168609D01*
X0283727Y0167936D01*
X0283727Y0166219D01*
X0280422Y0160565D01*
X0273839Y0160565D01*
X0273839Y0161389D01*
X0273195Y0162034D01*
X0267953Y0162034D01*
X0267470Y0161551D02*
X0266696Y0161551D01*
X0266743Y0160552D02*
X0267309Y0160552D01*
X0267309Y0159554D02*
X0266743Y0159554D01*
X0267309Y0158555D02*
X0263758Y0158555D01*
X0262790Y0158555D02*
X0240505Y0158555D01*
X0240505Y0157557D02*
X0239536Y0157557D01*
X0239536Y0156558D02*
X0240505Y0156558D01*
X0240505Y0155560D02*
X0239536Y0155560D01*
X0236518Y0155560D02*
X0236365Y0155560D01*
X0233424Y0158308D02*
X0233328Y0158212D01*
X0233724Y0158608D01*
X0233724Y0161262D01*
X0231577Y0163409D01*
X0231577Y0167607D01*
X0231624Y0167654D01*
X0231624Y0176813D01*
X0227724Y0180713D01*
X0227724Y0185762D01*
X0229324Y0182519D02*
X0230013Y0182519D01*
X0230246Y0182286D02*
X0230246Y0182286D01*
X0230266Y0181521D02*
X0229324Y0181521D01*
X0230177Y0180522D02*
X0231161Y0180522D01*
X0231176Y0179524D02*
X0233834Y0179524D01*
X0233971Y0180522D02*
X0234832Y0180522D01*
X0234866Y0181521D02*
X0240903Y0181521D01*
X0240903Y0181386D02*
X0245356Y0181386D01*
X0240903Y0181386D01*
X0240934Y0180522D02*
X0236816Y0180522D01*
X0237814Y0179524D02*
X0241303Y0179524D01*
X0241303Y0178525D02*
X0238124Y0178525D01*
X0238124Y0177527D02*
X0241303Y0177527D01*
X0241303Y0176528D02*
X0237343Y0176528D01*
X0237309Y0175530D02*
X0241303Y0175530D01*
X0241303Y0174531D02*
X0237924Y0174531D01*
X0237924Y0173533D02*
X0241303Y0173533D01*
X0241303Y0172534D02*
X0237449Y0172534D01*
X0235624Y0173962D02*
X0235624Y0167717D01*
X0235514Y0167607D01*
X0233701Y0163548D02*
X0248075Y0163548D01*
X0247924Y0164546D02*
X0241102Y0164546D01*
X0241102Y0165545D02*
X0242840Y0165545D01*
X0245160Y0165545D02*
X0247924Y0165545D01*
X0247924Y0165024D02*
X0247924Y0165024D01*
X0247924Y0166543D02*
X0246158Y0166543D01*
X0246300Y0167542D02*
X0247924Y0167542D01*
X0247924Y0168540D02*
X0246300Y0168540D01*
X0245351Y0169539D02*
X0247924Y0169539D01*
X0247924Y0170537D02*
X0241102Y0170537D01*
X0241102Y0169539D02*
X0242648Y0169539D01*
X0240581Y0171536D02*
X0247924Y0171536D01*
X0249074Y0162549D02*
X0234699Y0162549D01*
X0235324Y0161551D02*
X0237229Y0161551D01*
X0239536Y0161551D02*
X0240505Y0161551D01*
X0240505Y0160552D02*
X0239536Y0160552D01*
X0239536Y0159554D02*
X0240505Y0159554D01*
X0242812Y0161551D02*
X0249881Y0161551D01*
X0246466Y0157557D02*
X0243686Y0157557D01*
X0243686Y0156558D02*
X0245468Y0156558D01*
X0243934Y0153805D02*
X0243934Y0139205D01*
X0244034Y0139106D01*
X0242271Y0140582D02*
X0238997Y0140582D01*
X0238997Y0141580D02*
X0242334Y0141580D01*
X0242334Y0142579D02*
X0238997Y0142579D01*
X0238997Y0143578D02*
X0242334Y0143578D01*
X0242334Y0144576D02*
X0238941Y0144576D01*
X0238997Y0139583D02*
X0241744Y0139583D01*
X0241744Y0138585D02*
X0238997Y0138585D01*
X0238997Y0134591D02*
X0294739Y0134591D01*
X0294163Y0133592D02*
X0238980Y0133592D01*
X0246564Y0135589D02*
X0295316Y0135589D01*
X0295892Y0136588D02*
X0247563Y0136588D01*
X0246774Y0135799D02*
X0246774Y0135799D01*
X0248561Y0137586D02*
X0296469Y0137586D01*
X0297045Y0138585D02*
X0249224Y0138585D01*
X0249224Y0139583D02*
X0297622Y0139583D01*
X0298198Y0140582D02*
X0249224Y0140582D01*
X0249224Y0141580D02*
X0298775Y0141580D01*
X0299351Y0142579D02*
X0249224Y0142579D01*
X0249224Y0143578D02*
X0299928Y0143578D01*
X0300504Y0144576D02*
X0249224Y0144576D01*
X0249224Y0145575D02*
X0301081Y0145575D01*
X0301657Y0146573D02*
X0249224Y0146573D01*
X0249224Y0147572D02*
X0302234Y0147572D01*
X0302810Y0148570D02*
X0249224Y0148570D01*
X0249224Y0149569D02*
X0303387Y0149569D01*
X0303963Y0150567D02*
X0249224Y0150567D01*
X0249224Y0151566D02*
X0304540Y0151566D01*
X0305116Y0152564D02*
X0249224Y0152564D01*
X0262790Y0155560D02*
X0263758Y0155560D01*
X0263758Y0156558D02*
X0262790Y0156558D01*
X0262790Y0157557D02*
X0263758Y0157557D01*
X0266743Y0157557D02*
X0267309Y0157557D01*
X0267309Y0156558D02*
X0266717Y0156558D01*
X0266008Y0155560D02*
X0306846Y0155560D01*
X0307422Y0156558D02*
X0273839Y0156558D01*
X0270574Y0158965D02*
X0281170Y0158965D01*
X0281315Y0158921D01*
X0286027Y0166984D01*
X0286000Y0167011D01*
X0286000Y0182237D01*
X0284917Y0183320D01*
X0284883Y0183320D01*
X0282583Y0183518D02*
X0271800Y0183518D01*
X0271800Y0184516D02*
X0282827Y0184516D01*
X0283826Y0185515D02*
X0271075Y0185515D01*
X0269500Y0183837D02*
X0269500Y0178386D01*
X0271324Y0176562D01*
X0269024Y0176528D02*
X0266543Y0176528D01*
X0266538Y0175530D02*
X0269103Y0175530D01*
X0270102Y0174531D02*
X0265944Y0174531D01*
X0266143Y0173533D02*
X0271232Y0173533D01*
X0270234Y0172534D02*
X0266143Y0172534D01*
X0269911Y0172212D02*
X0269911Y0172212D01*
X0270574Y0170612D02*
X0273924Y0173962D01*
X0275609Y0175530D02*
X0284400Y0175530D01*
X0284400Y0176528D02*
X0273624Y0176528D01*
X0273612Y0177527D02*
X0284400Y0177527D01*
X0284400Y0178525D02*
X0272613Y0178525D01*
X0271100Y0179524D02*
X0284400Y0179524D01*
X0284400Y0180522D02*
X0271100Y0180522D01*
X0271100Y0181521D02*
X0283430Y0181521D01*
X0282583Y0182519D02*
X0271434Y0182519D01*
X0267900Y0181521D02*
X0266043Y0181521D01*
X0266043Y0182519D02*
X0267565Y0182519D01*
X0267200Y0183518D02*
X0266043Y0183518D01*
X0266043Y0184516D02*
X0267200Y0184516D01*
X0267925Y0185515D02*
X0266043Y0185515D01*
X0265640Y0186514D02*
X0304854Y0186514D01*
X0304854Y0187512D02*
X0266407Y0187512D01*
X0266443Y0188511D02*
X0305025Y0188511D01*
X0306023Y0189509D02*
X0266443Y0189509D01*
X0266443Y0190508D02*
X0307096Y0190508D01*
X0307673Y0191506D02*
X0266443Y0191506D01*
X0266407Y0192505D02*
X0308249Y0192505D01*
X0308826Y0193503D02*
X0266239Y0193503D01*
X0266296Y0193837D02*
X0266296Y0193837D01*
X0268368Y0194502D02*
X0275388Y0194502D01*
X0274844Y0195500D02*
X0269366Y0195500D01*
X0270124Y0196258D02*
X0270124Y0196258D01*
X0270124Y0196258D01*
X0270124Y0196499D02*
X0274844Y0196499D01*
X0274844Y0197497D02*
X0270724Y0197497D01*
X0271262Y0198496D02*
X0274844Y0198496D01*
X0274524Y0202162D02*
X0275700Y0203337D01*
X0285000Y0203337D01*
X0287300Y0203488D02*
X0301492Y0203488D01*
X0303222Y0202490D02*
X0287300Y0202490D01*
X0286406Y0201491D02*
X0304951Y0201491D01*
X0306681Y0200493D02*
X0282556Y0200493D01*
X0282556Y0201491D02*
X0283593Y0201491D01*
X0282556Y0199494D02*
X0308410Y0199494D01*
X0310140Y0198496D02*
X0282556Y0198496D01*
X0282556Y0197497D02*
X0310534Y0197497D01*
X0309604Y0196499D02*
X0282556Y0196499D01*
X0282556Y0195500D02*
X0309604Y0195500D01*
X0309402Y0194502D02*
X0282011Y0194502D01*
X0285941Y0185515D02*
X0305782Y0185515D01*
X0307145Y0187392D02*
X0311895Y0195619D01*
X0313019Y0193503D02*
X0314167Y0193503D01*
X0314435Y0192505D02*
X0311945Y0192505D01*
X0311368Y0191506D02*
X0313628Y0191506D01*
X0313051Y0190508D02*
X0310792Y0190508D01*
X0310215Y0189509D02*
X0312475Y0189509D01*
X0311898Y0188511D02*
X0309639Y0188511D01*
X0309435Y0187512D02*
X0311322Y0187512D01*
X0310840Y0186514D02*
X0309435Y0186514D01*
X0308508Y0185515D02*
X0311444Y0185515D01*
X0313174Y0184516D02*
X0286939Y0184516D01*
X0287183Y0183518D02*
X0314903Y0183518D01*
X0316633Y0182519D02*
X0287600Y0182519D01*
X0287600Y0181521D02*
X0318362Y0181521D01*
X0320091Y0180522D02*
X0287600Y0180522D01*
X0287600Y0179524D02*
X0320682Y0179524D01*
X0320105Y0178525D02*
X0287600Y0178525D01*
X0287600Y0177527D02*
X0319529Y0177527D01*
X0318952Y0176528D02*
X0287600Y0176528D01*
X0287600Y0175530D02*
X0318376Y0175530D01*
X0317799Y0174531D02*
X0287600Y0174531D01*
X0287600Y0173533D02*
X0317223Y0173533D01*
X0316646Y0172534D02*
X0287600Y0172534D01*
X0287600Y0171536D02*
X0316070Y0171536D01*
X0315493Y0170537D02*
X0287600Y0170537D01*
X0287600Y0169539D02*
X0314917Y0169539D01*
X0314340Y0168540D02*
X0287723Y0168540D01*
X0288327Y0167542D02*
X0313764Y0167542D01*
X0313187Y0166543D02*
X0288327Y0166543D01*
X0287841Y0165545D02*
X0312611Y0165545D01*
X0312034Y0164546D02*
X0286456Y0164546D01*
X0285872Y0163548D02*
X0311458Y0163548D01*
X0310881Y0162549D02*
X0285289Y0162549D01*
X0284705Y0161551D02*
X0310305Y0161551D01*
X0309728Y0160552D02*
X0284121Y0160552D01*
X0283538Y0159554D02*
X0309152Y0159554D01*
X0308575Y0158555D02*
X0282954Y0158555D01*
X0282370Y0157557D02*
X0307999Y0157557D01*
X0283727Y0166543D02*
X0282956Y0166543D01*
X0282956Y0165777D02*
X0282956Y0168624D01*
X0279200Y0168624D01*
X0279200Y0169624D01*
X0278200Y0169624D01*
X0278200Y0168624D01*
X0279200Y0168624D01*
X0279200Y0164474D01*
X0281653Y0164474D01*
X0282035Y0164576D01*
X0282377Y0164774D01*
X0282656Y0165053D01*
X0282853Y0165395D01*
X0282956Y0165777D01*
X0282893Y0165545D02*
X0283333Y0165545D01*
X0282749Y0164546D02*
X0281922Y0164546D01*
X0282166Y0163548D02*
X0273839Y0163548D01*
X0273839Y0164546D02*
X0275477Y0164546D01*
X0275365Y0164576D02*
X0275746Y0164474D01*
X0278200Y0164474D01*
X0278200Y0168624D01*
X0274444Y0168624D01*
X0274444Y0165777D01*
X0274546Y0165395D01*
X0274743Y0165053D01*
X0275023Y0164774D01*
X0275365Y0164576D01*
X0274506Y0165545D02*
X0273839Y0165545D01*
X0273839Y0166543D02*
X0274444Y0166543D01*
X0274444Y0167542D02*
X0273839Y0167542D01*
X0273381Y0168540D02*
X0274444Y0168540D01*
X0274444Y0170537D02*
X0272762Y0170537D01*
X0272174Y0169539D02*
X0278200Y0169539D01*
X0278200Y0170537D02*
X0279200Y0170537D01*
X0279200Y0169624D02*
X0279200Y0173773D01*
X0281653Y0173773D01*
X0282035Y0173671D01*
X0282377Y0173474D01*
X0282656Y0173194D01*
X0282853Y0172852D01*
X0282956Y0172471D01*
X0282956Y0169624D01*
X0279200Y0169624D01*
X0279200Y0169539D02*
X0284400Y0169539D01*
X0284400Y0170537D02*
X0282956Y0170537D01*
X0282956Y0171536D02*
X0284400Y0171536D01*
X0284400Y0172534D02*
X0282939Y0172534D01*
X0282274Y0173533D02*
X0284400Y0173533D01*
X0284400Y0174531D02*
X0276224Y0174531D01*
X0278200Y0173533D02*
X0279200Y0173533D01*
X0279200Y0172534D02*
X0278200Y0172534D01*
X0278200Y0171536D02*
X0279200Y0171536D01*
X0279200Y0168540D02*
X0278200Y0168540D01*
X0278200Y0167542D02*
X0279200Y0167542D01*
X0279200Y0166543D02*
X0278200Y0166543D01*
X0278200Y0165545D02*
X0279200Y0165545D01*
X0279200Y0164546D02*
X0278200Y0164546D01*
X0281582Y0162549D02*
X0265872Y0162549D01*
X0263274Y0165708D02*
X0260370Y0165708D01*
X0259524Y0164862D01*
X0259524Y0164162D01*
X0260359Y0174190D02*
X0259987Y0174562D01*
X0259987Y0174562D01*
X0259965Y0174584D01*
X0259487Y0175062D01*
X0259487Y0175062D01*
X0259167Y0175062D01*
X0259167Y0175957D01*
X0258523Y0176602D01*
X0253718Y0176602D01*
X0253239Y0177081D01*
X0249409Y0177081D01*
X0249409Y0179814D01*
X0249509Y0179914D01*
X0249707Y0180256D01*
X0249809Y0180637D01*
X0249809Y0181386D01*
X0245356Y0181386D01*
X0245356Y0181386D01*
X0245356Y0181386D01*
X0249809Y0181386D01*
X0249809Y0181755D01*
X0253460Y0181755D01*
X0253460Y0181754D01*
X0253946Y0181754D01*
X0253946Y0181425D01*
X0254590Y0180781D01*
X0258258Y0180781D01*
X0258902Y0181425D01*
X0258902Y0181757D01*
X0259906Y0181757D01*
X0259906Y0180995D01*
X0259905Y0180995D01*
X0259708Y0180653D01*
X0259606Y0180271D01*
X0259606Y0178392D01*
X0262590Y0178392D01*
X0262590Y0177424D01*
X0259606Y0177424D01*
X0259606Y0175545D01*
X0259708Y0175164D01*
X0259905Y0174822D01*
X0260184Y0174543D01*
X0260519Y0174350D01*
X0260359Y0174190D01*
X0260204Y0174531D02*
X0260017Y0174531D01*
X0259487Y0175062D02*
X0259487Y0175062D01*
X0259610Y0175530D02*
X0259167Y0175530D01*
X0259606Y0176528D02*
X0258596Y0176528D01*
X0259606Y0178525D02*
X0249409Y0178525D01*
X0249409Y0177527D02*
X0262590Y0177527D01*
X0263558Y0177527D02*
X0268096Y0177527D01*
X0267900Y0178525D02*
X0266543Y0178525D01*
X0266543Y0179524D02*
X0267900Y0179524D01*
X0267900Y0180522D02*
X0266475Y0180522D01*
X0262974Y0183315D02*
X0260632Y0183357D01*
X0256424Y0183357D01*
X0254121Y0183355D01*
X0245356Y0183355D01*
X0245356Y0185323D02*
X0245342Y0185337D01*
X0236550Y0185337D01*
X0234150Y0187737D01*
X0234150Y0189287D01*
X0233111Y0186514D02*
X0232650Y0186514D01*
X0232650Y0185515D02*
X0234109Y0185515D01*
X0233672Y0184516D02*
X0235108Y0184516D01*
X0234671Y0183518D02*
X0241303Y0183518D01*
X0241007Y0182519D02*
X0234866Y0182519D01*
X0233524Y0178525D02*
X0232174Y0178525D01*
X0230024Y0174531D02*
X0229546Y0174531D01*
X0222500Y0190640D02*
X0222500Y0194367D01*
X0221680Y0195187D01*
X0221680Y0195187D01*
X0221024Y0195843D01*
X0221024Y0197018D01*
X0228036Y0197018D01*
X0228136Y0196918D01*
X0228478Y0196721D01*
X0228859Y0196618D01*
X0229427Y0196618D01*
X0227020Y0194212D01*
X0226742Y0193934D01*
X0226024Y0193216D01*
X0226024Y0191808D01*
X0226024Y0190916D01*
X0225352Y0191587D01*
X0223447Y0191587D01*
X0222500Y0190640D01*
X0222500Y0191506D02*
X0223366Y0191506D01*
X0222500Y0192505D02*
X0226024Y0192505D01*
X0226024Y0191808D02*
X0226024Y0191808D01*
X0226024Y0191506D02*
X0225434Y0191506D01*
X0226311Y0193503D02*
X0222500Y0193503D01*
X0222365Y0194502D02*
X0227310Y0194502D01*
X0227020Y0194212D02*
X0227020Y0194212D01*
X0228308Y0195500D02*
X0221367Y0195500D01*
X0221024Y0196499D02*
X0229307Y0196499D01*
X0229608Y0196800D02*
X0229608Y0201071D01*
X0229608Y0201071D01*
X0229608Y0196800D01*
X0229608Y0196800D01*
X0229608Y0197497D02*
X0229608Y0197497D01*
X0229608Y0198496D02*
X0229608Y0198496D01*
X0229608Y0199494D02*
X0229608Y0199494D01*
X0229608Y0200493D02*
X0229608Y0200493D01*
X0231577Y0201071D02*
X0231624Y0201024D01*
X0218455Y0213473D02*
X0217591Y0213473D01*
X0217591Y0214472D02*
X0218455Y0214472D01*
X0218455Y0215470D02*
X0217591Y0215470D01*
X0217591Y0216469D02*
X0218455Y0216469D01*
X0218635Y0217467D02*
X0217263Y0217467D01*
X0217073Y0218466D02*
X0218244Y0218466D01*
X0218055Y0219464D02*
X0217591Y0219464D01*
X0217591Y0220463D02*
X0218055Y0220463D01*
X0217591Y0221461D02*
X0221040Y0221461D01*
X0222008Y0221461D02*
X0225460Y0221461D01*
X0224992Y0221844D02*
X0224992Y0223722D01*
X0224890Y0224104D01*
X0224693Y0224446D01*
X0224413Y0224725D01*
X0224071Y0224923D01*
X0223690Y0225025D01*
X0222008Y0225025D01*
X0222008Y0221844D01*
X0224992Y0221844D01*
X0224992Y0222460D02*
X0225460Y0222460D01*
X0225460Y0223458D02*
X0224992Y0223458D01*
X0224682Y0224457D02*
X0226085Y0224457D01*
X0226629Y0225455D02*
X0215925Y0225455D01*
X0215925Y0226454D02*
X0226400Y0226454D01*
X0226425Y0225659D02*
X0226425Y0225659D01*
X0226400Y0227452D02*
X0215925Y0227452D01*
X0215925Y0228451D02*
X0227261Y0228451D01*
X0230139Y0228451D02*
X0234106Y0228451D01*
X0233920Y0228637D02*
X0233920Y0228637D01*
X0233108Y0229449D02*
X0215925Y0229449D01*
X0215925Y0230448D02*
X0233100Y0230448D01*
X0236069Y0230448D02*
X0239700Y0230448D01*
X0239700Y0229449D02*
X0239368Y0229449D01*
X0239218Y0231447D02*
X0239700Y0231447D01*
X0239700Y0232445D02*
X0239653Y0232445D01*
X0239653Y0233444D02*
X0239700Y0233444D01*
X0239700Y0234442D02*
X0239653Y0234442D01*
X0239653Y0235441D02*
X0239700Y0235441D01*
X0239700Y0236439D02*
X0239653Y0236439D01*
X0239653Y0237438D02*
X0239700Y0237438D01*
X0239700Y0238436D02*
X0239029Y0238436D01*
X0239700Y0239435D02*
X0201400Y0239435D01*
X0201400Y0240433D02*
X0239700Y0240433D01*
X0239700Y0241432D02*
X0201400Y0241432D01*
X0201400Y0242430D02*
X0226930Y0242430D01*
X0226425Y0242935D02*
X0227773Y0241587D01*
X0229678Y0241587D01*
X0231025Y0242935D01*
X0231025Y0244840D01*
X0229678Y0246187D01*
X0228830Y0246187D01*
X0211930Y0263087D01*
X0206502Y0263087D01*
X0205902Y0263687D01*
X0203997Y0263687D01*
X0202650Y0262340D01*
X0202650Y0260435D01*
X0203997Y0259087D01*
X0205902Y0259087D01*
X0206502Y0259687D01*
X0210521Y0259687D01*
X0226425Y0243783D01*
X0226425Y0242935D01*
X0226425Y0243429D02*
X0201400Y0243429D01*
X0201400Y0244427D02*
X0225782Y0244427D01*
X0224783Y0245426D02*
X0201400Y0245426D01*
X0201400Y0246424D02*
X0223785Y0246424D01*
X0222786Y0247423D02*
X0201400Y0247423D01*
X0201400Y0248421D02*
X0221788Y0248421D01*
X0220789Y0249420D02*
X0201400Y0249420D01*
X0201400Y0250418D02*
X0219791Y0250418D01*
X0218792Y0251417D02*
X0201400Y0251417D01*
X0201400Y0252415D02*
X0217793Y0252415D01*
X0216795Y0253414D02*
X0201400Y0253414D01*
X0201400Y0254412D02*
X0215796Y0254412D01*
X0214798Y0255411D02*
X0201400Y0255411D01*
X0201400Y0256409D02*
X0213799Y0256409D01*
X0212801Y0257408D02*
X0201400Y0257408D01*
X0201400Y0258406D02*
X0211802Y0258406D01*
X0210804Y0259405D02*
X0206220Y0259405D01*
X0203680Y0259405D02*
X0201400Y0259405D01*
X0201400Y0260403D02*
X0202681Y0260403D01*
X0202650Y0261402D02*
X0201400Y0261402D01*
X0201400Y0262400D02*
X0202710Y0262400D01*
X0203708Y0263399D02*
X0201400Y0263399D01*
X0201400Y0264397D02*
X0209279Y0264397D01*
X0209202Y0264530D02*
X0209400Y0264188D01*
X0209679Y0263908D01*
X0210021Y0263711D01*
X0210403Y0263609D01*
X0214086Y0263609D01*
X0214086Y0267119D01*
X0209100Y0267119D01*
X0209100Y0264911D01*
X0209202Y0264530D01*
X0209100Y0265396D02*
X0201400Y0265396D01*
X0201400Y0266394D02*
X0209100Y0266394D01*
X0209100Y0268119D02*
X0214086Y0268119D01*
X0214086Y0271628D01*
X0210403Y0271628D01*
X0210021Y0271526D01*
X0209679Y0271329D01*
X0209400Y0271049D01*
X0209202Y0270707D01*
X0209100Y0270326D01*
X0209100Y0268119D01*
X0209100Y0268391D02*
X0201369Y0268391D01*
X0201400Y0267393D02*
X0214086Y0267393D01*
X0214086Y0267119D02*
X0214086Y0268119D01*
X0215086Y0268119D01*
X0215086Y0271628D01*
X0218770Y0271628D01*
X0219151Y0271526D01*
X0219494Y0271329D01*
X0219773Y0271049D01*
X0219970Y0270707D01*
X0220073Y0270326D01*
X0220073Y0268119D01*
X0215086Y0268119D01*
X0215086Y0267119D01*
X0220073Y0267119D01*
X0220073Y0264911D01*
X0219970Y0264530D01*
X0219773Y0264188D01*
X0219494Y0263908D01*
X0219151Y0263711D01*
X0218770Y0263609D01*
X0215086Y0263609D01*
X0215086Y0267119D01*
X0214086Y0267119D01*
X0214086Y0266394D02*
X0215086Y0266394D01*
X0215086Y0265396D02*
X0214086Y0265396D01*
X0214086Y0264397D02*
X0215086Y0264397D01*
X0215086Y0267393D02*
X0234067Y0267393D01*
X0234067Y0267119D02*
X0229080Y0267119D01*
X0229080Y0264911D01*
X0229183Y0264530D01*
X0229380Y0264188D01*
X0229659Y0263908D01*
X0230001Y0263711D01*
X0230383Y0263609D01*
X0234067Y0263609D01*
X0234067Y0267119D01*
X0234067Y0266394D02*
X0235067Y0266394D01*
X0235067Y0265396D02*
X0234067Y0265396D01*
X0234067Y0264397D02*
X0235067Y0264397D01*
X0235067Y0268391D02*
X0234067Y0268391D01*
X0234067Y0269390D02*
X0235067Y0269390D01*
X0235067Y0270388D02*
X0234067Y0270388D01*
X0234067Y0271387D02*
X0235067Y0271387D01*
X0239373Y0271387D02*
X0239700Y0271387D01*
X0239700Y0272385D02*
X0195362Y0272385D01*
X0197091Y0271387D02*
X0209780Y0271387D01*
X0209117Y0270388D02*
X0198821Y0270388D01*
X0200647Y0269390D02*
X0209100Y0269390D01*
X0214086Y0269390D02*
X0215086Y0269390D01*
X0215086Y0270388D02*
X0214086Y0270388D01*
X0214086Y0271387D02*
X0215086Y0271387D01*
X0215086Y0268391D02*
X0214086Y0268391D01*
X0220073Y0268391D02*
X0229080Y0268391D01*
X0229080Y0269390D02*
X0220073Y0269390D01*
X0220056Y0270388D02*
X0229097Y0270388D01*
X0229760Y0271387D02*
X0219393Y0271387D01*
X0220073Y0266394D02*
X0229080Y0266394D01*
X0229080Y0265396D02*
X0220073Y0265396D01*
X0219894Y0264397D02*
X0229259Y0264397D01*
X0239700Y0263399D02*
X0206191Y0263399D01*
X0212617Y0262400D02*
X0239700Y0262400D01*
X0239700Y0261402D02*
X0213615Y0261402D01*
X0214614Y0260403D02*
X0239700Y0260403D01*
X0239700Y0259405D02*
X0215612Y0259405D01*
X0216611Y0258406D02*
X0239700Y0258406D01*
X0239700Y0257408D02*
X0217609Y0257408D01*
X0218608Y0256409D02*
X0239700Y0256409D01*
X0239700Y0255411D02*
X0219606Y0255411D01*
X0220605Y0254412D02*
X0239700Y0254412D01*
X0239700Y0253414D02*
X0221603Y0253414D01*
X0222602Y0252415D02*
X0239700Y0252415D01*
X0239700Y0251417D02*
X0223600Y0251417D01*
X0224599Y0250418D02*
X0239700Y0250418D01*
X0239700Y0249420D02*
X0225597Y0249420D01*
X0226596Y0248421D02*
X0239700Y0248421D01*
X0239700Y0247423D02*
X0227594Y0247423D01*
X0228593Y0246424D02*
X0239700Y0246424D01*
X0239700Y0245426D02*
X0230440Y0245426D01*
X0231025Y0244427D02*
X0239700Y0244427D01*
X0239700Y0243429D02*
X0231025Y0243429D01*
X0230521Y0242430D02*
X0239700Y0242430D01*
X0243859Y0242430D02*
X0357000Y0242430D01*
X0356424Y0241432D02*
X0243858Y0241432D01*
X0243857Y0240433D02*
X0355847Y0240433D01*
X0355271Y0239435D02*
X0243855Y0239435D01*
X0243854Y0238436D02*
X0354695Y0238436D01*
X0354118Y0237438D02*
X0243853Y0237438D01*
X0243851Y0236439D02*
X0353542Y0236439D01*
X0352965Y0235441D02*
X0243850Y0235441D01*
X0243849Y0234442D02*
X0352389Y0234442D01*
X0351812Y0233444D02*
X0243847Y0233444D01*
X0243846Y0232445D02*
X0351236Y0232445D01*
X0350659Y0231447D02*
X0243845Y0231447D01*
X0243843Y0230448D02*
X0350083Y0230448D01*
X0349506Y0229449D02*
X0243842Y0229449D01*
X0243841Y0228451D02*
X0348930Y0228451D01*
X0348353Y0227452D02*
X0243840Y0227452D01*
X0243838Y0226454D02*
X0347777Y0226454D01*
X0347200Y0225455D02*
X0243837Y0225455D01*
X0243836Y0224457D02*
X0346624Y0224457D01*
X0346047Y0223458D02*
X0243834Y0223458D01*
X0243833Y0222460D02*
X0345471Y0222460D01*
X0344894Y0221461D02*
X0320709Y0221461D01*
X0320244Y0221927D02*
X0321586Y0220585D01*
X0321586Y0220161D01*
X0331778Y0214277D01*
X0333494Y0214277D01*
X0334836Y0212935D01*
X0334836Y0211038D01*
X0333494Y0209696D01*
X0331597Y0209696D01*
X0330255Y0211038D01*
X0330255Y0211461D01*
X0320063Y0217346D01*
X0318346Y0217346D01*
X0317684Y0218008D01*
X0317684Y0217130D01*
X0316342Y0215788D01*
X0315919Y0215788D01*
X0315061Y0214302D01*
X0315633Y0212167D01*
X0323075Y0207870D01*
X0323765Y0209065D01*
X0324646Y0209301D01*
X0334095Y0203845D01*
X0334294Y0203102D01*
X0361781Y0250710D01*
X0334027Y0298484D01*
X0333817Y0297702D01*
X0324368Y0292246D01*
X0323488Y0292482D01*
X0320532Y0297602D01*
X0320768Y0298482D01*
X0323736Y0300195D01*
X0323644Y0300220D01*
X0321271Y0298850D01*
X0321271Y0298850D01*
X0320266Y0298270D01*
X0320266Y0298270D01*
X0320266Y0298270D01*
X0319146Y0298570D01*
X0319146Y0298570D01*
X0318554Y0298729D01*
X0318554Y0297347D01*
X0323189Y0289319D01*
X0323613Y0289319D01*
X0324954Y0287978D01*
X0324954Y0286080D01*
X0323613Y0284738D01*
X0321715Y0284738D01*
X0320373Y0286080D01*
X0320373Y0287796D01*
X0315739Y0295823D01*
X0315315Y0295823D01*
X0313973Y0297165D01*
X0313973Y0299063D01*
X0314670Y0299759D01*
X0305107Y0302321D01*
X0243891Y0266978D01*
X0243808Y0203298D01*
X0244647Y0204137D01*
X0246147Y0204137D01*
X0245900Y0204385D01*
X0245900Y0206290D01*
X0247247Y0207637D01*
X0249152Y0207637D01*
X0250500Y0206290D01*
X0250500Y0204385D01*
X0250352Y0204237D01*
X0251652Y0204237D01*
X0251956Y0203934D01*
X0251956Y0204671D01*
X0252058Y0205052D01*
X0252255Y0205395D01*
X0252534Y0205674D01*
X0252877Y0205871D01*
X0253258Y0205974D01*
X0254940Y0205974D01*
X0254940Y0202792D01*
X0255908Y0202792D01*
X0258893Y0202792D01*
X0258893Y0204671D01*
X0258790Y0205052D01*
X0258593Y0205395D01*
X0258314Y0205674D01*
X0257972Y0205871D01*
X0257590Y0205974D01*
X0255908Y0205973D01*
X0255908Y0202792D01*
X0255908Y0201824D01*
X0258893Y0201824D01*
X0258893Y0199945D01*
X0258790Y0199564D01*
X0258593Y0199222D01*
X0258314Y0198943D01*
X0257979Y0198750D01*
X0258493Y0198236D01*
X0258493Y0192994D01*
X0258186Y0192687D01*
X0258324Y0192549D01*
X0258324Y0191576D01*
X0258902Y0190998D01*
X0258902Y0187134D01*
X0258258Y0186490D01*
X0254590Y0186490D01*
X0253946Y0187134D01*
X0253946Y0187162D01*
X0253677Y0187162D01*
X0253277Y0186762D01*
X0251371Y0186762D01*
X0251179Y0186954D01*
X0250662Y0186437D01*
X0250662Y0186437D01*
X0250331Y0186106D01*
X0249917Y0185692D01*
X0249917Y0185692D01*
X0249917Y0185692D01*
X0249409Y0185692D01*
X0249409Y0184955D01*
X0253946Y0184955D01*
X0253946Y0185289D01*
X0254590Y0185934D01*
X0258258Y0185934D01*
X0258902Y0185289D01*
X0258902Y0184957D01*
X0259906Y0184957D01*
X0259906Y0185936D01*
X0260419Y0186450D01*
X0260085Y0186643D01*
X0259805Y0186922D01*
X0259608Y0187264D01*
X0259506Y0187645D01*
X0259506Y0189524D01*
X0262490Y0189524D01*
X0262490Y0190492D01*
X0259506Y0190492D01*
X0259506Y0192371D01*
X0259608Y0192753D01*
X0259787Y0193063D01*
X0259709Y0193141D01*
X0259709Y0197989D01*
X0260353Y0198634D01*
X0265595Y0198634D01*
X0266124Y0198105D01*
X0266124Y0199014D01*
X0267471Y0200362D01*
X0268320Y0200362D01*
X0268520Y0200562D01*
X0266239Y0200562D01*
X0266239Y0199834D01*
X0265595Y0199190D01*
X0260353Y0199190D01*
X0259709Y0199834D01*
X0259709Y0204682D01*
X0260353Y0205327D01*
X0265595Y0205327D01*
X0266239Y0204682D01*
X0266239Y0203762D01*
X0267823Y0203762D01*
X0267700Y0203885D01*
X0267700Y0205790D01*
X0269047Y0207137D01*
X0270952Y0207137D01*
X0272300Y0205790D01*
X0272300Y0205137D01*
X0273320Y0205137D01*
X0273700Y0205517D01*
X0273700Y0205517D01*
X0274520Y0206337D01*
X0282820Y0206337D01*
X0283520Y0207037D01*
X0300283Y0207037D01*
X0300735Y0207159D01*
X0300735Y0207159D01*
X0300945Y0207037D01*
X0301047Y0207037D01*
X0301187Y0206897D01*
X0301269Y0206850D01*
X0301739Y0206579D01*
X0301739Y0206579D01*
X0314722Y0199083D01*
X0314722Y0199083D01*
X0315726Y0198503D01*
X0316195Y0196753D01*
X0316691Y0197612D01*
X0321887Y0194612D01*
X0322753Y0194112D01*
X0321003Y0191081D01*
X0325071Y0188732D01*
X0325453Y0188630D01*
X0325848Y0188630D01*
X0325956Y0188659D01*
X0324294Y0185781D01*
X0324095Y0186525D01*
X0320583Y0188553D01*
X0320737Y0188819D01*
X0320671Y0189062D01*
X0320055Y0191362D01*
X0320006Y0191547D01*
X0319971Y0191677D01*
X0320137Y0191581D01*
X0321887Y0194612D01*
X0322387Y0195478D01*
X0317191Y0198478D01*
X0318290Y0200381D01*
X0318569Y0200661D01*
X0318911Y0200858D01*
X0319293Y0200960D01*
X0319688Y0200960D01*
X0320069Y0200858D01*
X0324137Y0198509D01*
X0322387Y0195478D01*
X0323253Y0194978D01*
X0325003Y0198009D01*
X0329071Y0195661D01*
X0329351Y0195381D01*
X0329548Y0195039D01*
X0329577Y0194931D01*
X0331239Y0197809D01*
X0330495Y0197610D01*
X0321046Y0203066D01*
X0320810Y0203946D01*
X0321475Y0205099D01*
X0314033Y0209396D01*
X0314033Y0209396D01*
X0312910Y0210044D01*
X0312885Y0210058D01*
X0312542Y0211339D01*
X0312542Y0211339D01*
X0311970Y0213473D01*
X0243821Y0213473D01*
X0243820Y0212475D02*
X0312237Y0212475D01*
X0311970Y0213473D02*
X0311970Y0213473D01*
X0311876Y0213822D01*
X0311627Y0214754D01*
X0312289Y0215902D01*
X0312289Y0215902D01*
X0313103Y0217311D01*
X0313103Y0219027D01*
X0314445Y0220369D01*
X0316342Y0220369D01*
X0317005Y0219707D01*
X0317005Y0220585D01*
X0318346Y0221927D01*
X0320244Y0221927D01*
X0321586Y0220463D02*
X0344318Y0220463D01*
X0343741Y0219464D02*
X0322793Y0219464D01*
X0324522Y0218466D02*
X0343165Y0218466D01*
X0342588Y0217467D02*
X0326252Y0217467D01*
X0327981Y0216469D02*
X0342012Y0216469D01*
X0341435Y0215470D02*
X0329711Y0215470D01*
X0331440Y0214472D02*
X0340859Y0214472D01*
X0340282Y0213473D02*
X0334298Y0213473D01*
X0334836Y0212475D02*
X0339706Y0212475D01*
X0339129Y0211476D02*
X0334836Y0211476D01*
X0334276Y0210478D02*
X0338553Y0210478D01*
X0337976Y0209479D02*
X0320288Y0209479D01*
X0322017Y0208481D02*
X0323428Y0208481D01*
X0326066Y0208481D02*
X0337400Y0208481D01*
X0336823Y0207482D02*
X0327796Y0207482D01*
X0329525Y0206484D02*
X0336247Y0206484D01*
X0335670Y0205485D02*
X0331255Y0205485D01*
X0332984Y0204487D02*
X0335094Y0204487D01*
X0334517Y0203488D02*
X0334191Y0203488D01*
X0327537Y0203447D02*
X0314259Y0211113D01*
X0313344Y0214528D01*
X0315394Y0218078D01*
X0317023Y0216469D02*
X0321581Y0216469D01*
X0323311Y0215470D02*
X0315735Y0215470D01*
X0315159Y0214472D02*
X0325040Y0214472D01*
X0326770Y0213473D02*
X0315283Y0213473D01*
X0315550Y0212475D02*
X0328499Y0212475D01*
X0330229Y0211476D02*
X0316829Y0211476D01*
X0318558Y0210478D02*
X0330815Y0210478D01*
X0332545Y0211986D02*
X0319295Y0219636D01*
X0317881Y0221461D02*
X0243832Y0221461D01*
X0243830Y0220463D02*
X0317005Y0220463D01*
X0317684Y0217467D02*
X0318225Y0217467D01*
X0313540Y0219464D02*
X0243829Y0219464D01*
X0243828Y0218466D02*
X0313103Y0218466D01*
X0313103Y0217467D02*
X0243826Y0217467D01*
X0243825Y0216469D02*
X0312617Y0216469D01*
X0312040Y0215470D02*
X0243824Y0215470D01*
X0243822Y0214472D02*
X0311702Y0214472D01*
X0312505Y0211476D02*
X0243819Y0211476D01*
X0243817Y0210478D02*
X0312772Y0210478D01*
X0313888Y0209479D02*
X0243816Y0209479D01*
X0243815Y0208481D02*
X0315617Y0208481D01*
X0317347Y0207482D02*
X0249308Y0207482D01*
X0250306Y0206484D02*
X0268393Y0206484D01*
X0267700Y0205485D02*
X0258502Y0205485D01*
X0258893Y0204487D02*
X0259709Y0204487D01*
X0259709Y0203488D02*
X0258893Y0203488D01*
X0259709Y0202490D02*
X0255908Y0202490D01*
X0255908Y0203488D02*
X0254940Y0203488D01*
X0254940Y0204487D02*
X0255908Y0204487D01*
X0255908Y0205485D02*
X0254940Y0205485D01*
X0252346Y0205485D02*
X0250500Y0205485D01*
X0250500Y0204487D02*
X0251956Y0204487D01*
X0247092Y0207482D02*
X0243813Y0207482D01*
X0243812Y0206484D02*
X0246093Y0206484D01*
X0245900Y0205485D02*
X0243811Y0205485D01*
X0243809Y0204487D02*
X0245900Y0204487D01*
X0243998Y0203488D02*
X0243808Y0203488D01*
X0251900Y0192337D02*
X0250000Y0190437D01*
X0250000Y0188037D01*
X0249254Y0187292D01*
X0245356Y0187292D01*
X0249409Y0185515D02*
X0254172Y0185515D01*
X0254567Y0186514D02*
X0250738Y0186514D01*
X0249809Y0181521D02*
X0253946Y0181521D01*
X0249778Y0180522D02*
X0259673Y0180522D01*
X0259606Y0179524D02*
X0249409Y0179524D01*
X0258902Y0181521D02*
X0259906Y0181521D01*
X0259906Y0185515D02*
X0258676Y0185515D01*
X0258281Y0186514D02*
X0260308Y0186514D01*
X0259541Y0187512D02*
X0258902Y0187512D01*
X0258902Y0188511D02*
X0259506Y0188511D01*
X0259506Y0189509D02*
X0258902Y0189509D01*
X0258902Y0190508D02*
X0259506Y0190508D01*
X0259506Y0191506D02*
X0258394Y0191506D01*
X0258324Y0192505D02*
X0259541Y0192505D01*
X0259709Y0193503D02*
X0258493Y0193503D01*
X0258493Y0194502D02*
X0259709Y0194502D01*
X0259709Y0195500D02*
X0258493Y0195500D01*
X0258493Y0196499D02*
X0259709Y0196499D01*
X0259709Y0197497D02*
X0258493Y0197497D01*
X0258233Y0198496D02*
X0260215Y0198496D01*
X0260049Y0199494D02*
X0258750Y0199494D01*
X0258893Y0200493D02*
X0259709Y0200493D01*
X0259709Y0201491D02*
X0258893Y0201491D01*
X0262974Y0202258D02*
X0263070Y0202162D01*
X0274524Y0202162D01*
X0273668Y0205485D02*
X0272300Y0205485D01*
X0271606Y0206484D02*
X0282966Y0206484D01*
X0267700Y0204487D02*
X0266239Y0204487D01*
X0266239Y0200493D02*
X0268451Y0200493D01*
X0266604Y0199494D02*
X0265900Y0199494D01*
X0265733Y0198496D02*
X0266124Y0198496D01*
X0273761Y0171536D02*
X0274444Y0171536D01*
X0270574Y0170612D02*
X0270574Y0165658D01*
X0273678Y0161551D02*
X0280998Y0161551D01*
X0282956Y0167542D02*
X0283727Y0167542D01*
X0284331Y0168540D02*
X0282956Y0168540D01*
X0315467Y0191506D02*
X0315846Y0191506D01*
X0317197Y0190508D02*
X0317385Y0190508D01*
X0320017Y0191506D02*
X0321249Y0191506D01*
X0321825Y0192505D02*
X0320670Y0192505D01*
X0321247Y0193503D02*
X0322402Y0193503D01*
X0322079Y0194502D02*
X0321823Y0194502D01*
X0322349Y0195500D02*
X0320349Y0195500D01*
X0320620Y0196499D02*
X0318620Y0196499D01*
X0318890Y0197497D02*
X0316890Y0197497D01*
X0316625Y0197497D02*
X0315996Y0197497D01*
X0315728Y0198496D02*
X0317201Y0198496D01*
X0317778Y0199494D02*
X0314010Y0199494D01*
X0312281Y0200493D02*
X0318401Y0200493D01*
X0320702Y0200493D02*
X0325502Y0200493D01*
X0323773Y0201491D02*
X0310551Y0201491D01*
X0308822Y0202490D02*
X0322043Y0202490D01*
X0320932Y0203488D02*
X0307092Y0203488D01*
X0305363Y0204487D02*
X0321122Y0204487D01*
X0320806Y0205485D02*
X0303633Y0205485D01*
X0301904Y0206484D02*
X0319076Y0206484D01*
X0322431Y0199494D02*
X0327231Y0199494D01*
X0328961Y0198496D02*
X0324129Y0198496D01*
X0323553Y0197497D02*
X0324708Y0197497D01*
X0324131Y0196499D02*
X0322976Y0196499D01*
X0322400Y0195500D02*
X0323555Y0195500D01*
X0325890Y0197497D02*
X0331058Y0197497D01*
X0330482Y0196499D02*
X0327620Y0196499D01*
X0329232Y0195500D02*
X0329905Y0195500D01*
X0325870Y0188511D02*
X0320656Y0188511D01*
X0320737Y0188819D02*
X0320737Y0188819D01*
X0320552Y0189509D02*
X0323726Y0189509D01*
X0321997Y0190508D02*
X0320284Y0190508D01*
X0322385Y0187512D02*
X0325293Y0187512D01*
X0324717Y0186514D02*
X0324098Y0186514D01*
X0300735Y0207159D02*
X0300735Y0207159D01*
X0357577Y0243429D02*
X0243860Y0243429D01*
X0243862Y0244427D02*
X0358153Y0244427D01*
X0358730Y0245426D02*
X0243863Y0245426D01*
X0243864Y0246424D02*
X0359306Y0246424D01*
X0359883Y0247423D02*
X0243866Y0247423D01*
X0243867Y0248421D02*
X0360459Y0248421D01*
X0361036Y0249420D02*
X0243868Y0249420D01*
X0243870Y0250418D02*
X0361612Y0250418D01*
X0361370Y0251417D02*
X0243871Y0251417D01*
X0243872Y0252415D02*
X0360790Y0252415D01*
X0360210Y0253414D02*
X0243874Y0253414D01*
X0243875Y0254412D02*
X0359630Y0254412D01*
X0359050Y0255411D02*
X0243876Y0255411D01*
X0243878Y0256409D02*
X0358470Y0256409D01*
X0357890Y0257408D02*
X0243879Y0257408D01*
X0243880Y0258406D02*
X0357310Y0258406D01*
X0356730Y0259405D02*
X0243881Y0259405D01*
X0243883Y0260403D02*
X0356150Y0260403D01*
X0355569Y0261402D02*
X0243884Y0261402D01*
X0243885Y0262400D02*
X0354989Y0262400D01*
X0354409Y0263399D02*
X0243887Y0263399D01*
X0243888Y0264397D02*
X0353829Y0264397D01*
X0353249Y0265396D02*
X0243889Y0265396D01*
X0243891Y0266394D02*
X0352669Y0266394D01*
X0352089Y0267393D02*
X0244610Y0267393D01*
X0246339Y0268391D02*
X0351509Y0268391D01*
X0350929Y0269390D02*
X0248069Y0269390D01*
X0249798Y0270388D02*
X0350349Y0270388D01*
X0349769Y0271387D02*
X0251528Y0271387D01*
X0253257Y0272385D02*
X0349189Y0272385D01*
X0348609Y0273384D02*
X0254987Y0273384D01*
X0256716Y0274383D02*
X0348028Y0274383D01*
X0347448Y0275381D02*
X0258446Y0275381D01*
X0260175Y0276380D02*
X0346868Y0276380D01*
X0346288Y0277378D02*
X0261905Y0277378D01*
X0263634Y0278377D02*
X0345708Y0278377D01*
X0345128Y0279375D02*
X0265363Y0279375D01*
X0267093Y0280374D02*
X0344548Y0280374D01*
X0343968Y0281372D02*
X0268822Y0281372D01*
X0270552Y0282371D02*
X0343388Y0282371D01*
X0342808Y0283369D02*
X0272281Y0283369D01*
X0274011Y0284368D02*
X0342228Y0284368D01*
X0341648Y0285366D02*
X0324240Y0285366D01*
X0324954Y0286365D02*
X0341068Y0286365D01*
X0340488Y0287363D02*
X0324954Y0287363D01*
X0324570Y0288362D02*
X0339907Y0288362D01*
X0339327Y0289360D02*
X0323165Y0289360D01*
X0322589Y0290359D02*
X0338747Y0290359D01*
X0338167Y0291357D02*
X0322012Y0291357D01*
X0321436Y0292356D02*
X0323960Y0292356D01*
X0324557Y0292356D02*
X0337587Y0292356D01*
X0337007Y0293354D02*
X0326287Y0293354D01*
X0328016Y0294353D02*
X0336427Y0294353D01*
X0335847Y0295351D02*
X0329746Y0295351D01*
X0331475Y0296350D02*
X0335267Y0296350D01*
X0334687Y0297348D02*
X0333205Y0297348D01*
X0333990Y0298347D02*
X0334107Y0298347D01*
X0330977Y0303734D02*
X0330217Y0303937D01*
X0326705Y0301910D01*
X0326471Y0302315D01*
X0326439Y0302370D01*
X0324369Y0302925D01*
X0323844Y0303065D01*
X0322110Y0306069D01*
X0322976Y0306569D01*
X0324726Y0303538D01*
X0328794Y0305887D01*
X0329073Y0306166D01*
X0329271Y0306508D01*
X0329301Y0306620D01*
X0330977Y0303734D01*
X0330626Y0304338D02*
X0326111Y0304338D01*
X0324264Y0304338D02*
X0323109Y0304338D01*
X0322533Y0305336D02*
X0323687Y0305336D01*
X0323111Y0306335D02*
X0322570Y0306335D01*
X0322110Y0306069D02*
X0316914Y0303069D01*
X0317598Y0301884D01*
X0316051Y0302298D01*
X0315500Y0302446D01*
X0315500Y0302446D01*
X0315500Y0302446D01*
X0315487Y0302439D01*
X0305832Y0305026D01*
X0304712Y0305326D01*
X0304671Y0305303D01*
X0303707Y0304746D01*
X0242500Y0269408D01*
X0242500Y0358208D01*
X0242600Y0358308D01*
X0242600Y0359467D01*
X0242500Y0359567D01*
X0241680Y0360387D01*
X0241350Y0360717D01*
X0241350Y0360717D01*
X0240913Y0361154D01*
X0240530Y0361537D01*
X0240530Y0361537D01*
X0238382Y0363685D01*
X0238352Y0363715D01*
X0238352Y0368561D01*
X0237843Y0369070D01*
X0293107Y0368921D01*
X0320903Y0321074D01*
X0320217Y0321258D01*
X0310768Y0315802D01*
X0310532Y0314922D01*
X0311193Y0313777D01*
X0302812Y0308938D01*
X0301447Y0309304D01*
X0301447Y0310894D01*
X0300318Y0312022D01*
X0300470Y0312022D01*
X0301812Y0313364D01*
X0301812Y0313788D01*
X0312524Y0319972D01*
X0314240Y0319972D01*
X0315582Y0321314D01*
X0315582Y0323212D01*
X0314240Y0324553D01*
X0312342Y0324553D01*
X0311001Y0323212D01*
X0311001Y0322788D01*
X0300289Y0316603D01*
X0298573Y0316603D01*
X0297231Y0315262D01*
X0297231Y0313364D01*
X0298359Y0312236D01*
X0298207Y0312236D01*
X0296866Y0310894D01*
X0296866Y0308996D01*
X0298207Y0307655D01*
X0298631Y0307655D01*
X0298968Y0307071D01*
X0299252Y0306579D01*
X0299982Y0306384D01*
X0300532Y0306236D01*
X0300532Y0306236D01*
X0302372Y0305743D01*
X0303264Y0305504D01*
X0303264Y0305504D01*
X0303264Y0305504D01*
X0303610Y0305704D01*
X0312793Y0311006D01*
X0313488Y0309803D01*
X0314368Y0309567D01*
X0323817Y0315023D01*
X0324007Y0315731D01*
X0325655Y0312894D01*
X0325570Y0312917D01*
X0325175Y0312917D01*
X0324794Y0312815D01*
X0320726Y0310466D01*
X0322476Y0307435D01*
X0321610Y0306935D01*
X0322110Y0306069D01*
X0321956Y0306335D02*
X0320570Y0306335D01*
X0320840Y0305336D02*
X0318841Y0305336D01*
X0319111Y0304338D02*
X0317111Y0304338D01*
X0316414Y0303935D02*
X0321610Y0306935D01*
X0319860Y0309966D01*
X0315792Y0307617D01*
X0315512Y0307338D01*
X0315315Y0306996D01*
X0315213Y0306615D01*
X0315213Y0306220D01*
X0315315Y0305838D01*
X0316414Y0303935D01*
X0316181Y0304338D02*
X0308399Y0304338D01*
X0308760Y0301342D02*
X0303412Y0301342D01*
X0301682Y0300344D02*
X0312487Y0300344D01*
X0314256Y0299345D02*
X0299953Y0299345D01*
X0298223Y0298347D02*
X0313973Y0298347D01*
X0313973Y0297348D02*
X0296494Y0297348D01*
X0294764Y0296350D02*
X0314789Y0296350D01*
X0316011Y0295351D02*
X0293035Y0295351D01*
X0291306Y0294353D02*
X0316588Y0294353D01*
X0317164Y0293354D02*
X0289576Y0293354D01*
X0287847Y0292356D02*
X0317741Y0292356D01*
X0318317Y0291357D02*
X0286117Y0291357D01*
X0284388Y0290359D02*
X0318894Y0290359D01*
X0319470Y0289360D02*
X0282658Y0289360D01*
X0280929Y0288362D02*
X0320047Y0288362D01*
X0320373Y0287363D02*
X0279199Y0287363D01*
X0277470Y0286365D02*
X0320373Y0286365D01*
X0321087Y0285366D02*
X0275740Y0285366D01*
X0273599Y0287363D02*
X0242500Y0287363D01*
X0242500Y0286365D02*
X0271870Y0286365D01*
X0270140Y0285366D02*
X0242500Y0285366D01*
X0242500Y0284368D02*
X0268411Y0284368D01*
X0266681Y0283369D02*
X0242500Y0283369D01*
X0242500Y0282371D02*
X0264952Y0282371D01*
X0263222Y0281372D02*
X0242500Y0281372D01*
X0242500Y0280374D02*
X0261493Y0280374D01*
X0259763Y0279375D02*
X0242500Y0279375D01*
X0242500Y0278377D02*
X0258034Y0278377D01*
X0256305Y0277378D02*
X0242500Y0277378D01*
X0242500Y0276380D02*
X0254575Y0276380D01*
X0252846Y0275381D02*
X0242500Y0275381D01*
X0242500Y0274383D02*
X0251116Y0274383D01*
X0249387Y0273384D02*
X0242500Y0273384D01*
X0242500Y0272385D02*
X0247657Y0272385D01*
X0245928Y0271387D02*
X0242500Y0271387D01*
X0242500Y0270388D02*
X0244198Y0270388D01*
X0239700Y0273384D02*
X0193632Y0273384D01*
X0191903Y0274383D02*
X0239700Y0274383D01*
X0239700Y0275381D02*
X0190173Y0275381D01*
X0188444Y0276380D02*
X0239700Y0276380D01*
X0239700Y0277378D02*
X0186714Y0277378D01*
X0184985Y0278377D02*
X0239700Y0278377D01*
X0239700Y0279375D02*
X0183255Y0279375D01*
X0181526Y0280374D02*
X0239700Y0280374D01*
X0239700Y0281372D02*
X0179796Y0281372D01*
X0178067Y0282371D02*
X0239700Y0282371D01*
X0239700Y0283369D02*
X0176338Y0283369D01*
X0174608Y0284368D02*
X0239700Y0284368D01*
X0239700Y0285366D02*
X0172879Y0285366D01*
X0171149Y0286365D02*
X0239700Y0286365D01*
X0239700Y0287363D02*
X0169420Y0287363D01*
X0167690Y0288362D02*
X0239700Y0288362D01*
X0239700Y0289360D02*
X0165961Y0289360D01*
X0164231Y0290359D02*
X0239700Y0290359D01*
X0239700Y0291357D02*
X0162502Y0291357D01*
X0160772Y0292356D02*
X0239700Y0292356D01*
X0239700Y0293354D02*
X0159043Y0293354D01*
X0157313Y0294353D02*
X0239700Y0294353D01*
X0239700Y0295351D02*
X0155584Y0295351D01*
X0153854Y0296350D02*
X0239700Y0296350D01*
X0239700Y0297348D02*
X0152125Y0297348D01*
X0150395Y0298347D02*
X0239700Y0298347D01*
X0239700Y0299345D02*
X0148666Y0299345D01*
X0146936Y0300344D02*
X0239700Y0300344D01*
X0239700Y0301342D02*
X0145207Y0301342D01*
X0143478Y0302341D02*
X0239700Y0302341D01*
X0239700Y0303339D02*
X0141748Y0303339D01*
X0140019Y0304338D02*
X0239700Y0304338D01*
X0239700Y0305336D02*
X0139724Y0305336D01*
X0140284Y0306335D02*
X0239700Y0306335D01*
X0239700Y0307333D02*
X0140284Y0307333D01*
X0140699Y0308332D02*
X0239700Y0308332D01*
X0239700Y0309330D02*
X0141276Y0309330D01*
X0141852Y0310329D02*
X0239700Y0310329D01*
X0239700Y0311327D02*
X0142429Y0311327D01*
X0143005Y0312326D02*
X0239700Y0312326D01*
X0239700Y0313324D02*
X0143582Y0313324D01*
X0144648Y0314323D02*
X0239700Y0314323D01*
X0239700Y0315321D02*
X0226383Y0315321D01*
X0226324Y0315262D02*
X0228725Y0317663D01*
X0228725Y0321060D01*
X0226324Y0323462D01*
X0222927Y0323462D01*
X0220525Y0321060D01*
X0220525Y0317663D01*
X0222927Y0315262D01*
X0226324Y0315262D01*
X0227382Y0316320D02*
X0239700Y0316320D01*
X0239700Y0317318D02*
X0228380Y0317318D01*
X0228725Y0318317D02*
X0239700Y0318317D01*
X0239700Y0319316D02*
X0228725Y0319316D01*
X0228725Y0320314D02*
X0239700Y0320314D01*
X0239700Y0321313D02*
X0228473Y0321313D01*
X0227474Y0322311D02*
X0239700Y0322311D01*
X0239700Y0323310D02*
X0226476Y0323310D01*
X0222775Y0323310D02*
X0129850Y0323310D01*
X0130427Y0324308D02*
X0239700Y0324308D01*
X0239700Y0325307D02*
X0131003Y0325307D01*
X0131580Y0326305D02*
X0239700Y0326305D01*
X0239700Y0327304D02*
X0132156Y0327304D01*
X0132733Y0328302D02*
X0239700Y0328302D01*
X0239700Y0329301D02*
X0133309Y0329301D01*
X0133886Y0330299D02*
X0239700Y0330299D01*
X0239700Y0331298D02*
X0134462Y0331298D01*
X0135039Y0332296D02*
X0239700Y0332296D01*
X0239700Y0333295D02*
X0135615Y0333295D01*
X0136192Y0334293D02*
X0239700Y0334293D01*
X0239700Y0335292D02*
X0136768Y0335292D01*
X0137345Y0336290D02*
X0239700Y0336290D01*
X0239700Y0337289D02*
X0137921Y0337289D01*
X0138498Y0338287D02*
X0239700Y0338287D01*
X0239700Y0339286D02*
X0139074Y0339286D01*
X0139651Y0340284D02*
X0239700Y0340284D01*
X0239700Y0341283D02*
X0140227Y0341283D01*
X0140804Y0342281D02*
X0239700Y0342281D01*
X0239700Y0343280D02*
X0210538Y0343280D01*
X0212447Y0343665D02*
X0212447Y0343665D01*
X0213060Y0344278D02*
X0239700Y0344278D01*
X0239700Y0345277D02*
X0214059Y0345277D01*
X0213384Y0344602D02*
X0213384Y0344602D01*
X0211784Y0345265D02*
X0214784Y0348265D01*
X0214784Y0363073D01*
X0214752Y0363105D01*
X0218352Y0363250D02*
X0224252Y0363250D01*
X0224252Y0362605D02*
X0220752Y0362605D01*
X0220752Y0357907D01*
X0220854Y0357526D01*
X0221052Y0357184D01*
X0221331Y0356905D01*
X0221673Y0356707D01*
X0222054Y0356605D01*
X0224252Y0356605D01*
X0224252Y0362605D01*
X0224252Y0362252D02*
X0225252Y0362252D01*
X0225252Y0362605D02*
X0225252Y0356605D01*
X0227449Y0356605D01*
X0227831Y0356707D01*
X0228173Y0356905D01*
X0228452Y0357184D01*
X0228650Y0357526D01*
X0228752Y0357907D01*
X0228752Y0362605D01*
X0225252Y0362605D01*
X0225252Y0363250D02*
X0231152Y0363250D01*
X0231152Y0362252D02*
X0228752Y0362252D01*
X0228752Y0361253D02*
X0231152Y0361253D01*
X0231152Y0360254D02*
X0228752Y0360254D01*
X0228752Y0359256D02*
X0231152Y0359256D01*
X0231152Y0358257D02*
X0228752Y0358257D01*
X0228496Y0357259D02*
X0231542Y0357259D01*
X0230127Y0356260D02*
X0236840Y0356260D01*
X0237962Y0357259D02*
X0239700Y0357259D01*
X0239700Y0358257D02*
X0238352Y0358257D01*
X0238352Y0359256D02*
X0238851Y0359256D01*
X0240814Y0361253D02*
X0297562Y0361253D01*
X0298142Y0360254D02*
X0241813Y0360254D01*
X0241680Y0360387D02*
X0241680Y0360387D01*
X0242600Y0359256D02*
X0298722Y0359256D01*
X0299302Y0358257D02*
X0242550Y0358257D01*
X0242500Y0357259D02*
X0299882Y0357259D01*
X0300462Y0356260D02*
X0242500Y0356260D01*
X0242500Y0355262D02*
X0301042Y0355262D01*
X0301622Y0354263D02*
X0242500Y0354263D01*
X0242500Y0353265D02*
X0302202Y0353265D01*
X0302783Y0352266D02*
X0242500Y0352266D01*
X0242500Y0351268D02*
X0303363Y0351268D01*
X0303943Y0350269D02*
X0242500Y0350269D01*
X0242500Y0349271D02*
X0304523Y0349271D01*
X0305103Y0348272D02*
X0242500Y0348272D01*
X0242500Y0347274D02*
X0305683Y0347274D01*
X0306263Y0346275D02*
X0242500Y0346275D01*
X0242500Y0345277D02*
X0306843Y0345277D01*
X0307423Y0344278D02*
X0242500Y0344278D01*
X0242500Y0343280D02*
X0308003Y0343280D01*
X0308583Y0342281D02*
X0242500Y0342281D01*
X0242500Y0341283D02*
X0309163Y0341283D01*
X0309743Y0340284D02*
X0242500Y0340284D01*
X0242500Y0339286D02*
X0310324Y0339286D01*
X0310904Y0338287D02*
X0242500Y0338287D01*
X0242500Y0337289D02*
X0311484Y0337289D01*
X0312064Y0336290D02*
X0242500Y0336290D01*
X0242500Y0335292D02*
X0312644Y0335292D01*
X0313224Y0334293D02*
X0242500Y0334293D01*
X0242500Y0333295D02*
X0313804Y0333295D01*
X0314384Y0332296D02*
X0242500Y0332296D01*
X0242500Y0331298D02*
X0314964Y0331298D01*
X0315544Y0330299D02*
X0242500Y0330299D01*
X0242500Y0329301D02*
X0316124Y0329301D01*
X0316704Y0328302D02*
X0242500Y0328302D01*
X0242500Y0327304D02*
X0317284Y0327304D01*
X0317865Y0326305D02*
X0242500Y0326305D01*
X0242500Y0325307D02*
X0318445Y0325307D01*
X0319025Y0324308D02*
X0314485Y0324308D01*
X0315484Y0323310D02*
X0319605Y0323310D01*
X0320185Y0322311D02*
X0315582Y0322311D01*
X0315580Y0321313D02*
X0320765Y0321313D01*
X0318583Y0320314D02*
X0314582Y0320314D01*
X0315124Y0318317D02*
X0309657Y0318317D01*
X0311386Y0319316D02*
X0316853Y0319316D01*
X0317247Y0315425D02*
X0303038Y0307221D01*
X0300306Y0307953D01*
X0299156Y0309945D01*
X0297530Y0308332D02*
X0242500Y0308332D01*
X0242500Y0309330D02*
X0296866Y0309330D01*
X0296866Y0310329D02*
X0242500Y0310329D01*
X0242500Y0311327D02*
X0297299Y0311327D01*
X0298269Y0312326D02*
X0242500Y0312326D01*
X0242500Y0313324D02*
X0297270Y0313324D01*
X0297231Y0314323D02*
X0242500Y0314323D01*
X0242500Y0315321D02*
X0297291Y0315321D01*
X0298289Y0316320D02*
X0242500Y0316320D01*
X0242500Y0317318D02*
X0301527Y0317318D01*
X0303257Y0318317D02*
X0242500Y0318317D01*
X0242500Y0319316D02*
X0304986Y0319316D01*
X0306716Y0320314D02*
X0242500Y0320314D01*
X0242500Y0321313D02*
X0308445Y0321313D01*
X0310174Y0322311D02*
X0242500Y0322311D01*
X0242500Y0323310D02*
X0311098Y0323310D01*
X0312097Y0324308D02*
X0242500Y0324308D01*
X0242500Y0307333D02*
X0298817Y0307333D01*
X0299252Y0306579D02*
X0299252Y0306579D01*
X0299252Y0306579D01*
X0300165Y0306335D02*
X0242500Y0306335D01*
X0242500Y0305336D02*
X0315605Y0305336D01*
X0315213Y0306335D02*
X0304703Y0306335D01*
X0303707Y0304746D02*
X0303707Y0304746D01*
X0303000Y0304338D02*
X0242500Y0304338D01*
X0242500Y0303339D02*
X0301271Y0303339D01*
X0299541Y0302341D02*
X0242500Y0302341D01*
X0242500Y0301342D02*
X0297812Y0301342D01*
X0296082Y0300344D02*
X0242500Y0300344D01*
X0242500Y0299345D02*
X0294353Y0299345D01*
X0292623Y0298347D02*
X0242500Y0298347D01*
X0242500Y0297348D02*
X0290894Y0297348D01*
X0289165Y0296350D02*
X0242500Y0296350D01*
X0242500Y0295351D02*
X0287435Y0295351D01*
X0285706Y0294353D02*
X0242500Y0294353D01*
X0242500Y0293354D02*
X0283976Y0293354D01*
X0282247Y0292356D02*
X0242500Y0292356D01*
X0242500Y0291357D02*
X0280517Y0291357D01*
X0278788Y0290359D02*
X0242500Y0290359D01*
X0242500Y0289360D02*
X0277058Y0289360D01*
X0275329Y0288362D02*
X0242500Y0288362D01*
X0222867Y0315321D02*
X0145646Y0315321D01*
X0145834Y0316320D02*
X0221869Y0316320D01*
X0220870Y0317318D02*
X0145834Y0317318D01*
X0144924Y0318317D02*
X0220525Y0318317D01*
X0220525Y0319316D02*
X0134095Y0319316D01*
X0132365Y0320314D02*
X0220525Y0320314D01*
X0220778Y0321313D02*
X0130636Y0321313D01*
X0129274Y0322311D02*
X0221776Y0322311D01*
X0208029Y0343280D02*
X0141380Y0343280D01*
X0141957Y0344278D02*
X0207031Y0344278D01*
X0206993Y0345277D02*
X0142533Y0345277D01*
X0143110Y0346275D02*
X0203934Y0346275D01*
X0203293Y0347274D02*
X0143686Y0347274D01*
X0144263Y0348272D02*
X0203293Y0348272D01*
X0203751Y0349271D02*
X0144839Y0349271D01*
X0145416Y0350269D02*
X0203984Y0350269D01*
X0203984Y0351268D02*
X0145992Y0351268D01*
X0146569Y0352266D02*
X0203984Y0352266D01*
X0203984Y0353265D02*
X0147145Y0353265D01*
X0147722Y0354263D02*
X0203984Y0354263D01*
X0203984Y0355262D02*
X0148298Y0355262D01*
X0148875Y0356260D02*
X0203984Y0356260D01*
X0203984Y0357259D02*
X0149451Y0357259D01*
X0150028Y0358257D02*
X0203984Y0358257D01*
X0203984Y0359256D02*
X0150604Y0359256D01*
X0151181Y0360254D02*
X0203984Y0360254D01*
X0203984Y0361253D02*
X0151757Y0361253D01*
X0152334Y0362252D02*
X0203293Y0362252D01*
X0203293Y0363250D02*
X0152910Y0363250D01*
X0153487Y0364249D02*
X0203528Y0364249D01*
X0204527Y0365247D02*
X0154063Y0365247D01*
X0154640Y0366246D02*
X0211152Y0366246D01*
X0211152Y0367244D02*
X0155216Y0367244D01*
X0155793Y0368243D02*
X0211152Y0368243D01*
X0211152Y0365247D02*
X0206641Y0365247D01*
X0207639Y0364249D02*
X0211152Y0364249D01*
X0211152Y0363250D02*
X0207874Y0363250D01*
X0207874Y0362252D02*
X0211152Y0362252D01*
X0211152Y0361253D02*
X0207184Y0361253D01*
X0207184Y0360254D02*
X0211152Y0360254D01*
X0211152Y0359256D02*
X0207184Y0359256D01*
X0207184Y0358257D02*
X0211152Y0358257D01*
X0211542Y0357259D02*
X0207184Y0357259D01*
X0207184Y0356260D02*
X0213184Y0356260D01*
X0213184Y0355262D02*
X0207184Y0355262D01*
X0207184Y0354263D02*
X0213184Y0354263D01*
X0213184Y0353265D02*
X0207184Y0353265D01*
X0207184Y0352266D02*
X0213184Y0352266D01*
X0213184Y0351268D02*
X0207184Y0351268D01*
X0207184Y0350269D02*
X0213184Y0350269D01*
X0213184Y0349271D02*
X0207417Y0349271D01*
X0207874Y0348272D02*
X0212529Y0348272D01*
X0211530Y0347274D02*
X0210514Y0347274D01*
X0209284Y0345265D02*
X0211784Y0345265D01*
X0215057Y0346275D02*
X0239700Y0346275D01*
X0239700Y0347274D02*
X0216056Y0347274D01*
X0215447Y0346665D02*
X0215447Y0346665D01*
X0216384Y0348272D02*
X0239700Y0348272D01*
X0239700Y0349271D02*
X0216384Y0349271D01*
X0216384Y0350269D02*
X0239700Y0350269D01*
X0239700Y0351268D02*
X0216384Y0351268D01*
X0216384Y0352266D02*
X0227643Y0352266D01*
X0226644Y0353265D02*
X0216384Y0353265D01*
X0216384Y0354263D02*
X0226493Y0354263D01*
X0226493Y0355262D02*
X0216384Y0355262D01*
X0216384Y0356260D02*
X0227440Y0356260D01*
X0228784Y0354365D02*
X0238184Y0354365D01*
X0239527Y0356260D02*
X0239700Y0356260D01*
X0239700Y0352266D02*
X0239325Y0352266D01*
X0237043Y0352266D02*
X0229925Y0352266D01*
X0225252Y0357259D02*
X0224252Y0357259D01*
X0224252Y0358257D02*
X0225252Y0358257D01*
X0225252Y0359256D02*
X0224252Y0359256D01*
X0224252Y0360254D02*
X0225252Y0360254D01*
X0225252Y0361253D02*
X0224252Y0361253D01*
X0220752Y0361253D02*
X0218352Y0361253D01*
X0218352Y0362252D02*
X0220752Y0362252D01*
X0220752Y0364249D02*
X0218352Y0364249D01*
X0218352Y0365247D02*
X0220752Y0365247D01*
X0220752Y0366246D02*
X0218352Y0366246D01*
X0218352Y0367244D02*
X0220752Y0367244D01*
X0220752Y0368243D02*
X0218352Y0368243D01*
X0218352Y0360254D02*
X0220752Y0360254D01*
X0220752Y0359256D02*
X0218352Y0359256D01*
X0218352Y0358257D02*
X0220752Y0358257D01*
X0221008Y0357259D02*
X0217962Y0357259D01*
X0205584Y0363065D02*
X0205584Y0347865D01*
X0207874Y0347274D02*
X0208054Y0347274D01*
X0205561Y0363042D02*
X0205584Y0363065D01*
X0228752Y0364249D02*
X0231152Y0364249D01*
X0231152Y0365247D02*
X0228752Y0365247D01*
X0228752Y0366246D02*
X0231152Y0366246D01*
X0231152Y0367244D02*
X0228752Y0367244D01*
X0228752Y0368243D02*
X0231152Y0368243D01*
X0238352Y0368243D02*
X0293501Y0368243D01*
X0294081Y0367244D02*
X0238352Y0367244D01*
X0238352Y0366246D02*
X0294661Y0366246D01*
X0295242Y0365247D02*
X0238352Y0365247D01*
X0238352Y0364249D02*
X0295822Y0364249D01*
X0296402Y0363250D02*
X0238817Y0363250D01*
X0238382Y0363685D02*
X0238382Y0363685D01*
X0239816Y0362252D02*
X0296982Y0362252D01*
X0313291Y0322263D02*
X0299521Y0314313D01*
X0300774Y0312326D02*
X0308680Y0312326D01*
X0310409Y0313324D02*
X0301772Y0313324D01*
X0302739Y0314323D02*
X0310878Y0314323D01*
X0310639Y0315321D02*
X0304468Y0315321D01*
X0306198Y0316320D02*
X0311665Y0316320D01*
X0313394Y0317318D02*
X0307927Y0317318D01*
X0306950Y0311327D02*
X0301013Y0311327D01*
X0301447Y0310329D02*
X0305221Y0310329D01*
X0303491Y0309330D02*
X0301447Y0309330D01*
X0306432Y0307333D02*
X0315510Y0307333D01*
X0317029Y0308332D02*
X0308162Y0308332D01*
X0309891Y0309330D02*
X0318758Y0309330D01*
X0320227Y0309330D02*
X0321381Y0309330D01*
X0321958Y0308332D02*
X0320803Y0308332D01*
X0321380Y0307333D02*
X0322299Y0307333D01*
X0320805Y0310329D02*
X0315688Y0310329D01*
X0317417Y0311327D02*
X0322217Y0311327D01*
X0323947Y0312326D02*
X0319147Y0312326D01*
X0320876Y0313324D02*
X0325406Y0313324D01*
X0324825Y0314323D02*
X0322606Y0314323D01*
X0323898Y0315321D02*
X0324245Y0315321D01*
X0329171Y0306335D02*
X0329466Y0306335D01*
X0330046Y0305336D02*
X0327841Y0305336D01*
X0329182Y0303339D02*
X0323686Y0303339D01*
X0326456Y0302341D02*
X0327452Y0302341D01*
X0322264Y0299345D02*
X0322128Y0299345D01*
X0320732Y0298347D02*
X0320399Y0298347D01*
X0319981Y0298347D02*
X0318554Y0298347D01*
X0318554Y0297348D02*
X0320678Y0297348D01*
X0321255Y0296350D02*
X0319130Y0296350D01*
X0319706Y0295351D02*
X0321831Y0295351D01*
X0322408Y0294353D02*
X0320283Y0294353D01*
X0320859Y0293354D02*
X0322984Y0293354D01*
X0322664Y0287029D02*
X0316264Y0298114D01*
X0315893Y0302341D02*
X0317334Y0302341D01*
X0317382Y0303339D02*
X0312126Y0303339D01*
X0311621Y0310329D02*
X0313184Y0310329D01*
X0234567Y0234847D02*
X0234500Y0234780D01*
X0229480Y0234442D02*
X0219673Y0234442D01*
X0219673Y0233444D02*
X0229480Y0233444D01*
X0229480Y0232445D02*
X0219673Y0232445D01*
X0219238Y0231447D02*
X0229915Y0231447D01*
X0229480Y0235441D02*
X0219673Y0235441D01*
X0219673Y0236439D02*
X0229480Y0236439D01*
X0229480Y0237438D02*
X0219673Y0237438D01*
X0219049Y0238436D02*
X0230104Y0238436D01*
X0231025Y0227452D02*
X0234062Y0227452D01*
X0233100Y0226454D02*
X0231025Y0226454D01*
X0230822Y0225455D02*
X0233100Y0225455D01*
X0233228Y0224457D02*
X0231366Y0224457D01*
X0235425Y0221962D02*
X0235425Y0217962D01*
X0231120Y0218337D02*
X0231120Y0218337D01*
X0225978Y0218466D02*
X0224804Y0218466D01*
X0224992Y0219464D02*
X0225460Y0219464D01*
X0225460Y0220463D02*
X0224992Y0220463D01*
X0224413Y0217467D02*
X0225788Y0217467D01*
X0225460Y0216469D02*
X0224592Y0216469D01*
X0222008Y0222460D02*
X0221040Y0222460D01*
X0221040Y0223458D02*
X0222008Y0223458D01*
X0222008Y0224457D02*
X0221040Y0224457D01*
X0218366Y0224457D02*
X0216966Y0224457D01*
X0217591Y0223458D02*
X0218055Y0223458D01*
X0218055Y0222460D02*
X0217591Y0222460D01*
X0214325Y0221408D02*
X0214325Y0234586D01*
X0214586Y0234847D01*
X0209500Y0237438D02*
X0201400Y0237438D01*
X0201400Y0238436D02*
X0210124Y0238436D01*
X0198600Y0239435D02*
X0095353Y0239435D01*
X0094773Y0240433D02*
X0198600Y0240433D01*
X0198600Y0241432D02*
X0094193Y0241432D01*
X0093613Y0242430D02*
X0198600Y0242430D01*
X0198600Y0243429D02*
X0093033Y0243429D01*
X0092453Y0244427D02*
X0198600Y0244427D01*
X0198600Y0245426D02*
X0091873Y0245426D01*
X0091293Y0246424D02*
X0198600Y0246424D01*
X0198600Y0247423D02*
X0090713Y0247423D01*
X0090133Y0248421D02*
X0198600Y0248421D01*
X0198600Y0249420D02*
X0089552Y0249420D01*
X0088972Y0250418D02*
X0198600Y0250418D01*
X0198600Y0251417D02*
X0088392Y0251417D01*
X0088920Y0252415D02*
X0198600Y0252415D01*
X0198600Y0253414D02*
X0089496Y0253414D01*
X0090073Y0254412D02*
X0198600Y0254412D01*
X0198600Y0255411D02*
X0090649Y0255411D01*
X0091226Y0256409D02*
X0198600Y0256409D01*
X0198600Y0257408D02*
X0091802Y0257408D01*
X0092379Y0258406D02*
X0198600Y0258406D01*
X0198600Y0259405D02*
X0092955Y0259405D01*
X0093532Y0260403D02*
X0198600Y0260403D01*
X0198600Y0261402D02*
X0094108Y0261402D01*
X0094685Y0262400D02*
X0198600Y0262400D01*
X0198600Y0263399D02*
X0095261Y0263399D01*
X0095837Y0264397D02*
X0198600Y0264397D01*
X0198600Y0265396D02*
X0096414Y0265396D01*
X0096990Y0266394D02*
X0198600Y0266394D01*
X0198409Y0267393D02*
X0097567Y0267393D01*
X0098143Y0268391D02*
X0196680Y0268391D01*
X0194950Y0269390D02*
X0098720Y0269390D01*
X0099296Y0270388D02*
X0193221Y0270388D01*
X0191491Y0271387D02*
X0099873Y0271387D01*
X0100449Y0272385D02*
X0189762Y0272385D01*
X0188032Y0273384D02*
X0101026Y0273384D01*
X0101602Y0274383D02*
X0186303Y0274383D01*
X0184573Y0275381D02*
X0102179Y0275381D01*
X0102755Y0276380D02*
X0182844Y0276380D01*
X0181114Y0277378D02*
X0103332Y0277378D01*
X0103908Y0278377D02*
X0179385Y0278377D01*
X0177655Y0279375D02*
X0104485Y0279375D01*
X0105061Y0280374D02*
X0175926Y0280374D01*
X0174196Y0281372D02*
X0133750Y0281372D01*
X0133218Y0280840D02*
X0134560Y0282182D01*
X0134560Y0284079D01*
X0133218Y0285421D01*
X0131502Y0285421D01*
X0120617Y0291706D01*
X0120617Y0292129D01*
X0119275Y0293471D01*
X0117378Y0293471D01*
X0116036Y0292129D01*
X0116036Y0290232D01*
X0117378Y0288890D01*
X0119094Y0288890D01*
X0129979Y0282605D01*
X0129979Y0282182D01*
X0131321Y0280840D01*
X0133218Y0280840D01*
X0134560Y0282371D02*
X0172467Y0282371D01*
X0170738Y0283369D02*
X0134560Y0283369D01*
X0134272Y0284368D02*
X0169008Y0284368D01*
X0167279Y0285366D02*
X0133273Y0285366D01*
X0132269Y0283130D02*
X0118326Y0291180D01*
X0116036Y0291357D02*
X0111403Y0291357D01*
X0110826Y0290359D02*
X0116036Y0290359D01*
X0116907Y0289360D02*
X0110250Y0289360D01*
X0109673Y0288362D02*
X0120009Y0288362D01*
X0121738Y0287363D02*
X0109097Y0287363D01*
X0108520Y0286365D02*
X0123468Y0286365D01*
X0125197Y0285366D02*
X0107944Y0285366D01*
X0107367Y0284368D02*
X0126927Y0284368D01*
X0128656Y0283369D02*
X0106791Y0283369D01*
X0106214Y0282371D02*
X0129979Y0282371D01*
X0130788Y0281372D02*
X0105638Y0281372D01*
X0111979Y0292356D02*
X0116262Y0292356D01*
X0117261Y0293354D02*
X0112556Y0293354D01*
X0113132Y0294353D02*
X0122932Y0294353D01*
X0124661Y0293354D02*
X0119392Y0293354D01*
X0120390Y0292356D02*
X0130491Y0292356D01*
X0132220Y0291357D02*
X0121220Y0291357D01*
X0122950Y0290359D02*
X0133950Y0290359D01*
X0135679Y0289360D02*
X0124679Y0289360D01*
X0126409Y0288362D02*
X0135867Y0288362D01*
X0135867Y0287363D02*
X0128138Y0287363D01*
X0129868Y0286365D02*
X0136483Y0286365D01*
X0138158Y0287929D02*
X0138208Y0288016D01*
X0137659Y0290065D01*
X0122647Y0298732D01*
X0122578Y0298714D01*
X0121202Y0295351D02*
X0113709Y0295351D01*
X0114285Y0296350D02*
X0119473Y0296350D01*
X0117743Y0297348D02*
X0114862Y0297348D01*
X0115438Y0298347D02*
X0116047Y0298347D01*
X0120037Y0304338D02*
X0124837Y0304338D01*
X0125248Y0304338D02*
X0126403Y0304338D01*
X0126566Y0303339D02*
X0121766Y0303339D01*
X0123496Y0302341D02*
X0128296Y0302341D01*
X0130025Y0301342D02*
X0125225Y0301342D01*
X0126955Y0300344D02*
X0141336Y0300344D01*
X0139607Y0301342D02*
X0131291Y0301342D01*
X0132178Y0302341D02*
X0137878Y0302341D01*
X0136148Y0303339D02*
X0132754Y0303339D01*
X0131837Y0304338D02*
X0134494Y0304338D01*
X0134227Y0305336D02*
X0133907Y0305336D01*
X0134208Y0305407D02*
X0134208Y0305407D01*
X0132107Y0305336D02*
X0130107Y0305336D01*
X0130378Y0306335D02*
X0128378Y0306335D01*
X0127556Y0306335D02*
X0126401Y0306335D01*
X0125825Y0305336D02*
X0126979Y0305336D01*
X0128132Y0307333D02*
X0128648Y0307333D01*
X0128709Y0308332D02*
X0127554Y0308332D01*
X0128131Y0309330D02*
X0129285Y0309330D01*
X0129862Y0310329D02*
X0128707Y0310329D01*
X0128731Y0311327D02*
X0129693Y0311327D01*
X0129426Y0312326D02*
X0127001Y0312326D01*
X0125272Y0313324D02*
X0129397Y0313324D01*
X0128342Y0314323D02*
X0124662Y0314323D01*
X0125239Y0315321D02*
X0126613Y0315321D01*
X0125873Y0316320D02*
X0125815Y0316320D01*
X0132712Y0311327D02*
X0133531Y0311327D01*
X0134442Y0310329D02*
X0135260Y0310329D01*
X0136026Y0310329D02*
X0138157Y0310329D01*
X0137581Y0309330D02*
X0136055Y0309330D01*
X0136904Y0311327D02*
X0138734Y0311327D01*
X0139310Y0312326D02*
X0137481Y0312326D01*
X0138057Y0313324D02*
X0139887Y0313324D01*
X0140463Y0314323D02*
X0138634Y0314323D01*
X0139210Y0315321D02*
X0141040Y0315321D01*
X0141253Y0316320D02*
X0139131Y0316320D01*
X0137554Y0317318D02*
X0141253Y0317318D01*
X0142163Y0318317D02*
X0135824Y0318317D01*
X0143544Y0316458D02*
X0137994Y0306845D01*
X0143066Y0299345D02*
X0128684Y0299345D01*
X0129306Y0298347D02*
X0144795Y0298347D01*
X0146525Y0297348D02*
X0128834Y0297348D01*
X0129973Y0296350D02*
X0148254Y0296350D01*
X0149984Y0295351D02*
X0131702Y0295351D01*
X0133432Y0294353D02*
X0151713Y0294353D01*
X0153443Y0293354D02*
X0135161Y0293354D01*
X0136891Y0292356D02*
X0155172Y0292356D01*
X0156902Y0291357D02*
X0138620Y0291357D01*
X0139236Y0290359D02*
X0158631Y0290359D01*
X0160361Y0289360D02*
X0139966Y0289360D01*
X0140448Y0288362D02*
X0162090Y0288362D01*
X0163820Y0287363D02*
X0140448Y0287363D01*
X0139832Y0286365D02*
X0165549Y0286365D01*
X0128761Y0293354D02*
X0126528Y0293354D01*
X0123107Y0305336D02*
X0119474Y0305336D01*
X0120050Y0306335D02*
X0121378Y0306335D01*
X0156369Y0369241D02*
X0174099Y0369241D01*
X0209321Y0216469D02*
X0211060Y0216469D01*
X0206008Y0169539D02*
X0205206Y0169539D01*
X0216179Y0159554D02*
X0216962Y0159554D01*
X0196142Y0137586D02*
X0195173Y0137586D01*
X0195173Y0136588D02*
X0196142Y0136588D01*
X0196142Y0135589D02*
X0195173Y0135589D01*
X0195173Y0134591D02*
X0196142Y0134591D01*
X0196142Y0133592D02*
X0195173Y0133592D01*
X0188337Y0154561D02*
X0186329Y0154561D01*
D33*
X0235425Y0213962D03*
X0235425Y0217962D03*
X0235425Y0221962D03*
D34*
X0278700Y0198651D03*
X0278700Y0169124D03*
D35*
X0256424Y0189066D02*
X0256424Y0191762D01*
X0255424Y0192762D01*
X0255424Y0195615D01*
X0256424Y0189066D02*
X0256420Y0189062D01*
X0252324Y0189062D01*
X0197524Y0185862D02*
X0197524Y0181058D01*
X0197130Y0181452D01*
X0189042Y0181452D01*
X0197474Y0185912D02*
X0197474Y0191315D01*
X0197374Y0191415D01*
X0197424Y0191515D02*
X0190274Y0191465D01*
X0197474Y0185912D02*
X0197524Y0185862D01*
X0175724Y0164912D02*
X0175724Y0160562D01*
X0177314Y0158972D01*
X0179687Y0158972D01*
X0179811Y0158847D01*
X0179811Y0149819D01*
X0169324Y0159068D02*
X0169027Y0159365D01*
X0162674Y0159365D01*
X0162624Y0159315D01*
X0162624Y0154008D01*
X0162674Y0159365D02*
X0162387Y0159653D01*
X0154699Y0159653D01*
X0169324Y0166155D02*
X0169381Y0166212D01*
X0174424Y0166212D01*
X0175724Y0164912D01*
D36*
X0178924Y0170212D03*
X0183024Y0170162D03*
X0187524Y0170162D03*
X0203274Y0176762D03*
X0203274Y0180162D03*
X0197524Y0185862D03*
X0202024Y0194362D03*
X0207744Y0198745D03*
X0207800Y0205337D03*
X0207800Y0214737D03*
X0203769Y0216859D03*
X0197599Y0207373D03*
X0184824Y0198162D03*
X0172624Y0202162D03*
X0167724Y0202262D03*
X0161824Y0202862D03*
X0153424Y0202762D03*
X0139424Y0199262D03*
X0155774Y0181662D03*
X0155874Y0181662D03*
X0154074Y0172762D03*
X0154774Y0168212D03*
X0158174Y0168212D03*
X0162674Y0170162D03*
X0151574Y0155212D03*
X0147674Y0155212D03*
X0178824Y0185562D03*
X0209424Y0170703D03*
X0217674Y0176462D03*
X0220174Y0179262D03*
X0223724Y0176062D03*
X0228400Y0176637D03*
X0225200Y0182937D03*
X0227724Y0185762D03*
X0230950Y0189287D03*
X0234150Y0189287D03*
X0232566Y0182370D03*
X0235824Y0178262D03*
X0235624Y0173962D03*
X0244000Y0167637D03*
X0247624Y0155462D03*
X0226424Y0147712D03*
X0215174Y0152712D03*
X0213000Y0148537D03*
X0224400Y0189287D03*
X0226100Y0195537D03*
X0218724Y0196112D03*
X0218824Y0192612D03*
X0217900Y0206237D03*
X0222900Y0206237D03*
X0230000Y0206487D03*
X0245600Y0201837D03*
X0247700Y0198137D03*
X0250700Y0201937D03*
X0248200Y0205337D03*
X0250469Y0214146D03*
X0235400Y0225537D03*
X0228725Y0226612D03*
X0228700Y0226637D03*
X0223384Y0234633D03*
X0228725Y0243887D03*
X0235266Y0243015D03*
X0204950Y0261387D03*
X0195900Y0236737D03*
X0195900Y0231637D03*
X0251900Y0192337D03*
X0252324Y0189062D03*
X0268424Y0198062D03*
X0270000Y0204837D03*
X0285000Y0203337D03*
X0284883Y0183320D03*
X0273924Y0173962D03*
X0271324Y0176562D03*
X0269500Y0183837D03*
X0286027Y0166984D03*
D37*
X0303506Y0161834D03*
X0307145Y0187392D03*
X0311895Y0195619D03*
X0332545Y0211986D03*
X0319295Y0219636D03*
X0315394Y0218078D03*
X0348506Y0259334D03*
X0322664Y0287029D03*
X0316264Y0298114D03*
X0299156Y0309945D03*
X0299521Y0314313D03*
X0292717Y0300204D03*
X0313291Y0322263D03*
X0308052Y0331765D03*
X0282256Y0361834D03*
X0263534Y0327157D03*
X0235734Y0332207D03*
X0235734Y0335957D03*
X0235734Y0339707D03*
X0230734Y0327207D03*
X0230834Y0323507D03*
X0230834Y0319757D03*
X0230834Y0316007D03*
X0225934Y0313107D03*
X0215534Y0320207D03*
X0213934Y0317007D03*
X0213634Y0313307D03*
X0218134Y0323007D03*
X0217934Y0326807D03*
X0213234Y0332207D03*
X0213234Y0335957D03*
X0213234Y0339707D03*
X0209284Y0345265D03*
X0205584Y0347865D03*
X0205584Y0363065D03*
X0228784Y0354365D03*
X0238184Y0354365D03*
X0178506Y0360584D03*
X0143544Y0316458D03*
X0137994Y0306845D03*
X0138158Y0287929D03*
X0132269Y0283130D03*
X0118326Y0291180D03*
X0110459Y0225223D03*
X0126653Y0216334D03*
X0133403Y0204642D03*
X0146958Y0209737D03*
X0145287Y0193845D03*
X0146006Y0169334D03*
X0140006Y0168984D03*
X0166256Y0170234D03*
X0210406Y0152734D03*
X0226356Y0173134D03*
X0243934Y0153805D03*
X0246356Y0160634D03*
X0244034Y0139106D03*
D38*
X0232566Y0182370D02*
X0230950Y0183986D01*
X0230950Y0189287D01*
X0227724Y0192512D02*
X0227724Y0185762D01*
X0227724Y0192512D02*
X0231624Y0196412D01*
X0231624Y0201024D01*
X0262974Y0195565D02*
X0263002Y0195537D01*
X0267000Y0195537D01*
X0268424Y0196962D01*
X0268424Y0198062D01*
X0270600Y0200237D01*
X0278400Y0200237D01*
X0278700Y0199937D01*
X0278700Y0198651D01*
X0228725Y0243887D02*
X0211225Y0261387D01*
X0204950Y0261387D01*
X0153424Y0202762D02*
X0147931Y0202762D01*
X0145724Y0202752D01*
X0145550Y0202799D01*
X0139424Y0199262D01*
X0155774Y0181662D02*
X0154574Y0180462D01*
X0154574Y0177392D01*
X0154074Y0172762D02*
X0150274Y0172762D01*
X0149474Y0173562D01*
X0146397Y0173562D01*
X0154074Y0172762D02*
X0158374Y0172762D01*
X0159978Y0174365D01*
X0162674Y0174365D01*
X0169674Y0174365D02*
X0173521Y0174365D01*
X0173924Y0173962D01*
X0178796Y0173962D01*
X0178806Y0173972D01*
X0145749Y0159653D02*
X0145749Y0157137D01*
X0147674Y0155212D01*
D39*
X0149974Y0156812D02*
X0149974Y0161312D01*
X0149074Y0162212D01*
X0145749Y0162212D01*
X0143874Y0162212D01*
X0142874Y0163212D01*
X0142874Y0180062D01*
X0143974Y0181162D01*
X0146277Y0181162D01*
X0146337Y0181102D01*
X0146337Y0173622D02*
X0146397Y0173562D01*
X0154574Y0177392D02*
X0154605Y0177362D01*
X0155774Y0181662D02*
X0155874Y0181662D01*
X0162674Y0174365D02*
X0162674Y0170162D01*
X0162674Y0166058D02*
X0162628Y0166012D01*
X0159474Y0166012D01*
X0158174Y0167312D01*
X0158174Y0168212D01*
X0154774Y0168212D02*
X0154699Y0168137D01*
X0154699Y0164771D01*
X0149974Y0156812D02*
X0151574Y0155212D01*
X0179687Y0166452D02*
X0179687Y0166825D01*
X0183024Y0170162D01*
X0178924Y0170212D02*
X0178924Y0173853D01*
X0178806Y0173972D01*
X0178806Y0181452D02*
X0178824Y0181470D01*
X0178824Y0185562D01*
X0172674Y0198164D02*
X0172674Y0202112D01*
X0172624Y0202162D01*
X0167724Y0202262D02*
X0167674Y0202212D01*
X0167674Y0198164D01*
X0146885Y0209466D02*
X0146958Y0209737D01*
X0146885Y0209466D02*
X0133511Y0201744D01*
X0130506Y0202549D01*
X0127042Y0200549D01*
X0124509Y0201228D01*
X0122901Y0204014D01*
X0179687Y0166452D02*
X0182370Y0163769D01*
X0182370Y0149819D01*
X0184929Y0149819D02*
X0184929Y0163820D01*
X0187561Y0166452D01*
X0187561Y0170125D01*
X0187524Y0170162D01*
X0203274Y0176762D02*
X0203974Y0177462D01*
X0211879Y0177462D01*
X0211892Y0177449D01*
X0211892Y0179418D02*
X0211847Y0179462D01*
X0203974Y0179462D01*
X0203274Y0180162D01*
X0211892Y0195166D02*
X0211900Y0195174D01*
X0211900Y0199337D01*
X0207800Y0203437D01*
X0207800Y0205337D01*
X0202650Y0208687D02*
X0197400Y0213937D01*
X0197400Y0230137D01*
X0195900Y0231637D01*
X0198700Y0233937D02*
X0195900Y0236737D01*
X0198700Y0233937D02*
X0198700Y0214437D01*
X0203250Y0209887D01*
X0231600Y0209887D01*
X0235514Y0205974D01*
X0235514Y0201071D01*
X0237482Y0201071D02*
X0237482Y0205855D01*
X0232200Y0211137D01*
X0203800Y0211137D01*
X0200000Y0214937D01*
X0200000Y0267272D01*
X0199969Y0268109D01*
X0200000Y0268091D01*
X0199969Y0268109D02*
X0135710Y0305209D01*
X0134832Y0308487D01*
X0131368Y0310487D01*
X0130736Y0312844D01*
X0132578Y0316034D01*
X0228700Y0226637D02*
X0228725Y0226612D01*
X0228725Y0221408D01*
X0232700Y0217937D02*
X0231700Y0216937D01*
X0231700Y0215837D01*
X0230578Y0214715D01*
X0228725Y0214715D01*
X0228677Y0214667D01*
X0221524Y0214667D01*
X0214325Y0214715D02*
X0207822Y0214715D01*
X0207800Y0214737D01*
X0202650Y0208687D02*
X0231000Y0208687D01*
X0233545Y0206142D01*
X0233545Y0201071D01*
X0231577Y0201071D02*
X0231500Y0201148D01*
X0231500Y0204987D01*
X0230000Y0206487D01*
X0229608Y0201071D02*
X0229608Y0197246D01*
X0227900Y0195537D01*
X0226100Y0195537D01*
X0221100Y0193787D02*
X0218775Y0196112D01*
X0218724Y0196112D01*
X0218774Y0196112D01*
X0221100Y0193787D02*
X0221100Y0183937D01*
X0228400Y0176637D01*
X0233324Y0176062D02*
X0233324Y0172562D01*
X0233524Y0172362D01*
X0233524Y0167628D01*
X0233545Y0167607D01*
X0239424Y0167633D02*
X0239451Y0167607D01*
X0239481Y0167637D01*
X0244000Y0167637D01*
X0235824Y0178262D02*
X0235524Y0178262D01*
X0233324Y0176062D01*
X0225200Y0182937D02*
X0224400Y0183737D01*
X0224400Y0189287D01*
X0218800Y0188837D02*
X0218800Y0184237D01*
X0222400Y0180637D01*
X0222400Y0178337D01*
X0221324Y0177262D01*
X0221324Y0175062D01*
X0221724Y0174662D01*
X0221724Y0167617D01*
X0221734Y0167607D01*
X0213500Y0148537D02*
X0215400Y0146637D01*
X0215400Y0139067D01*
X0215397Y0139064D01*
X0213500Y0148537D02*
X0213000Y0148537D01*
X0218800Y0188837D02*
X0218824Y0192612D01*
X0217797Y0201071D02*
X0217900Y0201174D01*
X0217900Y0206237D01*
X0221734Y0205072D02*
X0222900Y0206237D01*
X0221734Y0205072D02*
X0221734Y0201071D01*
X0235425Y0210712D02*
X0239400Y0206737D01*
X0239400Y0201122D01*
X0239451Y0201071D01*
X0241100Y0197637D02*
X0241100Y0358987D01*
X0239950Y0360137D01*
X0236982Y0363105D01*
X0234752Y0363105D01*
X0241100Y0358987D02*
X0241200Y0358887D01*
X0304909Y0303824D02*
X0242469Y0267774D01*
X0242481Y0267770D01*
X0242493Y0267777D01*
X0242400Y0197137D01*
X0241300Y0196037D01*
X0241300Y0191737D01*
X0241809Y0191229D01*
X0245356Y0191229D01*
X0245356Y0193197D02*
X0249359Y0193197D01*
X0250900Y0194737D01*
X0250900Y0201737D01*
X0250700Y0201937D01*
X0248200Y0198637D02*
X0247700Y0198137D01*
X0248200Y0198637D02*
X0248200Y0205337D01*
X0245600Y0201837D02*
X0245356Y0201394D01*
X0245356Y0195166D01*
X0241100Y0197637D02*
X0239950Y0196487D01*
X0239950Y0190137D01*
X0240827Y0189260D01*
X0245356Y0189260D01*
X0235425Y0210712D02*
X0235425Y0213962D01*
X0235450Y0217937D02*
X0235425Y0217962D01*
X0235401Y0217937D01*
X0232700Y0217937D01*
X0235425Y0217962D02*
X0235425Y0225512D01*
X0235400Y0225537D01*
X0236000Y0228537D02*
X0238300Y0228537D01*
X0239700Y0227137D01*
X0239700Y0218637D01*
X0239000Y0217937D01*
X0235450Y0217937D01*
X0236000Y0228537D02*
X0234500Y0230037D01*
X0234500Y0234780D01*
X0270000Y0204837D02*
X0270100Y0204837D01*
X0271200Y0203737D01*
X0273900Y0203737D01*
X0275100Y0204937D01*
X0283400Y0204937D01*
X0284100Y0205637D01*
X0300467Y0205637D01*
X0300537Y0205656D01*
X0314524Y0197581D01*
X0315695Y0193210D01*
X0318553Y0191560D01*
X0319234Y0189017D01*
X0317570Y0186135D01*
X0327537Y0203447D02*
X0327537Y0203447D01*
X0327570Y0203455D01*
X0327293Y0298092D02*
X0325517Y0301168D01*
X0323446Y0301723D01*
X0320069Y0299773D01*
X0315697Y0300944D01*
X0315684Y0300936D01*
X0304909Y0303824D01*
X0313825Y0313570D02*
X0314448Y0314650D01*
X0317293Y0315412D01*
X0317247Y0315425D02*
X0316607Y0314316D01*
X0313825Y0313570D01*
M02*
