G75*
%MOIN*%
%OFA0B0*%
%FSLAX25Y25*%
%IPPOS*%
%LPD*%
%AMOC8*
5,1,8,0,0,1.08239X$1,22.5*
%
%ADD10C,0.00000*%
%ADD11C,0.00600*%
%ADD12C,0.00300*%
%ADD13C,0.00500*%
D10*
X0156177Y0131750D02*
X0294617Y0131378D01*
X0363514Y0250712D01*
X0293972Y0370419D01*
X0155532Y0370791D01*
X0086634Y0251457D01*
X0156177Y0131750D01*
D11*
X0274237Y0174047D02*
X0294837Y0174047D01*
X0294837Y0214347D01*
X0274237Y0214347D01*
X0274237Y0174047D01*
X0276637Y0203997D02*
X0291837Y0203997D01*
X0227125Y0314362D02*
X0222125Y0314362D01*
X0219625Y0316862D01*
X0219625Y0321862D01*
X0222125Y0324362D01*
X0227125Y0324362D01*
X0229625Y0321862D01*
X0229625Y0316862D01*
X0227125Y0314362D01*
D12*
X0226829Y0326712D02*
X0226829Y0329614D01*
X0225378Y0329614D01*
X0224894Y0329130D01*
X0224894Y0328163D01*
X0225378Y0327679D01*
X0226829Y0327679D01*
X0228324Y0327195D02*
X0228324Y0329614D01*
X0228808Y0329614D02*
X0227840Y0329614D01*
X0228324Y0327195D02*
X0228808Y0326712D01*
X0229292Y0326712D01*
X0229775Y0327195D01*
X0223882Y0326712D02*
X0221947Y0328647D01*
X0221947Y0329130D01*
X0222431Y0329614D01*
X0223399Y0329614D01*
X0223882Y0329130D01*
X0223882Y0326712D02*
X0221947Y0326712D01*
X0245140Y0294771D02*
X0246107Y0294771D01*
X0246591Y0294287D01*
X0247602Y0294771D02*
X0247602Y0292352D01*
X0248086Y0291869D01*
X0249054Y0291869D01*
X0249537Y0292352D01*
X0249537Y0294771D01*
X0246591Y0291869D02*
X0244656Y0293804D01*
X0244656Y0294287D01*
X0245140Y0294771D01*
X0244656Y0291869D02*
X0246591Y0291869D01*
X0274825Y0277668D02*
X0274825Y0276700D01*
X0275309Y0276217D01*
X0276277Y0276217D01*
X0276277Y0277668D01*
X0275793Y0278152D01*
X0275309Y0278152D01*
X0274825Y0277668D01*
X0276277Y0276217D02*
X0277244Y0277184D01*
X0277728Y0278152D01*
X0277244Y0275205D02*
X0276277Y0275205D01*
X0275793Y0274721D01*
X0275793Y0273270D01*
X0275793Y0274238D02*
X0274825Y0275205D01*
X0274825Y0273270D02*
X0277728Y0273270D01*
X0277728Y0274721D01*
X0277244Y0275205D01*
X0278287Y0222578D02*
X0281190Y0220643D01*
X0281190Y0219632D02*
X0281190Y0217697D01*
X0281190Y0218664D02*
X0278287Y0218664D01*
X0278287Y0220643D02*
X0281190Y0222578D01*
X0288287Y0222578D02*
X0291190Y0220643D01*
X0290706Y0219632D02*
X0289738Y0219632D01*
X0289255Y0219148D01*
X0289255Y0217697D01*
X0289255Y0218664D02*
X0288287Y0219632D01*
X0288287Y0220643D02*
X0291190Y0222578D01*
X0290706Y0219632D02*
X0291190Y0219148D01*
X0291190Y0217697D01*
X0288287Y0217697D01*
X0273860Y0192537D02*
X0274344Y0192053D01*
X0274344Y0191085D01*
X0273860Y0190602D01*
X0274344Y0189590D02*
X0274344Y0188623D01*
X0274344Y0189106D02*
X0271925Y0189106D01*
X0271441Y0188623D01*
X0271441Y0188139D01*
X0271925Y0187655D01*
X0271925Y0186643D02*
X0271441Y0186160D01*
X0271441Y0185192D01*
X0271925Y0184709D01*
X0272892Y0185192D02*
X0272892Y0186160D01*
X0272409Y0186643D01*
X0271925Y0186643D01*
X0272892Y0185192D02*
X0273376Y0184709D01*
X0273860Y0184709D01*
X0274344Y0185192D01*
X0274344Y0186160D01*
X0273860Y0186643D01*
X0271441Y0190602D02*
X0273376Y0192537D01*
X0273860Y0192537D01*
X0271441Y0192537D02*
X0271441Y0190602D01*
X0190677Y0186152D02*
X0187774Y0186152D01*
X0187774Y0185185D02*
X0187774Y0187120D01*
X0189709Y0185185D02*
X0190677Y0186152D01*
X0190677Y0184173D02*
X0190677Y0183206D01*
X0190677Y0183690D02*
X0188258Y0183690D01*
X0187774Y0183206D01*
X0187774Y0182722D01*
X0188258Y0182238D01*
X0188258Y0181227D02*
X0187774Y0180743D01*
X0187774Y0179776D01*
X0188258Y0179292D01*
X0189225Y0179776D02*
X0189225Y0180743D01*
X0188742Y0181227D01*
X0188258Y0181227D01*
X0189225Y0179776D02*
X0189709Y0179292D01*
X0190193Y0179292D01*
X0190677Y0179776D01*
X0190677Y0180743D01*
X0190193Y0181227D01*
X0172968Y0259631D02*
X0171033Y0259631D01*
X0170549Y0260114D01*
X0170549Y0261082D01*
X0171033Y0261566D01*
X0170549Y0262577D02*
X0170549Y0264512D01*
X0170549Y0263545D02*
X0173452Y0263545D01*
X0172484Y0262577D01*
X0172968Y0261566D02*
X0173452Y0261082D01*
X0173452Y0260114D01*
X0172968Y0259631D01*
X0173452Y0265524D02*
X0173452Y0267459D01*
X0172968Y0267459D01*
X0171033Y0265524D01*
X0170549Y0265524D01*
X0170808Y0269712D02*
X0170324Y0270196D01*
X0170324Y0271163D01*
X0170808Y0271647D01*
X0170324Y0272658D02*
X0170324Y0274593D01*
X0170324Y0273626D02*
X0173226Y0273626D01*
X0172259Y0272658D01*
X0172743Y0271647D02*
X0173226Y0271163D01*
X0173226Y0270196D01*
X0172743Y0269712D01*
X0170808Y0269712D01*
X0170808Y0275605D02*
X0170324Y0276089D01*
X0170324Y0277056D01*
X0170808Y0277540D01*
X0171291Y0277540D01*
X0171775Y0277056D01*
X0171775Y0275605D01*
X0170808Y0275605D01*
X0171775Y0275605D02*
X0172743Y0276572D01*
X0173226Y0277540D01*
D13*
X0189609Y0306719D02*
X0259687Y0306719D01*
X0232506Y0330008D02*
X0232506Y0330795D01*
X0227387Y0330795D01*
X0227387Y0330008D01*
X0232506Y0330008D01*
X0232506Y0330401D02*
X0227387Y0330401D01*
X0221876Y0330401D02*
X0216757Y0330401D01*
X0216757Y0330008D02*
X0216757Y0330795D01*
X0216757Y0341031D01*
X0221876Y0341031D01*
X0227387Y0341031D02*
X0232506Y0341031D01*
X0232506Y0330795D01*
X0221876Y0330795D02*
X0221876Y0330008D01*
X0216757Y0330008D01*
X0216757Y0330795D02*
X0221876Y0330795D01*
X0189609Y0201719D02*
X0259687Y0201719D01*
M02*
