G75*
%MOIN*%
%OFA0B0*%
%FSLAX25Y25*%
%IPPOS*%
%LPD*%
%AMOC8*
5,1,8,0,0,1.08239X$1,22.5*
%
%ADD10C,0.00000*%
%ADD11R,0.05906X0.05118*%
%ADD12R,0.03937X0.04331*%
%ADD13OC8,0.06000*%
%ADD14R,0.05000X0.10000*%
%ADD15R,0.10000X0.05000*%
%ADD16R,0.04331X0.03937*%
%ADD17C,0.00800*%
%ADD18R,0.05000X0.02500*%
%ADD19C,0.05000*%
%ADD20R,0.06000X0.04000*%
%ADD21R,0.04000X0.06000*%
%ADD22R,0.07000X0.07000*%
%ADD23C,0.04724*%
%ADD24R,0.03346X0.08661*%
%ADD25R,0.03937X0.04134*%
%ADD26OC8,0.02400*%
%ADD27C,0.01600*%
%ADD28C,0.01000*%
%ADD29OC8,0.02381*%
%ADD30C,0.01200*%
%ADD31C,0.00600*%
%ADD32C,0.06063*%
%ADD33C,0.04000*%
D10*
X0156177Y0131750D02*
X0294617Y0131378D01*
X0363514Y0250712D01*
X0293972Y0370419D01*
X0155532Y0370791D01*
X0086634Y0251457D01*
X0156177Y0131750D01*
D11*
X0179174Y0265922D03*
X0179174Y0273402D03*
D12*
X0179875Y0258260D03*
X0179875Y0251567D03*
D13*
X0224625Y0319362D03*
D14*
X0224752Y0363105D03*
X0234752Y0363105D03*
X0214752Y0363105D03*
X0215397Y0139064D03*
X0225397Y0139064D03*
X0235397Y0139064D03*
D15*
G36*
X0314490Y0190800D02*
X0323150Y0185801D01*
X0320650Y0181470D01*
X0311990Y0186469D01*
X0314490Y0190800D01*
G37*
G36*
X0319490Y0199460D02*
X0328150Y0194461D01*
X0325650Y0190130D01*
X0316990Y0195129D01*
X0319490Y0199460D01*
G37*
G36*
X0324490Y0208120D02*
X0333150Y0203121D01*
X0330650Y0198790D01*
X0321990Y0203789D01*
X0324490Y0208120D01*
G37*
G36*
X0321713Y0297758D02*
X0330373Y0302757D01*
X0332873Y0298426D01*
X0324213Y0293427D01*
X0321713Y0297758D01*
G37*
G36*
X0316713Y0306418D02*
X0325373Y0311417D01*
X0327873Y0307086D01*
X0319213Y0302087D01*
X0316713Y0306418D01*
G37*
G36*
X0311713Y0315078D02*
X0320373Y0320077D01*
X0322873Y0315746D01*
X0314213Y0310747D01*
X0311713Y0315078D01*
G37*
G36*
X0135658Y0311369D02*
X0126998Y0316368D01*
X0129498Y0320699D01*
X0138158Y0315700D01*
X0135658Y0311369D01*
G37*
G36*
X0130658Y0302709D02*
X0121998Y0307708D01*
X0124498Y0312039D01*
X0133158Y0307040D01*
X0130658Y0302709D01*
G37*
G36*
X0125658Y0294049D02*
X0116998Y0299048D01*
X0119498Y0303379D01*
X0128158Y0298380D01*
X0125658Y0294049D01*
G37*
G36*
X0128481Y0204348D02*
X0119821Y0199349D01*
X0117321Y0203680D01*
X0125981Y0208679D01*
X0128481Y0204348D01*
G37*
G36*
X0133481Y0195688D02*
X0124821Y0190689D01*
X0122321Y0195020D01*
X0130981Y0200019D01*
X0133481Y0195688D01*
G37*
G36*
X0138481Y0187027D02*
X0129821Y0182028D01*
X0127321Y0186359D01*
X0135981Y0191358D01*
X0138481Y0187027D01*
G37*
D16*
X0269875Y0275067D03*
X0269875Y0281760D03*
D17*
X0267791Y0190478D02*
X0267791Y0187478D01*
X0184124Y0185062D02*
X0184124Y0182062D01*
D18*
X0184124Y0181562D03*
X0184124Y0185562D03*
X0267791Y0186978D03*
X0267791Y0190978D03*
D19*
X0279725Y0188962D03*
X0279725Y0198962D03*
X0279700Y0208887D03*
X0289700Y0208887D03*
X0289725Y0198962D03*
X0289725Y0188962D03*
X0289725Y0178962D03*
X0279725Y0178962D03*
D20*
X0259687Y0206719D03*
X0259687Y0211719D03*
X0259687Y0216719D03*
X0259687Y0221719D03*
X0259687Y0226719D03*
X0259687Y0231719D03*
X0259687Y0236719D03*
X0259687Y0241719D03*
X0259687Y0246719D03*
X0259687Y0251719D03*
X0259687Y0256719D03*
X0259687Y0261719D03*
X0259687Y0266719D03*
X0259687Y0271719D03*
X0259687Y0276719D03*
X0259687Y0281719D03*
X0259687Y0286719D03*
X0259687Y0291719D03*
X0259687Y0296719D03*
X0259687Y0301719D03*
X0189687Y0301719D03*
X0189687Y0296719D03*
X0189687Y0291719D03*
X0189687Y0286719D03*
X0189687Y0281719D03*
X0189687Y0276719D03*
X0189687Y0271719D03*
X0189687Y0266719D03*
X0189687Y0261719D03*
X0189687Y0256719D03*
X0189687Y0251719D03*
X0189687Y0246719D03*
X0189687Y0241719D03*
X0189687Y0236719D03*
X0189687Y0231719D03*
X0189687Y0226719D03*
X0189687Y0221719D03*
X0189687Y0216719D03*
X0189687Y0211719D03*
X0189687Y0206719D03*
D21*
X0209687Y0306719D03*
X0214687Y0306719D03*
X0219687Y0306719D03*
X0224687Y0306719D03*
X0229687Y0306719D03*
X0234687Y0306719D03*
X0239687Y0306719D03*
D22*
X0195658Y0138402D03*
X0174201Y0138402D03*
D23*
X0175382Y0150331D03*
X0194477Y0150331D03*
D24*
X0219218Y0335913D03*
X0230045Y0335913D03*
D25*
X0224632Y0329909D03*
X0224632Y0341917D03*
D26*
X0204950Y0261387D03*
X0195900Y0236737D03*
X0195900Y0231637D03*
X0203769Y0216859D03*
X0207800Y0214737D03*
X0207800Y0205337D03*
X0207744Y0198745D03*
X0202024Y0194362D03*
X0197524Y0185862D03*
X0203274Y0180162D03*
X0203274Y0176762D03*
X0209424Y0170703D03*
X0217674Y0176462D03*
X0220174Y0179262D03*
X0223724Y0176062D03*
X0228400Y0176637D03*
X0225200Y0182937D03*
X0227724Y0185762D03*
X0230950Y0189287D03*
X0234150Y0189287D03*
X0232566Y0182370D03*
X0235824Y0178262D03*
X0235624Y0173962D03*
X0244000Y0167637D03*
X0247624Y0155462D03*
X0226424Y0147712D03*
X0215174Y0152712D03*
X0213000Y0148537D03*
X0187524Y0170162D03*
X0183024Y0170162D03*
X0178924Y0170212D03*
X0178824Y0185562D03*
X0184824Y0198162D03*
X0172624Y0202162D03*
X0167724Y0202262D03*
X0161824Y0202862D03*
X0153424Y0202762D03*
X0139424Y0199262D03*
X0155774Y0181662D03*
X0155874Y0181662D03*
X0154074Y0172762D03*
X0154774Y0168212D03*
X0158174Y0168212D03*
X0162674Y0170162D03*
X0151574Y0155212D03*
X0147674Y0155212D03*
X0197599Y0207373D03*
X0217900Y0206237D03*
X0222900Y0206237D03*
X0230000Y0206487D03*
X0218724Y0196112D03*
X0218824Y0192612D03*
X0224400Y0189287D03*
X0226100Y0195537D03*
X0245600Y0201837D03*
X0247700Y0198137D03*
X0250700Y0201937D03*
X0248200Y0205337D03*
X0250469Y0214146D03*
X0235400Y0225537D03*
X0228725Y0226612D03*
X0228700Y0226637D03*
X0223384Y0234633D03*
X0228725Y0243887D03*
X0235266Y0243015D03*
X0270000Y0204837D03*
X0268424Y0198062D03*
X0269500Y0183837D03*
X0271324Y0176562D03*
X0273924Y0173962D03*
X0286027Y0166984D03*
X0284883Y0183320D03*
X0285000Y0203337D03*
X0251900Y0192337D03*
X0252324Y0189062D03*
D27*
X0252374Y0189062D01*
X0255674Y0185762D01*
X0227724Y0185762D01*
X0197624Y0185762D01*
X0197524Y0185862D01*
X0203924Y0185862D01*
X0206424Y0183362D01*
X0206424Y0172712D01*
X0208433Y0170703D01*
X0209424Y0170703D01*
X0255674Y0185762D02*
X0260316Y0181120D01*
X0260317Y0181120D01*
X0261700Y0179737D01*
X0273600Y0179737D01*
X0274400Y0178937D01*
X0279701Y0178937D01*
X0279725Y0178962D01*
X0279725Y0179062D01*
D28*
X0171931Y0148570D02*
X0148140Y0148570D01*
X0147560Y0149569D02*
X0171596Y0149569D01*
X0171668Y0149205D02*
X0171959Y0148502D01*
X0172382Y0147869D01*
X0172920Y0147331D01*
X0173553Y0146908D01*
X0174256Y0146617D01*
X0175002Y0146469D01*
X0175292Y0146469D01*
X0175292Y0150240D01*
X0175473Y0150240D01*
X0175473Y0146469D01*
X0175762Y0146469D01*
X0176509Y0146617D01*
X0177212Y0146908D01*
X0177844Y0147331D01*
X0178382Y0147869D01*
X0178805Y0148502D01*
X0179096Y0149205D01*
X0179244Y0149951D01*
X0179244Y0150241D01*
X0175473Y0150241D01*
X0175473Y0150422D01*
X0179244Y0150422D01*
X0179244Y0150712D01*
X0179096Y0151458D01*
X0178805Y0152161D01*
X0178382Y0152793D01*
X0177844Y0153331D01*
X0177212Y0153754D01*
X0176509Y0154045D01*
X0175762Y0154193D01*
X0175473Y0154193D01*
X0175473Y0150422D01*
X0175292Y0150422D01*
X0175292Y0154193D01*
X0175002Y0154193D01*
X0174256Y0154045D01*
X0173553Y0153754D01*
X0172920Y0153331D01*
X0172382Y0152793D01*
X0171959Y0152161D01*
X0171668Y0151458D01*
X0171520Y0150712D01*
X0171520Y0150422D01*
X0175291Y0150422D01*
X0175291Y0150241D01*
X0171520Y0150241D01*
X0171520Y0149951D01*
X0171668Y0149205D01*
X0171520Y0150567D02*
X0146980Y0150567D01*
X0146400Y0151566D02*
X0171713Y0151566D01*
X0172229Y0152564D02*
X0145820Y0152564D01*
X0146721Y0152912D02*
X0148627Y0152912D01*
X0149624Y0153909D01*
X0150621Y0152912D01*
X0152527Y0152912D01*
X0153874Y0154259D01*
X0153874Y0156164D01*
X0152974Y0157064D01*
X0152974Y0161032D01*
X0157854Y0165912D01*
X0159127Y0165912D01*
X0160474Y0167259D01*
X0160474Y0169109D01*
X0161721Y0167862D01*
X0163627Y0167862D01*
X0164974Y0169209D01*
X0164974Y0170879D01*
X0178396Y0183262D01*
X0179777Y0183262D01*
X0180524Y0184009D01*
X0180524Y0183856D01*
X0180818Y0183562D01*
X0180524Y0183267D01*
X0180524Y0179856D01*
X0181168Y0179212D01*
X0182724Y0179212D01*
X0182724Y0175992D01*
X0179244Y0172512D01*
X0177971Y0172512D01*
X0176624Y0171164D01*
X0176624Y0169259D01*
X0177971Y0167912D01*
X0179877Y0167912D01*
X0180949Y0168984D01*
X0182071Y0167862D01*
X0183977Y0167862D01*
X0185274Y0169159D01*
X0186571Y0167862D01*
X0188477Y0167862D01*
X0189824Y0169209D01*
X0189824Y0170682D01*
X0194504Y0175362D01*
X0201421Y0175362D01*
X0202321Y0174462D01*
X0204227Y0174462D01*
X0204524Y0174759D01*
X0204524Y0173499D01*
X0204524Y0173499D01*
X0204524Y0172629D01*
X0204524Y0171925D01*
X0204524Y0171925D01*
X0204524Y0171925D01*
X0204976Y0171473D01*
X0205637Y0170812D01*
X0207325Y0169123D01*
X0207646Y0168803D01*
X0208071Y0168803D01*
X0208471Y0168403D01*
X0210377Y0168403D01*
X0211724Y0169751D01*
X0211724Y0171656D01*
X0210377Y0173003D01*
X0208820Y0173003D01*
X0208324Y0173499D01*
X0208324Y0182575D01*
X0208324Y0183862D01*
X0219843Y0183862D01*
X0214827Y0178937D01*
X0214820Y0178937D01*
X0214414Y0178532D01*
X0214005Y0178130D01*
X0214005Y0178123D01*
X0214000Y0178117D01*
X0214000Y0177544D01*
X0213994Y0176970D01*
X0214000Y0176965D01*
X0214000Y0156617D01*
X0212420Y0155037D01*
X0211600Y0154217D01*
X0211600Y0150390D01*
X0210700Y0149490D01*
X0210700Y0147585D01*
X0212047Y0146237D01*
X0213834Y0146237D01*
X0213834Y0145164D01*
X0212441Y0145164D01*
X0211797Y0144520D01*
X0211797Y0133609D01*
X0212306Y0133099D01*
X0157041Y0133248D01*
X0129280Y0181034D01*
X0129976Y0180848D01*
X0139425Y0186303D01*
X0139661Y0187184D01*
X0139037Y0188265D01*
X0141243Y0189538D01*
X0142353Y0190180D01*
X0142390Y0190201D01*
X0142734Y0191481D01*
X0142733Y0191481D01*
X0143088Y0192804D01*
X0144338Y0191554D01*
X0146236Y0191554D01*
X0147577Y0192896D01*
X0147577Y0194793D01*
X0146236Y0196135D01*
X0146030Y0196135D01*
X0146794Y0198984D01*
X0146805Y0199029D01*
X0116755Y0251078D01*
X0132639Y0278572D01*
X0134280Y0279011D01*
X0134962Y0279194D01*
X0135135Y0279494D01*
X0138683Y0285639D01*
X0139106Y0285639D01*
X0140448Y0286980D01*
X0140448Y0288878D01*
X0139245Y0290081D01*
X0170668Y0344507D01*
X0197512Y0345311D01*
X0202174Y0345311D01*
X0202884Y0344602D01*
X0202884Y0344602D01*
X0203821Y0343665D01*
X0205147Y0343665D01*
X0207645Y0343665D01*
X0208335Y0342974D01*
X0210233Y0342974D01*
X0210923Y0343665D01*
X0211121Y0343665D01*
X0211121Y0343665D01*
X0211500Y0343665D01*
X0212447Y0343665D01*
X0212830Y0344048D01*
X0213384Y0344602D01*
X0214042Y0345260D01*
X0278725Y0344791D01*
X0295576Y0315605D01*
X0295432Y0315070D01*
X0295278Y0314494D01*
X0295089Y0313790D01*
X0295089Y0313790D01*
X0295089Y0313790D01*
X0295429Y0313201D01*
X0295752Y0312642D01*
X0296866Y0310713D01*
X0296866Y0308996D01*
X0298207Y0307655D01*
X0298622Y0307655D01*
X0298926Y0307144D01*
X0299252Y0306579D01*
X0299264Y0306576D01*
X0299271Y0306565D01*
X0299903Y0306405D01*
X0300532Y0306236D01*
X0300543Y0306243D01*
X0301083Y0306106D01*
X0322816Y0268296D01*
X0322815Y0268294D01*
X0323146Y0267721D01*
X0323475Y0267148D01*
X0323477Y0267147D01*
X0333447Y0249879D01*
X0329940Y0243780D01*
X0318379Y0223756D01*
X0317820Y0223606D01*
X0316539Y0223263D01*
X0316067Y0222444D01*
X0315877Y0222115D01*
X0314868Y0220369D01*
X0314445Y0220369D01*
X0313103Y0219027D01*
X0313103Y0217311D01*
X0312283Y0215891D01*
X0312270Y0215887D01*
X0311952Y0215318D01*
X0311627Y0214754D01*
X0311630Y0214741D01*
X0311624Y0214730D01*
X0311801Y0214103D01*
X0311970Y0213473D01*
X0263787Y0213473D01*
X0263787Y0214174D02*
X0263743Y0214219D01*
X0263787Y0214263D01*
X0263787Y0219174D01*
X0263743Y0219219D01*
X0263787Y0219263D01*
X0263787Y0224174D01*
X0263743Y0224219D01*
X0263787Y0224263D01*
X0263787Y0229174D01*
X0263743Y0229219D01*
X0263787Y0229263D01*
X0263787Y0233697D01*
X0263888Y0233798D01*
X0264085Y0234140D01*
X0264187Y0234521D01*
X0264187Y0236219D01*
X0260187Y0236219D01*
X0260187Y0237219D01*
X0264187Y0237219D01*
X0264187Y0238916D01*
X0264085Y0239298D01*
X0263888Y0239640D01*
X0263787Y0239740D01*
X0263787Y0244174D01*
X0263743Y0244219D01*
X0263787Y0244263D01*
X0263787Y0249174D01*
X0263743Y0249219D01*
X0263787Y0249263D01*
X0263787Y0254174D01*
X0263743Y0254219D01*
X0263787Y0254263D01*
X0263787Y0259174D01*
X0263743Y0259219D01*
X0263787Y0259263D01*
X0263787Y0264174D01*
X0263743Y0264219D01*
X0263787Y0264263D01*
X0263787Y0269174D01*
X0263743Y0269219D01*
X0263787Y0269263D01*
X0263787Y0269937D01*
X0267996Y0269937D01*
X0269404Y0269937D01*
X0270400Y0270933D01*
X0271465Y0271998D01*
X0272496Y0271998D01*
X0273141Y0272643D01*
X0273141Y0277491D01*
X0272496Y0278135D01*
X0267254Y0278135D01*
X0266610Y0277491D01*
X0266610Y0273337D01*
X0263787Y0273337D01*
X0263787Y0273697D01*
X0263888Y0273798D01*
X0264085Y0274140D01*
X0264187Y0274521D01*
X0264187Y0276219D01*
X0260187Y0276219D01*
X0260187Y0277219D01*
X0264187Y0277219D01*
X0264187Y0278916D01*
X0264085Y0279298D01*
X0263888Y0279640D01*
X0263787Y0279740D01*
X0263787Y0280019D01*
X0266610Y0280019D01*
X0266610Y0279335D01*
X0267254Y0278691D01*
X0272496Y0278691D01*
X0273141Y0279335D01*
X0273141Y0284184D01*
X0272496Y0284828D01*
X0267254Y0284828D01*
X0266610Y0284184D01*
X0266610Y0283419D01*
X0263787Y0283419D01*
X0263787Y0284174D01*
X0263743Y0284219D01*
X0263787Y0284263D01*
X0263787Y0289174D01*
X0263743Y0289219D01*
X0263787Y0289263D01*
X0263787Y0294174D01*
X0263743Y0294219D01*
X0263787Y0294263D01*
X0263787Y0298697D01*
X0263888Y0298798D01*
X0264085Y0299140D01*
X0264187Y0299521D01*
X0264187Y0301219D01*
X0260187Y0301219D01*
X0260187Y0302219D01*
X0259187Y0302219D01*
X0259187Y0301219D01*
X0255187Y0301219D01*
X0255187Y0299521D01*
X0255290Y0299140D01*
X0255487Y0298798D01*
X0255587Y0298697D01*
X0255587Y0294263D01*
X0255632Y0294219D01*
X0255587Y0294174D01*
X0255587Y0289263D01*
X0255632Y0289219D01*
X0255587Y0289174D01*
X0255587Y0284263D01*
X0255632Y0284219D01*
X0255587Y0284174D01*
X0255587Y0283119D01*
X0237201Y0283119D01*
X0216870Y0262787D01*
X0216870Y0262787D01*
X0216050Y0261967D01*
X0216050Y0207640D01*
X0215600Y0207190D01*
X0215600Y0205285D01*
X0216783Y0204101D01*
X0216720Y0204037D01*
X0209752Y0204037D01*
X0210100Y0204385D01*
X0210100Y0206290D01*
X0209200Y0207190D01*
X0209200Y0212885D01*
X0210100Y0213785D01*
X0210100Y0215690D01*
X0208752Y0217037D01*
X0206847Y0217037D01*
X0205500Y0215690D01*
X0205500Y0213785D01*
X0206400Y0212885D01*
X0206400Y0207190D01*
X0205500Y0206290D01*
X0205500Y0204385D01*
X0205847Y0204037D01*
X0194026Y0204037D01*
X0194085Y0204140D01*
X0194187Y0204521D01*
X0194187Y0206219D01*
X0190187Y0206219D01*
X0190187Y0207219D01*
X0194187Y0207219D01*
X0194187Y0208916D01*
X0194085Y0209298D01*
X0193888Y0209640D01*
X0193787Y0209740D01*
X0193787Y0214174D01*
X0193743Y0214219D01*
X0193787Y0214263D01*
X0193787Y0219174D01*
X0193743Y0219219D01*
X0193787Y0219263D01*
X0193787Y0224174D01*
X0193743Y0224219D01*
X0193787Y0224263D01*
X0193787Y0229174D01*
X0193743Y0229219D01*
X0193787Y0229263D01*
X0193787Y0230237D01*
X0194047Y0230237D01*
X0194947Y0229337D01*
X0196852Y0229337D01*
X0198200Y0230685D01*
X0198200Y0232590D01*
X0196852Y0233937D01*
X0194947Y0233937D01*
X0194047Y0233037D01*
X0193787Y0233037D01*
X0193787Y0234174D01*
X0193743Y0234219D01*
X0193787Y0234263D01*
X0193787Y0235337D01*
X0194047Y0235337D01*
X0194947Y0234437D01*
X0196852Y0234437D01*
X0198200Y0235785D01*
X0198200Y0237690D01*
X0196852Y0239037D01*
X0194947Y0239037D01*
X0194047Y0238137D01*
X0193787Y0238137D01*
X0193787Y0238697D01*
X0193888Y0238798D01*
X0194085Y0239140D01*
X0194187Y0239521D01*
X0194187Y0241219D01*
X0190187Y0241219D01*
X0190187Y0242219D01*
X0194187Y0242219D01*
X0194187Y0243916D01*
X0194085Y0244298D01*
X0193888Y0244640D01*
X0193787Y0244740D01*
X0193787Y0249174D01*
X0193743Y0249219D01*
X0193787Y0249263D01*
X0193787Y0253697D01*
X0193888Y0253798D01*
X0194085Y0254140D01*
X0194187Y0254521D01*
X0194187Y0256219D01*
X0190187Y0256219D01*
X0190187Y0257219D01*
X0194187Y0257219D01*
X0194187Y0258916D01*
X0194085Y0259298D01*
X0194059Y0259343D01*
X0194150Y0259433D01*
X0194150Y0259687D01*
X0203397Y0259687D01*
X0203997Y0259087D01*
X0205902Y0259087D01*
X0207250Y0260435D01*
X0207250Y0262340D01*
X0205902Y0263687D01*
X0203997Y0263687D01*
X0203397Y0263087D01*
X0194150Y0263087D01*
X0194150Y0264592D01*
X0193787Y0264954D01*
X0193787Y0269174D01*
X0193743Y0269219D01*
X0193787Y0269263D01*
X0193787Y0274174D01*
X0193743Y0274219D01*
X0193787Y0274263D01*
X0193787Y0279174D01*
X0193743Y0279219D01*
X0193787Y0279263D01*
X0193787Y0284174D01*
X0193743Y0284219D01*
X0193787Y0284263D01*
X0193787Y0289174D01*
X0193743Y0289219D01*
X0193787Y0289263D01*
X0193787Y0294174D01*
X0193743Y0294219D01*
X0193787Y0294263D01*
X0193787Y0298697D01*
X0193888Y0298798D01*
X0194085Y0299140D01*
X0194187Y0299521D01*
X0194187Y0301219D01*
X0190187Y0301219D01*
X0190187Y0302219D01*
X0189187Y0302219D01*
X0189187Y0301219D01*
X0185187Y0301219D01*
X0185187Y0299521D01*
X0185290Y0299140D01*
X0185487Y0298798D01*
X0185587Y0298697D01*
X0185587Y0294263D01*
X0185632Y0294219D01*
X0185587Y0294174D01*
X0185587Y0289263D01*
X0185632Y0289219D01*
X0185587Y0289174D01*
X0185587Y0284263D01*
X0185632Y0284219D01*
X0185587Y0284174D01*
X0185587Y0279263D01*
X0185632Y0279219D01*
X0185587Y0279174D01*
X0185587Y0274263D01*
X0185632Y0274219D01*
X0185587Y0274174D01*
X0185587Y0269263D01*
X0185632Y0269219D01*
X0185587Y0269174D01*
X0185587Y0266904D01*
X0183802Y0268689D01*
X0183154Y0269337D01*
X0182826Y0269337D01*
X0182713Y0269450D01*
X0183048Y0269643D01*
X0183327Y0269922D01*
X0183524Y0270264D01*
X0183627Y0270645D01*
X0183627Y0272902D01*
X0179674Y0272902D01*
X0179674Y0273902D01*
X0183627Y0273902D01*
X0183627Y0276159D01*
X0183524Y0276540D01*
X0183327Y0276882D01*
X0183048Y0277161D01*
X0182706Y0277359D01*
X0182324Y0277461D01*
X0179674Y0277461D01*
X0179674Y0273902D01*
X0178674Y0273902D01*
X0178674Y0277461D01*
X0176024Y0277461D01*
X0175642Y0277359D01*
X0175300Y0277161D01*
X0175021Y0276882D01*
X0174823Y0276540D01*
X0174721Y0276159D01*
X0174721Y0273902D01*
X0178674Y0273902D01*
X0178674Y0272902D01*
X0174721Y0272902D01*
X0174721Y0270645D01*
X0174823Y0270264D01*
X0175021Y0269922D01*
X0175300Y0269643D01*
X0175634Y0269450D01*
X0175121Y0268936D01*
X0175121Y0262907D01*
X0175750Y0262279D01*
X0175750Y0258342D01*
X0175750Y0256933D01*
X0176746Y0255937D01*
X0176807Y0255937D01*
X0176807Y0255639D01*
X0177320Y0255125D01*
X0176986Y0254932D01*
X0176707Y0254653D01*
X0176509Y0254311D01*
X0176407Y0253930D01*
X0176407Y0252051D01*
X0179391Y0252051D01*
X0179391Y0251082D01*
X0180360Y0251082D01*
X0180360Y0247901D01*
X0182041Y0247901D01*
X0182423Y0248004D01*
X0182765Y0248201D01*
X0183044Y0248480D01*
X0183242Y0248822D01*
X0183344Y0249204D01*
X0183344Y0251082D01*
X0180360Y0251082D01*
X0180360Y0252051D01*
X0183344Y0252051D01*
X0183344Y0253930D01*
X0183242Y0254311D01*
X0183044Y0254653D01*
X0182765Y0254932D01*
X0182431Y0255125D01*
X0182944Y0255639D01*
X0182944Y0255937D01*
X0184404Y0255937D01*
X0185189Y0256723D01*
X0185685Y0257219D01*
X0189187Y0257219D01*
X0189187Y0256219D01*
X0185187Y0256219D01*
X0185187Y0254521D01*
X0185290Y0254140D01*
X0185487Y0253798D01*
X0185587Y0253697D01*
X0185587Y0249263D01*
X0185632Y0249219D01*
X0185587Y0249174D01*
X0185587Y0244740D01*
X0185487Y0244640D01*
X0185290Y0244298D01*
X0185187Y0243916D01*
X0185187Y0242219D01*
X0189187Y0242219D01*
X0189187Y0241219D01*
X0185187Y0241219D01*
X0185187Y0239521D01*
X0185290Y0239140D01*
X0185487Y0238798D01*
X0185587Y0238697D01*
X0185587Y0234263D01*
X0185632Y0234219D01*
X0185587Y0234174D01*
X0185587Y0229263D01*
X0185632Y0229219D01*
X0185587Y0229174D01*
X0185587Y0224263D01*
X0185632Y0224219D01*
X0185587Y0224174D01*
X0185587Y0219263D01*
X0185632Y0219219D01*
X0185587Y0219174D01*
X0185587Y0214263D01*
X0185632Y0214219D01*
X0185587Y0214174D01*
X0185587Y0209740D01*
X0185487Y0209640D01*
X0185290Y0209298D01*
X0185187Y0208916D01*
X0185187Y0207219D01*
X0189187Y0207219D01*
X0189187Y0206219D01*
X0185187Y0206219D01*
X0185187Y0204521D01*
X0185290Y0204140D01*
X0185349Y0204037D01*
X0175980Y0204037D01*
X0169700Y0210317D01*
X0168880Y0211137D01*
X0167720Y0211137D01*
X0148797Y0211137D01*
X0147907Y0212028D01*
X0146009Y0212028D01*
X0144667Y0210686D01*
X0144667Y0208789D01*
X0146009Y0207447D01*
X0147907Y0207447D01*
X0148797Y0208337D01*
X0167720Y0208337D01*
X0171633Y0204424D01*
X0170324Y0203114D01*
X0170324Y0201209D01*
X0171224Y0200309D01*
X0171224Y0194442D01*
X0171224Y0193282D01*
X0171771Y0192735D01*
X0172144Y0192362D01*
X0171004Y0192362D01*
X0169124Y0194242D01*
X0169124Y0200409D01*
X0170024Y0201309D01*
X0170024Y0203214D01*
X0168677Y0204562D01*
X0166771Y0204562D01*
X0165424Y0203214D01*
X0165424Y0201309D01*
X0166324Y0200409D01*
X0166324Y0194824D01*
X0163424Y0197724D01*
X0163424Y0201209D01*
X0164124Y0201909D01*
X0164124Y0203814D01*
X0162777Y0205162D01*
X0160871Y0205162D01*
X0159524Y0203814D01*
X0159524Y0201909D01*
X0160224Y0201209D01*
X0160224Y0196436D01*
X0160224Y0196399D01*
X0161161Y0195462D01*
X0168933Y0187690D01*
X0169061Y0187562D01*
X0177571Y0187562D01*
X0176524Y0186514D01*
X0176524Y0185345D01*
X0162560Y0172462D01*
X0161721Y0172462D01*
X0160374Y0171114D01*
X0160374Y0169264D01*
X0159127Y0170512D01*
X0158128Y0170512D01*
X0158274Y0170658D01*
X0158274Y0172066D01*
X0158274Y0180258D01*
X0158274Y0181048D01*
X0158274Y0181666D01*
X0158249Y0181691D01*
X0158174Y0181766D01*
X0158174Y0182614D01*
X0157474Y0183314D01*
X0157474Y0201116D01*
X0156650Y0201940D01*
X0155724Y0202866D01*
X0155724Y0203714D01*
X0154377Y0205062D01*
X0152471Y0205062D01*
X0151124Y0203714D01*
X0151124Y0201809D01*
X0152471Y0200462D01*
X0153320Y0200462D01*
X0154074Y0199708D01*
X0154074Y0183214D01*
X0153474Y0182614D01*
X0153474Y0180709D01*
X0154821Y0179362D01*
X0154874Y0179362D01*
X0154874Y0175062D01*
X0153121Y0175062D01*
X0151774Y0173714D01*
X0151774Y0172866D01*
X0146189Y0167281D01*
X0145974Y0167066D01*
X0145974Y0165658D01*
X0145974Y0156764D01*
X0145374Y0156164D01*
X0145374Y0154259D01*
X0146721Y0152912D01*
X0146070Y0153563D02*
X0145240Y0153563D01*
X0145374Y0154561D02*
X0144660Y0154561D01*
X0144080Y0155560D02*
X0145374Y0155560D01*
X0145768Y0156558D02*
X0143500Y0156558D01*
X0142919Y0157557D02*
X0145974Y0157557D01*
X0145974Y0158555D02*
X0142339Y0158555D01*
X0141759Y0159554D02*
X0145974Y0159554D01*
X0145974Y0160552D02*
X0141179Y0160552D01*
X0140599Y0161551D02*
X0145974Y0161551D01*
X0145974Y0162549D02*
X0140019Y0162549D01*
X0139439Y0163548D02*
X0145974Y0163548D01*
X0145974Y0164546D02*
X0138859Y0164546D01*
X0138279Y0165545D02*
X0145974Y0165545D01*
X0145974Y0166543D02*
X0137699Y0166543D01*
X0137119Y0167542D02*
X0146450Y0167542D01*
X0147448Y0168540D02*
X0136539Y0168540D01*
X0135959Y0169539D02*
X0148447Y0169539D01*
X0149445Y0170537D02*
X0135378Y0170537D01*
X0134798Y0171536D02*
X0150444Y0171536D01*
X0151442Y0172534D02*
X0134218Y0172534D01*
X0133638Y0173533D02*
X0151774Y0173533D01*
X0152591Y0174531D02*
X0133058Y0174531D01*
X0132478Y0175530D02*
X0154874Y0175530D01*
X0154874Y0176528D02*
X0131898Y0176528D01*
X0131318Y0177527D02*
X0154874Y0177527D01*
X0154874Y0178525D02*
X0130738Y0178525D01*
X0130158Y0179524D02*
X0154659Y0179524D01*
X0153661Y0180522D02*
X0129578Y0180522D01*
X0131142Y0181521D02*
X0153474Y0181521D01*
X0153474Y0182519D02*
X0132871Y0182519D01*
X0134601Y0183518D02*
X0154074Y0183518D01*
X0154074Y0184516D02*
X0136330Y0184516D01*
X0138060Y0185515D02*
X0154074Y0185515D01*
X0154074Y0186514D02*
X0139482Y0186514D01*
X0139472Y0187512D02*
X0154074Y0187512D01*
X0154074Y0188511D02*
X0139462Y0188511D01*
X0141192Y0189509D02*
X0154074Y0189509D01*
X0154074Y0190508D02*
X0142473Y0190508D01*
X0142740Y0191506D02*
X0154074Y0191506D01*
X0154074Y0192505D02*
X0147186Y0192505D01*
X0147577Y0193503D02*
X0154074Y0193503D01*
X0154074Y0194502D02*
X0147577Y0194502D01*
X0146871Y0195500D02*
X0154074Y0195500D01*
X0154074Y0196499D02*
X0146128Y0196499D01*
X0146395Y0197497D02*
X0154074Y0197497D01*
X0154074Y0198496D02*
X0146663Y0198496D01*
X0146537Y0199494D02*
X0154074Y0199494D01*
X0152440Y0200493D02*
X0145960Y0200493D01*
X0145384Y0201491D02*
X0151442Y0201491D01*
X0151124Y0202490D02*
X0144807Y0202490D01*
X0144231Y0203488D02*
X0151124Y0203488D01*
X0151896Y0204487D02*
X0143654Y0204487D01*
X0143078Y0205485D02*
X0170572Y0205485D01*
X0171571Y0204487D02*
X0168752Y0204487D01*
X0169750Y0203488D02*
X0170698Y0203488D01*
X0170324Y0202490D02*
X0170024Y0202490D01*
X0170024Y0201491D02*
X0170324Y0201491D01*
X0171040Y0200493D02*
X0169208Y0200493D01*
X0169124Y0199494D02*
X0171224Y0199494D01*
X0171224Y0198496D02*
X0169124Y0198496D01*
X0169124Y0197497D02*
X0171224Y0197497D01*
X0171224Y0196499D02*
X0169124Y0196499D01*
X0169124Y0195500D02*
X0171224Y0195500D01*
X0171224Y0194502D02*
X0169124Y0194502D01*
X0169863Y0193503D02*
X0171224Y0193503D01*
X0171224Y0194442D02*
X0171224Y0194442D01*
X0170861Y0192505D02*
X0172001Y0192505D01*
X0174024Y0194442D02*
X0174024Y0200309D01*
X0174924Y0201209D01*
X0174924Y0201237D01*
X0175980Y0201237D01*
X0217438Y0201237D01*
X0217880Y0201237D01*
X0221263Y0204621D01*
X0221947Y0203937D01*
X0223852Y0203937D01*
X0225200Y0205285D01*
X0225200Y0207190D01*
X0223852Y0208537D01*
X0221947Y0208537D01*
X0221047Y0207637D01*
X0220320Y0207637D01*
X0220036Y0207354D01*
X0218852Y0208537D01*
X0218850Y0208537D01*
X0218850Y0260808D01*
X0238361Y0280319D01*
X0255587Y0280319D01*
X0255587Y0279740D01*
X0255487Y0279640D01*
X0255290Y0279298D01*
X0255187Y0278916D01*
X0255187Y0277219D01*
X0259187Y0277219D01*
X0259187Y0276219D01*
X0255187Y0276219D01*
X0255187Y0274521D01*
X0255290Y0274140D01*
X0255487Y0273798D01*
X0255587Y0273697D01*
X0255587Y0273337D01*
X0241004Y0273337D01*
X0239596Y0273337D01*
X0238600Y0272342D01*
X0238600Y0272342D01*
X0227025Y0260767D01*
X0227025Y0260587D01*
X0227025Y0245440D01*
X0226425Y0244840D01*
X0226425Y0242935D01*
X0227025Y0242335D01*
X0227025Y0228216D01*
X0226400Y0227590D01*
X0226400Y0225685D01*
X0226425Y0225659D01*
X0227000Y0225085D01*
X0227000Y0207083D01*
X0227700Y0206383D01*
X0227700Y0205535D01*
X0229047Y0204187D01*
X0230952Y0204187D01*
X0232300Y0205535D01*
X0232300Y0207440D01*
X0230952Y0208787D01*
X0230400Y0208787D01*
X0230400Y0225033D01*
X0231025Y0225659D01*
X0231025Y0227564D01*
X0231000Y0227590D01*
X0231000Y0227590D01*
X0230425Y0228164D01*
X0230425Y0242335D01*
X0231025Y0242935D01*
X0231025Y0244840D01*
X0230425Y0245440D01*
X0230425Y0259359D01*
X0241004Y0269937D01*
X0255587Y0269937D01*
X0255587Y0269263D01*
X0255632Y0269219D01*
X0255587Y0269174D01*
X0255587Y0264263D01*
X0255632Y0264219D01*
X0255587Y0264174D01*
X0255587Y0259263D01*
X0255632Y0259219D01*
X0255587Y0259174D01*
X0255587Y0254263D01*
X0255632Y0254219D01*
X0255587Y0254174D01*
X0255587Y0249263D01*
X0255632Y0249219D01*
X0255587Y0249174D01*
X0255587Y0244263D01*
X0255632Y0244219D01*
X0255587Y0244174D01*
X0255587Y0239740D01*
X0255487Y0239640D01*
X0255290Y0239298D01*
X0255187Y0238916D01*
X0255187Y0237219D01*
X0259187Y0237219D01*
X0259187Y0236219D01*
X0255187Y0236219D01*
X0255187Y0234521D01*
X0255290Y0234140D01*
X0255487Y0233798D01*
X0255587Y0233697D01*
X0255587Y0229263D01*
X0255632Y0229219D01*
X0255587Y0229174D01*
X0255587Y0224263D01*
X0255632Y0224219D01*
X0255587Y0224174D01*
X0255587Y0219263D01*
X0255632Y0219219D01*
X0255587Y0219174D01*
X0255587Y0214263D01*
X0255632Y0214219D01*
X0255587Y0214174D01*
X0255587Y0209740D01*
X0255487Y0209640D01*
X0255290Y0209298D01*
X0255187Y0208916D01*
X0255187Y0207219D01*
X0259187Y0207219D01*
X0259187Y0206219D01*
X0255187Y0206219D01*
X0255187Y0204521D01*
X0255290Y0204140D01*
X0255487Y0203798D01*
X0255766Y0203518D01*
X0256080Y0203337D01*
X0252552Y0203337D01*
X0251652Y0204237D01*
X0250352Y0204237D01*
X0250500Y0204385D01*
X0250500Y0206290D01*
X0249152Y0207637D01*
X0247880Y0207637D01*
X0236800Y0218717D01*
X0236800Y0223685D01*
X0237700Y0224585D01*
X0237700Y0226490D01*
X0236352Y0227837D01*
X0234447Y0227837D01*
X0233100Y0226490D01*
X0233100Y0224585D01*
X0234000Y0223685D01*
X0234000Y0217558D01*
X0245900Y0205658D01*
X0245900Y0204385D01*
X0246147Y0204137D01*
X0244647Y0204137D01*
X0243300Y0202790D01*
X0243300Y0201517D01*
X0242920Y0201137D01*
X0235820Y0201137D01*
X0227020Y0192337D01*
X0226110Y0192337D01*
X0225541Y0192346D01*
X0225532Y0192337D01*
X0225520Y0192337D01*
X0225117Y0191935D01*
X0224759Y0191587D01*
X0223447Y0191587D01*
X0222100Y0190240D01*
X0222100Y0188335D01*
X0222773Y0187662D01*
X0215854Y0187662D01*
X0218504Y0190312D01*
X0219777Y0190312D01*
X0221124Y0191659D01*
X0221124Y0193564D01*
X0220277Y0194412D01*
X0221024Y0195159D01*
X0221024Y0197064D01*
X0219677Y0198412D01*
X0217771Y0198412D01*
X0216424Y0197064D01*
X0216424Y0195792D01*
X0211394Y0190762D01*
X0200204Y0190762D01*
X0197104Y0193862D01*
X0195944Y0193862D01*
X0174604Y0193862D01*
X0174024Y0194442D01*
X0174024Y0194502D02*
X0199621Y0194502D01*
X0199724Y0194399D02*
X0197561Y0196562D01*
X0186477Y0196562D01*
X0185777Y0195862D01*
X0183871Y0195862D01*
X0182524Y0197209D01*
X0182524Y0199114D01*
X0183871Y0200462D01*
X0185777Y0200462D01*
X0186477Y0199762D01*
X0198887Y0199762D01*
X0201987Y0196662D01*
X0202977Y0196662D01*
X0204324Y0195314D01*
X0204324Y0193409D01*
X0202977Y0192062D01*
X0201071Y0192062D01*
X0199724Y0193409D01*
X0199724Y0194399D01*
X0199724Y0193503D02*
X0197463Y0193503D01*
X0198461Y0192505D02*
X0200629Y0192505D01*
X0199460Y0191506D02*
X0212138Y0191506D01*
X0213137Y0192505D02*
X0203420Y0192505D01*
X0204324Y0193503D02*
X0214136Y0193503D01*
X0215134Y0194502D02*
X0204324Y0194502D01*
X0204138Y0195500D02*
X0216133Y0195500D01*
X0216424Y0196499D02*
X0203140Y0196499D01*
X0201151Y0197497D02*
X0216857Y0197497D01*
X0220591Y0197497D02*
X0232179Y0197497D01*
X0231181Y0196499D02*
X0221024Y0196499D01*
X0221024Y0195500D02*
X0230182Y0195500D01*
X0229184Y0194502D02*
X0220367Y0194502D01*
X0221124Y0193503D02*
X0228185Y0193503D01*
X0227187Y0192505D02*
X0221124Y0192505D01*
X0220971Y0191506D02*
X0223366Y0191506D01*
X0222367Y0190508D02*
X0219973Y0190508D01*
X0222100Y0189509D02*
X0217701Y0189509D01*
X0216703Y0188511D02*
X0222100Y0188511D01*
X0219493Y0183518D02*
X0208324Y0183518D01*
X0208324Y0182575D02*
X0208324Y0182575D01*
X0208324Y0182519D02*
X0218476Y0182519D01*
X0217459Y0181521D02*
X0208324Y0181521D01*
X0208324Y0180522D02*
X0216442Y0180522D01*
X0215425Y0179524D02*
X0208324Y0179524D01*
X0208324Y0178525D02*
X0214408Y0178525D01*
X0214000Y0177527D02*
X0208324Y0177527D01*
X0208324Y0176528D02*
X0214000Y0176528D01*
X0214000Y0175530D02*
X0208324Y0175530D01*
X0208324Y0174531D02*
X0214000Y0174531D01*
X0214000Y0173533D02*
X0208324Y0173533D01*
X0210846Y0172534D02*
X0214000Y0172534D01*
X0214000Y0171536D02*
X0211724Y0171536D01*
X0211724Y0170537D02*
X0214000Y0170537D01*
X0214000Y0169539D02*
X0211512Y0169539D01*
X0210514Y0168540D02*
X0214000Y0168540D01*
X0214000Y0167542D02*
X0160474Y0167542D01*
X0160474Y0168540D02*
X0161043Y0168540D01*
X0160374Y0169539D02*
X0160100Y0169539D01*
X0160374Y0170537D02*
X0158154Y0170537D01*
X0158274Y0171536D02*
X0160795Y0171536D01*
X0162639Y0172534D02*
X0158274Y0172534D01*
X0158274Y0173533D02*
X0163721Y0173533D01*
X0164804Y0174531D02*
X0158274Y0174531D01*
X0158274Y0175530D02*
X0165886Y0175530D01*
X0166968Y0176528D02*
X0158274Y0176528D01*
X0158274Y0177527D02*
X0168051Y0177527D01*
X0169133Y0178525D02*
X0158274Y0178525D01*
X0158274Y0179524D02*
X0170215Y0179524D01*
X0171297Y0180522D02*
X0158274Y0180522D01*
X0158274Y0180258D02*
X0158274Y0180258D01*
X0158274Y0181521D02*
X0172380Y0181521D01*
X0173462Y0182519D02*
X0158174Y0182519D01*
X0158274Y0181666D02*
X0158274Y0181666D01*
X0158274Y0181666D01*
X0157474Y0183518D02*
X0174544Y0183518D01*
X0175626Y0184516D02*
X0157474Y0184516D01*
X0157474Y0185515D02*
X0176524Y0185515D01*
X0176524Y0186514D02*
X0157474Y0186514D01*
X0157474Y0187512D02*
X0177522Y0187512D01*
X0180033Y0183518D02*
X0180775Y0183518D01*
X0180524Y0182519D02*
X0177591Y0182519D01*
X0176509Y0181521D02*
X0180524Y0181521D01*
X0180524Y0180522D02*
X0175427Y0180522D01*
X0174344Y0179524D02*
X0180856Y0179524D01*
X0182724Y0178525D02*
X0173262Y0178525D01*
X0172180Y0177527D02*
X0182724Y0177527D01*
X0182724Y0176528D02*
X0171097Y0176528D01*
X0170015Y0175530D02*
X0182262Y0175530D01*
X0181264Y0174531D02*
X0168933Y0174531D01*
X0167851Y0173533D02*
X0180265Y0173533D01*
X0179267Y0172534D02*
X0166768Y0172534D01*
X0165686Y0171536D02*
X0176995Y0171536D01*
X0176624Y0170537D02*
X0164974Y0170537D01*
X0164974Y0169539D02*
X0176624Y0169539D01*
X0177343Y0168540D02*
X0164305Y0168540D01*
X0159758Y0166543D02*
X0214000Y0166543D01*
X0214000Y0165545D02*
X0157487Y0165545D01*
X0156488Y0164546D02*
X0214000Y0164546D01*
X0214000Y0163548D02*
X0155490Y0163548D01*
X0154491Y0162549D02*
X0214000Y0162549D01*
X0214000Y0161551D02*
X0153493Y0161551D01*
X0152974Y0160552D02*
X0214000Y0160552D01*
X0214000Y0159554D02*
X0152974Y0159554D01*
X0152974Y0158555D02*
X0214000Y0158555D01*
X0214000Y0157557D02*
X0152974Y0157557D01*
X0153480Y0156558D02*
X0213941Y0156558D01*
X0212942Y0155560D02*
X0153874Y0155560D01*
X0153874Y0154561D02*
X0211943Y0154561D01*
X0212420Y0155037D02*
X0212420Y0155037D01*
X0211600Y0153563D02*
X0196592Y0153563D01*
X0196306Y0153754D02*
X0195603Y0154045D01*
X0194857Y0154193D01*
X0194567Y0154193D01*
X0194567Y0150422D01*
X0194386Y0150422D01*
X0194386Y0154193D01*
X0194096Y0154193D01*
X0193350Y0154045D01*
X0192647Y0153754D01*
X0192015Y0153331D01*
X0191477Y0152793D01*
X0191054Y0152161D01*
X0190763Y0151458D01*
X0190614Y0150712D01*
X0190614Y0150422D01*
X0194386Y0150422D01*
X0194386Y0150241D01*
X0190614Y0150241D01*
X0190614Y0149951D01*
X0190763Y0149205D01*
X0191054Y0148502D01*
X0191477Y0147869D01*
X0192015Y0147331D01*
X0192647Y0146908D01*
X0193350Y0146617D01*
X0194096Y0146469D01*
X0194386Y0146469D01*
X0194386Y0150240D01*
X0194567Y0150240D01*
X0194567Y0146469D01*
X0194857Y0146469D01*
X0195603Y0146617D01*
X0196306Y0146908D01*
X0196939Y0147331D01*
X0197477Y0147869D01*
X0197899Y0148502D01*
X0198190Y0149205D01*
X0198339Y0149951D01*
X0198339Y0150241D01*
X0194567Y0150241D01*
X0194567Y0150422D01*
X0198339Y0150422D01*
X0198339Y0150712D01*
X0198190Y0151458D01*
X0197899Y0152161D01*
X0197477Y0152793D01*
X0196939Y0153331D01*
X0196306Y0153754D01*
X0194567Y0153563D02*
X0194386Y0153563D01*
X0194386Y0152564D02*
X0194567Y0152564D01*
X0194567Y0151566D02*
X0194386Y0151566D01*
X0194386Y0150567D02*
X0194567Y0150567D01*
X0194567Y0149569D02*
X0194386Y0149569D01*
X0194386Y0148570D02*
X0194567Y0148570D01*
X0194567Y0147572D02*
X0194386Y0147572D01*
X0194386Y0146573D02*
X0194567Y0146573D01*
X0195381Y0146573D02*
X0211711Y0146573D01*
X0210713Y0147572D02*
X0197179Y0147572D01*
X0197928Y0148570D02*
X0210700Y0148570D01*
X0210778Y0149569D02*
X0198263Y0149569D01*
X0198339Y0150567D02*
X0211600Y0150567D01*
X0211600Y0151566D02*
X0198146Y0151566D01*
X0197630Y0152564D02*
X0211600Y0152564D01*
X0215174Y0152712D02*
X0217674Y0155212D01*
X0217674Y0176462D01*
X0221874Y0174659D02*
X0222771Y0173762D01*
X0224677Y0173762D01*
X0226024Y0175109D01*
X0226024Y0176099D01*
X0226100Y0176175D01*
X0226100Y0175685D01*
X0227000Y0174785D01*
X0227000Y0173658D01*
X0227330Y0173328D01*
X0227820Y0172837D01*
X0230900Y0169758D01*
X0230900Y0169758D01*
X0231720Y0168937D01*
X0240720Y0168937D01*
X0241700Y0167958D01*
X0241700Y0166685D01*
X0243047Y0165337D01*
X0244952Y0165337D01*
X0246300Y0166685D01*
X0246300Y0168590D01*
X0244952Y0169937D01*
X0243680Y0169937D01*
X0242700Y0170917D01*
X0242700Y0170917D01*
X0241897Y0171720D01*
X0241880Y0171737D01*
X0236652Y0171737D01*
X0237277Y0172362D01*
X0272271Y0172362D01*
X0272971Y0171662D01*
X0274877Y0171662D01*
X0275577Y0172362D01*
X0285388Y0172362D01*
X0286325Y0173299D01*
X0288570Y0175544D01*
X0289009Y0175362D01*
X0290406Y0175362D01*
X0287202Y0169822D01*
X0286891Y0169284D01*
X0285075Y0169284D01*
X0283727Y0167936D01*
X0283727Y0166031D01*
X0284545Y0165214D01*
X0279523Y0156516D01*
X0249822Y0156516D01*
X0248577Y0157762D01*
X0246671Y0157762D01*
X0245324Y0156414D01*
X0245324Y0155655D01*
X0244883Y0156096D01*
X0242986Y0156096D01*
X0242395Y0155505D01*
X0227284Y0155505D01*
X0221874Y0160916D01*
X0221874Y0174659D01*
X0221874Y0174531D02*
X0222002Y0174531D01*
X0221874Y0173533D02*
X0227124Y0173533D01*
X0227820Y0172837D02*
X0227820Y0172837D01*
X0228123Y0172534D02*
X0221874Y0172534D01*
X0221874Y0171536D02*
X0229121Y0171536D01*
X0230120Y0170537D02*
X0221874Y0170537D01*
X0221874Y0169539D02*
X0231118Y0169539D01*
X0235624Y0173962D02*
X0273924Y0173962D01*
X0284725Y0173962D01*
X0289725Y0178962D01*
X0287193Y0181521D02*
X0286483Y0181521D01*
X0286483Y0181667D02*
X0287183Y0182367D01*
X0287183Y0184273D01*
X0285836Y0185620D01*
X0283931Y0185620D01*
X0282583Y0184273D01*
X0282583Y0182367D01*
X0283283Y0181667D01*
X0283283Y0180734D01*
X0283074Y0180524D01*
X0282975Y0180524D01*
X0282777Y0181001D01*
X0281765Y0182014D01*
X0280441Y0182562D01*
X0279009Y0182562D01*
X0277686Y0182014D01*
X0276673Y0181001D01*
X0276606Y0180837D01*
X0275187Y0180837D01*
X0274861Y0181163D01*
X0274387Y0181637D01*
X0274387Y0181637D01*
X0274387Y0181637D01*
X0273592Y0181637D01*
X0270552Y0181637D01*
X0271800Y0182885D01*
X0271800Y0184790D01*
X0271354Y0185236D01*
X0271391Y0185273D01*
X0271391Y0188684D01*
X0271097Y0188978D01*
X0271391Y0189273D01*
X0271391Y0189378D01*
X0273603Y0189378D01*
X0276062Y0191837D01*
X0276944Y0191837D01*
X0276618Y0191512D01*
X0276181Y0190856D01*
X0275879Y0190129D01*
X0275746Y0189462D01*
X0279225Y0189462D01*
X0279225Y0188462D01*
X0275746Y0188462D01*
X0275879Y0187795D01*
X0276181Y0187067D01*
X0276618Y0186412D01*
X0277175Y0185855D01*
X0277831Y0185417D01*
X0278559Y0185115D01*
X0279225Y0184983D01*
X0279225Y0188462D01*
X0280225Y0188462D01*
X0280225Y0184983D01*
X0280892Y0185115D01*
X0281620Y0185417D01*
X0282275Y0185855D01*
X0282832Y0186412D01*
X0283270Y0187067D01*
X0283572Y0187795D01*
X0283704Y0188462D01*
X0280225Y0188462D01*
X0280225Y0189462D01*
X0283704Y0189462D01*
X0283572Y0190129D01*
X0283270Y0190856D01*
X0282832Y0191512D01*
X0282506Y0191837D01*
X0284587Y0191837D01*
X0286307Y0190117D01*
X0286125Y0189678D01*
X0286125Y0188246D01*
X0286673Y0186923D01*
X0287686Y0185910D01*
X0289009Y0185362D01*
X0290441Y0185362D01*
X0291765Y0185910D01*
X0292777Y0186923D01*
X0293325Y0188246D01*
X0293325Y0189678D01*
X0292777Y0191001D01*
X0291765Y0192014D01*
X0290441Y0192562D01*
X0289009Y0192562D01*
X0288570Y0192380D01*
X0286800Y0194150D01*
X0286800Y0194200D01*
X0285862Y0195137D01*
X0284537Y0195137D01*
X0284437Y0195037D01*
X0280500Y0195037D01*
X0280892Y0195115D01*
X0281620Y0195417D01*
X0282275Y0195855D01*
X0282832Y0196412D01*
X0283270Y0197067D01*
X0283572Y0197795D01*
X0283704Y0198462D01*
X0280225Y0198462D01*
X0280225Y0199462D01*
X0279225Y0199462D01*
X0279225Y0198462D01*
X0275746Y0198462D01*
X0275879Y0197795D01*
X0276181Y0197067D01*
X0276618Y0196412D01*
X0277175Y0195855D01*
X0277831Y0195417D01*
X0278559Y0195115D01*
X0278951Y0195037D01*
X0274737Y0195037D01*
X0274658Y0194958D01*
X0272278Y0192578D01*
X0271391Y0192578D01*
X0271391Y0192666D01*
X0274772Y0196047D01*
X0274800Y0196075D01*
X0274800Y0201675D01*
X0275062Y0201937D01*
X0277044Y0201937D01*
X0276618Y0201512D01*
X0276181Y0200856D01*
X0275879Y0200129D01*
X0275746Y0199462D01*
X0279225Y0199462D01*
X0279225Y0202941D01*
X0278559Y0202808D01*
X0278003Y0202578D01*
X0279062Y0203637D01*
X0282700Y0203637D01*
X0282700Y0202385D01*
X0284047Y0201037D01*
X0285387Y0201037D01*
X0286307Y0200117D01*
X0286125Y0199678D01*
X0286125Y0198246D01*
X0286673Y0196922D01*
X0287686Y0195910D01*
X0289009Y0195362D01*
X0290441Y0195362D01*
X0291765Y0195910D01*
X0292777Y0196922D01*
X0293325Y0198246D01*
X0293325Y0199678D01*
X0292777Y0201001D01*
X0291765Y0202014D01*
X0290441Y0202562D01*
X0289009Y0202562D01*
X0288570Y0202380D01*
X0287300Y0203650D01*
X0287300Y0204237D01*
X0287312Y0204237D01*
X0287370Y0204295D01*
X0288250Y0205175D01*
X0288544Y0205469D01*
X0288984Y0205287D01*
X0290416Y0205287D01*
X0291739Y0205836D01*
X0292752Y0206848D01*
X0293300Y0208171D01*
X0293300Y0209604D01*
X0292752Y0210927D01*
X0291739Y0211939D01*
X0290416Y0212487D01*
X0288984Y0212487D01*
X0287660Y0211939D01*
X0286648Y0210927D01*
X0286100Y0209604D01*
X0286100Y0208171D01*
X0286282Y0207732D01*
X0285987Y0207437D01*
X0283437Y0207437D01*
X0282837Y0206837D01*
X0282741Y0206837D01*
X0282752Y0206848D01*
X0283300Y0208171D01*
X0283300Y0209604D01*
X0282752Y0210927D01*
X0281739Y0211939D01*
X0280416Y0212487D01*
X0278984Y0212487D01*
X0277660Y0211939D01*
X0276648Y0210927D01*
X0276100Y0209604D01*
X0276100Y0208171D01*
X0276296Y0207697D01*
X0275437Y0206837D01*
X0274462Y0206837D01*
X0274462Y0206837D01*
X0273137Y0206837D01*
X0273123Y0206824D01*
X0272200Y0205900D01*
X0272195Y0205895D01*
X0270952Y0207137D01*
X0269047Y0207137D01*
X0267700Y0205790D01*
X0267700Y0204517D01*
X0266520Y0203337D01*
X0263295Y0203337D01*
X0263608Y0203518D01*
X0263888Y0203798D01*
X0264085Y0204140D01*
X0264187Y0204521D01*
X0264187Y0206219D01*
X0260187Y0206219D01*
X0260187Y0207219D01*
X0264187Y0207219D01*
X0264187Y0208916D01*
X0264085Y0209298D01*
X0263888Y0209640D01*
X0263787Y0209740D01*
X0263787Y0214174D01*
X0263787Y0214472D02*
X0311697Y0214472D01*
X0311970Y0213473D02*
X0311981Y0213467D01*
X0312132Y0212931D01*
X0293149Y0180104D01*
X0292777Y0181001D01*
X0291765Y0182014D01*
X0290441Y0182562D01*
X0289009Y0182562D01*
X0287686Y0182014D01*
X0286673Y0181001D01*
X0286483Y0180542D01*
X0286483Y0181667D01*
X0287183Y0182519D02*
X0288907Y0182519D01*
X0290544Y0182519D02*
X0294545Y0182519D01*
X0293968Y0181521D02*
X0292257Y0181521D01*
X0292975Y0180522D02*
X0293390Y0180522D01*
X0295123Y0183518D02*
X0287183Y0183518D01*
X0286939Y0184516D02*
X0295700Y0184516D01*
X0296278Y0185515D02*
X0290811Y0185515D01*
X0292368Y0186514D02*
X0296855Y0186514D01*
X0297433Y0187512D02*
X0293021Y0187512D01*
X0293325Y0188511D02*
X0298010Y0188511D01*
X0298587Y0189509D02*
X0293325Y0189509D01*
X0292982Y0190508D02*
X0299165Y0190508D01*
X0299742Y0191506D02*
X0292272Y0191506D01*
X0290579Y0192505D02*
X0300320Y0192505D01*
X0300897Y0193503D02*
X0287447Y0193503D01*
X0286498Y0194502D02*
X0301475Y0194502D01*
X0302052Y0195500D02*
X0290775Y0195500D01*
X0292353Y0196499D02*
X0302630Y0196499D01*
X0303207Y0197497D02*
X0293015Y0197497D01*
X0293325Y0198496D02*
X0303784Y0198496D01*
X0304362Y0199494D02*
X0293325Y0199494D01*
X0292988Y0200493D02*
X0304939Y0200493D01*
X0305517Y0201491D02*
X0292287Y0201491D01*
X0290615Y0202490D02*
X0306094Y0202490D01*
X0306672Y0203488D02*
X0287462Y0203488D01*
X0287562Y0204487D02*
X0307249Y0204487D01*
X0307827Y0205485D02*
X0290893Y0205485D01*
X0292387Y0206484D02*
X0308404Y0206484D01*
X0308981Y0207482D02*
X0293014Y0207482D01*
X0293300Y0208481D02*
X0309559Y0208481D01*
X0310136Y0209479D02*
X0293300Y0209479D01*
X0292938Y0210478D02*
X0310714Y0210478D01*
X0311291Y0211476D02*
X0292202Y0211476D01*
X0290446Y0212475D02*
X0311869Y0212475D01*
X0313856Y0212715D02*
X0288256Y0168448D01*
X0287664Y0167422D01*
X0286027Y0166984D01*
X0286467Y0165343D01*
X0280447Y0154916D01*
X0248169Y0154916D01*
X0247624Y0155462D01*
X0246466Y0157557D02*
X0225233Y0157557D01*
X0224235Y0158555D02*
X0280700Y0158555D01*
X0280124Y0157557D02*
X0248782Y0157557D01*
X0249780Y0156558D02*
X0279547Y0156558D01*
X0281277Y0159554D02*
X0223236Y0159554D01*
X0222238Y0160552D02*
X0281853Y0160552D01*
X0282430Y0161551D02*
X0221874Y0161551D01*
X0221874Y0162549D02*
X0283006Y0162549D01*
X0283583Y0163548D02*
X0221874Y0163548D01*
X0221874Y0164546D02*
X0284159Y0164546D01*
X0284214Y0165545D02*
X0245160Y0165545D01*
X0246158Y0166543D02*
X0283727Y0166543D01*
X0283727Y0167542D02*
X0246300Y0167542D01*
X0246300Y0168540D02*
X0284331Y0168540D01*
X0287038Y0169539D02*
X0245351Y0169539D01*
X0243080Y0170537D02*
X0287616Y0170537D01*
X0287202Y0169822D02*
X0287202Y0169822D01*
X0288193Y0171536D02*
X0242081Y0171536D01*
X0241117Y0168540D02*
X0221874Y0168540D01*
X0221874Y0167542D02*
X0241700Y0167542D01*
X0241841Y0166543D02*
X0221874Y0166543D01*
X0221874Y0165545D02*
X0242840Y0165545D01*
X0245468Y0156558D02*
X0226232Y0156558D01*
X0227230Y0155560D02*
X0242449Y0155560D01*
X0243934Y0153805D02*
X0244676Y0153064D01*
X0281556Y0153064D01*
X0286740Y0162049D01*
X0319515Y0218817D01*
X0319295Y0219636D01*
X0320187Y0219875D01*
X0328328Y0233977D01*
X0337506Y0249922D01*
X0337498Y0249895D01*
X0337506Y0249922D02*
X0300478Y0314057D01*
X0299521Y0314313D01*
X0299789Y0315312D01*
X0280753Y0348285D01*
X0206484Y0348765D01*
X0205584Y0347865D01*
X0204674Y0348774D01*
X0203061Y0348774D01*
X0168621Y0348162D01*
X0137131Y0293621D01*
X0131891Y0284543D01*
X0132269Y0283130D01*
X0132183Y0283180D01*
X0130953Y0282851D01*
X0112633Y0251159D01*
X0112658Y0251174D01*
X0142993Y0198632D01*
X0141016Y0191255D01*
X0133047Y0186654D01*
X0132901Y0186693D01*
X0128047Y0195314D02*
X0127901Y0195354D01*
X0128047Y0195314D02*
X0134025Y0198766D01*
X0134903Y0202044D01*
X0133403Y0204642D01*
X0130287Y0208039D02*
X0123184Y0203938D01*
X0122901Y0204014D01*
X0121708Y0207482D02*
X0113916Y0207482D01*
X0114496Y0206484D02*
X0119979Y0206484D01*
X0118249Y0205485D02*
X0115076Y0205485D01*
X0115656Y0204487D02*
X0116520Y0204487D01*
X0116376Y0204404D02*
X0116164Y0203612D01*
X0088368Y0251459D01*
X0115854Y0299067D01*
X0116054Y0298324D01*
X0119466Y0296354D01*
X0117801Y0293471D01*
X0117378Y0293471D01*
X0116036Y0292129D01*
X0116036Y0290232D01*
X0117378Y0288890D01*
X0119275Y0288890D01*
X0120617Y0290232D01*
X0120617Y0291948D01*
X0122237Y0294754D01*
X0125503Y0292868D01*
X0126383Y0293104D01*
X0129339Y0298223D01*
X0129103Y0299104D01*
X0119654Y0304559D01*
X0118910Y0304360D01*
X0120854Y0307728D01*
X0121054Y0306984D01*
X0130503Y0301528D01*
X0131383Y0301764D01*
X0132061Y0302938D01*
X0133739Y0301970D01*
X0134366Y0299630D01*
X0134366Y0299630D01*
X0126546Y0286085D01*
X0126546Y0286085D01*
X0126155Y0285409D01*
X0125883Y0284937D01*
X0125895Y0284891D01*
X0107098Y0252353D01*
X0106895Y0252236D01*
X0106778Y0251800D01*
X0106552Y0251408D01*
X0106612Y0251182D01*
X0106552Y0250956D01*
X0106778Y0250564D01*
X0106895Y0250128D01*
X0107097Y0250011D01*
X0125396Y0218316D01*
X0124363Y0217282D01*
X0124363Y0215385D01*
X0125704Y0214043D01*
X0127602Y0214043D01*
X0128944Y0215385D01*
X0128944Y0215961D01*
X0129263Y0215409D01*
X0130212Y0213764D01*
X0128920Y0209097D01*
X0127487Y0208270D01*
X0126706Y0209624D01*
X0125825Y0209859D01*
X0116376Y0204404D01*
X0113336Y0208481D02*
X0123438Y0208481D01*
X0125167Y0209479D02*
X0112755Y0209479D01*
X0112175Y0210478D02*
X0129302Y0210478D01*
X0129579Y0211476D02*
X0111595Y0211476D01*
X0111015Y0212475D02*
X0129855Y0212475D01*
X0130132Y0213473D02*
X0110435Y0213473D01*
X0109855Y0214472D02*
X0125275Y0214472D01*
X0124363Y0215470D02*
X0109275Y0215470D01*
X0108695Y0216469D02*
X0124363Y0216469D01*
X0124548Y0217467D02*
X0108115Y0217467D01*
X0107535Y0218466D02*
X0125310Y0218466D01*
X0124733Y0219464D02*
X0106955Y0219464D01*
X0106375Y0220463D02*
X0124157Y0220463D01*
X0123580Y0221461D02*
X0105795Y0221461D01*
X0105215Y0222460D02*
X0123004Y0222460D01*
X0122427Y0223458D02*
X0104634Y0223458D01*
X0104054Y0224457D02*
X0121851Y0224457D01*
X0121274Y0225455D02*
X0103474Y0225455D01*
X0102894Y0226454D02*
X0120698Y0226454D01*
X0120121Y0227452D02*
X0102314Y0227452D01*
X0101734Y0228451D02*
X0119545Y0228451D01*
X0118968Y0229449D02*
X0101154Y0229449D01*
X0100574Y0230448D02*
X0118392Y0230448D01*
X0117815Y0231447D02*
X0099994Y0231447D01*
X0099414Y0232445D02*
X0117239Y0232445D01*
X0116662Y0233444D02*
X0098834Y0233444D01*
X0098254Y0234442D02*
X0116086Y0234442D01*
X0115509Y0235441D02*
X0097674Y0235441D01*
X0097093Y0236439D02*
X0114933Y0236439D01*
X0114357Y0237438D02*
X0096513Y0237438D01*
X0095933Y0238436D02*
X0113780Y0238436D01*
X0113204Y0239435D02*
X0095353Y0239435D01*
X0094773Y0240433D02*
X0112627Y0240433D01*
X0112051Y0241432D02*
X0094193Y0241432D01*
X0093613Y0242430D02*
X0111474Y0242430D01*
X0110898Y0243429D02*
X0093033Y0243429D01*
X0092453Y0244427D02*
X0110321Y0244427D01*
X0109745Y0245426D02*
X0091873Y0245426D01*
X0091293Y0246424D02*
X0109168Y0246424D01*
X0108592Y0247423D02*
X0090713Y0247423D01*
X0090133Y0248421D02*
X0108015Y0248421D01*
X0107439Y0249420D02*
X0089552Y0249420D01*
X0088972Y0250418D02*
X0106817Y0250418D01*
X0106557Y0251417D02*
X0088392Y0251417D01*
X0088920Y0252415D02*
X0107134Y0252415D01*
X0107710Y0253414D02*
X0089496Y0253414D01*
X0090073Y0254412D02*
X0108287Y0254412D01*
X0108864Y0255411D02*
X0090649Y0255411D01*
X0091226Y0256409D02*
X0109441Y0256409D01*
X0110018Y0257408D02*
X0091802Y0257408D01*
X0092379Y0258406D02*
X0110595Y0258406D01*
X0111172Y0259405D02*
X0092955Y0259405D01*
X0093532Y0260403D02*
X0111748Y0260403D01*
X0112325Y0261402D02*
X0094108Y0261402D01*
X0094685Y0262400D02*
X0112902Y0262400D01*
X0113479Y0263399D02*
X0095261Y0263399D01*
X0095837Y0264397D02*
X0114056Y0264397D01*
X0114633Y0265396D02*
X0096414Y0265396D01*
X0096990Y0266394D02*
X0115210Y0266394D01*
X0115787Y0267393D02*
X0097567Y0267393D01*
X0098143Y0268391D02*
X0116363Y0268391D01*
X0116940Y0269390D02*
X0098720Y0269390D01*
X0099296Y0270388D02*
X0117517Y0270388D01*
X0118094Y0271387D02*
X0099873Y0271387D01*
X0100449Y0272385D02*
X0118671Y0272385D01*
X0119248Y0273384D02*
X0101026Y0273384D01*
X0101602Y0274383D02*
X0119825Y0274383D01*
X0120401Y0275381D02*
X0102179Y0275381D01*
X0102755Y0276380D02*
X0120978Y0276380D01*
X0121555Y0277378D02*
X0103332Y0277378D01*
X0103908Y0278377D02*
X0122132Y0278377D01*
X0122709Y0279375D02*
X0104485Y0279375D01*
X0105061Y0280374D02*
X0123286Y0280374D01*
X0123863Y0281372D02*
X0105638Y0281372D01*
X0106214Y0282371D02*
X0124439Y0282371D01*
X0125016Y0283369D02*
X0106791Y0283369D01*
X0107367Y0284368D02*
X0125593Y0284368D01*
X0125883Y0284937D02*
X0125883Y0284937D01*
X0126130Y0285366D02*
X0107944Y0285366D01*
X0108520Y0286365D02*
X0126707Y0286365D01*
X0127283Y0287363D02*
X0109097Y0287363D01*
X0109673Y0288362D02*
X0127860Y0288362D01*
X0128436Y0289360D02*
X0119745Y0289360D01*
X0120617Y0290359D02*
X0129013Y0290359D01*
X0129589Y0291357D02*
X0120617Y0291357D01*
X0120852Y0292356D02*
X0130166Y0292356D01*
X0130742Y0293354D02*
X0126528Y0293354D01*
X0127104Y0294353D02*
X0131319Y0294353D01*
X0131895Y0295351D02*
X0127681Y0295351D01*
X0128257Y0296350D02*
X0132472Y0296350D01*
X0133048Y0297348D02*
X0128834Y0297348D01*
X0129306Y0298347D02*
X0133625Y0298347D01*
X0134201Y0299345D02*
X0128684Y0299345D01*
X0126955Y0300344D02*
X0134174Y0300344D01*
X0134366Y0299630D02*
X0134366Y0299630D01*
X0136083Y0299404D02*
X0138750Y0304024D01*
X0137994Y0306845D01*
X0142228Y0306248D02*
X0140892Y0311234D01*
X0132578Y0316034D01*
X0134095Y0319316D02*
X0145655Y0319316D01*
X0145172Y0318478D02*
X0144850Y0318392D01*
X0144493Y0318749D01*
X0142595Y0318749D01*
X0141253Y0317407D01*
X0141253Y0315510D01*
X0142595Y0314168D01*
X0144493Y0314168D01*
X0145582Y0315257D01*
X0142774Y0310394D01*
X0142609Y0311008D01*
X0142609Y0311008D01*
X0142266Y0312288D01*
X0141243Y0312879D01*
X0141118Y0312951D01*
X0138661Y0314370D01*
X0139339Y0315544D01*
X0139103Y0316424D01*
X0129654Y0321880D01*
X0128910Y0321680D01*
X0156397Y0369289D01*
X0211731Y0369140D01*
X0211152Y0368561D01*
X0211152Y0364665D01*
X0207223Y0364665D01*
X0206533Y0365355D01*
X0204635Y0365355D01*
X0203293Y0364013D01*
X0203293Y0362116D01*
X0204635Y0360774D01*
X0206533Y0360774D01*
X0207223Y0361465D01*
X0211152Y0361465D01*
X0211152Y0357649D01*
X0211796Y0357005D01*
X0217708Y0357005D01*
X0218352Y0357649D01*
X0218352Y0368561D01*
X0217789Y0369124D01*
X0221704Y0369113D01*
X0221152Y0368561D01*
X0221152Y0357649D01*
X0221796Y0357005D01*
X0223141Y0357005D01*
X0223141Y0356464D01*
X0223140Y0355805D01*
X0223141Y0355804D01*
X0223141Y0354687D01*
X0222623Y0354169D01*
X0222482Y0354168D01*
X0221828Y0354168D01*
X0221822Y0354161D01*
X0215469Y0354097D01*
X0215468Y0354098D01*
X0214807Y0354090D01*
X0214146Y0354083D01*
X0214145Y0354082D01*
X0166799Y0353486D01*
X0166606Y0353598D01*
X0166160Y0353478D01*
X0165697Y0353473D01*
X0165542Y0353313D01*
X0165236Y0353231D01*
X0164909Y0352664D01*
X0164772Y0352524D01*
X0164773Y0352429D01*
X0145172Y0318478D01*
X0146226Y0317104D02*
X0166291Y0351857D01*
X0166380Y0351881D01*
X0214825Y0352490D01*
X0222491Y0352568D01*
X0223284Y0352568D01*
X0224741Y0354025D01*
X0224741Y0356465D01*
X0224752Y0363105D01*
X0221152Y0363250D02*
X0218352Y0363250D01*
X0218352Y0362252D02*
X0221152Y0362252D01*
X0221152Y0361253D02*
X0218352Y0361253D01*
X0218352Y0360254D02*
X0221152Y0360254D01*
X0221152Y0359256D02*
X0218352Y0359256D01*
X0218352Y0358257D02*
X0221152Y0358257D01*
X0221542Y0357259D02*
X0217962Y0357259D01*
X0222717Y0354263D02*
X0147722Y0354263D01*
X0147145Y0353265D02*
X0165363Y0353265D01*
X0165236Y0353231D02*
X0165236Y0353231D01*
X0165236Y0353231D01*
X0164679Y0352266D02*
X0146569Y0352266D01*
X0145992Y0351268D02*
X0164103Y0351268D01*
X0163526Y0350269D02*
X0145416Y0350269D01*
X0144839Y0349271D02*
X0162950Y0349271D01*
X0162374Y0348272D02*
X0144263Y0348272D01*
X0143686Y0347274D02*
X0161797Y0347274D01*
X0161221Y0346275D02*
X0143110Y0346275D01*
X0142533Y0345277D02*
X0160644Y0345277D01*
X0160068Y0344278D02*
X0141957Y0344278D01*
X0141380Y0343280D02*
X0159491Y0343280D01*
X0158915Y0342281D02*
X0140804Y0342281D01*
X0140227Y0341283D02*
X0158338Y0341283D01*
X0157762Y0340284D02*
X0139651Y0340284D01*
X0139074Y0339286D02*
X0157185Y0339286D01*
X0156609Y0338287D02*
X0138498Y0338287D01*
X0137921Y0337289D02*
X0156032Y0337289D01*
X0155456Y0336290D02*
X0137345Y0336290D01*
X0136768Y0335292D02*
X0154879Y0335292D01*
X0154303Y0334293D02*
X0136192Y0334293D01*
X0135615Y0333295D02*
X0153726Y0333295D01*
X0153150Y0332296D02*
X0135039Y0332296D01*
X0134462Y0331298D02*
X0152573Y0331298D01*
X0151997Y0330299D02*
X0133886Y0330299D01*
X0133309Y0329301D02*
X0151420Y0329301D01*
X0150844Y0328302D02*
X0132733Y0328302D01*
X0132156Y0327304D02*
X0150267Y0327304D01*
X0149691Y0326305D02*
X0131580Y0326305D01*
X0131003Y0325307D02*
X0149114Y0325307D01*
X0148538Y0324308D02*
X0130427Y0324308D01*
X0129850Y0323310D02*
X0147961Y0323310D01*
X0147385Y0322311D02*
X0129274Y0322311D01*
X0130636Y0321313D02*
X0146808Y0321313D01*
X0146232Y0320314D02*
X0132365Y0320314D01*
X0135824Y0318317D02*
X0142163Y0318317D01*
X0141253Y0317318D02*
X0137554Y0317318D01*
X0139131Y0316320D02*
X0141253Y0316320D01*
X0141441Y0315321D02*
X0139210Y0315321D01*
X0138742Y0314323D02*
X0142440Y0314323D01*
X0141118Y0312951D02*
X0141118Y0312951D01*
X0140472Y0313324D02*
X0144466Y0313324D01*
X0144648Y0314323D02*
X0145043Y0314323D01*
X0143890Y0312326D02*
X0142201Y0312326D01*
X0142524Y0311327D02*
X0143313Y0311327D01*
X0143630Y0316408D02*
X0146226Y0317104D01*
X0143630Y0316408D02*
X0143544Y0316458D01*
X0151511Y0311327D02*
X0215516Y0311327D01*
X0215516Y0311219D02*
X0215187Y0311219D01*
X0215187Y0307219D01*
X0214187Y0307219D01*
X0214187Y0306219D01*
X0211187Y0306219D01*
X0210187Y0306219D01*
X0210187Y0302219D01*
X0211885Y0302219D01*
X0212187Y0302300D01*
X0212490Y0302219D01*
X0214187Y0302219D01*
X0214187Y0306219D01*
X0215187Y0306219D01*
X0215187Y0302219D01*
X0216885Y0302219D01*
X0217266Y0302321D01*
X0217608Y0302518D01*
X0217709Y0302619D01*
X0221666Y0302619D01*
X0221766Y0302518D01*
X0222108Y0302321D01*
X0222490Y0302219D01*
X0224187Y0302219D01*
X0224187Y0306219D01*
X0225187Y0306219D01*
X0225187Y0302219D01*
X0226885Y0302219D01*
X0227266Y0302321D01*
X0227608Y0302518D01*
X0227709Y0302619D01*
X0231666Y0302619D01*
X0231766Y0302518D01*
X0232108Y0302321D01*
X0232490Y0302219D01*
X0234187Y0302219D01*
X0234187Y0306219D01*
X0235187Y0306219D01*
X0235187Y0302219D01*
X0236885Y0302219D01*
X0237187Y0302300D01*
X0237490Y0302219D01*
X0239187Y0302219D01*
X0239187Y0306219D01*
X0236187Y0306219D01*
X0235187Y0306219D01*
X0235187Y0307219D01*
X0234187Y0307219D01*
X0234187Y0311219D01*
X0232490Y0311219D01*
X0232108Y0311117D01*
X0231766Y0310919D01*
X0231666Y0310819D01*
X0227709Y0310819D01*
X0227608Y0310919D01*
X0227266Y0311117D01*
X0226885Y0311219D01*
X0225187Y0311219D01*
X0225187Y0307219D01*
X0224187Y0307219D01*
X0224187Y0311219D01*
X0223779Y0311219D01*
X0223779Y0314384D01*
X0223790Y0314516D01*
X0223871Y0314768D01*
X0224027Y0314982D01*
X0224241Y0315138D01*
X0224493Y0315220D01*
X0224625Y0315230D01*
X0225447Y0315230D01*
X0225523Y0315262D01*
X0226324Y0315262D01*
X0226890Y0315828D01*
X0226966Y0315859D01*
X0228128Y0317021D01*
X0228159Y0317097D01*
X0228725Y0317663D01*
X0228725Y0318464D01*
X0228757Y0318540D01*
X0228757Y0329073D01*
X0228763Y0329087D01*
X0228763Y0330082D01*
X0229708Y0330082D01*
X0229708Y0335577D01*
X0226872Y0335577D01*
X0226872Y0333453D01*
X0225453Y0334041D01*
X0223810Y0334041D01*
X0222391Y0333453D01*
X0222391Y0335577D01*
X0219555Y0335577D01*
X0219555Y0336250D01*
X0222391Y0336250D01*
X0222391Y0338750D01*
X0226872Y0338750D01*
X0226872Y0336250D01*
X0229708Y0336250D01*
X0229708Y0335577D01*
X0230382Y0335577D01*
X0230382Y0336250D01*
X0233218Y0336250D01*
X0233218Y0340441D01*
X0233116Y0340823D01*
X0232918Y0341165D01*
X0232639Y0341444D01*
X0232297Y0341642D01*
X0231916Y0341744D01*
X0230382Y0341744D01*
X0230382Y0336250D01*
X0229708Y0336250D01*
X0229708Y0341744D01*
X0228174Y0341744D01*
X0227793Y0341642D01*
X0227700Y0341588D01*
X0227700Y0344440D01*
X0227056Y0345084D01*
X0222207Y0345084D01*
X0221563Y0344440D01*
X0221563Y0341588D01*
X0221470Y0341642D01*
X0221089Y0341744D01*
X0219555Y0341744D01*
X0219555Y0336250D01*
X0218881Y0336250D01*
X0218881Y0335577D01*
X0216045Y0335577D01*
X0216045Y0331385D01*
X0216147Y0331004D01*
X0216345Y0330661D01*
X0216624Y0330382D01*
X0216966Y0330185D01*
X0217347Y0330082D01*
X0218881Y0330082D01*
X0218881Y0335577D01*
X0219555Y0335577D01*
X0219555Y0330082D01*
X0220494Y0330082D01*
X0220494Y0322620D01*
X0220438Y0322602D01*
X0218104Y0320905D01*
X0216408Y0318571D01*
X0215516Y0315827D01*
X0215516Y0311219D01*
X0215187Y0310329D02*
X0214187Y0310329D01*
X0214187Y0311219D02*
X0212490Y0311219D01*
X0212187Y0311138D01*
X0211885Y0311219D01*
X0210187Y0311219D01*
X0210187Y0307219D01*
X0209187Y0307219D01*
X0209187Y0306219D01*
X0206187Y0306219D01*
X0206187Y0303521D01*
X0206290Y0303140D01*
X0206487Y0302798D01*
X0206766Y0302518D01*
X0207108Y0302321D01*
X0207490Y0302219D01*
X0209187Y0302219D01*
X0209187Y0306219D01*
X0210187Y0306219D01*
X0210187Y0307219D01*
X0214187Y0307219D01*
X0214187Y0311219D01*
X0215516Y0312326D02*
X0152088Y0312326D01*
X0152664Y0313324D02*
X0215516Y0313324D01*
X0215516Y0314323D02*
X0153241Y0314323D01*
X0153817Y0315321D02*
X0215516Y0315321D01*
X0215676Y0316320D02*
X0154394Y0316320D01*
X0154970Y0317318D02*
X0216001Y0317318D01*
X0216325Y0318317D02*
X0155547Y0318317D01*
X0156123Y0319316D02*
X0216949Y0319316D01*
X0216408Y0318571D02*
X0216408Y0318571D01*
X0217674Y0320314D02*
X0156700Y0320314D01*
X0157276Y0321313D02*
X0218664Y0321313D01*
X0218104Y0320905D02*
X0218104Y0320905D01*
X0218104Y0320905D01*
X0220038Y0322311D02*
X0157853Y0322311D01*
X0158429Y0323310D02*
X0220494Y0323310D01*
X0220438Y0322602D02*
X0220438Y0322602D01*
X0220494Y0324308D02*
X0159006Y0324308D01*
X0159582Y0325307D02*
X0220494Y0325307D01*
X0220494Y0326305D02*
X0160159Y0326305D01*
X0160735Y0327304D02*
X0220494Y0327304D01*
X0220494Y0328302D02*
X0161312Y0328302D01*
X0161888Y0329301D02*
X0220494Y0329301D01*
X0219555Y0330299D02*
X0218881Y0330299D01*
X0218881Y0331298D02*
X0219555Y0331298D01*
X0219555Y0332296D02*
X0218881Y0332296D01*
X0218881Y0333295D02*
X0219555Y0333295D01*
X0219555Y0334293D02*
X0218881Y0334293D01*
X0218881Y0335292D02*
X0219555Y0335292D01*
X0219555Y0336290D02*
X0218881Y0336290D01*
X0218881Y0336250D02*
X0218881Y0341744D01*
X0217347Y0341744D01*
X0216966Y0341642D01*
X0216624Y0341444D01*
X0216345Y0341165D01*
X0216147Y0340823D01*
X0216045Y0340441D01*
X0216045Y0336250D01*
X0218881Y0336250D01*
X0218881Y0337289D02*
X0219555Y0337289D01*
X0219555Y0338287D02*
X0218881Y0338287D01*
X0218881Y0339286D02*
X0219555Y0339286D01*
X0219555Y0340284D02*
X0218881Y0340284D01*
X0218881Y0341283D02*
X0219555Y0341283D01*
X0221563Y0342281D02*
X0169383Y0342281D01*
X0168806Y0341283D02*
X0216462Y0341283D01*
X0216045Y0340284D02*
X0168230Y0340284D01*
X0167653Y0339286D02*
X0216045Y0339286D01*
X0216045Y0338287D02*
X0167077Y0338287D01*
X0166500Y0337289D02*
X0216045Y0337289D01*
X0216045Y0336290D02*
X0165924Y0336290D01*
X0165347Y0335292D02*
X0216045Y0335292D01*
X0216045Y0334293D02*
X0164771Y0334293D01*
X0164194Y0333295D02*
X0216045Y0333295D01*
X0216045Y0332296D02*
X0163618Y0332296D01*
X0163041Y0331298D02*
X0216068Y0331298D01*
X0216768Y0330299D02*
X0162465Y0330299D01*
X0169959Y0343280D02*
X0208029Y0343280D01*
X0209284Y0345265D02*
X0204484Y0345265D01*
X0202837Y0346911D01*
X0197488Y0346911D01*
X0169728Y0346080D01*
X0137523Y0290298D01*
X0138158Y0287929D01*
X0133908Y0280568D01*
X0131585Y0279946D01*
X0114893Y0251054D01*
X0114926Y0251045D01*
X0145088Y0198803D01*
X0144244Y0195651D01*
X0145287Y0193845D01*
X0143388Y0192505D02*
X0143008Y0192505D01*
X0141243Y0189538D02*
X0141243Y0189538D01*
X0139424Y0199262D02*
X0139744Y0200455D01*
X0130648Y0216209D01*
X0110395Y0251220D01*
X0111171Y0252477D01*
X0142228Y0306248D01*
X0167526Y0350065D01*
X0214805Y0350654D01*
X0214815Y0350665D01*
X0232184Y0350665D01*
X0281853Y0350185D01*
X0313870Y0294729D01*
X0339710Y0249973D01*
X0339681Y0249863D01*
X0307969Y0194937D01*
X0309014Y0191040D01*
X0309006Y0191045D01*
X0307988Y0194845D01*
X0282788Y0151198D01*
X0219326Y0151198D01*
X0215434Y0147305D01*
X0215434Y0139102D01*
X0215397Y0139064D01*
X0211797Y0138585D02*
X0196142Y0138585D01*
X0196142Y0138886D02*
X0200658Y0138886D01*
X0200658Y0142099D01*
X0200555Y0142481D01*
X0200358Y0142823D01*
X0200079Y0143102D01*
X0199737Y0143300D01*
X0199355Y0143402D01*
X0196142Y0143402D01*
X0196142Y0138886D01*
X0196142Y0137918D01*
X0200658Y0137918D01*
X0200658Y0134704D01*
X0200555Y0134323D01*
X0200358Y0133981D01*
X0200079Y0133702D01*
X0199737Y0133504D01*
X0199355Y0133402D01*
X0196142Y0133402D01*
X0196142Y0137918D01*
X0195173Y0137918D01*
X0190658Y0137918D01*
X0190658Y0134704D01*
X0190760Y0134323D01*
X0190957Y0133981D01*
X0191237Y0133702D01*
X0191579Y0133504D01*
X0191960Y0133402D01*
X0195173Y0133402D01*
X0195173Y0137918D01*
X0195173Y0138886D01*
X0190658Y0138886D01*
X0190658Y0142099D01*
X0190760Y0142481D01*
X0190957Y0142823D01*
X0191237Y0143102D01*
X0191579Y0143300D01*
X0191960Y0143402D01*
X0195173Y0143402D01*
X0195173Y0138886D01*
X0196142Y0138886D01*
X0196142Y0139583D02*
X0195173Y0139583D01*
X0195173Y0138585D02*
X0174685Y0138585D01*
X0174685Y0138886D02*
X0179201Y0138886D01*
X0179201Y0142099D01*
X0179099Y0142481D01*
X0178901Y0142823D01*
X0178622Y0143102D01*
X0178280Y0143300D01*
X0177898Y0143402D01*
X0174685Y0143402D01*
X0174685Y0138886D01*
X0173717Y0138886D01*
X0173717Y0137918D01*
X0174685Y0137918D01*
X0174685Y0133402D01*
X0177898Y0133402D01*
X0178280Y0133504D01*
X0178622Y0133702D01*
X0178901Y0133981D01*
X0179099Y0134323D01*
X0179201Y0134704D01*
X0179201Y0137918D01*
X0174685Y0137918D01*
X0174685Y0138886D01*
X0174685Y0139583D02*
X0173717Y0139583D01*
X0173717Y0138886D02*
X0173717Y0143402D01*
X0170503Y0143402D01*
X0170122Y0143300D01*
X0169780Y0143102D01*
X0169501Y0142823D01*
X0169303Y0142481D01*
X0169201Y0142099D01*
X0169201Y0138886D01*
X0173717Y0138886D01*
X0173717Y0138585D02*
X0153941Y0138585D01*
X0154521Y0137586D02*
X0169201Y0137586D01*
X0169201Y0137918D02*
X0169201Y0134704D01*
X0169303Y0134323D01*
X0169501Y0133981D01*
X0169780Y0133702D01*
X0170122Y0133504D01*
X0170503Y0133402D01*
X0173717Y0133402D01*
X0173717Y0137918D01*
X0169201Y0137918D01*
X0169201Y0136588D02*
X0155101Y0136588D01*
X0155681Y0135589D02*
X0169201Y0135589D01*
X0169231Y0134591D02*
X0156261Y0134591D01*
X0156841Y0133592D02*
X0169969Y0133592D01*
X0173717Y0133592D02*
X0174685Y0133592D01*
X0174685Y0134591D02*
X0173717Y0134591D01*
X0173717Y0135589D02*
X0174685Y0135589D01*
X0174685Y0136588D02*
X0173717Y0136588D01*
X0173717Y0137586D02*
X0174685Y0137586D01*
X0174685Y0140582D02*
X0173717Y0140582D01*
X0173717Y0141580D02*
X0174685Y0141580D01*
X0174685Y0142579D02*
X0173717Y0142579D01*
X0174478Y0146573D02*
X0149300Y0146573D01*
X0148720Y0147572D02*
X0172680Y0147572D01*
X0175292Y0147572D02*
X0175473Y0147572D01*
X0175473Y0148570D02*
X0175292Y0148570D01*
X0175292Y0149569D02*
X0175473Y0149569D01*
X0175473Y0150567D02*
X0175292Y0150567D01*
X0175292Y0151566D02*
X0175473Y0151566D01*
X0175473Y0152564D02*
X0175292Y0152564D01*
X0175292Y0153563D02*
X0175473Y0153563D01*
X0177498Y0153563D02*
X0192361Y0153563D01*
X0191324Y0152564D02*
X0178535Y0152564D01*
X0179051Y0151566D02*
X0190808Y0151566D01*
X0190614Y0150567D02*
X0179244Y0150567D01*
X0179168Y0149569D02*
X0190690Y0149569D01*
X0191026Y0148570D02*
X0178833Y0148570D01*
X0178085Y0147572D02*
X0191774Y0147572D01*
X0193573Y0146573D02*
X0176286Y0146573D01*
X0175473Y0146573D02*
X0175292Y0146573D01*
X0179042Y0142579D02*
X0190817Y0142579D01*
X0190658Y0141580D02*
X0179201Y0141580D01*
X0179201Y0140582D02*
X0190658Y0140582D01*
X0190658Y0139583D02*
X0179201Y0139583D01*
X0179201Y0137586D02*
X0190658Y0137586D01*
X0190658Y0136588D02*
X0179201Y0136588D01*
X0179201Y0135589D02*
X0190658Y0135589D01*
X0190688Y0134591D02*
X0179171Y0134591D01*
X0178433Y0133592D02*
X0191426Y0133592D01*
X0195173Y0133592D02*
X0196142Y0133592D01*
X0196142Y0134591D02*
X0195173Y0134591D01*
X0195173Y0135589D02*
X0196142Y0135589D01*
X0196142Y0136588D02*
X0195173Y0136588D01*
X0195173Y0137586D02*
X0196142Y0137586D01*
X0196142Y0140582D02*
X0195173Y0140582D01*
X0195173Y0141580D02*
X0196142Y0141580D01*
X0196142Y0142579D02*
X0195173Y0142579D01*
X0200499Y0142579D02*
X0211797Y0142579D01*
X0211797Y0141580D02*
X0200658Y0141580D01*
X0200658Y0140582D02*
X0211797Y0140582D01*
X0211797Y0139583D02*
X0200658Y0139583D01*
X0200658Y0137586D02*
X0211797Y0137586D01*
X0211797Y0136588D02*
X0200658Y0136588D01*
X0200658Y0135589D02*
X0211797Y0135589D01*
X0211797Y0134591D02*
X0200627Y0134591D01*
X0199889Y0133592D02*
X0211813Y0133592D01*
X0211797Y0143578D02*
X0151041Y0143578D01*
X0150460Y0144576D02*
X0211853Y0144576D01*
X0213834Y0145575D02*
X0149880Y0145575D01*
X0151621Y0142579D02*
X0169360Y0142579D01*
X0169201Y0141580D02*
X0152201Y0141580D01*
X0152781Y0140582D02*
X0169201Y0140582D01*
X0169201Y0139583D02*
X0153361Y0139583D01*
X0153178Y0153563D02*
X0173267Y0153563D01*
X0180505Y0168540D02*
X0181393Y0168540D01*
X0184655Y0168540D02*
X0185893Y0168540D01*
X0189155Y0168540D02*
X0208334Y0168540D01*
X0207646Y0168803D02*
X0207646Y0168803D01*
X0207646Y0168803D01*
X0206910Y0169539D02*
X0189824Y0169539D01*
X0189824Y0170537D02*
X0205911Y0170537D01*
X0205637Y0170812D02*
X0205637Y0170812D01*
X0204913Y0171536D02*
X0190678Y0171536D01*
X0191677Y0172534D02*
X0204524Y0172534D01*
X0204524Y0173533D02*
X0192675Y0173533D01*
X0193674Y0174531D02*
X0202252Y0174531D01*
X0204296Y0174531D02*
X0204524Y0174531D01*
X0197524Y0185862D02*
X0194224Y0189162D01*
X0169724Y0189162D01*
X0161824Y0197062D01*
X0161824Y0202862D01*
X0160196Y0204487D02*
X0154952Y0204487D01*
X0155724Y0203488D02*
X0159524Y0203488D01*
X0159524Y0202490D02*
X0156100Y0202490D01*
X0157099Y0201491D02*
X0159942Y0201491D01*
X0160224Y0200493D02*
X0157474Y0200493D01*
X0157474Y0199494D02*
X0160224Y0199494D01*
X0160224Y0198496D02*
X0157474Y0198496D01*
X0157474Y0197497D02*
X0160224Y0197497D01*
X0160224Y0196499D02*
X0157474Y0196499D01*
X0157474Y0195500D02*
X0161123Y0195500D01*
X0162121Y0194502D02*
X0157474Y0194502D01*
X0157474Y0193503D02*
X0163120Y0193503D01*
X0164118Y0192505D02*
X0157474Y0192505D01*
X0157474Y0191506D02*
X0165117Y0191506D01*
X0166115Y0190508D02*
X0157474Y0190508D01*
X0157474Y0189509D02*
X0167114Y0189509D01*
X0168113Y0188511D02*
X0157474Y0188511D01*
X0164650Y0196499D02*
X0166324Y0196499D01*
X0166324Y0197497D02*
X0163651Y0197497D01*
X0163424Y0198496D02*
X0166324Y0198496D01*
X0166324Y0199494D02*
X0163424Y0199494D01*
X0163424Y0200493D02*
X0166240Y0200493D01*
X0165424Y0201491D02*
X0163706Y0201491D01*
X0164124Y0202490D02*
X0165424Y0202490D01*
X0165698Y0203488D02*
X0164124Y0203488D01*
X0163452Y0204487D02*
X0166696Y0204487D01*
X0169574Y0206484D02*
X0142501Y0206484D01*
X0141925Y0207482D02*
X0145974Y0207482D01*
X0144975Y0208481D02*
X0141348Y0208481D01*
X0140772Y0209479D02*
X0144667Y0209479D01*
X0144667Y0210478D02*
X0140195Y0210478D01*
X0139619Y0211476D02*
X0145457Y0211476D01*
X0148458Y0211476D02*
X0185587Y0211476D01*
X0185587Y0210478D02*
X0169539Y0210478D01*
X0170538Y0209479D02*
X0185394Y0209479D01*
X0185187Y0208481D02*
X0171536Y0208481D01*
X0172535Y0207482D02*
X0185187Y0207482D01*
X0185187Y0205485D02*
X0174532Y0205485D01*
X0175530Y0204487D02*
X0185197Y0204487D01*
X0189187Y0206484D02*
X0173533Y0206484D01*
X0168575Y0207482D02*
X0147942Y0207482D01*
X0139042Y0212475D02*
X0185587Y0212475D01*
X0185587Y0213473D02*
X0138466Y0213473D01*
X0137889Y0214472D02*
X0185587Y0214472D01*
X0185587Y0215470D02*
X0137313Y0215470D01*
X0136736Y0216469D02*
X0185587Y0216469D01*
X0185587Y0217467D02*
X0136160Y0217467D01*
X0135583Y0218466D02*
X0185587Y0218466D01*
X0185587Y0219464D02*
X0135007Y0219464D01*
X0134430Y0220463D02*
X0185587Y0220463D01*
X0185587Y0221461D02*
X0133854Y0221461D01*
X0133277Y0222460D02*
X0185587Y0222460D01*
X0185587Y0223458D02*
X0132701Y0223458D01*
X0132124Y0224457D02*
X0185587Y0224457D01*
X0185587Y0225455D02*
X0131548Y0225455D01*
X0130971Y0226454D02*
X0185587Y0226454D01*
X0185587Y0227452D02*
X0130395Y0227452D01*
X0129818Y0228451D02*
X0185587Y0228451D01*
X0185587Y0229449D02*
X0129242Y0229449D01*
X0128665Y0230448D02*
X0185587Y0230448D01*
X0185587Y0231447D02*
X0128089Y0231447D01*
X0127512Y0232445D02*
X0185587Y0232445D01*
X0185587Y0233444D02*
X0126936Y0233444D01*
X0126360Y0234442D02*
X0185587Y0234442D01*
X0185587Y0235441D02*
X0125783Y0235441D01*
X0125207Y0236439D02*
X0185587Y0236439D01*
X0185587Y0237438D02*
X0124630Y0237438D01*
X0124054Y0238436D02*
X0185587Y0238436D01*
X0185211Y0239435D02*
X0123477Y0239435D01*
X0122901Y0240433D02*
X0185187Y0240433D01*
X0185187Y0242430D02*
X0121748Y0242430D01*
X0122324Y0241432D02*
X0189187Y0241432D01*
X0190187Y0241432D02*
X0216050Y0241432D01*
X0216050Y0242430D02*
X0194187Y0242430D01*
X0194187Y0243429D02*
X0216050Y0243429D01*
X0216050Y0244427D02*
X0194010Y0244427D01*
X0193787Y0245426D02*
X0216050Y0245426D01*
X0216050Y0246424D02*
X0193787Y0246424D01*
X0193787Y0247423D02*
X0216050Y0247423D01*
X0216050Y0248421D02*
X0193787Y0248421D01*
X0193787Y0249420D02*
X0216050Y0249420D01*
X0216050Y0250418D02*
X0193787Y0250418D01*
X0193787Y0251417D02*
X0216050Y0251417D01*
X0216050Y0252415D02*
X0193787Y0252415D01*
X0193787Y0253414D02*
X0216050Y0253414D01*
X0216050Y0254412D02*
X0194158Y0254412D01*
X0194187Y0255411D02*
X0216050Y0255411D01*
X0216050Y0256409D02*
X0190187Y0256409D01*
X0189187Y0256409D02*
X0184876Y0256409D01*
X0185187Y0255411D02*
X0182716Y0255411D01*
X0183183Y0254412D02*
X0185217Y0254412D01*
X0185587Y0253414D02*
X0183344Y0253414D01*
X0183344Y0252415D02*
X0185587Y0252415D01*
X0185587Y0251417D02*
X0180360Y0251417D01*
X0179391Y0251417D02*
X0116950Y0251417D01*
X0117136Y0250418D02*
X0176407Y0250418D01*
X0176407Y0251082D02*
X0176407Y0249204D01*
X0176509Y0248822D01*
X0176707Y0248480D01*
X0176986Y0248201D01*
X0177328Y0248004D01*
X0177709Y0247901D01*
X0179391Y0247901D01*
X0179391Y0251082D01*
X0176407Y0251082D01*
X0176407Y0252415D02*
X0117527Y0252415D01*
X0118104Y0253414D02*
X0176407Y0253414D01*
X0176568Y0254412D02*
X0118681Y0254412D01*
X0119258Y0255411D02*
X0177035Y0255411D01*
X0176274Y0256409D02*
X0119835Y0256409D01*
X0120412Y0257408D02*
X0175750Y0257408D01*
X0175750Y0258342D02*
X0175750Y0258342D01*
X0175750Y0258406D02*
X0120989Y0258406D01*
X0121565Y0259405D02*
X0175750Y0259405D01*
X0175750Y0260403D02*
X0122142Y0260403D01*
X0122719Y0261402D02*
X0175750Y0261402D01*
X0175628Y0262400D02*
X0123296Y0262400D01*
X0123873Y0263399D02*
X0175121Y0263399D01*
X0175121Y0264397D02*
X0124450Y0264397D01*
X0125027Y0265396D02*
X0175121Y0265396D01*
X0175121Y0266394D02*
X0125604Y0266394D01*
X0126181Y0267393D02*
X0175121Y0267393D01*
X0175121Y0268391D02*
X0126758Y0268391D01*
X0127334Y0269390D02*
X0175575Y0269390D01*
X0174790Y0270388D02*
X0127911Y0270388D01*
X0128488Y0271387D02*
X0174721Y0271387D01*
X0174721Y0272385D02*
X0129065Y0272385D01*
X0129642Y0273384D02*
X0178674Y0273384D01*
X0178674Y0274383D02*
X0179674Y0274383D01*
X0179674Y0275381D02*
X0178674Y0275381D01*
X0178674Y0276380D02*
X0179674Y0276380D01*
X0179674Y0277378D02*
X0178674Y0277378D01*
X0175714Y0277378D02*
X0131950Y0277378D01*
X0132527Y0278377D02*
X0185587Y0278377D01*
X0185587Y0279375D02*
X0135066Y0279375D01*
X0134962Y0279194D02*
X0134962Y0279194D01*
X0134962Y0279194D01*
X0135643Y0280374D02*
X0185587Y0280374D01*
X0185587Y0281372D02*
X0136219Y0281372D01*
X0136796Y0282371D02*
X0185587Y0282371D01*
X0185587Y0283369D02*
X0137372Y0283369D01*
X0137949Y0284368D02*
X0185587Y0284368D01*
X0185587Y0285366D02*
X0138525Y0285366D01*
X0139832Y0286365D02*
X0185587Y0286365D01*
X0185587Y0287363D02*
X0140448Y0287363D01*
X0140448Y0288362D02*
X0185587Y0288362D01*
X0185587Y0289360D02*
X0139966Y0289360D01*
X0139405Y0290359D02*
X0185587Y0290359D01*
X0185587Y0291357D02*
X0139982Y0291357D01*
X0140558Y0292356D02*
X0185587Y0292356D01*
X0185587Y0293354D02*
X0141135Y0293354D01*
X0141711Y0294353D02*
X0185587Y0294353D01*
X0185587Y0295351D02*
X0142288Y0295351D01*
X0142864Y0296350D02*
X0185587Y0296350D01*
X0185587Y0297348D02*
X0143441Y0297348D01*
X0144017Y0298347D02*
X0185587Y0298347D01*
X0185235Y0299345D02*
X0144594Y0299345D01*
X0145170Y0300344D02*
X0185187Y0300344D01*
X0185187Y0302219D02*
X0189187Y0302219D01*
X0189187Y0305219D01*
X0186490Y0305219D01*
X0186108Y0305117D01*
X0185766Y0304919D01*
X0185487Y0304640D01*
X0185290Y0304298D01*
X0185187Y0303916D01*
X0185187Y0302219D01*
X0185187Y0302341D02*
X0146323Y0302341D01*
X0146899Y0303339D02*
X0185187Y0303339D01*
X0185313Y0304338D02*
X0147476Y0304338D01*
X0148052Y0305336D02*
X0206187Y0305336D01*
X0206187Y0304338D02*
X0194062Y0304338D01*
X0194085Y0304298D02*
X0193888Y0304640D01*
X0193608Y0304919D01*
X0193266Y0305117D01*
X0192885Y0305219D01*
X0190187Y0305219D01*
X0190187Y0302219D01*
X0194187Y0302219D01*
X0194187Y0303916D01*
X0194085Y0304298D01*
X0194187Y0303339D02*
X0206236Y0303339D01*
X0207074Y0302341D02*
X0194187Y0302341D01*
X0194187Y0300344D02*
X0255187Y0300344D01*
X0255235Y0299345D02*
X0194140Y0299345D01*
X0193787Y0298347D02*
X0255587Y0298347D01*
X0255587Y0297348D02*
X0193787Y0297348D01*
X0193787Y0296350D02*
X0255587Y0296350D01*
X0255587Y0295351D02*
X0193787Y0295351D01*
X0193787Y0294353D02*
X0255587Y0294353D01*
X0255587Y0293354D02*
X0193787Y0293354D01*
X0193787Y0292356D02*
X0255587Y0292356D01*
X0255587Y0291357D02*
X0193787Y0291357D01*
X0193787Y0290359D02*
X0255587Y0290359D01*
X0255587Y0289360D02*
X0193787Y0289360D01*
X0193787Y0288362D02*
X0255587Y0288362D01*
X0255587Y0287363D02*
X0193787Y0287363D01*
X0193787Y0286365D02*
X0255587Y0286365D01*
X0255587Y0285366D02*
X0193787Y0285366D01*
X0193787Y0284368D02*
X0255587Y0284368D01*
X0255587Y0283369D02*
X0193787Y0283369D01*
X0193787Y0282371D02*
X0236453Y0282371D01*
X0235454Y0281372D02*
X0193787Y0281372D01*
X0193787Y0280374D02*
X0234456Y0280374D01*
X0233457Y0279375D02*
X0193787Y0279375D01*
X0193787Y0278377D02*
X0232459Y0278377D01*
X0231460Y0277378D02*
X0193787Y0277378D01*
X0193787Y0276380D02*
X0230462Y0276380D01*
X0229463Y0275381D02*
X0193787Y0275381D01*
X0193787Y0274383D02*
X0228465Y0274383D01*
X0227466Y0273384D02*
X0193787Y0273384D01*
X0193787Y0272385D02*
X0226468Y0272385D01*
X0225469Y0271387D02*
X0193787Y0271387D01*
X0193787Y0270388D02*
X0224471Y0270388D01*
X0223472Y0269390D02*
X0193787Y0269390D01*
X0193787Y0268391D02*
X0222474Y0268391D01*
X0221475Y0267393D02*
X0193787Y0267393D01*
X0193787Y0266394D02*
X0220477Y0266394D01*
X0219478Y0265396D02*
X0193787Y0265396D01*
X0194150Y0264397D02*
X0218480Y0264397D01*
X0217481Y0263399D02*
X0206191Y0263399D01*
X0207189Y0262400D02*
X0216483Y0262400D01*
X0216050Y0261402D02*
X0207250Y0261402D01*
X0207218Y0260403D02*
X0216050Y0260403D01*
X0216050Y0259405D02*
X0206220Y0259405D01*
X0203680Y0259405D02*
X0194121Y0259405D01*
X0194187Y0258406D02*
X0216050Y0258406D01*
X0216050Y0257408D02*
X0194187Y0257408D01*
X0194150Y0263399D02*
X0203708Y0263399D01*
X0218850Y0260403D02*
X0227025Y0260403D01*
X0227025Y0259405D02*
X0218850Y0259405D01*
X0218850Y0258406D02*
X0227025Y0258406D01*
X0227025Y0257408D02*
X0218850Y0257408D01*
X0218850Y0256409D02*
X0227025Y0256409D01*
X0227025Y0255411D02*
X0218850Y0255411D01*
X0218850Y0254412D02*
X0227025Y0254412D01*
X0227025Y0253414D02*
X0218850Y0253414D01*
X0218850Y0252415D02*
X0227025Y0252415D01*
X0227025Y0251417D02*
X0218850Y0251417D01*
X0218850Y0250418D02*
X0227025Y0250418D01*
X0227025Y0249420D02*
X0218850Y0249420D01*
X0218850Y0248421D02*
X0227025Y0248421D01*
X0227025Y0247423D02*
X0218850Y0247423D01*
X0218850Y0246424D02*
X0227025Y0246424D01*
X0227011Y0245426D02*
X0218850Y0245426D01*
X0218850Y0244427D02*
X0226425Y0244427D01*
X0226425Y0243429D02*
X0218850Y0243429D01*
X0218850Y0242430D02*
X0226930Y0242430D01*
X0227025Y0241432D02*
X0218850Y0241432D01*
X0218850Y0240433D02*
X0227025Y0240433D01*
X0227025Y0239435D02*
X0218850Y0239435D01*
X0218850Y0238436D02*
X0227025Y0238436D01*
X0227025Y0237438D02*
X0218850Y0237438D01*
X0218850Y0236439D02*
X0227025Y0236439D01*
X0227025Y0235441D02*
X0218850Y0235441D01*
X0218850Y0234442D02*
X0227025Y0234442D01*
X0227025Y0233444D02*
X0218850Y0233444D01*
X0218850Y0232445D02*
X0227025Y0232445D01*
X0227025Y0231447D02*
X0218850Y0231447D01*
X0218850Y0230448D02*
X0227025Y0230448D01*
X0227025Y0229449D02*
X0218850Y0229449D01*
X0218850Y0228451D02*
X0227025Y0228451D01*
X0226400Y0227452D02*
X0218850Y0227452D01*
X0218850Y0226454D02*
X0226400Y0226454D01*
X0226425Y0225659D02*
X0226425Y0225659D01*
X0226629Y0225455D02*
X0218850Y0225455D01*
X0218850Y0224457D02*
X0227000Y0224457D01*
X0227000Y0223458D02*
X0218850Y0223458D01*
X0218850Y0222460D02*
X0227000Y0222460D01*
X0227000Y0221461D02*
X0218850Y0221461D01*
X0218850Y0220463D02*
X0227000Y0220463D01*
X0227000Y0219464D02*
X0218850Y0219464D01*
X0218850Y0218466D02*
X0227000Y0218466D01*
X0227000Y0217467D02*
X0218850Y0217467D01*
X0218850Y0216469D02*
X0227000Y0216469D01*
X0227000Y0215470D02*
X0218850Y0215470D01*
X0218850Y0214472D02*
X0227000Y0214472D01*
X0227000Y0213473D02*
X0218850Y0213473D01*
X0218850Y0212475D02*
X0227000Y0212475D01*
X0227000Y0211476D02*
X0218850Y0211476D01*
X0218850Y0210478D02*
X0227000Y0210478D01*
X0227000Y0209479D02*
X0218850Y0209479D01*
X0218909Y0208481D02*
X0221890Y0208481D01*
X0220165Y0207482D02*
X0219908Y0207482D01*
X0221129Y0204487D02*
X0221398Y0204487D01*
X0220130Y0203488D02*
X0243998Y0203488D01*
X0243300Y0202490D02*
X0219132Y0202490D01*
X0218133Y0201491D02*
X0243274Y0201491D01*
X0245900Y0204487D02*
X0231252Y0204487D01*
X0232250Y0205485D02*
X0245900Y0205485D01*
X0245074Y0206484D02*
X0232300Y0206484D01*
X0232258Y0207482D02*
X0244075Y0207482D01*
X0243077Y0208481D02*
X0231259Y0208481D01*
X0230400Y0209479D02*
X0242078Y0209479D01*
X0241079Y0210478D02*
X0230400Y0210478D01*
X0230400Y0211476D02*
X0240081Y0211476D01*
X0239082Y0212475D02*
X0230400Y0212475D01*
X0230400Y0213473D02*
X0238084Y0213473D01*
X0237085Y0214472D02*
X0230400Y0214472D01*
X0230400Y0215470D02*
X0236087Y0215470D01*
X0235088Y0216469D02*
X0230400Y0216469D01*
X0230400Y0217467D02*
X0234090Y0217467D01*
X0234000Y0218466D02*
X0230400Y0218466D01*
X0230400Y0219464D02*
X0234000Y0219464D01*
X0234000Y0220463D02*
X0230400Y0220463D01*
X0230400Y0221461D02*
X0234000Y0221461D01*
X0234000Y0222460D02*
X0230400Y0222460D01*
X0230400Y0223458D02*
X0234000Y0223458D01*
X0233228Y0224457D02*
X0230400Y0224457D01*
X0230822Y0225455D02*
X0233100Y0225455D01*
X0233100Y0226454D02*
X0231025Y0226454D01*
X0231025Y0227452D02*
X0234062Y0227452D01*
X0236737Y0227452D02*
X0255587Y0227452D01*
X0255587Y0226454D02*
X0237700Y0226454D01*
X0237700Y0225455D02*
X0255587Y0225455D01*
X0255587Y0224457D02*
X0237572Y0224457D01*
X0236800Y0223458D02*
X0255587Y0223458D01*
X0255587Y0222460D02*
X0236800Y0222460D01*
X0236800Y0221461D02*
X0255587Y0221461D01*
X0255587Y0220463D02*
X0236800Y0220463D01*
X0236800Y0219464D02*
X0255587Y0219464D01*
X0255587Y0218466D02*
X0237051Y0218466D01*
X0238050Y0217467D02*
X0255587Y0217467D01*
X0255587Y0216469D02*
X0239048Y0216469D01*
X0240047Y0215470D02*
X0255587Y0215470D01*
X0255587Y0214472D02*
X0241045Y0214472D01*
X0242044Y0213473D02*
X0255587Y0213473D01*
X0255587Y0212475D02*
X0243042Y0212475D01*
X0244041Y0211476D02*
X0255587Y0211476D01*
X0255587Y0210478D02*
X0245039Y0210478D01*
X0246038Y0209479D02*
X0255394Y0209479D01*
X0255187Y0208481D02*
X0247036Y0208481D01*
X0249308Y0207482D02*
X0255187Y0207482D01*
X0255187Y0205485D02*
X0250500Y0205485D01*
X0250500Y0204487D02*
X0255197Y0204487D01*
X0255819Y0203488D02*
X0252402Y0203488D01*
X0250306Y0206484D02*
X0259187Y0206484D01*
X0260187Y0206484D02*
X0268393Y0206484D01*
X0267700Y0205485D02*
X0264187Y0205485D01*
X0264178Y0204487D02*
X0267669Y0204487D01*
X0266671Y0203488D02*
X0263556Y0203488D01*
X0264187Y0207482D02*
X0276082Y0207482D01*
X0276100Y0208481D02*
X0264187Y0208481D01*
X0263980Y0209479D02*
X0276100Y0209479D01*
X0276462Y0210478D02*
X0263787Y0210478D01*
X0263787Y0211476D02*
X0277197Y0211476D01*
X0278953Y0212475D02*
X0263787Y0212475D01*
X0263787Y0215470D02*
X0312037Y0215470D01*
X0312617Y0216469D02*
X0263787Y0216469D01*
X0263787Y0217467D02*
X0313103Y0217467D01*
X0313103Y0218466D02*
X0263787Y0218466D01*
X0263787Y0219464D02*
X0313540Y0219464D01*
X0314923Y0220463D02*
X0263787Y0220463D01*
X0263787Y0221461D02*
X0315499Y0221461D01*
X0315877Y0222115D02*
X0315877Y0222115D01*
X0316076Y0222460D02*
X0263787Y0222460D01*
X0263787Y0223458D02*
X0317269Y0223458D01*
X0317820Y0223606D02*
X0317820Y0223606D01*
X0318784Y0224457D02*
X0263787Y0224457D01*
X0263787Y0225455D02*
X0319360Y0225455D01*
X0319937Y0226454D02*
X0263787Y0226454D01*
X0263787Y0227452D02*
X0320513Y0227452D01*
X0321090Y0228451D02*
X0263787Y0228451D01*
X0263787Y0229449D02*
X0321666Y0229449D01*
X0322243Y0230448D02*
X0263787Y0230448D01*
X0263787Y0231447D02*
X0322819Y0231447D01*
X0323396Y0232445D02*
X0263787Y0232445D01*
X0263787Y0233444D02*
X0323972Y0233444D01*
X0324549Y0234442D02*
X0264166Y0234442D01*
X0264187Y0235441D02*
X0325125Y0235441D01*
X0325702Y0236439D02*
X0260187Y0236439D01*
X0259187Y0236439D02*
X0230425Y0236439D01*
X0230425Y0235441D02*
X0255187Y0235441D01*
X0255209Y0234442D02*
X0230425Y0234442D01*
X0230425Y0233444D02*
X0255587Y0233444D01*
X0255587Y0232445D02*
X0230425Y0232445D01*
X0230425Y0231447D02*
X0255587Y0231447D01*
X0255587Y0230448D02*
X0230425Y0230448D01*
X0230425Y0229449D02*
X0255587Y0229449D01*
X0255587Y0228451D02*
X0230425Y0228451D01*
X0230425Y0237438D02*
X0255187Y0237438D01*
X0255187Y0238436D02*
X0230425Y0238436D01*
X0230425Y0239435D02*
X0255369Y0239435D01*
X0255587Y0240433D02*
X0230425Y0240433D01*
X0230425Y0241432D02*
X0255587Y0241432D01*
X0255587Y0242430D02*
X0230521Y0242430D01*
X0231025Y0243429D02*
X0255587Y0243429D01*
X0255587Y0244427D02*
X0231025Y0244427D01*
X0230440Y0245426D02*
X0255587Y0245426D01*
X0255587Y0246424D02*
X0230425Y0246424D01*
X0230425Y0247423D02*
X0255587Y0247423D01*
X0255587Y0248421D02*
X0230425Y0248421D01*
X0230425Y0249420D02*
X0255587Y0249420D01*
X0255587Y0250418D02*
X0230425Y0250418D01*
X0230425Y0251417D02*
X0255587Y0251417D01*
X0255587Y0252415D02*
X0230425Y0252415D01*
X0230425Y0253414D02*
X0255587Y0253414D01*
X0255587Y0254412D02*
X0230425Y0254412D01*
X0230425Y0255411D02*
X0255587Y0255411D01*
X0255587Y0256409D02*
X0230425Y0256409D01*
X0230425Y0257408D02*
X0255587Y0257408D01*
X0255587Y0258406D02*
X0230425Y0258406D01*
X0230471Y0259405D02*
X0255587Y0259405D01*
X0255587Y0260403D02*
X0231470Y0260403D01*
X0232468Y0261402D02*
X0255587Y0261402D01*
X0255587Y0262400D02*
X0233467Y0262400D01*
X0234465Y0263399D02*
X0255587Y0263399D01*
X0255587Y0264397D02*
X0235464Y0264397D01*
X0236462Y0265396D02*
X0255587Y0265396D01*
X0255587Y0266394D02*
X0237461Y0266394D01*
X0238459Y0267393D02*
X0255587Y0267393D01*
X0255587Y0268391D02*
X0239458Y0268391D01*
X0240456Y0269390D02*
X0255587Y0269390D01*
X0255587Y0273384D02*
X0231426Y0273384D01*
X0230428Y0272385D02*
X0238644Y0272385D01*
X0237645Y0271387D02*
X0229429Y0271387D01*
X0228431Y0270388D02*
X0236647Y0270388D01*
X0235648Y0269390D02*
X0227432Y0269390D01*
X0226434Y0268391D02*
X0234650Y0268391D01*
X0233651Y0267393D02*
X0225435Y0267393D01*
X0224437Y0266394D02*
X0232652Y0266394D01*
X0231654Y0265396D02*
X0223438Y0265396D01*
X0222440Y0264397D02*
X0230655Y0264397D01*
X0229657Y0263399D02*
X0221441Y0263399D01*
X0220442Y0262400D02*
X0228658Y0262400D01*
X0227660Y0261402D02*
X0219444Y0261402D01*
X0232425Y0274383D02*
X0255225Y0274383D01*
X0255187Y0275381D02*
X0233423Y0275381D01*
X0234422Y0276380D02*
X0259187Y0276380D01*
X0260187Y0276380D02*
X0266610Y0276380D01*
X0266610Y0277378D02*
X0264187Y0277378D01*
X0264187Y0278377D02*
X0317021Y0278377D01*
X0316447Y0279375D02*
X0273141Y0279375D01*
X0273141Y0280374D02*
X0315873Y0280374D01*
X0315299Y0281372D02*
X0273141Y0281372D01*
X0273141Y0282371D02*
X0314725Y0282371D01*
X0314151Y0283369D02*
X0273141Y0283369D01*
X0272957Y0284368D02*
X0313578Y0284368D01*
X0313004Y0285366D02*
X0263787Y0285366D01*
X0263787Y0284368D02*
X0266794Y0284368D01*
X0263787Y0286365D02*
X0312430Y0286365D01*
X0311856Y0287363D02*
X0263787Y0287363D01*
X0263787Y0288362D02*
X0311282Y0288362D01*
X0310708Y0289360D02*
X0263787Y0289360D01*
X0263787Y0290359D02*
X0310134Y0290359D01*
X0309560Y0291357D02*
X0263787Y0291357D01*
X0263787Y0292356D02*
X0308986Y0292356D01*
X0308412Y0293354D02*
X0263787Y0293354D01*
X0263787Y0294353D02*
X0307838Y0294353D01*
X0307264Y0295351D02*
X0263787Y0295351D01*
X0263787Y0296350D02*
X0306690Y0296350D01*
X0306116Y0297348D02*
X0263787Y0297348D01*
X0263787Y0298347D02*
X0305543Y0298347D01*
X0304969Y0299345D02*
X0264140Y0299345D01*
X0264187Y0300344D02*
X0304395Y0300344D01*
X0303821Y0301342D02*
X0260187Y0301342D01*
X0260187Y0302219D02*
X0264187Y0302219D01*
X0264187Y0303916D01*
X0264085Y0304298D01*
X0263888Y0304640D01*
X0263608Y0304919D01*
X0263266Y0305117D01*
X0262885Y0305219D01*
X0260187Y0305219D01*
X0260187Y0302219D01*
X0260187Y0302341D02*
X0259187Y0302341D01*
X0259187Y0302219D02*
X0259187Y0305219D01*
X0256490Y0305219D01*
X0256108Y0305117D01*
X0255766Y0304919D01*
X0255487Y0304640D01*
X0255290Y0304298D01*
X0255187Y0303916D01*
X0255187Y0302219D01*
X0259187Y0302219D01*
X0259187Y0301342D02*
X0190187Y0301342D01*
X0190187Y0302341D02*
X0189187Y0302341D01*
X0189187Y0303339D02*
X0190187Y0303339D01*
X0190187Y0304338D02*
X0189187Y0304338D01*
X0189187Y0301342D02*
X0145747Y0301342D01*
X0148629Y0306335D02*
X0209187Y0306335D01*
X0209187Y0307219D02*
X0206187Y0307219D01*
X0206187Y0309916D01*
X0206290Y0310298D01*
X0206487Y0310640D01*
X0206766Y0310919D01*
X0207108Y0311117D01*
X0207490Y0311219D01*
X0209187Y0311219D01*
X0209187Y0307219D01*
X0209187Y0307333D02*
X0210187Y0307333D01*
X0210187Y0306335D02*
X0214187Y0306335D01*
X0214187Y0307333D02*
X0215187Y0307333D01*
X0215187Y0308332D02*
X0214187Y0308332D01*
X0214187Y0309330D02*
X0215187Y0309330D01*
X0215187Y0305336D02*
X0214187Y0305336D01*
X0214187Y0304338D02*
X0215187Y0304338D01*
X0215187Y0303339D02*
X0214187Y0303339D01*
X0214187Y0302341D02*
X0215187Y0302341D01*
X0217301Y0302341D02*
X0222074Y0302341D01*
X0224187Y0302341D02*
X0225187Y0302341D01*
X0225187Y0303339D02*
X0224187Y0303339D01*
X0224187Y0304338D02*
X0225187Y0304338D01*
X0225187Y0305336D02*
X0224187Y0305336D01*
X0224187Y0307333D02*
X0225187Y0307333D01*
X0225187Y0308332D02*
X0224187Y0308332D01*
X0224187Y0309330D02*
X0225187Y0309330D01*
X0225187Y0310329D02*
X0224187Y0310329D01*
X0223779Y0311327D02*
X0296511Y0311327D01*
X0296866Y0310329D02*
X0243067Y0310329D01*
X0243085Y0310298D02*
X0242888Y0310640D01*
X0242608Y0310919D01*
X0242266Y0311117D01*
X0241885Y0311219D01*
X0240187Y0311219D01*
X0240187Y0307219D01*
X0239187Y0307219D01*
X0239187Y0306219D01*
X0240187Y0306219D01*
X0240187Y0302219D01*
X0241885Y0302219D01*
X0242266Y0302321D01*
X0242608Y0302518D01*
X0242888Y0302798D01*
X0243085Y0303140D01*
X0243187Y0303521D01*
X0243187Y0306219D01*
X0240187Y0306219D01*
X0240187Y0307219D01*
X0243187Y0307219D01*
X0243187Y0309916D01*
X0243085Y0310298D01*
X0243187Y0309330D02*
X0296866Y0309330D01*
X0297530Y0308332D02*
X0243187Y0308332D01*
X0243187Y0307333D02*
X0298813Y0307333D01*
X0300306Y0307953D02*
X0302132Y0307491D01*
X0324532Y0268520D01*
X0335280Y0249903D01*
X0335303Y0249897D01*
X0331327Y0242983D01*
X0319433Y0222382D01*
X0317594Y0221889D01*
X0315394Y0218078D01*
X0313344Y0214528D01*
X0313856Y0212715D01*
X0320369Y0209479D02*
X0329250Y0209479D01*
X0328674Y0208481D02*
X0326066Y0208481D01*
X0324646Y0209301D02*
X0328022Y0207352D01*
X0330255Y0211219D01*
X0330255Y0212935D01*
X0331597Y0214277D01*
X0333494Y0214277D01*
X0334836Y0212935D01*
X0334836Y0211038D01*
X0333494Y0209696D01*
X0333070Y0209696D01*
X0330793Y0205752D01*
X0334095Y0203845D01*
X0334294Y0203102D01*
X0361781Y0250710D01*
X0334027Y0298484D01*
X0333817Y0297702D01*
X0324368Y0292246D01*
X0323488Y0292482D01*
X0322793Y0293685D01*
X0319240Y0291634D01*
X0319195Y0291646D01*
X0317187Y0292184D01*
X0320373Y0286665D01*
X0320373Y0287978D01*
X0321715Y0289319D01*
X0323613Y0289319D01*
X0324954Y0287978D01*
X0324954Y0286080D01*
X0323915Y0285041D01*
X0343279Y0251503D01*
X0343481Y0251386D01*
X0343598Y0250949D01*
X0343824Y0250558D01*
X0343764Y0250332D01*
X0343824Y0250106D01*
X0343598Y0249714D01*
X0343481Y0249277D01*
X0343279Y0249160D01*
X0316120Y0202120D01*
X0316120Y0202120D01*
X0316687Y0200005D01*
X0318072Y0199205D01*
X0318765Y0200405D01*
X0319646Y0200641D01*
X0329095Y0195185D01*
X0329294Y0194442D01*
X0331239Y0197809D01*
X0330495Y0197610D01*
X0321046Y0203066D01*
X0320810Y0203946D01*
X0323765Y0209065D01*
X0324646Y0209301D01*
X0323428Y0208481D02*
X0319792Y0208481D01*
X0319216Y0207482D02*
X0322851Y0207482D01*
X0322275Y0206484D02*
X0318639Y0206484D01*
X0318063Y0205485D02*
X0321698Y0205485D01*
X0321122Y0204487D02*
X0317486Y0204487D01*
X0316910Y0203488D02*
X0320932Y0203488D01*
X0322043Y0202490D02*
X0316333Y0202490D01*
X0316288Y0201491D02*
X0323773Y0201491D01*
X0325502Y0200493D02*
X0319902Y0200493D01*
X0319093Y0200493D02*
X0316556Y0200493D01*
X0317571Y0199494D02*
X0318240Y0199494D01*
X0315313Y0198951D02*
X0314403Y0202346D01*
X0311459Y0197247D01*
X0311895Y0195619D01*
X0315313Y0198951D02*
X0322529Y0194784D01*
X0322570Y0194795D01*
X0322532Y0194785D01*
X0325090Y0197497D02*
X0331058Y0197497D01*
X0330482Y0196499D02*
X0326820Y0196499D01*
X0328549Y0195500D02*
X0329905Y0195500D01*
X0329329Y0194502D02*
X0329278Y0194502D01*
X0328961Y0198496D02*
X0323361Y0198496D01*
X0321631Y0199494D02*
X0327231Y0199494D01*
X0327570Y0203455D02*
X0327629Y0203471D01*
X0332545Y0211986D01*
X0334276Y0210478D02*
X0338553Y0210478D01*
X0339129Y0211476D02*
X0334836Y0211476D01*
X0334836Y0212475D02*
X0339706Y0212475D01*
X0340282Y0213473D02*
X0334298Y0213473D01*
X0330793Y0213473D02*
X0322675Y0213473D01*
X0322098Y0212475D02*
X0330255Y0212475D01*
X0330255Y0211476D02*
X0321522Y0211476D01*
X0320945Y0210478D02*
X0329827Y0210478D01*
X0332369Y0208481D02*
X0337400Y0208481D01*
X0337976Y0209479D02*
X0332945Y0209479D01*
X0331792Y0207482D02*
X0336823Y0207482D01*
X0336247Y0206484D02*
X0331216Y0206484D01*
X0331255Y0205485D02*
X0335670Y0205485D01*
X0335094Y0204487D02*
X0332984Y0204487D01*
X0334191Y0203488D02*
X0334517Y0203488D01*
X0328097Y0207482D02*
X0327796Y0207482D01*
X0323251Y0214472D02*
X0340859Y0214472D01*
X0341435Y0215470D02*
X0323828Y0215470D01*
X0324404Y0216469D02*
X0342012Y0216469D01*
X0342588Y0217467D02*
X0324981Y0217467D01*
X0325557Y0218466D02*
X0343165Y0218466D01*
X0343741Y0219464D02*
X0326134Y0219464D01*
X0326710Y0220463D02*
X0344318Y0220463D01*
X0344894Y0221461D02*
X0327287Y0221461D01*
X0327863Y0222460D02*
X0345471Y0222460D01*
X0346047Y0223458D02*
X0328440Y0223458D01*
X0329016Y0224457D02*
X0346624Y0224457D01*
X0347200Y0225455D02*
X0329593Y0225455D01*
X0330169Y0226454D02*
X0347777Y0226454D01*
X0348353Y0227452D02*
X0330746Y0227452D01*
X0331322Y0228451D02*
X0348930Y0228451D01*
X0349506Y0229449D02*
X0331899Y0229449D01*
X0332475Y0230448D02*
X0350083Y0230448D01*
X0350659Y0231447D02*
X0333052Y0231447D01*
X0333628Y0232445D02*
X0351236Y0232445D01*
X0351812Y0233444D02*
X0334205Y0233444D01*
X0334781Y0234442D02*
X0352389Y0234442D01*
X0352965Y0235441D02*
X0335357Y0235441D01*
X0335934Y0236439D02*
X0353542Y0236439D01*
X0354118Y0237438D02*
X0336510Y0237438D01*
X0337087Y0238436D02*
X0354695Y0238436D01*
X0355271Y0239435D02*
X0337663Y0239435D01*
X0338240Y0240433D02*
X0355847Y0240433D01*
X0356424Y0241432D02*
X0338816Y0241432D01*
X0339393Y0242430D02*
X0357000Y0242430D01*
X0357577Y0243429D02*
X0339969Y0243429D01*
X0340546Y0244427D02*
X0358153Y0244427D01*
X0358730Y0245426D02*
X0341122Y0245426D01*
X0341699Y0246424D02*
X0359306Y0246424D01*
X0359883Y0247423D02*
X0342275Y0247423D01*
X0342852Y0248421D02*
X0360459Y0248421D01*
X0361036Y0249420D02*
X0343519Y0249420D01*
X0343787Y0250418D02*
X0361612Y0250418D01*
X0361370Y0251417D02*
X0343428Y0251417D01*
X0342752Y0252415D02*
X0360790Y0252415D01*
X0360210Y0253414D02*
X0342176Y0253414D01*
X0341599Y0254412D02*
X0359630Y0254412D01*
X0359050Y0255411D02*
X0341023Y0255411D01*
X0340446Y0256409D02*
X0358470Y0256409D01*
X0357890Y0257408D02*
X0339870Y0257408D01*
X0339293Y0258406D02*
X0357310Y0258406D01*
X0356730Y0259405D02*
X0338717Y0259405D01*
X0338140Y0260403D02*
X0356150Y0260403D01*
X0355569Y0261402D02*
X0337564Y0261402D01*
X0336987Y0262400D02*
X0354989Y0262400D01*
X0354409Y0263399D02*
X0336411Y0263399D01*
X0335834Y0264397D02*
X0353829Y0264397D01*
X0353249Y0265396D02*
X0335258Y0265396D01*
X0334681Y0266394D02*
X0352669Y0266394D01*
X0352089Y0267393D02*
X0334105Y0267393D01*
X0333528Y0268391D02*
X0351509Y0268391D01*
X0350929Y0269390D02*
X0332952Y0269390D01*
X0332375Y0270388D02*
X0350349Y0270388D01*
X0349769Y0271387D02*
X0331799Y0271387D01*
X0331222Y0272385D02*
X0349189Y0272385D01*
X0348609Y0273384D02*
X0330646Y0273384D01*
X0330069Y0274383D02*
X0348028Y0274383D01*
X0347448Y0275381D02*
X0329493Y0275381D01*
X0328916Y0276380D02*
X0346868Y0276380D01*
X0346288Y0277378D02*
X0328340Y0277378D01*
X0327763Y0278377D02*
X0345708Y0278377D01*
X0345128Y0279375D02*
X0327187Y0279375D01*
X0326610Y0280374D02*
X0344548Y0280374D01*
X0343968Y0281372D02*
X0326034Y0281372D01*
X0325457Y0282371D02*
X0343388Y0282371D01*
X0342808Y0283369D02*
X0324881Y0283369D01*
X0324304Y0284368D02*
X0342228Y0284368D01*
X0341648Y0285366D02*
X0324240Y0285366D01*
X0324954Y0286365D02*
X0341068Y0286365D01*
X0340488Y0287363D02*
X0324954Y0287363D01*
X0324570Y0288362D02*
X0339907Y0288362D01*
X0339327Y0289360D02*
X0318817Y0289360D01*
X0319394Y0288362D02*
X0320757Y0288362D01*
X0320373Y0287363D02*
X0319970Y0287363D01*
X0322664Y0287029D02*
X0322111Y0284966D01*
X0342107Y0250332D01*
X0314403Y0202346D01*
X0309014Y0191040D02*
X0317529Y0186124D01*
X0317570Y0186135D01*
X0316633Y0182519D02*
X0305025Y0182519D01*
X0304448Y0181521D02*
X0318362Y0181521D01*
X0320091Y0180522D02*
X0303872Y0180522D01*
X0303295Y0179524D02*
X0320682Y0179524D01*
X0320495Y0180289D02*
X0321239Y0180489D01*
X0293752Y0132880D01*
X0238417Y0133029D01*
X0238997Y0133609D01*
X0238997Y0137505D01*
X0242395Y0137506D01*
X0243086Y0136815D01*
X0244983Y0136815D01*
X0246325Y0138157D01*
X0246325Y0140054D01*
X0244983Y0141396D01*
X0243086Y0141396D01*
X0242395Y0140705D01*
X0238997Y0140705D01*
X0238997Y0144520D01*
X0238352Y0145164D01*
X0232441Y0145164D01*
X0231797Y0144520D01*
X0231797Y0133609D01*
X0232360Y0133046D01*
X0228444Y0133056D01*
X0228997Y0133609D01*
X0228997Y0144520D01*
X0228352Y0145164D01*
X0227040Y0145164D01*
X0227040Y0145412D01*
X0227376Y0145412D01*
X0228724Y0146760D01*
X0228724Y0147707D01*
X0283603Y0147671D01*
X0283847Y0147545D01*
X0284241Y0147670D01*
X0284654Y0147670D01*
X0284848Y0147864D01*
X0285110Y0147947D01*
X0285299Y0148314D01*
X0285592Y0148607D01*
X0285592Y0148861D01*
X0306515Y0185101D01*
X0308094Y0185101D01*
X0309435Y0186443D01*
X0309435Y0188340D01*
X0308094Y0189682D01*
X0306854Y0189682D01*
X0307442Y0190700D01*
X0307460Y0190631D01*
X0307631Y0189991D01*
X0307632Y0189991D01*
X0307632Y0189991D01*
X0307640Y0189986D01*
X0308190Y0189668D01*
X0308215Y0189654D01*
X0308786Y0189324D01*
X0308787Y0189324D01*
X0308788Y0189323D01*
X0311472Y0187773D01*
X0310810Y0186625D01*
X0311046Y0185745D01*
X0320495Y0180289D01*
X0320105Y0178525D02*
X0302719Y0178525D01*
X0302142Y0177527D02*
X0319529Y0177527D01*
X0318952Y0176528D02*
X0301566Y0176528D01*
X0300989Y0175530D02*
X0318376Y0175530D01*
X0317799Y0174531D02*
X0300413Y0174531D01*
X0299836Y0173533D02*
X0317223Y0173533D01*
X0316646Y0172534D02*
X0299260Y0172534D01*
X0298683Y0171536D02*
X0316070Y0171536D01*
X0315493Y0170537D02*
X0298107Y0170537D01*
X0297530Y0169539D02*
X0314917Y0169539D01*
X0314340Y0168540D02*
X0296954Y0168540D01*
X0296377Y0167542D02*
X0313764Y0167542D01*
X0313187Y0166543D02*
X0295801Y0166543D01*
X0295225Y0165545D02*
X0312611Y0165545D01*
X0312034Y0164546D02*
X0294648Y0164546D01*
X0294072Y0163548D02*
X0311458Y0163548D01*
X0310881Y0162549D02*
X0293495Y0162549D01*
X0292919Y0161551D02*
X0310305Y0161551D01*
X0309728Y0160552D02*
X0292342Y0160552D01*
X0291766Y0159554D02*
X0309152Y0159554D01*
X0308575Y0158555D02*
X0291189Y0158555D01*
X0290613Y0157557D02*
X0307999Y0157557D01*
X0307422Y0156558D02*
X0290036Y0156558D01*
X0289460Y0155560D02*
X0306846Y0155560D01*
X0306269Y0154561D02*
X0288883Y0154561D01*
X0288307Y0153563D02*
X0305693Y0153563D01*
X0305116Y0152564D02*
X0287730Y0152564D01*
X0287154Y0151566D02*
X0304540Y0151566D01*
X0303963Y0150567D02*
X0286577Y0150567D01*
X0286001Y0149569D02*
X0303387Y0149569D01*
X0302810Y0148570D02*
X0285555Y0148570D01*
X0283992Y0149270D02*
X0284089Y0149457D01*
X0305779Y0187025D01*
X0307145Y0187392D01*
X0309435Y0187512D02*
X0311322Y0187512D01*
X0310840Y0186514D02*
X0309435Y0186514D01*
X0308508Y0185515D02*
X0311444Y0185515D01*
X0313174Y0184516D02*
X0306178Y0184516D01*
X0305601Y0183518D02*
X0314903Y0183518D01*
X0310195Y0188511D02*
X0309265Y0188511D01*
X0308788Y0189323D02*
X0308788Y0189323D01*
X0308466Y0189509D02*
X0308267Y0189509D01*
X0307640Y0189986D02*
X0307640Y0189986D01*
X0307640Y0189986D01*
X0307493Y0190508D02*
X0307331Y0190508D01*
X0289725Y0188962D02*
X0285200Y0193487D01*
X0285150Y0193437D01*
X0275400Y0193437D01*
X0272941Y0190978D01*
X0267791Y0190978D01*
X0270300Y0193837D02*
X0273200Y0196737D01*
X0273200Y0202337D01*
X0274400Y0203537D01*
X0276700Y0203537D01*
X0278400Y0205237D01*
X0283500Y0205237D01*
X0284100Y0205837D01*
X0286650Y0205837D01*
X0289700Y0208887D01*
X0287197Y0211476D02*
X0282202Y0211476D01*
X0282938Y0210478D02*
X0286462Y0210478D01*
X0286100Y0209479D02*
X0283300Y0209479D01*
X0283300Y0208481D02*
X0286100Y0208481D01*
X0286032Y0207482D02*
X0283014Y0207482D01*
X0279700Y0208837D02*
X0276100Y0205237D01*
X0273800Y0205237D01*
X0271400Y0202837D01*
X0271400Y0197437D01*
X0269700Y0195737D01*
X0237900Y0195737D01*
X0234150Y0191987D01*
X0234150Y0189287D01*
X0230950Y0189287D02*
X0230950Y0192087D01*
X0237000Y0198137D01*
X0247700Y0198137D01*
X0249800Y0198137D01*
X0268348Y0198137D01*
X0270300Y0193837D02*
X0253400Y0193837D01*
X0251900Y0192337D01*
X0267791Y0186978D02*
X0267791Y0185546D01*
X0269500Y0183837D01*
X0269391Y0183946D01*
X0271800Y0183518D02*
X0282583Y0183518D01*
X0282583Y0182519D02*
X0280543Y0182519D01*
X0278907Y0182519D02*
X0271434Y0182519D01*
X0271800Y0184516D02*
X0282827Y0184516D01*
X0283826Y0185515D02*
X0281767Y0185515D01*
X0282900Y0186514D02*
X0287082Y0186514D01*
X0286429Y0187512D02*
X0283454Y0187512D01*
X0283695Y0189509D02*
X0286125Y0189509D01*
X0286125Y0188511D02*
X0280225Y0188511D01*
X0280225Y0187512D02*
X0279225Y0187512D01*
X0279225Y0186514D02*
X0280225Y0186514D01*
X0280225Y0185515D02*
X0279225Y0185515D01*
X0277684Y0185515D02*
X0271391Y0185515D01*
X0271391Y0186514D02*
X0276550Y0186514D01*
X0275996Y0187512D02*
X0271391Y0187512D01*
X0271391Y0188511D02*
X0279225Y0188511D01*
X0275756Y0189509D02*
X0273734Y0189509D01*
X0274733Y0190508D02*
X0276036Y0190508D01*
X0275731Y0191506D02*
X0276615Y0191506D01*
X0274201Y0194502D02*
X0273227Y0194502D01*
X0273203Y0193503D02*
X0272228Y0193503D01*
X0274225Y0195500D02*
X0277706Y0195500D01*
X0276560Y0196499D02*
X0274800Y0196499D01*
X0274800Y0197497D02*
X0276002Y0197497D01*
X0274800Y0198496D02*
X0279225Y0198496D01*
X0279225Y0199494D02*
X0280225Y0199494D01*
X0280225Y0199462D02*
X0280225Y0202941D01*
X0280892Y0202808D01*
X0281620Y0202506D01*
X0282275Y0202069D01*
X0282832Y0201512D01*
X0283270Y0200856D01*
X0283572Y0200129D01*
X0283704Y0199462D01*
X0280225Y0199462D01*
X0280225Y0198496D02*
X0286125Y0198496D01*
X0286125Y0199494D02*
X0283698Y0199494D01*
X0283421Y0200493D02*
X0285932Y0200493D01*
X0283593Y0201491D02*
X0282846Y0201491D01*
X0282700Y0202490D02*
X0281645Y0202490D01*
X0280225Y0202490D02*
X0279225Y0202490D01*
X0279225Y0201491D02*
X0280225Y0201491D01*
X0280225Y0200493D02*
X0279225Y0200493D01*
X0276605Y0201491D02*
X0274800Y0201491D01*
X0274800Y0200493D02*
X0276030Y0200493D01*
X0275753Y0199494D02*
X0274800Y0199494D01*
X0278913Y0203488D02*
X0282700Y0203488D01*
X0285000Y0203337D02*
X0285350Y0203337D01*
X0289725Y0198962D01*
X0286435Y0197497D02*
X0283448Y0197497D01*
X0282890Y0196499D02*
X0287097Y0196499D01*
X0288675Y0195500D02*
X0281744Y0195500D01*
X0285200Y0193537D02*
X0285200Y0193487D01*
X0284918Y0191506D02*
X0282836Y0191506D01*
X0283415Y0190508D02*
X0285917Y0190508D01*
X0288445Y0192505D02*
X0288871Y0192505D01*
X0288639Y0185515D02*
X0285941Y0185515D01*
X0284883Y0183320D02*
X0284883Y0180071D01*
X0283700Y0178887D01*
X0283663Y0178924D01*
X0279865Y0178924D01*
X0279725Y0178962D01*
X0279800Y0178887D01*
X0282257Y0181521D02*
X0283283Y0181521D01*
X0277193Y0181521D02*
X0274503Y0181521D01*
X0271324Y0176562D02*
X0271024Y0176262D01*
X0237824Y0176262D01*
X0235824Y0178262D01*
X0232566Y0182370D02*
X0231158Y0180962D01*
X0228658Y0180962D01*
X0228624Y0180962D01*
X0223724Y0176062D01*
X0225446Y0174531D02*
X0227000Y0174531D01*
X0226255Y0175530D02*
X0226024Y0175530D01*
X0233178Y0198496D02*
X0200153Y0198496D01*
X0199154Y0199494D02*
X0234176Y0199494D01*
X0235175Y0200493D02*
X0174208Y0200493D01*
X0174024Y0199494D02*
X0182904Y0199494D01*
X0182524Y0198496D02*
X0174024Y0198496D01*
X0174024Y0197497D02*
X0182524Y0197497D01*
X0183234Y0196499D02*
X0174024Y0196499D01*
X0174024Y0195500D02*
X0198623Y0195500D01*
X0197624Y0196499D02*
X0186414Y0196499D01*
X0184824Y0198162D02*
X0198224Y0198162D01*
X0202024Y0194362D01*
X0205500Y0204487D02*
X0194178Y0204487D01*
X0194187Y0205485D02*
X0205500Y0205485D01*
X0205693Y0206484D02*
X0190187Y0206484D01*
X0194187Y0207482D02*
X0206400Y0207482D01*
X0206400Y0208481D02*
X0194187Y0208481D01*
X0193980Y0209479D02*
X0206400Y0209479D01*
X0206400Y0210478D02*
X0193787Y0210478D01*
X0193787Y0211476D02*
X0206400Y0211476D01*
X0206400Y0212475D02*
X0193787Y0212475D01*
X0193787Y0213473D02*
X0205811Y0213473D01*
X0205500Y0214472D02*
X0193787Y0214472D01*
X0193787Y0215470D02*
X0205500Y0215470D01*
X0206278Y0216469D02*
X0193787Y0216469D01*
X0193787Y0217467D02*
X0216050Y0217467D01*
X0216050Y0216469D02*
X0209321Y0216469D01*
X0210100Y0215470D02*
X0216050Y0215470D01*
X0216050Y0214472D02*
X0210100Y0214472D01*
X0209788Y0213473D02*
X0216050Y0213473D01*
X0216050Y0212475D02*
X0209200Y0212475D01*
X0209200Y0211476D02*
X0216050Y0211476D01*
X0216050Y0210478D02*
X0209200Y0210478D01*
X0209200Y0209479D02*
X0216050Y0209479D01*
X0216050Y0208481D02*
X0209200Y0208481D01*
X0209200Y0207482D02*
X0215892Y0207482D01*
X0215600Y0206484D02*
X0209906Y0206484D01*
X0210100Y0205485D02*
X0215600Y0205485D01*
X0216398Y0204487D02*
X0210100Y0204487D01*
X0224402Y0204487D02*
X0228748Y0204487D01*
X0227749Y0205485D02*
X0225200Y0205485D01*
X0225200Y0206484D02*
X0227599Y0206484D01*
X0227000Y0207482D02*
X0224908Y0207482D01*
X0223909Y0208481D02*
X0227000Y0208481D01*
X0216050Y0218466D02*
X0193787Y0218466D01*
X0193787Y0219464D02*
X0216050Y0219464D01*
X0216050Y0220463D02*
X0193787Y0220463D01*
X0193787Y0221461D02*
X0216050Y0221461D01*
X0216050Y0222460D02*
X0193787Y0222460D01*
X0193787Y0223458D02*
X0216050Y0223458D01*
X0216050Y0224457D02*
X0193787Y0224457D01*
X0193787Y0225455D02*
X0216050Y0225455D01*
X0216050Y0226454D02*
X0193787Y0226454D01*
X0193787Y0227452D02*
X0216050Y0227452D01*
X0216050Y0228451D02*
X0193787Y0228451D01*
X0193787Y0229449D02*
X0194835Y0229449D01*
X0196964Y0229449D02*
X0216050Y0229449D01*
X0216050Y0230448D02*
X0197963Y0230448D01*
X0198200Y0231447D02*
X0216050Y0231447D01*
X0216050Y0232445D02*
X0198200Y0232445D01*
X0197346Y0233444D02*
X0216050Y0233444D01*
X0216050Y0234442D02*
X0196857Y0234442D01*
X0197855Y0235441D02*
X0216050Y0235441D01*
X0216050Y0236439D02*
X0198200Y0236439D01*
X0198200Y0237438D02*
X0216050Y0237438D01*
X0216050Y0238436D02*
X0197454Y0238436D01*
X0194346Y0238436D02*
X0193787Y0238436D01*
X0194164Y0239435D02*
X0216050Y0239435D01*
X0216050Y0240433D02*
X0194187Y0240433D01*
X0193787Y0234442D02*
X0194942Y0234442D01*
X0194453Y0233444D02*
X0193787Y0233444D01*
X0185187Y0243429D02*
X0121171Y0243429D01*
X0120595Y0244427D02*
X0185364Y0244427D01*
X0185587Y0245426D02*
X0120018Y0245426D01*
X0119442Y0246424D02*
X0185587Y0246424D01*
X0185587Y0247423D02*
X0118865Y0247423D01*
X0118289Y0248421D02*
X0176766Y0248421D01*
X0176407Y0249420D02*
X0117712Y0249420D01*
X0108269Y0251182D02*
X0127203Y0218386D01*
X0126653Y0216334D01*
X0128031Y0214472D02*
X0129804Y0214472D01*
X0129227Y0215470D02*
X0128944Y0215470D01*
X0130648Y0216209D02*
X0131934Y0213986D01*
X0130287Y0208039D01*
X0129026Y0209479D02*
X0126789Y0209479D01*
X0127365Y0208481D02*
X0127852Y0208481D01*
X0165648Y0195500D02*
X0166324Y0195500D01*
X0149970Y0153563D02*
X0149278Y0153563D01*
X0225440Y0146728D02*
X0225440Y0146462D01*
X0226424Y0147446D01*
X0226424Y0147712D01*
X0225440Y0146728D02*
X0228018Y0149307D01*
X0283992Y0149270D01*
X0283931Y0147572D02*
X0302234Y0147572D01*
X0301657Y0146573D02*
X0228537Y0146573D01*
X0228724Y0147572D02*
X0283795Y0147572D01*
X0297045Y0138585D02*
X0246325Y0138585D01*
X0246325Y0139583D02*
X0297622Y0139583D01*
X0298198Y0140582D02*
X0245797Y0140582D01*
X0244034Y0139106D02*
X0235438Y0139105D01*
X0235397Y0139064D01*
X0231797Y0138585D02*
X0228997Y0138585D01*
X0228997Y0139583D02*
X0231797Y0139583D01*
X0231797Y0140582D02*
X0228997Y0140582D01*
X0228997Y0141580D02*
X0231797Y0141580D01*
X0231797Y0142579D02*
X0228997Y0142579D01*
X0228997Y0143578D02*
X0231797Y0143578D01*
X0231853Y0144576D02*
X0228941Y0144576D01*
X0227539Y0145575D02*
X0301081Y0145575D01*
X0300504Y0144576D02*
X0238941Y0144576D01*
X0238997Y0143578D02*
X0299928Y0143578D01*
X0299351Y0142579D02*
X0238997Y0142579D01*
X0238997Y0141580D02*
X0298775Y0141580D01*
X0296469Y0137586D02*
X0245755Y0137586D01*
X0238997Y0136588D02*
X0295892Y0136588D01*
X0295316Y0135589D02*
X0238997Y0135589D01*
X0238997Y0134591D02*
X0294739Y0134591D01*
X0294163Y0133592D02*
X0238980Y0133592D01*
X0231813Y0133592D02*
X0228980Y0133592D01*
X0228997Y0134591D02*
X0231797Y0134591D01*
X0231797Y0135589D02*
X0228997Y0135589D01*
X0228997Y0136588D02*
X0231797Y0136588D01*
X0231797Y0137586D02*
X0228997Y0137586D01*
X0225440Y0139107D02*
X0225397Y0139064D01*
X0225440Y0139107D02*
X0225440Y0146462D01*
X0285561Y0172534D02*
X0288771Y0172534D01*
X0289348Y0173533D02*
X0286559Y0173533D01*
X0286325Y0173299D02*
X0286325Y0173299D01*
X0287558Y0174531D02*
X0289926Y0174531D01*
X0288603Y0175530D02*
X0288556Y0175530D01*
X0288460Y0202490D02*
X0288835Y0202490D01*
X0288250Y0205175D02*
X0288250Y0205175D01*
X0288953Y0212475D02*
X0280446Y0212475D01*
X0279700Y0208887D02*
X0279700Y0208837D01*
X0272783Y0206484D02*
X0271606Y0206484D01*
X0272200Y0205900D02*
X0272200Y0205900D01*
X0264187Y0237438D02*
X0326278Y0237438D01*
X0326855Y0238436D02*
X0264187Y0238436D01*
X0264006Y0239435D02*
X0327431Y0239435D01*
X0328007Y0240433D02*
X0263787Y0240433D01*
X0263787Y0241432D02*
X0328584Y0241432D01*
X0329160Y0242430D02*
X0263787Y0242430D01*
X0263787Y0243429D02*
X0329737Y0243429D01*
X0330312Y0244427D02*
X0263787Y0244427D01*
X0263787Y0245426D02*
X0330886Y0245426D01*
X0331460Y0246424D02*
X0263787Y0246424D01*
X0263787Y0247423D02*
X0332034Y0247423D01*
X0332609Y0248421D02*
X0263787Y0248421D01*
X0263787Y0249420D02*
X0333183Y0249420D01*
X0333136Y0250418D02*
X0263787Y0250418D01*
X0263787Y0251417D02*
X0332559Y0251417D01*
X0331983Y0252415D02*
X0263787Y0252415D01*
X0263787Y0253414D02*
X0331406Y0253414D01*
X0330830Y0254412D02*
X0263787Y0254412D01*
X0263787Y0255411D02*
X0330253Y0255411D01*
X0329677Y0256409D02*
X0263787Y0256409D01*
X0263787Y0257408D02*
X0329100Y0257408D01*
X0328524Y0258406D02*
X0263787Y0258406D01*
X0263787Y0259405D02*
X0327947Y0259405D01*
X0327371Y0260403D02*
X0263787Y0260403D01*
X0263787Y0261402D02*
X0326794Y0261402D01*
X0326218Y0262400D02*
X0263787Y0262400D01*
X0263787Y0263399D02*
X0325641Y0263399D01*
X0325065Y0264397D02*
X0263787Y0264397D01*
X0263787Y0265396D02*
X0324488Y0265396D01*
X0323912Y0266394D02*
X0263787Y0266394D01*
X0263787Y0267393D02*
X0323334Y0267393D01*
X0322760Y0268391D02*
X0263787Y0268391D01*
X0263787Y0269390D02*
X0322186Y0269390D01*
X0321613Y0270388D02*
X0269855Y0270388D01*
X0270853Y0271387D02*
X0321039Y0271387D01*
X0320465Y0272385D02*
X0272884Y0272385D01*
X0273141Y0273384D02*
X0319891Y0273384D01*
X0319317Y0274383D02*
X0273141Y0274383D01*
X0273141Y0275381D02*
X0318743Y0275381D01*
X0318169Y0276380D02*
X0273141Y0276380D01*
X0273141Y0277378D02*
X0317595Y0277378D01*
X0318241Y0290359D02*
X0338747Y0290359D01*
X0338167Y0291357D02*
X0317664Y0291357D01*
X0319014Y0293351D02*
X0327247Y0298104D01*
X0327293Y0298092D01*
X0329746Y0295351D02*
X0335847Y0295351D01*
X0336427Y0294353D02*
X0328016Y0294353D01*
X0326287Y0293354D02*
X0337007Y0293354D01*
X0337587Y0292356D02*
X0324557Y0292356D01*
X0323960Y0292356D02*
X0320490Y0292356D01*
X0319014Y0293351D02*
X0313870Y0294729D01*
X0313805Y0298773D02*
X0316264Y0298114D01*
X0313805Y0298773D02*
X0311105Y0303449D01*
X0314793Y0302461D01*
X0322247Y0306764D01*
X0322293Y0306752D01*
X0321288Y0310329D02*
X0315688Y0310329D01*
X0314368Y0309567D02*
X0323817Y0315023D01*
X0324007Y0315731D01*
X0325940Y0312404D01*
X0325217Y0312598D01*
X0315768Y0307142D01*
X0315532Y0306262D01*
X0316193Y0305117D01*
X0314567Y0304178D01*
X0312110Y0304837D01*
X0284631Y0352431D01*
X0284634Y0352654D01*
X0284311Y0352985D01*
X0284080Y0353385D01*
X0283865Y0353443D01*
X0283709Y0353603D01*
X0283247Y0353609D01*
X0282800Y0353728D01*
X0282607Y0353617D01*
X0240755Y0354156D01*
X0240474Y0354437D01*
X0240474Y0355313D01*
X0239133Y0356655D01*
X0237235Y0356655D01*
X0236525Y0355945D01*
X0236525Y0356067D01*
X0236543Y0356086D01*
X0236525Y0356726D01*
X0236525Y0357005D01*
X0237708Y0357005D01*
X0238352Y0357649D01*
X0238352Y0368561D01*
X0237843Y0369070D01*
X0293107Y0368921D01*
X0320903Y0321074D01*
X0320217Y0321258D01*
X0316844Y0319310D01*
X0315582Y0321496D01*
X0315582Y0323212D01*
X0314240Y0324553D01*
X0312342Y0324553D01*
X0311001Y0323212D01*
X0311001Y0321314D01*
X0312342Y0319972D01*
X0312766Y0319972D01*
X0314072Y0317710D01*
X0310768Y0315802D01*
X0310532Y0314922D01*
X0313488Y0309803D01*
X0314368Y0309567D01*
X0313184Y0310329D02*
X0308939Y0310329D01*
X0309515Y0309330D02*
X0319558Y0309330D01*
X0317829Y0308332D02*
X0310092Y0308332D01*
X0310668Y0307333D02*
X0316099Y0307333D01*
X0315552Y0306335D02*
X0311245Y0306335D01*
X0311821Y0305336D02*
X0316066Y0305336D01*
X0314844Y0304338D02*
X0313971Y0304338D01*
X0311105Y0303449D02*
X0311055Y0303463D01*
X0283026Y0352011D01*
X0240084Y0352565D01*
X0238284Y0354365D01*
X0238184Y0354365D01*
X0239527Y0356260D02*
X0300462Y0356260D01*
X0301042Y0355262D02*
X0240474Y0355262D01*
X0240648Y0354263D02*
X0301622Y0354263D01*
X0302202Y0353265D02*
X0284150Y0353265D01*
X0284726Y0352266D02*
X0302783Y0352266D01*
X0303363Y0351268D02*
X0285303Y0351268D01*
X0285879Y0350269D02*
X0303943Y0350269D01*
X0304523Y0349271D02*
X0286456Y0349271D01*
X0287032Y0348272D02*
X0305103Y0348272D01*
X0305683Y0347274D02*
X0287609Y0347274D01*
X0288185Y0346275D02*
X0306263Y0346275D01*
X0306843Y0345277D02*
X0288762Y0345277D01*
X0289338Y0344278D02*
X0307423Y0344278D01*
X0308003Y0343280D02*
X0289915Y0343280D01*
X0290491Y0342281D02*
X0308583Y0342281D01*
X0309163Y0341283D02*
X0291068Y0341283D01*
X0291644Y0340284D02*
X0309743Y0340284D01*
X0310324Y0339286D02*
X0292221Y0339286D01*
X0292797Y0338287D02*
X0310904Y0338287D01*
X0311484Y0337289D02*
X0293373Y0337289D01*
X0293950Y0336290D02*
X0312064Y0336290D01*
X0312644Y0335292D02*
X0294526Y0335292D01*
X0295103Y0334293D02*
X0313224Y0334293D01*
X0313804Y0333295D02*
X0295679Y0333295D01*
X0296256Y0332296D02*
X0314384Y0332296D01*
X0314964Y0331298D02*
X0296832Y0331298D01*
X0297409Y0330299D02*
X0315544Y0330299D01*
X0316124Y0329301D02*
X0297985Y0329301D01*
X0298562Y0328302D02*
X0316704Y0328302D01*
X0317284Y0327304D02*
X0299138Y0327304D01*
X0299715Y0326305D02*
X0317865Y0326305D01*
X0318445Y0325307D02*
X0300291Y0325307D01*
X0300868Y0324308D02*
X0312097Y0324308D01*
X0311098Y0323310D02*
X0301444Y0323310D01*
X0302021Y0322311D02*
X0311001Y0322311D01*
X0311002Y0321313D02*
X0302597Y0321313D01*
X0303174Y0320314D02*
X0312001Y0320314D01*
X0313145Y0319316D02*
X0303750Y0319316D01*
X0304327Y0318317D02*
X0313722Y0318317D01*
X0313394Y0317318D02*
X0304903Y0317318D01*
X0305480Y0316320D02*
X0311665Y0316320D01*
X0310639Y0315321D02*
X0306056Y0315321D01*
X0306633Y0314323D02*
X0310878Y0314323D01*
X0311455Y0313324D02*
X0307209Y0313324D01*
X0307786Y0312326D02*
X0312031Y0312326D01*
X0312608Y0311327D02*
X0308362Y0311327D01*
X0300306Y0307953D02*
X0299156Y0309945D01*
X0296806Y0314016D01*
X0297293Y0315831D01*
X0279653Y0346385D01*
X0213384Y0346865D01*
X0211784Y0345265D01*
X0209284Y0345265D01*
X0210538Y0343280D02*
X0221563Y0343280D01*
X0221563Y0344278D02*
X0213060Y0344278D01*
X0213384Y0344602D02*
X0213384Y0344602D01*
X0212447Y0343665D02*
X0212447Y0343665D01*
X0212447Y0343665D01*
X0205147Y0343665D02*
X0205147Y0343665D01*
X0203207Y0344278D02*
X0170536Y0344278D01*
X0148875Y0356260D02*
X0223141Y0356260D01*
X0223141Y0355262D02*
X0148298Y0355262D01*
X0149451Y0357259D02*
X0211542Y0357259D01*
X0211152Y0358257D02*
X0150028Y0358257D01*
X0150604Y0359256D02*
X0211152Y0359256D01*
X0211152Y0360254D02*
X0151181Y0360254D01*
X0151757Y0361253D02*
X0204156Y0361253D01*
X0203293Y0362252D02*
X0152334Y0362252D01*
X0152910Y0363250D02*
X0203293Y0363250D01*
X0203528Y0364249D02*
X0153487Y0364249D01*
X0154063Y0365247D02*
X0204527Y0365247D01*
X0206641Y0365247D02*
X0211152Y0365247D01*
X0211152Y0366246D02*
X0154640Y0366246D01*
X0155216Y0367244D02*
X0211152Y0367244D01*
X0211152Y0368243D02*
X0155793Y0368243D01*
X0156369Y0369241D02*
X0174099Y0369241D01*
X0196355Y0345277D02*
X0202209Y0345277D01*
X0207012Y0361253D02*
X0211152Y0361253D01*
X0214712Y0363065D02*
X0205584Y0363065D01*
X0214712Y0363065D02*
X0214752Y0363105D01*
X0218352Y0364249D02*
X0221152Y0364249D01*
X0221152Y0365247D02*
X0218352Y0365247D01*
X0218352Y0366246D02*
X0221152Y0366246D01*
X0221152Y0367244D02*
X0218352Y0367244D01*
X0218352Y0368243D02*
X0221152Y0368243D01*
X0234752Y0363105D02*
X0234925Y0356705D01*
X0234925Y0353406D01*
X0232184Y0350665D01*
X0228784Y0354365D02*
X0226987Y0352568D01*
X0223284Y0352568D01*
X0227700Y0344278D02*
X0279021Y0344278D01*
X0279598Y0343280D02*
X0227700Y0343280D01*
X0227700Y0342281D02*
X0280174Y0342281D01*
X0280751Y0341283D02*
X0232801Y0341283D01*
X0233218Y0340284D02*
X0281327Y0340284D01*
X0281904Y0339286D02*
X0233218Y0339286D01*
X0233218Y0338287D02*
X0282480Y0338287D01*
X0283057Y0337289D02*
X0233218Y0337289D01*
X0233218Y0336290D02*
X0283633Y0336290D01*
X0284210Y0335292D02*
X0233218Y0335292D01*
X0233218Y0335577D02*
X0230382Y0335577D01*
X0230382Y0330082D01*
X0231916Y0330082D01*
X0232297Y0330185D01*
X0232639Y0330382D01*
X0232918Y0330661D01*
X0233116Y0331004D01*
X0233218Y0331385D01*
X0233218Y0335577D01*
X0233218Y0334293D02*
X0284786Y0334293D01*
X0285363Y0333295D02*
X0233218Y0333295D01*
X0233218Y0332296D02*
X0285939Y0332296D01*
X0286516Y0331298D02*
X0233195Y0331298D01*
X0232495Y0330299D02*
X0287092Y0330299D01*
X0287669Y0329301D02*
X0228763Y0329301D01*
X0228757Y0328302D02*
X0288245Y0328302D01*
X0288822Y0327304D02*
X0228757Y0327304D01*
X0228757Y0326305D02*
X0289398Y0326305D01*
X0289974Y0325307D02*
X0228757Y0325307D01*
X0228757Y0324308D02*
X0290551Y0324308D01*
X0291127Y0323310D02*
X0228757Y0323310D01*
X0228757Y0322311D02*
X0291704Y0322311D01*
X0292280Y0321313D02*
X0228757Y0321313D01*
X0228757Y0320314D02*
X0292857Y0320314D01*
X0293433Y0319316D02*
X0228757Y0319316D01*
X0228725Y0318317D02*
X0294010Y0318317D01*
X0294586Y0317318D02*
X0228380Y0317318D01*
X0227426Y0316320D02*
X0295163Y0316320D01*
X0295500Y0315321D02*
X0226383Y0315321D01*
X0223779Y0314323D02*
X0295232Y0314323D01*
X0295432Y0315070D02*
X0295432Y0315070D01*
X0295358Y0313324D02*
X0223779Y0313324D01*
X0223779Y0312326D02*
X0295934Y0312326D01*
X0295752Y0312642D02*
X0295752Y0312642D01*
X0300165Y0306335D02*
X0240187Y0306335D01*
X0240187Y0307333D02*
X0239187Y0307333D01*
X0239187Y0307219D02*
X0239187Y0311219D01*
X0237490Y0311219D01*
X0237187Y0311138D01*
X0236885Y0311219D01*
X0235187Y0311219D01*
X0235187Y0307219D01*
X0239187Y0307219D01*
X0239187Y0306335D02*
X0235187Y0306335D01*
X0235187Y0307333D02*
X0234187Y0307333D01*
X0234187Y0308332D02*
X0235187Y0308332D01*
X0235187Y0309330D02*
X0234187Y0309330D01*
X0234187Y0310329D02*
X0235187Y0310329D01*
X0239187Y0310329D02*
X0240187Y0310329D01*
X0240187Y0309330D02*
X0239187Y0309330D01*
X0239187Y0308332D02*
X0240187Y0308332D01*
X0240187Y0305336D02*
X0239187Y0305336D01*
X0239187Y0304338D02*
X0240187Y0304338D01*
X0240187Y0303339D02*
X0239187Y0303339D01*
X0239187Y0302341D02*
X0240187Y0302341D01*
X0242301Y0302341D02*
X0255187Y0302341D01*
X0255187Y0303339D02*
X0243139Y0303339D01*
X0243187Y0304338D02*
X0255313Y0304338D01*
X0259187Y0304338D02*
X0260187Y0304338D01*
X0260187Y0303339D02*
X0259187Y0303339D01*
X0264062Y0304338D02*
X0302099Y0304338D01*
X0301525Y0305336D02*
X0243187Y0305336D01*
X0235187Y0305336D02*
X0234187Y0305336D01*
X0234187Y0304338D02*
X0235187Y0304338D01*
X0235187Y0303339D02*
X0234187Y0303339D01*
X0234187Y0302341D02*
X0235187Y0302341D01*
X0232074Y0302341D02*
X0227301Y0302341D01*
X0210187Y0302341D02*
X0209187Y0302341D01*
X0209187Y0303339D02*
X0210187Y0303339D01*
X0210187Y0304338D02*
X0209187Y0304338D01*
X0209187Y0305336D02*
X0210187Y0305336D01*
X0210187Y0308332D02*
X0209187Y0308332D01*
X0209187Y0309330D02*
X0210187Y0309330D01*
X0210187Y0310329D02*
X0209187Y0310329D01*
X0206308Y0310329D02*
X0150935Y0310329D01*
X0150358Y0309330D02*
X0206187Y0309330D01*
X0206187Y0308332D02*
X0149782Y0308332D01*
X0149205Y0307333D02*
X0206187Y0307333D01*
X0229708Y0330299D02*
X0230382Y0330299D01*
X0230382Y0331298D02*
X0229708Y0331298D01*
X0229708Y0332296D02*
X0230382Y0332296D01*
X0230382Y0333295D02*
X0229708Y0333295D01*
X0229708Y0334293D02*
X0230382Y0334293D01*
X0230382Y0335292D02*
X0229708Y0335292D01*
X0229708Y0336290D02*
X0230382Y0336290D01*
X0230382Y0337289D02*
X0229708Y0337289D01*
X0229708Y0338287D02*
X0230382Y0338287D01*
X0230382Y0339286D02*
X0229708Y0339286D01*
X0229708Y0340284D02*
X0230382Y0340284D01*
X0230382Y0341283D02*
X0229708Y0341283D01*
X0226872Y0338287D02*
X0222391Y0338287D01*
X0222391Y0337289D02*
X0226872Y0337289D01*
X0226872Y0336290D02*
X0222391Y0336290D01*
X0222391Y0335292D02*
X0226872Y0335292D01*
X0226872Y0334293D02*
X0222391Y0334293D01*
X0236538Y0356260D02*
X0236840Y0356260D01*
X0237962Y0357259D02*
X0299882Y0357259D01*
X0299302Y0358257D02*
X0238352Y0358257D01*
X0238352Y0359256D02*
X0298722Y0359256D01*
X0298142Y0360254D02*
X0238352Y0360254D01*
X0238352Y0361253D02*
X0297562Y0361253D01*
X0296982Y0362252D02*
X0238352Y0362252D01*
X0238352Y0363250D02*
X0296402Y0363250D01*
X0295822Y0364249D02*
X0238352Y0364249D01*
X0238352Y0365247D02*
X0295242Y0365247D01*
X0294661Y0366246D02*
X0238352Y0366246D01*
X0238352Y0367244D02*
X0294081Y0367244D01*
X0293501Y0368243D02*
X0238352Y0368243D01*
X0264187Y0303339D02*
X0302673Y0303339D01*
X0303247Y0302341D02*
X0264187Y0302341D01*
X0264041Y0279375D02*
X0266610Y0279375D01*
X0266610Y0275381D02*
X0264187Y0275381D01*
X0264150Y0274383D02*
X0266610Y0274383D01*
X0266610Y0273384D02*
X0263787Y0273384D01*
X0255187Y0277378D02*
X0235420Y0277378D01*
X0236419Y0278377D02*
X0255187Y0278377D01*
X0255334Y0279375D02*
X0237417Y0279375D01*
X0185587Y0277378D02*
X0182634Y0277378D01*
X0183568Y0276380D02*
X0185587Y0276380D01*
X0185587Y0275381D02*
X0183627Y0275381D01*
X0183627Y0274383D02*
X0185587Y0274383D01*
X0185587Y0273384D02*
X0179674Y0273384D01*
X0183627Y0272385D02*
X0185587Y0272385D01*
X0185587Y0271387D02*
X0183627Y0271387D01*
X0183558Y0270388D02*
X0185587Y0270388D01*
X0185587Y0269390D02*
X0182773Y0269390D01*
X0184100Y0268391D02*
X0185587Y0268391D01*
X0185587Y0267393D02*
X0185098Y0267393D01*
X0174721Y0274383D02*
X0130219Y0274383D01*
X0130796Y0275381D02*
X0174721Y0275381D01*
X0174780Y0276380D02*
X0131373Y0276380D01*
X0127612Y0284664D02*
X0108269Y0251182D01*
X0127612Y0284664D02*
X0127600Y0284711D01*
X0136083Y0299404D01*
X0135113Y0303024D01*
X0132511Y0304526D01*
X0127578Y0307374D01*
X0125637Y0304338D02*
X0120037Y0304338D01*
X0119474Y0305336D02*
X0123907Y0305336D01*
X0122178Y0306335D02*
X0120050Y0306335D01*
X0120627Y0307333D02*
X0120960Y0307333D01*
X0121766Y0303339D02*
X0127366Y0303339D01*
X0129096Y0302341D02*
X0123496Y0302341D01*
X0125225Y0301342D02*
X0133907Y0301342D01*
X0133096Y0302341D02*
X0131716Y0302341D01*
X0122578Y0298714D02*
X0122609Y0298598D01*
X0118326Y0291180D01*
X0116036Y0291357D02*
X0111403Y0291357D01*
X0110826Y0290359D02*
X0116036Y0290359D01*
X0116907Y0289360D02*
X0110250Y0289360D01*
X0111979Y0292356D02*
X0116262Y0292356D01*
X0117261Y0293354D02*
X0112556Y0293354D01*
X0113132Y0294353D02*
X0118310Y0294353D01*
X0118887Y0295351D02*
X0113709Y0295351D01*
X0114285Y0296350D02*
X0119463Y0296350D01*
X0117743Y0297348D02*
X0114862Y0297348D01*
X0115438Y0298347D02*
X0116047Y0298347D01*
X0122005Y0294353D02*
X0122932Y0294353D01*
X0121429Y0293354D02*
X0124661Y0293354D01*
X0137110Y0293615D02*
X0137131Y0293621D01*
X0179391Y0250418D02*
X0180360Y0250418D01*
X0180360Y0249420D02*
X0179391Y0249420D01*
X0179391Y0248421D02*
X0180360Y0248421D01*
X0182985Y0248421D02*
X0185587Y0248421D01*
X0185587Y0249420D02*
X0183344Y0249420D01*
X0183344Y0250418D02*
X0185587Y0250418D01*
X0313291Y0322263D02*
X0317238Y0315427D01*
X0317293Y0315412D01*
X0319147Y0312326D02*
X0324747Y0312326D01*
X0325406Y0313324D02*
X0320876Y0313324D01*
X0322606Y0314323D02*
X0324825Y0314323D01*
X0324245Y0315321D02*
X0323898Y0315321D01*
X0323017Y0311327D02*
X0317417Y0311327D01*
X0316853Y0319316D02*
X0316840Y0319316D01*
X0316264Y0320314D02*
X0318583Y0320314D01*
X0320765Y0321313D02*
X0315687Y0321313D01*
X0315582Y0322311D02*
X0320185Y0322311D01*
X0319605Y0323310D02*
X0315484Y0323310D01*
X0314485Y0324308D02*
X0319025Y0324308D01*
X0333990Y0298347D02*
X0334107Y0298347D01*
X0334687Y0297348D02*
X0333205Y0297348D01*
X0331475Y0296350D02*
X0335267Y0296350D01*
X0322984Y0293354D02*
X0322220Y0293354D01*
D29*
X0322664Y0287029D03*
X0316264Y0298114D03*
X0299156Y0309945D03*
X0299521Y0314313D03*
X0292717Y0300204D03*
X0313291Y0322263D03*
X0308052Y0331765D03*
X0282256Y0361834D03*
X0263534Y0327157D03*
X0235734Y0332207D03*
X0235734Y0335957D03*
X0235734Y0339707D03*
X0230734Y0327207D03*
X0230834Y0323507D03*
X0230834Y0319757D03*
X0230834Y0316007D03*
X0225934Y0313107D03*
X0215534Y0320207D03*
X0213934Y0317007D03*
X0213634Y0313307D03*
X0218134Y0323007D03*
X0217934Y0326807D03*
X0213234Y0332207D03*
X0213234Y0335957D03*
X0213234Y0339707D03*
X0209284Y0345265D03*
X0205584Y0347865D03*
X0205584Y0363065D03*
X0228784Y0354365D03*
X0238184Y0354365D03*
X0178506Y0360584D03*
X0143544Y0316458D03*
X0137994Y0306845D03*
X0138158Y0287929D03*
X0132269Y0283130D03*
X0118326Y0291180D03*
X0110459Y0225223D03*
X0126653Y0216334D03*
X0133403Y0204642D03*
X0146958Y0209737D03*
X0145287Y0193845D03*
X0146006Y0169334D03*
X0140006Y0168984D03*
X0166256Y0170234D03*
X0210406Y0152734D03*
X0226356Y0173134D03*
X0243934Y0153805D03*
X0246356Y0160634D03*
X0244034Y0139106D03*
X0303506Y0161834D03*
X0307145Y0187392D03*
X0311895Y0195619D03*
X0332545Y0211986D03*
X0319295Y0219636D03*
X0315394Y0218078D03*
X0348506Y0259334D03*
D30*
X0269875Y0272813D02*
X0268700Y0271637D01*
X0259769Y0271637D01*
X0259687Y0271719D01*
X0259606Y0271637D01*
X0240300Y0271637D01*
X0228725Y0260063D01*
X0228725Y0243887D01*
X0228725Y0226612D01*
X0228700Y0226637D02*
X0228700Y0207787D01*
X0230000Y0206487D01*
X0220174Y0179262D02*
X0220174Y0179262D01*
X0220174Y0160212D01*
X0226580Y0153805D01*
X0243934Y0153805D01*
X0268424Y0198062D02*
X0268348Y0198137D01*
X0204950Y0261387D02*
X0190019Y0261387D01*
X0189687Y0261719D01*
X0189287Y0262035D02*
X0183027Y0262035D01*
X0183109Y0262082D02*
X0183407Y0262380D01*
X0183618Y0262745D01*
X0183727Y0263152D01*
X0183727Y0265322D01*
X0179774Y0265322D01*
X0179774Y0266522D01*
X0183566Y0266522D01*
X0185399Y0264688D01*
X0185196Y0264336D01*
X0185087Y0263929D01*
X0185087Y0262119D01*
X0189287Y0262119D01*
X0189287Y0261319D01*
X0185087Y0261319D01*
X0185087Y0259508D01*
X0185189Y0259127D01*
X0183700Y0257637D01*
X0183444Y0257637D01*
X0183444Y0257875D01*
X0180260Y0257875D01*
X0180260Y0258644D01*
X0183444Y0258644D01*
X0183444Y0260636D01*
X0183335Y0261043D01*
X0183124Y0261407D01*
X0182826Y0261705D01*
X0182603Y0261834D01*
X0182744Y0261872D01*
X0183109Y0262082D01*
X0183390Y0260836D02*
X0185087Y0260836D01*
X0185087Y0259638D02*
X0183444Y0259638D01*
X0184501Y0258439D02*
X0180260Y0258439D01*
X0180260Y0258644D02*
X0179491Y0258644D01*
X0179491Y0262025D01*
X0178574Y0262025D01*
X0178574Y0265322D01*
X0179774Y0265322D01*
X0179774Y0261763D01*
X0180260Y0261763D01*
X0180260Y0258644D01*
X0180260Y0259638D02*
X0179491Y0259638D01*
X0179491Y0260836D02*
X0180260Y0260836D01*
X0179774Y0262035D02*
X0178574Y0262035D01*
X0178574Y0263233D02*
X0179774Y0263233D01*
X0179774Y0264432D02*
X0178574Y0264432D01*
X0179875Y0265220D02*
X0179174Y0265922D01*
X0179774Y0265630D02*
X0184457Y0265630D01*
X0183727Y0264432D02*
X0185251Y0264432D01*
X0185087Y0263233D02*
X0183727Y0263233D01*
X0153424Y0202762D02*
X0155774Y0200412D01*
X0155774Y0181662D01*
X0155874Y0181662D02*
X0156574Y0180962D01*
X0156574Y0171362D01*
X0154774Y0169562D01*
X0154774Y0168212D01*
X0154074Y0172762D02*
X0147674Y0166362D01*
X0147674Y0155212D01*
X0259687Y0281719D02*
X0269835Y0281719D01*
X0269875Y0281760D01*
X0269875Y0275067D02*
X0269875Y0272813D01*
D31*
X0259687Y0281719D02*
X0237781Y0281719D01*
X0217450Y0261387D01*
X0217450Y0206687D01*
X0217900Y0206237D01*
X0220900Y0206237D02*
X0217300Y0202637D01*
X0175400Y0202637D01*
X0168300Y0209737D01*
X0146958Y0209737D01*
X0167724Y0202262D02*
X0167724Y0193662D01*
X0170424Y0190962D01*
X0195924Y0190962D01*
X0198924Y0187962D01*
X0214174Y0187962D01*
X0218824Y0192612D01*
X0218724Y0196112D02*
X0211974Y0189362D01*
X0199624Y0189362D01*
X0196524Y0192462D01*
X0174024Y0192462D01*
X0172624Y0193862D01*
X0172624Y0202162D01*
X0178824Y0185562D02*
X0184124Y0185562D01*
X0184124Y0181562D02*
X0184124Y0175412D01*
X0178924Y0170212D01*
X0183024Y0170162D02*
X0193024Y0180162D01*
X0203274Y0180162D01*
X0203274Y0176762D02*
X0193924Y0176762D01*
X0187524Y0170362D01*
X0187524Y0170162D01*
X0178824Y0185562D02*
X0162674Y0170662D01*
X0162674Y0170162D01*
X0158174Y0168212D02*
X0151574Y0161612D01*
X0151574Y0155212D01*
X0207800Y0205337D02*
X0207800Y0214737D01*
X0220900Y0206237D02*
X0222900Y0206237D01*
X0225350Y0195537D02*
X0224950Y0195137D01*
X0225350Y0195537D02*
X0226100Y0195537D01*
X0226100Y0190937D02*
X0224400Y0189287D01*
X0226100Y0190937D02*
X0227600Y0190937D01*
X0236400Y0199737D01*
X0243500Y0199737D01*
X0245600Y0201837D01*
X0248200Y0205337D02*
X0235400Y0218137D01*
X0235400Y0225537D01*
X0250700Y0201937D02*
X0267100Y0201937D01*
X0270000Y0204837D01*
X0241300Y0170337D02*
X0244000Y0167637D01*
X0241300Y0170337D02*
X0232300Y0170337D01*
X0228400Y0174237D01*
X0228400Y0176637D01*
X0225200Y0182937D02*
X0220900Y0182937D01*
X0215400Y0177537D01*
X0215400Y0156037D01*
X0213000Y0153637D01*
X0213000Y0148537D01*
X0195900Y0231637D02*
X0189769Y0231637D01*
X0189687Y0231719D01*
X0189687Y0236719D02*
X0189706Y0236737D01*
X0195900Y0236737D01*
D32*
X0219648Y0311098D02*
X0219648Y0314384D01*
X0219647Y0314384D02*
X0219649Y0314524D01*
X0219655Y0314663D01*
X0219665Y0314802D01*
X0219678Y0314941D01*
X0219696Y0315080D01*
X0219717Y0315218D01*
X0219743Y0315355D01*
X0219772Y0315492D01*
X0219805Y0315627D01*
X0219842Y0315762D01*
X0219882Y0315896D01*
X0219926Y0316028D01*
X0219974Y0316159D01*
X0220026Y0316289D01*
X0220081Y0316417D01*
X0220140Y0316544D01*
X0220202Y0316669D01*
X0220268Y0316792D01*
X0220337Y0316913D01*
X0220410Y0317032D01*
X0220486Y0317150D01*
X0220565Y0317265D01*
X0220648Y0317377D01*
X0220733Y0317488D01*
X0220822Y0317596D01*
X0220913Y0317701D01*
X0221008Y0317804D01*
X0221105Y0317904D01*
X0221205Y0318001D01*
X0221308Y0318096D01*
X0221413Y0318187D01*
X0221521Y0318276D01*
X0221632Y0318361D01*
X0221744Y0318444D01*
X0221859Y0318523D01*
X0221977Y0318599D01*
X0222096Y0318672D01*
X0222217Y0318741D01*
X0222340Y0318807D01*
X0222465Y0318869D01*
X0222592Y0318928D01*
X0222720Y0318983D01*
X0222850Y0319035D01*
X0222981Y0319083D01*
X0223113Y0319127D01*
X0223247Y0319167D01*
X0223382Y0319204D01*
X0223517Y0319237D01*
X0223654Y0319266D01*
X0223791Y0319292D01*
X0223929Y0319313D01*
X0224068Y0319331D01*
X0224207Y0319344D01*
X0224346Y0319354D01*
X0224485Y0319360D01*
X0224625Y0319362D01*
X0224625Y0329903D01*
X0224632Y0329909D01*
D33*
X0219648Y0311098D02*
X0219625Y0311076D01*
X0219625Y0306781D01*
X0219687Y0306719D01*
M02*
