G75*
%MOIN*%
%OFA0B0*%
%FSLAX25Y25*%
%IPPOS*%
%LPD*%
%AMOC8*
5,1,8,0,0,1.08239X$1,22.5*
%
%ADD10C,0.00000*%
%ADD11R,0.05906X0.05118*%
%ADD12R,0.03937X0.04331*%
%ADD13OC8,0.06000*%
%ADD14R,0.05000X0.10000*%
%ADD15R,0.10000X0.05000*%
%ADD16R,0.04331X0.03937*%
%ADD17C,0.00800*%
%ADD18R,0.05000X0.02500*%
%ADD19C,0.05000*%
%ADD20R,0.06000X0.04000*%
%ADD21R,0.04000X0.06000*%
%ADD22R,0.07000X0.07000*%
%ADD23C,0.04724*%
%ADD24R,0.03346X0.08661*%
%ADD25R,0.03937X0.04134*%
%ADD26OC8,0.07087*%
%ADD27OC8,0.05150*%
%ADD28OC8,0.02400*%
%ADD29C,0.01600*%
%ADD30C,0.01000*%
%ADD31OC8,0.02381*%
%ADD32C,0.01200*%
%ADD33C,0.00600*%
%ADD34C,0.06063*%
%ADD35C,0.04000*%
D10*
X0156177Y0131750D02*
X0294617Y0131378D01*
X0363514Y0250712D01*
X0293972Y0370419D01*
X0155532Y0370791D01*
X0086634Y0251457D01*
X0156177Y0131750D01*
X0221063Y0232287D02*
X0221065Y0232405D01*
X0221071Y0232524D01*
X0221081Y0232642D01*
X0221095Y0232759D01*
X0221112Y0232876D01*
X0221134Y0232993D01*
X0221160Y0233108D01*
X0221189Y0233223D01*
X0221222Y0233337D01*
X0221259Y0233449D01*
X0221300Y0233560D01*
X0221344Y0233670D01*
X0221392Y0233778D01*
X0221444Y0233885D01*
X0221499Y0233990D01*
X0221558Y0234093D01*
X0221620Y0234193D01*
X0221685Y0234292D01*
X0221754Y0234389D01*
X0221825Y0234483D01*
X0221900Y0234574D01*
X0221978Y0234664D01*
X0222059Y0234750D01*
X0222143Y0234834D01*
X0222229Y0234915D01*
X0222319Y0234993D01*
X0222410Y0235068D01*
X0222504Y0235139D01*
X0222601Y0235208D01*
X0222700Y0235273D01*
X0222800Y0235335D01*
X0222903Y0235394D01*
X0223008Y0235449D01*
X0223115Y0235501D01*
X0223223Y0235549D01*
X0223333Y0235593D01*
X0223444Y0235634D01*
X0223556Y0235671D01*
X0223670Y0235704D01*
X0223785Y0235733D01*
X0223900Y0235759D01*
X0224017Y0235781D01*
X0224134Y0235798D01*
X0224251Y0235812D01*
X0224369Y0235822D01*
X0224488Y0235828D01*
X0224606Y0235830D01*
X0224724Y0235828D01*
X0224843Y0235822D01*
X0224961Y0235812D01*
X0225078Y0235798D01*
X0225195Y0235781D01*
X0225312Y0235759D01*
X0225427Y0235733D01*
X0225542Y0235704D01*
X0225656Y0235671D01*
X0225768Y0235634D01*
X0225879Y0235593D01*
X0225989Y0235549D01*
X0226097Y0235501D01*
X0226204Y0235449D01*
X0226309Y0235394D01*
X0226412Y0235335D01*
X0226512Y0235273D01*
X0226611Y0235208D01*
X0226708Y0235139D01*
X0226802Y0235068D01*
X0226893Y0234993D01*
X0226983Y0234915D01*
X0227069Y0234834D01*
X0227153Y0234750D01*
X0227234Y0234664D01*
X0227312Y0234574D01*
X0227387Y0234483D01*
X0227458Y0234389D01*
X0227527Y0234292D01*
X0227592Y0234193D01*
X0227654Y0234093D01*
X0227713Y0233990D01*
X0227768Y0233885D01*
X0227820Y0233778D01*
X0227868Y0233670D01*
X0227912Y0233560D01*
X0227953Y0233449D01*
X0227990Y0233337D01*
X0228023Y0233223D01*
X0228052Y0233108D01*
X0228078Y0232993D01*
X0228100Y0232876D01*
X0228117Y0232759D01*
X0228131Y0232642D01*
X0228141Y0232524D01*
X0228147Y0232405D01*
X0228149Y0232287D01*
X0228147Y0232169D01*
X0228141Y0232050D01*
X0228131Y0231932D01*
X0228117Y0231815D01*
X0228100Y0231698D01*
X0228078Y0231581D01*
X0228052Y0231466D01*
X0228023Y0231351D01*
X0227990Y0231237D01*
X0227953Y0231125D01*
X0227912Y0231014D01*
X0227868Y0230904D01*
X0227820Y0230796D01*
X0227768Y0230689D01*
X0227713Y0230584D01*
X0227654Y0230481D01*
X0227592Y0230381D01*
X0227527Y0230282D01*
X0227458Y0230185D01*
X0227387Y0230091D01*
X0227312Y0230000D01*
X0227234Y0229910D01*
X0227153Y0229824D01*
X0227069Y0229740D01*
X0226983Y0229659D01*
X0226893Y0229581D01*
X0226802Y0229506D01*
X0226708Y0229435D01*
X0226611Y0229366D01*
X0226512Y0229301D01*
X0226412Y0229239D01*
X0226309Y0229180D01*
X0226204Y0229125D01*
X0226097Y0229073D01*
X0225989Y0229025D01*
X0225879Y0228981D01*
X0225768Y0228940D01*
X0225656Y0228903D01*
X0225542Y0228870D01*
X0225427Y0228841D01*
X0225312Y0228815D01*
X0225195Y0228793D01*
X0225078Y0228776D01*
X0224961Y0228762D01*
X0224843Y0228752D01*
X0224724Y0228746D01*
X0224606Y0228744D01*
X0224488Y0228746D01*
X0224369Y0228752D01*
X0224251Y0228762D01*
X0224134Y0228776D01*
X0224017Y0228793D01*
X0223900Y0228815D01*
X0223785Y0228841D01*
X0223670Y0228870D01*
X0223556Y0228903D01*
X0223444Y0228940D01*
X0223333Y0228981D01*
X0223223Y0229025D01*
X0223115Y0229073D01*
X0223008Y0229125D01*
X0222903Y0229180D01*
X0222800Y0229239D01*
X0222700Y0229301D01*
X0222601Y0229366D01*
X0222504Y0229435D01*
X0222410Y0229506D01*
X0222319Y0229581D01*
X0222229Y0229659D01*
X0222143Y0229740D01*
X0222059Y0229824D01*
X0221978Y0229910D01*
X0221900Y0230000D01*
X0221825Y0230091D01*
X0221754Y0230185D01*
X0221685Y0230282D01*
X0221620Y0230381D01*
X0221558Y0230481D01*
X0221499Y0230584D01*
X0221444Y0230689D01*
X0221392Y0230796D01*
X0221344Y0230904D01*
X0221300Y0231014D01*
X0221259Y0231125D01*
X0221222Y0231237D01*
X0221189Y0231351D01*
X0221160Y0231466D01*
X0221134Y0231581D01*
X0221112Y0231698D01*
X0221095Y0231815D01*
X0221081Y0231932D01*
X0221071Y0232050D01*
X0221065Y0232169D01*
X0221063Y0232287D01*
X0221063Y0267720D02*
X0221065Y0267838D01*
X0221071Y0267957D01*
X0221081Y0268075D01*
X0221095Y0268192D01*
X0221112Y0268309D01*
X0221134Y0268426D01*
X0221160Y0268541D01*
X0221189Y0268656D01*
X0221222Y0268770D01*
X0221259Y0268882D01*
X0221300Y0268993D01*
X0221344Y0269103D01*
X0221392Y0269211D01*
X0221444Y0269318D01*
X0221499Y0269423D01*
X0221558Y0269526D01*
X0221620Y0269626D01*
X0221685Y0269725D01*
X0221754Y0269822D01*
X0221825Y0269916D01*
X0221900Y0270007D01*
X0221978Y0270097D01*
X0222059Y0270183D01*
X0222143Y0270267D01*
X0222229Y0270348D01*
X0222319Y0270426D01*
X0222410Y0270501D01*
X0222504Y0270572D01*
X0222601Y0270641D01*
X0222700Y0270706D01*
X0222800Y0270768D01*
X0222903Y0270827D01*
X0223008Y0270882D01*
X0223115Y0270934D01*
X0223223Y0270982D01*
X0223333Y0271026D01*
X0223444Y0271067D01*
X0223556Y0271104D01*
X0223670Y0271137D01*
X0223785Y0271166D01*
X0223900Y0271192D01*
X0224017Y0271214D01*
X0224134Y0271231D01*
X0224251Y0271245D01*
X0224369Y0271255D01*
X0224488Y0271261D01*
X0224606Y0271263D01*
X0224724Y0271261D01*
X0224843Y0271255D01*
X0224961Y0271245D01*
X0225078Y0271231D01*
X0225195Y0271214D01*
X0225312Y0271192D01*
X0225427Y0271166D01*
X0225542Y0271137D01*
X0225656Y0271104D01*
X0225768Y0271067D01*
X0225879Y0271026D01*
X0225989Y0270982D01*
X0226097Y0270934D01*
X0226204Y0270882D01*
X0226309Y0270827D01*
X0226412Y0270768D01*
X0226512Y0270706D01*
X0226611Y0270641D01*
X0226708Y0270572D01*
X0226802Y0270501D01*
X0226893Y0270426D01*
X0226983Y0270348D01*
X0227069Y0270267D01*
X0227153Y0270183D01*
X0227234Y0270097D01*
X0227312Y0270007D01*
X0227387Y0269916D01*
X0227458Y0269822D01*
X0227527Y0269725D01*
X0227592Y0269626D01*
X0227654Y0269526D01*
X0227713Y0269423D01*
X0227768Y0269318D01*
X0227820Y0269211D01*
X0227868Y0269103D01*
X0227912Y0268993D01*
X0227953Y0268882D01*
X0227990Y0268770D01*
X0228023Y0268656D01*
X0228052Y0268541D01*
X0228078Y0268426D01*
X0228100Y0268309D01*
X0228117Y0268192D01*
X0228131Y0268075D01*
X0228141Y0267957D01*
X0228147Y0267838D01*
X0228149Y0267720D01*
X0228147Y0267602D01*
X0228141Y0267483D01*
X0228131Y0267365D01*
X0228117Y0267248D01*
X0228100Y0267131D01*
X0228078Y0267014D01*
X0228052Y0266899D01*
X0228023Y0266784D01*
X0227990Y0266670D01*
X0227953Y0266558D01*
X0227912Y0266447D01*
X0227868Y0266337D01*
X0227820Y0266229D01*
X0227768Y0266122D01*
X0227713Y0266017D01*
X0227654Y0265914D01*
X0227592Y0265814D01*
X0227527Y0265715D01*
X0227458Y0265618D01*
X0227387Y0265524D01*
X0227312Y0265433D01*
X0227234Y0265343D01*
X0227153Y0265257D01*
X0227069Y0265173D01*
X0226983Y0265092D01*
X0226893Y0265014D01*
X0226802Y0264939D01*
X0226708Y0264868D01*
X0226611Y0264799D01*
X0226512Y0264734D01*
X0226412Y0264672D01*
X0226309Y0264613D01*
X0226204Y0264558D01*
X0226097Y0264506D01*
X0225989Y0264458D01*
X0225879Y0264414D01*
X0225768Y0264373D01*
X0225656Y0264336D01*
X0225542Y0264303D01*
X0225427Y0264274D01*
X0225312Y0264248D01*
X0225195Y0264226D01*
X0225078Y0264209D01*
X0224961Y0264195D01*
X0224843Y0264185D01*
X0224724Y0264179D01*
X0224606Y0264177D01*
X0224488Y0264179D01*
X0224369Y0264185D01*
X0224251Y0264195D01*
X0224134Y0264209D01*
X0224017Y0264226D01*
X0223900Y0264248D01*
X0223785Y0264274D01*
X0223670Y0264303D01*
X0223556Y0264336D01*
X0223444Y0264373D01*
X0223333Y0264414D01*
X0223223Y0264458D01*
X0223115Y0264506D01*
X0223008Y0264558D01*
X0222903Y0264613D01*
X0222800Y0264672D01*
X0222700Y0264734D01*
X0222601Y0264799D01*
X0222504Y0264868D01*
X0222410Y0264939D01*
X0222319Y0265014D01*
X0222229Y0265092D01*
X0222143Y0265173D01*
X0222059Y0265257D01*
X0221978Y0265343D01*
X0221900Y0265433D01*
X0221825Y0265524D01*
X0221754Y0265618D01*
X0221685Y0265715D01*
X0221620Y0265814D01*
X0221558Y0265914D01*
X0221499Y0266017D01*
X0221444Y0266122D01*
X0221392Y0266229D01*
X0221344Y0266337D01*
X0221300Y0266447D01*
X0221259Y0266558D01*
X0221222Y0266670D01*
X0221189Y0266784D01*
X0221160Y0266899D01*
X0221134Y0267014D01*
X0221112Y0267131D01*
X0221095Y0267248D01*
X0221081Y0267365D01*
X0221071Y0267483D01*
X0221065Y0267602D01*
X0221063Y0267720D01*
D11*
X0179174Y0265922D03*
X0179174Y0273402D03*
D12*
X0179875Y0258260D03*
X0179875Y0251567D03*
D13*
X0224625Y0319362D03*
D14*
X0224752Y0363105D03*
X0234752Y0363105D03*
X0214752Y0363105D03*
X0215397Y0139064D03*
X0225397Y0139064D03*
X0235397Y0139064D03*
D15*
G36*
X0314490Y0190800D02*
X0323150Y0185801D01*
X0320650Y0181470D01*
X0311990Y0186469D01*
X0314490Y0190800D01*
G37*
G36*
X0319490Y0199460D02*
X0328150Y0194461D01*
X0325650Y0190130D01*
X0316990Y0195129D01*
X0319490Y0199460D01*
G37*
G36*
X0324490Y0208120D02*
X0333150Y0203121D01*
X0330650Y0198790D01*
X0321990Y0203789D01*
X0324490Y0208120D01*
G37*
G36*
X0321713Y0297758D02*
X0330373Y0302757D01*
X0332873Y0298426D01*
X0324213Y0293427D01*
X0321713Y0297758D01*
G37*
G36*
X0316713Y0306418D02*
X0325373Y0311417D01*
X0327873Y0307086D01*
X0319213Y0302087D01*
X0316713Y0306418D01*
G37*
G36*
X0311713Y0315078D02*
X0320373Y0320077D01*
X0322873Y0315746D01*
X0314213Y0310747D01*
X0311713Y0315078D01*
G37*
G36*
X0135658Y0311369D02*
X0126998Y0316368D01*
X0129498Y0320699D01*
X0138158Y0315700D01*
X0135658Y0311369D01*
G37*
G36*
X0130658Y0302709D02*
X0121998Y0307708D01*
X0124498Y0312039D01*
X0133158Y0307040D01*
X0130658Y0302709D01*
G37*
G36*
X0125658Y0294049D02*
X0116998Y0299048D01*
X0119498Y0303379D01*
X0128158Y0298380D01*
X0125658Y0294049D01*
G37*
G36*
X0128481Y0204348D02*
X0119821Y0199349D01*
X0117321Y0203680D01*
X0125981Y0208679D01*
X0128481Y0204348D01*
G37*
G36*
X0133481Y0195688D02*
X0124821Y0190689D01*
X0122321Y0195020D01*
X0130981Y0200019D01*
X0133481Y0195688D01*
G37*
G36*
X0138481Y0187027D02*
X0129821Y0182028D01*
X0127321Y0186359D01*
X0135981Y0191358D01*
X0138481Y0187027D01*
G37*
D16*
X0269875Y0275067D03*
X0269875Y0281760D03*
D17*
X0267791Y0190478D02*
X0267791Y0187478D01*
X0184124Y0185062D02*
X0184124Y0182062D01*
D18*
X0184124Y0181562D03*
X0184124Y0185562D03*
X0267791Y0186978D03*
X0267791Y0190978D03*
D19*
X0279725Y0188962D03*
X0279725Y0198962D03*
X0279700Y0208887D03*
X0289700Y0208887D03*
X0289725Y0198962D03*
X0289725Y0188962D03*
X0289725Y0178962D03*
X0279725Y0178962D03*
D20*
X0259687Y0206719D03*
X0259687Y0211719D03*
X0259687Y0216719D03*
X0259687Y0221719D03*
X0259687Y0226719D03*
X0259687Y0231719D03*
X0259687Y0236719D03*
X0259687Y0241719D03*
X0259687Y0246719D03*
X0259687Y0251719D03*
X0259687Y0256719D03*
X0259687Y0261719D03*
X0259687Y0266719D03*
X0259687Y0271719D03*
X0259687Y0276719D03*
X0259687Y0281719D03*
X0259687Y0286719D03*
X0259687Y0291719D03*
X0259687Y0296719D03*
X0259687Y0301719D03*
X0189687Y0301719D03*
X0189687Y0296719D03*
X0189687Y0291719D03*
X0189687Y0286719D03*
X0189687Y0281719D03*
X0189687Y0276719D03*
X0189687Y0271719D03*
X0189687Y0266719D03*
X0189687Y0261719D03*
X0189687Y0256719D03*
X0189687Y0251719D03*
X0189687Y0246719D03*
X0189687Y0241719D03*
X0189687Y0236719D03*
X0189687Y0231719D03*
X0189687Y0226719D03*
X0189687Y0221719D03*
X0189687Y0216719D03*
X0189687Y0211719D03*
X0189687Y0206719D03*
D21*
X0209687Y0306719D03*
X0214687Y0306719D03*
X0219687Y0306719D03*
X0224687Y0306719D03*
X0229687Y0306719D03*
X0234687Y0306719D03*
X0239687Y0306719D03*
D22*
X0195658Y0138402D03*
X0174201Y0138402D03*
D23*
X0175382Y0150331D03*
X0194477Y0150331D03*
D24*
X0219218Y0335913D03*
X0230045Y0335913D03*
D25*
X0224631Y0329909D03*
X0224631Y0341917D03*
D26*
X0248228Y0259846D03*
X0248228Y0240161D03*
X0200984Y0240161D03*
X0200984Y0259846D03*
D27*
X0224606Y0277563D03*
X0224606Y0222445D03*
D28*
X0233100Y0226637D03*
X0233125Y0226612D03*
X0239800Y0225537D03*
X0250666Y0221115D03*
X0250469Y0214146D03*
X0248200Y0205337D03*
X0250700Y0201937D03*
X0247700Y0198137D03*
X0245600Y0201837D03*
X0251900Y0192337D03*
X0252324Y0189062D03*
X0266824Y0198962D03*
X0273000Y0206837D03*
X0295000Y0203337D03*
X0269500Y0183837D03*
X0271324Y0176562D03*
X0273924Y0173962D03*
X0282677Y0161181D03*
X0244524Y0155562D03*
X0244000Y0167637D03*
X0235624Y0173962D03*
X0235824Y0178262D03*
X0232566Y0180970D03*
X0228400Y0176637D03*
X0223724Y0176062D03*
X0220174Y0179262D03*
X0217674Y0176462D03*
X0209424Y0170703D03*
X0203274Y0176762D03*
X0203274Y0180162D03*
X0197524Y0185862D03*
X0202024Y0194362D03*
X0207744Y0198745D03*
X0207800Y0205337D03*
X0204300Y0214637D03*
X0202469Y0219059D03*
X0197599Y0207373D03*
X0184824Y0198162D03*
X0172624Y0202162D03*
X0167724Y0202262D03*
X0161724Y0202462D03*
X0153424Y0202562D03*
X0155774Y0181662D03*
X0155874Y0181662D03*
X0154074Y0172762D03*
X0154774Y0168212D03*
X0158174Y0168212D03*
X0162674Y0170162D03*
X0178924Y0170212D03*
X0183024Y0170162D03*
X0187524Y0170162D03*
X0178824Y0185562D03*
X0151574Y0155212D03*
X0147674Y0155212D03*
X0217900Y0206237D03*
X0222900Y0206237D03*
X0230000Y0206487D03*
X0218724Y0196112D03*
X0218824Y0192612D03*
X0224400Y0189287D03*
X0227724Y0185762D03*
X0225200Y0182937D03*
X0230950Y0189287D03*
X0234150Y0189287D03*
X0226100Y0195537D03*
X0195900Y0231637D03*
X0195900Y0236737D03*
X0207584Y0235833D03*
X0207584Y0245833D03*
X0209950Y0251387D03*
X0207666Y0255215D03*
X0200766Y0267415D03*
X0201066Y0277015D03*
X0210766Y0277315D03*
X0228725Y0243887D03*
X0235266Y0243015D03*
X0251566Y0267415D03*
X0251666Y0277415D03*
X0281166Y0286015D03*
D29*
X0252374Y0189062D02*
X0255674Y0185762D01*
X0227724Y0185762D01*
X0197624Y0185762D01*
X0197524Y0185862D01*
X0203924Y0185862D01*
X0206424Y0183362D01*
X0206424Y0172712D01*
X0208433Y0170703D01*
X0209424Y0170703D01*
X0252324Y0189062D02*
X0252374Y0189062D01*
X0255674Y0185762D02*
X0260316Y0181120D01*
X0260317Y0181120D01*
X0261700Y0179737D01*
X0273600Y0179737D01*
X0274400Y0178937D01*
X0279701Y0178937D01*
X0279725Y0178962D01*
X0279725Y0179062D01*
D30*
X0172272Y0148034D02*
X0148451Y0148034D01*
X0149031Y0147036D02*
X0173362Y0147036D01*
X0173553Y0146908D02*
X0174255Y0146617D01*
X0175002Y0146469D01*
X0175291Y0146469D01*
X0175291Y0150240D01*
X0175473Y0150240D01*
X0175473Y0146469D01*
X0175762Y0146469D01*
X0176509Y0146617D01*
X0177211Y0146908D01*
X0177844Y0147331D01*
X0178382Y0147869D01*
X0178805Y0148502D01*
X0179096Y0149205D01*
X0179244Y0149951D01*
X0179244Y0150241D01*
X0175473Y0150241D01*
X0175473Y0150422D01*
X0179244Y0150422D01*
X0179244Y0150711D01*
X0179096Y0151458D01*
X0178805Y0152161D01*
X0178382Y0152793D01*
X0177844Y0153331D01*
X0177211Y0153754D01*
X0176509Y0154045D01*
X0175762Y0154193D01*
X0175473Y0154193D01*
X0175473Y0150422D01*
X0175291Y0150422D01*
X0175291Y0150241D01*
X0171520Y0150241D01*
X0171520Y0149951D01*
X0171668Y0149205D01*
X0171959Y0148502D01*
X0172382Y0147869D01*
X0172920Y0147331D01*
X0173553Y0146908D01*
X0175291Y0147036D02*
X0175473Y0147036D01*
X0175473Y0148034D02*
X0175291Y0148034D01*
X0175291Y0149033D02*
X0175473Y0149033D01*
X0175473Y0150031D02*
X0175291Y0150031D01*
X0175291Y0150422D02*
X0171520Y0150422D01*
X0171520Y0150711D01*
X0171668Y0151458D01*
X0171959Y0152161D01*
X0172382Y0152793D01*
X0172920Y0153331D01*
X0173553Y0153754D01*
X0174255Y0154045D01*
X0175002Y0154193D01*
X0175291Y0154193D01*
X0175291Y0150422D01*
X0175291Y0151030D02*
X0175473Y0151030D01*
X0175473Y0152028D02*
X0175291Y0152028D01*
X0175291Y0153027D02*
X0175473Y0153027D01*
X0175473Y0154026D02*
X0175291Y0154026D01*
X0174209Y0154026D02*
X0153640Y0154026D01*
X0153874Y0154259D02*
X0153874Y0156164D01*
X0152974Y0157064D01*
X0152974Y0161032D01*
X0157854Y0165912D01*
X0159127Y0165912D01*
X0160474Y0167259D01*
X0160474Y0169109D01*
X0161721Y0167862D01*
X0163627Y0167862D01*
X0164974Y0169209D01*
X0164974Y0170879D01*
X0178396Y0183262D01*
X0179777Y0183262D01*
X0180524Y0184009D01*
X0180524Y0183856D01*
X0180818Y0183562D01*
X0180524Y0183267D01*
X0180524Y0179856D01*
X0181168Y0179212D01*
X0182724Y0179212D01*
X0182724Y0175992D01*
X0179244Y0172512D01*
X0177971Y0172512D01*
X0176624Y0171164D01*
X0176624Y0169259D01*
X0177971Y0167912D01*
X0179877Y0167912D01*
X0180949Y0168984D01*
X0182071Y0167862D01*
X0183977Y0167862D01*
X0185274Y0169159D01*
X0186571Y0167862D01*
X0188477Y0167862D01*
X0189824Y0169209D01*
X0189824Y0170682D01*
X0194504Y0175362D01*
X0201421Y0175362D01*
X0202321Y0174462D01*
X0204227Y0174462D01*
X0204524Y0174759D01*
X0204524Y0173499D01*
X0204524Y0173499D01*
X0204524Y0172672D01*
X0204524Y0171925D01*
X0204524Y0171925D01*
X0204524Y0171925D01*
X0204918Y0171531D01*
X0205637Y0170812D01*
X0207356Y0169093D01*
X0207646Y0168803D01*
X0208071Y0168803D01*
X0208471Y0168403D01*
X0210377Y0168403D01*
X0211724Y0169750D01*
X0211724Y0171656D01*
X0210377Y0173003D01*
X0208820Y0173003D01*
X0208324Y0173499D01*
X0208324Y0183862D01*
X0222900Y0183862D01*
X0222900Y0181985D01*
X0224247Y0180637D01*
X0226037Y0180637D01*
X0223761Y0178362D01*
X0222771Y0178362D01*
X0221874Y0177464D01*
X0221874Y0177709D01*
X0222474Y0178309D01*
X0222474Y0180214D01*
X0221127Y0181562D01*
X0219221Y0181562D01*
X0217874Y0180214D01*
X0217874Y0178762D01*
X0216721Y0178762D01*
X0215374Y0177414D01*
X0215374Y0175509D01*
X0216074Y0174809D01*
X0216074Y0157589D01*
X0223559Y0150104D01*
X0223106Y0149652D01*
X0223106Y0147754D01*
X0223797Y0147063D01*
X0223797Y0145164D01*
X0222441Y0145164D01*
X0221797Y0144520D01*
X0221797Y0133609D01*
X0222333Y0133072D01*
X0218471Y0133083D01*
X0218997Y0133609D01*
X0218997Y0144520D01*
X0218352Y0145164D01*
X0216997Y0145164D01*
X0216997Y0145213D01*
X0218686Y0146903D01*
X0218784Y0146903D01*
X0219474Y0146212D01*
X0221372Y0146212D01*
X0222714Y0147554D01*
X0222714Y0149452D01*
X0221372Y0150793D01*
X0219474Y0150793D01*
X0218784Y0150103D01*
X0217360Y0150103D01*
X0213797Y0146539D01*
X0213797Y0145213D01*
X0213797Y0145164D01*
X0212441Y0145164D01*
X0211797Y0144520D01*
X0211797Y0133609D01*
X0212306Y0133099D01*
X0157041Y0133248D01*
X0129280Y0181034D01*
X0129976Y0180848D01*
X0139425Y0186303D01*
X0139661Y0187184D01*
X0138983Y0188358D01*
X0139832Y0188848D01*
X0139842Y0188883D01*
X0140175Y0190128D01*
X0141343Y0194486D01*
X0145849Y0186682D01*
X0145849Y0184965D01*
X0147190Y0183624D01*
X0149088Y0183624D01*
X0150430Y0184965D01*
X0150430Y0186863D01*
X0149088Y0188205D01*
X0148664Y0188205D01*
X0142514Y0198857D01*
X0142514Y0198857D01*
X0142514Y0198857D01*
X0142514Y0198857D01*
X0141202Y0201130D01*
X0137737Y0207131D01*
X0139220Y0207131D01*
X0140562Y0208473D01*
X0140562Y0210371D01*
X0139901Y0211032D01*
X0141140Y0212271D01*
X0141140Y0214169D01*
X0139798Y0215510D01*
X0137901Y0215510D01*
X0137601Y0215211D01*
X0137437Y0215255D01*
X0136805Y0216349D01*
X0116755Y0251077D01*
X0146125Y0301731D01*
X0146267Y0301769D01*
X0146428Y0301607D01*
X0148326Y0301607D01*
X0149668Y0302949D01*
X0149668Y0304665D01*
X0151000Y0306972D01*
X0151275Y0307449D01*
X0150640Y0309818D01*
X0170710Y0344580D01*
X0221736Y0344613D01*
X0221563Y0344440D01*
X0221563Y0341588D01*
X0221470Y0341642D01*
X0221089Y0341744D01*
X0219555Y0341744D01*
X0219555Y0336250D01*
X0222391Y0336250D01*
X0222391Y0338750D01*
X0226872Y0338750D01*
X0226872Y0336250D01*
X0229708Y0336250D01*
X0229708Y0341744D01*
X0228174Y0341744D01*
X0227793Y0341642D01*
X0227700Y0341588D01*
X0227700Y0344440D01*
X0227523Y0344617D01*
X0229158Y0344618D01*
X0230230Y0343546D01*
X0230230Y0343269D01*
X0231572Y0341928D01*
X0233469Y0341928D01*
X0234160Y0342618D01*
X0236783Y0342618D01*
X0237720Y0343555D01*
X0238745Y0344580D01*
X0278847Y0344580D01*
X0308287Y0293392D01*
X0307379Y0292484D01*
X0307379Y0290587D01*
X0308721Y0289245D01*
X0309145Y0289245D01*
X0309859Y0288007D01*
X0309856Y0287995D01*
X0310190Y0287435D01*
X0310515Y0286871D01*
X0310528Y0286867D01*
X0310534Y0286856D01*
X0311166Y0286696D01*
X0311796Y0286528D01*
X0311807Y0286534D01*
X0312348Y0286397D01*
X0323140Y0267730D01*
X0333447Y0249879D01*
X0329940Y0243780D01*
X0304380Y0199510D01*
X0304256Y0199634D01*
X0302358Y0199634D01*
X0301016Y0198293D01*
X0301016Y0196576D01*
X0300246Y0195243D01*
X0300234Y0195239D01*
X0299916Y0194670D01*
X0299590Y0194106D01*
X0299593Y0194093D01*
X0299587Y0194082D01*
X0299764Y0193455D01*
X0299933Y0192825D01*
X0299944Y0192819D01*
X0300096Y0192280D01*
X0293127Y0180157D01*
X0292777Y0181001D01*
X0291765Y0182014D01*
X0290441Y0182562D01*
X0289009Y0182562D01*
X0287686Y0182014D01*
X0286673Y0181001D01*
X0286125Y0179678D01*
X0286125Y0178246D01*
X0286307Y0177806D01*
X0286242Y0177742D01*
X0285266Y0177742D01*
X0283924Y0176400D01*
X0283924Y0174502D01*
X0285266Y0173160D01*
X0287163Y0173160D01*
X0288505Y0174502D01*
X0288505Y0175479D01*
X0288570Y0175544D01*
X0289009Y0175362D01*
X0290370Y0175362D01*
X0283541Y0163481D01*
X0282135Y0163481D01*
X0281517Y0163848D01*
X0281555Y0175823D01*
X0281765Y0175910D01*
X0282777Y0176922D01*
X0283325Y0178246D01*
X0283325Y0179678D01*
X0282777Y0181001D01*
X0281765Y0182014D01*
X0280441Y0182562D01*
X0279009Y0182562D01*
X0277686Y0182014D01*
X0276673Y0181001D01*
X0276606Y0180837D01*
X0275187Y0180837D01*
X0274960Y0181064D01*
X0274387Y0181637D01*
X0274387Y0181637D01*
X0274387Y0181637D01*
X0273689Y0181637D01*
X0272813Y0181637D01*
X0270552Y0181637D01*
X0271800Y0182885D01*
X0271800Y0184790D01*
X0271354Y0185236D01*
X0271391Y0185273D01*
X0271391Y0188684D01*
X0271097Y0188978D01*
X0271391Y0189273D01*
X0271391Y0189378D01*
X0273603Y0189378D01*
X0274253Y0190028D01*
X0274540Y0190315D01*
X0274540Y0190316D02*
X0276062Y0191837D01*
X0276944Y0191837D01*
X0276618Y0191512D01*
X0276181Y0190856D01*
X0275879Y0190128D01*
X0275746Y0189462D01*
X0279225Y0189462D01*
X0279225Y0188462D01*
X0275746Y0188462D01*
X0275879Y0187795D01*
X0276181Y0187067D01*
X0276618Y0186412D01*
X0277175Y0185855D01*
X0277831Y0185417D01*
X0278559Y0185115D01*
X0279225Y0184983D01*
X0279225Y0188462D01*
X0280225Y0188462D01*
X0280225Y0189462D01*
X0283704Y0189462D01*
X0283572Y0190128D01*
X0283270Y0190856D01*
X0282832Y0191512D01*
X0282506Y0191837D01*
X0284587Y0191837D01*
X0286307Y0190117D01*
X0286125Y0189678D01*
X0286125Y0188246D01*
X0286673Y0186922D01*
X0287686Y0185910D01*
X0289009Y0185362D01*
X0290441Y0185362D01*
X0291765Y0185910D01*
X0292777Y0186922D01*
X0293325Y0188246D01*
X0293325Y0189678D01*
X0292777Y0191001D01*
X0291765Y0192014D01*
X0290441Y0192562D01*
X0289009Y0192562D01*
X0288570Y0192380D01*
X0286799Y0194150D01*
X0286799Y0194201D01*
X0285862Y0195138D01*
X0284536Y0195137D01*
X0284437Y0195037D01*
X0280500Y0195037D01*
X0280892Y0195115D01*
X0281620Y0195417D01*
X0282275Y0195855D01*
X0282832Y0196412D01*
X0283270Y0197067D01*
X0283572Y0197795D01*
X0283704Y0198462D01*
X0280225Y0198462D01*
X0280225Y0199462D01*
X0279225Y0199462D01*
X0279225Y0202941D01*
X0278559Y0202808D01*
X0278076Y0202608D01*
X0278098Y0202673D01*
X0279062Y0203637D01*
X0284162Y0203637D01*
X0284762Y0204237D01*
X0287312Y0204237D01*
X0287370Y0204295D01*
X0288250Y0205175D01*
X0288544Y0205469D01*
X0288984Y0205287D01*
X0290416Y0205287D01*
X0291739Y0205836D01*
X0292752Y0206848D01*
X0293300Y0208171D01*
X0293300Y0209604D01*
X0292752Y0210927D01*
X0291739Y0211939D01*
X0311556Y0211939D01*
X0310980Y0210941D02*
X0292738Y0210941D01*
X0293159Y0209942D02*
X0310403Y0209942D01*
X0309827Y0208944D02*
X0293300Y0208944D01*
X0293206Y0207945D02*
X0309250Y0207945D01*
X0308674Y0206947D02*
X0292792Y0206947D01*
X0291851Y0205948D02*
X0308098Y0205948D01*
X0307521Y0204950D02*
X0296640Y0204950D01*
X0297300Y0204290D02*
X0295952Y0205637D01*
X0294047Y0205637D01*
X0292700Y0204290D01*
X0292700Y0203017D01*
X0291716Y0202034D01*
X0290441Y0202562D01*
X0289009Y0202562D01*
X0287686Y0202014D01*
X0286673Y0201001D01*
X0286125Y0199678D01*
X0286125Y0198246D01*
X0286673Y0196922D01*
X0287686Y0195910D01*
X0289009Y0195362D01*
X0290441Y0195362D01*
X0291765Y0195910D01*
X0292777Y0196922D01*
X0293325Y0198246D01*
X0293325Y0199678D01*
X0293324Y0199682D01*
X0294680Y0201037D01*
X0295952Y0201037D01*
X0297300Y0202385D01*
X0297300Y0204290D01*
X0297300Y0203951D02*
X0306945Y0203951D01*
X0306368Y0202953D02*
X0297300Y0202953D01*
X0296869Y0201954D02*
X0305792Y0201954D01*
X0305215Y0200956D02*
X0294598Y0200956D01*
X0293599Y0199957D02*
X0304639Y0199957D01*
X0305333Y0197960D02*
X0303493Y0197467D01*
X0303307Y0197344D01*
X0301307Y0193880D01*
X0301819Y0192067D01*
X0284906Y0162646D01*
X0284314Y0161620D01*
X0282677Y0161181D01*
X0283117Y0159541D01*
X0280447Y0154916D01*
X0245069Y0155016D01*
X0244524Y0155562D01*
X0246317Y0157021D02*
X0279814Y0157021D01*
X0279524Y0156519D02*
X0246727Y0156612D01*
X0245477Y0157862D01*
X0243571Y0157862D01*
X0242224Y0156514D01*
X0242224Y0154664D01*
X0235821Y0154664D01*
X0234160Y0153003D01*
X0231663Y0153003D01*
X0230972Y0153693D01*
X0229074Y0153693D01*
X0228484Y0153103D01*
X0228027Y0153103D01*
X0221874Y0159256D01*
X0221874Y0159508D01*
X0221874Y0174659D01*
X0222771Y0173762D01*
X0224677Y0173762D01*
X0226024Y0175109D01*
X0226024Y0176099D01*
X0226100Y0176175D01*
X0226100Y0175685D01*
X0227000Y0174785D01*
X0227000Y0173658D01*
X0227708Y0172949D01*
X0227820Y0172837D01*
X0231651Y0169006D01*
X0231720Y0168937D01*
X0240720Y0168937D01*
X0241700Y0167958D01*
X0241700Y0166685D01*
X0243047Y0165337D01*
X0244952Y0165337D01*
X0246300Y0166685D01*
X0246300Y0168590D01*
X0244952Y0169937D01*
X0243680Y0169937D01*
X0242700Y0170917D01*
X0242700Y0170917D01*
X0241931Y0171686D01*
X0241880Y0171737D01*
X0236652Y0171737D01*
X0237277Y0172362D01*
X0272271Y0172362D01*
X0272971Y0171662D01*
X0274877Y0171662D01*
X0276224Y0173009D01*
X0276224Y0174914D01*
X0274877Y0176262D01*
X0273624Y0176262D01*
X0273624Y0177037D01*
X0274408Y0177037D01*
X0275187Y0177037D01*
X0275187Y0177037D01*
X0276626Y0177037D01*
X0276673Y0176922D01*
X0277686Y0175910D01*
X0278155Y0175716D01*
X0278116Y0163353D01*
X0277993Y0163147D01*
X0278114Y0162673D01*
X0278112Y0162184D01*
X0278281Y0162014D01*
X0278340Y0161782D01*
X0278760Y0161532D01*
X0279105Y0161185D01*
X0279345Y0161185D01*
X0280377Y0160571D01*
X0280377Y0160229D01*
X0281194Y0159411D01*
X0279524Y0156519D01*
X0280391Y0158020D02*
X0223111Y0158020D01*
X0222112Y0159018D02*
X0280967Y0159018D01*
X0280589Y0160017D02*
X0221874Y0160017D01*
X0221874Y0161015D02*
X0279630Y0161015D01*
X0278281Y0162014D02*
X0221874Y0162014D01*
X0221874Y0163012D02*
X0278027Y0163012D01*
X0278118Y0164011D02*
X0221874Y0164011D01*
X0221874Y0165009D02*
X0278121Y0165009D01*
X0278124Y0166008D02*
X0245622Y0166008D01*
X0246300Y0167006D02*
X0278127Y0167006D01*
X0278130Y0168005D02*
X0246300Y0168005D01*
X0245887Y0169003D02*
X0278134Y0169003D01*
X0278137Y0170002D02*
X0243615Y0170002D01*
X0242617Y0171000D02*
X0278140Y0171000D01*
X0278143Y0171999D02*
X0275214Y0171999D01*
X0276212Y0172997D02*
X0278146Y0172997D01*
X0278149Y0173996D02*
X0276224Y0173996D01*
X0276144Y0174994D02*
X0278152Y0174994D01*
X0277603Y0175993D02*
X0275146Y0175993D01*
X0276645Y0176991D02*
X0273624Y0176991D01*
X0271324Y0176562D02*
X0271024Y0176262D01*
X0237824Y0176262D01*
X0235824Y0178262D01*
X0232566Y0180970D02*
X0231158Y0180962D01*
X0228658Y0180962D01*
X0228624Y0180962D01*
X0223724Y0176062D01*
X0226024Y0175993D02*
X0226100Y0175993D01*
X0225909Y0174994D02*
X0226790Y0174994D01*
X0227000Y0173996D02*
X0224911Y0173996D01*
X0222537Y0173996D02*
X0221874Y0173996D01*
X0221874Y0172997D02*
X0227660Y0172997D01*
X0227820Y0172837D02*
X0227820Y0172837D01*
X0228658Y0171999D02*
X0221874Y0171999D01*
X0221874Y0171000D02*
X0229657Y0171000D01*
X0230655Y0170002D02*
X0221874Y0170002D01*
X0221874Y0169003D02*
X0231654Y0169003D01*
X0235624Y0173962D02*
X0273924Y0173962D01*
X0272634Y0171999D02*
X0236914Y0171999D01*
X0241652Y0168005D02*
X0221874Y0168005D01*
X0221874Y0167006D02*
X0241700Y0167006D01*
X0242377Y0166008D02*
X0221874Y0166008D01*
X0216074Y0166008D02*
X0159223Y0166008D01*
X0160221Y0167006D02*
X0216074Y0167006D01*
X0216074Y0168005D02*
X0188620Y0168005D01*
X0189618Y0169003D02*
X0207446Y0169003D01*
X0207646Y0168803D02*
X0207646Y0168803D01*
X0207646Y0168803D01*
X0206447Y0170002D02*
X0189824Y0170002D01*
X0190142Y0171000D02*
X0205448Y0171000D01*
X0205637Y0170812D02*
X0205637Y0170812D01*
X0204524Y0171999D02*
X0191141Y0171999D01*
X0192139Y0172997D02*
X0204524Y0172997D01*
X0204524Y0173996D02*
X0193138Y0173996D01*
X0194136Y0174994D02*
X0201789Y0174994D01*
X0208324Y0174994D02*
X0215889Y0174994D01*
X0216074Y0173996D02*
X0208324Y0173996D01*
X0208324Y0175993D02*
X0215374Y0175993D01*
X0215374Y0176991D02*
X0208324Y0176991D01*
X0208324Y0177990D02*
X0215949Y0177990D01*
X0217874Y0178988D02*
X0208324Y0178988D01*
X0208324Y0179987D02*
X0217874Y0179987D01*
X0218645Y0180985D02*
X0208324Y0180985D01*
X0208324Y0181984D02*
X0222901Y0181984D01*
X0222900Y0182982D02*
X0208324Y0182982D01*
X0211394Y0190762D02*
X0200204Y0190762D01*
X0197924Y0193042D01*
X0197104Y0193862D01*
X0195944Y0193862D01*
X0195944Y0193862D01*
X0174604Y0193862D01*
X0174024Y0194442D01*
X0174024Y0200309D01*
X0174924Y0201209D01*
X0174924Y0201237D01*
X0217880Y0201237D01*
X0218700Y0202058D01*
X0221263Y0204621D01*
X0221947Y0203937D01*
X0223852Y0203937D01*
X0225200Y0205285D01*
X0225200Y0207190D01*
X0223852Y0208537D01*
X0221947Y0208537D01*
X0221047Y0207637D01*
X0220320Y0207637D01*
X0220036Y0207354D01*
X0218852Y0208537D01*
X0218850Y0208537D01*
X0218850Y0260808D01*
X0218850Y0270347D01*
X0220164Y0271661D01*
X0221415Y0271661D01*
X0220331Y0270577D01*
X0219563Y0268723D01*
X0219563Y0266717D01*
X0220331Y0264863D01*
X0221749Y0263445D01*
X0223603Y0262677D01*
X0225609Y0262677D01*
X0227463Y0263445D01*
X0228882Y0264863D01*
X0229649Y0266717D01*
X0229649Y0268723D01*
X0228882Y0270577D01*
X0227797Y0271661D01*
X0229703Y0271661D01*
X0238361Y0280319D01*
X0255587Y0280319D01*
X0255587Y0279740D01*
X0255487Y0279640D01*
X0255290Y0279298D01*
X0255187Y0278916D01*
X0255187Y0277219D01*
X0259187Y0277219D01*
X0259187Y0276219D01*
X0255187Y0276219D01*
X0255187Y0274521D01*
X0255290Y0274140D01*
X0255487Y0273798D01*
X0255587Y0273697D01*
X0255587Y0273337D01*
X0239595Y0273337D01*
X0238600Y0272342D01*
X0238600Y0272342D01*
X0227025Y0260767D01*
X0227025Y0260587D01*
X0227025Y0245440D01*
X0226425Y0244840D01*
X0226425Y0242935D01*
X0227773Y0241587D01*
X0228621Y0241587D01*
X0231400Y0238809D01*
X0231400Y0228190D01*
X0230800Y0227590D01*
X0230800Y0226690D01*
X0228461Y0224352D01*
X0226294Y0226520D01*
X0224893Y0226519D01*
X0224893Y0222732D01*
X0224319Y0222732D01*
X0224319Y0226520D01*
X0222918Y0226520D01*
X0220531Y0224133D01*
X0220531Y0222732D01*
X0224319Y0222732D01*
X0224319Y0222157D01*
X0224893Y0222157D01*
X0224893Y0218370D01*
X0226294Y0218370D01*
X0228300Y0220376D01*
X0228300Y0208040D01*
X0227700Y0207440D01*
X0227700Y0205535D01*
X0229047Y0204187D01*
X0230952Y0204187D01*
X0232300Y0205535D01*
X0232300Y0207440D01*
X0231700Y0208040D01*
X0231700Y0222782D01*
X0233230Y0224312D01*
X0234078Y0224312D01*
X0235425Y0225659D01*
X0235425Y0227564D01*
X0235400Y0227590D01*
X0235400Y0227590D01*
X0234800Y0228190D01*
X0234800Y0240217D01*
X0231025Y0243992D01*
X0231025Y0244840D01*
X0230425Y0245440D01*
X0230425Y0259359D01*
X0241004Y0269937D01*
X0255587Y0269937D01*
X0255587Y0269263D01*
X0255632Y0269219D01*
X0255587Y0269174D01*
X0255587Y0264263D01*
X0255632Y0264219D01*
X0255587Y0264174D01*
X0255587Y0259263D01*
X0255632Y0259219D01*
X0255587Y0259174D01*
X0255587Y0254263D01*
X0255632Y0254219D01*
X0255587Y0254174D01*
X0255587Y0249263D01*
X0255632Y0249219D01*
X0255587Y0249174D01*
X0255587Y0244263D01*
X0255632Y0244219D01*
X0255587Y0244174D01*
X0255587Y0239740D01*
X0255487Y0239640D01*
X0255290Y0239298D01*
X0255187Y0238916D01*
X0255187Y0237219D01*
X0259187Y0237219D01*
X0259187Y0236219D01*
X0255187Y0236219D01*
X0255187Y0234521D01*
X0255290Y0234140D01*
X0255487Y0233798D01*
X0255587Y0233697D01*
X0255587Y0229263D01*
X0255632Y0229219D01*
X0255587Y0229174D01*
X0255587Y0224263D01*
X0255632Y0224219D01*
X0255587Y0224174D01*
X0255587Y0219263D01*
X0255632Y0219219D01*
X0255587Y0219174D01*
X0255587Y0214263D01*
X0255632Y0214219D01*
X0255587Y0214174D01*
X0255587Y0209740D01*
X0255487Y0209640D01*
X0255290Y0209298D01*
X0255187Y0208916D01*
X0255187Y0207219D01*
X0259187Y0207219D01*
X0259187Y0206219D01*
X0255187Y0206219D01*
X0255187Y0204521D01*
X0255290Y0204140D01*
X0255487Y0203798D01*
X0255766Y0203518D01*
X0256080Y0203337D01*
X0252552Y0203337D01*
X0251652Y0204237D01*
X0250352Y0204237D01*
X0250500Y0204385D01*
X0250500Y0206290D01*
X0249600Y0207190D01*
X0249600Y0217717D01*
X0242100Y0225217D01*
X0242100Y0226490D01*
X0240752Y0227837D01*
X0238847Y0227837D01*
X0237500Y0226490D01*
X0237500Y0224585D01*
X0238847Y0223237D01*
X0240120Y0223237D01*
X0246800Y0216558D01*
X0246800Y0207190D01*
X0245900Y0206290D01*
X0245900Y0204385D01*
X0246147Y0204137D01*
X0244647Y0204137D01*
X0243300Y0202790D01*
X0243300Y0201517D01*
X0242920Y0201137D01*
X0236980Y0201137D01*
X0235820Y0201137D01*
X0227020Y0192337D01*
X0226110Y0192337D01*
X0225541Y0192346D01*
X0225532Y0192337D01*
X0225520Y0192337D01*
X0225117Y0191935D01*
X0224759Y0191587D01*
X0223447Y0191587D01*
X0222100Y0190240D01*
X0222100Y0188335D01*
X0222773Y0187662D01*
X0215854Y0187662D01*
X0218504Y0190312D01*
X0219777Y0190312D01*
X0221124Y0191659D01*
X0221124Y0193564D01*
X0220277Y0194412D01*
X0221024Y0195159D01*
X0221024Y0197064D01*
X0219677Y0198412D01*
X0217771Y0198412D01*
X0216424Y0197064D01*
X0216424Y0195792D01*
X0211394Y0190762D01*
X0211603Y0190970D02*
X0199995Y0190970D01*
X0198997Y0191969D02*
X0212601Y0191969D01*
X0213600Y0192967D02*
X0203882Y0192967D01*
X0204324Y0193409D02*
X0204324Y0195314D01*
X0202977Y0196662D01*
X0201987Y0196662D01*
X0198887Y0199762D01*
X0186477Y0199762D01*
X0185777Y0200462D01*
X0183871Y0200462D01*
X0182524Y0199114D01*
X0182524Y0197209D01*
X0183871Y0195862D01*
X0185777Y0195862D01*
X0186477Y0196562D01*
X0197561Y0196562D01*
X0199724Y0194399D01*
X0199724Y0193409D01*
X0201071Y0192062D01*
X0202977Y0192062D01*
X0204324Y0193409D01*
X0204324Y0193966D02*
X0214598Y0193966D01*
X0215597Y0194964D02*
X0204324Y0194964D01*
X0203675Y0195963D02*
X0216424Y0195963D01*
X0216424Y0196962D02*
X0201687Y0196962D01*
X0200688Y0197960D02*
X0217320Y0197960D01*
X0220128Y0197960D02*
X0232642Y0197960D01*
X0231644Y0196962D02*
X0221024Y0196962D01*
X0221024Y0195963D02*
X0230645Y0195963D01*
X0229647Y0194964D02*
X0220829Y0194964D01*
X0220722Y0193966D02*
X0228648Y0193966D01*
X0227650Y0192967D02*
X0221124Y0192967D01*
X0221124Y0191969D02*
X0225151Y0191969D01*
X0222830Y0190970D02*
X0220435Y0190970D01*
X0222100Y0189972D02*
X0218164Y0189972D01*
X0217166Y0188973D02*
X0222100Y0188973D01*
X0222459Y0187975D02*
X0216167Y0187975D01*
X0221703Y0180985D02*
X0223899Y0180985D01*
X0222474Y0179987D02*
X0225386Y0179987D01*
X0224388Y0178988D02*
X0222474Y0178988D01*
X0222399Y0177990D02*
X0222155Y0177990D01*
X0217674Y0176462D02*
X0217674Y0158252D01*
X0225397Y0150529D01*
X0225397Y0148703D01*
X0225397Y0139064D01*
X0225423Y0139091D01*
X0225440Y0139107D02*
X0225397Y0139064D01*
X0221797Y0139048D02*
X0218997Y0139048D01*
X0218997Y0140046D02*
X0221797Y0140046D01*
X0221797Y0141045D02*
X0218997Y0141045D01*
X0218997Y0142043D02*
X0221797Y0142043D01*
X0221797Y0143042D02*
X0218997Y0143042D01*
X0218997Y0144040D02*
X0221797Y0144040D01*
X0222316Y0145039D02*
X0218478Y0145039D01*
X0217821Y0146037D02*
X0223797Y0146037D01*
X0223797Y0147036D02*
X0222196Y0147036D01*
X0222714Y0148034D02*
X0223106Y0148034D01*
X0223106Y0149033D02*
X0222714Y0149033D01*
X0222134Y0150031D02*
X0223486Y0150031D01*
X0222633Y0151030D02*
X0198275Y0151030D01*
X0198339Y0150711D02*
X0198190Y0151458D01*
X0197899Y0152161D01*
X0197476Y0152793D01*
X0196939Y0153331D01*
X0196306Y0153754D01*
X0195603Y0154045D01*
X0194857Y0154193D01*
X0194567Y0154193D01*
X0194567Y0150422D01*
X0194386Y0150422D01*
X0194386Y0154193D01*
X0194096Y0154193D01*
X0193350Y0154045D01*
X0192647Y0153754D01*
X0192015Y0153331D01*
X0191477Y0152793D01*
X0191054Y0152161D01*
X0190763Y0151458D01*
X0190614Y0150711D01*
X0190614Y0150422D01*
X0194386Y0150422D01*
X0194386Y0150241D01*
X0190614Y0150241D01*
X0190614Y0149951D01*
X0190763Y0149205D01*
X0191054Y0148502D01*
X0191477Y0147869D01*
X0192015Y0147331D01*
X0192647Y0146908D01*
X0193350Y0146617D01*
X0194096Y0146469D01*
X0194386Y0146469D01*
X0194386Y0150240D01*
X0194567Y0150240D01*
X0194567Y0146469D01*
X0194857Y0146469D01*
X0195603Y0146617D01*
X0196306Y0146908D01*
X0196939Y0147331D01*
X0197476Y0147869D01*
X0197899Y0148502D01*
X0198190Y0149205D01*
X0198339Y0149951D01*
X0198339Y0150241D01*
X0194567Y0150241D01*
X0194567Y0150422D01*
X0198339Y0150422D01*
X0198339Y0150711D01*
X0198339Y0150031D02*
X0217289Y0150031D01*
X0216291Y0149033D02*
X0198119Y0149033D01*
X0197587Y0148034D02*
X0215292Y0148034D01*
X0214294Y0147036D02*
X0196497Y0147036D01*
X0194567Y0147036D02*
X0194386Y0147036D01*
X0194386Y0148034D02*
X0194567Y0148034D01*
X0194567Y0149033D02*
X0194386Y0149033D01*
X0194386Y0150031D02*
X0194567Y0150031D01*
X0194567Y0151030D02*
X0194386Y0151030D01*
X0194386Y0152028D02*
X0194567Y0152028D01*
X0194567Y0153027D02*
X0194386Y0153027D01*
X0194386Y0154026D02*
X0194567Y0154026D01*
X0195650Y0154026D02*
X0219638Y0154026D01*
X0218639Y0155024D02*
X0153874Y0155024D01*
X0153874Y0154259D02*
X0152527Y0152912D01*
X0150621Y0152912D01*
X0149624Y0153909D01*
X0148627Y0152912D01*
X0146721Y0152912D01*
X0145374Y0154259D01*
X0145374Y0156164D01*
X0145974Y0156764D01*
X0145974Y0165658D01*
X0145974Y0167066D01*
X0146189Y0167281D01*
X0151774Y0172866D01*
X0151774Y0173714D01*
X0153121Y0175062D01*
X0154874Y0175062D01*
X0154874Y0179362D01*
X0154821Y0179362D01*
X0153474Y0180709D01*
X0153474Y0182614D01*
X0154074Y0183214D01*
X0154074Y0199508D01*
X0153320Y0200262D01*
X0152471Y0200262D01*
X0151124Y0201609D01*
X0151124Y0202447D01*
X0149809Y0202447D01*
X0148467Y0203789D01*
X0148467Y0205686D01*
X0149809Y0207028D01*
X0151706Y0207028D01*
X0152597Y0206137D01*
X0172720Y0206137D01*
X0172720Y0206137D01*
X0173880Y0206137D01*
X0174700Y0205317D01*
X0174700Y0205317D01*
X0175980Y0204037D01*
X0185349Y0204037D01*
X0185290Y0204140D01*
X0185187Y0204521D01*
X0185187Y0206219D01*
X0189187Y0206219D01*
X0189187Y0207219D01*
X0185187Y0207219D01*
X0185187Y0208916D01*
X0185290Y0209298D01*
X0185487Y0209640D01*
X0185587Y0209740D01*
X0185587Y0214174D01*
X0185632Y0214219D01*
X0185587Y0214263D01*
X0185587Y0219174D01*
X0185632Y0219219D01*
X0185587Y0219263D01*
X0185587Y0224174D01*
X0185632Y0224219D01*
X0185587Y0224263D01*
X0185587Y0229174D01*
X0185632Y0229219D01*
X0185587Y0229263D01*
X0185587Y0234174D01*
X0185632Y0234219D01*
X0185587Y0234263D01*
X0185587Y0238697D01*
X0185487Y0238798D01*
X0185290Y0239140D01*
X0185187Y0239521D01*
X0185187Y0241219D01*
X0189187Y0241219D01*
X0189187Y0242219D01*
X0185187Y0242219D01*
X0185187Y0243916D01*
X0185290Y0244298D01*
X0185487Y0244640D01*
X0185587Y0244740D01*
X0185587Y0249174D01*
X0185632Y0249219D01*
X0185587Y0249263D01*
X0185587Y0253697D01*
X0185487Y0253798D01*
X0185290Y0254140D01*
X0185187Y0254521D01*
X0185187Y0256219D01*
X0189187Y0256219D01*
X0189187Y0257219D01*
X0185685Y0257219D01*
X0185400Y0256933D01*
X0185400Y0256933D01*
X0184404Y0255937D01*
X0182944Y0255937D01*
X0182944Y0255639D01*
X0182431Y0255125D01*
X0182765Y0254932D01*
X0183044Y0254653D01*
X0183242Y0254311D01*
X0183344Y0253929D01*
X0183344Y0252051D01*
X0180360Y0252051D01*
X0180360Y0251082D01*
X0183344Y0251082D01*
X0183344Y0249204D01*
X0183242Y0248822D01*
X0183044Y0248480D01*
X0182765Y0248201D01*
X0182423Y0248004D01*
X0182041Y0247901D01*
X0180360Y0247901D01*
X0180360Y0251082D01*
X0179391Y0251082D01*
X0179391Y0247901D01*
X0177709Y0247901D01*
X0177328Y0248004D01*
X0176986Y0248201D01*
X0176707Y0248480D01*
X0176509Y0248822D01*
X0176407Y0249204D01*
X0176407Y0251082D01*
X0179391Y0251082D01*
X0179391Y0252051D01*
X0176407Y0252051D01*
X0176407Y0253929D01*
X0176509Y0254311D01*
X0176707Y0254653D01*
X0176986Y0254932D01*
X0177320Y0255125D01*
X0176807Y0255639D01*
X0176807Y0255937D01*
X0176745Y0255937D01*
X0175750Y0256933D01*
X0175750Y0258342D01*
X0175750Y0258342D01*
X0175750Y0262278D01*
X0175121Y0262907D01*
X0175121Y0268936D01*
X0175634Y0269450D01*
X0175300Y0269643D01*
X0175021Y0269922D01*
X0174823Y0270264D01*
X0174721Y0270645D01*
X0174721Y0272902D01*
X0178674Y0272902D01*
X0178674Y0273902D01*
X0178674Y0277461D01*
X0176024Y0277461D01*
X0175642Y0277359D01*
X0175300Y0277161D01*
X0175021Y0276882D01*
X0174823Y0276540D01*
X0174721Y0276159D01*
X0174721Y0273902D01*
X0178674Y0273902D01*
X0179674Y0273902D01*
X0183627Y0273902D01*
X0183627Y0276159D01*
X0183524Y0276540D01*
X0183327Y0276882D01*
X0183048Y0277161D01*
X0182706Y0277359D01*
X0182324Y0277461D01*
X0179674Y0277461D01*
X0179674Y0273902D01*
X0179674Y0272902D01*
X0183627Y0272902D01*
X0183627Y0270645D01*
X0183524Y0270264D01*
X0183327Y0269922D01*
X0183048Y0269643D01*
X0182713Y0269450D01*
X0182826Y0269337D01*
X0183154Y0269337D01*
X0183802Y0268689D01*
X0185587Y0266904D01*
X0185587Y0269174D01*
X0185632Y0269219D01*
X0185587Y0269263D01*
X0185587Y0274174D01*
X0185632Y0274219D01*
X0185587Y0274263D01*
X0185587Y0279174D01*
X0185632Y0279219D01*
X0185587Y0279263D01*
X0185587Y0284174D01*
X0185632Y0284219D01*
X0185587Y0284263D01*
X0185587Y0289174D01*
X0185632Y0289219D01*
X0185587Y0289263D01*
X0185587Y0294174D01*
X0185632Y0294219D01*
X0185587Y0294263D01*
X0185587Y0298697D01*
X0185487Y0298798D01*
X0185290Y0299140D01*
X0185187Y0299521D01*
X0185187Y0301219D01*
X0189187Y0301219D01*
X0189187Y0302219D01*
X0185187Y0302219D01*
X0185187Y0303916D01*
X0185290Y0304298D01*
X0185487Y0304640D01*
X0185766Y0304919D01*
X0186108Y0305116D01*
X0186490Y0305219D01*
X0189187Y0305219D01*
X0189187Y0302219D01*
X0190187Y0302219D01*
X0190187Y0305219D01*
X0192885Y0305219D01*
X0193266Y0305116D01*
X0193608Y0304919D01*
X0193888Y0304640D01*
X0194085Y0304298D01*
X0194187Y0303916D01*
X0194187Y0302219D01*
X0190187Y0302219D01*
X0190187Y0301219D01*
X0194187Y0301219D01*
X0194187Y0299521D01*
X0194085Y0299140D01*
X0193888Y0298798D01*
X0193787Y0298697D01*
X0193787Y0294263D01*
X0193743Y0294219D01*
X0193787Y0294174D01*
X0193787Y0289263D01*
X0193743Y0289219D01*
X0193787Y0289174D01*
X0193787Y0284263D01*
X0193743Y0284219D01*
X0193787Y0284174D01*
X0193787Y0279263D01*
X0193743Y0279219D01*
X0193787Y0279174D01*
X0193787Y0274263D01*
X0193743Y0274219D01*
X0193787Y0274174D01*
X0193787Y0269263D01*
X0193743Y0269219D01*
X0193787Y0269174D01*
X0193787Y0264954D01*
X0194150Y0264592D01*
X0194150Y0263183D01*
X0194150Y0263183D01*
X0194150Y0263061D01*
X0194664Y0263061D01*
X0195484Y0262241D01*
X0195941Y0261784D01*
X0195941Y0261935D01*
X0198895Y0264890D01*
X0200484Y0264890D01*
X0200484Y0260346D01*
X0201484Y0260346D01*
X0206027Y0260346D01*
X0206027Y0261935D01*
X0203073Y0264890D01*
X0201484Y0264890D01*
X0201484Y0260346D01*
X0201484Y0259346D01*
X0201484Y0254803D01*
X0203073Y0254803D01*
X0206027Y0257757D01*
X0206027Y0259346D01*
X0201484Y0259346D01*
X0200484Y0259346D01*
X0200484Y0255141D01*
X0202838Y0252787D01*
X0208097Y0252787D01*
X0208997Y0253687D01*
X0210902Y0253687D01*
X0212250Y0252340D01*
X0212250Y0250435D01*
X0210902Y0249087D01*
X0208997Y0249087D01*
X0208097Y0249987D01*
X0201678Y0249987D01*
X0194904Y0256761D01*
X0194187Y0257478D01*
X0194187Y0257219D01*
X0190187Y0257219D01*
X0190187Y0256219D01*
X0194187Y0256219D01*
X0194187Y0254521D01*
X0194085Y0254140D01*
X0193888Y0253798D01*
X0193787Y0253697D01*
X0193787Y0249263D01*
X0193743Y0249219D01*
X0193787Y0249174D01*
X0193787Y0244740D01*
X0193888Y0244640D01*
X0194085Y0244298D01*
X0194187Y0243916D01*
X0194187Y0242219D01*
X0190187Y0242219D01*
X0190187Y0241219D01*
X0194187Y0241219D01*
X0194187Y0239521D01*
X0194085Y0239140D01*
X0193888Y0238798D01*
X0193787Y0238697D01*
X0193787Y0238137D01*
X0194047Y0238137D01*
X0194947Y0239037D01*
X0196341Y0239037D01*
X0196341Y0242085D01*
X0199061Y0244805D01*
X0199701Y0244805D01*
X0199393Y0245112D01*
X0199393Y0247010D01*
X0200735Y0248352D01*
X0202633Y0248352D01*
X0203975Y0247010D01*
X0203975Y0245751D01*
X0207184Y0242541D01*
X0207184Y0237481D01*
X0206364Y0236661D01*
X0206364Y0236661D01*
X0202894Y0233191D01*
X0203575Y0232510D01*
X0203575Y0230612D01*
X0202233Y0229271D01*
X0200335Y0229271D01*
X0198993Y0230612D01*
X0198993Y0232510D01*
X0199884Y0233401D01*
X0199884Y0234141D01*
X0201261Y0235518D01*
X0199061Y0235518D01*
X0198200Y0236379D01*
X0198200Y0235785D01*
X0196852Y0234437D01*
X0194947Y0234437D01*
X0194047Y0235337D01*
X0193787Y0235337D01*
X0193787Y0234263D01*
X0193743Y0234219D01*
X0193787Y0234174D01*
X0193787Y0233037D01*
X0194047Y0233037D01*
X0194947Y0233937D01*
X0196852Y0233937D01*
X0198200Y0232590D01*
X0198200Y0230685D01*
X0196852Y0229337D01*
X0194947Y0229337D01*
X0194047Y0230237D01*
X0193787Y0230237D01*
X0193787Y0229263D01*
X0193743Y0229219D01*
X0193787Y0229174D01*
X0193787Y0224263D01*
X0193743Y0224219D01*
X0193787Y0224174D01*
X0193787Y0219263D01*
X0193743Y0219219D01*
X0193787Y0219174D01*
X0193787Y0214263D01*
X0193743Y0214219D01*
X0193787Y0214174D01*
X0193787Y0209740D01*
X0193888Y0209640D01*
X0194085Y0209298D01*
X0194187Y0208916D01*
X0194187Y0207219D01*
X0190187Y0207219D01*
X0190187Y0206219D01*
X0194187Y0206219D01*
X0194187Y0204521D01*
X0194085Y0204140D01*
X0194026Y0204037D01*
X0205847Y0204037D01*
X0205500Y0204385D01*
X0205500Y0206290D01*
X0206400Y0207190D01*
X0206400Y0210558D01*
X0204620Y0212337D01*
X0203347Y0212337D01*
X0202000Y0213685D01*
X0202000Y0215590D01*
X0203347Y0216937D01*
X0205252Y0216937D01*
X0206600Y0215590D01*
X0206600Y0214317D01*
X0209200Y0211717D01*
X0209200Y0207190D01*
X0210100Y0206290D01*
X0210100Y0204385D01*
X0209752Y0204037D01*
X0216720Y0204037D01*
X0216783Y0204101D01*
X0215600Y0205285D01*
X0215600Y0207190D01*
X0216050Y0207640D01*
X0216050Y0237988D01*
X0215433Y0237371D01*
X0213535Y0237371D01*
X0212193Y0238712D01*
X0212193Y0240610D01*
X0213535Y0241952D01*
X0214695Y0241952D01*
X0214784Y0242041D01*
X0214784Y0275041D01*
X0217884Y0278141D01*
X0218704Y0278961D01*
X0220931Y0278961D01*
X0220931Y0279085D01*
X0223084Y0281238D01*
X0226128Y0281238D01*
X0228281Y0279085D01*
X0228281Y0276041D01*
X0226701Y0274461D01*
X0228544Y0274461D01*
X0237201Y0283119D01*
X0255587Y0283119D01*
X0255587Y0284174D01*
X0255632Y0284219D01*
X0255587Y0284263D01*
X0255587Y0289174D01*
X0255632Y0289219D01*
X0255587Y0289263D01*
X0255587Y0294174D01*
X0255632Y0294219D01*
X0255587Y0294263D01*
X0255587Y0298697D01*
X0255487Y0298798D01*
X0255290Y0299140D01*
X0255187Y0299521D01*
X0255187Y0301219D01*
X0259187Y0301219D01*
X0259187Y0302219D01*
X0255187Y0302219D01*
X0255187Y0303916D01*
X0255290Y0304298D01*
X0255487Y0304640D01*
X0255766Y0304919D01*
X0256108Y0305116D01*
X0256490Y0305219D01*
X0259187Y0305219D01*
X0259187Y0302219D01*
X0260187Y0302219D01*
X0260187Y0305219D01*
X0262885Y0305219D01*
X0263266Y0305116D01*
X0263608Y0304919D01*
X0263888Y0304640D01*
X0264085Y0304298D01*
X0264187Y0303916D01*
X0264187Y0302219D01*
X0260187Y0302219D01*
X0260187Y0301219D01*
X0264187Y0301219D01*
X0264187Y0299521D01*
X0264085Y0299140D01*
X0263888Y0298798D01*
X0263787Y0298697D01*
X0263787Y0294263D01*
X0263743Y0294219D01*
X0263787Y0294174D01*
X0263787Y0289263D01*
X0263743Y0289219D01*
X0263787Y0289174D01*
X0263787Y0284263D01*
X0263743Y0284219D01*
X0263787Y0284174D01*
X0263787Y0283419D01*
X0266610Y0283419D01*
X0266610Y0284184D01*
X0267254Y0284828D01*
X0272496Y0284828D01*
X0273141Y0284184D01*
X0273141Y0279335D01*
X0272496Y0278691D01*
X0267254Y0278691D01*
X0266610Y0279335D01*
X0266610Y0280019D01*
X0263787Y0280019D01*
X0263787Y0279740D01*
X0263888Y0279640D01*
X0264085Y0279298D01*
X0264187Y0278916D01*
X0264187Y0277219D01*
X0260187Y0277219D01*
X0260187Y0276219D01*
X0264187Y0276219D01*
X0264187Y0274521D01*
X0264085Y0274140D01*
X0263888Y0273798D01*
X0263787Y0273697D01*
X0263787Y0273337D01*
X0266610Y0273337D01*
X0266610Y0277491D01*
X0267254Y0278135D01*
X0272496Y0278135D01*
X0273141Y0277491D01*
X0273141Y0272643D01*
X0272496Y0271998D01*
X0271464Y0271998D01*
X0271115Y0271648D01*
X0270400Y0270933D01*
X0270400Y0270933D01*
X0269832Y0270365D01*
X0269404Y0269937D01*
X0269404Y0269937D01*
X0269404Y0269937D01*
X0268778Y0269937D01*
X0267995Y0269937D01*
X0267995Y0269937D01*
X0263787Y0269937D01*
X0263787Y0269263D01*
X0263743Y0269219D01*
X0263787Y0269174D01*
X0263787Y0264263D01*
X0263743Y0264219D01*
X0263787Y0264174D01*
X0263787Y0259263D01*
X0263743Y0259219D01*
X0263787Y0259174D01*
X0263787Y0254263D01*
X0263743Y0254219D01*
X0263787Y0254174D01*
X0263787Y0249263D01*
X0263743Y0249219D01*
X0263787Y0249174D01*
X0263787Y0244263D01*
X0263743Y0244219D01*
X0263787Y0244174D01*
X0263787Y0239740D01*
X0263888Y0239640D01*
X0264085Y0239298D01*
X0264187Y0238916D01*
X0264187Y0237219D01*
X0260187Y0237219D01*
X0260187Y0236219D01*
X0264187Y0236219D01*
X0264187Y0234521D01*
X0264085Y0234140D01*
X0263888Y0233798D01*
X0263787Y0233697D01*
X0263787Y0229263D01*
X0263743Y0229219D01*
X0263787Y0229174D01*
X0263787Y0224263D01*
X0263743Y0224219D01*
X0263787Y0224174D01*
X0263787Y0219263D01*
X0263743Y0219219D01*
X0263787Y0219174D01*
X0263787Y0214263D01*
X0263743Y0214219D01*
X0263787Y0214174D01*
X0263787Y0209740D01*
X0263888Y0209640D01*
X0264085Y0209298D01*
X0264187Y0208916D01*
X0264187Y0207219D01*
X0260187Y0207219D01*
X0260187Y0206219D01*
X0264187Y0206219D01*
X0264187Y0204521D01*
X0264085Y0204140D01*
X0263888Y0203798D01*
X0263608Y0203518D01*
X0263295Y0203337D01*
X0267520Y0203337D01*
X0270700Y0206517D01*
X0270700Y0207790D01*
X0272047Y0209137D01*
X0273952Y0209137D01*
X0275300Y0207790D01*
X0275300Y0206737D01*
X0275337Y0206737D01*
X0276296Y0207697D01*
X0276100Y0208171D01*
X0276100Y0209604D01*
X0276648Y0210927D01*
X0277660Y0211939D01*
X0263787Y0211939D01*
X0263787Y0210941D02*
X0276662Y0210941D01*
X0276240Y0209942D02*
X0263787Y0209942D01*
X0264180Y0208944D02*
X0271853Y0208944D01*
X0270855Y0207945D02*
X0264187Y0207945D01*
X0264187Y0205948D02*
X0270130Y0205948D01*
X0270700Y0206947D02*
X0260187Y0206947D01*
X0259187Y0206947D02*
X0249843Y0206947D01*
X0249600Y0207945D02*
X0255187Y0207945D01*
X0255195Y0208944D02*
X0249600Y0208944D01*
X0249600Y0209942D02*
X0255587Y0209942D01*
X0255587Y0210941D02*
X0249600Y0210941D01*
X0249600Y0211939D02*
X0255587Y0211939D01*
X0255587Y0212938D02*
X0249600Y0212938D01*
X0249600Y0213936D02*
X0255587Y0213936D01*
X0255587Y0214935D02*
X0249600Y0214935D01*
X0249600Y0215933D02*
X0255587Y0215933D01*
X0255587Y0216932D02*
X0249600Y0216932D01*
X0249387Y0217930D02*
X0255587Y0217930D01*
X0255587Y0218929D02*
X0248388Y0218929D01*
X0247390Y0219927D02*
X0255587Y0219927D01*
X0255587Y0220926D02*
X0246391Y0220926D01*
X0245393Y0221924D02*
X0255587Y0221924D01*
X0255587Y0222923D02*
X0244394Y0222923D01*
X0243396Y0223921D02*
X0255587Y0223921D01*
X0255587Y0224920D02*
X0242397Y0224920D01*
X0242100Y0225918D02*
X0255587Y0225918D01*
X0255587Y0226917D02*
X0241673Y0226917D01*
X0237926Y0226917D02*
X0235425Y0226917D01*
X0235425Y0225918D02*
X0237500Y0225918D01*
X0237500Y0224920D02*
X0234686Y0224920D01*
X0232839Y0223921D02*
X0238163Y0223921D01*
X0240434Y0222923D02*
X0231841Y0222923D01*
X0231700Y0221924D02*
X0241433Y0221924D01*
X0242431Y0220926D02*
X0231700Y0220926D01*
X0231700Y0219927D02*
X0243430Y0219927D01*
X0244428Y0218929D02*
X0231700Y0218929D01*
X0231700Y0217930D02*
X0245427Y0217930D01*
X0246425Y0216932D02*
X0231700Y0216932D01*
X0231700Y0215933D02*
X0246800Y0215933D01*
X0246800Y0214935D02*
X0231700Y0214935D01*
X0231700Y0213936D02*
X0246800Y0213936D01*
X0246800Y0212938D02*
X0231700Y0212938D01*
X0231700Y0211939D02*
X0246800Y0211939D01*
X0246800Y0210941D02*
X0231700Y0210941D01*
X0231700Y0209942D02*
X0246800Y0209942D01*
X0246800Y0208944D02*
X0231700Y0208944D01*
X0231795Y0207945D02*
X0246800Y0207945D01*
X0246556Y0206947D02*
X0232300Y0206947D01*
X0232300Y0205948D02*
X0245900Y0205948D01*
X0245900Y0204950D02*
X0231714Y0204950D01*
X0228285Y0204950D02*
X0224864Y0204950D01*
X0225200Y0205948D02*
X0227700Y0205948D01*
X0227700Y0206947D02*
X0225200Y0206947D01*
X0224445Y0207945D02*
X0228205Y0207945D01*
X0228300Y0208944D02*
X0218850Y0208944D01*
X0218850Y0209942D02*
X0228300Y0209942D01*
X0228300Y0210941D02*
X0218850Y0210941D01*
X0218850Y0211939D02*
X0228300Y0211939D01*
X0228300Y0212938D02*
X0218850Y0212938D01*
X0218850Y0213936D02*
X0228300Y0213936D01*
X0228300Y0214935D02*
X0218850Y0214935D01*
X0218850Y0215933D02*
X0228300Y0215933D01*
X0228300Y0216932D02*
X0218850Y0216932D01*
X0218850Y0217930D02*
X0228300Y0217930D01*
X0228300Y0218929D02*
X0226853Y0218929D01*
X0227851Y0219927D02*
X0228300Y0219927D01*
X0224893Y0219927D02*
X0224319Y0219927D01*
X0224319Y0218929D02*
X0224893Y0218929D01*
X0224319Y0218370D02*
X0224319Y0222157D01*
X0220531Y0222157D01*
X0220531Y0220757D01*
X0222918Y0218370D01*
X0224319Y0218370D01*
X0222359Y0218929D02*
X0218850Y0218929D01*
X0218850Y0219927D02*
X0221361Y0219927D01*
X0220531Y0220926D02*
X0218850Y0220926D01*
X0218850Y0221924D02*
X0220531Y0221924D01*
X0220531Y0222923D02*
X0218850Y0222923D01*
X0218850Y0223921D02*
X0220531Y0223921D01*
X0221319Y0224920D02*
X0218850Y0224920D01*
X0218850Y0225918D02*
X0222317Y0225918D01*
X0223603Y0227244D02*
X0221749Y0228012D01*
X0220331Y0229430D01*
X0219563Y0231284D01*
X0219563Y0233290D01*
X0220331Y0235144D01*
X0221749Y0236563D01*
X0223603Y0237331D01*
X0225609Y0237331D01*
X0227463Y0236563D01*
X0228882Y0235144D01*
X0229649Y0233290D01*
X0229649Y0231284D01*
X0228882Y0229430D01*
X0227463Y0228012D01*
X0225609Y0227244D01*
X0223603Y0227244D01*
X0224319Y0225918D02*
X0224893Y0225918D01*
X0224893Y0224920D02*
X0224319Y0224920D01*
X0224319Y0223921D02*
X0224893Y0223921D01*
X0224893Y0222923D02*
X0224319Y0222923D01*
X0224319Y0221924D02*
X0224893Y0221924D01*
X0224893Y0220926D02*
X0224319Y0220926D01*
X0227894Y0224920D02*
X0229029Y0224920D01*
X0230028Y0225918D02*
X0226895Y0225918D01*
X0227230Y0227915D02*
X0231125Y0227915D01*
X0231400Y0228914D02*
X0228365Y0228914D01*
X0229081Y0229912D02*
X0231400Y0229912D01*
X0231400Y0230911D02*
X0229495Y0230911D01*
X0229649Y0231909D02*
X0231400Y0231909D01*
X0231400Y0232908D02*
X0229649Y0232908D01*
X0229394Y0233906D02*
X0231400Y0233906D01*
X0231400Y0234905D02*
X0228981Y0234905D01*
X0228122Y0235903D02*
X0231400Y0235903D01*
X0231400Y0236902D02*
X0226644Y0236902D01*
X0222568Y0236902D02*
X0218850Y0236902D01*
X0218850Y0237900D02*
X0231400Y0237900D01*
X0231310Y0238899D02*
X0218850Y0238899D01*
X0218850Y0239897D02*
X0230311Y0239897D01*
X0229313Y0240896D02*
X0218850Y0240896D01*
X0218850Y0241895D02*
X0227466Y0241895D01*
X0226467Y0242893D02*
X0218850Y0242893D01*
X0218850Y0243892D02*
X0226425Y0243892D01*
X0226475Y0244890D02*
X0218850Y0244890D01*
X0218850Y0245889D02*
X0227025Y0245889D01*
X0227025Y0246887D02*
X0218850Y0246887D01*
X0218850Y0247886D02*
X0227025Y0247886D01*
X0227025Y0248884D02*
X0218850Y0248884D01*
X0218850Y0249883D02*
X0227025Y0249883D01*
X0227025Y0250881D02*
X0218850Y0250881D01*
X0218850Y0251880D02*
X0227025Y0251880D01*
X0227025Y0252878D02*
X0218850Y0252878D01*
X0218850Y0253877D02*
X0227025Y0253877D01*
X0227025Y0254875D02*
X0218850Y0254875D01*
X0218850Y0255874D02*
X0227025Y0255874D01*
X0227025Y0256872D02*
X0218850Y0256872D01*
X0218850Y0257871D02*
X0227025Y0257871D01*
X0227025Y0258869D02*
X0218850Y0258869D01*
X0218850Y0259868D02*
X0227025Y0259868D01*
X0227124Y0260866D02*
X0218850Y0260866D01*
X0218850Y0261865D02*
X0228123Y0261865D01*
X0229121Y0262863D02*
X0226059Y0262863D01*
X0227880Y0263862D02*
X0230120Y0263862D01*
X0231118Y0264860D02*
X0228878Y0264860D01*
X0229294Y0265859D02*
X0232117Y0265859D01*
X0233115Y0266857D02*
X0229649Y0266857D01*
X0229649Y0267856D02*
X0234114Y0267856D01*
X0235112Y0268854D02*
X0229595Y0268854D01*
X0229182Y0269853D02*
X0236111Y0269853D01*
X0237109Y0270851D02*
X0228607Y0270851D01*
X0229892Y0271850D02*
X0238108Y0271850D01*
X0239106Y0272848D02*
X0230891Y0272848D01*
X0231889Y0273847D02*
X0255459Y0273847D01*
X0255187Y0274845D02*
X0232888Y0274845D01*
X0233886Y0275844D02*
X0255187Y0275844D01*
X0255187Y0277841D02*
X0235883Y0277841D01*
X0236882Y0278839D02*
X0255187Y0278839D01*
X0255587Y0279838D02*
X0237880Y0279838D01*
X0235917Y0281835D02*
X0193787Y0281835D01*
X0193787Y0282833D02*
X0236916Y0282833D01*
X0234919Y0280836D02*
X0226529Y0280836D01*
X0227528Y0279838D02*
X0233920Y0279838D01*
X0232922Y0278839D02*
X0228281Y0278839D01*
X0228281Y0277841D02*
X0231923Y0277841D01*
X0230925Y0276842D02*
X0228281Y0276842D01*
X0228084Y0275844D02*
X0229926Y0275844D01*
X0228928Y0274845D02*
X0227086Y0274845D01*
X0221684Y0279838D02*
X0193787Y0279838D01*
X0193787Y0280836D02*
X0222683Y0280836D01*
X0218582Y0278839D02*
X0193787Y0278839D01*
X0193787Y0277841D02*
X0217584Y0277841D01*
X0216585Y0276842D02*
X0193787Y0276842D01*
X0193787Y0275844D02*
X0215587Y0275844D01*
X0214784Y0274845D02*
X0193787Y0274845D01*
X0193787Y0273847D02*
X0214784Y0273847D01*
X0214784Y0272848D02*
X0193787Y0272848D01*
X0193787Y0271850D02*
X0214784Y0271850D01*
X0214784Y0270851D02*
X0193787Y0270851D01*
X0193787Y0269853D02*
X0214784Y0269853D01*
X0214784Y0268854D02*
X0193787Y0268854D01*
X0193787Y0267856D02*
X0214784Y0267856D01*
X0214784Y0266857D02*
X0193787Y0266857D01*
X0193787Y0265859D02*
X0214784Y0265859D01*
X0214784Y0264860D02*
X0203102Y0264860D01*
X0204101Y0263862D02*
X0214784Y0263862D01*
X0214784Y0262863D02*
X0205099Y0262863D01*
X0206027Y0261865D02*
X0214784Y0261865D01*
X0214784Y0260866D02*
X0206027Y0260866D01*
X0206027Y0258869D02*
X0214784Y0258869D01*
X0214784Y0257871D02*
X0206027Y0257871D01*
X0205142Y0256872D02*
X0214784Y0256872D01*
X0214784Y0255874D02*
X0204144Y0255874D01*
X0203145Y0254875D02*
X0214784Y0254875D01*
X0214784Y0253877D02*
X0201748Y0253877D01*
X0201484Y0254875D02*
X0200750Y0254875D01*
X0200484Y0255874D02*
X0201484Y0255874D01*
X0201484Y0256872D02*
X0200484Y0256872D01*
X0200484Y0257871D02*
X0201484Y0257871D01*
X0201484Y0258869D02*
X0200484Y0258869D01*
X0201484Y0259868D02*
X0214784Y0259868D01*
X0218850Y0262863D02*
X0223153Y0262863D01*
X0221332Y0263862D02*
X0218850Y0263862D01*
X0218850Y0264860D02*
X0220334Y0264860D01*
X0219918Y0265859D02*
X0218850Y0265859D01*
X0218850Y0266857D02*
X0219563Y0266857D01*
X0219563Y0267856D02*
X0218850Y0267856D01*
X0218850Y0268854D02*
X0219617Y0268854D01*
X0220031Y0269853D02*
X0218850Y0269853D01*
X0219354Y0270851D02*
X0220605Y0270851D01*
X0230934Y0259868D02*
X0247728Y0259868D01*
X0247728Y0260346D02*
X0247728Y0259346D01*
X0248728Y0259346D01*
X0248728Y0254803D01*
X0250317Y0254803D01*
X0253271Y0257757D01*
X0253271Y0259346D01*
X0248728Y0259346D01*
X0248728Y0260346D01*
X0253271Y0260346D01*
X0253271Y0261935D01*
X0250317Y0264890D01*
X0248728Y0264890D01*
X0248728Y0260346D01*
X0247728Y0260346D01*
X0243185Y0260346D01*
X0243185Y0261935D01*
X0246139Y0264890D01*
X0247728Y0264890D01*
X0247728Y0260346D01*
X0247728Y0260866D02*
X0248728Y0260866D01*
X0248728Y0259868D02*
X0255587Y0259868D01*
X0255587Y0260866D02*
X0253271Y0260866D01*
X0253271Y0261865D02*
X0255587Y0261865D01*
X0255587Y0262863D02*
X0252343Y0262863D01*
X0251345Y0263862D02*
X0255587Y0263862D01*
X0255587Y0264860D02*
X0250346Y0264860D01*
X0248728Y0264860D02*
X0247728Y0264860D01*
X0247728Y0263862D02*
X0248728Y0263862D01*
X0248728Y0262863D02*
X0247728Y0262863D01*
X0247728Y0261865D02*
X0248728Y0261865D01*
X0247728Y0259346D02*
X0243185Y0259346D01*
X0243185Y0257757D01*
X0246139Y0254803D01*
X0247728Y0254803D01*
X0247728Y0259346D01*
X0247728Y0258869D02*
X0248728Y0258869D01*
X0248728Y0257871D02*
X0247728Y0257871D01*
X0247728Y0256872D02*
X0248728Y0256872D01*
X0248728Y0255874D02*
X0247728Y0255874D01*
X0247728Y0254875D02*
X0248728Y0254875D01*
X0250389Y0254875D02*
X0255587Y0254875D01*
X0255587Y0253877D02*
X0230425Y0253877D01*
X0230425Y0254875D02*
X0246067Y0254875D01*
X0245068Y0255874D02*
X0230425Y0255874D01*
X0230425Y0256872D02*
X0244070Y0256872D01*
X0243185Y0257871D02*
X0230425Y0257871D01*
X0230425Y0258869D02*
X0243185Y0258869D01*
X0243185Y0260866D02*
X0231933Y0260866D01*
X0232931Y0261865D02*
X0243185Y0261865D01*
X0244113Y0262863D02*
X0233930Y0262863D01*
X0234928Y0263862D02*
X0245111Y0263862D01*
X0246110Y0264860D02*
X0235927Y0264860D01*
X0236925Y0265859D02*
X0255587Y0265859D01*
X0255587Y0266857D02*
X0237924Y0266857D01*
X0238922Y0267856D02*
X0255587Y0267856D01*
X0255587Y0268854D02*
X0239921Y0268854D01*
X0240919Y0269853D02*
X0255587Y0269853D01*
X0263787Y0269853D02*
X0321913Y0269853D01*
X0321336Y0270851D02*
X0270318Y0270851D01*
X0271316Y0271850D02*
X0320759Y0271850D01*
X0320181Y0272848D02*
X0273141Y0272848D01*
X0273141Y0273847D02*
X0319604Y0273847D01*
X0319027Y0274845D02*
X0273141Y0274845D01*
X0273141Y0275844D02*
X0318449Y0275844D01*
X0317872Y0276842D02*
X0273141Y0276842D01*
X0272791Y0277841D02*
X0317295Y0277841D01*
X0316718Y0278839D02*
X0272645Y0278839D01*
X0273141Y0279838D02*
X0316140Y0279838D01*
X0315563Y0280836D02*
X0273141Y0280836D01*
X0273141Y0281835D02*
X0314986Y0281835D01*
X0314408Y0282833D02*
X0273141Y0282833D01*
X0273141Y0283832D02*
X0313831Y0283832D01*
X0313254Y0284830D02*
X0263787Y0284830D01*
X0263787Y0283832D02*
X0266610Y0283832D01*
X0263787Y0285829D02*
X0312676Y0285829D01*
X0313395Y0287782D02*
X0324532Y0268520D01*
X0335280Y0249903D01*
X0335303Y0249897D01*
X0331327Y0242983D01*
X0305333Y0197960D01*
X0301682Y0198959D02*
X0293325Y0198959D01*
X0293207Y0197960D02*
X0301016Y0197960D01*
X0301016Y0196962D02*
X0292793Y0196962D01*
X0291818Y0195963D02*
X0300662Y0195963D01*
X0300080Y0194964D02*
X0286035Y0194964D01*
X0286984Y0193966D02*
X0299620Y0193966D01*
X0299895Y0192967D02*
X0287982Y0192967D01*
X0285200Y0193487D02*
X0289725Y0188962D01*
X0286125Y0188973D02*
X0280225Y0188973D01*
X0280225Y0188462D02*
X0283704Y0188462D01*
X0283572Y0187795D01*
X0283270Y0187067D01*
X0282832Y0186412D01*
X0282275Y0185855D01*
X0281620Y0185417D01*
X0280892Y0185115D01*
X0280225Y0184983D01*
X0280225Y0188462D01*
X0280225Y0187975D02*
X0279225Y0187975D01*
X0279225Y0188973D02*
X0271102Y0188973D01*
X0271391Y0187975D02*
X0275843Y0187975D01*
X0276241Y0186976D02*
X0271391Y0186976D01*
X0271391Y0185978D02*
X0277052Y0185978D01*
X0279225Y0185978D02*
X0280225Y0185978D01*
X0280225Y0186976D02*
X0279225Y0186976D01*
X0282398Y0185978D02*
X0287618Y0185978D01*
X0286651Y0186976D02*
X0283209Y0186976D01*
X0283607Y0187975D02*
X0286237Y0187975D01*
X0286247Y0189972D02*
X0283603Y0189972D01*
X0283194Y0190970D02*
X0285454Y0190970D01*
X0285150Y0193437D02*
X0285200Y0193487D01*
X0285200Y0193537D01*
X0285150Y0193437D02*
X0275400Y0193437D01*
X0272940Y0190978D01*
X0267791Y0190978D01*
X0267791Y0186978D02*
X0267791Y0185546D01*
X0269500Y0183837D01*
X0269391Y0183946D01*
X0271800Y0183981D02*
X0295325Y0183981D01*
X0295899Y0184979D02*
X0271610Y0184979D01*
X0271800Y0182982D02*
X0294751Y0182982D01*
X0294177Y0181984D02*
X0291794Y0181984D01*
X0292784Y0180985D02*
X0293603Y0180985D01*
X0289725Y0178962D02*
X0286215Y0175451D01*
X0284516Y0176991D02*
X0282806Y0176991D01*
X0283219Y0177990D02*
X0286231Y0177990D01*
X0286125Y0178988D02*
X0283325Y0178988D01*
X0283197Y0179987D02*
X0286253Y0179987D01*
X0286667Y0180985D02*
X0282784Y0180985D01*
X0281794Y0181984D02*
X0287656Y0181984D01*
X0291833Y0185978D02*
X0296473Y0185978D01*
X0297047Y0186976D02*
X0292800Y0186976D01*
X0293213Y0187975D02*
X0297621Y0187975D01*
X0298195Y0188973D02*
X0293325Y0188973D01*
X0293203Y0189972D02*
X0298769Y0189972D01*
X0299343Y0190970D02*
X0292790Y0190970D01*
X0291809Y0191969D02*
X0299917Y0191969D01*
X0304515Y0192836D02*
X0286740Y0162049D01*
X0281556Y0153064D01*
X0244676Y0153064D01*
X0236484Y0153064D01*
X0234823Y0151403D01*
X0230023Y0151403D01*
X0231638Y0153027D02*
X0234185Y0153027D01*
X0235183Y0154026D02*
X0227105Y0154026D01*
X0226106Y0155024D02*
X0242224Y0155024D01*
X0242224Y0156023D02*
X0225108Y0156023D01*
X0224109Y0157021D02*
X0242731Y0157021D01*
X0239326Y0151198D02*
X0238518Y0151198D01*
X0235423Y0148103D01*
X0235423Y0139091D01*
X0235397Y0139064D01*
X0238997Y0137090D02*
X0239374Y0136712D01*
X0241272Y0136712D01*
X0242614Y0138054D01*
X0242614Y0139952D01*
X0241723Y0140842D01*
X0241723Y0143123D01*
X0242413Y0143812D01*
X0243672Y0143812D01*
X0245014Y0145154D01*
X0245014Y0147052D01*
X0244395Y0147670D01*
X0283603Y0147670D01*
X0283847Y0147545D01*
X0284241Y0147670D01*
X0284655Y0147670D01*
X0284849Y0147864D01*
X0285110Y0147947D01*
X0285300Y0148315D01*
X0285592Y0148608D01*
X0285592Y0148861D01*
X0307496Y0186799D01*
X0307496Y0186799D01*
X0308922Y0189269D01*
X0308922Y0188920D01*
X0310264Y0187578D01*
X0311360Y0187578D01*
X0310810Y0186625D01*
X0311046Y0185745D01*
X0320495Y0180289D01*
X0321238Y0180489D01*
X0293752Y0132880D01*
X0238417Y0133029D01*
X0238997Y0133609D01*
X0238997Y0137090D01*
X0238997Y0137051D02*
X0239036Y0137051D01*
X0238997Y0136052D02*
X0295583Y0136052D01*
X0295007Y0135054D02*
X0238997Y0135054D01*
X0238997Y0134055D02*
X0294430Y0134055D01*
X0293854Y0133057D02*
X0238445Y0133057D01*
X0241611Y0137051D02*
X0296160Y0137051D01*
X0296736Y0138049D02*
X0242609Y0138049D01*
X0242614Y0139048D02*
X0297313Y0139048D01*
X0297889Y0140046D02*
X0242519Y0140046D01*
X0241723Y0141045D02*
X0298466Y0141045D01*
X0299042Y0142043D02*
X0241723Y0142043D01*
X0241723Y0143042D02*
X0299619Y0143042D01*
X0300195Y0144040D02*
X0243900Y0144040D01*
X0244899Y0145039D02*
X0300772Y0145039D01*
X0301348Y0146037D02*
X0245014Y0146037D01*
X0245014Y0147036D02*
X0301925Y0147036D01*
X0302501Y0148034D02*
X0285155Y0148034D01*
X0285691Y0149033D02*
X0303078Y0149033D01*
X0303654Y0150031D02*
X0286268Y0150031D01*
X0286844Y0151030D02*
X0304231Y0151030D01*
X0304807Y0152028D02*
X0287421Y0152028D01*
X0287997Y0153027D02*
X0305384Y0153027D01*
X0305960Y0154026D02*
X0288574Y0154026D01*
X0289150Y0155024D02*
X0306536Y0155024D01*
X0307113Y0156023D02*
X0289727Y0156023D01*
X0290303Y0157021D02*
X0307689Y0157021D01*
X0308266Y0158020D02*
X0290880Y0158020D01*
X0291456Y0159018D02*
X0308842Y0159018D01*
X0309419Y0160017D02*
X0292033Y0160017D01*
X0292609Y0161015D02*
X0309995Y0161015D01*
X0310572Y0162014D02*
X0293186Y0162014D01*
X0293762Y0163012D02*
X0311148Y0163012D01*
X0311725Y0164011D02*
X0294339Y0164011D01*
X0294915Y0165009D02*
X0312301Y0165009D01*
X0312878Y0166008D02*
X0295492Y0166008D01*
X0296068Y0167006D02*
X0313454Y0167006D01*
X0314031Y0168005D02*
X0296645Y0168005D01*
X0297221Y0169003D02*
X0314607Y0169003D01*
X0315184Y0170002D02*
X0297798Y0170002D01*
X0298374Y0171000D02*
X0315760Y0171000D01*
X0316337Y0171999D02*
X0298951Y0171999D01*
X0299527Y0172997D02*
X0316913Y0172997D01*
X0317490Y0173996D02*
X0300104Y0173996D01*
X0300680Y0174994D02*
X0318066Y0174994D01*
X0318643Y0175993D02*
X0301257Y0175993D01*
X0301833Y0176991D02*
X0319219Y0176991D01*
X0319796Y0177990D02*
X0302410Y0177990D01*
X0302986Y0178988D02*
X0320372Y0178988D01*
X0320949Y0179987D02*
X0303563Y0179987D01*
X0304139Y0180985D02*
X0319290Y0180985D01*
X0317560Y0181984D02*
X0304716Y0181984D01*
X0305292Y0182982D02*
X0315831Y0182982D01*
X0314101Y0183981D02*
X0305869Y0183981D01*
X0306445Y0184979D02*
X0312372Y0184979D01*
X0310983Y0185978D02*
X0307022Y0185978D01*
X0307598Y0186976D02*
X0311012Y0186976D01*
X0309867Y0187975D02*
X0308175Y0187975D01*
X0308751Y0188973D02*
X0308922Y0188973D01*
X0311232Y0189794D02*
X0311212Y0189869D01*
X0311232Y0189794D02*
X0317570Y0186135D01*
X0322529Y0194784D02*
X0322570Y0194795D01*
X0322532Y0194785D01*
X0322529Y0194784D02*
X0315313Y0198951D01*
X0314403Y0202346D01*
X0313952Y0201566D01*
X0314023Y0201304D01*
X0305779Y0187025D01*
X0284089Y0149457D01*
X0283992Y0149270D01*
X0240291Y0149270D01*
X0238923Y0147903D01*
X0239326Y0151198D02*
X0282788Y0151198D01*
X0307988Y0194845D01*
X0307969Y0194937D02*
X0319764Y0215366D01*
X0321325Y0215785D01*
X0320922Y0217287D01*
X0339681Y0249863D01*
X0339710Y0249972D01*
X0313870Y0294729D01*
X0304593Y0310797D01*
X0304875Y0311850D01*
X0303782Y0312143D01*
X0281853Y0350185D01*
X0206120Y0350318D01*
X0204920Y0351518D01*
X0204654Y0351518D01*
X0203320Y0350185D01*
X0167769Y0350185D01*
X0167357Y0349773D01*
X0133224Y0290652D01*
X0131923Y0290304D01*
X0132289Y0288938D01*
X0111222Y0252448D01*
X0110395Y0251220D01*
X0130648Y0216209D01*
X0139744Y0200455D01*
X0140797Y0198631D01*
X0148139Y0185914D01*
X0148150Y0185911D01*
X0150430Y0185978D02*
X0154074Y0185978D01*
X0154074Y0186976D02*
X0150316Y0186976D01*
X0149318Y0187975D02*
X0154074Y0187975D01*
X0154074Y0188973D02*
X0148220Y0188973D01*
X0147644Y0189972D02*
X0154074Y0189972D01*
X0154074Y0190970D02*
X0147067Y0190970D01*
X0146491Y0191969D02*
X0154074Y0191969D01*
X0154074Y0192967D02*
X0145914Y0192967D01*
X0145338Y0193966D02*
X0154074Y0193966D01*
X0154074Y0194964D02*
X0144761Y0194964D01*
X0144185Y0195963D02*
X0154074Y0195963D01*
X0154074Y0196962D02*
X0143608Y0196962D01*
X0143032Y0197960D02*
X0154074Y0197960D01*
X0154074Y0198959D02*
X0142455Y0198959D01*
X0141879Y0199957D02*
X0153624Y0199957D01*
X0151777Y0200956D02*
X0141302Y0200956D01*
X0140726Y0201954D02*
X0151124Y0201954D01*
X0149303Y0202953D02*
X0140149Y0202953D01*
X0139573Y0203951D02*
X0148467Y0203951D01*
X0148467Y0204950D02*
X0138997Y0204950D01*
X0138420Y0205948D02*
X0148729Y0205948D01*
X0149728Y0206947D02*
X0137844Y0206947D01*
X0140034Y0207945D02*
X0185187Y0207945D01*
X0185195Y0208944D02*
X0140562Y0208944D01*
X0140562Y0209942D02*
X0185587Y0209942D01*
X0185587Y0210941D02*
X0139992Y0210941D01*
X0140808Y0211939D02*
X0185587Y0211939D01*
X0185587Y0212938D02*
X0141140Y0212938D01*
X0141140Y0213936D02*
X0185587Y0213936D01*
X0185587Y0214935D02*
X0140374Y0214935D01*
X0138850Y0213220D02*
X0136383Y0213881D01*
X0135088Y0216123D01*
X0114926Y0251045D01*
X0114893Y0251054D01*
X0145072Y0303105D01*
X0147394Y0303728D01*
X0147377Y0303898D01*
X0147377Y0303898D01*
X0149558Y0307675D01*
X0148923Y0310044D01*
X0169728Y0346080D01*
X0169828Y0346180D01*
X0229820Y0346218D01*
X0231820Y0344218D01*
X0232520Y0344218D01*
X0236120Y0344218D01*
X0238082Y0346180D01*
X0279751Y0346180D01*
X0280208Y0345422D01*
X0310106Y0293438D01*
X0309620Y0291622D01*
X0309670Y0291535D01*
X0311570Y0288245D01*
X0313395Y0287782D01*
X0314241Y0290018D02*
X0337506Y0249922D01*
X0328328Y0233977D01*
X0305187Y0193894D01*
X0304295Y0193656D01*
X0304515Y0192836D01*
X0314403Y0202346D02*
X0320365Y0212672D01*
X0323336Y0213469D01*
X0324986Y0216326D01*
X0324181Y0219332D01*
X0342107Y0250332D01*
X0341711Y0250438D01*
X0311105Y0303449D01*
X0314793Y0302461D01*
X0322247Y0306764D01*
X0322293Y0306752D01*
X0327293Y0298092D02*
X0323646Y0295986D01*
X0323340Y0296068D01*
X0320742Y0294568D01*
X0322231Y0292819D02*
X0323294Y0292819D01*
X0323488Y0292482D02*
X0324368Y0292246D01*
X0333817Y0297702D01*
X0334027Y0298484D01*
X0361781Y0250710D01*
X0334294Y0203102D01*
X0334095Y0203845D01*
X0325263Y0208945D01*
X0325263Y0210586D01*
X0323921Y0211928D01*
X0323769Y0211928D01*
X0324348Y0212083D01*
X0324391Y0212095D01*
X0325053Y0213242D01*
X0326703Y0216100D01*
X0326692Y0216142D01*
X0325898Y0219105D01*
X0343278Y0249160D01*
X0343481Y0249277D01*
X0343598Y0249714D01*
X0343824Y0250105D01*
X0343764Y0250331D01*
X0343824Y0250558D01*
X0343599Y0250949D01*
X0343482Y0251385D01*
X0343279Y0251502D01*
X0343162Y0251706D01*
X0342765Y0251812D01*
X0318869Y0293202D01*
X0319793Y0292278D01*
X0321691Y0292278D01*
X0322905Y0293492D01*
X0323488Y0292482D01*
X0325359Y0292819D02*
X0337318Y0292819D01*
X0336738Y0293817D02*
X0327089Y0293817D01*
X0328818Y0294816D02*
X0336158Y0294816D01*
X0335578Y0295814D02*
X0330548Y0295814D01*
X0332277Y0296813D02*
X0334998Y0296813D01*
X0334418Y0297811D02*
X0333847Y0297811D01*
X0337898Y0291820D02*
X0319667Y0291820D01*
X0319252Y0292819D02*
X0319090Y0292819D01*
X0320243Y0290822D02*
X0338478Y0290822D01*
X0339058Y0289823D02*
X0320820Y0289823D01*
X0321396Y0288825D02*
X0339638Y0288825D01*
X0340219Y0287826D02*
X0321973Y0287826D01*
X0322549Y0286828D02*
X0340799Y0286828D01*
X0341379Y0285829D02*
X0323126Y0285829D01*
X0323702Y0284830D02*
X0341959Y0284830D01*
X0342539Y0283832D02*
X0324279Y0283832D01*
X0324855Y0282833D02*
X0343119Y0282833D01*
X0343699Y0281835D02*
X0325432Y0281835D01*
X0326008Y0280836D02*
X0344279Y0280836D01*
X0344859Y0279838D02*
X0326584Y0279838D01*
X0327161Y0278839D02*
X0345439Y0278839D01*
X0346019Y0277841D02*
X0327737Y0277841D01*
X0328314Y0276842D02*
X0346599Y0276842D01*
X0347179Y0275844D02*
X0328890Y0275844D01*
X0329467Y0274845D02*
X0347759Y0274845D01*
X0348340Y0273847D02*
X0330043Y0273847D01*
X0330620Y0272848D02*
X0348920Y0272848D01*
X0349500Y0271850D02*
X0331196Y0271850D01*
X0331773Y0270851D02*
X0350080Y0270851D01*
X0350660Y0269853D02*
X0332349Y0269853D01*
X0332926Y0268854D02*
X0351240Y0268854D01*
X0351820Y0267856D02*
X0333502Y0267856D01*
X0334079Y0266857D02*
X0352400Y0266857D01*
X0352980Y0265859D02*
X0334655Y0265859D01*
X0335232Y0264860D02*
X0353560Y0264860D01*
X0354140Y0263862D02*
X0335808Y0263862D01*
X0336385Y0262863D02*
X0354720Y0262863D01*
X0355300Y0261865D02*
X0336961Y0261865D01*
X0337538Y0260866D02*
X0355881Y0260866D01*
X0356461Y0259868D02*
X0338114Y0259868D01*
X0338691Y0258869D02*
X0357041Y0258869D01*
X0357621Y0257871D02*
X0339267Y0257871D01*
X0339844Y0256872D02*
X0358201Y0256872D01*
X0358781Y0255874D02*
X0340420Y0255874D01*
X0340997Y0254875D02*
X0359361Y0254875D01*
X0359941Y0253877D02*
X0341573Y0253877D01*
X0342150Y0252878D02*
X0360521Y0252878D01*
X0361101Y0251880D02*
X0342726Y0251880D01*
X0343638Y0250881D02*
X0361681Y0250881D01*
X0361303Y0249883D02*
X0343696Y0249883D01*
X0343118Y0248884D02*
X0360727Y0248884D01*
X0360150Y0247886D02*
X0342541Y0247886D01*
X0341964Y0246887D02*
X0359574Y0246887D01*
X0358997Y0245889D02*
X0341386Y0245889D01*
X0340809Y0244890D02*
X0358421Y0244890D01*
X0357844Y0243892D02*
X0340231Y0243892D01*
X0339654Y0242893D02*
X0357268Y0242893D01*
X0356691Y0241895D02*
X0339077Y0241895D01*
X0338499Y0240896D02*
X0356115Y0240896D01*
X0355538Y0239897D02*
X0337922Y0239897D01*
X0337344Y0238899D02*
X0354962Y0238899D01*
X0354385Y0237900D02*
X0336767Y0237900D01*
X0336190Y0236902D02*
X0353809Y0236902D01*
X0353232Y0235903D02*
X0335612Y0235903D01*
X0335035Y0234905D02*
X0352656Y0234905D01*
X0352079Y0233906D02*
X0334457Y0233906D01*
X0333880Y0232908D02*
X0351503Y0232908D01*
X0350926Y0231909D02*
X0333303Y0231909D01*
X0332725Y0230911D02*
X0350350Y0230911D01*
X0349773Y0229912D02*
X0332148Y0229912D01*
X0331570Y0228914D02*
X0349197Y0228914D01*
X0348620Y0227915D02*
X0330993Y0227915D01*
X0330416Y0226917D02*
X0348044Y0226917D01*
X0347467Y0225918D02*
X0329838Y0225918D01*
X0329261Y0224920D02*
X0346891Y0224920D01*
X0346314Y0223921D02*
X0328683Y0223921D01*
X0328106Y0222923D02*
X0345738Y0222923D01*
X0345161Y0221924D02*
X0327529Y0221924D01*
X0326951Y0220926D02*
X0344585Y0220926D01*
X0344008Y0219927D02*
X0326374Y0219927D01*
X0325946Y0218929D02*
X0343432Y0218929D01*
X0342855Y0217930D02*
X0326213Y0217930D01*
X0326481Y0216932D02*
X0342279Y0216932D01*
X0341702Y0215933D02*
X0326607Y0215933D01*
X0326030Y0214935D02*
X0341126Y0214935D01*
X0340549Y0213936D02*
X0325454Y0213936D01*
X0325053Y0213242D02*
X0325053Y0213242D01*
X0324878Y0212938D02*
X0339973Y0212938D01*
X0339396Y0211939D02*
X0323811Y0211939D01*
X0324908Y0210941D02*
X0338820Y0210941D01*
X0338243Y0209942D02*
X0325263Y0209942D01*
X0325264Y0208944D02*
X0337667Y0208944D01*
X0337090Y0207945D02*
X0326994Y0207945D01*
X0328723Y0206947D02*
X0336514Y0206947D01*
X0335938Y0205948D02*
X0330453Y0205948D01*
X0332182Y0204950D02*
X0335361Y0204950D01*
X0334785Y0203951D02*
X0333912Y0203951D01*
X0327570Y0203455D02*
X0324090Y0205465D01*
X0322972Y0209637D01*
X0313286Y0214935D02*
X0263787Y0214935D01*
X0263787Y0215933D02*
X0313862Y0215933D01*
X0314439Y0216932D02*
X0263787Y0216932D01*
X0263787Y0217930D02*
X0315015Y0217930D01*
X0315592Y0218929D02*
X0263787Y0218929D01*
X0263787Y0219927D02*
X0316168Y0219927D01*
X0316745Y0220926D02*
X0263787Y0220926D01*
X0263787Y0221924D02*
X0317321Y0221924D01*
X0317898Y0222923D02*
X0263787Y0222923D01*
X0263787Y0223921D02*
X0318474Y0223921D01*
X0319051Y0224920D02*
X0263787Y0224920D01*
X0263787Y0225918D02*
X0319627Y0225918D01*
X0320204Y0226917D02*
X0263787Y0226917D01*
X0263787Y0227915D02*
X0320780Y0227915D01*
X0321357Y0228914D02*
X0263787Y0228914D01*
X0263787Y0229912D02*
X0321933Y0229912D01*
X0322510Y0230911D02*
X0263787Y0230911D01*
X0263787Y0231909D02*
X0323086Y0231909D01*
X0323663Y0232908D02*
X0263787Y0232908D01*
X0263950Y0233906D02*
X0324239Y0233906D01*
X0324816Y0234905D02*
X0264187Y0234905D01*
X0264187Y0235903D02*
X0325392Y0235903D01*
X0325969Y0236902D02*
X0260187Y0236902D01*
X0259187Y0236902D02*
X0251535Y0236902D01*
X0250537Y0235903D02*
X0255187Y0235903D01*
X0255187Y0234905D02*
X0234800Y0234905D01*
X0234800Y0235903D02*
X0245919Y0235903D01*
X0246305Y0235518D02*
X0243585Y0238238D01*
X0243585Y0238761D01*
X0239323Y0238761D01*
X0238333Y0237771D01*
X0236435Y0237771D01*
X0235093Y0239112D01*
X0235093Y0241010D01*
X0236435Y0242352D01*
X0238333Y0242352D01*
X0239123Y0241561D01*
X0243585Y0241561D01*
X0243585Y0242085D01*
X0246305Y0244805D01*
X0250151Y0244805D01*
X0252871Y0242085D01*
X0252871Y0238238D01*
X0250151Y0235518D01*
X0246305Y0235518D01*
X0244921Y0236902D02*
X0234800Y0236902D01*
X0234800Y0237900D02*
X0236305Y0237900D01*
X0235307Y0238899D02*
X0234800Y0238899D01*
X0234800Y0239897D02*
X0235093Y0239897D01*
X0235093Y0240896D02*
X0234121Y0240896D01*
X0233122Y0241895D02*
X0235978Y0241895D01*
X0238790Y0241895D02*
X0243585Y0241895D01*
X0244393Y0242893D02*
X0232124Y0242893D01*
X0231125Y0243892D02*
X0245392Y0243892D01*
X0251064Y0243892D02*
X0255587Y0243892D01*
X0255587Y0244890D02*
X0230975Y0244890D01*
X0230425Y0245889D02*
X0255587Y0245889D01*
X0255587Y0246887D02*
X0230425Y0246887D01*
X0230425Y0247886D02*
X0255587Y0247886D01*
X0255587Y0248884D02*
X0230425Y0248884D01*
X0230425Y0249883D02*
X0255587Y0249883D01*
X0255587Y0250881D02*
X0230425Y0250881D01*
X0230425Y0251880D02*
X0255587Y0251880D01*
X0255587Y0252878D02*
X0230425Y0252878D01*
X0214784Y0252878D02*
X0211712Y0252878D01*
X0212250Y0251880D02*
X0214784Y0251880D01*
X0214784Y0250881D02*
X0212250Y0250881D01*
X0211697Y0249883D02*
X0214784Y0249883D01*
X0214784Y0248884D02*
X0193787Y0248884D01*
X0193787Y0247886D02*
X0200269Y0247886D01*
X0199393Y0246887D02*
X0193787Y0246887D01*
X0193787Y0245889D02*
X0199393Y0245889D01*
X0199616Y0244890D02*
X0193787Y0244890D01*
X0194187Y0243892D02*
X0198148Y0243892D01*
X0197149Y0242893D02*
X0194187Y0242893D01*
X0194187Y0240896D02*
X0196341Y0240896D01*
X0196341Y0241895D02*
X0190187Y0241895D01*
X0189187Y0241895D02*
X0122057Y0241895D01*
X0121480Y0242893D02*
X0185187Y0242893D01*
X0185187Y0243892D02*
X0120904Y0243892D01*
X0120327Y0244890D02*
X0185587Y0244890D01*
X0185587Y0245889D02*
X0119751Y0245889D01*
X0119174Y0246887D02*
X0185587Y0246887D01*
X0185587Y0247886D02*
X0118598Y0247886D01*
X0118021Y0248884D02*
X0176493Y0248884D01*
X0176407Y0249883D02*
X0117445Y0249883D01*
X0116868Y0250881D02*
X0176407Y0250881D01*
X0176407Y0252878D02*
X0117800Y0252878D01*
X0117221Y0251880D02*
X0179391Y0251880D01*
X0180360Y0251880D02*
X0185587Y0251880D01*
X0185587Y0252878D02*
X0183344Y0252878D01*
X0183344Y0253877D02*
X0185441Y0253877D01*
X0185187Y0254875D02*
X0182822Y0254875D01*
X0182944Y0255874D02*
X0185187Y0255874D01*
X0185339Y0256872D02*
X0189187Y0256872D01*
X0190187Y0256872D02*
X0194793Y0256872D01*
X0194187Y0255874D02*
X0195792Y0255874D01*
X0196790Y0254875D02*
X0194187Y0254875D01*
X0193933Y0253877D02*
X0197789Y0253877D01*
X0198787Y0252878D02*
X0193787Y0252878D01*
X0193787Y0251880D02*
X0199786Y0251880D01*
X0200784Y0250881D02*
X0193787Y0250881D01*
X0193787Y0249883D02*
X0208202Y0249883D01*
X0208188Y0252878D02*
X0202747Y0252878D01*
X0203099Y0247886D02*
X0214784Y0247886D01*
X0214784Y0246887D02*
X0203975Y0246887D01*
X0203975Y0245889D02*
X0214784Y0245889D01*
X0214784Y0244890D02*
X0204835Y0244890D01*
X0205834Y0243892D02*
X0214784Y0243892D01*
X0214784Y0242893D02*
X0206832Y0242893D01*
X0207184Y0241895D02*
X0213478Y0241895D01*
X0212479Y0240896D02*
X0207184Y0240896D01*
X0207184Y0239897D02*
X0212193Y0239897D01*
X0212193Y0238899D02*
X0207184Y0238899D01*
X0207184Y0237900D02*
X0213005Y0237900D01*
X0215963Y0237900D02*
X0216050Y0237900D01*
X0216050Y0236902D02*
X0206605Y0236902D01*
X0205606Y0235903D02*
X0216050Y0235903D01*
X0216050Y0234905D02*
X0204608Y0234905D01*
X0203609Y0233906D02*
X0216050Y0233906D01*
X0216050Y0232908D02*
X0203177Y0232908D01*
X0203575Y0231909D02*
X0216050Y0231909D01*
X0216050Y0230911D02*
X0203575Y0230911D01*
X0202874Y0229912D02*
X0216050Y0229912D01*
X0216050Y0228914D02*
X0193787Y0228914D01*
X0193787Y0229912D02*
X0194372Y0229912D01*
X0193787Y0227915D02*
X0216050Y0227915D01*
X0216050Y0226917D02*
X0193787Y0226917D01*
X0193787Y0225918D02*
X0216050Y0225918D01*
X0216050Y0224920D02*
X0193787Y0224920D01*
X0193787Y0223921D02*
X0216050Y0223921D01*
X0216050Y0222923D02*
X0193787Y0222923D01*
X0193787Y0221924D02*
X0216050Y0221924D01*
X0216050Y0220926D02*
X0193787Y0220926D01*
X0193787Y0219927D02*
X0216050Y0219927D01*
X0216050Y0218929D02*
X0193787Y0218929D01*
X0193787Y0217930D02*
X0216050Y0217930D01*
X0216050Y0216932D02*
X0205258Y0216932D01*
X0206257Y0215933D02*
X0216050Y0215933D01*
X0216050Y0214935D02*
X0206600Y0214935D01*
X0206981Y0213936D02*
X0216050Y0213936D01*
X0216050Y0212938D02*
X0207979Y0212938D01*
X0208978Y0211939D02*
X0216050Y0211939D01*
X0216050Y0210941D02*
X0209200Y0210941D01*
X0209200Y0209942D02*
X0216050Y0209942D01*
X0216050Y0208944D02*
X0209200Y0208944D01*
X0209200Y0207945D02*
X0216050Y0207945D01*
X0215600Y0206947D02*
X0209443Y0206947D01*
X0210100Y0205948D02*
X0215600Y0205948D01*
X0215935Y0204950D02*
X0210100Y0204950D01*
X0206156Y0206947D02*
X0190187Y0206947D01*
X0189187Y0206947D02*
X0151788Y0206947D01*
X0161724Y0202462D02*
X0161824Y0197062D01*
X0169724Y0189162D01*
X0194224Y0189162D01*
X0197524Y0185862D01*
X0197998Y0192967D02*
X0200166Y0192967D01*
X0199724Y0193966D02*
X0174500Y0193966D01*
X0174024Y0194964D02*
X0199158Y0194964D01*
X0198160Y0195963D02*
X0185878Y0195963D01*
X0183770Y0195963D02*
X0174024Y0195963D01*
X0174024Y0196962D02*
X0182771Y0196962D01*
X0182524Y0197960D02*
X0174024Y0197960D01*
X0174024Y0198959D02*
X0182524Y0198959D01*
X0183367Y0199957D02*
X0174024Y0199957D01*
X0174671Y0200956D02*
X0235638Y0200956D01*
X0234639Y0199957D02*
X0186281Y0199957D01*
X0184824Y0198162D02*
X0198224Y0198162D01*
X0202024Y0194362D01*
X0197924Y0193042D02*
X0197924Y0193042D01*
X0199690Y0198959D02*
X0233641Y0198959D01*
X0237000Y0198137D02*
X0230950Y0192087D01*
X0230950Y0189287D01*
X0234150Y0189287D02*
X0234150Y0191987D01*
X0237900Y0195737D01*
X0271800Y0195637D01*
X0273500Y0197337D01*
X0273500Y0202737D01*
X0275900Y0205137D01*
X0276100Y0205237D01*
X0279700Y0208837D01*
X0279700Y0208887D01*
X0283300Y0208944D02*
X0286100Y0208944D01*
X0286100Y0209604D02*
X0286100Y0208171D01*
X0286282Y0207732D01*
X0285987Y0207437D01*
X0283437Y0207437D01*
X0282837Y0206837D01*
X0282741Y0206837D01*
X0282752Y0206848D01*
X0283300Y0208171D01*
X0283300Y0209604D01*
X0282752Y0210927D01*
X0281739Y0211939D01*
X0287660Y0211939D01*
X0286648Y0210927D01*
X0286100Y0209604D01*
X0286240Y0209942D02*
X0283159Y0209942D01*
X0282738Y0210941D02*
X0286662Y0210941D01*
X0287660Y0211939D02*
X0288984Y0212487D01*
X0290416Y0212487D01*
X0291739Y0211939D01*
X0289700Y0208887D02*
X0286650Y0205837D01*
X0284100Y0205837D01*
X0283500Y0205237D01*
X0278400Y0205237D01*
X0276700Y0203537D01*
X0276500Y0203437D01*
X0275300Y0202237D01*
X0275300Y0196637D01*
X0272400Y0193737D01*
X0253400Y0193837D01*
X0251900Y0192337D01*
X0249800Y0198137D02*
X0265948Y0198137D01*
X0263976Y0203951D02*
X0268133Y0203951D01*
X0269132Y0204950D02*
X0264187Y0204950D01*
X0263787Y0212938D02*
X0312133Y0212938D01*
X0312709Y0213936D02*
X0263787Y0213936D01*
X0255187Y0205948D02*
X0250500Y0205948D01*
X0250500Y0204950D02*
X0255187Y0204950D01*
X0255398Y0203951D02*
X0251939Y0203951D01*
X0249800Y0198137D02*
X0247700Y0198137D01*
X0237000Y0198137D01*
X0243300Y0201954D02*
X0218596Y0201954D01*
X0218700Y0202058D02*
X0218700Y0202058D01*
X0219595Y0202953D02*
X0243462Y0202953D01*
X0244461Y0203951D02*
X0223866Y0203951D01*
X0221933Y0203951D02*
X0220593Y0203951D01*
X0221355Y0207945D02*
X0219445Y0207945D01*
X0206400Y0207945D02*
X0194187Y0207945D01*
X0194180Y0208944D02*
X0206400Y0208944D01*
X0206400Y0209942D02*
X0193787Y0209942D01*
X0193787Y0210941D02*
X0206016Y0210941D01*
X0205018Y0211939D02*
X0193787Y0211939D01*
X0193787Y0212938D02*
X0202747Y0212938D01*
X0202000Y0213936D02*
X0193787Y0213936D01*
X0193787Y0214935D02*
X0202000Y0214935D01*
X0202343Y0215933D02*
X0193787Y0215933D01*
X0193787Y0216932D02*
X0203341Y0216932D01*
X0205500Y0205948D02*
X0194187Y0205948D01*
X0194187Y0204950D02*
X0205500Y0204950D01*
X0185187Y0204950D02*
X0175067Y0204950D01*
X0174069Y0205948D02*
X0185187Y0205948D01*
X0185587Y0215933D02*
X0137046Y0215933D01*
X0136805Y0216349D02*
X0136805Y0216349D01*
X0136469Y0216932D02*
X0185587Y0216932D01*
X0185587Y0217930D02*
X0135893Y0217930D01*
X0135316Y0218929D02*
X0185587Y0218929D01*
X0185587Y0219927D02*
X0134740Y0219927D01*
X0134163Y0220926D02*
X0185587Y0220926D01*
X0185587Y0221924D02*
X0133587Y0221924D01*
X0133010Y0222923D02*
X0185587Y0222923D01*
X0185587Y0223921D02*
X0132434Y0223921D01*
X0131857Y0224920D02*
X0185587Y0224920D01*
X0185587Y0225918D02*
X0131281Y0225918D01*
X0130704Y0226917D02*
X0185587Y0226917D01*
X0185587Y0227915D02*
X0130128Y0227915D01*
X0129551Y0228914D02*
X0185587Y0228914D01*
X0185587Y0229912D02*
X0128975Y0229912D01*
X0128398Y0230911D02*
X0185587Y0230911D01*
X0185587Y0231909D02*
X0127822Y0231909D01*
X0127245Y0232908D02*
X0185587Y0232908D01*
X0185587Y0233906D02*
X0126669Y0233906D01*
X0126092Y0234905D02*
X0185587Y0234905D01*
X0185587Y0235903D02*
X0125516Y0235903D01*
X0124939Y0236902D02*
X0185587Y0236902D01*
X0185587Y0237900D02*
X0124363Y0237900D01*
X0123786Y0238899D02*
X0185429Y0238899D01*
X0185187Y0239897D02*
X0123210Y0239897D01*
X0122633Y0240896D02*
X0185187Y0240896D01*
X0185587Y0248884D02*
X0183258Y0248884D01*
X0183344Y0249883D02*
X0185587Y0249883D01*
X0185587Y0250881D02*
X0183344Y0250881D01*
X0180360Y0250881D02*
X0179391Y0250881D01*
X0179391Y0249883D02*
X0180360Y0249883D01*
X0180360Y0248884D02*
X0179391Y0248884D01*
X0176407Y0253877D02*
X0118379Y0253877D01*
X0118958Y0254875D02*
X0176929Y0254875D01*
X0176807Y0255874D02*
X0119537Y0255874D01*
X0120116Y0256872D02*
X0175811Y0256872D01*
X0175750Y0257871D02*
X0120695Y0257871D01*
X0121274Y0258869D02*
X0175750Y0258869D01*
X0175750Y0259868D02*
X0121852Y0259868D01*
X0122431Y0260866D02*
X0175750Y0260866D01*
X0175750Y0261865D02*
X0123010Y0261865D01*
X0123589Y0262863D02*
X0175165Y0262863D01*
X0175121Y0263862D02*
X0124168Y0263862D01*
X0124747Y0264860D02*
X0175121Y0264860D01*
X0175121Y0265859D02*
X0125326Y0265859D01*
X0125905Y0266857D02*
X0175121Y0266857D01*
X0175121Y0267856D02*
X0126484Y0267856D01*
X0127063Y0268854D02*
X0175121Y0268854D01*
X0175090Y0269853D02*
X0127642Y0269853D01*
X0128221Y0270851D02*
X0174721Y0270851D01*
X0174721Y0271850D02*
X0128800Y0271850D01*
X0129379Y0272848D02*
X0174721Y0272848D01*
X0174721Y0274845D02*
X0130536Y0274845D01*
X0129958Y0273847D02*
X0178674Y0273847D01*
X0178674Y0274845D02*
X0179674Y0274845D01*
X0179674Y0273847D02*
X0185587Y0273847D01*
X0185587Y0274845D02*
X0183627Y0274845D01*
X0183627Y0275844D02*
X0185587Y0275844D01*
X0185587Y0276842D02*
X0183350Y0276842D01*
X0185587Y0277841D02*
X0132273Y0277841D01*
X0131694Y0276842D02*
X0174998Y0276842D01*
X0174721Y0275844D02*
X0131115Y0275844D01*
X0132852Y0278839D02*
X0185587Y0278839D01*
X0185587Y0279838D02*
X0133431Y0279838D01*
X0134010Y0280836D02*
X0185587Y0280836D01*
X0185587Y0281835D02*
X0134589Y0281835D01*
X0135168Y0282833D02*
X0185587Y0282833D01*
X0185587Y0283832D02*
X0135747Y0283832D01*
X0136326Y0284830D02*
X0185587Y0284830D01*
X0185587Y0285829D02*
X0136905Y0285829D01*
X0137484Y0286828D02*
X0185587Y0286828D01*
X0185587Y0287826D02*
X0138063Y0287826D01*
X0138642Y0288825D02*
X0185587Y0288825D01*
X0185587Y0289823D02*
X0139220Y0289823D01*
X0139799Y0290822D02*
X0185587Y0290822D01*
X0185587Y0291820D02*
X0140378Y0291820D01*
X0140957Y0292819D02*
X0185587Y0292819D01*
X0185587Y0293817D02*
X0141536Y0293817D01*
X0142115Y0294816D02*
X0185587Y0294816D01*
X0185587Y0295814D02*
X0142694Y0295814D01*
X0143273Y0296813D02*
X0185587Y0296813D01*
X0185587Y0297811D02*
X0143852Y0297811D01*
X0144431Y0298810D02*
X0185480Y0298810D01*
X0185187Y0299808D02*
X0145010Y0299808D01*
X0145589Y0300807D02*
X0185187Y0300807D01*
X0185187Y0302804D02*
X0149522Y0302804D01*
X0149668Y0303802D02*
X0185187Y0303802D01*
X0185648Y0304801D02*
X0149746Y0304801D01*
X0150322Y0305799D02*
X0206187Y0305799D01*
X0206187Y0306219D02*
X0206187Y0303521D01*
X0206290Y0303140D01*
X0206487Y0302798D01*
X0206766Y0302518D01*
X0207108Y0302321D01*
X0207490Y0302219D01*
X0209187Y0302219D01*
X0209187Y0306219D01*
X0206187Y0306219D01*
X0206187Y0307219D02*
X0209187Y0307219D01*
X0209187Y0306219D01*
X0210187Y0306219D01*
X0210187Y0302219D01*
X0211885Y0302219D01*
X0212187Y0302300D01*
X0212490Y0302219D01*
X0214187Y0302219D01*
X0214187Y0306219D01*
X0211187Y0306219D01*
X0210187Y0306219D01*
X0210187Y0307219D01*
X0209187Y0307219D01*
X0209187Y0311219D01*
X0207490Y0311219D01*
X0207108Y0311116D01*
X0206766Y0310919D01*
X0206487Y0310640D01*
X0206290Y0310298D01*
X0206187Y0309916D01*
X0206187Y0307219D01*
X0206187Y0307796D02*
X0151181Y0307796D01*
X0150914Y0308795D02*
X0206187Y0308795D01*
X0206187Y0309793D02*
X0150646Y0309793D01*
X0151202Y0310792D02*
X0206639Y0310792D01*
X0209187Y0310792D02*
X0210187Y0310792D01*
X0210187Y0311219D02*
X0210187Y0307219D01*
X0214187Y0307219D01*
X0214187Y0311219D01*
X0212490Y0311219D01*
X0212187Y0311138D01*
X0211885Y0311219D01*
X0210187Y0311219D01*
X0210187Y0309793D02*
X0209187Y0309793D01*
X0209187Y0308795D02*
X0210187Y0308795D01*
X0210187Y0307796D02*
X0209187Y0307796D01*
X0209187Y0306798D02*
X0150899Y0306798D01*
X0146619Y0307985D02*
X0146533Y0308035D01*
X0145303Y0307706D01*
X0112633Y0251159D01*
X0112658Y0251174D01*
X0136488Y0209900D01*
X0138271Y0209422D01*
X0135453Y0204097D02*
X0134521Y0200617D01*
X0134025Y0198766D01*
X0128047Y0195314D01*
X0127901Y0195354D01*
X0129238Y0191969D02*
X0134838Y0191969D01*
X0135825Y0192539D02*
X0126376Y0187083D01*
X0126183Y0186365D01*
X0124243Y0189704D01*
X0124976Y0189508D01*
X0134425Y0194964D01*
X0134661Y0195844D01*
X0134037Y0196925D01*
X0134251Y0197049D01*
X0135391Y0197707D01*
X0135399Y0197711D01*
X0135696Y0198821D01*
X0135742Y0198992D01*
X0135742Y0198992D01*
X0136238Y0200843D01*
X0136692Y0202540D01*
X0138027Y0200229D01*
X0139080Y0198405D01*
X0137211Y0191428D01*
X0136706Y0192303D01*
X0135825Y0192539D01*
X0136898Y0191969D02*
X0137356Y0191969D01*
X0137623Y0192967D02*
X0130968Y0192967D01*
X0132697Y0193966D02*
X0137891Y0193966D01*
X0138158Y0194964D02*
X0134426Y0194964D01*
X0134592Y0195963D02*
X0138426Y0195963D01*
X0138693Y0196962D02*
X0134100Y0196962D01*
X0134251Y0197049D02*
X0134251Y0197049D01*
X0135399Y0197711D02*
X0135399Y0197711D01*
X0135399Y0197711D01*
X0135465Y0197960D02*
X0138961Y0197960D01*
X0138760Y0198959D02*
X0135733Y0198959D01*
X0136000Y0199957D02*
X0138184Y0199957D01*
X0138027Y0200229D02*
X0138027Y0200229D01*
X0137607Y0200956D02*
X0136268Y0200956D01*
X0136535Y0201954D02*
X0137031Y0201954D01*
X0134903Y0202044D02*
X0134521Y0200617D01*
X0135453Y0204097D02*
X0127203Y0218386D01*
X0108269Y0251182D01*
X0127612Y0284664D01*
X0127600Y0284711D01*
X0129676Y0288308D01*
X0129108Y0290428D01*
X0130558Y0292939D01*
X0132607Y0293488D01*
X0136083Y0299404D01*
X0138750Y0304024D01*
X0138726Y0304113D01*
X0146226Y0317104D01*
X0166291Y0351857D01*
X0166380Y0351881D01*
X0166511Y0352011D01*
X0201320Y0352018D01*
X0203520Y0354218D01*
X0206320Y0354218D01*
X0208527Y0352011D01*
X0222120Y0352011D01*
X0224741Y0354632D01*
X0224741Y0356465D01*
X0224752Y0363105D01*
X0221152Y0362714D02*
X0218352Y0362714D01*
X0218352Y0361716D02*
X0221152Y0361716D01*
X0221152Y0360717D02*
X0218352Y0360717D01*
X0218352Y0359719D02*
X0221152Y0359719D01*
X0221152Y0358720D02*
X0218352Y0358720D01*
X0218352Y0357722D02*
X0221152Y0357722D01*
X0221152Y0357649D02*
X0221796Y0357005D01*
X0223141Y0357005D01*
X0223141Y0356465D01*
X0223140Y0355805D01*
X0223141Y0355803D01*
X0223141Y0355295D01*
X0221458Y0353611D01*
X0209190Y0353611D01*
X0207920Y0354881D01*
X0207622Y0355180D01*
X0206983Y0355818D01*
X0205658Y0355818D01*
X0202858Y0355818D01*
X0201934Y0354895D01*
X0200658Y0353618D01*
X0166469Y0353611D01*
X0165848Y0353611D01*
X0165848Y0353611D01*
X0165848Y0353611D01*
X0165552Y0353315D01*
X0165236Y0353231D01*
X0165236Y0353231D01*
X0165236Y0353231D01*
X0164921Y0352684D01*
X0164780Y0352544D01*
X0164780Y0352441D01*
X0144509Y0317330D01*
X0141443Y0312020D01*
X0141443Y0313175D01*
X0140101Y0314516D01*
X0138746Y0314516D01*
X0139339Y0315544D01*
X0139103Y0316424D01*
X0129654Y0321880D01*
X0128910Y0321680D01*
X0156396Y0369289D01*
X0211731Y0369140D01*
X0211152Y0368560D01*
X0211152Y0358612D01*
X0211148Y0358609D01*
X0210172Y0358609D01*
X0208830Y0357267D01*
X0208830Y0355369D01*
X0210172Y0354028D01*
X0212069Y0354028D01*
X0213411Y0355369D01*
X0213411Y0356346D01*
X0214070Y0357005D01*
X0217707Y0357005D01*
X0218352Y0357649D01*
X0218352Y0368560D01*
X0217789Y0369124D01*
X0221704Y0369113D01*
X0221152Y0368560D01*
X0221152Y0357649D01*
X0223141Y0356723D02*
X0213788Y0356723D01*
X0213411Y0355725D02*
X0223141Y0355725D01*
X0222573Y0354726D02*
X0212768Y0354726D01*
X0211120Y0356318D02*
X0214752Y0359950D01*
X0214752Y0363105D01*
X0211152Y0362714D02*
X0152601Y0362714D01*
X0152024Y0361716D02*
X0211152Y0361716D01*
X0211152Y0360717D02*
X0151448Y0360717D01*
X0150871Y0359719D02*
X0211152Y0359719D01*
X0211152Y0358720D02*
X0150295Y0358720D01*
X0149718Y0357722D02*
X0209285Y0357722D01*
X0208830Y0356723D02*
X0149142Y0356723D01*
X0148565Y0355725D02*
X0202764Y0355725D01*
X0201766Y0354726D02*
X0147989Y0354726D01*
X0147412Y0353728D02*
X0200767Y0353728D01*
X0203320Y0350185D02*
X0203587Y0350185D01*
X0204920Y0351518D01*
X0205658Y0355818D02*
X0205658Y0355818D01*
X0207077Y0355725D02*
X0208830Y0355725D01*
X0209473Y0354726D02*
X0208075Y0354726D01*
X0207920Y0354881D02*
X0207920Y0354881D01*
X0209074Y0353728D02*
X0221574Y0353728D01*
X0222120Y0352011D02*
X0283026Y0352011D01*
X0304514Y0314875D01*
X0306836Y0314253D01*
X0307736Y0312694D01*
X0307099Y0310315D01*
X0311055Y0303463D01*
X0311105Y0303449D01*
X0304596Y0299808D02*
X0264187Y0299808D01*
X0264187Y0300807D02*
X0304022Y0300807D01*
X0303448Y0301805D02*
X0260187Y0301805D01*
X0260187Y0302804D02*
X0259187Y0302804D01*
X0259187Y0303802D02*
X0260187Y0303802D01*
X0260187Y0304801D02*
X0259187Y0304801D01*
X0259187Y0301805D02*
X0190187Y0301805D01*
X0190187Y0302804D02*
X0189187Y0302804D01*
X0189187Y0303802D02*
X0190187Y0303802D01*
X0190187Y0304801D02*
X0189187Y0304801D01*
X0189187Y0301805D02*
X0148524Y0301805D01*
X0146619Y0307985D02*
X0146241Y0309398D01*
X0152131Y0319601D01*
X0152110Y0319596D01*
X0152131Y0319601D02*
X0168621Y0348162D01*
X0168743Y0348285D01*
X0233420Y0348218D01*
X0234720Y0346918D01*
X0234820Y0346918D01*
X0236087Y0348185D01*
X0280753Y0348285D01*
X0313552Y0291273D01*
X0313285Y0290274D01*
X0314241Y0290018D01*
X0310648Y0286828D02*
X0263787Y0286828D01*
X0263787Y0287826D02*
X0309956Y0287826D01*
X0309387Y0288825D02*
X0263787Y0288825D01*
X0263787Y0289823D02*
X0308143Y0289823D01*
X0307379Y0290822D02*
X0263787Y0290822D01*
X0263787Y0291820D02*
X0307379Y0291820D01*
X0307713Y0292819D02*
X0263787Y0292819D01*
X0263787Y0293817D02*
X0308042Y0293817D01*
X0307468Y0294816D02*
X0263787Y0294816D01*
X0263787Y0295814D02*
X0306893Y0295814D01*
X0306319Y0296813D02*
X0263787Y0296813D01*
X0263787Y0297811D02*
X0305745Y0297811D01*
X0305171Y0298810D02*
X0263895Y0298810D01*
X0264187Y0302804D02*
X0302874Y0302804D01*
X0302299Y0303802D02*
X0264187Y0303802D01*
X0263727Y0304801D02*
X0301725Y0304801D01*
X0301151Y0305799D02*
X0243187Y0305799D01*
X0243187Y0306219D02*
X0240187Y0306219D01*
X0240187Y0302219D01*
X0241885Y0302219D01*
X0242266Y0302321D01*
X0242608Y0302518D01*
X0242888Y0302798D01*
X0243085Y0303140D01*
X0243187Y0303521D01*
X0243187Y0306219D01*
X0243187Y0307219D02*
X0243187Y0309916D01*
X0243085Y0310298D01*
X0242888Y0310640D01*
X0242608Y0310919D01*
X0242266Y0311116D01*
X0241885Y0311219D01*
X0240187Y0311219D01*
X0240187Y0307219D01*
X0239187Y0307219D01*
X0239187Y0311219D01*
X0237490Y0311219D01*
X0237187Y0311138D01*
X0236885Y0311219D01*
X0235187Y0311219D01*
X0235187Y0307219D01*
X0234187Y0307219D01*
X0234187Y0311219D01*
X0232490Y0311219D01*
X0232108Y0311116D01*
X0231766Y0310919D01*
X0231666Y0310819D01*
X0227709Y0310819D01*
X0227608Y0310919D01*
X0227266Y0311116D01*
X0226885Y0311219D01*
X0225187Y0311219D01*
X0225187Y0307219D01*
X0224187Y0307219D01*
X0224187Y0311219D01*
X0223755Y0311219D01*
X0223779Y0311276D01*
X0223779Y0314384D01*
X0223789Y0314516D01*
X0223871Y0314768D01*
X0224027Y0314982D01*
X0224241Y0315138D01*
X0224493Y0315220D01*
X0224625Y0315230D01*
X0225447Y0315230D01*
X0225523Y0315262D01*
X0226324Y0315262D01*
X0226890Y0315828D01*
X0226966Y0315859D01*
X0228128Y0317021D01*
X0228159Y0317097D01*
X0228725Y0317663D01*
X0228725Y0318464D01*
X0228757Y0318540D01*
X0228757Y0329068D01*
X0228761Y0329079D01*
X0228763Y0330082D01*
X0229708Y0330082D01*
X0229708Y0335576D01*
X0230381Y0335576D01*
X0230381Y0330082D01*
X0231916Y0330082D01*
X0232297Y0330185D01*
X0232639Y0330382D01*
X0232918Y0330661D01*
X0233116Y0331003D01*
X0233218Y0331385D01*
X0233218Y0335577D01*
X0230382Y0335577D01*
X0230382Y0336250D01*
X0233218Y0336250D01*
X0233218Y0340441D01*
X0233116Y0340823D01*
X0232918Y0341165D01*
X0232639Y0341444D01*
X0232297Y0341642D01*
X0231916Y0341744D01*
X0230381Y0341744D01*
X0230381Y0336250D01*
X0229708Y0336250D01*
X0229708Y0335577D01*
X0226872Y0335577D01*
X0226872Y0333452D01*
X0225461Y0334039D01*
X0223818Y0334042D01*
X0222391Y0333455D01*
X0222391Y0335577D01*
X0219555Y0335577D01*
X0219555Y0336250D01*
X0218881Y0336250D01*
X0218881Y0335577D01*
X0216045Y0335577D01*
X0216045Y0331385D01*
X0216147Y0331003D01*
X0216345Y0330661D01*
X0216624Y0330382D01*
X0216966Y0330185D01*
X0217347Y0330082D01*
X0218881Y0330082D01*
X0218881Y0335576D01*
X0219555Y0335576D01*
X0219555Y0330082D01*
X0220494Y0330082D01*
X0220494Y0329905D01*
X0220492Y0329089D01*
X0220494Y0329086D01*
X0220494Y0322620D01*
X0220438Y0322602D01*
X0218104Y0320905D01*
X0216408Y0318571D01*
X0215516Y0315827D01*
X0215516Y0311276D01*
X0215540Y0311219D01*
X0215187Y0311219D01*
X0215187Y0307219D01*
X0214187Y0307219D01*
X0214187Y0306219D01*
X0215187Y0306219D01*
X0215187Y0302219D01*
X0216885Y0302219D01*
X0217266Y0302321D01*
X0217608Y0302518D01*
X0217709Y0302619D01*
X0221666Y0302619D01*
X0221766Y0302518D01*
X0222108Y0302321D01*
X0222490Y0302219D01*
X0224187Y0302219D01*
X0224187Y0306219D01*
X0225187Y0306219D01*
X0225187Y0302219D01*
X0226885Y0302219D01*
X0227266Y0302321D01*
X0227608Y0302518D01*
X0227709Y0302619D01*
X0231666Y0302619D01*
X0231766Y0302518D01*
X0232108Y0302321D01*
X0232490Y0302219D01*
X0234187Y0302219D01*
X0234187Y0306219D01*
X0235187Y0306219D01*
X0235187Y0302219D01*
X0236885Y0302219D01*
X0237187Y0302300D01*
X0237490Y0302219D01*
X0239187Y0302219D01*
X0239187Y0306219D01*
X0236187Y0306219D01*
X0235187Y0306219D01*
X0235187Y0307219D01*
X0239187Y0307219D01*
X0239187Y0306219D01*
X0240187Y0306219D01*
X0240187Y0307219D01*
X0243187Y0307219D01*
X0243187Y0307796D02*
X0300002Y0307796D01*
X0300576Y0306798D02*
X0240187Y0306798D01*
X0240187Y0307796D02*
X0239187Y0307796D01*
X0239187Y0306798D02*
X0235187Y0306798D01*
X0235187Y0307796D02*
X0234187Y0307796D01*
X0234187Y0308795D02*
X0235187Y0308795D01*
X0235187Y0309793D02*
X0234187Y0309793D01*
X0234187Y0310792D02*
X0235187Y0310792D01*
X0239187Y0310792D02*
X0240187Y0310792D01*
X0240187Y0309793D02*
X0239187Y0309793D01*
X0239187Y0308795D02*
X0240187Y0308795D01*
X0240187Y0305799D02*
X0239187Y0305799D01*
X0239187Y0304801D02*
X0240187Y0304801D01*
X0240187Y0303802D02*
X0239187Y0303802D01*
X0239187Y0302804D02*
X0240187Y0302804D01*
X0242891Y0302804D02*
X0255187Y0302804D01*
X0255187Y0303802D02*
X0243187Y0303802D01*
X0243187Y0304801D02*
X0255648Y0304801D01*
X0255187Y0300807D02*
X0194187Y0300807D01*
X0194187Y0299808D02*
X0255187Y0299808D01*
X0255480Y0298810D02*
X0193895Y0298810D01*
X0193787Y0297811D02*
X0255587Y0297811D01*
X0255587Y0296813D02*
X0193787Y0296813D01*
X0193787Y0295814D02*
X0255587Y0295814D01*
X0255587Y0294816D02*
X0193787Y0294816D01*
X0193787Y0293817D02*
X0255587Y0293817D01*
X0255587Y0292819D02*
X0193787Y0292819D01*
X0193787Y0291820D02*
X0255587Y0291820D01*
X0255587Y0290822D02*
X0193787Y0290822D01*
X0193787Y0289823D02*
X0255587Y0289823D01*
X0255587Y0288825D02*
X0193787Y0288825D01*
X0193787Y0287826D02*
X0255587Y0287826D01*
X0255587Y0286828D02*
X0193787Y0286828D01*
X0193787Y0285829D02*
X0255587Y0285829D01*
X0255587Y0284830D02*
X0193787Y0284830D01*
X0193787Y0283832D02*
X0255587Y0283832D01*
X0259187Y0276842D02*
X0234885Y0276842D01*
X0253271Y0258869D02*
X0255587Y0258869D01*
X0255587Y0257871D02*
X0253271Y0257871D01*
X0252386Y0256872D02*
X0255587Y0256872D01*
X0255587Y0255874D02*
X0251388Y0255874D01*
X0263787Y0255874D02*
X0329986Y0255874D01*
X0329409Y0256872D02*
X0263787Y0256872D01*
X0263787Y0257871D02*
X0328833Y0257871D01*
X0328256Y0258869D02*
X0263787Y0258869D01*
X0263787Y0259868D02*
X0327680Y0259868D01*
X0327103Y0260866D02*
X0263787Y0260866D01*
X0263787Y0261865D02*
X0326527Y0261865D01*
X0325950Y0262863D02*
X0263787Y0262863D01*
X0263787Y0263862D02*
X0325374Y0263862D01*
X0324797Y0264860D02*
X0263787Y0264860D01*
X0263787Y0265859D02*
X0324221Y0265859D01*
X0323644Y0266857D02*
X0263787Y0266857D01*
X0263787Y0267856D02*
X0323068Y0267856D01*
X0322490Y0268854D02*
X0263787Y0268854D01*
X0263916Y0273847D02*
X0266610Y0273847D01*
X0266610Y0274845D02*
X0264187Y0274845D01*
X0264187Y0275844D02*
X0266610Y0275844D01*
X0266610Y0276842D02*
X0260187Y0276842D01*
X0264187Y0277841D02*
X0266960Y0277841D01*
X0267106Y0278839D02*
X0264187Y0278839D01*
X0263787Y0279838D02*
X0266610Y0279838D01*
X0263787Y0254875D02*
X0330562Y0254875D01*
X0331139Y0253877D02*
X0263787Y0253877D01*
X0263787Y0252878D02*
X0331715Y0252878D01*
X0332292Y0251880D02*
X0263787Y0251880D01*
X0263787Y0250881D02*
X0332868Y0250881D01*
X0333445Y0249883D02*
X0263787Y0249883D01*
X0263787Y0248884D02*
X0332875Y0248884D01*
X0332300Y0247886D02*
X0263787Y0247886D01*
X0263787Y0246887D02*
X0331726Y0246887D01*
X0331152Y0245889D02*
X0263787Y0245889D01*
X0263787Y0244890D02*
X0330578Y0244890D01*
X0330004Y0243892D02*
X0263787Y0243892D01*
X0263787Y0242893D02*
X0329428Y0242893D01*
X0328851Y0241895D02*
X0263787Y0241895D01*
X0263787Y0240896D02*
X0328275Y0240896D01*
X0327698Y0239897D02*
X0263787Y0239897D01*
X0264187Y0238899D02*
X0327122Y0238899D01*
X0326545Y0237900D02*
X0264187Y0237900D01*
X0255587Y0239897D02*
X0252871Y0239897D01*
X0252871Y0238899D02*
X0255187Y0238899D01*
X0255187Y0237900D02*
X0252534Y0237900D01*
X0252871Y0240896D02*
X0255587Y0240896D01*
X0255587Y0241895D02*
X0252871Y0241895D01*
X0252063Y0242893D02*
X0255587Y0242893D01*
X0255424Y0233906D02*
X0234800Y0233906D01*
X0234800Y0232908D02*
X0255587Y0232908D01*
X0255587Y0231909D02*
X0234800Y0231909D01*
X0234800Y0230911D02*
X0255587Y0230911D01*
X0255587Y0229912D02*
X0234800Y0229912D01*
X0234800Y0228914D02*
X0255587Y0228914D01*
X0255587Y0227915D02*
X0235074Y0227915D01*
X0230800Y0226917D02*
X0218850Y0226917D01*
X0218850Y0227915D02*
X0221982Y0227915D01*
X0220847Y0228914D02*
X0218850Y0228914D01*
X0218850Y0229912D02*
X0220131Y0229912D01*
X0219717Y0230911D02*
X0218850Y0230911D01*
X0218850Y0231909D02*
X0219563Y0231909D01*
X0219563Y0232908D02*
X0218850Y0232908D01*
X0218850Y0233906D02*
X0219818Y0233906D01*
X0220232Y0234905D02*
X0218850Y0234905D01*
X0218850Y0235903D02*
X0221090Y0235903D01*
X0238463Y0237900D02*
X0243922Y0237900D01*
X0274146Y0208944D02*
X0276100Y0208944D01*
X0276193Y0207945D02*
X0275145Y0207945D01*
X0275300Y0206947D02*
X0275546Y0206947D01*
X0278377Y0202953D02*
X0292635Y0202953D01*
X0292700Y0203951D02*
X0284476Y0203951D01*
X0282390Y0201954D02*
X0287626Y0201954D01*
X0286655Y0200956D02*
X0283204Y0200956D01*
X0283270Y0200856D02*
X0282832Y0201512D01*
X0282275Y0202069D01*
X0281620Y0202506D01*
X0280892Y0202808D01*
X0280225Y0202941D01*
X0280225Y0199462D01*
X0283704Y0199462D01*
X0283572Y0200128D01*
X0283270Y0200856D01*
X0283606Y0199957D02*
X0286241Y0199957D01*
X0286125Y0198959D02*
X0280225Y0198959D01*
X0280225Y0199957D02*
X0279225Y0199957D01*
X0279225Y0200956D02*
X0280225Y0200956D01*
X0280225Y0201954D02*
X0279225Y0201954D01*
X0283604Y0197960D02*
X0286244Y0197960D01*
X0286657Y0196962D02*
X0283200Y0196962D01*
X0282383Y0195963D02*
X0287633Y0195963D01*
X0288025Y0204950D02*
X0293359Y0204950D01*
X0295000Y0203337D02*
X0295350Y0203337D01*
X0288250Y0205175D02*
X0288250Y0205175D01*
X0286193Y0207945D02*
X0283206Y0207945D01*
X0282946Y0206947D02*
X0282792Y0206947D01*
X0281739Y0211939D02*
X0280416Y0212487D01*
X0278984Y0212487D01*
X0277660Y0211939D01*
X0276257Y0190970D02*
X0275195Y0190970D01*
X0274540Y0190316D02*
X0274540Y0190315D01*
X0274197Y0189972D02*
X0275848Y0189972D01*
X0277656Y0181984D02*
X0270899Y0181984D01*
X0272813Y0181637D02*
X0272813Y0181637D01*
X0275039Y0180985D02*
X0276667Y0180985D01*
X0279725Y0178962D02*
X0279800Y0178887D01*
X0279865Y0178924D02*
X0279725Y0178962D01*
X0281847Y0175993D02*
X0283924Y0175993D01*
X0283924Y0174994D02*
X0281552Y0174994D01*
X0281549Y0173996D02*
X0284430Y0173996D01*
X0281546Y0172997D02*
X0289011Y0172997D01*
X0288437Y0171999D02*
X0281543Y0171999D01*
X0281540Y0171000D02*
X0287863Y0171000D01*
X0287289Y0170002D02*
X0281537Y0170002D01*
X0281534Y0169003D02*
X0286715Y0169003D01*
X0286141Y0168005D02*
X0281530Y0168005D01*
X0281527Y0167006D02*
X0285567Y0167006D01*
X0284993Y0166008D02*
X0281524Y0166008D01*
X0281521Y0165009D02*
X0284419Y0165009D01*
X0283845Y0164011D02*
X0281518Y0164011D01*
X0287999Y0173996D02*
X0289585Y0173996D01*
X0290159Y0174994D02*
X0288505Y0174994D01*
X0221635Y0152028D02*
X0197954Y0152028D01*
X0197243Y0153027D02*
X0220636Y0153027D01*
X0217641Y0156023D02*
X0153874Y0156023D01*
X0153017Y0157021D02*
X0216642Y0157021D01*
X0216074Y0158020D02*
X0152974Y0158020D01*
X0152974Y0159018D02*
X0216074Y0159018D01*
X0216074Y0160017D02*
X0152974Y0160017D01*
X0152974Y0161015D02*
X0216074Y0161015D01*
X0216074Y0162014D02*
X0153956Y0162014D01*
X0154954Y0163012D02*
X0216074Y0163012D01*
X0216074Y0164011D02*
X0155953Y0164011D01*
X0156951Y0165009D02*
X0216074Y0165009D01*
X0216074Y0169003D02*
X0210977Y0169003D01*
X0211724Y0170002D02*
X0216074Y0170002D01*
X0216074Y0171000D02*
X0211724Y0171000D01*
X0211381Y0171999D02*
X0216074Y0171999D01*
X0216074Y0172997D02*
X0210383Y0172997D01*
X0193303Y0154026D02*
X0176555Y0154026D01*
X0178148Y0153027D02*
X0191710Y0153027D01*
X0190999Y0152028D02*
X0178859Y0152028D01*
X0179181Y0151030D02*
X0190678Y0151030D01*
X0190614Y0150031D02*
X0179244Y0150031D01*
X0179025Y0149033D02*
X0190834Y0149033D01*
X0191366Y0148034D02*
X0178493Y0148034D01*
X0177402Y0147036D02*
X0192456Y0147036D01*
X0191960Y0143402D02*
X0191579Y0143300D01*
X0191237Y0143102D01*
X0190957Y0142823D01*
X0190760Y0142481D01*
X0190658Y0142099D01*
X0190658Y0138886D01*
X0195173Y0138886D01*
X0195173Y0137918D01*
X0190658Y0137918D01*
X0190658Y0134704D01*
X0190760Y0134323D01*
X0190957Y0133981D01*
X0191237Y0133702D01*
X0191579Y0133504D01*
X0191960Y0133402D01*
X0195173Y0133402D01*
X0195173Y0137918D01*
X0196142Y0137918D01*
X0196142Y0138886D01*
X0200658Y0138886D01*
X0200658Y0142099D01*
X0200555Y0142481D01*
X0200358Y0142823D01*
X0200079Y0143102D01*
X0199737Y0143300D01*
X0199355Y0143402D01*
X0196142Y0143402D01*
X0196142Y0138886D01*
X0195173Y0138886D01*
X0195173Y0143402D01*
X0191960Y0143402D01*
X0191176Y0143042D02*
X0178682Y0143042D01*
X0178622Y0143102D02*
X0178280Y0143300D01*
X0177898Y0143402D01*
X0174685Y0143402D01*
X0174685Y0138886D01*
X0173717Y0138886D01*
X0173717Y0143402D01*
X0170503Y0143402D01*
X0170122Y0143300D01*
X0169780Y0143102D01*
X0169501Y0142823D01*
X0169303Y0142481D01*
X0169201Y0142099D01*
X0169201Y0138886D01*
X0173717Y0138886D01*
X0173717Y0137918D01*
X0174685Y0137918D01*
X0174685Y0138886D01*
X0179201Y0138886D01*
X0179201Y0142099D01*
X0179099Y0142481D01*
X0178901Y0142823D01*
X0178622Y0143102D01*
X0179201Y0142043D02*
X0190658Y0142043D01*
X0190658Y0141045D02*
X0179201Y0141045D01*
X0179201Y0140046D02*
X0190658Y0140046D01*
X0190658Y0139048D02*
X0179201Y0139048D01*
X0179201Y0137918D02*
X0174685Y0137918D01*
X0174685Y0133402D01*
X0177898Y0133402D01*
X0178280Y0133504D01*
X0178622Y0133702D01*
X0178901Y0133981D01*
X0179099Y0134323D01*
X0179201Y0134704D01*
X0179201Y0137918D01*
X0179201Y0137051D02*
X0190658Y0137051D01*
X0190658Y0136052D02*
X0179201Y0136052D01*
X0179201Y0135054D02*
X0190658Y0135054D01*
X0190914Y0134055D02*
X0178944Y0134055D01*
X0174685Y0134055D02*
X0173717Y0134055D01*
X0173717Y0133402D02*
X0173717Y0137918D01*
X0169201Y0137918D01*
X0169201Y0134704D01*
X0169303Y0134323D01*
X0169501Y0133981D01*
X0169780Y0133702D01*
X0170122Y0133504D01*
X0170503Y0133402D01*
X0173717Y0133402D01*
X0173717Y0135054D02*
X0174685Y0135054D01*
X0174685Y0136052D02*
X0173717Y0136052D01*
X0173717Y0137051D02*
X0174685Y0137051D01*
X0174685Y0138049D02*
X0195173Y0138049D01*
X0196142Y0138049D02*
X0211797Y0138049D01*
X0211797Y0137051D02*
X0200658Y0137051D01*
X0200658Y0137918D02*
X0196142Y0137918D01*
X0196142Y0133402D01*
X0199355Y0133402D01*
X0199737Y0133504D01*
X0200079Y0133702D01*
X0200358Y0133981D01*
X0200555Y0134323D01*
X0200658Y0134704D01*
X0200658Y0137918D01*
X0200658Y0139048D02*
X0211797Y0139048D01*
X0211797Y0140046D02*
X0200658Y0140046D01*
X0200658Y0141045D02*
X0211797Y0141045D01*
X0211797Y0142043D02*
X0200658Y0142043D01*
X0200139Y0143042D02*
X0211797Y0143042D01*
X0211797Y0144040D02*
X0150772Y0144040D01*
X0151352Y0143042D02*
X0169720Y0143042D01*
X0169201Y0142043D02*
X0151932Y0142043D01*
X0152512Y0141045D02*
X0169201Y0141045D01*
X0169201Y0140046D02*
X0153092Y0140046D01*
X0153672Y0139048D02*
X0169201Y0139048D01*
X0169201Y0137051D02*
X0154832Y0137051D01*
X0154252Y0138049D02*
X0173717Y0138049D01*
X0173717Y0139048D02*
X0174685Y0139048D01*
X0174685Y0140046D02*
X0173717Y0140046D01*
X0173717Y0141045D02*
X0174685Y0141045D01*
X0174685Y0142043D02*
X0173717Y0142043D01*
X0173717Y0143042D02*
X0174685Y0143042D01*
X0169201Y0136052D02*
X0155412Y0136052D01*
X0155992Y0135054D02*
X0169201Y0135054D01*
X0169458Y0134055D02*
X0156572Y0134055D01*
X0150191Y0145039D02*
X0212316Y0145039D01*
X0213797Y0145213D02*
X0213797Y0145213D01*
X0213797Y0146037D02*
X0149611Y0146037D01*
X0147871Y0149033D02*
X0171739Y0149033D01*
X0171520Y0150031D02*
X0147291Y0150031D01*
X0146711Y0151030D02*
X0171583Y0151030D01*
X0171905Y0152028D02*
X0146131Y0152028D01*
X0146606Y0153027D02*
X0145551Y0153027D01*
X0145608Y0154026D02*
X0144971Y0154026D01*
X0145374Y0155024D02*
X0144391Y0155024D01*
X0143811Y0156023D02*
X0145374Y0156023D01*
X0145974Y0157021D02*
X0143231Y0157021D01*
X0142650Y0158020D02*
X0145974Y0158020D01*
X0145974Y0159018D02*
X0142070Y0159018D01*
X0141490Y0160017D02*
X0145974Y0160017D01*
X0145974Y0161015D02*
X0140910Y0161015D01*
X0140330Y0162014D02*
X0145974Y0162014D01*
X0145974Y0163012D02*
X0139750Y0163012D01*
X0139170Y0164011D02*
X0145974Y0164011D01*
X0145974Y0165009D02*
X0138590Y0165009D01*
X0138010Y0166008D02*
X0145974Y0166008D01*
X0145974Y0167006D02*
X0137430Y0167006D01*
X0136850Y0168005D02*
X0146913Y0168005D01*
X0147911Y0169003D02*
X0136270Y0169003D01*
X0135690Y0170002D02*
X0148910Y0170002D01*
X0149908Y0171000D02*
X0135109Y0171000D01*
X0134529Y0171999D02*
X0150907Y0171999D01*
X0151774Y0172997D02*
X0133949Y0172997D01*
X0133369Y0173996D02*
X0152055Y0173996D01*
X0153054Y0174994D02*
X0132789Y0174994D01*
X0132209Y0175993D02*
X0154874Y0175993D01*
X0154874Y0176991D02*
X0131629Y0176991D01*
X0131049Y0177990D02*
X0154874Y0177990D01*
X0154874Y0178988D02*
X0130469Y0178988D01*
X0129889Y0179987D02*
X0154196Y0179987D01*
X0153474Y0180985D02*
X0130214Y0180985D01*
X0129463Y0180985D02*
X0129309Y0180985D01*
X0131943Y0181984D02*
X0153474Y0181984D01*
X0153842Y0182982D02*
X0133673Y0182982D01*
X0135402Y0183981D02*
X0146833Y0183981D01*
X0145849Y0184979D02*
X0137132Y0184979D01*
X0138861Y0185978D02*
X0145849Y0185978D01*
X0145678Y0186976D02*
X0139606Y0186976D01*
X0139204Y0187975D02*
X0145102Y0187975D01*
X0144525Y0188973D02*
X0139866Y0188973D01*
X0140133Y0189972D02*
X0143949Y0189972D01*
X0143372Y0190970D02*
X0140401Y0190970D01*
X0140175Y0190128D02*
X0140175Y0190128D01*
X0138458Y0189902D02*
X0140797Y0198631D01*
X0141204Y0193966D02*
X0141643Y0193966D01*
X0142219Y0192967D02*
X0140936Y0192967D01*
X0140668Y0191969D02*
X0142796Y0191969D01*
X0138458Y0189902D02*
X0132901Y0186693D01*
X0131379Y0189972D02*
X0125779Y0189972D01*
X0124668Y0188973D02*
X0129650Y0188973D01*
X0127920Y0187975D02*
X0125248Y0187975D01*
X0125828Y0186976D02*
X0126347Y0186976D01*
X0127509Y0190970D02*
X0133109Y0190970D01*
X0126874Y0200763D02*
X0124415Y0201422D01*
X0122922Y0204008D01*
X0122901Y0204014D01*
X0120780Y0206947D02*
X0114227Y0206947D01*
X0113647Y0207945D02*
X0122510Y0207945D01*
X0124239Y0208944D02*
X0113067Y0208944D01*
X0112487Y0209942D02*
X0130231Y0209942D01*
X0130807Y0208944D02*
X0127098Y0208944D01*
X0126706Y0209623D02*
X0125825Y0209859D01*
X0116376Y0204404D01*
X0116164Y0203612D01*
X0088368Y0251459D01*
X0115854Y0299067D01*
X0116054Y0298324D01*
X0125006Y0293155D01*
X0125006Y0292142D01*
X0126348Y0290800D01*
X0127475Y0290800D01*
X0127391Y0290654D01*
X0127959Y0288534D01*
X0126223Y0285526D01*
X0125883Y0284938D01*
X0125883Y0284938D01*
X0125883Y0284937D01*
X0125895Y0284891D01*
X0107098Y0252353D01*
X0106895Y0252236D01*
X0106778Y0251800D01*
X0106552Y0251408D01*
X0106612Y0251182D01*
X0106552Y0250956D01*
X0106778Y0250564D01*
X0106895Y0250128D01*
X0107097Y0250011D01*
X0126149Y0217012D01*
X0132534Y0205953D01*
X0130948Y0205953D01*
X0129606Y0204612D01*
X0129606Y0204600D01*
X0126706Y0209623D01*
X0127675Y0207945D02*
X0131384Y0207945D01*
X0131960Y0206947D02*
X0128251Y0206947D01*
X0128828Y0205948D02*
X0130943Y0205948D01*
X0129944Y0204950D02*
X0129404Y0204950D01*
X0131897Y0203663D02*
X0126874Y0200763D01*
X0119051Y0205948D02*
X0114807Y0205948D01*
X0115387Y0204950D02*
X0117321Y0204950D01*
X0116255Y0203951D02*
X0115967Y0203951D01*
X0111906Y0210941D02*
X0129654Y0210941D01*
X0129078Y0211939D02*
X0111326Y0211939D01*
X0110746Y0212938D02*
X0128501Y0212938D01*
X0127925Y0213936D02*
X0110166Y0213936D01*
X0109586Y0214935D02*
X0127348Y0214935D01*
X0126772Y0215933D02*
X0109006Y0215933D01*
X0108426Y0216932D02*
X0126196Y0216932D01*
X0126149Y0217012D02*
X0126149Y0217012D01*
X0125619Y0217930D02*
X0107846Y0217930D01*
X0107266Y0218929D02*
X0125043Y0218929D01*
X0124466Y0219927D02*
X0106686Y0219927D01*
X0106106Y0220926D02*
X0123890Y0220926D01*
X0123313Y0221924D02*
X0105526Y0221924D01*
X0104946Y0222923D02*
X0122737Y0222923D01*
X0122160Y0223921D02*
X0104365Y0223921D01*
X0103785Y0224920D02*
X0121584Y0224920D01*
X0121007Y0225918D02*
X0103205Y0225918D01*
X0102625Y0226917D02*
X0120431Y0226917D01*
X0119854Y0227915D02*
X0102045Y0227915D01*
X0101465Y0228914D02*
X0119278Y0228914D01*
X0118701Y0229912D02*
X0100885Y0229912D01*
X0100305Y0230911D02*
X0118125Y0230911D01*
X0117548Y0231909D02*
X0099725Y0231909D01*
X0099145Y0232908D02*
X0116972Y0232908D01*
X0116395Y0233906D02*
X0098565Y0233906D01*
X0097985Y0234905D02*
X0115819Y0234905D01*
X0115242Y0235903D02*
X0097405Y0235903D01*
X0096824Y0236902D02*
X0114666Y0236902D01*
X0114089Y0237900D02*
X0096244Y0237900D01*
X0095664Y0238899D02*
X0113513Y0238899D01*
X0112936Y0239897D02*
X0095084Y0239897D01*
X0094504Y0240896D02*
X0112360Y0240896D01*
X0111783Y0241895D02*
X0093924Y0241895D01*
X0093344Y0242893D02*
X0111207Y0242893D01*
X0110630Y0243892D02*
X0092764Y0243892D01*
X0092184Y0244890D02*
X0110054Y0244890D01*
X0109477Y0245889D02*
X0091604Y0245889D01*
X0091024Y0246887D02*
X0108901Y0246887D01*
X0108324Y0247886D02*
X0090444Y0247886D01*
X0089864Y0248884D02*
X0107748Y0248884D01*
X0107171Y0249883D02*
X0089284Y0249883D01*
X0088703Y0250881D02*
X0106595Y0250881D01*
X0106799Y0251880D02*
X0088610Y0251880D01*
X0089187Y0252878D02*
X0107401Y0252878D01*
X0107978Y0253877D02*
X0089763Y0253877D01*
X0090340Y0254875D02*
X0108555Y0254875D01*
X0109132Y0255874D02*
X0090916Y0255874D01*
X0091493Y0256872D02*
X0109708Y0256872D01*
X0110285Y0257871D02*
X0092069Y0257871D01*
X0092646Y0258869D02*
X0110862Y0258869D01*
X0111439Y0259868D02*
X0093222Y0259868D01*
X0093799Y0260866D02*
X0112016Y0260866D01*
X0112593Y0261865D02*
X0094375Y0261865D01*
X0094952Y0262863D02*
X0113170Y0262863D01*
X0113746Y0263862D02*
X0095528Y0263862D01*
X0096105Y0264860D02*
X0114323Y0264860D01*
X0114900Y0265859D02*
X0096681Y0265859D01*
X0097258Y0266857D02*
X0115477Y0266857D01*
X0116054Y0267856D02*
X0097834Y0267856D01*
X0098411Y0268854D02*
X0116631Y0268854D01*
X0117208Y0269853D02*
X0098987Y0269853D01*
X0099564Y0270851D02*
X0117784Y0270851D01*
X0118361Y0271850D02*
X0100140Y0271850D01*
X0100717Y0272848D02*
X0118938Y0272848D01*
X0119515Y0273847D02*
X0101293Y0273847D01*
X0101870Y0274845D02*
X0120092Y0274845D01*
X0120669Y0275844D02*
X0102446Y0275844D01*
X0103023Y0276842D02*
X0121246Y0276842D01*
X0121823Y0277841D02*
X0103599Y0277841D01*
X0104176Y0278839D02*
X0122399Y0278839D01*
X0122976Y0279838D02*
X0104752Y0279838D01*
X0105329Y0280836D02*
X0123553Y0280836D01*
X0124130Y0281835D02*
X0105905Y0281835D01*
X0106482Y0282833D02*
X0124707Y0282833D01*
X0125284Y0283832D02*
X0107058Y0283832D01*
X0107635Y0284830D02*
X0125861Y0284830D01*
X0126398Y0285829D02*
X0108211Y0285829D01*
X0108788Y0286828D02*
X0126974Y0286828D01*
X0127551Y0287826D02*
X0109364Y0287826D01*
X0109941Y0288825D02*
X0127881Y0288825D01*
X0127614Y0289823D02*
X0110517Y0289823D01*
X0111093Y0290822D02*
X0126326Y0290822D01*
X0125327Y0291820D02*
X0111670Y0291820D01*
X0112246Y0292819D02*
X0125006Y0292819D01*
X0123859Y0293817D02*
X0112823Y0293817D01*
X0113399Y0294816D02*
X0122130Y0294816D01*
X0120400Y0295814D02*
X0113976Y0295814D01*
X0114552Y0296813D02*
X0118671Y0296813D01*
X0116941Y0297811D02*
X0115129Y0297811D01*
X0115705Y0298810D02*
X0115923Y0298810D01*
X0122578Y0298714D02*
X0126377Y0296520D01*
X0127296Y0293090D01*
X0136083Y0299404D02*
X0135113Y0303024D01*
X0132510Y0304526D01*
X0127578Y0307374D01*
X0132578Y0316034D02*
X0139149Y0312241D01*
X0139153Y0312226D01*
X0140831Y0313787D02*
X0142464Y0313787D01*
X0141887Y0312789D02*
X0141443Y0312789D01*
X0143040Y0314786D02*
X0138901Y0314786D01*
X0139274Y0315784D02*
X0143617Y0315784D01*
X0144193Y0316783D02*
X0138481Y0316783D01*
X0136752Y0317781D02*
X0144769Y0317781D01*
X0144509Y0317330D02*
X0144509Y0317330D01*
X0145346Y0318780D02*
X0135022Y0318780D01*
X0133293Y0319778D02*
X0145922Y0319778D01*
X0146499Y0320777D02*
X0131564Y0320777D01*
X0129834Y0321775D02*
X0147075Y0321775D01*
X0147652Y0322774D02*
X0129541Y0322774D01*
X0129265Y0321775D02*
X0128965Y0321775D01*
X0130118Y0323772D02*
X0148228Y0323772D01*
X0148805Y0324771D02*
X0130694Y0324771D01*
X0131271Y0325769D02*
X0149381Y0325769D01*
X0149958Y0326768D02*
X0131847Y0326768D01*
X0132424Y0327766D02*
X0150534Y0327766D01*
X0151111Y0328765D02*
X0133000Y0328765D01*
X0133577Y0329764D02*
X0151687Y0329764D01*
X0152264Y0330762D02*
X0134153Y0330762D01*
X0134730Y0331761D02*
X0152840Y0331761D01*
X0153417Y0332759D02*
X0135306Y0332759D01*
X0135883Y0333758D02*
X0153993Y0333758D01*
X0154570Y0334756D02*
X0136459Y0334756D01*
X0137036Y0335755D02*
X0155146Y0335755D01*
X0155723Y0336753D02*
X0137612Y0336753D01*
X0138189Y0337752D02*
X0156299Y0337752D01*
X0156876Y0338750D02*
X0138765Y0338750D01*
X0139342Y0339749D02*
X0157452Y0339749D01*
X0158029Y0340747D02*
X0139918Y0340747D01*
X0140495Y0341746D02*
X0158605Y0341746D01*
X0159182Y0342744D02*
X0141071Y0342744D01*
X0141647Y0343743D02*
X0159758Y0343743D01*
X0160335Y0344741D02*
X0142224Y0344741D01*
X0142800Y0345740D02*
X0160911Y0345740D01*
X0161488Y0346738D02*
X0143377Y0346738D01*
X0143953Y0347737D02*
X0162064Y0347737D01*
X0162641Y0348735D02*
X0144530Y0348735D01*
X0145106Y0349734D02*
X0163217Y0349734D01*
X0163794Y0350732D02*
X0145683Y0350732D01*
X0146259Y0351731D02*
X0164370Y0351731D01*
X0164947Y0352729D02*
X0146836Y0352729D01*
X0153177Y0363713D02*
X0211152Y0363713D01*
X0211152Y0364711D02*
X0153754Y0364711D01*
X0154330Y0365710D02*
X0211152Y0365710D01*
X0211152Y0366708D02*
X0154907Y0366708D01*
X0155483Y0367707D02*
X0211152Y0367707D01*
X0211297Y0368705D02*
X0156060Y0368705D01*
X0167526Y0350065D02*
X0167357Y0349773D01*
X0170226Y0343743D02*
X0221563Y0343743D01*
X0221563Y0342744D02*
X0169650Y0342744D01*
X0169073Y0341746D02*
X0221563Y0341746D01*
X0219555Y0340747D02*
X0218881Y0340747D01*
X0218881Y0341744D02*
X0217347Y0341744D01*
X0216966Y0341642D01*
X0216624Y0341444D01*
X0216345Y0341165D01*
X0216147Y0340823D01*
X0216045Y0340441D01*
X0216045Y0336250D01*
X0218881Y0336250D01*
X0218881Y0341744D01*
X0218881Y0339749D02*
X0219555Y0339749D01*
X0219555Y0338750D02*
X0218881Y0338750D01*
X0218881Y0337752D02*
X0219555Y0337752D01*
X0219555Y0336753D02*
X0218881Y0336753D01*
X0218881Y0335755D02*
X0165614Y0335755D01*
X0166191Y0336753D02*
X0216045Y0336753D01*
X0216045Y0337752D02*
X0166767Y0337752D01*
X0167344Y0338750D02*
X0216045Y0338750D01*
X0216045Y0339749D02*
X0167920Y0339749D01*
X0168497Y0340747D02*
X0216127Y0340747D01*
X0216045Y0334756D02*
X0165038Y0334756D01*
X0164461Y0333758D02*
X0216045Y0333758D01*
X0216045Y0332759D02*
X0163885Y0332759D01*
X0163308Y0331761D02*
X0216045Y0331761D01*
X0216286Y0330762D02*
X0162732Y0330762D01*
X0162155Y0329764D02*
X0220494Y0329764D01*
X0220494Y0328765D02*
X0161579Y0328765D01*
X0161002Y0327766D02*
X0220494Y0327766D01*
X0220494Y0326768D02*
X0160426Y0326768D01*
X0159850Y0325769D02*
X0220494Y0325769D01*
X0220494Y0324771D02*
X0159273Y0324771D01*
X0158697Y0323772D02*
X0220494Y0323772D01*
X0220494Y0322774D02*
X0158120Y0322774D01*
X0157544Y0321775D02*
X0219301Y0321775D01*
X0220438Y0322602D02*
X0220438Y0322602D01*
X0218104Y0320905D02*
X0218104Y0320905D01*
X0218104Y0320905D01*
X0218010Y0320777D02*
X0156967Y0320777D01*
X0156391Y0319778D02*
X0217285Y0319778D01*
X0216559Y0318780D02*
X0155814Y0318780D01*
X0155238Y0317781D02*
X0216151Y0317781D01*
X0216408Y0318571D02*
X0216408Y0318571D01*
X0215827Y0316783D02*
X0154661Y0316783D01*
X0154085Y0315784D02*
X0215516Y0315784D01*
X0215516Y0314786D02*
X0153508Y0314786D01*
X0152932Y0313787D02*
X0215516Y0313787D01*
X0215516Y0312789D02*
X0152355Y0312789D01*
X0151779Y0311790D02*
X0215516Y0311790D01*
X0215187Y0310792D02*
X0214187Y0310792D01*
X0214187Y0309793D02*
X0215187Y0309793D01*
X0215187Y0308795D02*
X0214187Y0308795D01*
X0214187Y0307796D02*
X0215187Y0307796D01*
X0214187Y0306798D02*
X0210187Y0306798D01*
X0210187Y0305799D02*
X0209187Y0305799D01*
X0209187Y0304801D02*
X0210187Y0304801D01*
X0210187Y0303802D02*
X0209187Y0303802D01*
X0209187Y0302804D02*
X0210187Y0302804D01*
X0206484Y0302804D02*
X0194187Y0302804D01*
X0194187Y0303802D02*
X0206187Y0303802D01*
X0206187Y0304801D02*
X0193727Y0304801D01*
X0214187Y0304801D02*
X0215187Y0304801D01*
X0215187Y0305799D02*
X0214187Y0305799D01*
X0214187Y0303802D02*
X0215187Y0303802D01*
X0215187Y0302804D02*
X0214187Y0302804D01*
X0224187Y0302804D02*
X0225187Y0302804D01*
X0225187Y0303802D02*
X0224187Y0303802D01*
X0224187Y0304801D02*
X0225187Y0304801D01*
X0225187Y0305799D02*
X0224187Y0305799D01*
X0224187Y0307796D02*
X0225187Y0307796D01*
X0225187Y0308795D02*
X0224187Y0308795D01*
X0224187Y0309793D02*
X0225187Y0309793D01*
X0225187Y0310792D02*
X0224187Y0310792D01*
X0223779Y0311790D02*
X0297705Y0311790D01*
X0298279Y0310792D02*
X0242736Y0310792D01*
X0243187Y0309793D02*
X0298854Y0309793D01*
X0299428Y0308795D02*
X0243187Y0308795D01*
X0235187Y0305799D02*
X0234187Y0305799D01*
X0234187Y0304801D02*
X0235187Y0304801D01*
X0235187Y0303802D02*
X0234187Y0303802D01*
X0234187Y0302804D02*
X0235187Y0302804D01*
X0223779Y0312789D02*
X0297131Y0312789D01*
X0296557Y0313787D02*
X0223779Y0313787D01*
X0223884Y0314786D02*
X0295982Y0314786D01*
X0295408Y0315784D02*
X0226846Y0315784D01*
X0227889Y0316783D02*
X0294834Y0316783D01*
X0294259Y0317781D02*
X0228725Y0317781D01*
X0228757Y0318780D02*
X0293685Y0318780D01*
X0293111Y0319778D02*
X0228757Y0319778D01*
X0228757Y0320777D02*
X0292537Y0320777D01*
X0291962Y0321775D02*
X0228757Y0321775D01*
X0228757Y0322774D02*
X0291388Y0322774D01*
X0290814Y0323772D02*
X0228757Y0323772D01*
X0228757Y0324771D02*
X0290240Y0324771D01*
X0289665Y0325769D02*
X0228757Y0325769D01*
X0228757Y0326768D02*
X0289091Y0326768D01*
X0288517Y0327766D02*
X0228757Y0327766D01*
X0228757Y0328765D02*
X0287942Y0328765D01*
X0287368Y0329764D02*
X0228763Y0329764D01*
X0229708Y0330762D02*
X0230381Y0330762D01*
X0230381Y0331761D02*
X0229708Y0331761D01*
X0229708Y0332759D02*
X0230381Y0332759D01*
X0230381Y0333758D02*
X0229708Y0333758D01*
X0229708Y0334756D02*
X0230381Y0334756D01*
X0230382Y0335755D02*
X0283923Y0335755D01*
X0283348Y0336753D02*
X0233218Y0336753D01*
X0233218Y0337752D02*
X0282774Y0337752D01*
X0282200Y0338750D02*
X0233218Y0338750D01*
X0233218Y0339749D02*
X0281626Y0339749D01*
X0281051Y0340747D02*
X0233136Y0340747D01*
X0230381Y0340747D02*
X0229708Y0340747D01*
X0229708Y0339749D02*
X0230381Y0339749D01*
X0230381Y0338750D02*
X0229708Y0338750D01*
X0229708Y0337752D02*
X0230381Y0337752D01*
X0230381Y0336753D02*
X0229708Y0336753D01*
X0229708Y0335755D02*
X0219555Y0335755D01*
X0219555Y0334756D02*
X0218881Y0334756D01*
X0218881Y0333758D02*
X0219555Y0333758D01*
X0219555Y0332759D02*
X0218881Y0332759D01*
X0218881Y0331761D02*
X0219555Y0331761D01*
X0219555Y0330762D02*
X0218881Y0330762D01*
X0222391Y0333758D02*
X0223126Y0333758D01*
X0222391Y0334756D02*
X0226872Y0334756D01*
X0226872Y0333758D02*
X0226137Y0333758D01*
X0226872Y0336753D02*
X0222391Y0336753D01*
X0222391Y0337752D02*
X0226872Y0337752D01*
X0226872Y0338750D02*
X0222391Y0338750D01*
X0227700Y0341746D02*
X0280477Y0341746D01*
X0279903Y0342744D02*
X0236909Y0342744D01*
X0237908Y0343743D02*
X0279328Y0343743D01*
X0287348Y0347737D02*
X0305414Y0347737D01*
X0304834Y0348735D02*
X0286770Y0348735D01*
X0286192Y0349734D02*
X0304254Y0349734D01*
X0303674Y0350732D02*
X0285614Y0350732D01*
X0285037Y0351731D02*
X0303094Y0351731D01*
X0302514Y0352729D02*
X0284571Y0352729D01*
X0284626Y0352674D02*
X0284305Y0352994D01*
X0284079Y0353386D01*
X0283853Y0353447D01*
X0283688Y0353611D01*
X0283236Y0353611D01*
X0282798Y0353728D01*
X0282596Y0353611D01*
X0235853Y0353611D01*
X0237011Y0354769D01*
X0237011Y0356667D01*
X0236673Y0357005D01*
X0237707Y0357005D01*
X0238352Y0357649D01*
X0238352Y0368560D01*
X0237843Y0369070D01*
X0293107Y0368921D01*
X0320903Y0321074D01*
X0320217Y0321258D01*
X0311221Y0316064D01*
X0311124Y0316162D01*
X0309226Y0316162D01*
X0308184Y0315119D01*
X0307912Y0315591D01*
X0307891Y0315627D01*
X0306610Y0315970D01*
X0305568Y0316249D01*
X0284626Y0352441D01*
X0284626Y0352674D01*
X0282800Y0353728D02*
X0301933Y0353728D01*
X0301353Y0354726D02*
X0236968Y0354726D01*
X0237011Y0355725D02*
X0300773Y0355725D01*
X0300193Y0356723D02*
X0236955Y0356723D01*
X0238352Y0357722D02*
X0299613Y0357722D01*
X0299033Y0358720D02*
X0238352Y0358720D01*
X0238352Y0359719D02*
X0298453Y0359719D01*
X0297873Y0360717D02*
X0238352Y0360717D01*
X0238352Y0361716D02*
X0297293Y0361716D01*
X0296713Y0362714D02*
X0238352Y0362714D01*
X0238352Y0363713D02*
X0296133Y0363713D01*
X0295553Y0364711D02*
X0238352Y0364711D01*
X0238352Y0365710D02*
X0294973Y0365710D01*
X0294392Y0366708D02*
X0238352Y0366708D01*
X0238352Y0367707D02*
X0293812Y0367707D01*
X0293232Y0368705D02*
X0238207Y0368705D01*
X0234752Y0363105D02*
X0234752Y0355750D01*
X0234720Y0355718D01*
X0235969Y0353728D02*
X0282797Y0353728D01*
X0287926Y0346738D02*
X0305994Y0346738D01*
X0306574Y0345740D02*
X0288503Y0345740D01*
X0289081Y0344741D02*
X0307154Y0344741D01*
X0307734Y0343743D02*
X0289659Y0343743D01*
X0290237Y0342744D02*
X0308314Y0342744D01*
X0308894Y0341746D02*
X0290815Y0341746D01*
X0291392Y0340747D02*
X0309474Y0340747D01*
X0310055Y0339749D02*
X0291970Y0339749D01*
X0292548Y0338750D02*
X0310635Y0338750D01*
X0311215Y0337752D02*
X0293126Y0337752D01*
X0293703Y0336753D02*
X0311795Y0336753D01*
X0312375Y0335755D02*
X0294281Y0335755D01*
X0294859Y0334756D02*
X0312955Y0334756D01*
X0313535Y0333758D02*
X0295437Y0333758D01*
X0296015Y0332759D02*
X0314115Y0332759D01*
X0314695Y0331761D02*
X0296592Y0331761D01*
X0297170Y0330762D02*
X0315275Y0330762D01*
X0315855Y0329764D02*
X0297748Y0329764D01*
X0298326Y0328765D02*
X0316435Y0328765D01*
X0317015Y0327766D02*
X0298903Y0327766D01*
X0299481Y0326768D02*
X0317596Y0326768D01*
X0318176Y0325769D02*
X0300059Y0325769D01*
X0300637Y0324771D02*
X0318756Y0324771D01*
X0319336Y0323772D02*
X0301215Y0323772D01*
X0301792Y0322774D02*
X0319916Y0322774D01*
X0320496Y0321775D02*
X0302370Y0321775D01*
X0302948Y0320777D02*
X0319384Y0320777D01*
X0317655Y0319778D02*
X0303526Y0319778D01*
X0304103Y0318780D02*
X0315925Y0318780D01*
X0314196Y0317781D02*
X0304681Y0317781D01*
X0305259Y0316783D02*
X0312466Y0316783D01*
X0308849Y0315784D02*
X0307304Y0315784D01*
X0306610Y0315970D02*
X0306610Y0315970D01*
X0286794Y0330762D02*
X0232976Y0330762D01*
X0233218Y0331761D02*
X0286220Y0331761D01*
X0285645Y0332759D02*
X0233218Y0332759D01*
X0233218Y0333758D02*
X0285071Y0333758D01*
X0284497Y0334756D02*
X0233218Y0334756D01*
X0230755Y0342744D02*
X0227700Y0342744D01*
X0227700Y0343743D02*
X0230033Y0343743D01*
X0221152Y0363713D02*
X0218352Y0363713D01*
X0218352Y0364711D02*
X0221152Y0364711D01*
X0221152Y0365710D02*
X0218352Y0365710D01*
X0218352Y0366708D02*
X0221152Y0366708D01*
X0221152Y0367707D02*
X0218352Y0367707D01*
X0218207Y0368705D02*
X0221297Y0368705D01*
X0179674Y0276842D02*
X0178674Y0276842D01*
X0178674Y0275844D02*
X0179674Y0275844D01*
X0183627Y0272848D02*
X0185587Y0272848D01*
X0185587Y0271850D02*
X0183627Y0271850D01*
X0183627Y0270851D02*
X0185587Y0270851D01*
X0185587Y0269853D02*
X0183258Y0269853D01*
X0183637Y0268854D02*
X0185587Y0268854D01*
X0185587Y0267856D02*
X0184635Y0267856D01*
X0193881Y0264860D02*
X0198866Y0264860D01*
X0197867Y0263862D02*
X0194150Y0263862D01*
X0194862Y0262863D02*
X0196869Y0262863D01*
X0195941Y0261865D02*
X0195860Y0261865D01*
X0200484Y0261865D02*
X0201484Y0261865D01*
X0201484Y0262863D02*
X0200484Y0262863D01*
X0200484Y0263862D02*
X0201484Y0263862D01*
X0201484Y0264860D02*
X0200484Y0264860D01*
X0200484Y0260866D02*
X0201484Y0260866D01*
X0196341Y0239897D02*
X0194187Y0239897D01*
X0193946Y0238899D02*
X0194808Y0238899D01*
X0194479Y0234905D02*
X0193787Y0234905D01*
X0193787Y0233906D02*
X0194916Y0233906D01*
X0196883Y0233906D02*
X0199884Y0233906D01*
X0199391Y0232908D02*
X0197882Y0232908D01*
X0198200Y0231909D02*
X0198993Y0231909D01*
X0198993Y0230911D02*
X0198200Y0230911D01*
X0197427Y0229912D02*
X0199694Y0229912D01*
X0200648Y0234905D02*
X0197320Y0234905D01*
X0198200Y0235903D02*
X0198675Y0235903D01*
X0180524Y0183981D02*
X0180496Y0183981D01*
X0180524Y0182982D02*
X0178093Y0182982D01*
X0177011Y0181984D02*
X0180524Y0181984D01*
X0180524Y0180985D02*
X0175928Y0180985D01*
X0174846Y0179987D02*
X0180524Y0179987D01*
X0182724Y0178988D02*
X0173764Y0178988D01*
X0172681Y0177990D02*
X0182724Y0177990D01*
X0182724Y0176991D02*
X0171599Y0176991D01*
X0170517Y0175993D02*
X0182724Y0175993D01*
X0181727Y0174994D02*
X0169435Y0174994D01*
X0168352Y0173996D02*
X0180728Y0173996D01*
X0179730Y0172997D02*
X0167270Y0172997D01*
X0166188Y0171999D02*
X0177458Y0171999D01*
X0176624Y0171000D02*
X0165105Y0171000D01*
X0164974Y0170002D02*
X0176624Y0170002D01*
X0176880Y0169003D02*
X0164768Y0169003D01*
X0163770Y0168005D02*
X0177878Y0168005D01*
X0179970Y0168005D02*
X0181928Y0168005D01*
X0184120Y0168005D02*
X0186428Y0168005D01*
X0185430Y0169003D02*
X0185118Y0169003D01*
X0172616Y0153027D02*
X0152642Y0153027D01*
X0150506Y0153027D02*
X0148742Y0153027D01*
X0160474Y0168005D02*
X0161578Y0168005D01*
X0160580Y0169003D02*
X0160474Y0169003D01*
X0154074Y0183981D02*
X0149445Y0183981D01*
X0150430Y0184979D02*
X0154074Y0184979D01*
X0131934Y0213986D02*
X0130648Y0216209D01*
X0195173Y0143042D02*
X0196142Y0143042D01*
X0196142Y0142043D02*
X0195173Y0142043D01*
X0195173Y0141045D02*
X0196142Y0141045D01*
X0196142Y0140046D02*
X0195173Y0140046D01*
X0195173Y0139048D02*
X0196142Y0139048D01*
X0196142Y0137051D02*
X0195173Y0137051D01*
X0195173Y0136052D02*
X0196142Y0136052D01*
X0196142Y0135054D02*
X0195173Y0135054D01*
X0195173Y0134055D02*
X0196142Y0134055D01*
X0200401Y0134055D02*
X0211797Y0134055D01*
X0211797Y0135054D02*
X0200658Y0135054D01*
X0200658Y0136052D02*
X0211797Y0136052D01*
X0215397Y0139064D02*
X0215397Y0145876D01*
X0218023Y0148503D01*
X0220423Y0148503D01*
X0221797Y0138049D02*
X0218997Y0138049D01*
X0218997Y0137051D02*
X0221797Y0137051D01*
X0221797Y0136052D02*
X0218997Y0136052D01*
X0218997Y0135054D02*
X0221797Y0135054D01*
X0221797Y0134055D02*
X0218997Y0134055D01*
X0337498Y0249895D02*
X0337506Y0249922D01*
D31*
X0348506Y0259334D03*
X0320742Y0294568D03*
X0313285Y0290274D03*
X0309670Y0291535D03*
X0292717Y0300204D03*
X0304875Y0311850D03*
X0310175Y0313871D03*
X0308052Y0331765D03*
X0282256Y0361834D03*
X0263534Y0327157D03*
X0235734Y0332207D03*
X0235734Y0335957D03*
X0235734Y0339707D03*
X0232520Y0344218D03*
X0234820Y0346918D03*
X0234720Y0355718D03*
X0239734Y0359807D03*
X0219734Y0359807D03*
X0211120Y0356318D03*
X0204920Y0351518D03*
X0203234Y0359707D03*
X0203234Y0339707D03*
X0203234Y0335957D03*
X0203234Y0332207D03*
X0203234Y0327207D03*
X0203234Y0322207D03*
X0213634Y0313307D03*
X0213934Y0317007D03*
X0215534Y0320207D03*
X0218134Y0323007D03*
X0217934Y0326807D03*
X0213234Y0332207D03*
X0213234Y0335957D03*
X0213234Y0339707D03*
X0230734Y0327207D03*
X0230834Y0323507D03*
X0230834Y0319757D03*
X0230834Y0316007D03*
X0225934Y0313107D03*
X0178506Y0360584D03*
X0139153Y0312226D03*
X0146619Y0307985D03*
X0147377Y0303898D03*
X0150940Y0301666D03*
X0147211Y0294879D03*
X0152024Y0292215D03*
X0156787Y0289465D03*
X0131923Y0290304D03*
X0127296Y0293090D03*
X0110459Y0225223D03*
X0131897Y0203663D03*
X0138271Y0209422D03*
X0138850Y0213220D03*
X0140502Y0205387D03*
X0145165Y0197638D03*
X0148065Y0191638D03*
X0148139Y0185914D03*
X0142054Y0185498D03*
X0136877Y0194865D03*
X0150758Y0204737D03*
X0146006Y0169334D03*
X0140006Y0168984D03*
X0166256Y0170234D03*
X0210406Y0152734D03*
X0220423Y0148503D03*
X0225397Y0148703D03*
X0230023Y0151403D03*
X0238923Y0147903D03*
X0242723Y0146103D03*
X0243956Y0139034D03*
X0240323Y0139003D03*
X0220156Y0139134D03*
X0242456Y0162834D03*
X0255856Y0158334D03*
X0276347Y0163824D03*
X0286215Y0175451D03*
X0274048Y0185243D03*
X0304295Y0193656D03*
X0303307Y0197344D03*
X0302143Y0201231D03*
X0305020Y0206614D03*
X0311212Y0189869D03*
X0322972Y0209637D03*
X0321325Y0215785D03*
X0332341Y0213934D03*
X0303506Y0161834D03*
X0236023Y0181303D03*
X0226356Y0173134D03*
X0201284Y0231561D03*
X0201684Y0246061D03*
X0214484Y0239661D03*
X0237384Y0240061D03*
D32*
X0233100Y0239513D02*
X0228725Y0243887D01*
X0228725Y0260063D01*
X0240300Y0271637D01*
X0259606Y0271637D01*
X0259687Y0271719D01*
X0259769Y0271637D01*
X0268700Y0271637D01*
X0269875Y0272813D01*
X0269875Y0275067D01*
X0269835Y0281719D02*
X0269875Y0281760D01*
X0269835Y0281719D02*
X0259687Y0281719D01*
X0233100Y0239513D02*
X0233100Y0226637D01*
X0233125Y0226612D02*
X0230000Y0223486D01*
X0230000Y0206487D01*
X0220174Y0179262D02*
X0220174Y0179262D01*
X0220174Y0160212D01*
X0220174Y0158552D01*
X0227323Y0151403D01*
X0230023Y0151403D01*
X0265948Y0198137D02*
X0266824Y0198962D01*
X0279865Y0178924D02*
X0279814Y0162883D01*
X0282677Y0161181D01*
X0190019Y0261387D02*
X0189687Y0261719D01*
X0189287Y0261897D02*
X0182789Y0261897D01*
X0182744Y0261872D02*
X0183109Y0262082D01*
X0183407Y0262380D01*
X0183618Y0262745D01*
X0183727Y0263152D01*
X0183727Y0265322D01*
X0179774Y0265322D01*
X0179774Y0266522D01*
X0183565Y0266522D01*
X0185399Y0264688D01*
X0185196Y0264336D01*
X0185087Y0263929D01*
X0185087Y0262119D01*
X0189287Y0262119D01*
X0189287Y0261319D01*
X0185087Y0261319D01*
X0185087Y0259508D01*
X0185189Y0259127D01*
X0183700Y0257637D01*
X0183444Y0257637D01*
X0183444Y0257875D01*
X0180260Y0257875D01*
X0180260Y0258644D01*
X0183444Y0258644D01*
X0183444Y0260636D01*
X0183335Y0261042D01*
X0183124Y0261407D01*
X0182826Y0261705D01*
X0182603Y0261834D01*
X0182744Y0261872D01*
X0183427Y0260699D02*
X0185087Y0260699D01*
X0185089Y0259500D02*
X0183444Y0259500D01*
X0184364Y0258302D02*
X0180260Y0258302D01*
X0180260Y0258644D02*
X0179491Y0258644D01*
X0179491Y0262025D01*
X0178574Y0262025D01*
X0178574Y0265322D01*
X0179774Y0265322D01*
X0179774Y0261763D01*
X0180260Y0261763D01*
X0180260Y0258644D01*
X0180260Y0259500D02*
X0179491Y0259500D01*
X0179491Y0260699D02*
X0180260Y0260699D01*
X0179774Y0261897D02*
X0179491Y0261897D01*
X0179774Y0263096D02*
X0178574Y0263096D01*
X0178574Y0264295D02*
X0179774Y0264295D01*
X0179875Y0265220D02*
X0179174Y0265922D01*
X0179774Y0265493D02*
X0184594Y0265493D01*
X0185185Y0264295D02*
X0183727Y0264295D01*
X0183712Y0263096D02*
X0185087Y0263096D01*
X0153424Y0202562D02*
X0155774Y0200212D01*
X0155774Y0181662D01*
X0155874Y0181662D02*
X0156574Y0180962D01*
X0156574Y0171362D01*
X0154774Y0169562D01*
X0154774Y0168212D01*
X0154074Y0172762D02*
X0147674Y0166362D01*
X0147674Y0155212D01*
D33*
X0151574Y0155212D02*
X0151574Y0161612D01*
X0158174Y0168212D01*
X0162674Y0170162D02*
X0162674Y0170662D01*
X0178824Y0185562D01*
X0184124Y0185562D01*
X0184124Y0181562D02*
X0184124Y0175412D01*
X0178924Y0170212D01*
X0183024Y0170162D02*
X0193024Y0180162D01*
X0203274Y0180162D01*
X0203274Y0176762D02*
X0193924Y0176762D01*
X0187524Y0170362D01*
X0187524Y0170162D01*
X0198924Y0187962D02*
X0214174Y0187962D01*
X0218824Y0192612D01*
X0218724Y0196112D02*
X0211974Y0189362D01*
X0199624Y0189362D01*
X0196524Y0192462D01*
X0174024Y0192462D01*
X0172624Y0193862D01*
X0172624Y0202162D01*
X0173300Y0204737D02*
X0150758Y0204737D01*
X0167724Y0202262D02*
X0167724Y0193662D01*
X0170424Y0190962D01*
X0195924Y0190962D01*
X0198924Y0187962D01*
X0207800Y0205337D02*
X0207800Y0211137D01*
X0204300Y0214637D01*
X0217450Y0206687D02*
X0217900Y0206237D01*
X0217450Y0206687D02*
X0217450Y0261387D01*
X0217450Y0270927D01*
X0219584Y0273061D01*
X0229123Y0273061D01*
X0237781Y0281719D01*
X0259687Y0281719D01*
X0224606Y0277563D02*
X0224604Y0277561D01*
X0219284Y0277561D01*
X0216184Y0274461D01*
X0216184Y0241461D01*
X0214484Y0239761D01*
X0214484Y0239661D01*
X0205784Y0238061D02*
X0205784Y0241961D01*
X0201684Y0246061D01*
X0202258Y0251387D02*
X0195484Y0258161D01*
X0195484Y0260261D01*
X0194084Y0261661D01*
X0189745Y0261661D01*
X0189687Y0261719D01*
X0202258Y0251387D02*
X0209950Y0251387D01*
X0205784Y0238061D02*
X0201284Y0233561D01*
X0201284Y0231561D01*
X0195900Y0231637D02*
X0189769Y0231637D01*
X0189687Y0231719D01*
X0189687Y0236719D02*
X0189706Y0236737D01*
X0195900Y0236737D01*
X0220900Y0206237D02*
X0217300Y0202637D01*
X0175400Y0202637D01*
X0173300Y0204737D01*
X0220900Y0206237D02*
X0222900Y0206237D01*
X0225350Y0195537D02*
X0224950Y0195137D01*
X0225350Y0195537D02*
X0226100Y0195537D01*
X0226100Y0190937D02*
X0224400Y0189287D01*
X0226100Y0190937D02*
X0227600Y0190937D01*
X0236400Y0199737D01*
X0243500Y0199737D01*
X0245600Y0201837D01*
X0248200Y0205337D02*
X0248200Y0217137D01*
X0239800Y0225537D01*
X0237384Y0240061D02*
X0237484Y0240161D01*
X0248228Y0240161D01*
X0273000Y0206837D02*
X0268100Y0201937D01*
X0250700Y0201937D01*
X0233923Y0183403D02*
X0230923Y0183403D01*
X0230458Y0182937D01*
X0225200Y0182937D01*
X0228400Y0176637D02*
X0228400Y0174237D01*
X0232300Y0170337D01*
X0241300Y0170337D01*
X0244000Y0167637D01*
X0236023Y0181303D02*
X0233923Y0183403D01*
X0242723Y0146103D02*
X0240323Y0143703D01*
X0240323Y0139003D01*
X0289725Y0198962D02*
X0290624Y0198962D01*
X0295000Y0203337D01*
X0307969Y0194937D02*
X0307969Y0194864D01*
X0307988Y0194845D01*
X0313040Y0312957D02*
X0310175Y0313871D01*
X0313040Y0312957D02*
X0317293Y0315412D01*
D34*
X0224625Y0319362D02*
X0224485Y0319360D01*
X0224346Y0319354D01*
X0224207Y0319344D01*
X0224068Y0319331D01*
X0223929Y0319313D01*
X0223791Y0319292D01*
X0223654Y0319266D01*
X0223517Y0319237D01*
X0223382Y0319204D01*
X0223247Y0319167D01*
X0223113Y0319127D01*
X0222981Y0319083D01*
X0222850Y0319035D01*
X0222720Y0318983D01*
X0222592Y0318928D01*
X0222465Y0318869D01*
X0222340Y0318807D01*
X0222217Y0318741D01*
X0222096Y0318672D01*
X0221977Y0318599D01*
X0221859Y0318523D01*
X0221744Y0318444D01*
X0221632Y0318361D01*
X0221521Y0318276D01*
X0221413Y0318187D01*
X0221308Y0318096D01*
X0221205Y0318001D01*
X0221105Y0317904D01*
X0221008Y0317804D01*
X0220913Y0317701D01*
X0220822Y0317596D01*
X0220733Y0317488D01*
X0220648Y0317377D01*
X0220565Y0317265D01*
X0220486Y0317150D01*
X0220410Y0317032D01*
X0220337Y0316913D01*
X0220268Y0316792D01*
X0220202Y0316669D01*
X0220140Y0316544D01*
X0220081Y0316417D01*
X0220026Y0316289D01*
X0219974Y0316159D01*
X0219926Y0316028D01*
X0219882Y0315896D01*
X0219842Y0315762D01*
X0219805Y0315627D01*
X0219772Y0315492D01*
X0219743Y0315355D01*
X0219717Y0315218D01*
X0219696Y0315080D01*
X0219678Y0314941D01*
X0219665Y0314802D01*
X0219655Y0314663D01*
X0219649Y0314524D01*
X0219647Y0314384D01*
X0219648Y0314384D02*
X0219648Y0312098D01*
X0224625Y0319362D02*
X0224625Y0329903D01*
X0224631Y0329909D01*
D35*
X0219648Y0312098D02*
X0219625Y0311076D01*
X0219625Y0306781D01*
X0219687Y0306719D01*
M02*
