G75*
%MOIN*%
%OFA0B0*%
%FSLAX25Y25*%
%IPPOS*%
%LPD*%
%AMOC8*
5,1,8,0,0,1.08239X$1,22.5*
%
%ADD10C,0.00000*%
%ADD11R,0.06306X0.05518*%
%ADD12R,0.04337X0.04731*%
%ADD13OC8,0.06400*%
%ADD14R,0.05400X0.10400*%
%ADD15R,0.10400X0.05400*%
%ADD16R,0.04731X0.04337*%
%ADD17R,0.05400X0.02900*%
%ADD18C,0.05400*%
%ADD19R,0.06400X0.04400*%
%ADD20R,0.04400X0.06400*%
%ADD21R,0.07400X0.07400*%
%ADD22C,0.05124*%
%ADD23R,0.03746X0.09061*%
%ADD24R,0.04337X0.04534*%
D10*
X0156177Y0131750D02*
X0294617Y0131378D01*
X0363514Y0250712D01*
X0293972Y0370419D01*
X0155532Y0370791D01*
X0086634Y0251457D01*
X0156177Y0131750D01*
D11*
X0179174Y0265922D03*
X0179174Y0273402D03*
D12*
X0179875Y0258260D03*
X0179875Y0251567D03*
D13*
X0224625Y0319362D03*
D14*
X0224752Y0363105D03*
X0234752Y0363105D03*
X0214752Y0363105D03*
X0215397Y0139064D03*
X0225397Y0139064D03*
X0235397Y0139064D03*
D15*
G36*
X0314417Y0191073D02*
X0323423Y0185874D01*
X0320723Y0181197D01*
X0311717Y0186396D01*
X0314417Y0191073D01*
G37*
G36*
X0319417Y0199733D02*
X0328423Y0194534D01*
X0325723Y0189857D01*
X0316717Y0195056D01*
X0319417Y0199733D01*
G37*
G36*
X0324417Y0208393D02*
X0333423Y0203194D01*
X0330723Y0198517D01*
X0321717Y0203716D01*
X0324417Y0208393D01*
G37*
G36*
X0321440Y0297831D02*
X0330446Y0303030D01*
X0333146Y0298353D01*
X0324140Y0293154D01*
X0321440Y0297831D01*
G37*
G36*
X0316440Y0306491D02*
X0325446Y0311690D01*
X0328146Y0307013D01*
X0319140Y0301814D01*
X0316440Y0306491D01*
G37*
G36*
X0311440Y0315151D02*
X0320446Y0320350D01*
X0323146Y0315673D01*
X0314140Y0310474D01*
X0311440Y0315151D01*
G37*
G36*
X0135731Y0311096D02*
X0126725Y0316295D01*
X0129425Y0320972D01*
X0138431Y0315773D01*
X0135731Y0311096D01*
G37*
G36*
X0130731Y0302436D02*
X0121725Y0307635D01*
X0124425Y0312312D01*
X0133431Y0307113D01*
X0130731Y0302436D01*
G37*
G36*
X0125731Y0293776D02*
X0116725Y0298975D01*
X0119425Y0303652D01*
X0128431Y0298453D01*
X0125731Y0293776D01*
G37*
G36*
X0128754Y0204275D02*
X0119748Y0199076D01*
X0117048Y0203753D01*
X0126054Y0208952D01*
X0128754Y0204275D01*
G37*
G36*
X0133754Y0195615D02*
X0124748Y0190416D01*
X0122048Y0195093D01*
X0131054Y0200292D01*
X0133754Y0195615D01*
G37*
G36*
X0138754Y0186954D02*
X0129748Y0181755D01*
X0127048Y0186432D01*
X0136054Y0191631D01*
X0138754Y0186954D01*
G37*
D16*
X0269875Y0275067D03*
X0269875Y0281760D03*
D17*
X0267791Y0190978D03*
X0267791Y0186978D03*
X0184124Y0185562D03*
X0184124Y0181562D03*
D18*
X0279725Y0178962D03*
X0279725Y0188962D03*
X0279725Y0198962D03*
X0279700Y0208887D03*
X0289700Y0208887D03*
X0289725Y0198962D03*
X0289725Y0188962D03*
X0289725Y0178962D03*
D19*
X0259687Y0206719D03*
X0259687Y0211719D03*
X0259687Y0216719D03*
X0259687Y0221719D03*
X0259687Y0226719D03*
X0259687Y0231719D03*
X0259687Y0236719D03*
X0259687Y0241719D03*
X0259687Y0246719D03*
X0259687Y0251719D03*
X0259687Y0256719D03*
X0259687Y0261719D03*
X0259687Y0266719D03*
X0259687Y0271719D03*
X0259687Y0276719D03*
X0259687Y0281719D03*
X0259687Y0286719D03*
X0259687Y0291719D03*
X0259687Y0296719D03*
X0259687Y0301719D03*
X0189687Y0301719D03*
X0189687Y0296719D03*
X0189687Y0291719D03*
X0189687Y0286719D03*
X0189687Y0281719D03*
X0189687Y0276719D03*
X0189687Y0271719D03*
X0189687Y0266719D03*
X0189687Y0261719D03*
X0189687Y0256719D03*
X0189687Y0251719D03*
X0189687Y0246719D03*
X0189687Y0241719D03*
X0189687Y0236719D03*
X0189687Y0231719D03*
X0189687Y0226719D03*
X0189687Y0221719D03*
X0189687Y0216719D03*
X0189687Y0211719D03*
X0189687Y0206719D03*
D20*
X0209687Y0306719D03*
X0214687Y0306719D03*
X0219687Y0306719D03*
X0224687Y0306719D03*
X0229687Y0306719D03*
X0234687Y0306719D03*
X0239687Y0306719D03*
D21*
X0195658Y0138402D03*
X0174201Y0138402D03*
D22*
X0175382Y0150331D03*
X0194477Y0150331D03*
D23*
X0219218Y0335913D03*
X0230045Y0335913D03*
D24*
X0224631Y0329909D03*
X0224631Y0341917D03*
M02*
