G75*
%MOIN*%
%OFA0B0*%
%FSLAX25Y25*%
%IPPOS*%
%LPD*%
%AMOC8*
5,1,8,0,0,1.08239X$1,22.5*
%
%ADD10C,0.00000*%
%ADD11R,0.03937X0.04331*%
%ADD12R,0.04331X0.03937*%
%ADD13R,0.02371X0.03551*%
%ADD14R,0.02367X0.01966*%
%ADD15R,0.02357X0.01963*%
%ADD16R,0.02357X0.01977*%
%ADD17R,0.02756X0.03937*%
%ADD18R,0.02756X0.02362*%
%ADD19R,0.04724X0.03150*%
%ADD20R,0.05000X0.10000*%
%ADD21R,0.10000X0.05000*%
%ADD22R,0.02756X0.02953*%
%ADD23R,0.03150X0.03150*%
%ADD24R,0.03543X0.03150*%
%ADD25R,0.04724X0.02165*%
%ADD26R,0.03350X0.01400*%
%ADD27R,0.05906X0.01102*%
%ADD28R,0.01102X0.05906*%
%ADD29R,0.01575X0.07087*%
%ADD30R,0.06693X0.02500*%
%ADD31R,0.07087X0.03937*%
%ADD32R,0.07972X0.05020*%
%ADD33R,0.05512X0.06299*%
D10*
X0156177Y0131750D02*
X0294617Y0131378D01*
X0363514Y0250712D01*
X0293972Y0370419D01*
X0155532Y0370791D01*
X0086634Y0251457D01*
X0156177Y0131750D01*
X0221063Y0232287D02*
X0221065Y0232405D01*
X0221071Y0232524D01*
X0221081Y0232642D01*
X0221095Y0232759D01*
X0221112Y0232876D01*
X0221134Y0232993D01*
X0221160Y0233108D01*
X0221189Y0233223D01*
X0221222Y0233337D01*
X0221259Y0233449D01*
X0221300Y0233560D01*
X0221344Y0233670D01*
X0221392Y0233778D01*
X0221444Y0233885D01*
X0221499Y0233990D01*
X0221558Y0234093D01*
X0221620Y0234193D01*
X0221685Y0234292D01*
X0221754Y0234389D01*
X0221825Y0234483D01*
X0221900Y0234574D01*
X0221978Y0234664D01*
X0222059Y0234750D01*
X0222143Y0234834D01*
X0222229Y0234915D01*
X0222319Y0234993D01*
X0222410Y0235068D01*
X0222504Y0235139D01*
X0222601Y0235208D01*
X0222700Y0235273D01*
X0222800Y0235335D01*
X0222903Y0235394D01*
X0223008Y0235449D01*
X0223115Y0235501D01*
X0223223Y0235549D01*
X0223333Y0235593D01*
X0223444Y0235634D01*
X0223556Y0235671D01*
X0223670Y0235704D01*
X0223785Y0235733D01*
X0223900Y0235759D01*
X0224017Y0235781D01*
X0224134Y0235798D01*
X0224251Y0235812D01*
X0224369Y0235822D01*
X0224488Y0235828D01*
X0224606Y0235830D01*
X0224724Y0235828D01*
X0224843Y0235822D01*
X0224961Y0235812D01*
X0225078Y0235798D01*
X0225195Y0235781D01*
X0225312Y0235759D01*
X0225427Y0235733D01*
X0225542Y0235704D01*
X0225656Y0235671D01*
X0225768Y0235634D01*
X0225879Y0235593D01*
X0225989Y0235549D01*
X0226097Y0235501D01*
X0226204Y0235449D01*
X0226309Y0235394D01*
X0226412Y0235335D01*
X0226512Y0235273D01*
X0226611Y0235208D01*
X0226708Y0235139D01*
X0226802Y0235068D01*
X0226893Y0234993D01*
X0226983Y0234915D01*
X0227069Y0234834D01*
X0227153Y0234750D01*
X0227234Y0234664D01*
X0227312Y0234574D01*
X0227387Y0234483D01*
X0227458Y0234389D01*
X0227527Y0234292D01*
X0227592Y0234193D01*
X0227654Y0234093D01*
X0227713Y0233990D01*
X0227768Y0233885D01*
X0227820Y0233778D01*
X0227868Y0233670D01*
X0227912Y0233560D01*
X0227953Y0233449D01*
X0227990Y0233337D01*
X0228023Y0233223D01*
X0228052Y0233108D01*
X0228078Y0232993D01*
X0228100Y0232876D01*
X0228117Y0232759D01*
X0228131Y0232642D01*
X0228141Y0232524D01*
X0228147Y0232405D01*
X0228149Y0232287D01*
X0228147Y0232169D01*
X0228141Y0232050D01*
X0228131Y0231932D01*
X0228117Y0231815D01*
X0228100Y0231698D01*
X0228078Y0231581D01*
X0228052Y0231466D01*
X0228023Y0231351D01*
X0227990Y0231237D01*
X0227953Y0231125D01*
X0227912Y0231014D01*
X0227868Y0230904D01*
X0227820Y0230796D01*
X0227768Y0230689D01*
X0227713Y0230584D01*
X0227654Y0230481D01*
X0227592Y0230381D01*
X0227527Y0230282D01*
X0227458Y0230185D01*
X0227387Y0230091D01*
X0227312Y0230000D01*
X0227234Y0229910D01*
X0227153Y0229824D01*
X0227069Y0229740D01*
X0226983Y0229659D01*
X0226893Y0229581D01*
X0226802Y0229506D01*
X0226708Y0229435D01*
X0226611Y0229366D01*
X0226512Y0229301D01*
X0226412Y0229239D01*
X0226309Y0229180D01*
X0226204Y0229125D01*
X0226097Y0229073D01*
X0225989Y0229025D01*
X0225879Y0228981D01*
X0225768Y0228940D01*
X0225656Y0228903D01*
X0225542Y0228870D01*
X0225427Y0228841D01*
X0225312Y0228815D01*
X0225195Y0228793D01*
X0225078Y0228776D01*
X0224961Y0228762D01*
X0224843Y0228752D01*
X0224724Y0228746D01*
X0224606Y0228744D01*
X0224488Y0228746D01*
X0224369Y0228752D01*
X0224251Y0228762D01*
X0224134Y0228776D01*
X0224017Y0228793D01*
X0223900Y0228815D01*
X0223785Y0228841D01*
X0223670Y0228870D01*
X0223556Y0228903D01*
X0223444Y0228940D01*
X0223333Y0228981D01*
X0223223Y0229025D01*
X0223115Y0229073D01*
X0223008Y0229125D01*
X0222903Y0229180D01*
X0222800Y0229239D01*
X0222700Y0229301D01*
X0222601Y0229366D01*
X0222504Y0229435D01*
X0222410Y0229506D01*
X0222319Y0229581D01*
X0222229Y0229659D01*
X0222143Y0229740D01*
X0222059Y0229824D01*
X0221978Y0229910D01*
X0221900Y0230000D01*
X0221825Y0230091D01*
X0221754Y0230185D01*
X0221685Y0230282D01*
X0221620Y0230381D01*
X0221558Y0230481D01*
X0221499Y0230584D01*
X0221444Y0230689D01*
X0221392Y0230796D01*
X0221344Y0230904D01*
X0221300Y0231014D01*
X0221259Y0231125D01*
X0221222Y0231237D01*
X0221189Y0231351D01*
X0221160Y0231466D01*
X0221134Y0231581D01*
X0221112Y0231698D01*
X0221095Y0231815D01*
X0221081Y0231932D01*
X0221071Y0232050D01*
X0221065Y0232169D01*
X0221063Y0232287D01*
X0221063Y0267720D02*
X0221065Y0267838D01*
X0221071Y0267957D01*
X0221081Y0268075D01*
X0221095Y0268192D01*
X0221112Y0268309D01*
X0221134Y0268426D01*
X0221160Y0268541D01*
X0221189Y0268656D01*
X0221222Y0268770D01*
X0221259Y0268882D01*
X0221300Y0268993D01*
X0221344Y0269103D01*
X0221392Y0269211D01*
X0221444Y0269318D01*
X0221499Y0269423D01*
X0221558Y0269526D01*
X0221620Y0269626D01*
X0221685Y0269725D01*
X0221754Y0269822D01*
X0221825Y0269916D01*
X0221900Y0270007D01*
X0221978Y0270097D01*
X0222059Y0270183D01*
X0222143Y0270267D01*
X0222229Y0270348D01*
X0222319Y0270426D01*
X0222410Y0270501D01*
X0222504Y0270572D01*
X0222601Y0270641D01*
X0222700Y0270706D01*
X0222800Y0270768D01*
X0222903Y0270827D01*
X0223008Y0270882D01*
X0223115Y0270934D01*
X0223223Y0270982D01*
X0223333Y0271026D01*
X0223444Y0271067D01*
X0223556Y0271104D01*
X0223670Y0271137D01*
X0223785Y0271166D01*
X0223900Y0271192D01*
X0224017Y0271214D01*
X0224134Y0271231D01*
X0224251Y0271245D01*
X0224369Y0271255D01*
X0224488Y0271261D01*
X0224606Y0271263D01*
X0224724Y0271261D01*
X0224843Y0271255D01*
X0224961Y0271245D01*
X0225078Y0271231D01*
X0225195Y0271214D01*
X0225312Y0271192D01*
X0225427Y0271166D01*
X0225542Y0271137D01*
X0225656Y0271104D01*
X0225768Y0271067D01*
X0225879Y0271026D01*
X0225989Y0270982D01*
X0226097Y0270934D01*
X0226204Y0270882D01*
X0226309Y0270827D01*
X0226412Y0270768D01*
X0226512Y0270706D01*
X0226611Y0270641D01*
X0226708Y0270572D01*
X0226802Y0270501D01*
X0226893Y0270426D01*
X0226983Y0270348D01*
X0227069Y0270267D01*
X0227153Y0270183D01*
X0227234Y0270097D01*
X0227312Y0270007D01*
X0227387Y0269916D01*
X0227458Y0269822D01*
X0227527Y0269725D01*
X0227592Y0269626D01*
X0227654Y0269526D01*
X0227713Y0269423D01*
X0227768Y0269318D01*
X0227820Y0269211D01*
X0227868Y0269103D01*
X0227912Y0268993D01*
X0227953Y0268882D01*
X0227990Y0268770D01*
X0228023Y0268656D01*
X0228052Y0268541D01*
X0228078Y0268426D01*
X0228100Y0268309D01*
X0228117Y0268192D01*
X0228131Y0268075D01*
X0228141Y0267957D01*
X0228147Y0267838D01*
X0228149Y0267720D01*
X0228147Y0267602D01*
X0228141Y0267483D01*
X0228131Y0267365D01*
X0228117Y0267248D01*
X0228100Y0267131D01*
X0228078Y0267014D01*
X0228052Y0266899D01*
X0228023Y0266784D01*
X0227990Y0266670D01*
X0227953Y0266558D01*
X0227912Y0266447D01*
X0227868Y0266337D01*
X0227820Y0266229D01*
X0227768Y0266122D01*
X0227713Y0266017D01*
X0227654Y0265914D01*
X0227592Y0265814D01*
X0227527Y0265715D01*
X0227458Y0265618D01*
X0227387Y0265524D01*
X0227312Y0265433D01*
X0227234Y0265343D01*
X0227153Y0265257D01*
X0227069Y0265173D01*
X0226983Y0265092D01*
X0226893Y0265014D01*
X0226802Y0264939D01*
X0226708Y0264868D01*
X0226611Y0264799D01*
X0226512Y0264734D01*
X0226412Y0264672D01*
X0226309Y0264613D01*
X0226204Y0264558D01*
X0226097Y0264506D01*
X0225989Y0264458D01*
X0225879Y0264414D01*
X0225768Y0264373D01*
X0225656Y0264336D01*
X0225542Y0264303D01*
X0225427Y0264274D01*
X0225312Y0264248D01*
X0225195Y0264226D01*
X0225078Y0264209D01*
X0224961Y0264195D01*
X0224843Y0264185D01*
X0224724Y0264179D01*
X0224606Y0264177D01*
X0224488Y0264179D01*
X0224369Y0264185D01*
X0224251Y0264195D01*
X0224134Y0264209D01*
X0224017Y0264226D01*
X0223900Y0264248D01*
X0223785Y0264274D01*
X0223670Y0264303D01*
X0223556Y0264336D01*
X0223444Y0264373D01*
X0223333Y0264414D01*
X0223223Y0264458D01*
X0223115Y0264506D01*
X0223008Y0264558D01*
X0222903Y0264613D01*
X0222800Y0264672D01*
X0222700Y0264734D01*
X0222601Y0264799D01*
X0222504Y0264868D01*
X0222410Y0264939D01*
X0222319Y0265014D01*
X0222229Y0265092D01*
X0222143Y0265173D01*
X0222059Y0265257D01*
X0221978Y0265343D01*
X0221900Y0265433D01*
X0221825Y0265524D01*
X0221754Y0265618D01*
X0221685Y0265715D01*
X0221620Y0265814D01*
X0221558Y0265914D01*
X0221499Y0266017D01*
X0221444Y0266122D01*
X0221392Y0266229D01*
X0221344Y0266337D01*
X0221300Y0266447D01*
X0221259Y0266558D01*
X0221222Y0266670D01*
X0221189Y0266784D01*
X0221160Y0266899D01*
X0221134Y0267014D01*
X0221112Y0267131D01*
X0221095Y0267248D01*
X0221081Y0267365D01*
X0221071Y0267483D01*
X0221065Y0267602D01*
X0221063Y0267720D01*
D11*
X0216224Y0221360D03*
X0216224Y0214667D03*
X0197524Y0181058D03*
X0197524Y0174365D03*
X0201978Y0158562D03*
X0208670Y0158562D03*
X0162624Y0154008D03*
X0162624Y0147315D03*
X0162674Y0174365D03*
X0162674Y0181058D03*
X0153374Y0191565D03*
X0153374Y0198258D03*
X0255424Y0195615D03*
X0255424Y0202308D03*
X0262937Y0202321D03*
X0262937Y0195628D03*
X0262974Y0190008D03*
X0262974Y0183315D03*
X0263074Y0177908D03*
X0263074Y0171215D03*
X0263274Y0165708D03*
X0263274Y0159015D03*
D12*
X0270574Y0158965D03*
X0270574Y0165658D03*
X0270574Y0195665D03*
X0270574Y0202358D03*
X0233125Y0214715D03*
X0233125Y0221408D03*
X0208225Y0221308D03*
X0208225Y0214615D03*
X0197374Y0198108D03*
X0197374Y0191415D03*
X0190274Y0191465D03*
X0190274Y0198158D03*
X0179624Y0198108D03*
X0179624Y0191415D03*
X0169674Y0181058D03*
X0169674Y0174365D03*
X0162674Y0166058D03*
X0162674Y0159365D03*
X0160724Y0191565D03*
X0160724Y0198258D03*
X0201978Y0166512D03*
X0208670Y0166512D03*
X0220628Y0158262D03*
X0227320Y0158262D03*
X0233328Y0158212D03*
X0240020Y0158212D03*
D13*
X0187565Y0159755D03*
D14*
X0187564Y0166453D03*
D15*
X0179684Y0166455D03*
D16*
X0179685Y0158967D03*
D17*
X0187561Y0159759D03*
D18*
X0187561Y0166452D03*
X0179687Y0166452D03*
X0179687Y0158972D03*
D19*
X0169324Y0159068D03*
X0169324Y0166155D03*
D20*
X0215397Y0139064D03*
X0225397Y0139064D03*
X0235397Y0139064D03*
X0234752Y0363105D03*
X0224752Y0363105D03*
X0214752Y0363105D03*
D21*
G36*
X0135658Y0311369D02*
X0126998Y0316368D01*
X0129498Y0320699D01*
X0138158Y0315700D01*
X0135658Y0311369D01*
G37*
G36*
X0130658Y0302709D02*
X0121998Y0307708D01*
X0124498Y0312039D01*
X0133158Y0307040D01*
X0130658Y0302709D01*
G37*
G36*
X0125658Y0294049D02*
X0116998Y0299048D01*
X0119498Y0303379D01*
X0128158Y0298380D01*
X0125658Y0294049D01*
G37*
G36*
X0128481Y0204348D02*
X0119821Y0199349D01*
X0117321Y0203680D01*
X0125981Y0208679D01*
X0128481Y0204348D01*
G37*
G36*
X0133481Y0195688D02*
X0124821Y0190689D01*
X0122321Y0195020D01*
X0130981Y0200019D01*
X0133481Y0195688D01*
G37*
G36*
X0138481Y0187027D02*
X0129821Y0182028D01*
X0127321Y0186359D01*
X0135981Y0191358D01*
X0138481Y0187027D01*
G37*
G36*
X0314490Y0190800D02*
X0323150Y0185801D01*
X0320650Y0181470D01*
X0311990Y0186469D01*
X0314490Y0190800D01*
G37*
G36*
X0319490Y0199460D02*
X0328150Y0194461D01*
X0325650Y0190130D01*
X0316990Y0195129D01*
X0319490Y0199460D01*
G37*
G36*
X0324490Y0208120D02*
X0333150Y0203121D01*
X0330650Y0198790D01*
X0321990Y0203789D01*
X0324490Y0208120D01*
G37*
G36*
X0321713Y0297758D02*
X0330373Y0302757D01*
X0332873Y0298426D01*
X0324213Y0293427D01*
X0321713Y0297758D01*
G37*
G36*
X0316713Y0306418D02*
X0325373Y0311417D01*
X0327873Y0307086D01*
X0319213Y0302087D01*
X0316713Y0306418D01*
G37*
G36*
X0311713Y0315078D02*
X0320373Y0320077D01*
X0322873Y0315746D01*
X0314213Y0310747D01*
X0311713Y0315078D01*
G37*
D22*
X0256424Y0189066D03*
X0256424Y0183357D03*
D23*
X0172674Y0192259D03*
X0167674Y0192259D03*
X0167674Y0198164D03*
X0172674Y0198164D03*
D24*
X0154605Y0177362D03*
X0146337Y0181102D03*
X0146337Y0173622D03*
D25*
X0178806Y0173972D03*
X0178806Y0177712D03*
X0178806Y0181452D03*
X0189042Y0181452D03*
X0189042Y0173972D03*
D26*
X0154699Y0164771D03*
X0154699Y0162212D03*
X0154699Y0159653D03*
X0145749Y0159653D03*
X0145749Y0162212D03*
X0145749Y0164771D03*
D27*
X0211891Y0173512D03*
X0211891Y0175481D03*
X0211891Y0177449D03*
X0211891Y0179418D03*
X0211891Y0181386D03*
X0211891Y0183355D03*
X0211891Y0185323D03*
X0211891Y0187292D03*
X0211891Y0189260D03*
X0211891Y0191229D03*
X0211891Y0193197D03*
X0211891Y0195166D03*
X0245356Y0195166D03*
X0245356Y0193197D03*
X0245356Y0191229D03*
X0245356Y0189260D03*
X0245356Y0187292D03*
X0245356Y0185323D03*
X0245356Y0183355D03*
X0245356Y0181386D03*
X0245356Y0179418D03*
X0245356Y0177449D03*
X0245356Y0175481D03*
X0245356Y0173512D03*
D28*
X0239451Y0167607D03*
X0237482Y0167607D03*
X0235514Y0167607D03*
X0233545Y0167607D03*
X0231577Y0167607D03*
X0229608Y0167607D03*
X0227640Y0167607D03*
X0225671Y0167607D03*
X0223702Y0167607D03*
X0221734Y0167607D03*
X0219765Y0167607D03*
X0217797Y0167607D03*
X0217797Y0201071D03*
X0219765Y0201071D03*
X0221734Y0201071D03*
X0223702Y0201071D03*
X0225671Y0201071D03*
X0227640Y0201071D03*
X0229608Y0201071D03*
X0231577Y0201071D03*
X0233545Y0201071D03*
X0235514Y0201071D03*
X0237482Y0201071D03*
X0239451Y0201071D03*
D29*
X0190047Y0149819D03*
X0187488Y0149819D03*
X0184929Y0149819D03*
X0182370Y0149819D03*
X0179811Y0149819D03*
D30*
X0170756Y0145489D03*
X0199103Y0145489D03*
D31*
X0254524Y0163690D03*
X0254524Y0173533D03*
D32*
X0234567Y0234847D03*
X0214586Y0234847D03*
X0214586Y0267619D03*
X0234567Y0267619D03*
D33*
X0283700Y0198651D03*
X0283700Y0169124D03*
M02*
