G75*
%MOIN*%
%OFA0B0*%
%FSLAX25Y25*%
%IPPOS*%
%LPD*%
%AMOC8*
5,1,8,0,0,1.08239X$1,22.5*
%
%ADD10C,0.00000*%
%ADD11C,0.00500*%
%ADD12C,0.00300*%
%ADD13R,0.04048X0.00022*%
%ADD14R,0.11880X0.00022*%
%ADD15R,0.16302X0.00022*%
%ADD16R,0.16346X0.00022*%
%ADD17R,0.16390X0.00022*%
%ADD18R,0.16412X0.00022*%
%ADD19R,0.16434X0.00022*%
%ADD20R,0.16456X0.00022*%
%ADD21R,0.16478X0.00022*%
%ADD22R,0.16522X0.00022*%
%ADD23R,0.16566X0.00022*%
%ADD24R,0.16588X0.00022*%
%ADD25R,0.16610X0.00022*%
%ADD26R,0.16654X0.00022*%
%ADD27R,0.16698X0.00022*%
%ADD28R,0.16742X0.00022*%
%ADD29R,0.16764X0.00022*%
%ADD30R,0.16786X0.00022*%
%ADD31R,0.16830X0.00022*%
%ADD32R,0.16874X0.00022*%
%ADD33R,0.16918X0.00022*%
%ADD34R,0.16940X0.00022*%
%ADD35R,0.16962X0.00022*%
%ADD36R,0.17006X0.00022*%
%ADD37R,0.17050X0.00022*%
%ADD38R,0.17094X0.00022*%
%ADD39R,0.17138X0.00022*%
%ADD40R,0.17182X0.00022*%
%ADD41R,0.17226X0.00022*%
%ADD42R,0.17270X0.00022*%
%ADD43R,0.17314X0.00022*%
%ADD44R,0.17358X0.00022*%
%ADD45R,0.17402X0.00022*%
%ADD46R,0.17446X0.00022*%
%ADD47R,0.17490X0.00022*%
%ADD48R,0.17534X0.00022*%
%ADD49R,0.17578X0.00022*%
%ADD50R,0.17622X0.00022*%
%ADD51R,0.17666X0.00022*%
%ADD52R,0.17710X0.00022*%
%ADD53R,0.17754X0.00022*%
%ADD54R,0.17798X0.00022*%
%ADD55R,0.17842X0.00022*%
%ADD56R,0.17886X0.00022*%
%ADD57R,0.17908X0.00022*%
%ADD58R,0.17930X0.00022*%
%ADD59R,0.17974X0.00022*%
%ADD60R,0.18018X0.00022*%
%ADD61R,0.18062X0.00022*%
%ADD62R,0.18084X0.00022*%
%ADD63R,0.18106X0.00022*%
%ADD64R,0.18150X0.00022*%
%ADD65R,0.18194X0.00022*%
%ADD66R,0.18216X0.00022*%
%ADD67R,0.18238X0.00022*%
%ADD68R,0.18260X0.00022*%
%ADD69R,0.18282X0.00022*%
%ADD70R,0.18326X0.00022*%
%ADD71R,0.18370X0.00022*%
%ADD72R,0.18392X0.00022*%
%ADD73R,0.18414X0.00022*%
%ADD74R,0.18436X0.00022*%
%ADD75R,0.18458X0.00022*%
%ADD76R,0.18502X0.00022*%
%ADD77R,0.18546X0.00022*%
%ADD78R,0.18568X0.00022*%
%ADD79R,0.18590X0.00022*%
%ADD80R,0.18612X0.00022*%
%ADD81R,0.18634X0.00022*%
%ADD82R,0.18678X0.00022*%
%ADD83R,0.18700X0.00022*%
%ADD84R,0.18722X0.00022*%
%ADD85R,0.18744X0.00022*%
%ADD86R,0.18766X0.00022*%
%ADD87R,0.18788X0.00022*%
%ADD88R,0.18810X0.00022*%
%ADD89R,0.18854X0.00022*%
%ADD90R,0.18876X0.00022*%
%ADD91R,0.18898X0.00022*%
%ADD92R,0.18920X0.00022*%
%ADD93R,0.18942X0.00022*%
%ADD94R,0.18986X0.00022*%
%ADD95R,0.19008X0.00022*%
%ADD96R,0.19030X0.00022*%
%ADD97R,0.19052X0.00022*%
%ADD98R,0.19074X0.00022*%
%ADD99R,0.19096X0.00022*%
%ADD100R,0.19118X0.00022*%
%ADD101R,0.19162X0.00022*%
%ADD102R,0.19184X0.00022*%
%ADD103R,0.19206X0.00022*%
%ADD104R,0.19228X0.00022*%
%ADD105R,0.19250X0.00022*%
%ADD106R,0.19272X0.00022*%
%ADD107R,0.19316X0.00022*%
%ADD108R,0.19338X0.00022*%
%ADD109R,0.19360X0.00022*%
%ADD110R,0.19382X0.00022*%
%ADD111R,0.19404X0.00022*%
%ADD112R,0.19426X0.00022*%
%ADD113R,0.19448X0.00022*%
%ADD114R,0.19492X0.00022*%
%ADD115R,0.19514X0.00022*%
%ADD116R,0.19536X0.00022*%
%ADD117R,0.19558X0.00022*%
%ADD118R,0.19580X0.00022*%
%ADD119R,0.19602X0.00022*%
%ADD120R,0.19624X0.00022*%
%ADD121R,0.19668X0.00022*%
%ADD122R,0.19690X0.00022*%
%ADD123R,0.19712X0.00022*%
%ADD124R,0.19734X0.00022*%
%ADD125R,0.19756X0.00022*%
%ADD126R,0.19800X0.00022*%
%ADD127R,0.19844X0.00022*%
%ADD128R,0.19866X0.00022*%
%ADD129R,0.19888X0.00022*%
%ADD130R,0.19910X0.00022*%
%ADD131R,0.19932X0.00022*%
%ADD132R,0.19976X0.00022*%
%ADD133R,0.20020X0.00022*%
%ADD134R,0.20042X0.00022*%
%ADD135R,0.20064X0.00022*%
%ADD136R,0.20108X0.00022*%
%ADD137R,0.20152X0.00022*%
%ADD138R,0.20196X0.00022*%
%ADD139R,0.20218X0.00022*%
%ADD140R,0.20240X0.00022*%
%ADD141R,0.20284X0.00022*%
%ADD142R,0.20328X0.00022*%
%ADD143R,0.20372X0.00022*%
%ADD144R,0.20394X0.00022*%
%ADD145R,0.20416X0.00022*%
%ADD146R,0.20460X0.00022*%
%ADD147R,0.20504X0.00022*%
%ADD148R,0.20526X0.00022*%
%ADD149R,0.20548X0.00022*%
%ADD150R,0.20592X0.00022*%
%ADD151R,0.20636X0.00022*%
%ADD152R,0.20680X0.00022*%
%ADD153R,0.20702X0.00022*%
%ADD154R,0.20724X0.00022*%
%ADD155R,0.20768X0.00022*%
%ADD156R,0.20812X0.00022*%
%ADD157R,0.20856X0.00022*%
%ADD158R,0.20900X0.00022*%
%ADD159R,0.20944X0.00022*%
%ADD160R,0.20988X0.00022*%
%ADD161R,0.21032X0.00022*%
%ADD162R,0.21076X0.00022*%
%ADD163R,0.21120X0.00022*%
%ADD164R,0.21164X0.00022*%
%ADD165R,0.21208X0.00022*%
%ADD166R,0.21252X0.00022*%
%ADD167R,0.21296X0.00022*%
%ADD168R,0.21340X0.00022*%
%ADD169R,0.21362X0.00022*%
%ADD170R,0.21384X0.00022*%
%ADD171R,0.21428X0.00022*%
%ADD172R,0.21472X0.00022*%
%ADD173R,0.21516X0.00022*%
%ADD174R,0.21538X0.00022*%
%ADD175R,0.21560X0.00022*%
%ADD176R,0.21604X0.00022*%
%ADD177R,0.21648X0.00022*%
%ADD178R,0.21670X0.00022*%
%ADD179R,0.21692X0.00022*%
%ADD180R,0.21714X0.00022*%
%ADD181R,0.21736X0.00022*%
%ADD182R,0.21780X0.00022*%
%ADD183R,0.21824X0.00022*%
%ADD184R,0.21846X0.00022*%
%ADD185R,0.21868X0.00022*%
%ADD186R,0.21890X0.00022*%
%ADD187R,0.21912X0.00022*%
%ADD188R,0.21956X0.00022*%
%ADD189R,0.21978X0.00022*%
%ADD190R,0.22000X0.00022*%
%ADD191R,0.22022X0.00022*%
%ADD192R,0.22044X0.00022*%
%ADD193R,0.22066X0.00022*%
%ADD194R,0.22088X0.00022*%
%ADD195R,0.22132X0.00022*%
%ADD196R,0.22154X0.00022*%
%ADD197R,0.22176X0.00022*%
%ADD198R,0.22198X0.00022*%
%ADD199R,0.22220X0.00022*%
%ADD200R,0.22264X0.00022*%
%ADD201R,0.22308X0.00022*%
%ADD202R,0.22330X0.00022*%
%ADD203R,0.22352X0.00022*%
%ADD204R,0.22374X0.00022*%
%ADD205R,0.22396X0.00022*%
%ADD206R,0.22440X0.00022*%
%ADD207R,0.22462X0.00022*%
%ADD208R,0.22484X0.00022*%
%ADD209R,0.22506X0.00022*%
%ADD210R,0.22528X0.00022*%
%ADD211R,0.22550X0.00022*%
%ADD212R,0.22572X0.00022*%
%ADD213R,0.22616X0.00022*%
%ADD214R,0.22638X0.00022*%
%ADD215R,0.22660X0.00022*%
%ADD216R,0.22682X0.00022*%
%ADD217R,0.22704X0.00022*%
%ADD218R,0.22726X0.00022*%
%ADD219R,0.22770X0.00022*%
%ADD220R,0.22792X0.00022*%
%ADD221R,0.22814X0.00022*%
%ADD222R,0.22836X0.00022*%
%ADD223R,0.22858X0.00022*%
%ADD224R,0.22880X0.00022*%
%ADD225R,0.22902X0.00022*%
%ADD226R,0.22946X0.00022*%
%ADD227R,0.22968X0.00022*%
%ADD228R,0.22990X0.00022*%
%ADD229R,0.23012X0.00022*%
%ADD230R,0.23034X0.00022*%
%ADD231R,0.23056X0.00022*%
%ADD232R,0.23078X0.00022*%
%ADD233R,0.23122X0.00022*%
%ADD234R,0.23144X0.00022*%
%ADD235R,0.23166X0.00022*%
%ADD236R,0.23188X0.00022*%
%ADD237R,0.23210X0.00022*%
%ADD238R,0.23254X0.00022*%
%ADD239R,0.23298X0.00022*%
%ADD240R,0.23320X0.00022*%
%ADD241R,0.23342X0.00022*%
%ADD242R,0.23364X0.00022*%
%ADD243R,0.23386X0.00022*%
%ADD244R,0.12100X0.00022*%
%ADD245R,0.07172X0.00022*%
%ADD246R,0.07128X0.00022*%
%ADD247R,0.07150X0.00022*%
%ADD248R,0.07128X0.00022*%
%ADD249R,0.11550X0.00022*%
%ADD250R,0.23320X0.00022*%
%ADD251R,0.23012X0.00022*%
%ADD252R,0.22484X0.00022*%
%ADD253R,0.22220X0.00022*%
%ADD254R,0.21912X0.00022*%
%ADD255R,0.21648X0.00022*%
%ADD256R,0.21384X0.00022*%
%ADD257R,0.21186X0.00022*%
%ADD258R,0.21120X0.00022*%
%ADD259R,0.20812X0.00022*%
%ADD260R,0.20548X0.00022*%
%ADD261R,0.20526X0.00022*%
%ADD262R,0.20284X0.00022*%
%ADD263R,0.20042X0.00022*%
%ADD264R,0.20020X0.00022*%
%ADD265R,0.19734X0.00022*%
%ADD266R,0.19712X0.00022*%
%ADD267R,0.19690X0.00022*%
%ADD268R,0.19448X0.00022*%
%ADD269R,0.19426X0.00022*%
%ADD270R,0.19206X0.00022*%
%ADD271R,0.19184X0.00022*%
%ADD272R,0.19162X0.00022*%
%ADD273R,0.18942X0.00022*%
%ADD274R,0.18920X0.00022*%
%ADD275R,0.18898X0.00022*%
%ADD276R,0.18634X0.00022*%
%ADD277R,0.18612X0.00022*%
%ADD278R,0.18590X0.00022*%
%ADD279R,0.18524X0.00022*%
%ADD280R,0.18370X0.00022*%
%ADD281R,0.18326X0.00022*%
%ADD282R,0.18106X0.00022*%
%ADD283R,0.18084X0.00022*%
%ADD284R,0.18062X0.00022*%
%ADD285R,0.17842X0.00022*%
%ADD286R,0.17798X0.00022*%
%ADD287R,0.17534X0.00022*%
%ADD288R,0.17490X0.00022*%
%ADD289R,0.17270X0.00022*%
%ADD290R,0.17226X0.00022*%
%ADD291R,0.17006X0.00022*%
%ADD292R,0.16962X0.00022*%
%ADD293R,0.16940X0.00022*%
%ADD294R,0.16764X0.00022*%
%ADD295R,0.16742X0.00022*%
%ADD296R,0.16698X0.00022*%
%ADD297R,0.16456X0.00022*%
%ADD298R,0.16434X0.00022*%
%ADD299R,0.16412X0.00022*%
%ADD300R,0.16390X0.00022*%
%ADD301R,0.12430X0.00022*%
%ADD302R,0.04334X0.00022*%
%ADD303R,0.01750X0.00070*%
%ADD304R,0.01750X0.00070*%
%ADD305R,0.00560X0.00070*%
%ADD306R,0.01540X0.00070*%
%ADD307R,0.01540X0.00070*%
%ADD308R,0.01400X0.00070*%
%ADD309R,0.01260X0.00070*%
%ADD310R,0.03850X0.00070*%
%ADD311R,0.01540X0.00070*%
%ADD312R,0.02030X0.00070*%
%ADD313R,0.03430X0.00070*%
%ADD314R,0.02100X0.00070*%
%ADD315R,0.01680X0.00070*%
%ADD316R,0.01330X0.00070*%
%ADD317R,0.01610X0.00070*%
%ADD318R,0.02450X0.00070*%
%ADD319R,0.02380X0.00070*%
%ADD320R,0.01470X0.00070*%
%ADD321R,0.01260X0.00070*%
%ADD322R,0.03850X0.00070*%
%ADD323R,0.01680X0.00070*%
%ADD324R,0.02730X0.00070*%
%ADD325R,0.03430X0.00070*%
%ADD326R,0.01610X0.00070*%
%ADD327R,0.01330X0.00070*%
%ADD328R,0.01470X0.00070*%
%ADD329R,0.02870X0.00070*%
%ADD330R,0.02940X0.00070*%
%ADD331R,0.03080X0.00070*%
%ADD332R,0.01540X0.00070*%
%ADD333R,0.03290X0.00070*%
%ADD334R,0.03220X0.00070*%
%ADD335R,0.01820X0.00070*%
%ADD336R,0.03360X0.00070*%
%ADD337R,0.01820X0.00070*%
%ADD338R,0.03500X0.00070*%
%ADD339R,0.01890X0.00070*%
%ADD340R,0.03570X0.00070*%
%ADD341R,0.03640X0.00070*%
%ADD342R,0.01960X0.00070*%
%ADD343R,0.03710X0.00070*%
%ADD344R,0.03640X0.00070*%
%ADD345R,0.01960X0.00070*%
%ADD346R,0.03710X0.00070*%
%ADD347R,0.03780X0.00070*%
%ADD348R,0.02030X0.00070*%
%ADD349R,0.03920X0.00070*%
%ADD350R,0.03990X0.00070*%
%ADD351R,0.03920X0.00070*%
%ADD352R,0.01890X0.00070*%
%ADD353R,0.02170X0.00070*%
%ADD354R,0.02170X0.00070*%
%ADD355R,0.02240X0.00070*%
%ADD356R,0.02310X0.00070*%
%ADD357R,0.01470X0.00070*%
%ADD358R,0.02310X0.00070*%
%ADD359R,0.02100X0.00070*%
%ADD360R,0.02380X0.00070*%
%ADD361R,0.01400X0.00070*%
%ADD362R,0.02240X0.00070*%
%ADD363R,0.02450X0.00070*%
%ADD364R,0.02240X0.00070*%
%ADD365R,0.02520X0.00070*%
%ADD366R,0.02590X0.00070*%
%ADD367R,0.02590X0.00070*%
%ADD368R,0.03570X0.00070*%
%ADD369R,0.03570X0.00070*%
%ADD370R,0.03570X0.00070*%
%ADD371R,0.03290X0.00070*%
%ADD372R,0.01190X0.00070*%
%ADD373R,0.03290X0.00070*%
%ADD374R,0.01120X0.00070*%
%ADD375R,0.01120X0.00070*%
%ADD376R,0.03150X0.00070*%
%ADD377R,0.01190X0.00070*%
%ADD378R,0.03150X0.00070*%
%ADD379R,0.01120X0.00070*%
%ADD380R,0.03010X0.00070*%
%ADD381R,0.01120X0.00070*%
%ADD382R,0.02940X0.00070*%
%ADD383R,0.02870X0.00070*%
%ADD384R,0.02870X0.00070*%
%ADD385R,0.02800X0.00070*%
%ADD386R,0.02730X0.00070*%
%ADD387R,0.01470X0.00070*%
%ADD388R,0.03780X0.00070*%
%ADD389R,0.46270X0.00070*%
%ADD390R,0.46270X0.00070*%
%ADD391C,0.00600*%
%ADD392R,0.01020X0.00030*%
%ADD393R,0.01800X0.00030*%
%ADD394R,0.02310X0.00030*%
%ADD395R,0.02730X0.00030*%
%ADD396R,0.03090X0.00030*%
%ADD397R,0.03450X0.00030*%
%ADD398R,0.03750X0.00030*%
%ADD399R,0.03990X0.00030*%
%ADD400R,0.04260X0.00030*%
%ADD401R,0.04500X0.00030*%
%ADD402R,0.04710X0.00030*%
%ADD403R,0.04950X0.00030*%
%ADD404R,0.05160X0.00030*%
%ADD405R,0.05340X0.00030*%
%ADD406R,0.05550X0.00030*%
%ADD407R,0.05730X0.00030*%
%ADD408R,0.05910X0.00030*%
%ADD409R,0.06090X0.00030*%
%ADD410R,0.06210X0.00030*%
%ADD411R,0.06390X0.00030*%
%ADD412R,0.06570X0.00030*%
%ADD413R,0.06690X0.00030*%
%ADD414R,0.06870X0.00030*%
%ADD415R,0.06990X0.00030*%
%ADD416R,0.07140X0.00030*%
%ADD417R,0.07290X0.00030*%
%ADD418R,0.07410X0.00030*%
%ADD419R,0.07530X0.00030*%
%ADD420R,0.07650X0.00030*%
%ADD421R,0.07770X0.00030*%
%ADD422R,0.07920X0.00030*%
%ADD423R,0.08040X0.00030*%
%ADD424R,0.08160X0.00030*%
%ADD425R,0.08280X0.00030*%
%ADD426R,0.08370X0.00030*%
%ADD427R,0.08490X0.00030*%
%ADD428R,0.08610X0.00030*%
%ADD429R,0.08730X0.00030*%
%ADD430R,0.08850X0.00030*%
%ADD431R,0.08910X0.00030*%
%ADD432R,0.09030X0.00030*%
%ADD433R,0.09150X0.00030*%
%ADD434R,0.09270X0.00030*%
%ADD435R,0.09330X0.00030*%
%ADD436R,0.09450X0.00030*%
%ADD437R,0.09540X0.00030*%
%ADD438R,0.09630X0.00030*%
%ADD439R,0.09750X0.00030*%
%ADD440R,0.09810X0.00030*%
%ADD441R,0.09930X0.00030*%
%ADD442R,0.09990X0.00030*%
%ADD443R,0.10110X0.00030*%
%ADD444R,0.10170X0.00030*%
%ADD445R,0.10290X0.00030*%
%ADD446R,0.10350X0.00030*%
%ADD447R,0.10440X0.00030*%
%ADD448R,0.10530X0.00030*%
%ADD449R,0.10590X0.00030*%
%ADD450R,0.10710X0.00030*%
%ADD451R,0.10770X0.00030*%
%ADD452R,0.10830X0.00030*%
%ADD453R,0.10950X0.00030*%
%ADD454R,0.11010X0.00030*%
%ADD455R,0.11070X0.00030*%
%ADD456R,0.11160X0.00030*%
%ADD457R,0.11250X0.00030*%
%ADD458R,0.11310X0.00030*%
%ADD459R,0.11370X0.00030*%
%ADD460R,0.11430X0.00030*%
%ADD461R,0.11550X0.00030*%
%ADD462R,0.11610X0.00030*%
%ADD463R,0.11670X0.00030*%
%ADD464R,0.11730X0.00030*%
%ADD465R,0.11790X0.00030*%
%ADD466R,0.11910X0.00030*%
%ADD467R,0.11970X0.00030*%
%ADD468R,0.12030X0.00030*%
%ADD469R,0.12090X0.00030*%
%ADD470R,0.12150X0.00030*%
%ADD471R,0.12210X0.00030*%
%ADD472R,0.12270X0.00030*%
%ADD473R,0.12330X0.00030*%
%ADD474R,0.12390X0.00030*%
%ADD475R,0.12450X0.00030*%
%ADD476R,0.12510X0.00030*%
%ADD477R,0.12570X0.00030*%
%ADD478R,0.12630X0.00030*%
%ADD479R,0.12690X0.00030*%
%ADD480R,0.12750X0.00030*%
%ADD481R,0.12810X0.00030*%
%ADD482R,0.12870X0.00030*%
%ADD483R,0.12930X0.00030*%
%ADD484R,0.12990X0.00030*%
%ADD485R,0.13050X0.00030*%
%ADD486R,0.13110X0.00030*%
%ADD487R,0.13170X0.00030*%
%ADD488R,0.13230X0.00030*%
%ADD489R,0.13290X0.00030*%
%ADD490R,0.13350X0.00030*%
%ADD491R,0.13410X0.00030*%
%ADD492R,0.13470X0.00030*%
%ADD493R,0.13530X0.00030*%
%ADD494R,0.13590X0.00030*%
%ADD495R,0.13650X0.00030*%
%ADD496R,0.13710X0.00030*%
%ADD497R,0.13770X0.00030*%
%ADD498R,0.13830X0.00030*%
%ADD499R,0.13890X0.00030*%
%ADD500R,0.13950X0.00030*%
%ADD501R,0.14010X0.00030*%
%ADD502R,0.14070X0.00030*%
%ADD503R,0.14130X0.00030*%
%ADD504R,0.14160X0.00030*%
%ADD505R,0.14190X0.00030*%
%ADD506R,0.14250X0.00030*%
%ADD507R,0.14310X0.00030*%
%ADD508R,0.14370X0.00030*%
%ADD509R,0.14430X0.00030*%
%ADD510R,0.14490X0.00030*%
%ADD511R,0.14550X0.00030*%
%ADD512R,0.14610X0.00030*%
%ADD513R,0.14670X0.00030*%
%ADD514R,0.14700X0.00030*%
%ADD515R,0.14730X0.00030*%
%ADD516R,0.14790X0.00030*%
%ADD517R,0.14850X0.00030*%
%ADD518R,0.14910X0.00030*%
%ADD519R,0.14970X0.00030*%
%ADD520R,0.15030X0.00030*%
%ADD521R,0.15090X0.00030*%
%ADD522R,0.15150X0.00030*%
%ADD523R,0.15210X0.00030*%
%ADD524R,0.15270X0.00030*%
%ADD525R,0.15330X0.00030*%
%ADD526R,0.15390X0.00030*%
%ADD527R,0.15450X0.00030*%
%ADD528R,0.15510X0.00030*%
%ADD529R,0.15570X0.00030*%
%ADD530R,0.15630X0.00030*%
%ADD531R,0.15690X0.00030*%
%ADD532R,0.15750X0.00030*%
%ADD533R,0.15810X0.00030*%
%ADD534R,0.15870X0.00030*%
%ADD535R,0.15930X0.00030*%
%ADD536R,0.01470X0.00030*%
%ADD537R,0.06090X0.00030*%
%ADD538R,0.06060X0.00030*%
%ADD539R,0.01500X0.00030*%
%ADD540R,0.01350X0.00030*%
%ADD541R,0.01260X0.00030*%
%ADD542R,0.05520X0.00030*%
%ADD543R,0.01200X0.00030*%
%ADD544R,0.05430X0.00030*%
%ADD545R,0.05400X0.00030*%
%ADD546R,0.01230X0.00030*%
%ADD547R,0.01170X0.00030*%
%ADD548R,0.05310X0.00030*%
%ADD549R,0.05280X0.00030*%
%ADD550R,0.01140X0.00030*%
%ADD551R,0.05220X0.00030*%
%ADD552R,0.01170X0.00030*%
%ADD553R,0.01110X0.00030*%
%ADD554R,0.05130X0.00030*%
%ADD555R,0.05070X0.00030*%
%ADD556R,0.05070X0.00030*%
%ADD557R,0.01080X0.00030*%
%ADD558R,0.05010X0.00030*%
%ADD559R,0.04980X0.00030*%
%ADD560R,0.01050X0.00030*%
%ADD561R,0.04890X0.00030*%
%ADD562R,0.04830X0.00030*%
%ADD563R,0.04800X0.00030*%
%ADD564R,0.04770X0.00030*%
%ADD565R,0.04740X0.00030*%
%ADD566R,0.04680X0.00030*%
%ADD567R,0.04620X0.00030*%
%ADD568R,0.01020X0.00030*%
%ADD569R,0.04590X0.00030*%
%ADD570R,0.04560X0.00030*%
%ADD571R,0.04530X0.00030*%
%ADD572R,0.04470X0.00030*%
%ADD573R,0.04440X0.00030*%
%ADD574R,0.04410X0.00030*%
%ADD575R,0.04380X0.00030*%
%ADD576R,0.04350X0.00030*%
%ADD577R,0.00030X0.00030*%
%ADD578R,0.04320X0.00030*%
%ADD579R,0.04290X0.00030*%
%ADD580R,0.00990X0.00030*%
%ADD581R,0.00060X0.00030*%
%ADD582R,0.00090X0.00030*%
%ADD583R,0.04230X0.00030*%
%ADD584R,0.00090X0.00030*%
%ADD585R,0.04200X0.00030*%
%ADD586R,0.00990X0.00030*%
%ADD587R,0.00120X0.00030*%
%ADD588R,0.04170X0.00030*%
%ADD589R,0.00120X0.00030*%
%ADD590R,0.00150X0.00030*%
%ADD591R,0.04140X0.00030*%
%ADD592R,0.04110X0.00030*%
%ADD593R,0.00180X0.00030*%
%ADD594R,0.04080X0.00030*%
%ADD595R,0.00210X0.00030*%
%ADD596R,0.04050X0.00030*%
%ADD597R,0.04020X0.00030*%
%ADD598R,0.00240X0.00030*%
%ADD599R,0.04020X0.00030*%
%ADD600R,0.03990X0.00030*%
%ADD601R,0.00270X0.00030*%
%ADD602R,0.03960X0.00030*%
%ADD603R,0.00270X0.00030*%
%ADD604R,0.00300X0.00030*%
%ADD605R,0.03930X0.00030*%
%ADD606R,0.03900X0.00030*%
%ADD607R,0.00330X0.00030*%
%ADD608R,0.00360X0.00030*%
%ADD609R,0.03870X0.00030*%
%ADD610R,0.03840X0.00030*%
%ADD611R,0.03840X0.00030*%
%ADD612R,0.03810X0.00030*%
%ADD613R,0.00390X0.00030*%
%ADD614R,0.03780X0.00030*%
%ADD615R,0.00390X0.00030*%
%ADD616R,0.00420X0.00030*%
%ADD617R,0.00420X0.00030*%
%ADD618R,0.00450X0.00030*%
%ADD619R,0.03720X0.00030*%
%ADD620R,0.00480X0.00030*%
%ADD621R,0.03690X0.00030*%
%ADD622R,0.03660X0.00030*%
%ADD623R,0.03630X0.00030*%
%ADD624R,0.00510X0.00030*%
%ADD625R,0.03600X0.00030*%
%ADD626R,0.00540X0.00030*%
%ADD627R,0.03570X0.00030*%
%ADD628R,0.03540X0.00030*%
%ADD629R,0.00570X0.00030*%
%ADD630R,0.00570X0.00030*%
%ADD631R,0.03510X0.00030*%
%ADD632R,0.00600X0.00030*%
%ADD633R,0.03480X0.00030*%
%ADD634R,0.00630X0.00030*%
%ADD635R,0.00660X0.00030*%
%ADD636R,0.03420X0.00030*%
%ADD637R,0.03390X0.00030*%
%ADD638R,0.03390X0.00030*%
%ADD639R,0.00690X0.00030*%
%ADD640R,0.03360X0.00030*%
%ADD641R,0.00690X0.00030*%
%ADD642R,0.00720X0.00030*%
%ADD643R,0.03330X0.00030*%
%ADD644R,0.00720X0.00030*%
%ADD645R,0.03300X0.00030*%
%ADD646R,0.00750X0.00030*%
%ADD647R,0.03270X0.00030*%
%ADD648R,0.00780X0.00030*%
%ADD649R,0.03240X0.00030*%
%ADD650R,0.03210X0.00030*%
%ADD651R,0.00810X0.00030*%
%ADD652R,0.03180X0.00030*%
%ADD653R,0.00840X0.00030*%
%ADD654R,0.03150X0.00030*%
%ADD655R,0.03120X0.00030*%
%ADD656R,0.00960X0.00030*%
%ADD657R,0.03120X0.00030*%
%ADD658R,0.00240X0.00030*%
%ADD659R,0.03090X0.00030*%
%ADD660R,0.00870X0.00030*%
%ADD661R,0.00870X0.00030*%
%ADD662R,0.03060X0.00030*%
%ADD663R,0.00900X0.00030*%
%ADD664R,0.03030X0.00030*%
%ADD665R,0.03000X0.00030*%
%ADD666R,0.00930X0.00030*%
%ADD667R,0.02970X0.00030*%
%ADD668R,0.02940X0.00030*%
%ADD669R,0.02940X0.00030*%
%ADD670R,0.02910X0.00030*%
%ADD671R,0.02880X0.00030*%
%ADD672R,0.02850X0.00030*%
%ADD673R,0.02820X0.00030*%
%ADD674R,0.02790X0.00030*%
%ADD675R,0.02760X0.00030*%
%ADD676R,0.02700X0.00030*%
%ADD677R,0.02670X0.00030*%
%ADD678R,0.02670X0.00030*%
%ADD679R,0.02640X0.00030*%
%ADD680R,0.02610X0.00030*%
%ADD681R,0.02580X0.00030*%
%ADD682R,0.02550X0.00030*%
%ADD683R,0.02520X0.00030*%
%ADD684R,0.02490X0.00030*%
%ADD685R,0.01290X0.00030*%
%ADD686R,0.02490X0.00030*%
%ADD687R,0.02460X0.00030*%
%ADD688R,0.02430X0.00030*%
%ADD689R,0.01290X0.00030*%
%ADD690R,0.01320X0.00030*%
%ADD691R,0.01320X0.00030*%
%ADD692R,0.02400X0.00030*%
%ADD693R,0.02370X0.00030*%
%ADD694R,0.02340X0.00030*%
%ADD695R,0.01380X0.00030*%
%ADD696R,0.01410X0.00030*%
%ADD697R,0.02280X0.00030*%
%ADD698R,0.01440X0.00030*%
%ADD699R,0.02250X0.00030*%
%ADD700R,0.00540X0.00030*%
%ADD701R,0.02220X0.00030*%
%ADD702R,0.02220X0.00030*%
%ADD703R,0.01470X0.00030*%
%ADD704R,0.02190X0.00030*%
%ADD705R,0.02160X0.00030*%
%ADD706R,0.02130X0.00030*%
%ADD707R,0.01530X0.00030*%
%ADD708R,0.02100X0.00030*%
%ADD709R,0.01560X0.00030*%
%ADD710R,0.02070X0.00030*%
%ADD711R,0.02040X0.00030*%
%ADD712R,0.02040X0.00030*%
%ADD713R,0.01590X0.00030*%
%ADD714R,0.02010X0.00030*%
%ADD715R,0.01590X0.00030*%
%ADD716R,0.01620X0.00030*%
%ADD717R,0.01980X0.00030*%
%ADD718R,0.01620X0.00030*%
%ADD719R,0.01950X0.00030*%
%ADD720R,0.01650X0.00030*%
%ADD721R,0.01920X0.00030*%
%ADD722R,0.01680X0.00030*%
%ADD723R,0.01890X0.00030*%
%ADD724R,0.01860X0.00030*%
%ADD725R,0.01710X0.00030*%
%ADD726R,0.01830X0.00030*%
%ADD727R,0.01740X0.00030*%
%ADD728R,0.01770X0.00030*%
%ADD729R,0.01770X0.00030*%
%ADD730R,0.01890X0.00030*%
%ADD731R,0.01920X0.00030*%
%ADD732R,0.00840X0.00030*%
%ADD733R,0.02070X0.00030*%
%ADD734R,0.01140X0.00030*%
%ADD735R,0.02190X0.00030*%
%ADD736R,0.02370X0.00030*%
%ADD737R,0.02520X0.00030*%
%ADD738R,0.02790X0.00030*%
%ADD739R,0.02820X0.00030*%
%ADD740R,0.02970X0.00030*%
%ADD741R,0.03270X0.00030*%
%ADD742R,0.03420X0.00030*%
%ADD743R,0.03690X0.00030*%
%ADD744R,0.04290X0.00030*%
%ADD745R,0.04650X0.00030*%
%ADD746R,0.04890X0.00030*%
%ADD747R,0.04920X0.00030*%
%ADD748R,0.05040X0.00030*%
%ADD749R,0.05100X0.00030*%
%ADD750R,0.05190X0.00030*%
%ADD751R,0.05250X0.00030*%
%ADD752R,0.05370X0.00030*%
%ADD753R,0.05490X0.00030*%
%ADD754R,0.04170X0.00030*%
%ADD755R,0.05640X0.00030*%
%ADD756R,0.05880X0.00030*%
%ADD757R,0.15360X0.00030*%
%ADD758R,0.14100X0.00030*%
%ADD759R,0.11850X0.00030*%
%ADD760R,0.11490X0.00030*%
%ADD761R,0.11130X0.00030*%
%ADD762R,0.10890X0.00030*%
%ADD763R,0.10650X0.00030*%
%ADD764R,0.10410X0.00030*%
%ADD765R,0.10230X0.00030*%
%ADD766R,0.09900X0.00030*%
%ADD767R,0.09690X0.00030*%
%ADD768R,0.09510X0.00030*%
%ADD769R,0.09210X0.00030*%
%ADD770R,0.08790X0.00030*%
%ADD771R,0.08250X0.00030*%
%ADD772R,0.08130X0.00030*%
%ADD773R,0.08010X0.00030*%
%ADD774R,0.07890X0.00030*%
%ADD775R,0.07260X0.00030*%
%ADD776R,0.07110X0.00030*%
%ADD777R,0.06810X0.00030*%
%ADD778R,0.06510X0.00030*%
%ADD779R,0.06030X0.00030*%
%ADD780R,0.05700X0.00030*%
%ADD781R,0.04470X0.00030*%
%ADD782R,0.00591X0.01181*%
%ADD783R,0.01181X0.01181*%
%ADD784C,0.00800*%
%ADD785C,0.02362*%
%ADD786C,0.00394*%
%ADD787C,0.00787*%
%ADD788R,0.05000X0.04375*%
D10*
X0156177Y0131750D02*
X0294617Y0131378D01*
X0363514Y0250712D01*
X0293972Y0370419D01*
X0155532Y0370791D01*
X0086634Y0251457D01*
X0156177Y0131750D01*
D11*
X0170166Y0132103D02*
X0170166Y0143717D01*
X0170166Y0147241D02*
X0170166Y0151394D01*
X0172134Y0151394D01*
X0187364Y0156806D02*
X0187366Y0156833D01*
X0187372Y0156860D01*
X0187381Y0156886D01*
X0187394Y0156910D01*
X0187410Y0156933D01*
X0187429Y0156952D01*
X0187451Y0156969D01*
X0187475Y0156983D01*
X0187500Y0156993D01*
X0187527Y0157000D01*
X0187554Y0157003D01*
X0187582Y0157002D01*
X0187609Y0156997D01*
X0187635Y0156989D01*
X0187659Y0156977D01*
X0187682Y0156961D01*
X0187703Y0156943D01*
X0187720Y0156922D01*
X0187735Y0156898D01*
X0187746Y0156873D01*
X0187754Y0156847D01*
X0187758Y0156820D01*
X0187758Y0156792D01*
X0187754Y0156765D01*
X0187746Y0156739D01*
X0187735Y0156714D01*
X0187720Y0156690D01*
X0187703Y0156669D01*
X0187682Y0156651D01*
X0187660Y0156635D01*
X0187635Y0156623D01*
X0187609Y0156615D01*
X0187582Y0156610D01*
X0187554Y0156609D01*
X0187527Y0156612D01*
X0187500Y0156619D01*
X0187475Y0156629D01*
X0187451Y0156643D01*
X0187429Y0156660D01*
X0187410Y0156679D01*
X0187394Y0156702D01*
X0187381Y0156726D01*
X0187372Y0156752D01*
X0187366Y0156779D01*
X0187364Y0156806D01*
X0197725Y0151394D02*
X0199693Y0151394D01*
X0199693Y0147457D01*
X0199693Y0143717D02*
X0199693Y0132103D01*
X0212897Y0146564D02*
X0237897Y0146564D01*
X0271810Y0172076D02*
X0271810Y0195699D01*
X0275747Y0195699D01*
X0281652Y0195699D02*
X0285589Y0195699D01*
X0285589Y0172076D01*
X0281652Y0172076D01*
X0275747Y0172076D02*
X0271810Y0172076D01*
X0257802Y0185031D02*
X0257802Y0187393D01*
X0255046Y0187393D02*
X0255046Y0185031D01*
X0309825Y0187720D02*
X0322325Y0209371D01*
X0253384Y0287835D02*
X0252800Y0287835D01*
X0252800Y0288419D01*
X0253384Y0288419D01*
X0253384Y0287835D01*
X0251452Y0287835D02*
X0251452Y0289586D01*
X0250868Y0290170D01*
X0249701Y0290170D01*
X0249117Y0289586D01*
X0247769Y0290170D02*
X0246017Y0290170D01*
X0245434Y0289586D01*
X0245434Y0288419D01*
X0246017Y0287835D01*
X0247769Y0287835D01*
X0249117Y0287835D02*
X0249117Y0291338D01*
X0249057Y0292667D02*
X0249640Y0292667D01*
X0250224Y0293251D01*
X0250224Y0296170D01*
X0248473Y0296170D01*
X0247889Y0295586D01*
X0247889Y0294419D01*
X0248473Y0293835D01*
X0250224Y0293835D01*
X0251572Y0293835D02*
X0253324Y0293835D01*
X0253907Y0294419D01*
X0253324Y0295002D01*
X0252156Y0295002D01*
X0251572Y0295586D01*
X0252156Y0296170D01*
X0253907Y0296170D01*
X0246541Y0295586D02*
X0246541Y0293835D01*
X0246541Y0295586D02*
X0245957Y0296170D01*
X0244206Y0296170D01*
X0244206Y0293835D01*
X0242918Y0293835D02*
X0241750Y0293835D01*
X0242334Y0293835D02*
X0242334Y0296170D01*
X0241750Y0296170D01*
X0242334Y0297338D02*
X0242334Y0297922D01*
X0240403Y0295586D02*
X0240403Y0293835D01*
X0240403Y0295586D02*
X0239819Y0296170D01*
X0238651Y0296170D01*
X0238067Y0295586D01*
X0238067Y0293835D02*
X0238067Y0297338D01*
X0236719Y0297338D02*
X0234384Y0297338D01*
X0235552Y0297338D02*
X0235552Y0293835D01*
X0236196Y0290754D02*
X0236196Y0288419D01*
X0236780Y0287835D01*
X0238067Y0288419D02*
X0238651Y0287835D01*
X0239819Y0287835D01*
X0240403Y0288419D01*
X0240403Y0289586D01*
X0239819Y0290170D01*
X0238651Y0290170D01*
X0238067Y0289586D01*
X0238067Y0288419D01*
X0236780Y0290170D02*
X0235612Y0290170D01*
X0230641Y0290170D02*
X0229473Y0290170D01*
X0230057Y0290754D02*
X0230057Y0288419D01*
X0230641Y0287835D01*
X0228186Y0289586D02*
X0227018Y0289586D01*
X0227602Y0290754D02*
X0228186Y0291338D01*
X0227602Y0290754D02*
X0227602Y0287835D01*
X0225670Y0288419D02*
X0225670Y0289586D01*
X0225086Y0290170D01*
X0223919Y0290170D01*
X0223335Y0289586D01*
X0223335Y0288419D01*
X0223919Y0287835D01*
X0225086Y0287835D01*
X0225670Y0288419D01*
X0221987Y0288419D02*
X0221403Y0289002D01*
X0220235Y0289002D01*
X0219652Y0289586D01*
X0220235Y0290170D01*
X0221987Y0290170D01*
X0221987Y0288419D02*
X0221403Y0287835D01*
X0219652Y0287835D01*
X0214621Y0287835D02*
X0212869Y0287835D01*
X0212285Y0288419D01*
X0212869Y0289002D01*
X0214621Y0289002D01*
X0214621Y0289586D02*
X0214621Y0287835D01*
X0214621Y0289586D02*
X0214037Y0290170D01*
X0212869Y0290170D01*
X0213393Y0293835D02*
X0213393Y0295586D01*
X0212809Y0296170D01*
X0211058Y0296170D01*
X0211058Y0293835D01*
X0209740Y0296170D02*
X0209156Y0296170D01*
X0207988Y0295002D01*
X0207988Y0293835D02*
X0207988Y0296170D01*
X0206640Y0295586D02*
X0206057Y0296170D01*
X0204889Y0296170D01*
X0204305Y0295586D01*
X0204305Y0294419D01*
X0204889Y0293835D01*
X0206057Y0293835D01*
X0206640Y0295002D02*
X0204305Y0295002D01*
X0203017Y0293835D02*
X0202434Y0294419D01*
X0202434Y0296754D01*
X0201850Y0296170D02*
X0203017Y0296170D01*
X0200502Y0295586D02*
X0199918Y0296170D01*
X0198167Y0296170D01*
X0198167Y0293835D01*
X0196879Y0293835D02*
X0195711Y0293835D01*
X0196295Y0293835D02*
X0196295Y0297338D01*
X0195711Y0297338D02*
X0196879Y0297338D01*
X0200502Y0295586D02*
X0200502Y0293835D01*
X0200592Y0291922D02*
X0200592Y0291338D01*
X0200592Y0290170D02*
X0200592Y0287835D01*
X0200008Y0287835D02*
X0201176Y0287835D01*
X0203047Y0288419D02*
X0203631Y0287835D01*
X0203047Y0288419D02*
X0203047Y0290754D01*
X0202464Y0290170D02*
X0203631Y0290170D01*
X0204919Y0289586D02*
X0205503Y0290170D01*
X0206670Y0290170D01*
X0207254Y0289586D01*
X0207254Y0287835D01*
X0204919Y0287835D02*
X0204919Y0291338D01*
X0206640Y0295002D02*
X0206640Y0295586D01*
X0200592Y0290170D02*
X0200008Y0290170D01*
X0198660Y0290170D02*
X0198660Y0288419D01*
X0198076Y0287835D01*
X0197493Y0288419D01*
X0196909Y0287835D01*
X0196325Y0288419D01*
X0196325Y0290170D01*
X0214741Y0294419D02*
X0214741Y0295586D01*
X0215325Y0296170D01*
X0216492Y0296170D01*
X0217076Y0295586D01*
X0217076Y0295002D01*
X0214741Y0295002D01*
X0214741Y0294419D02*
X0215325Y0293835D01*
X0216492Y0293835D01*
X0219008Y0294419D02*
X0219008Y0296754D01*
X0218424Y0296170D02*
X0219592Y0296170D01*
X0219008Y0294419D02*
X0219592Y0293835D01*
X0224562Y0294419D02*
X0225146Y0293835D01*
X0226314Y0293835D01*
X0226898Y0294419D01*
X0226898Y0295586D01*
X0226314Y0296170D01*
X0225146Y0296170D01*
X0224562Y0295586D01*
X0224562Y0294419D01*
X0228246Y0295586D02*
X0229413Y0295586D01*
X0228829Y0296754D02*
X0228829Y0293835D01*
X0228829Y0296754D02*
X0229413Y0297338D01*
X0241750Y0290170D02*
X0241750Y0288419D01*
X0242334Y0287835D01*
X0244086Y0287835D01*
X0244086Y0290170D01*
X0237252Y0355605D02*
X0212252Y0355605D01*
X0140323Y0314449D02*
X0127823Y0292799D01*
X0128146Y0209929D02*
X0140646Y0188278D01*
X0322048Y0292177D02*
X0309548Y0313827D01*
D12*
X0301461Y0263297D02*
X0301461Y0261195D01*
X0302512Y0261195D01*
X0302863Y0261545D01*
X0302863Y0262246D01*
X0302512Y0262596D01*
X0301461Y0262596D01*
X0303671Y0262596D02*
X0303671Y0261545D01*
X0304022Y0261195D01*
X0305072Y0261195D01*
X0305072Y0260845D02*
X0304722Y0260494D01*
X0304372Y0260494D01*
X0305072Y0260845D02*
X0305072Y0262596D01*
X0298443Y0262596D02*
X0297392Y0262596D01*
X0297042Y0262246D01*
X0297042Y0261545D01*
X0297392Y0261195D01*
X0298443Y0261195D01*
X0298443Y0263297D01*
X0296233Y0262246D02*
X0296233Y0261895D01*
X0294832Y0261895D01*
X0294832Y0261545D02*
X0294832Y0262246D01*
X0295182Y0262596D01*
X0295883Y0262596D01*
X0296233Y0262246D01*
X0295883Y0261195D02*
X0295182Y0261195D01*
X0294832Y0261545D01*
X0294023Y0261545D02*
X0293673Y0261195D01*
X0292622Y0261195D01*
X0292622Y0260494D02*
X0292622Y0262596D01*
X0293673Y0262596D01*
X0294023Y0262246D01*
X0294023Y0261545D01*
X0291813Y0261545D02*
X0291813Y0262246D01*
X0291463Y0262596D01*
X0290762Y0262596D01*
X0290412Y0262246D01*
X0290412Y0261545D01*
X0290762Y0261195D01*
X0291463Y0261195D01*
X0291813Y0261545D01*
X0289639Y0261195D02*
X0288939Y0261195D01*
X0289289Y0261195D02*
X0289289Y0263297D01*
X0288939Y0263297D01*
X0288130Y0262246D02*
X0288130Y0261895D01*
X0286729Y0261895D01*
X0286729Y0261545D02*
X0286729Y0262246D01*
X0287079Y0262596D01*
X0287780Y0262596D01*
X0288130Y0262246D01*
X0287780Y0261195D02*
X0287079Y0261195D01*
X0286729Y0261545D01*
X0285920Y0262596D02*
X0285220Y0261195D01*
X0284519Y0262596D01*
X0283710Y0262246D02*
X0283360Y0262596D01*
X0282659Y0262596D01*
X0282309Y0262246D01*
X0282309Y0261545D01*
X0282659Y0261195D01*
X0283360Y0261195D01*
X0283710Y0261895D02*
X0282309Y0261895D01*
X0281500Y0261545D02*
X0281500Y0262946D01*
X0281150Y0263297D01*
X0280099Y0263297D01*
X0280099Y0261195D01*
X0281150Y0261195D01*
X0281500Y0261545D01*
X0283710Y0261895D02*
X0283710Y0262246D01*
X0259675Y0227086D02*
X0259675Y0225151D01*
X0259675Y0226119D02*
X0256773Y0226119D01*
X0257740Y0225151D01*
X0259675Y0224140D02*
X0259675Y0222205D01*
X0259675Y0223172D02*
X0256773Y0223172D01*
X0257740Y0222205D01*
X0257257Y0221193D02*
X0258224Y0221193D01*
X0258708Y0220710D01*
X0258708Y0219258D01*
X0259675Y0219258D02*
X0256773Y0219258D01*
X0256773Y0220710D01*
X0257257Y0221193D01*
X0254575Y0221193D02*
X0254575Y0219258D01*
X0254575Y0220226D02*
X0251673Y0220226D01*
X0252640Y0219258D01*
X0252157Y0218247D02*
X0253124Y0218247D01*
X0253608Y0217763D01*
X0253608Y0216312D01*
X0253608Y0217279D02*
X0254575Y0218247D01*
X0254575Y0216312D02*
X0251673Y0216312D01*
X0251673Y0217763D01*
X0252157Y0218247D01*
X0249401Y0217782D02*
X0248917Y0218266D01*
X0249401Y0217782D02*
X0249401Y0216814D01*
X0248917Y0216331D01*
X0246982Y0216331D01*
X0246498Y0216814D01*
X0246498Y0217782D01*
X0246982Y0218266D01*
X0247466Y0219277D02*
X0246498Y0220245D01*
X0249401Y0220245D01*
X0249401Y0221212D02*
X0249401Y0219277D01*
X0248917Y0222224D02*
X0249401Y0222707D01*
X0249401Y0223675D01*
X0248917Y0224159D01*
X0247949Y0224159D01*
X0247466Y0223675D01*
X0247466Y0223191D01*
X0247949Y0222224D01*
X0246498Y0222224D01*
X0246498Y0224159D01*
X0244175Y0223656D02*
X0241273Y0223656D01*
X0242724Y0222205D01*
X0242724Y0224140D01*
X0244175Y0221193D02*
X0244175Y0219258D01*
X0244175Y0220226D02*
X0241273Y0220226D01*
X0242240Y0219258D01*
X0241757Y0218247D02*
X0242724Y0218247D01*
X0243208Y0217763D01*
X0243208Y0216312D01*
X0243208Y0217279D02*
X0244175Y0218247D01*
X0244175Y0216312D02*
X0241273Y0216312D01*
X0241273Y0217763D01*
X0241757Y0218247D01*
X0251673Y0222689D02*
X0251673Y0223656D01*
X0252157Y0224140D01*
X0252640Y0224140D01*
X0253124Y0223656D01*
X0253608Y0224140D01*
X0254092Y0224140D01*
X0254575Y0223656D01*
X0254575Y0222689D01*
X0254092Y0222205D01*
X0253124Y0223172D02*
X0253124Y0223656D01*
X0252157Y0222205D02*
X0251673Y0222689D01*
X0256773Y0218247D02*
X0256773Y0217279D01*
X0256773Y0217763D02*
X0259192Y0217763D01*
X0259675Y0217279D01*
X0259675Y0216796D01*
X0259192Y0216312D01*
X0211959Y0200240D02*
X0210024Y0200240D01*
X0211475Y0201691D01*
X0211475Y0198789D01*
X0209012Y0199273D02*
X0209012Y0201691D01*
X0207077Y0201691D02*
X0207077Y0199273D01*
X0207561Y0198789D01*
X0208529Y0198789D01*
X0209012Y0199273D01*
X0206663Y0221349D02*
X0204728Y0221349D01*
X0205696Y0221349D02*
X0205696Y0224251D01*
X0204728Y0223284D01*
X0203717Y0223768D02*
X0203233Y0224251D01*
X0202266Y0224251D01*
X0201782Y0223768D01*
X0201782Y0223284D01*
X0202266Y0222800D01*
X0203233Y0222800D01*
X0203717Y0222316D01*
X0203717Y0221833D01*
X0203233Y0221349D01*
X0202266Y0221349D01*
X0201782Y0221833D01*
X0183100Y0226332D02*
X0180198Y0226332D01*
X0180198Y0227783D01*
X0180682Y0228267D01*
X0181649Y0228267D01*
X0182133Y0227783D01*
X0182133Y0226332D01*
X0182133Y0227299D02*
X0183100Y0228267D01*
X0181649Y0229278D02*
X0180198Y0230730D01*
X0183100Y0230730D01*
X0181649Y0231213D02*
X0181649Y0229278D01*
X0178300Y0229712D02*
X0177817Y0229228D01*
X0178300Y0229712D02*
X0178300Y0230680D01*
X0177817Y0231163D01*
X0176849Y0231163D01*
X0176365Y0230680D01*
X0176365Y0230196D01*
X0176849Y0229228D01*
X0175398Y0229228D01*
X0175398Y0231163D01*
X0173624Y0231143D02*
X0173624Y0229208D01*
X0173624Y0230176D02*
X0170722Y0230176D01*
X0171689Y0229208D01*
X0171205Y0228197D02*
X0172173Y0228197D01*
X0172657Y0227713D01*
X0172657Y0226262D01*
X0173624Y0226262D02*
X0170722Y0226262D01*
X0170722Y0227713D01*
X0171205Y0228197D01*
X0172657Y0227229D02*
X0173624Y0228197D01*
X0175398Y0227733D02*
X0175882Y0228217D01*
X0176849Y0228217D01*
X0177333Y0227733D01*
X0177333Y0226282D01*
X0177333Y0227249D02*
X0178300Y0228217D01*
X0178300Y0226282D02*
X0175398Y0226282D01*
X0175398Y0227733D01*
X0173140Y0224340D02*
X0173624Y0223856D01*
X0173624Y0222889D01*
X0173140Y0222405D01*
X0173624Y0221393D02*
X0173624Y0219458D01*
X0173624Y0220426D02*
X0170722Y0220426D01*
X0171689Y0219458D01*
X0171205Y0218447D02*
X0170722Y0217963D01*
X0170722Y0216995D01*
X0171205Y0216512D01*
X0173140Y0216512D01*
X0173624Y0216995D01*
X0173624Y0217963D01*
X0173140Y0218447D01*
X0171205Y0222405D02*
X0170722Y0222889D01*
X0170722Y0223856D01*
X0171205Y0224340D01*
X0171689Y0224340D01*
X0172173Y0223856D01*
X0172657Y0224340D01*
X0173140Y0224340D01*
X0172173Y0223856D02*
X0172173Y0223372D01*
X0168750Y0221363D02*
X0168750Y0219428D01*
X0168750Y0220396D02*
X0165848Y0220396D01*
X0166815Y0219428D01*
X0165848Y0218417D02*
X0168267Y0218417D01*
X0168750Y0217933D01*
X0168750Y0216966D01*
X0168267Y0216482D01*
X0165848Y0216482D01*
X0164000Y0216482D02*
X0161098Y0216482D01*
X0161098Y0217933D01*
X0161582Y0218417D01*
X0162549Y0218417D01*
X0163033Y0217933D01*
X0163033Y0216482D01*
X0163033Y0217449D02*
X0164000Y0218417D01*
X0164000Y0219428D02*
X0164000Y0221363D01*
X0164000Y0220396D02*
X0161098Y0220396D01*
X0162065Y0219428D01*
X0159400Y0219428D02*
X0159400Y0221363D01*
X0159400Y0220396D02*
X0156498Y0220396D01*
X0157465Y0219428D01*
X0156982Y0218417D02*
X0156498Y0217933D01*
X0156498Y0216966D01*
X0156982Y0216482D01*
X0158917Y0216482D01*
X0159400Y0216966D01*
X0159400Y0217933D01*
X0158917Y0218417D01*
X0159400Y0222375D02*
X0157465Y0224310D01*
X0156982Y0224310D01*
X0156498Y0223826D01*
X0156498Y0222859D01*
X0156982Y0222375D01*
X0159400Y0222375D02*
X0159400Y0224310D01*
X0161098Y0223826D02*
X0161582Y0224310D01*
X0163517Y0222375D01*
X0164000Y0222859D01*
X0164000Y0223826D01*
X0163517Y0224310D01*
X0161582Y0224310D01*
X0161098Y0223826D02*
X0161098Y0222859D01*
X0161582Y0222375D01*
X0163517Y0222375D01*
X0164074Y0226312D02*
X0161172Y0226312D01*
X0159324Y0226312D02*
X0156422Y0226312D01*
X0156422Y0227763D01*
X0156905Y0228247D01*
X0157873Y0228247D01*
X0158357Y0227763D01*
X0158357Y0226312D01*
X0158357Y0227279D02*
X0159324Y0228247D01*
X0159324Y0229258D02*
X0157389Y0231193D01*
X0156905Y0231193D01*
X0156422Y0230709D01*
X0156422Y0229742D01*
X0156905Y0229258D01*
X0159324Y0229258D02*
X0159324Y0231193D01*
X0161172Y0231193D02*
X0161172Y0229258D01*
X0164074Y0229258D01*
X0164074Y0231193D01*
X0164074Y0232205D02*
X0164074Y0233656D01*
X0163590Y0234140D01*
X0161655Y0234140D01*
X0161172Y0233656D01*
X0161172Y0232205D01*
X0164074Y0232205D01*
X0165972Y0232205D02*
X0165972Y0233656D01*
X0166455Y0234140D01*
X0168390Y0234140D01*
X0168874Y0233656D01*
X0168874Y0232205D01*
X0165972Y0232205D01*
X0165972Y0231193D02*
X0165972Y0229258D01*
X0168874Y0229258D01*
X0168874Y0231193D01*
X0167423Y0230226D02*
X0167423Y0229258D01*
X0168874Y0228247D02*
X0168874Y0226312D01*
X0165972Y0226312D01*
X0164074Y0226312D02*
X0164074Y0228247D01*
X0162623Y0229258D02*
X0162623Y0230226D01*
X0161655Y0235151D02*
X0161172Y0235635D01*
X0161172Y0236603D01*
X0161655Y0237086D01*
X0162139Y0237086D01*
X0164074Y0235151D01*
X0164074Y0237086D01*
X0165972Y0236119D02*
X0168874Y0236119D01*
X0168874Y0237086D02*
X0168874Y0235151D01*
X0166939Y0235151D02*
X0165972Y0236119D01*
X0154474Y0231193D02*
X0154474Y0229258D01*
X0152539Y0231193D01*
X0152055Y0231193D01*
X0151572Y0230709D01*
X0151572Y0229742D01*
X0152055Y0229258D01*
X0152055Y0228247D02*
X0151572Y0227763D01*
X0151572Y0226795D01*
X0152055Y0226312D01*
X0153990Y0226312D01*
X0154474Y0226795D01*
X0154474Y0227763D01*
X0153990Y0228247D01*
X0154422Y0221315D02*
X0154422Y0219380D01*
X0154422Y0220348D02*
X0151520Y0220348D01*
X0152487Y0219380D01*
X0152004Y0218369D02*
X0153939Y0218369D01*
X0154422Y0217885D01*
X0154422Y0216917D01*
X0153939Y0216434D01*
X0152004Y0216434D01*
X0151520Y0216917D01*
X0151520Y0217885D01*
X0152004Y0218369D01*
X0153455Y0217401D02*
X0154422Y0218369D01*
X0153918Y0212792D02*
X0154402Y0212308D01*
X0154402Y0211340D01*
X0153918Y0210857D01*
X0153918Y0209845D02*
X0151500Y0209845D01*
X0151983Y0210857D02*
X0151500Y0211340D01*
X0151500Y0212308D01*
X0151983Y0212792D01*
X0152467Y0212792D01*
X0152951Y0212308D01*
X0153435Y0212792D01*
X0153918Y0212792D01*
X0152951Y0212308D02*
X0152951Y0211824D01*
X0153918Y0209845D02*
X0154402Y0209361D01*
X0154402Y0208394D01*
X0153918Y0207910D01*
X0151500Y0207910D01*
X0156422Y0207962D02*
X0156422Y0209413D01*
X0156905Y0209897D01*
X0157873Y0209897D01*
X0158357Y0209413D01*
X0158357Y0207962D01*
X0159324Y0207962D02*
X0156422Y0207962D01*
X0158357Y0208929D02*
X0159324Y0209897D01*
X0158840Y0210908D02*
X0159324Y0211392D01*
X0159324Y0212359D01*
X0158840Y0212843D01*
X0156905Y0212843D01*
X0156422Y0212359D01*
X0156422Y0211392D01*
X0156905Y0210908D01*
X0157389Y0210908D01*
X0157873Y0211392D01*
X0157873Y0212843D01*
X0161298Y0212430D02*
X0161298Y0211462D01*
X0161782Y0210978D01*
X0161298Y0209967D02*
X0161298Y0208032D01*
X0164200Y0208032D01*
X0162749Y0208032D02*
X0162749Y0208999D01*
X0164200Y0210978D02*
X0162266Y0212913D01*
X0161782Y0212913D01*
X0161298Y0212430D01*
X0164200Y0212913D02*
X0164200Y0210978D01*
X0166072Y0211524D02*
X0166555Y0211040D01*
X0166072Y0211524D02*
X0166072Y0212492D01*
X0166555Y0212975D01*
X0167039Y0212975D01*
X0168974Y0211040D01*
X0168974Y0212975D01*
X0168490Y0210029D02*
X0166555Y0210029D01*
X0166072Y0209545D01*
X0166072Y0208094D01*
X0168974Y0208094D01*
X0168974Y0209545D01*
X0168490Y0210029D01*
X0193358Y0169964D02*
X0192874Y0169480D01*
X0192874Y0167545D01*
X0193358Y0167062D01*
X0194325Y0167062D01*
X0194809Y0167545D01*
X0195821Y0167545D02*
X0196304Y0167062D01*
X0197272Y0167062D01*
X0197756Y0167545D01*
X0197756Y0169480D01*
X0197272Y0169964D01*
X0196304Y0169964D01*
X0195821Y0169480D01*
X0195821Y0168997D01*
X0196304Y0168513D01*
X0197756Y0168513D01*
X0194809Y0169480D02*
X0194325Y0169964D01*
X0193358Y0169964D01*
X0193000Y0165084D02*
X0194452Y0165084D01*
X0194935Y0164601D01*
X0194935Y0163633D01*
X0194452Y0163149D01*
X0193000Y0163149D01*
X0193000Y0162182D02*
X0193000Y0165084D01*
X0193968Y0163149D02*
X0194935Y0162182D01*
X0195947Y0162666D02*
X0196431Y0162182D01*
X0197398Y0162182D01*
X0197882Y0162666D01*
X0197882Y0163149D01*
X0197398Y0163633D01*
X0196914Y0163633D01*
X0197398Y0163633D02*
X0197882Y0164117D01*
X0197882Y0164601D01*
X0197398Y0165084D01*
X0196431Y0165084D01*
X0195947Y0164601D01*
X0229524Y0153630D02*
X0229524Y0151696D01*
X0230008Y0151212D01*
X0230975Y0151212D01*
X0231459Y0151696D01*
X0232471Y0151696D02*
X0232954Y0151212D01*
X0233922Y0151212D01*
X0234406Y0151696D01*
X0234406Y0152179D01*
X0233922Y0152663D01*
X0233438Y0152663D01*
X0233922Y0152663D02*
X0234406Y0153147D01*
X0234406Y0153630D01*
X0233922Y0154114D01*
X0232954Y0154114D01*
X0232471Y0153630D01*
X0231459Y0153630D02*
X0230975Y0154114D01*
X0230008Y0154114D01*
X0229524Y0153630D01*
X0236550Y0153751D02*
X0236550Y0151816D01*
X0237034Y0151332D01*
X0238002Y0151332D01*
X0238485Y0151816D01*
X0239497Y0152783D02*
X0241432Y0152783D01*
X0240948Y0151332D02*
X0240948Y0154234D01*
X0239497Y0152783D01*
X0238485Y0153751D02*
X0238002Y0154234D01*
X0237034Y0154234D01*
X0236550Y0153751D01*
X0250622Y0152535D02*
X0250622Y0151568D01*
X0251106Y0151084D01*
X0250622Y0152535D02*
X0251106Y0153019D01*
X0251589Y0153019D01*
X0253524Y0151084D01*
X0253524Y0153019D01*
X0255748Y0153163D02*
X0255748Y0151228D01*
X0257199Y0151228D01*
X0256715Y0152196D01*
X0256715Y0152680D01*
X0257199Y0153163D01*
X0258167Y0153163D01*
X0258650Y0152680D01*
X0258650Y0151712D01*
X0258167Y0151228D01*
X0258167Y0150217D02*
X0258650Y0149733D01*
X0258650Y0148766D01*
X0258167Y0148282D01*
X0256232Y0148282D01*
X0255748Y0148766D01*
X0255748Y0149733D01*
X0256232Y0150217D01*
X0253524Y0150072D02*
X0253524Y0148137D01*
X0250622Y0148137D01*
X0254174Y0143197D02*
X0254174Y0141262D01*
X0254174Y0142229D02*
X0251272Y0142229D01*
X0252239Y0141262D01*
X0251755Y0140250D02*
X0251272Y0140250D01*
X0251755Y0140250D02*
X0252723Y0139283D01*
X0254174Y0139283D01*
X0252723Y0139283D02*
X0251755Y0138315D01*
X0251272Y0138315D01*
X0255722Y0139593D02*
X0256205Y0138626D01*
X0257173Y0137658D01*
X0257173Y0139110D01*
X0257657Y0139593D01*
X0258140Y0139593D01*
X0258624Y0139110D01*
X0258624Y0138142D01*
X0258140Y0137658D01*
X0257173Y0137658D01*
X0258140Y0136647D02*
X0258624Y0136163D01*
X0258624Y0135195D01*
X0258140Y0134712D01*
X0256205Y0134712D01*
X0255722Y0135195D01*
X0255722Y0136163D01*
X0256205Y0136647D01*
X0260848Y0135983D02*
X0261332Y0136467D01*
X0262299Y0136467D01*
X0262783Y0135983D01*
X0262783Y0134532D01*
X0262783Y0135499D02*
X0263751Y0136467D01*
X0263751Y0137478D02*
X0263267Y0137478D01*
X0261332Y0139413D01*
X0260848Y0139413D01*
X0260848Y0137478D01*
X0260848Y0135983D02*
X0260848Y0134532D01*
X0263751Y0134532D01*
X0258167Y0141682D02*
X0258650Y0142166D01*
X0258650Y0143133D01*
X0258167Y0143617D01*
X0258167Y0144628D02*
X0258650Y0144628D01*
X0258167Y0144628D02*
X0256232Y0146563D01*
X0255748Y0146563D01*
X0255748Y0144628D01*
X0256232Y0143617D02*
X0255748Y0143133D01*
X0255748Y0142166D01*
X0256232Y0141682D01*
X0258167Y0141682D01*
X0257757Y0155662D02*
X0257757Y0157113D01*
X0257273Y0157597D01*
X0256305Y0157597D01*
X0255822Y0157113D01*
X0255822Y0155662D01*
X0258724Y0155662D01*
X0257757Y0156629D02*
X0258724Y0157597D01*
X0258240Y0158608D02*
X0257757Y0158608D01*
X0257273Y0159092D01*
X0257273Y0160059D01*
X0257757Y0160543D01*
X0258240Y0160543D01*
X0258724Y0160059D01*
X0258724Y0159092D01*
X0258240Y0158608D01*
X0257273Y0159092D02*
X0256789Y0158608D01*
X0256305Y0158608D01*
X0255822Y0159092D01*
X0255822Y0160059D01*
X0256305Y0160543D01*
X0256789Y0160543D01*
X0257273Y0160059D01*
X0253700Y0159980D02*
X0253700Y0159012D01*
X0253217Y0158528D01*
X0252733Y0158528D01*
X0252249Y0159012D01*
X0252249Y0159980D01*
X0252733Y0160463D01*
X0253217Y0160463D01*
X0253700Y0159980D01*
X0252249Y0159980D02*
X0251766Y0160463D01*
X0251282Y0160463D01*
X0250798Y0159980D01*
X0250798Y0159012D01*
X0251282Y0158528D01*
X0251766Y0158528D01*
X0252249Y0159012D01*
X0251282Y0157517D02*
X0250798Y0157033D01*
X0250798Y0156066D01*
X0251282Y0155582D01*
X0253217Y0155582D01*
X0253700Y0156066D01*
X0253700Y0157033D01*
X0253217Y0157517D01*
X0158174Y0150693D02*
X0158174Y0148758D01*
X0158174Y0149726D02*
X0155272Y0149726D01*
X0156239Y0148758D01*
X0155755Y0147747D02*
X0155272Y0147263D01*
X0155272Y0146296D01*
X0155755Y0145812D01*
X0157690Y0145812D01*
X0158174Y0146296D01*
X0158174Y0147263D01*
X0157690Y0147747D01*
X0157774Y0154642D02*
X0154638Y0157778D01*
X0156206Y0157778D02*
X0156206Y0154642D01*
X0154638Y0154642D02*
X0157774Y0157778D01*
X0157774Y0156210D02*
X0154638Y0156210D01*
X0155696Y0261660D02*
X0155696Y0263762D01*
X0156746Y0263762D01*
X0157097Y0263412D01*
X0157097Y0262711D01*
X0156746Y0262361D01*
X0155696Y0262361D01*
X0157905Y0262361D02*
X0157905Y0263762D01*
X0157905Y0263061D02*
X0158606Y0263762D01*
X0158956Y0263762D01*
X0159747Y0263412D02*
X0159747Y0262711D01*
X0160097Y0262361D01*
X0160798Y0262361D01*
X0161148Y0262711D01*
X0161148Y0263412D01*
X0160798Y0263762D01*
X0160097Y0263762D01*
X0159747Y0263412D01*
X0161957Y0261660D02*
X0162307Y0261660D01*
X0162657Y0262011D01*
X0162657Y0263762D01*
X0162657Y0264463D02*
X0162657Y0264813D01*
X0163780Y0263762D02*
X0164481Y0263762D01*
X0164831Y0263412D01*
X0164831Y0263061D01*
X0163430Y0263061D01*
X0163430Y0262711D02*
X0163430Y0263412D01*
X0163780Y0263762D01*
X0163430Y0262711D02*
X0163780Y0262361D01*
X0164481Y0262361D01*
X0165640Y0262711D02*
X0165990Y0262361D01*
X0167041Y0262361D01*
X0168200Y0262711D02*
X0168550Y0262361D01*
X0168200Y0262711D02*
X0168200Y0264112D01*
X0167850Y0263762D02*
X0168550Y0263762D01*
X0167041Y0263762D02*
X0165990Y0263762D01*
X0165640Y0263412D01*
X0165640Y0262711D01*
X0171533Y0262361D02*
X0172584Y0262361D01*
X0172934Y0262711D01*
X0172934Y0263412D01*
X0172584Y0263762D01*
X0171533Y0263762D01*
X0171533Y0264463D02*
X0171533Y0262361D01*
X0173743Y0262711D02*
X0174093Y0262361D01*
X0175144Y0262361D01*
X0175144Y0262011D02*
X0174794Y0261660D01*
X0174444Y0261660D01*
X0175144Y0262011D02*
X0175144Y0263762D01*
X0173743Y0263762D02*
X0173743Y0262711D01*
X0152713Y0262361D02*
X0152012Y0262361D01*
X0152363Y0262361D02*
X0152363Y0264463D01*
X0152012Y0264463D01*
X0151204Y0263412D02*
X0151204Y0262361D01*
X0150153Y0262361D01*
X0149803Y0262711D01*
X0150153Y0263061D01*
X0151204Y0263061D01*
X0151204Y0263412D02*
X0150853Y0263762D01*
X0150153Y0263762D01*
X0148994Y0263412D02*
X0148994Y0262361D01*
X0148994Y0263412D02*
X0148644Y0263762D01*
X0147593Y0263762D01*
X0147593Y0262361D01*
X0146784Y0262711D02*
X0146434Y0262361D01*
X0145733Y0262361D01*
X0145383Y0262711D01*
X0145383Y0263412D01*
X0145733Y0263762D01*
X0146434Y0263762D01*
X0146784Y0263412D01*
X0146784Y0262711D01*
X0144610Y0262361D02*
X0143910Y0262361D01*
X0144260Y0262361D02*
X0144260Y0263762D01*
X0143910Y0263762D01*
X0143137Y0263762D02*
X0142436Y0263762D01*
X0142787Y0264112D02*
X0142787Y0262711D01*
X0143137Y0262361D01*
X0141628Y0262361D02*
X0140577Y0262361D01*
X0140226Y0262711D01*
X0140577Y0263061D01*
X0141628Y0263061D01*
X0141628Y0263412D02*
X0141628Y0262361D01*
X0141628Y0263412D02*
X0141277Y0263762D01*
X0140577Y0263762D01*
X0139418Y0263762D02*
X0138367Y0263762D01*
X0138017Y0263412D01*
X0138017Y0262711D01*
X0138367Y0262361D01*
X0139418Y0262361D01*
X0137208Y0262361D02*
X0137208Y0263762D01*
X0137208Y0262361D02*
X0136157Y0262361D01*
X0135807Y0262711D01*
X0135807Y0263762D01*
X0134998Y0263762D02*
X0133947Y0263762D01*
X0133597Y0263412D01*
X0133597Y0262711D01*
X0133947Y0262361D01*
X0134998Y0262361D01*
X0134998Y0264463D01*
X0132788Y0263412D02*
X0132788Y0263061D01*
X0131387Y0263061D01*
X0131387Y0262711D02*
X0131387Y0263412D01*
X0131737Y0263762D01*
X0132438Y0263762D01*
X0132788Y0263412D01*
X0132438Y0262361D02*
X0131737Y0262361D01*
X0131387Y0262711D01*
X0128368Y0262361D02*
X0128368Y0263412D01*
X0128018Y0263762D01*
X0126967Y0263762D01*
X0126967Y0262361D01*
X0126158Y0262361D02*
X0126158Y0263762D01*
X0125458Y0264463D01*
X0124757Y0263762D01*
X0124757Y0262361D01*
X0124757Y0263412D02*
X0126158Y0263412D01*
X0144260Y0264463D02*
X0144260Y0264813D01*
D13*
X0230530Y0305441D03*
D14*
X0226614Y0305463D03*
D15*
X0224425Y0305485D03*
X0224469Y0333601D03*
D16*
X0224469Y0333579D03*
X0224469Y0333557D03*
X0224425Y0305529D03*
X0224425Y0305507D03*
D17*
X0224425Y0305551D03*
D18*
X0224414Y0305573D03*
D19*
X0224425Y0305595D03*
D20*
X0224414Y0305617D03*
D21*
X0224425Y0305639D03*
X0224469Y0333447D03*
D22*
X0224469Y0333425D03*
X0224469Y0333403D03*
X0224425Y0305683D03*
X0224425Y0305661D03*
D23*
X0224425Y0305705D03*
X0224469Y0333381D03*
D24*
X0224480Y0333359D03*
X0224414Y0305727D03*
D25*
X0224425Y0305749D03*
X0224469Y0333337D03*
D26*
X0224469Y0333315D03*
X0224469Y0333293D03*
X0224425Y0305793D03*
X0224425Y0305771D03*
D27*
X0224425Y0305815D03*
X0224425Y0305837D03*
D28*
X0224425Y0305859D03*
D29*
X0224414Y0305881D03*
D30*
X0224425Y0305903D03*
X0224469Y0333183D03*
D31*
X0224469Y0333161D03*
X0224469Y0333139D03*
X0224425Y0305947D03*
X0224425Y0305925D03*
D32*
X0224425Y0305969D03*
X0224425Y0305991D03*
X0224469Y0333095D03*
X0224469Y0333117D03*
D33*
X0224469Y0333073D03*
X0224425Y0306013D03*
D34*
X0224414Y0306035D03*
D35*
X0224425Y0306057D03*
D36*
X0224425Y0306079D03*
X0224425Y0306101D03*
D37*
X0224425Y0306123D03*
X0224425Y0306145D03*
X0224469Y0332941D03*
X0224469Y0332963D03*
D38*
X0224469Y0332919D03*
X0224425Y0306167D03*
D39*
X0224425Y0306189D03*
X0224425Y0306211D03*
X0224469Y0332875D03*
X0224469Y0332897D03*
D40*
X0224469Y0332853D03*
X0224469Y0332831D03*
X0224425Y0306255D03*
X0224425Y0306233D03*
D41*
X0224425Y0306277D03*
X0224425Y0306299D03*
D42*
X0224425Y0306321D03*
D43*
X0224425Y0306343D03*
X0224425Y0306365D03*
X0224469Y0332721D03*
X0224469Y0332743D03*
D44*
X0224469Y0332699D03*
X0224469Y0332677D03*
X0224425Y0306409D03*
X0224425Y0306387D03*
D45*
X0224425Y0306431D03*
X0224469Y0332655D03*
D46*
X0224469Y0332633D03*
X0224469Y0332611D03*
X0224425Y0306475D03*
X0224425Y0306453D03*
D47*
X0224425Y0306497D03*
X0224425Y0306519D03*
D48*
X0224425Y0306541D03*
X0224425Y0306563D03*
D49*
X0224425Y0306585D03*
X0224469Y0332501D03*
D50*
X0224469Y0332479D03*
X0224469Y0332457D03*
X0224425Y0306629D03*
X0224425Y0306607D03*
D51*
X0224425Y0306651D03*
X0224425Y0306673D03*
X0224469Y0332413D03*
X0224469Y0332435D03*
D52*
X0224469Y0332391D03*
X0224469Y0332369D03*
X0224425Y0306717D03*
X0224425Y0306695D03*
D53*
X0224425Y0306739D03*
X0224469Y0332347D03*
D54*
X0224425Y0306783D03*
X0224425Y0306761D03*
D55*
X0224425Y0306805D03*
X0224425Y0306827D03*
D56*
X0224425Y0306849D03*
X0224469Y0332237D03*
D57*
X0224458Y0332215D03*
X0224436Y0306871D03*
D58*
X0224425Y0306893D03*
X0224469Y0332193D03*
D59*
X0224469Y0332171D03*
X0224469Y0332149D03*
X0224425Y0306937D03*
X0224425Y0306915D03*
D60*
X0224425Y0306959D03*
X0224425Y0306981D03*
X0224469Y0332105D03*
X0224469Y0332127D03*
D61*
X0224425Y0307003D03*
D62*
X0224436Y0307025D03*
D63*
X0224425Y0307047D03*
D64*
X0224425Y0307069D03*
X0224425Y0307091D03*
X0224469Y0331995D03*
X0224469Y0332017D03*
D65*
X0224469Y0331973D03*
X0224425Y0307113D03*
D66*
X0224436Y0307135D03*
X0224458Y0331951D03*
D67*
X0224469Y0331929D03*
X0224425Y0307157D03*
D68*
X0224436Y0307179D03*
X0224458Y0331907D03*
D69*
X0224469Y0331885D03*
X0224425Y0307201D03*
D70*
X0224425Y0307223D03*
X0224425Y0307245D03*
D71*
X0224425Y0307267D03*
D72*
X0224436Y0307289D03*
X0224458Y0331797D03*
D73*
X0224469Y0331775D03*
X0224425Y0307311D03*
D74*
X0224436Y0307333D03*
X0224458Y0331753D03*
D75*
X0224469Y0331731D03*
X0224425Y0307355D03*
D76*
X0224425Y0307377D03*
X0224425Y0307399D03*
X0224469Y0331709D03*
D77*
X0224469Y0331665D03*
X0224425Y0307421D03*
D78*
X0224436Y0307443D03*
X0224458Y0331643D03*
D79*
X0224425Y0307465D03*
D80*
X0224436Y0307487D03*
D81*
X0224425Y0307509D03*
D82*
X0224425Y0307531D03*
X0224469Y0331555D03*
D83*
X0224458Y0331533D03*
X0224436Y0307553D03*
D84*
X0224425Y0307575D03*
X0224469Y0331511D03*
D85*
X0224458Y0331489D03*
X0224436Y0307597D03*
D86*
X0224425Y0307619D03*
X0224469Y0331467D03*
D87*
X0224458Y0331445D03*
X0224436Y0307641D03*
D88*
X0224425Y0307663D03*
X0224469Y0331423D03*
D89*
X0224469Y0331401D03*
X0224425Y0307685D03*
D90*
X0224436Y0307707D03*
X0224458Y0331379D03*
D91*
X0224425Y0307729D03*
D92*
X0224436Y0307751D03*
D93*
X0224425Y0307773D03*
D94*
X0224425Y0307795D03*
X0224469Y0331291D03*
D95*
X0224458Y0331269D03*
X0224436Y0307817D03*
D96*
X0224425Y0307839D03*
X0224469Y0331247D03*
D97*
X0224458Y0331225D03*
X0224436Y0307861D03*
D98*
X0224425Y0307883D03*
X0224469Y0331203D03*
D99*
X0224458Y0331181D03*
X0224436Y0307905D03*
D100*
X0224425Y0307927D03*
X0224469Y0331159D03*
D101*
X0224425Y0307949D03*
D102*
X0224436Y0307971D03*
D103*
X0224425Y0307993D03*
D104*
X0224436Y0308015D03*
X0224458Y0331071D03*
D105*
X0224469Y0331049D03*
X0224425Y0308037D03*
D106*
X0224436Y0308059D03*
X0224458Y0331027D03*
D107*
X0224458Y0331005D03*
X0224436Y0308081D03*
D108*
X0224425Y0308103D03*
X0224469Y0330983D03*
D109*
X0224458Y0330961D03*
X0224436Y0308125D03*
D110*
X0224425Y0308147D03*
X0224469Y0330939D03*
D111*
X0224458Y0330917D03*
X0224436Y0308169D03*
D112*
X0224425Y0308191D03*
D113*
X0224436Y0308213D03*
D114*
X0224436Y0308235D03*
X0224458Y0330851D03*
D115*
X0224469Y0330829D03*
X0224425Y0308257D03*
D116*
X0224436Y0308279D03*
X0224458Y0330807D03*
D117*
X0224469Y0330785D03*
X0224425Y0308301D03*
D118*
X0224436Y0308323D03*
X0224458Y0330763D03*
D119*
X0224469Y0330741D03*
X0224425Y0308345D03*
D120*
X0224436Y0308367D03*
X0224458Y0330719D03*
D121*
X0224458Y0330697D03*
X0224436Y0308389D03*
D122*
X0224425Y0308411D03*
D123*
X0224436Y0308433D03*
D124*
X0224425Y0308455D03*
D125*
X0224436Y0308477D03*
X0224458Y0330609D03*
D126*
X0224458Y0330587D03*
X0224458Y0330565D03*
X0224436Y0308521D03*
X0224436Y0308499D03*
D127*
X0224436Y0308543D03*
X0224458Y0330543D03*
D128*
X0224469Y0330521D03*
X0224425Y0308565D03*
D129*
X0224436Y0308587D03*
X0224458Y0330499D03*
D130*
X0224469Y0330477D03*
X0224425Y0308609D03*
D131*
X0224436Y0308631D03*
X0224458Y0330455D03*
D132*
X0224458Y0330433D03*
X0224458Y0330411D03*
X0224436Y0308675D03*
X0224436Y0308653D03*
D133*
X0224436Y0308697D03*
D134*
X0224425Y0308719D03*
D135*
X0224436Y0308741D03*
X0224458Y0330345D03*
D136*
X0224458Y0330323D03*
X0224458Y0330301D03*
X0224436Y0308785D03*
X0224436Y0308763D03*
D137*
X0224436Y0308807D03*
X0224436Y0308829D03*
X0224458Y0330257D03*
X0224458Y0330279D03*
D138*
X0224458Y0330235D03*
X0224436Y0308851D03*
D139*
X0224425Y0308873D03*
X0224469Y0330213D03*
D140*
X0224458Y0330191D03*
X0224436Y0308895D03*
D141*
X0224436Y0308917D03*
X0224436Y0308939D03*
D142*
X0224436Y0308961D03*
X0224436Y0308983D03*
X0224458Y0330103D03*
X0224458Y0330125D03*
D143*
X0224458Y0330081D03*
X0224436Y0309005D03*
D144*
X0224425Y0309027D03*
X0224469Y0330059D03*
D145*
X0224458Y0330037D03*
X0224436Y0309049D03*
D146*
X0224436Y0309071D03*
X0224436Y0309093D03*
X0224458Y0329993D03*
X0224458Y0330015D03*
D147*
X0224458Y0329971D03*
X0224436Y0309115D03*
D148*
X0224425Y0309137D03*
D149*
X0224436Y0309159D03*
D150*
X0224436Y0309181D03*
X0224436Y0309203D03*
X0224458Y0329883D03*
X0224458Y0329905D03*
D151*
X0224458Y0329861D03*
X0224458Y0329839D03*
X0224436Y0309247D03*
X0224436Y0309225D03*
D152*
X0224436Y0309269D03*
X0224458Y0329817D03*
D153*
X0224469Y0329795D03*
X0224425Y0309291D03*
D154*
X0224436Y0309313D03*
X0224458Y0329773D03*
D155*
X0224458Y0329751D03*
X0224458Y0329729D03*
X0224436Y0309357D03*
X0224436Y0309335D03*
D156*
X0224436Y0309379D03*
X0224436Y0309401D03*
D157*
X0224436Y0309423D03*
X0224458Y0329663D03*
D158*
X0224458Y0329641D03*
X0224458Y0329619D03*
X0224436Y0309467D03*
X0224436Y0309445D03*
D159*
X0224436Y0309489D03*
X0224436Y0309511D03*
X0224458Y0329575D03*
X0224458Y0329597D03*
D160*
X0224458Y0329553D03*
X0224458Y0329531D03*
X0224436Y0309555D03*
X0224436Y0309533D03*
D161*
X0224436Y0309577D03*
X0224458Y0329509D03*
D162*
X0224458Y0329487D03*
X0224458Y0329465D03*
X0224436Y0309621D03*
X0224436Y0309599D03*
D163*
X0224436Y0309643D03*
X0224436Y0309665D03*
D164*
X0224436Y0309687D03*
X0224436Y0309709D03*
X0224458Y0329399D03*
D165*
X0224458Y0329355D03*
X0224436Y0309731D03*
D166*
X0224436Y0309753D03*
X0224436Y0309775D03*
X0224458Y0329311D03*
X0224458Y0329333D03*
D167*
X0224458Y0329289D03*
X0224458Y0329267D03*
X0224436Y0309819D03*
X0224436Y0309797D03*
D168*
X0224436Y0309841D03*
X0224458Y0329245D03*
D169*
X0224447Y0329223D03*
X0224447Y0309863D03*
D170*
X0224436Y0309885D03*
D171*
X0224436Y0309907D03*
X0224436Y0309929D03*
X0224458Y0329157D03*
X0224458Y0329179D03*
D172*
X0224458Y0329135D03*
X0224458Y0329113D03*
X0224436Y0309973D03*
X0224436Y0309951D03*
D173*
X0224436Y0309995D03*
X0224458Y0329091D03*
D174*
X0224447Y0329069D03*
X0224447Y0310017D03*
D175*
X0224436Y0310039D03*
X0224458Y0329047D03*
D176*
X0224458Y0329025D03*
X0224458Y0329003D03*
X0224436Y0310083D03*
X0224436Y0310061D03*
D177*
X0224436Y0310105D03*
D178*
X0224447Y0310127D03*
X0224447Y0328959D03*
D179*
X0224458Y0328937D03*
X0224436Y0310149D03*
D180*
X0224447Y0310171D03*
X0224447Y0328915D03*
D181*
X0224458Y0328893D03*
X0224436Y0310193D03*
D182*
X0224436Y0310215D03*
X0224436Y0310237D03*
X0224458Y0328849D03*
X0224458Y0328871D03*
D183*
X0224458Y0328827D03*
X0224436Y0310259D03*
D184*
X0224447Y0310281D03*
X0224447Y0328805D03*
D185*
X0224458Y0328783D03*
X0224436Y0310303D03*
D186*
X0224447Y0310325D03*
X0224447Y0328761D03*
D187*
X0224436Y0310347D03*
D188*
X0224436Y0310369D03*
X0224458Y0328717D03*
D189*
X0224447Y0328695D03*
X0224447Y0310391D03*
D190*
X0224436Y0310413D03*
X0224458Y0328673D03*
D191*
X0224447Y0328651D03*
X0224447Y0310435D03*
D192*
X0224436Y0310457D03*
X0224458Y0328629D03*
D193*
X0224447Y0328607D03*
X0224447Y0310479D03*
D194*
X0224436Y0310501D03*
X0224458Y0328585D03*
D195*
X0224458Y0328563D03*
X0224436Y0310523D03*
D196*
X0224447Y0310545D03*
X0224447Y0328541D03*
D197*
X0224458Y0328519D03*
X0224436Y0310567D03*
D198*
X0224447Y0310589D03*
X0224447Y0328497D03*
D199*
X0224436Y0310611D03*
D200*
X0224436Y0310633D03*
X0224436Y0310655D03*
X0224458Y0328431D03*
X0224458Y0328453D03*
D201*
X0224458Y0328409D03*
X0224436Y0310677D03*
D202*
X0224447Y0310699D03*
X0224447Y0328387D03*
D203*
X0224458Y0328365D03*
X0224436Y0310721D03*
D204*
X0224447Y0310743D03*
X0224447Y0328343D03*
D205*
X0224458Y0328321D03*
X0224436Y0310765D03*
D206*
X0224436Y0310787D03*
X0224458Y0328299D03*
D207*
X0224447Y0328277D03*
X0224447Y0310809D03*
D208*
X0224436Y0310831D03*
D209*
X0224447Y0310853D03*
X0224447Y0328233D03*
D210*
X0224458Y0328211D03*
X0224436Y0310875D03*
D211*
X0224447Y0310897D03*
X0224447Y0328189D03*
D212*
X0224458Y0328167D03*
X0224436Y0310919D03*
D213*
X0224436Y0310941D03*
X0224458Y0328145D03*
D214*
X0224447Y0328123D03*
X0224447Y0310963D03*
D215*
X0224436Y0310985D03*
X0224458Y0328101D03*
D216*
X0224447Y0328079D03*
X0224447Y0311007D03*
D217*
X0224436Y0311029D03*
X0224458Y0328057D03*
D218*
X0224447Y0328035D03*
X0224447Y0311051D03*
D219*
X0224447Y0311073D03*
X0224447Y0328013D03*
D220*
X0224458Y0327991D03*
X0224436Y0311095D03*
D221*
X0224447Y0311117D03*
X0224447Y0327969D03*
D222*
X0224458Y0327947D03*
X0224436Y0311139D03*
D223*
X0224447Y0311161D03*
X0224447Y0327925D03*
D224*
X0224458Y0327903D03*
X0224436Y0311183D03*
D225*
X0224447Y0311205D03*
X0224447Y0327881D03*
D226*
X0224447Y0327859D03*
X0224447Y0311227D03*
D227*
X0224436Y0311249D03*
X0224458Y0327837D03*
D228*
X0224447Y0327815D03*
X0224447Y0311271D03*
D229*
X0224436Y0311293D03*
D230*
X0224447Y0311315D03*
X0224447Y0327771D03*
D231*
X0224458Y0327749D03*
X0224436Y0311337D03*
D232*
X0224447Y0311359D03*
X0224447Y0327727D03*
D233*
X0224447Y0327705D03*
X0224447Y0311381D03*
D234*
X0224436Y0311403D03*
X0224458Y0327683D03*
D235*
X0224447Y0327661D03*
X0224447Y0311425D03*
D236*
X0224436Y0311447D03*
X0224458Y0327639D03*
D237*
X0224447Y0327617D03*
X0224447Y0311469D03*
D238*
X0224447Y0311491D03*
X0224447Y0311513D03*
X0224447Y0327573D03*
X0224447Y0327595D03*
D239*
X0224447Y0327551D03*
X0224447Y0311535D03*
D240*
X0224436Y0311557D03*
D241*
X0224447Y0311579D03*
X0224447Y0327507D03*
D242*
X0224458Y0327485D03*
X0224436Y0311601D03*
D243*
X0224447Y0311623D03*
X0224447Y0327463D03*
D244*
X0218782Y0311645D03*
D245*
X0211764Y0319587D03*
X0211786Y0319631D03*
X0211808Y0319675D03*
X0211830Y0319719D03*
X0211852Y0319741D03*
X0211874Y0319785D03*
X0211896Y0319829D03*
X0211940Y0319895D03*
X0211962Y0319939D03*
X0211984Y0319983D03*
X0212006Y0320005D03*
X0212028Y0320049D03*
X0212050Y0320093D03*
X0212094Y0320159D03*
X0212116Y0320203D03*
X0212138Y0320247D03*
X0212160Y0320269D03*
X0212182Y0320313D03*
X0212204Y0320357D03*
X0212226Y0320401D03*
X0212248Y0320423D03*
X0212270Y0320467D03*
X0212292Y0320511D03*
X0212314Y0320533D03*
X0212336Y0320577D03*
X0212358Y0320621D03*
X0212380Y0320665D03*
X0212402Y0320687D03*
X0212424Y0320731D03*
X0212446Y0320775D03*
X0212490Y0320841D03*
X0212512Y0320885D03*
X0212534Y0320929D03*
X0212556Y0320951D03*
X0212578Y0320995D03*
X0212600Y0321039D03*
X0212622Y0321083D03*
X0212644Y0321105D03*
X0212666Y0321149D03*
X0212688Y0321193D03*
X0212710Y0321215D03*
X0212732Y0321259D03*
X0212754Y0321303D03*
X0212776Y0321347D03*
X0212798Y0321369D03*
X0212820Y0321413D03*
X0212842Y0321457D03*
X0212886Y0321523D03*
X0212908Y0321567D03*
X0212930Y0321611D03*
X0212952Y0321633D03*
X0212974Y0321677D03*
X0212996Y0321721D03*
X0213018Y0321765D03*
X0213040Y0321787D03*
X0213062Y0321831D03*
X0213084Y0321875D03*
X0213106Y0321897D03*
X0213128Y0321941D03*
X0213150Y0321985D03*
X0213172Y0322029D03*
X0213194Y0322051D03*
X0213216Y0322095D03*
X0213238Y0322139D03*
X0213282Y0322205D03*
X0213304Y0322249D03*
X0213326Y0322293D03*
X0213348Y0322315D03*
X0213370Y0322359D03*
X0213392Y0322403D03*
X0213436Y0322469D03*
X0213458Y0322513D03*
X0213480Y0322557D03*
X0213502Y0322579D03*
X0213524Y0322623D03*
X0213546Y0322667D03*
X0213568Y0322711D03*
X0213590Y0322733D03*
X0213612Y0322777D03*
X0213634Y0322821D03*
X0213656Y0322843D03*
X0213678Y0322887D03*
X0213700Y0322931D03*
X0213722Y0322975D03*
X0213744Y0322997D03*
X0213766Y0323041D03*
X0213788Y0323085D03*
X0213832Y0323151D03*
X0213854Y0323195D03*
X0213876Y0323239D03*
X0213898Y0323261D03*
X0213920Y0323305D03*
X0213942Y0323349D03*
X0213964Y0323393D03*
X0213986Y0323415D03*
X0214008Y0323459D03*
X0214030Y0323503D03*
X0214052Y0323525D03*
X0214074Y0323569D03*
X0214096Y0323613D03*
X0214118Y0323657D03*
X0214140Y0323679D03*
X0214162Y0323723D03*
X0214184Y0323767D03*
X0214228Y0323833D03*
X0214250Y0323877D03*
X0214272Y0323921D03*
X0214294Y0323943D03*
X0214316Y0323987D03*
X0214338Y0324031D03*
X0214360Y0324075D03*
X0214382Y0324097D03*
X0214404Y0324141D03*
X0214426Y0324185D03*
X0214448Y0324207D03*
X0214470Y0324251D03*
X0214492Y0324295D03*
X0214514Y0324339D03*
X0214536Y0324361D03*
X0214558Y0324405D03*
X0214580Y0324449D03*
X0214624Y0324515D03*
X0214646Y0324559D03*
X0214668Y0324603D03*
X0214690Y0324625D03*
X0214712Y0324669D03*
X0214734Y0324713D03*
X0214778Y0324779D03*
X0214800Y0324823D03*
X0214822Y0324867D03*
X0214844Y0324889D03*
X0214866Y0324933D03*
X0214888Y0324977D03*
X0214910Y0325021D03*
X0214932Y0325043D03*
X0214954Y0325087D03*
X0214976Y0325131D03*
X0215020Y0325197D03*
X0215042Y0325241D03*
X0215064Y0325285D03*
X0215086Y0325307D03*
X0215108Y0325351D03*
X0215130Y0325395D03*
X0215174Y0325461D03*
X0215196Y0325505D03*
X0215218Y0325549D03*
X0215240Y0325571D03*
X0215262Y0325615D03*
X0215284Y0325659D03*
X0215306Y0325703D03*
X0215328Y0325725D03*
X0215350Y0325769D03*
X0215372Y0325813D03*
X0215394Y0325835D03*
X0215416Y0325879D03*
X0215438Y0325923D03*
X0215460Y0325967D03*
X0215482Y0325989D03*
X0215504Y0326033D03*
X0215526Y0326077D03*
X0215570Y0326143D03*
X0215592Y0326187D03*
X0215614Y0326231D03*
X0215636Y0326253D03*
X0215658Y0326297D03*
X0215680Y0326341D03*
X0215702Y0326385D03*
X0215724Y0326407D03*
X0215746Y0326451D03*
X0215768Y0326495D03*
X0215790Y0326517D03*
X0215812Y0326561D03*
X0215834Y0326605D03*
X0215856Y0326649D03*
X0215878Y0326671D03*
X0215900Y0326715D03*
X0215922Y0326759D03*
X0215966Y0326825D03*
X0215988Y0326869D03*
X0216010Y0326913D03*
X0216032Y0326935D03*
X0216054Y0326979D03*
X0216076Y0327023D03*
X0216120Y0327089D03*
X0216142Y0327133D03*
X0216164Y0327177D03*
X0216186Y0327199D03*
X0216208Y0327243D03*
X0216230Y0327287D03*
X0216252Y0327331D03*
X0216274Y0327353D03*
X0216296Y0327397D03*
X0216318Y0327441D03*
X0235238Y0316243D03*
X0235260Y0316265D03*
X0235282Y0316309D03*
X0235304Y0316353D03*
X0235326Y0316375D03*
X0235348Y0316419D03*
X0235370Y0316463D03*
X0235392Y0316507D03*
X0235414Y0316529D03*
X0235436Y0316573D03*
X0235458Y0316617D03*
X0235502Y0316683D03*
X0235524Y0316727D03*
X0235546Y0316771D03*
X0235568Y0316793D03*
X0235590Y0316837D03*
X0235612Y0316881D03*
X0235634Y0316925D03*
X0235656Y0316947D03*
X0235678Y0316991D03*
X0235700Y0317035D03*
X0235722Y0317057D03*
X0235744Y0317101D03*
X0235766Y0317145D03*
X0235788Y0317189D03*
X0235810Y0317211D03*
X0235832Y0317255D03*
X0235854Y0317299D03*
X0235898Y0317365D03*
X0235920Y0317409D03*
X0235942Y0317453D03*
X0235964Y0317475D03*
X0235986Y0317519D03*
X0236008Y0317563D03*
X0236052Y0317629D03*
X0236074Y0317673D03*
X0236096Y0317717D03*
X0236118Y0317739D03*
X0236140Y0317783D03*
X0236162Y0317827D03*
X0236184Y0317871D03*
X0236206Y0317893D03*
X0236228Y0317937D03*
X0236250Y0317981D03*
X0236272Y0318003D03*
X0236294Y0318047D03*
X0236316Y0318091D03*
X0236338Y0318135D03*
X0236360Y0318157D03*
X0236382Y0318201D03*
X0236404Y0318245D03*
X0236448Y0318311D03*
X0236470Y0318355D03*
X0236492Y0318399D03*
X0236514Y0318421D03*
X0236536Y0318465D03*
X0236558Y0318509D03*
X0236580Y0318553D03*
X0236602Y0318575D03*
X0236624Y0318619D03*
X0236646Y0318663D03*
X0236668Y0318685D03*
X0236690Y0318729D03*
X0236712Y0318773D03*
X0236734Y0318817D03*
X0236756Y0318839D03*
X0236778Y0318883D03*
X0236800Y0318927D03*
X0236844Y0318993D03*
X0236866Y0319037D03*
X0236888Y0319081D03*
X0236910Y0319103D03*
X0236932Y0319147D03*
X0236954Y0319191D03*
X0236976Y0319235D03*
X0236998Y0319257D03*
X0237020Y0319301D03*
X0237042Y0319345D03*
X0237064Y0319367D03*
X0237086Y0319411D03*
X0237108Y0319455D03*
X0237130Y0319499D03*
X0235216Y0316199D03*
X0235194Y0316155D03*
X0235172Y0316111D03*
X0235150Y0316089D03*
X0235128Y0316045D03*
X0235106Y0316001D03*
X0235062Y0315935D03*
X0235040Y0315891D03*
X0235018Y0315847D03*
X0234996Y0315825D03*
X0234974Y0315781D03*
X0234952Y0315737D03*
X0234930Y0315693D03*
X0234908Y0315671D03*
X0234886Y0315627D03*
X0234864Y0315583D03*
X0234842Y0315561D03*
X0234820Y0315517D03*
X0234798Y0315473D03*
X0234776Y0315429D03*
X0234754Y0315407D03*
X0234732Y0315363D03*
X0234710Y0315319D03*
X0234666Y0315253D03*
X0234644Y0315209D03*
X0234622Y0315165D03*
X0234600Y0315143D03*
X0234578Y0315099D03*
X0234556Y0315055D03*
X0234512Y0314989D03*
X0234490Y0314945D03*
X0234468Y0314901D03*
X0234446Y0314879D03*
X0234424Y0314835D03*
X0234402Y0314791D03*
X0234380Y0314747D03*
X0234358Y0314725D03*
X0234336Y0314681D03*
X0234314Y0314637D03*
X0234270Y0314571D03*
X0234248Y0314527D03*
X0234226Y0314483D03*
X0234204Y0314461D03*
X0234182Y0314417D03*
X0234160Y0314373D03*
X0234116Y0314307D03*
X0234094Y0314263D03*
X0234072Y0314219D03*
X0234050Y0314197D03*
X0234028Y0314153D03*
X0234006Y0314109D03*
X0233984Y0314065D03*
X0233962Y0314043D03*
X0233940Y0313999D03*
X0233918Y0313955D03*
X0233896Y0313933D03*
X0233874Y0313889D03*
X0233852Y0313845D03*
X0233830Y0313801D03*
X0233808Y0313779D03*
X0233786Y0313735D03*
X0233764Y0313691D03*
X0233720Y0313625D03*
X0233698Y0313581D03*
X0233676Y0313537D03*
X0233654Y0313515D03*
X0233632Y0313471D03*
X0233610Y0313427D03*
X0233588Y0313383D03*
X0233566Y0313361D03*
X0233544Y0313317D03*
X0233522Y0313273D03*
X0233500Y0313251D03*
X0233478Y0313207D03*
X0233456Y0313163D03*
X0233434Y0313119D03*
X0233412Y0313097D03*
X0233390Y0313053D03*
X0233368Y0313009D03*
X0233324Y0312943D03*
X0233302Y0312899D03*
X0233280Y0312855D03*
X0233258Y0312833D03*
X0233236Y0312789D03*
X0233214Y0312745D03*
X0233170Y0312679D03*
X0233148Y0312635D03*
X0233126Y0312591D03*
X0233104Y0312569D03*
X0233082Y0312525D03*
X0233060Y0312481D03*
X0233038Y0312437D03*
X0233016Y0312415D03*
X0232994Y0312371D03*
X0232972Y0312327D03*
X0232928Y0312261D03*
X0232906Y0312217D03*
X0232884Y0312173D03*
X0232862Y0312151D03*
X0232840Y0312107D03*
X0232818Y0312063D03*
X0232774Y0311997D03*
X0232752Y0311953D03*
X0232730Y0311909D03*
X0232708Y0311887D03*
X0232686Y0311843D03*
X0232664Y0311799D03*
X0232642Y0311755D03*
X0232620Y0311733D03*
X0232598Y0311689D03*
X0232576Y0311645D03*
D246*
X0237108Y0319565D03*
X0237086Y0319609D03*
X0237042Y0319675D03*
X0237020Y0319719D03*
X0236954Y0319829D03*
X0236932Y0319873D03*
X0236910Y0319917D03*
X0236844Y0320027D03*
X0236822Y0320071D03*
X0236778Y0320137D03*
X0236756Y0320181D03*
X0236734Y0320225D03*
X0236690Y0320291D03*
X0236668Y0320335D03*
X0236646Y0320379D03*
X0236624Y0320401D03*
X0236602Y0320445D03*
X0236558Y0320533D03*
X0236536Y0320555D03*
X0236514Y0320599D03*
X0236492Y0320643D03*
X0236426Y0320753D03*
X0236404Y0320797D03*
X0236360Y0320863D03*
X0236338Y0320907D03*
X0236272Y0321017D03*
X0236250Y0321061D03*
X0236228Y0321105D03*
X0236184Y0321171D03*
X0236140Y0321259D03*
X0236096Y0321325D03*
X0236074Y0321369D03*
X0236052Y0321413D03*
X0236008Y0321479D03*
X0235986Y0321523D03*
X0235964Y0321567D03*
X0235942Y0321589D03*
X0235920Y0321633D03*
X0235876Y0321721D03*
X0235854Y0321743D03*
X0235832Y0321787D03*
X0235810Y0321831D03*
X0235788Y0321875D03*
X0235744Y0321941D03*
X0235722Y0321985D03*
X0235700Y0322029D03*
X0235678Y0322051D03*
X0235656Y0322095D03*
X0235634Y0322139D03*
X0235590Y0322205D03*
X0235568Y0322249D03*
X0235546Y0322293D03*
X0235502Y0322359D03*
X0235458Y0322447D03*
X0235414Y0322513D03*
X0235392Y0322557D03*
X0235370Y0322601D03*
X0235326Y0322667D03*
X0235304Y0322711D03*
X0235282Y0322755D03*
X0235238Y0322821D03*
X0235194Y0322909D03*
X0235150Y0322975D03*
X0235128Y0323019D03*
X0235106Y0323063D03*
X0235084Y0323085D03*
X0235040Y0323173D03*
X0235018Y0323217D03*
X0234996Y0323239D03*
X0234974Y0323283D03*
X0234952Y0323327D03*
X0234908Y0323393D03*
X0234886Y0323437D03*
X0234864Y0323481D03*
X0234820Y0323547D03*
X0234776Y0323635D03*
X0234732Y0323701D03*
X0234710Y0323745D03*
X0234688Y0323789D03*
X0234644Y0323855D03*
X0234622Y0323899D03*
X0234600Y0323943D03*
X0234556Y0324009D03*
X0234534Y0324053D03*
X0234468Y0324163D03*
X0234446Y0324207D03*
X0234424Y0324251D03*
X0234358Y0324361D03*
X0234336Y0324405D03*
X0234314Y0324427D03*
X0234292Y0324471D03*
X0234270Y0324515D03*
X0234226Y0324581D03*
X0234204Y0324625D03*
X0234182Y0324669D03*
X0234160Y0324713D03*
X0234138Y0324735D03*
X0234094Y0324823D03*
X0234072Y0324867D03*
X0234050Y0324889D03*
X0234028Y0324933D03*
X0234006Y0324977D03*
X0233940Y0325087D03*
X0233918Y0325131D03*
X0233874Y0325197D03*
X0233852Y0325241D03*
X0233786Y0325351D03*
X0233764Y0325395D03*
X0233742Y0325439D03*
X0233676Y0325549D03*
X0233654Y0325593D03*
X0233610Y0325659D03*
X0233588Y0325703D03*
X0233544Y0325769D03*
X0233522Y0325813D03*
X0233500Y0325857D03*
X0233478Y0325901D03*
X0233456Y0325923D03*
X0233434Y0325967D03*
X0233390Y0326055D03*
X0233368Y0326077D03*
X0233346Y0326121D03*
X0233324Y0326165D03*
X0233302Y0326209D03*
X0233258Y0326275D03*
X0233236Y0326319D03*
X0233192Y0326385D03*
X0233170Y0326429D03*
X0233104Y0326539D03*
X0233082Y0326583D03*
X0233060Y0326627D03*
X0232994Y0326737D03*
X0232972Y0326781D03*
X0232928Y0326847D03*
X0232906Y0326891D03*
X0232884Y0326935D03*
X0232840Y0327001D03*
X0232818Y0327045D03*
X0232796Y0327089D03*
X0232752Y0327155D03*
X0232708Y0327243D03*
X0232686Y0327265D03*
X0232664Y0327309D03*
X0232642Y0327353D03*
X0232620Y0327397D03*
X0213656Y0316265D03*
X0213678Y0316221D03*
X0213700Y0316177D03*
X0213744Y0316111D03*
X0213788Y0316023D03*
X0213810Y0316001D03*
X0213832Y0315957D03*
X0213854Y0315913D03*
X0213876Y0315869D03*
X0213920Y0315803D03*
X0213942Y0315759D03*
X0213964Y0315715D03*
X0213986Y0315693D03*
X0214008Y0315649D03*
X0214074Y0315539D03*
X0214096Y0315495D03*
X0214118Y0315451D03*
X0214184Y0315341D03*
X0214206Y0315297D03*
X0214250Y0315231D03*
X0214272Y0315187D03*
X0214294Y0315143D03*
X0214338Y0315077D03*
X0214360Y0315033D03*
X0214382Y0314989D03*
X0214426Y0314923D03*
X0214470Y0314835D03*
X0214514Y0314769D03*
X0214536Y0314725D03*
X0214558Y0314681D03*
X0214602Y0314615D03*
X0214624Y0314571D03*
X0214646Y0314527D03*
X0214668Y0314505D03*
X0214690Y0314461D03*
X0214734Y0314373D03*
X0214756Y0314351D03*
X0214778Y0314307D03*
X0214800Y0314263D03*
X0214822Y0314219D03*
X0214844Y0314197D03*
X0214888Y0314109D03*
X0214932Y0314043D03*
X0214954Y0313999D03*
X0214976Y0313955D03*
X0215020Y0313889D03*
X0215042Y0313845D03*
X0215064Y0313801D03*
X0215108Y0313735D03*
X0215152Y0313647D03*
X0215196Y0313581D03*
X0215218Y0313537D03*
X0215240Y0313493D03*
X0215284Y0313427D03*
X0215306Y0313383D03*
X0215328Y0313339D03*
X0215350Y0313317D03*
X0215372Y0313273D03*
X0215394Y0313229D03*
X0215438Y0313163D03*
X0215460Y0313119D03*
X0215482Y0313075D03*
X0215504Y0313031D03*
X0215526Y0313009D03*
X0215570Y0312921D03*
X0215592Y0312877D03*
X0215614Y0312855D03*
X0215636Y0312811D03*
X0215658Y0312767D03*
X0215702Y0312701D03*
X0215724Y0312657D03*
X0215746Y0312613D03*
X0215790Y0312547D03*
X0215834Y0312459D03*
X0215878Y0312393D03*
X0215900Y0312349D03*
X0215922Y0312305D03*
X0215988Y0312195D03*
X0216010Y0312151D03*
X0216054Y0312085D03*
X0216076Y0312041D03*
X0216142Y0311931D03*
X0216164Y0311887D03*
X0216186Y0311843D03*
X0216208Y0311821D03*
X0216252Y0311733D03*
X0216274Y0311689D03*
X0216296Y0311667D03*
X0213590Y0316375D03*
X0213568Y0316419D03*
X0213524Y0316485D03*
X0213502Y0316529D03*
X0213436Y0316639D03*
X0213414Y0316683D03*
X0213392Y0316727D03*
X0213326Y0316837D03*
X0213304Y0316881D03*
X0213260Y0316947D03*
X0213238Y0316991D03*
X0213194Y0317057D03*
X0213172Y0317101D03*
X0213150Y0317145D03*
X0213128Y0317189D03*
X0213106Y0317211D03*
X0213084Y0317255D03*
X0213040Y0317343D03*
X0213018Y0317365D03*
X0212996Y0317409D03*
X0212974Y0317453D03*
X0212952Y0317497D03*
X0212908Y0317563D03*
X0212886Y0317607D03*
X0212842Y0317673D03*
X0212820Y0317717D03*
X0212754Y0317827D03*
X0212732Y0317871D03*
X0212710Y0317915D03*
X0212644Y0318025D03*
X0212622Y0318069D03*
X0212578Y0318135D03*
X0212556Y0318179D03*
X0212534Y0318223D03*
X0212490Y0318289D03*
X0212468Y0318333D03*
X0212446Y0318377D03*
X0212402Y0318443D03*
X0212358Y0318531D03*
X0212336Y0318553D03*
X0212314Y0318597D03*
X0212292Y0318641D03*
X0212270Y0318685D03*
X0212226Y0318751D03*
X0212204Y0318795D03*
X0212182Y0318839D03*
X0212160Y0318861D03*
X0212138Y0318905D03*
X0212072Y0319015D03*
X0212050Y0319059D03*
X0212028Y0319103D03*
X0211984Y0319169D03*
X0211940Y0319257D03*
X0211896Y0319323D03*
X0211874Y0319367D03*
X0211852Y0319411D03*
X0211808Y0319477D03*
X0211786Y0319521D03*
X0211764Y0319565D03*
D247*
X0211775Y0319543D03*
X0211797Y0319499D03*
X0211819Y0319455D03*
X0211841Y0319433D03*
X0211863Y0319389D03*
X0211885Y0319345D03*
X0211907Y0319301D03*
X0211929Y0319279D03*
X0211951Y0319235D03*
X0211973Y0319191D03*
X0211995Y0319147D03*
X0212017Y0319125D03*
X0212039Y0319081D03*
X0212061Y0319037D03*
X0212083Y0318993D03*
X0212105Y0318971D03*
X0212127Y0318927D03*
X0212149Y0318883D03*
X0212193Y0318817D03*
X0212215Y0318773D03*
X0212237Y0318729D03*
X0212281Y0318663D03*
X0212303Y0318619D03*
X0212325Y0318575D03*
X0212369Y0318509D03*
X0212391Y0318465D03*
X0212413Y0318421D03*
X0212435Y0318399D03*
X0212457Y0318355D03*
X0212479Y0318311D03*
X0212501Y0318267D03*
X0212523Y0318245D03*
X0212545Y0318201D03*
X0212567Y0318157D03*
X0212589Y0318113D03*
X0212611Y0318091D03*
X0212633Y0318047D03*
X0212655Y0318003D03*
X0212677Y0317959D03*
X0212699Y0317937D03*
X0212721Y0317893D03*
X0212743Y0317849D03*
X0212765Y0317805D03*
X0212787Y0317783D03*
X0212809Y0317739D03*
X0212831Y0317695D03*
X0212853Y0317651D03*
X0212875Y0317629D03*
X0212897Y0317585D03*
X0212919Y0317541D03*
X0212963Y0317475D03*
X0212985Y0317431D03*
X0213007Y0317387D03*
X0213051Y0317321D03*
X0213073Y0317277D03*
X0213095Y0317233D03*
X0213139Y0317167D03*
X0213161Y0317123D03*
X0213183Y0317079D03*
X0213227Y0317013D03*
X0213249Y0316969D03*
X0213271Y0316925D03*
X0213293Y0316903D03*
X0213315Y0316859D03*
X0213337Y0316815D03*
X0213359Y0316771D03*
X0213381Y0316749D03*
X0213403Y0316705D03*
X0213425Y0316661D03*
X0213447Y0316617D03*
X0213469Y0316595D03*
X0213491Y0316551D03*
X0213513Y0316507D03*
X0213535Y0316463D03*
X0213557Y0316441D03*
X0213579Y0316397D03*
X0213601Y0316353D03*
X0213623Y0316309D03*
X0213645Y0316287D03*
X0213667Y0316243D03*
X0213689Y0316199D03*
X0213711Y0316155D03*
X0213733Y0316133D03*
X0213755Y0316089D03*
X0213777Y0316045D03*
X0213821Y0315979D03*
X0213843Y0315935D03*
X0213865Y0315891D03*
X0213909Y0315825D03*
X0213931Y0315781D03*
X0213953Y0315737D03*
X0213997Y0315671D03*
X0214019Y0315627D03*
X0214041Y0315583D03*
X0214063Y0315561D03*
X0214085Y0315517D03*
X0214107Y0315473D03*
X0214129Y0315429D03*
X0214151Y0315407D03*
X0214173Y0315363D03*
X0214195Y0315319D03*
X0214217Y0315275D03*
X0214239Y0315253D03*
X0214261Y0315209D03*
X0214283Y0315165D03*
X0214305Y0315121D03*
X0214327Y0315099D03*
X0214349Y0315055D03*
X0214371Y0315011D03*
X0214393Y0314967D03*
X0214415Y0314945D03*
X0214437Y0314901D03*
X0214459Y0314857D03*
X0214481Y0314813D03*
X0214503Y0314791D03*
X0214525Y0314747D03*
X0214547Y0314703D03*
X0214591Y0314637D03*
X0214613Y0314593D03*
X0214635Y0314549D03*
X0214679Y0314483D03*
X0214701Y0314439D03*
X0214723Y0314395D03*
X0214767Y0314329D03*
X0214789Y0314285D03*
X0214811Y0314241D03*
X0214855Y0314175D03*
X0214877Y0314131D03*
X0214899Y0314087D03*
X0214921Y0314065D03*
X0214943Y0314021D03*
X0214965Y0313977D03*
X0214987Y0313933D03*
X0215009Y0313911D03*
X0215031Y0313867D03*
X0215053Y0313823D03*
X0215075Y0313779D03*
X0215097Y0313757D03*
X0215119Y0313713D03*
X0215141Y0313669D03*
X0215163Y0313625D03*
X0215185Y0313603D03*
X0215207Y0313559D03*
X0215229Y0313515D03*
X0215251Y0313471D03*
X0215273Y0313449D03*
X0215295Y0313405D03*
X0215317Y0313361D03*
X0215361Y0313295D03*
X0215383Y0313251D03*
X0215405Y0313207D03*
X0215449Y0313141D03*
X0215471Y0313097D03*
X0215493Y0313053D03*
X0215537Y0312987D03*
X0215559Y0312943D03*
X0215581Y0312899D03*
X0215625Y0312833D03*
X0215647Y0312789D03*
X0215669Y0312745D03*
X0215691Y0312723D03*
X0215713Y0312679D03*
X0215735Y0312635D03*
X0215757Y0312591D03*
X0215779Y0312569D03*
X0215801Y0312525D03*
X0215823Y0312481D03*
X0215845Y0312437D03*
X0215867Y0312415D03*
X0215889Y0312371D03*
X0215911Y0312327D03*
X0215933Y0312283D03*
X0215955Y0312261D03*
X0215977Y0312217D03*
X0215999Y0312173D03*
X0216021Y0312129D03*
X0216043Y0312107D03*
X0216065Y0312063D03*
X0216087Y0312019D03*
X0216109Y0311975D03*
X0216131Y0311953D03*
X0216153Y0311909D03*
X0216175Y0311865D03*
X0216219Y0311799D03*
X0216241Y0311755D03*
X0216263Y0311711D03*
X0211775Y0319609D03*
X0211797Y0319653D03*
X0211819Y0319697D03*
X0211863Y0319763D03*
X0211885Y0319807D03*
X0211907Y0319851D03*
X0211929Y0319873D03*
X0211951Y0319917D03*
X0211973Y0319961D03*
X0212017Y0320027D03*
X0212039Y0320071D03*
X0212061Y0320115D03*
X0212083Y0320137D03*
X0212105Y0320181D03*
X0212127Y0320225D03*
X0212171Y0320291D03*
X0212193Y0320335D03*
X0212215Y0320379D03*
X0212259Y0320445D03*
X0212281Y0320489D03*
X0212325Y0320555D03*
X0212347Y0320599D03*
X0212369Y0320643D03*
X0212413Y0320709D03*
X0212435Y0320753D03*
X0212457Y0320797D03*
X0212479Y0320819D03*
X0212501Y0320863D03*
X0212523Y0320907D03*
X0212567Y0320973D03*
X0212589Y0321017D03*
X0212611Y0321061D03*
X0212655Y0321127D03*
X0212677Y0321171D03*
X0212721Y0321237D03*
X0212743Y0321281D03*
X0212765Y0321325D03*
X0212809Y0321391D03*
X0212831Y0321435D03*
X0212853Y0321479D03*
X0212875Y0321501D03*
X0212897Y0321545D03*
X0212919Y0321589D03*
X0212963Y0321655D03*
X0212985Y0321699D03*
X0213007Y0321743D03*
X0213051Y0321809D03*
X0213073Y0321853D03*
X0213117Y0321919D03*
X0213139Y0321963D03*
X0213161Y0322007D03*
X0213205Y0322073D03*
X0213227Y0322117D03*
X0213249Y0322161D03*
X0213271Y0322183D03*
X0213293Y0322227D03*
X0213315Y0322271D03*
X0213359Y0322337D03*
X0213381Y0322381D03*
X0213403Y0322425D03*
X0213425Y0322447D03*
X0213447Y0322491D03*
X0213469Y0322535D03*
X0213513Y0322601D03*
X0213535Y0322645D03*
X0213557Y0322689D03*
X0213601Y0322755D03*
X0213623Y0322799D03*
X0213667Y0322865D03*
X0213689Y0322909D03*
X0213711Y0322953D03*
X0213755Y0323019D03*
X0213777Y0323063D03*
X0213799Y0323107D03*
X0213821Y0323129D03*
X0213843Y0323173D03*
X0213865Y0323217D03*
X0213909Y0323283D03*
X0213931Y0323327D03*
X0213953Y0323371D03*
X0213997Y0323437D03*
X0214019Y0323481D03*
X0214063Y0323547D03*
X0214085Y0323591D03*
X0214107Y0323635D03*
X0214151Y0323701D03*
X0214173Y0323745D03*
X0214195Y0323789D03*
X0214217Y0323811D03*
X0214239Y0323855D03*
X0214261Y0323899D03*
X0214305Y0323965D03*
X0214327Y0324009D03*
X0214349Y0324053D03*
X0214393Y0324119D03*
X0214415Y0324163D03*
X0214459Y0324229D03*
X0214481Y0324273D03*
X0214503Y0324317D03*
X0214547Y0324383D03*
X0214569Y0324427D03*
X0214591Y0324471D03*
X0214613Y0324493D03*
X0214635Y0324537D03*
X0214657Y0324581D03*
X0214701Y0324647D03*
X0214723Y0324691D03*
X0214745Y0324735D03*
X0214767Y0324757D03*
X0214789Y0324801D03*
X0214811Y0324845D03*
X0214855Y0324911D03*
X0214877Y0324955D03*
X0214899Y0324999D03*
X0214943Y0325065D03*
X0214965Y0325109D03*
X0214987Y0325153D03*
X0215009Y0325175D03*
X0215031Y0325219D03*
X0215053Y0325263D03*
X0215097Y0325329D03*
X0215119Y0325373D03*
X0215141Y0325417D03*
X0215163Y0325439D03*
X0215185Y0325483D03*
X0215207Y0325527D03*
X0215251Y0325593D03*
X0215273Y0325637D03*
X0215295Y0325681D03*
X0215339Y0325747D03*
X0215361Y0325791D03*
X0215405Y0325857D03*
X0215427Y0325901D03*
X0215449Y0325945D03*
X0215493Y0326011D03*
X0215515Y0326055D03*
X0215537Y0326099D03*
X0215559Y0326121D03*
X0215581Y0326165D03*
X0215603Y0326209D03*
X0215647Y0326275D03*
X0215669Y0326319D03*
X0215691Y0326363D03*
X0215735Y0326429D03*
X0215757Y0326473D03*
X0215801Y0326539D03*
X0215823Y0326583D03*
X0215845Y0326627D03*
X0215889Y0326693D03*
X0215911Y0326737D03*
X0215933Y0326781D03*
X0215955Y0326803D03*
X0215977Y0326847D03*
X0215999Y0326891D03*
X0216043Y0326957D03*
X0216065Y0327001D03*
X0216087Y0327045D03*
X0216109Y0327067D03*
X0216131Y0327111D03*
X0216153Y0327155D03*
X0216197Y0327221D03*
X0216219Y0327265D03*
X0216241Y0327309D03*
X0216285Y0327375D03*
X0216307Y0327419D03*
X0232631Y0327375D03*
X0232653Y0327331D03*
X0232675Y0327287D03*
X0232719Y0327221D03*
X0232741Y0327177D03*
X0232763Y0327133D03*
X0232785Y0327111D03*
X0232807Y0327067D03*
X0232829Y0327023D03*
X0232851Y0326979D03*
X0232873Y0326957D03*
X0232895Y0326913D03*
X0232917Y0326869D03*
X0232939Y0326825D03*
X0232961Y0326803D03*
X0232983Y0326759D03*
X0233005Y0326715D03*
X0233027Y0326671D03*
X0233049Y0326649D03*
X0233071Y0326605D03*
X0233093Y0326561D03*
X0233115Y0326517D03*
X0233137Y0326495D03*
X0233159Y0326451D03*
X0233181Y0326407D03*
X0233203Y0326363D03*
X0233225Y0326341D03*
X0233247Y0326297D03*
X0233269Y0326253D03*
X0233313Y0326187D03*
X0233335Y0326143D03*
X0233357Y0326099D03*
X0233401Y0326033D03*
X0233423Y0325989D03*
X0233445Y0325945D03*
X0233489Y0325879D03*
X0233511Y0325835D03*
X0233533Y0325791D03*
X0233577Y0325725D03*
X0233599Y0325681D03*
X0233621Y0325637D03*
X0233643Y0325615D03*
X0233665Y0325571D03*
X0233687Y0325527D03*
X0233709Y0325483D03*
X0233731Y0325461D03*
X0233753Y0325417D03*
X0233775Y0325373D03*
X0233797Y0325329D03*
X0233819Y0325307D03*
X0233841Y0325263D03*
X0233863Y0325219D03*
X0233885Y0325175D03*
X0233907Y0325153D03*
X0233929Y0325109D03*
X0233951Y0325065D03*
X0233973Y0325021D03*
X0233995Y0324999D03*
X0234017Y0324955D03*
X0234039Y0324911D03*
X0234083Y0324845D03*
X0234105Y0324801D03*
X0234127Y0324757D03*
X0234171Y0324691D03*
X0234193Y0324647D03*
X0234215Y0324603D03*
X0234259Y0324537D03*
X0234281Y0324493D03*
X0234303Y0324449D03*
X0234347Y0324383D03*
X0234369Y0324339D03*
X0234391Y0324295D03*
X0234413Y0324273D03*
X0234435Y0324229D03*
X0234457Y0324185D03*
X0234479Y0324141D03*
X0234501Y0324119D03*
X0234523Y0324075D03*
X0234545Y0324031D03*
X0234567Y0323987D03*
X0234589Y0323965D03*
X0234611Y0323921D03*
X0234633Y0323877D03*
X0234655Y0323833D03*
X0234677Y0323811D03*
X0234699Y0323767D03*
X0234721Y0323723D03*
X0234743Y0323679D03*
X0234765Y0323657D03*
X0234787Y0323613D03*
X0234809Y0323569D03*
X0234831Y0323525D03*
X0234853Y0323503D03*
X0234875Y0323459D03*
X0234897Y0323415D03*
X0234941Y0323349D03*
X0234963Y0323305D03*
X0234985Y0323261D03*
X0235029Y0323195D03*
X0235051Y0323151D03*
X0235073Y0323107D03*
X0235117Y0323041D03*
X0235139Y0322997D03*
X0235161Y0322953D03*
X0235183Y0322931D03*
X0235205Y0322887D03*
X0235227Y0322843D03*
X0235249Y0322799D03*
X0235271Y0322777D03*
X0235293Y0322733D03*
X0235315Y0322689D03*
X0235337Y0322645D03*
X0235359Y0322623D03*
X0235381Y0322579D03*
X0235403Y0322535D03*
X0235425Y0322491D03*
X0235447Y0322469D03*
X0235469Y0322425D03*
X0235491Y0322381D03*
X0235513Y0322337D03*
X0235535Y0322315D03*
X0235557Y0322271D03*
X0235579Y0322227D03*
X0235601Y0322183D03*
X0235623Y0322161D03*
X0235645Y0322117D03*
X0235667Y0322073D03*
X0235711Y0322007D03*
X0235733Y0321963D03*
X0235755Y0321919D03*
X0235799Y0321853D03*
X0235821Y0321809D03*
X0235843Y0321765D03*
X0235887Y0321699D03*
X0235909Y0321655D03*
X0235931Y0321611D03*
X0235975Y0321545D03*
X0235997Y0321501D03*
X0236019Y0321457D03*
X0236041Y0321435D03*
X0236063Y0321391D03*
X0236085Y0321347D03*
X0236107Y0321303D03*
X0236129Y0321281D03*
X0236151Y0321237D03*
X0236173Y0321193D03*
X0236195Y0321149D03*
X0236217Y0321127D03*
X0236239Y0321083D03*
X0236261Y0321039D03*
X0236283Y0320995D03*
X0236305Y0320973D03*
X0236327Y0320929D03*
X0236349Y0320885D03*
X0236371Y0320841D03*
X0236393Y0320819D03*
X0236415Y0320775D03*
X0236437Y0320731D03*
X0236459Y0320687D03*
X0236481Y0320665D03*
X0236503Y0320621D03*
X0236525Y0320577D03*
X0236569Y0320511D03*
X0236591Y0320467D03*
X0236613Y0320423D03*
X0236657Y0320357D03*
X0236679Y0320313D03*
X0236701Y0320269D03*
X0236745Y0320203D03*
X0236767Y0320159D03*
X0236789Y0320115D03*
X0236811Y0320093D03*
X0236833Y0320049D03*
X0236855Y0320005D03*
X0236877Y0319961D03*
X0236899Y0319939D03*
X0236921Y0319895D03*
X0236943Y0319851D03*
X0236965Y0319807D03*
X0236987Y0319785D03*
X0237009Y0319741D03*
X0237031Y0319697D03*
X0237053Y0319653D03*
X0237075Y0319631D03*
X0237097Y0319587D03*
X0237119Y0319543D03*
X0237119Y0319477D03*
X0237097Y0319433D03*
X0237075Y0319389D03*
X0237031Y0319323D03*
X0237009Y0319279D03*
X0236965Y0319213D03*
X0236943Y0319169D03*
X0236921Y0319125D03*
X0236877Y0319059D03*
X0236855Y0319015D03*
X0236833Y0318971D03*
X0236811Y0318949D03*
X0236789Y0318905D03*
X0236767Y0318861D03*
X0236723Y0318795D03*
X0236701Y0318751D03*
X0236679Y0318707D03*
X0236635Y0318641D03*
X0236613Y0318597D03*
X0236569Y0318531D03*
X0236547Y0318487D03*
X0236525Y0318443D03*
X0236481Y0318377D03*
X0236459Y0318333D03*
X0236437Y0318289D03*
X0236415Y0318267D03*
X0236393Y0318223D03*
X0236371Y0318179D03*
X0236327Y0318113D03*
X0236305Y0318069D03*
X0236283Y0318025D03*
X0236239Y0317959D03*
X0236217Y0317915D03*
X0236173Y0317849D03*
X0236151Y0317805D03*
X0236129Y0317761D03*
X0236085Y0317695D03*
X0236063Y0317651D03*
X0236041Y0317607D03*
X0236019Y0317585D03*
X0235997Y0317541D03*
X0235975Y0317497D03*
X0235931Y0317431D03*
X0235909Y0317387D03*
X0235887Y0317343D03*
X0235865Y0317321D03*
X0235843Y0317277D03*
X0235821Y0317233D03*
X0235777Y0317167D03*
X0235755Y0317123D03*
X0235733Y0317079D03*
X0235689Y0317013D03*
X0235667Y0316969D03*
X0235623Y0316903D03*
X0235601Y0316859D03*
X0235579Y0316815D03*
X0235535Y0316749D03*
X0235513Y0316705D03*
X0235491Y0316661D03*
X0235469Y0316639D03*
X0235447Y0316595D03*
X0235425Y0316551D03*
X0235381Y0316485D03*
X0235359Y0316441D03*
X0235337Y0316397D03*
X0235293Y0316331D03*
X0235271Y0316287D03*
X0235227Y0316221D03*
X0235205Y0316177D03*
X0235183Y0316133D03*
X0235139Y0316067D03*
X0235117Y0316023D03*
X0235095Y0315979D03*
X0235073Y0315957D03*
X0235051Y0315913D03*
X0235029Y0315869D03*
X0234985Y0315803D03*
X0234963Y0315759D03*
X0234941Y0315715D03*
X0234897Y0315649D03*
X0234875Y0315605D03*
X0234831Y0315539D03*
X0234809Y0315495D03*
X0234787Y0315451D03*
X0234743Y0315385D03*
X0234721Y0315341D03*
X0234699Y0315297D03*
X0234677Y0315275D03*
X0234655Y0315231D03*
X0234633Y0315187D03*
X0234589Y0315121D03*
X0234567Y0315077D03*
X0234545Y0315033D03*
X0234523Y0315011D03*
X0234501Y0314967D03*
X0234479Y0314923D03*
X0234435Y0314857D03*
X0234413Y0314813D03*
X0234391Y0314769D03*
X0234347Y0314703D03*
X0234325Y0314659D03*
X0234303Y0314615D03*
X0234281Y0314593D03*
X0234259Y0314549D03*
X0234237Y0314505D03*
X0234193Y0314439D03*
X0234171Y0314395D03*
X0234149Y0314351D03*
X0234127Y0314329D03*
X0234105Y0314285D03*
X0234083Y0314241D03*
X0234039Y0314175D03*
X0234017Y0314131D03*
X0233995Y0314087D03*
X0233951Y0314021D03*
X0233929Y0313977D03*
X0233885Y0313911D03*
X0233863Y0313867D03*
X0233841Y0313823D03*
X0233797Y0313757D03*
X0233775Y0313713D03*
X0233753Y0313669D03*
X0233731Y0313647D03*
X0233709Y0313603D03*
X0233687Y0313559D03*
X0233643Y0313493D03*
X0233621Y0313449D03*
X0233599Y0313405D03*
X0233555Y0313339D03*
X0233533Y0313295D03*
X0233489Y0313229D03*
X0233467Y0313185D03*
X0233445Y0313141D03*
X0233401Y0313075D03*
X0233379Y0313031D03*
X0233357Y0312987D03*
X0233335Y0312965D03*
X0233313Y0312921D03*
X0233291Y0312877D03*
X0233247Y0312811D03*
X0233225Y0312767D03*
X0233203Y0312723D03*
X0233181Y0312701D03*
X0233159Y0312657D03*
X0233137Y0312613D03*
X0233093Y0312547D03*
X0233071Y0312503D03*
X0233049Y0312459D03*
X0233005Y0312393D03*
X0232983Y0312349D03*
X0232961Y0312305D03*
X0232939Y0312283D03*
X0232917Y0312239D03*
X0232895Y0312195D03*
X0232851Y0312129D03*
X0232829Y0312085D03*
X0232807Y0312041D03*
X0232785Y0312019D03*
X0232763Y0311975D03*
X0232741Y0311931D03*
X0232697Y0311865D03*
X0232675Y0311821D03*
X0232653Y0311777D03*
X0232609Y0311711D03*
X0232587Y0311667D03*
D248*
X0237130Y0319521D03*
X0236998Y0319763D03*
X0236866Y0319983D03*
X0236712Y0320247D03*
X0236580Y0320489D03*
X0236448Y0320709D03*
X0236316Y0320951D03*
X0236162Y0321215D03*
X0235898Y0321677D03*
X0235766Y0321897D03*
X0235480Y0322403D03*
X0235216Y0322865D03*
X0235062Y0323129D03*
X0234930Y0323371D03*
X0234798Y0323591D03*
X0234512Y0324097D03*
X0234380Y0324317D03*
X0234248Y0324559D03*
X0234116Y0324779D03*
X0233962Y0325043D03*
X0233830Y0325285D03*
X0233698Y0325505D03*
X0233566Y0325747D03*
X0233412Y0326011D03*
X0233280Y0326231D03*
X0233148Y0326473D03*
X0233016Y0326693D03*
X0232730Y0327199D03*
X0232598Y0327419D03*
X0213766Y0316067D03*
X0213898Y0315847D03*
X0214030Y0315605D03*
X0214162Y0315385D03*
X0214448Y0314879D03*
X0214580Y0314659D03*
X0214712Y0314417D03*
X0214866Y0314153D03*
X0215130Y0313691D03*
X0215416Y0313185D03*
X0215548Y0312965D03*
X0215812Y0312503D03*
X0215966Y0312239D03*
X0216098Y0311997D03*
X0216230Y0311777D03*
X0213612Y0316331D03*
X0213480Y0316573D03*
X0213348Y0316793D03*
X0213216Y0317035D03*
X0213062Y0317299D03*
X0212930Y0317519D03*
X0212798Y0317761D03*
X0212666Y0317981D03*
X0212380Y0318487D03*
X0212248Y0318707D03*
X0212116Y0318949D03*
X0211962Y0319213D03*
D249*
X0230387Y0327441D03*
D250*
X0224458Y0327529D03*
D251*
X0224458Y0327793D03*
D252*
X0224458Y0328255D03*
D253*
X0224458Y0328475D03*
D254*
X0224458Y0328739D03*
D255*
X0224458Y0328981D03*
D256*
X0224458Y0329201D03*
D257*
X0224447Y0329377D03*
D258*
X0224458Y0329421D03*
X0224458Y0329443D03*
D259*
X0224458Y0329685D03*
X0224458Y0329707D03*
D260*
X0224458Y0329927D03*
D261*
X0224469Y0329949D03*
D262*
X0224458Y0330147D03*
X0224458Y0330169D03*
D263*
X0224469Y0330367D03*
D264*
X0224458Y0330389D03*
D265*
X0224469Y0330631D03*
D266*
X0224458Y0330653D03*
D267*
X0224469Y0330675D03*
D268*
X0224458Y0330873D03*
D269*
X0224469Y0330895D03*
D270*
X0224469Y0331093D03*
D271*
X0224458Y0331115D03*
D272*
X0224469Y0331137D03*
D273*
X0224469Y0331313D03*
D274*
X0224458Y0331335D03*
D275*
X0224469Y0331357D03*
D276*
X0224469Y0331577D03*
D277*
X0224458Y0331599D03*
D278*
X0224469Y0331621D03*
D279*
X0224458Y0331687D03*
D280*
X0224469Y0331819D03*
D281*
X0224469Y0331841D03*
X0224469Y0331863D03*
D282*
X0224469Y0332039D03*
D283*
X0224458Y0332061D03*
D284*
X0224469Y0332083D03*
D285*
X0224469Y0332259D03*
X0224469Y0332281D03*
D286*
X0224469Y0332303D03*
X0224469Y0332325D03*
D287*
X0224469Y0332523D03*
X0224469Y0332545D03*
D288*
X0224469Y0332567D03*
X0224469Y0332589D03*
D289*
X0224469Y0332765D03*
D290*
X0224469Y0332787D03*
X0224469Y0332809D03*
D291*
X0224469Y0332985D03*
X0224469Y0333007D03*
D292*
X0224469Y0333029D03*
D293*
X0224480Y0333051D03*
D294*
X0224480Y0333205D03*
D295*
X0224469Y0333227D03*
D296*
X0224469Y0333249D03*
X0224469Y0333271D03*
D297*
X0224480Y0333469D03*
D298*
X0224469Y0333491D03*
D299*
X0224480Y0333513D03*
D300*
X0224469Y0333535D03*
D301*
X0222555Y0333623D03*
D302*
X0218507Y0333645D03*
D303*
X0163786Y0250619D03*
X0166236Y0247259D03*
X0155946Y0246909D03*
X0131116Y0248379D03*
X0125076Y0248379D03*
X0125076Y0248309D03*
X0125076Y0248169D03*
X0125076Y0248029D03*
X0125076Y0247959D03*
X0125076Y0247819D03*
X0125076Y0247679D03*
X0125076Y0247609D03*
X0125076Y0247469D03*
X0125076Y0247329D03*
X0125076Y0247259D03*
X0125076Y0247119D03*
X0125076Y0246979D03*
X0125076Y0246909D03*
X0125076Y0246769D03*
X0125076Y0246629D03*
X0125076Y0246559D03*
X0125076Y0246419D03*
X0125076Y0246279D03*
X0125076Y0246209D03*
X0125076Y0246069D03*
X0125076Y0245929D03*
X0125076Y0245859D03*
X0125076Y0245719D03*
X0125076Y0245579D03*
X0125076Y0245509D03*
X0125076Y0245369D03*
X0125076Y0245229D03*
X0125076Y0245159D03*
X0125076Y0245019D03*
X0125076Y0244879D03*
X0125076Y0244809D03*
X0125076Y0244669D03*
X0125076Y0244529D03*
X0125076Y0244459D03*
X0125076Y0244319D03*
X0125076Y0244179D03*
X0125076Y0244109D03*
X0125076Y0243969D03*
X0125076Y0243829D03*
X0125076Y0243759D03*
X0125076Y0243619D03*
X0125076Y0243479D03*
X0125076Y0243409D03*
X0125076Y0243269D03*
X0125076Y0243129D03*
X0125076Y0243059D03*
X0125076Y0242919D03*
X0125076Y0242779D03*
X0125076Y0242709D03*
X0125076Y0242569D03*
X0125076Y0242429D03*
X0125076Y0242359D03*
X0125076Y0242219D03*
X0125076Y0242079D03*
X0125076Y0242009D03*
X0125076Y0241869D03*
X0125076Y0241729D03*
X0125076Y0241659D03*
X0125076Y0241519D03*
X0125076Y0248519D03*
X0125076Y0248659D03*
X0125076Y0248729D03*
X0125076Y0248869D03*
X0125076Y0249009D03*
X0125076Y0249079D03*
X0125076Y0249219D03*
X0125076Y0249359D03*
X0125076Y0249429D03*
X0125076Y0249569D03*
X0125076Y0249709D03*
X0125076Y0249779D03*
X0125076Y0249919D03*
X0125076Y0250059D03*
X0125076Y0250129D03*
X0125076Y0250269D03*
X0125076Y0250409D03*
X0125076Y0250479D03*
X0125076Y0250619D03*
X0125076Y0250759D03*
X0125076Y0250829D03*
X0125076Y0250969D03*
X0125076Y0251109D03*
X0125076Y0251179D03*
X0125076Y0251319D03*
X0125076Y0251459D03*
X0125076Y0251529D03*
X0125076Y0251669D03*
X0125076Y0251809D03*
X0125076Y0251879D03*
X0125076Y0252019D03*
X0125076Y0252159D03*
X0125076Y0252229D03*
X0125076Y0252369D03*
X0125076Y0252509D03*
X0125076Y0252579D03*
X0125076Y0252719D03*
X0125076Y0252859D03*
X0125076Y0252929D03*
X0125076Y0253069D03*
X0125076Y0253209D03*
X0125076Y0253279D03*
X0125076Y0253419D03*
X0125076Y0253559D03*
X0125076Y0253629D03*
X0125076Y0253769D03*
X0125076Y0253909D03*
X0125076Y0253979D03*
X0125076Y0254119D03*
X0125076Y0254259D03*
X0125076Y0254329D03*
X0125076Y0254469D03*
X0125076Y0254609D03*
X0125076Y0254679D03*
X0125076Y0254819D03*
X0125076Y0254959D03*
X0125076Y0255029D03*
X0125076Y0255169D03*
X0125076Y0255309D03*
X0125076Y0255379D03*
X0125076Y0255519D03*
X0125076Y0255659D03*
X0125076Y0255729D03*
X0125076Y0255869D03*
X0125076Y0256009D03*
X0125076Y0256079D03*
X0125076Y0256219D03*
D304*
X0125076Y0256149D03*
X0125076Y0255939D03*
X0125076Y0255799D03*
X0125076Y0255589D03*
X0125076Y0255449D03*
X0125076Y0255239D03*
X0125076Y0255099D03*
X0125076Y0254889D03*
X0125076Y0254749D03*
X0125076Y0254539D03*
X0125076Y0254399D03*
X0125076Y0254189D03*
X0125076Y0254049D03*
X0125076Y0253839D03*
X0125076Y0253699D03*
X0125076Y0253489D03*
X0125076Y0253349D03*
X0125076Y0253139D03*
X0125076Y0252999D03*
X0125076Y0252789D03*
X0125076Y0252649D03*
X0125076Y0252439D03*
X0125076Y0252299D03*
X0125076Y0252089D03*
X0125076Y0251949D03*
X0125076Y0251739D03*
X0125076Y0251599D03*
X0125076Y0251389D03*
X0125076Y0251249D03*
X0125076Y0251039D03*
X0125076Y0250899D03*
X0125076Y0250689D03*
X0125076Y0250549D03*
X0125076Y0250339D03*
X0125076Y0250199D03*
X0125076Y0249989D03*
X0125076Y0249849D03*
X0125076Y0249639D03*
X0125076Y0249499D03*
X0125076Y0249289D03*
X0125076Y0249149D03*
X0125076Y0248939D03*
X0125076Y0248799D03*
X0125076Y0248589D03*
X0125076Y0248449D03*
X0125076Y0248239D03*
X0125076Y0248099D03*
X0125076Y0247889D03*
X0125076Y0247749D03*
X0125076Y0247539D03*
X0125076Y0247399D03*
X0125076Y0247189D03*
X0125076Y0247049D03*
X0125076Y0246839D03*
X0125076Y0246699D03*
X0125076Y0246489D03*
X0125076Y0246349D03*
X0125076Y0246139D03*
X0125076Y0245999D03*
X0125076Y0245789D03*
X0125076Y0245649D03*
X0125076Y0245439D03*
X0125076Y0245299D03*
X0125076Y0245089D03*
X0125076Y0244949D03*
X0125076Y0244739D03*
X0125076Y0244599D03*
X0125076Y0244389D03*
X0125076Y0244249D03*
X0125076Y0244039D03*
X0125076Y0243899D03*
X0125076Y0243689D03*
X0125076Y0243549D03*
X0125076Y0243339D03*
X0125076Y0243199D03*
X0125076Y0242989D03*
X0125076Y0242849D03*
X0125076Y0242639D03*
X0125076Y0242499D03*
X0125076Y0242289D03*
X0125076Y0242149D03*
X0125076Y0241939D03*
X0125076Y0241799D03*
X0125076Y0241589D03*
X0137466Y0247539D03*
X0155946Y0246839D03*
X0163786Y0250689D03*
D305*
X0151291Y0246419D03*
X0136311Y0246419D03*
D306*
X0132971Y0250339D03*
X0133181Y0250549D03*
X0151291Y0246489D03*
X0163681Y0251039D03*
X0166341Y0246839D03*
D307*
X0136311Y0246489D03*
X0133461Y0250899D03*
D308*
X0130941Y0249709D03*
X0130941Y0248029D03*
X0134911Y0248029D03*
X0134911Y0247959D03*
X0134981Y0247819D03*
X0137711Y0247959D03*
X0137711Y0248029D03*
X0141421Y0247679D03*
X0145481Y0247679D03*
X0145481Y0248379D03*
X0149891Y0247959D03*
X0152621Y0247819D03*
X0152691Y0248169D03*
X0157311Y0250759D03*
X0159201Y0250129D03*
X0159201Y0248379D03*
X0159201Y0247679D03*
X0166411Y0246629D03*
X0166411Y0246559D03*
D309*
X0166481Y0248869D03*
X0166481Y0249009D03*
X0166481Y0249079D03*
X0166481Y0249219D03*
X0166481Y0249359D03*
X0166481Y0249429D03*
X0166481Y0249569D03*
X0166481Y0249709D03*
X0166481Y0249779D03*
X0166481Y0249919D03*
X0166481Y0250059D03*
X0166481Y0250129D03*
X0166481Y0250269D03*
X0166481Y0250409D03*
X0166481Y0250479D03*
X0166481Y0250619D03*
X0166481Y0250759D03*
X0166481Y0250829D03*
X0166481Y0250969D03*
X0166481Y0251109D03*
X0166481Y0251179D03*
X0163541Y0249079D03*
X0163541Y0249009D03*
X0163541Y0248869D03*
X0163541Y0248729D03*
X0163541Y0248659D03*
X0163541Y0248519D03*
X0163541Y0248379D03*
X0163541Y0248309D03*
X0163541Y0248169D03*
X0163541Y0248029D03*
X0163541Y0247959D03*
X0163541Y0247819D03*
X0163541Y0247679D03*
X0163541Y0247609D03*
X0163541Y0247469D03*
X0163541Y0247329D03*
X0163541Y0247259D03*
X0163541Y0247119D03*
X0163541Y0246979D03*
X0163541Y0246909D03*
X0163541Y0246769D03*
X0163541Y0246629D03*
X0163541Y0246559D03*
X0156751Y0248729D03*
X0156681Y0248519D03*
X0156611Y0248379D03*
X0156821Y0249009D03*
X0156821Y0249079D03*
X0156891Y0249219D03*
X0156891Y0249359D03*
X0156961Y0249429D03*
X0156961Y0249569D03*
X0157031Y0249709D03*
X0157031Y0249779D03*
X0157101Y0250059D03*
X0157171Y0250269D03*
X0154931Y0249569D03*
X0154931Y0249429D03*
X0155001Y0249219D03*
X0155071Y0249079D03*
X0155071Y0249009D03*
X0155141Y0248729D03*
X0155141Y0248659D03*
X0155211Y0248519D03*
X0154861Y0249709D03*
X0154861Y0249779D03*
X0154791Y0250059D03*
X0154721Y0250269D03*
X0154581Y0250759D03*
X0149821Y0250759D03*
X0149821Y0250829D03*
X0149821Y0250969D03*
X0149821Y0251109D03*
X0149821Y0251179D03*
X0149821Y0250619D03*
X0149821Y0250479D03*
X0149821Y0250409D03*
X0149821Y0250269D03*
X0149821Y0250129D03*
X0149821Y0250059D03*
X0149821Y0249919D03*
X0149821Y0249779D03*
X0149821Y0249709D03*
X0149821Y0249569D03*
X0149821Y0249429D03*
X0149821Y0249359D03*
X0149821Y0249219D03*
X0149821Y0249079D03*
X0149821Y0249009D03*
X0149821Y0248869D03*
X0149821Y0248729D03*
X0149821Y0248659D03*
X0149821Y0248519D03*
D310*
X0151256Y0247329D03*
X0146706Y0247329D03*
X0146706Y0247259D03*
X0146706Y0247119D03*
X0146706Y0246979D03*
X0146706Y0246909D03*
X0146706Y0246769D03*
X0146706Y0246629D03*
X0146706Y0246559D03*
X0146706Y0247469D03*
X0146706Y0247609D03*
X0160426Y0247609D03*
X0160426Y0247469D03*
X0160426Y0247329D03*
X0160426Y0247259D03*
X0160426Y0247119D03*
X0160426Y0246979D03*
X0160426Y0246909D03*
X0160426Y0246769D03*
X0160426Y0246629D03*
X0160426Y0246559D03*
D311*
X0155911Y0246559D03*
X0133111Y0250479D03*
X0132761Y0250059D03*
X0131011Y0248169D03*
D312*
X0151256Y0246559D03*
X0155946Y0247329D03*
X0163926Y0250129D03*
X0166096Y0247819D03*
D313*
X0151256Y0246979D03*
X0142436Y0246979D03*
X0142436Y0246909D03*
X0142436Y0246769D03*
X0142436Y0246629D03*
X0142436Y0246559D03*
X0142436Y0247119D03*
X0142436Y0247259D03*
X0142436Y0247329D03*
X0142436Y0247469D03*
X0142436Y0247609D03*
D314*
X0136311Y0246559D03*
X0155911Y0247469D03*
X0163961Y0250059D03*
X0166061Y0247959D03*
D315*
X0166271Y0247119D03*
X0163751Y0250759D03*
X0163751Y0250829D03*
X0155911Y0246769D03*
X0134091Y0246559D03*
X0134021Y0246629D03*
X0133951Y0246769D03*
X0133811Y0246979D03*
X0131081Y0248309D03*
D316*
X0130906Y0247959D03*
X0130906Y0247819D03*
X0130906Y0247679D03*
X0130906Y0247609D03*
X0130906Y0247469D03*
X0130906Y0247329D03*
X0130906Y0247259D03*
X0130906Y0247119D03*
X0130906Y0246979D03*
X0130906Y0246909D03*
X0130906Y0246769D03*
X0130906Y0246629D03*
X0130906Y0246559D03*
X0130906Y0249779D03*
X0130906Y0249919D03*
X0130906Y0250059D03*
X0130906Y0250129D03*
X0130906Y0250269D03*
X0130906Y0250409D03*
X0130906Y0250479D03*
X0130906Y0250619D03*
X0130906Y0250759D03*
X0130906Y0250829D03*
X0130906Y0250969D03*
X0130906Y0251109D03*
X0130906Y0251179D03*
X0134876Y0251179D03*
X0134876Y0251109D03*
X0134876Y0250969D03*
X0134876Y0250829D03*
X0134876Y0250759D03*
X0134876Y0250619D03*
X0134876Y0250479D03*
X0134876Y0250409D03*
X0134876Y0250269D03*
X0134876Y0250129D03*
X0134876Y0250059D03*
X0134876Y0249919D03*
X0134876Y0249779D03*
X0134876Y0249709D03*
X0134876Y0249569D03*
X0134876Y0249429D03*
X0134876Y0249359D03*
X0134876Y0249219D03*
X0134876Y0249079D03*
X0134876Y0249009D03*
X0134876Y0248869D03*
X0134876Y0248729D03*
X0134876Y0248659D03*
X0134876Y0248519D03*
X0134876Y0248379D03*
X0134876Y0248309D03*
X0134876Y0248169D03*
X0137746Y0248169D03*
X0137746Y0248309D03*
X0137746Y0248379D03*
X0137746Y0248519D03*
X0137746Y0248659D03*
X0137746Y0248729D03*
X0137746Y0248869D03*
X0137746Y0249009D03*
X0137746Y0249079D03*
X0137746Y0249219D03*
X0137746Y0249359D03*
X0137746Y0249429D03*
X0137746Y0249569D03*
X0137746Y0249709D03*
X0137746Y0249779D03*
X0137746Y0249919D03*
X0137746Y0250059D03*
X0137746Y0250129D03*
X0137746Y0250269D03*
X0137746Y0250409D03*
X0137746Y0250479D03*
X0137746Y0250619D03*
X0137746Y0250759D03*
X0137746Y0250829D03*
X0137746Y0250969D03*
X0137746Y0251109D03*
X0137746Y0251179D03*
X0141386Y0251179D03*
X0141386Y0251109D03*
X0141386Y0250969D03*
X0141386Y0250829D03*
X0141386Y0250759D03*
X0141386Y0250619D03*
X0141386Y0250479D03*
X0141386Y0250409D03*
X0141386Y0250269D03*
X0141386Y0250129D03*
X0141386Y0250059D03*
X0141386Y0249919D03*
X0141386Y0249779D03*
X0141386Y0249709D03*
X0141386Y0249569D03*
X0141386Y0249429D03*
X0141386Y0249359D03*
X0141386Y0249219D03*
X0141386Y0249079D03*
X0141386Y0249009D03*
X0141386Y0248869D03*
X0141386Y0248729D03*
X0141386Y0248659D03*
X0141386Y0248519D03*
X0141386Y0248379D03*
X0141386Y0248309D03*
X0141386Y0248169D03*
X0141386Y0248029D03*
X0141386Y0247959D03*
X0141386Y0247819D03*
X0145446Y0247819D03*
X0145446Y0247959D03*
X0145446Y0248029D03*
X0145446Y0248169D03*
X0145446Y0248309D03*
X0145446Y0249569D03*
X0145446Y0249709D03*
X0145446Y0249779D03*
X0145446Y0249919D03*
X0145446Y0250059D03*
X0145446Y0250129D03*
X0149856Y0248379D03*
X0149856Y0248309D03*
X0149856Y0248169D03*
X0149856Y0248029D03*
X0152656Y0248029D03*
X0152656Y0247959D03*
X0152726Y0248309D03*
X0152726Y0248379D03*
X0152726Y0248519D03*
X0152726Y0248659D03*
X0152726Y0248729D03*
X0152726Y0248869D03*
X0152726Y0249009D03*
X0152726Y0249079D03*
X0152726Y0249219D03*
X0152726Y0249359D03*
X0152726Y0249429D03*
X0152726Y0249569D03*
X0152726Y0249709D03*
X0152726Y0249779D03*
X0152726Y0249919D03*
X0152726Y0250059D03*
X0152726Y0250129D03*
X0152726Y0250269D03*
X0152726Y0250409D03*
X0152726Y0250479D03*
X0152726Y0250619D03*
X0152726Y0250759D03*
X0152726Y0250829D03*
X0152726Y0250969D03*
X0152726Y0251109D03*
X0152726Y0251179D03*
X0154476Y0251179D03*
X0154476Y0251109D03*
X0154546Y0250969D03*
X0154546Y0250829D03*
X0154616Y0250619D03*
X0154686Y0250479D03*
X0154686Y0250409D03*
X0154756Y0250129D03*
X0154826Y0249919D03*
X0154966Y0249359D03*
X0155106Y0248869D03*
X0155246Y0248379D03*
X0157066Y0249919D03*
X0157136Y0250129D03*
X0157206Y0250409D03*
X0157206Y0250479D03*
X0157276Y0250619D03*
X0157346Y0250829D03*
X0157346Y0250969D03*
X0157416Y0251109D03*
X0157416Y0251179D03*
X0159166Y0250059D03*
X0159166Y0249919D03*
X0159166Y0249779D03*
X0159166Y0249709D03*
X0159166Y0249569D03*
X0159166Y0248309D03*
X0159166Y0248169D03*
X0159166Y0248029D03*
X0159166Y0247959D03*
X0159166Y0247819D03*
X0166446Y0248729D03*
D317*
X0166306Y0246979D03*
X0163716Y0250969D03*
X0155946Y0246629D03*
X0150066Y0247609D03*
X0137536Y0247609D03*
X0135086Y0247609D03*
X0133846Y0246909D03*
X0133706Y0247119D03*
X0133636Y0247259D03*
X0133566Y0247329D03*
X0133496Y0247469D03*
X0133426Y0247609D03*
X0133356Y0247679D03*
X0133286Y0247819D03*
X0133146Y0247959D03*
X0133146Y0248029D03*
X0132936Y0248309D03*
X0132866Y0248379D03*
X0133216Y0250619D03*
X0133356Y0250759D03*
X0133426Y0250829D03*
X0133496Y0250969D03*
X0133636Y0251109D03*
X0133706Y0251179D03*
D318*
X0151256Y0246629D03*
X0155946Y0248029D03*
X0164136Y0249359D03*
X0165886Y0248519D03*
D319*
X0165921Y0248379D03*
X0164101Y0249429D03*
X0155911Y0247959D03*
X0136311Y0246629D03*
D320*
X0134946Y0247889D03*
X0132726Y0249989D03*
X0132586Y0249849D03*
X0130976Y0248099D03*
X0149926Y0247749D03*
X0152586Y0247749D03*
X0159236Y0250199D03*
X0163646Y0251249D03*
X0166376Y0246699D03*
D321*
X0166481Y0248799D03*
X0166481Y0248939D03*
X0166481Y0249149D03*
X0166481Y0249289D03*
X0166481Y0249499D03*
X0166481Y0249639D03*
X0166481Y0249849D03*
X0166481Y0249989D03*
X0166481Y0250199D03*
X0166481Y0250339D03*
X0166481Y0250549D03*
X0166481Y0250689D03*
X0166481Y0250899D03*
X0166481Y0251039D03*
X0166481Y0251249D03*
X0163541Y0248939D03*
X0163541Y0248799D03*
X0163541Y0248589D03*
X0163541Y0248449D03*
X0163541Y0248239D03*
X0163541Y0248099D03*
X0163541Y0247889D03*
X0163541Y0247749D03*
X0163541Y0247539D03*
X0163541Y0247399D03*
X0163541Y0247189D03*
X0163541Y0247049D03*
X0163541Y0246839D03*
X0163541Y0246699D03*
X0156681Y0248449D03*
X0156681Y0248589D03*
X0156751Y0248799D03*
X0156821Y0248939D03*
X0156891Y0249149D03*
X0156891Y0249289D03*
X0156961Y0249499D03*
X0157101Y0249989D03*
X0155001Y0249289D03*
X0155001Y0249149D03*
X0155071Y0248939D03*
X0155141Y0248799D03*
X0155211Y0248589D03*
X0155211Y0248449D03*
X0154931Y0249499D03*
X0154791Y0249989D03*
X0154651Y0250549D03*
X0149821Y0250549D03*
X0149821Y0250689D03*
X0149821Y0250899D03*
X0149821Y0251039D03*
X0149821Y0251249D03*
X0149821Y0250339D03*
X0149821Y0250199D03*
X0149821Y0249989D03*
X0149821Y0249849D03*
X0149821Y0249639D03*
X0149821Y0249499D03*
X0149821Y0249289D03*
X0149821Y0249149D03*
X0149821Y0248939D03*
X0149821Y0248799D03*
X0149821Y0248589D03*
D322*
X0151256Y0247399D03*
X0146706Y0247399D03*
X0146706Y0247539D03*
X0146706Y0247189D03*
X0146706Y0247049D03*
X0146706Y0246839D03*
X0146706Y0246699D03*
X0160426Y0246699D03*
X0160426Y0246839D03*
X0160426Y0247049D03*
X0160426Y0247189D03*
X0160426Y0247399D03*
X0160426Y0247539D03*
D323*
X0155911Y0246699D03*
X0152411Y0247539D03*
X0150101Y0247539D03*
X0135191Y0247539D03*
X0133881Y0246839D03*
X0133741Y0247049D03*
X0133671Y0247189D03*
X0133531Y0247399D03*
X0133741Y0251249D03*
X0166271Y0247189D03*
D324*
X0151256Y0246699D03*
X0136346Y0246699D03*
X0131606Y0249499D03*
D325*
X0131956Y0248449D03*
X0142436Y0247539D03*
X0142436Y0247399D03*
X0142436Y0247189D03*
X0142436Y0247049D03*
X0142436Y0246839D03*
X0142436Y0246699D03*
D326*
X0133986Y0246699D03*
X0133426Y0247539D03*
X0133286Y0247749D03*
X0133216Y0247889D03*
X0133076Y0248099D03*
X0133006Y0248239D03*
X0131046Y0248239D03*
X0133286Y0250689D03*
X0133566Y0251039D03*
X0163716Y0250899D03*
X0166306Y0247049D03*
D327*
X0163576Y0249149D03*
X0159166Y0249639D03*
X0159166Y0249849D03*
X0159166Y0249989D03*
X0159166Y0248239D03*
X0159166Y0248099D03*
X0159166Y0247889D03*
X0159166Y0247749D03*
X0156996Y0249639D03*
X0157066Y0249849D03*
X0157136Y0250199D03*
X0157206Y0250339D03*
X0157276Y0250549D03*
X0157276Y0250689D03*
X0157346Y0250899D03*
X0154756Y0250199D03*
X0154686Y0250339D03*
X0154616Y0250689D03*
X0154546Y0250899D03*
X0154476Y0251039D03*
X0154476Y0251249D03*
X0154826Y0249849D03*
X0154896Y0249639D03*
X0152726Y0249639D03*
X0152726Y0249499D03*
X0152726Y0249289D03*
X0152726Y0249149D03*
X0152726Y0248939D03*
X0152726Y0248799D03*
X0152726Y0248589D03*
X0152726Y0248449D03*
X0152726Y0248239D03*
X0152726Y0249849D03*
X0152726Y0249989D03*
X0152726Y0250199D03*
X0152726Y0250339D03*
X0152726Y0250549D03*
X0152726Y0250689D03*
X0152726Y0250899D03*
X0152726Y0251039D03*
X0152726Y0251249D03*
X0149856Y0248449D03*
X0149856Y0248239D03*
X0149856Y0248099D03*
X0145446Y0248099D03*
X0145446Y0248239D03*
X0145446Y0247889D03*
X0145446Y0247749D03*
X0145446Y0249639D03*
X0145446Y0249849D03*
X0145446Y0249989D03*
X0141386Y0249989D03*
X0141386Y0249849D03*
X0141386Y0249639D03*
X0141386Y0249499D03*
X0141386Y0249289D03*
X0141386Y0249149D03*
X0141386Y0248939D03*
X0141386Y0248799D03*
X0141386Y0248589D03*
X0141386Y0248449D03*
X0141386Y0248239D03*
X0141386Y0248099D03*
X0141386Y0247889D03*
X0141386Y0247749D03*
X0141386Y0250199D03*
X0141386Y0250339D03*
X0141386Y0250549D03*
X0141386Y0250689D03*
X0141386Y0250899D03*
X0141386Y0251039D03*
X0141386Y0251249D03*
X0137746Y0251249D03*
X0137746Y0251039D03*
X0137746Y0250899D03*
X0137746Y0250689D03*
X0137746Y0250549D03*
X0137746Y0250339D03*
X0137746Y0250199D03*
X0137746Y0249989D03*
X0137746Y0249849D03*
X0137746Y0249639D03*
X0137746Y0249499D03*
X0137746Y0249289D03*
X0137746Y0249149D03*
X0137746Y0248939D03*
X0137746Y0248799D03*
X0137746Y0248589D03*
X0137746Y0248449D03*
X0137746Y0248239D03*
X0137746Y0248099D03*
X0134876Y0248239D03*
X0134876Y0248449D03*
X0134876Y0248589D03*
X0134876Y0248799D03*
X0134876Y0248939D03*
X0134876Y0249149D03*
X0134876Y0249289D03*
X0134876Y0249499D03*
X0134876Y0249639D03*
X0134876Y0249849D03*
X0134876Y0249989D03*
X0134876Y0250199D03*
X0134876Y0250339D03*
X0134876Y0250549D03*
X0134876Y0250689D03*
X0134876Y0250899D03*
X0134876Y0251039D03*
X0134876Y0251249D03*
X0130906Y0251249D03*
X0130906Y0251039D03*
X0130906Y0250899D03*
X0130906Y0250689D03*
X0130906Y0250549D03*
X0130906Y0250339D03*
X0130906Y0250199D03*
X0130906Y0249989D03*
X0130906Y0249849D03*
X0130906Y0247889D03*
X0130906Y0247749D03*
X0130906Y0247539D03*
X0130906Y0247399D03*
X0130906Y0247189D03*
X0130906Y0247049D03*
X0130906Y0246839D03*
X0130906Y0246699D03*
D328*
X0132446Y0249709D03*
X0132936Y0250269D03*
X0137676Y0247819D03*
X0149926Y0247819D03*
X0149996Y0247679D03*
X0163646Y0251179D03*
X0166376Y0246769D03*
D329*
X0151256Y0246769D03*
D330*
X0136311Y0246769D03*
D331*
X0136311Y0246839D03*
X0131781Y0248939D03*
X0151291Y0246839D03*
D332*
X0152481Y0247609D03*
X0152551Y0247679D03*
X0163681Y0251109D03*
X0166341Y0246909D03*
X0137571Y0247679D03*
X0135051Y0247679D03*
X0133041Y0248169D03*
X0132831Y0250129D03*
X0133041Y0250409D03*
D333*
X0151256Y0246909D03*
D334*
X0136311Y0246909D03*
X0131851Y0248729D03*
D335*
X0155911Y0246979D03*
X0163821Y0250479D03*
X0166201Y0247329D03*
D336*
X0136311Y0246979D03*
X0131921Y0248519D03*
D337*
X0155911Y0247049D03*
X0163821Y0250549D03*
X0166201Y0247399D03*
D338*
X0151291Y0247049D03*
X0136311Y0247049D03*
D339*
X0155946Y0247119D03*
X0163856Y0250409D03*
X0166166Y0247469D03*
D340*
X0151256Y0247119D03*
X0146566Y0248519D03*
X0146566Y0248659D03*
X0146566Y0248729D03*
X0146566Y0248869D03*
X0146566Y0249009D03*
X0146566Y0249079D03*
X0146566Y0249219D03*
X0146566Y0249359D03*
X0146566Y0249429D03*
D341*
X0136311Y0247119D03*
D342*
X0155911Y0247189D03*
X0163891Y0250339D03*
D343*
X0151256Y0247189D03*
D344*
X0136311Y0247189D03*
D345*
X0155911Y0247259D03*
X0163891Y0250269D03*
X0166131Y0247679D03*
X0166131Y0247609D03*
D346*
X0151256Y0247259D03*
D347*
X0146671Y0250269D03*
X0146671Y0250409D03*
X0146671Y0250479D03*
X0146671Y0250619D03*
X0146671Y0250759D03*
X0146671Y0250829D03*
X0146671Y0250969D03*
X0146671Y0251109D03*
X0146671Y0251179D03*
X0136311Y0247329D03*
X0136311Y0247259D03*
X0160391Y0250269D03*
X0160391Y0250409D03*
X0160391Y0250479D03*
X0160391Y0250619D03*
X0160391Y0250759D03*
X0160391Y0250829D03*
X0160391Y0250969D03*
X0160391Y0251109D03*
X0160391Y0251179D03*
D348*
X0163926Y0250199D03*
X0166096Y0247749D03*
X0155946Y0247399D03*
D349*
X0136311Y0247399D03*
D350*
X0151256Y0247469D03*
D351*
X0136311Y0247469D03*
D352*
X0166166Y0247539D03*
D353*
X0163996Y0249849D03*
X0155946Y0247539D03*
D354*
X0155946Y0247609D03*
X0163996Y0249919D03*
X0166026Y0248029D03*
D355*
X0155911Y0247679D03*
D356*
X0155946Y0247749D03*
X0164066Y0249639D03*
X0165956Y0248239D03*
D357*
X0137606Y0247749D03*
X0135016Y0247749D03*
X0132866Y0250199D03*
D358*
X0155946Y0247819D03*
X0164066Y0249569D03*
X0165956Y0248309D03*
D359*
X0166061Y0247889D03*
X0163961Y0249989D03*
D360*
X0164101Y0249499D03*
X0165921Y0248449D03*
X0155911Y0247889D03*
D361*
X0152691Y0248099D03*
X0152621Y0247889D03*
X0149891Y0247889D03*
X0145481Y0249499D03*
X0145481Y0250199D03*
X0137711Y0247889D03*
X0134911Y0248099D03*
X0157381Y0251039D03*
X0157451Y0251249D03*
X0159201Y0249499D03*
D362*
X0165991Y0248099D03*
D363*
X0165886Y0248589D03*
X0164136Y0249289D03*
X0155946Y0248099D03*
D364*
X0164031Y0249709D03*
X0164031Y0249779D03*
X0165991Y0248169D03*
D365*
X0165851Y0248659D03*
X0164171Y0249219D03*
X0155911Y0248169D03*
D366*
X0155946Y0248239D03*
D367*
X0155946Y0248309D03*
D368*
X0160286Y0248449D03*
X0160286Y0248589D03*
X0160286Y0248799D03*
X0160286Y0248939D03*
X0160286Y0249149D03*
X0160286Y0249289D03*
D369*
X0146566Y0249289D03*
X0146566Y0249149D03*
X0146566Y0248939D03*
X0146566Y0248799D03*
X0146566Y0248589D03*
X0146566Y0248449D03*
D370*
X0160286Y0248519D03*
X0160286Y0248659D03*
X0160286Y0248729D03*
X0160286Y0248869D03*
X0160286Y0249009D03*
X0160286Y0249079D03*
X0160286Y0249219D03*
X0160286Y0249359D03*
X0160286Y0249429D03*
D371*
X0131886Y0248589D03*
D372*
X0156716Y0248659D03*
X0164976Y0249009D03*
X0165046Y0248869D03*
D373*
X0131886Y0248659D03*
D374*
X0165151Y0248729D03*
D375*
X0165081Y0248799D03*
D376*
X0131816Y0248799D03*
D377*
X0156786Y0248869D03*
D378*
X0131816Y0248869D03*
D379*
X0164871Y0249149D03*
X0165011Y0248939D03*
D380*
X0131746Y0249009D03*
X0131746Y0249079D03*
D381*
X0164941Y0249079D03*
D382*
X0131711Y0249149D03*
D383*
X0131676Y0249219D03*
D384*
X0131676Y0249289D03*
X0131676Y0249639D03*
D385*
X0131641Y0249569D03*
X0131641Y0249359D03*
D386*
X0131606Y0249429D03*
D387*
X0132516Y0249779D03*
X0132656Y0249919D03*
D388*
X0146671Y0250339D03*
X0146671Y0250549D03*
X0146671Y0250689D03*
X0146671Y0250899D03*
X0146671Y0251039D03*
X0146671Y0251249D03*
X0160391Y0251249D03*
X0160391Y0251039D03*
X0160391Y0250899D03*
X0160391Y0250689D03*
X0160391Y0250549D03*
X0160391Y0250339D03*
D389*
X0147336Y0256289D03*
X0147336Y0256499D03*
X0147336Y0256639D03*
X0147336Y0256849D03*
X0147336Y0256989D03*
X0147336Y0257199D03*
X0147336Y0257339D03*
X0147336Y0257549D03*
X0147336Y0257689D03*
X0147336Y0257899D03*
D390*
X0147336Y0257829D03*
X0147336Y0257759D03*
X0147336Y0257619D03*
X0147336Y0257479D03*
X0147336Y0257409D03*
X0147336Y0257269D03*
X0147336Y0257129D03*
X0147336Y0257059D03*
X0147336Y0256919D03*
X0147336Y0256779D03*
X0147336Y0256709D03*
X0147336Y0256569D03*
X0147336Y0256429D03*
X0147336Y0256359D03*
X0147336Y0257969D03*
D391*
X0146924Y0157412D02*
X0153524Y0157412D01*
X0153524Y0167012D02*
X0146924Y0167012D01*
X0180834Y0172113D02*
X0180834Y0172483D01*
X0180834Y0172113D02*
X0187015Y0172113D01*
X0187015Y0172483D01*
X0187015Y0175657D02*
X0187015Y0179767D01*
X0187015Y0182940D02*
X0187015Y0183310D01*
X0180834Y0183310D01*
X0180834Y0182940D01*
X0180834Y0179767D02*
X0180834Y0179397D01*
X0180834Y0176027D02*
X0180834Y0175657D01*
X0288271Y0176466D02*
X0288271Y0177767D01*
X0288705Y0178201D01*
X0289573Y0178201D01*
X0290006Y0177767D01*
X0290006Y0176466D01*
X0290006Y0177333D02*
X0290874Y0178201D01*
X0290874Y0179412D02*
X0290874Y0181147D01*
X0290440Y0182359D02*
X0290874Y0182793D01*
X0290874Y0183660D01*
X0290440Y0184094D01*
X0290006Y0184094D01*
X0289573Y0183660D01*
X0289573Y0182793D01*
X0289139Y0182359D01*
X0288705Y0182359D01*
X0288271Y0182793D01*
X0288271Y0183660D01*
X0288705Y0184094D01*
X0288271Y0185305D02*
X0290874Y0185305D01*
X0290874Y0187040D01*
X0289573Y0186173D02*
X0289573Y0185305D01*
X0288271Y0185305D02*
X0288271Y0187040D01*
X0288271Y0188252D02*
X0288271Y0189987D01*
X0288271Y0189119D02*
X0290874Y0189119D01*
X0288271Y0181147D02*
X0288271Y0179412D01*
X0290874Y0179412D01*
X0289573Y0179412D02*
X0289573Y0180280D01*
X0290874Y0176466D02*
X0288271Y0176466D01*
X0302745Y0243709D02*
X0302745Y0257635D01*
D392*
X0306631Y0252883D03*
X0305821Y0249043D03*
X0304621Y0249433D03*
X0304621Y0249463D03*
X0302011Y0246643D03*
X0302011Y0246613D03*
X0299431Y0249343D03*
X0298171Y0249073D03*
X0298171Y0249043D03*
X0298831Y0251623D03*
X0298831Y0251653D03*
X0293731Y0246793D03*
X0293761Y0246673D03*
X0293821Y0246493D03*
X0293821Y0246463D03*
X0293881Y0246283D03*
X0293881Y0246253D03*
X0293911Y0246193D03*
X0293911Y0246163D03*
X0293971Y0246013D03*
X0293971Y0245983D03*
X0294031Y0245833D03*
X0294061Y0245773D03*
X0294061Y0245743D03*
X0294121Y0245623D03*
X0294121Y0245593D03*
X0294181Y0245473D03*
X0294181Y0245443D03*
X0294211Y0245413D03*
X0294211Y0245383D03*
X0294271Y0245263D03*
X0301981Y0239923D03*
X0309631Y0245083D03*
X0309661Y0245143D03*
X0309721Y0245233D03*
X0309721Y0245263D03*
X0309781Y0245383D03*
X0309811Y0245443D03*
D393*
X0308341Y0248083D03*
X0308341Y0248113D03*
X0308341Y0248143D03*
X0305701Y0247993D03*
X0305701Y0247963D03*
X0302011Y0248083D03*
X0302011Y0248113D03*
X0302011Y0248143D03*
X0301981Y0239953D03*
D394*
X0301996Y0239983D03*
X0298396Y0247273D03*
X0298396Y0247303D03*
X0295666Y0249133D03*
X0295666Y0249163D03*
X0295666Y0249193D03*
X0295666Y0249223D03*
X0295666Y0252463D03*
X0301996Y0249193D03*
X0301996Y0249163D03*
X0305626Y0247303D03*
X0308356Y0249163D03*
X0308356Y0249193D03*
X0306856Y0253423D03*
D395*
X0308356Y0250063D03*
X0305536Y0246793D03*
X0301996Y0250063D03*
X0298456Y0246793D03*
X0298456Y0246763D03*
X0295666Y0250003D03*
X0295666Y0250033D03*
X0295666Y0250063D03*
X0295666Y0250093D03*
X0295666Y0252163D03*
X0295666Y0252193D03*
X0301996Y0257833D03*
X0301996Y0240013D03*
D396*
X0301996Y0240043D03*
X0301996Y0250783D03*
X0301996Y0257803D03*
D397*
X0301996Y0257773D03*
X0301996Y0251443D03*
X0308356Y0251443D03*
X0305416Y0246013D03*
X0298576Y0246013D03*
X0295666Y0251413D03*
X0295666Y0251443D03*
X0295666Y0251473D03*
X0295666Y0251503D03*
X0295666Y0251593D03*
X0295666Y0251623D03*
X0301996Y0240073D03*
D398*
X0301996Y0240103D03*
X0298636Y0245743D03*
X0305386Y0245743D03*
X0301996Y0251953D03*
D399*
X0301996Y0252313D03*
X0301996Y0257713D03*
X0301996Y0240133D03*
D400*
X0301981Y0240163D03*
X0298711Y0245353D03*
X0305281Y0245353D03*
X0302011Y0252673D03*
D401*
X0302011Y0252913D03*
X0302011Y0252943D03*
X0305251Y0245203D03*
X0301981Y0240193D03*
D402*
X0301996Y0240223D03*
X0301996Y0253123D03*
X0301996Y0257623D03*
D403*
X0305176Y0244993D03*
X0301996Y0240253D03*
D404*
X0301981Y0240283D03*
X0298831Y0244903D03*
D405*
X0301981Y0240313D03*
D406*
X0301996Y0240343D03*
X0305176Y0244783D03*
D407*
X0305176Y0244753D03*
X0301996Y0240373D03*
X0298846Y0244753D03*
D408*
X0301996Y0240403D03*
X0301996Y0257443D03*
D409*
X0301996Y0240433D03*
D410*
X0301996Y0240463D03*
X0301996Y0257383D03*
D411*
X0301996Y0257353D03*
X0301996Y0240493D03*
D412*
X0301996Y0240523D03*
D413*
X0301996Y0240553D03*
X0301996Y0257293D03*
D414*
X0301996Y0240583D03*
D415*
X0301996Y0240613D03*
X0301996Y0257233D03*
D416*
X0301981Y0240643D03*
D417*
X0301996Y0240673D03*
D418*
X0301996Y0240703D03*
X0301996Y0257143D03*
D419*
X0301996Y0257113D03*
X0301996Y0240733D03*
D420*
X0301996Y0240763D03*
X0301996Y0257083D03*
D421*
X0301996Y0257053D03*
X0301996Y0240793D03*
D422*
X0301981Y0240823D03*
D423*
X0301981Y0240853D03*
D424*
X0301981Y0240883D03*
D425*
X0301981Y0240913D03*
D426*
X0301996Y0240943D03*
X0301996Y0256903D03*
D427*
X0301996Y0256873D03*
X0301996Y0240973D03*
D428*
X0301996Y0241003D03*
X0301996Y0256843D03*
D429*
X0301996Y0256813D03*
X0301996Y0241033D03*
D430*
X0301996Y0241063D03*
D431*
X0301996Y0241093D03*
X0301996Y0256753D03*
D432*
X0301996Y0256723D03*
X0301996Y0241123D03*
D433*
X0301996Y0241153D03*
X0301996Y0256693D03*
D434*
X0301996Y0241183D03*
D435*
X0301996Y0241213D03*
X0301996Y0256633D03*
D436*
X0301996Y0256603D03*
X0301996Y0241243D03*
D437*
X0301981Y0241273D03*
D438*
X0301996Y0241303D03*
X0301996Y0256543D03*
D439*
X0301996Y0241333D03*
D440*
X0301996Y0241363D03*
X0301996Y0256483D03*
D441*
X0301996Y0241393D03*
D442*
X0301996Y0241423D03*
X0301996Y0256423D03*
D443*
X0301996Y0256393D03*
X0301996Y0241453D03*
D444*
X0301996Y0241483D03*
X0301996Y0256363D03*
D445*
X0301996Y0241513D03*
D446*
X0301996Y0241543D03*
X0301996Y0256303D03*
D447*
X0301981Y0241573D03*
D448*
X0301996Y0241603D03*
X0301996Y0256243D03*
D449*
X0301996Y0256213D03*
X0301996Y0241633D03*
D450*
X0301996Y0241663D03*
D451*
X0301996Y0241693D03*
X0301996Y0256153D03*
D452*
X0301996Y0256123D03*
X0301996Y0241723D03*
D453*
X0301996Y0241753D03*
D454*
X0301996Y0241783D03*
X0301996Y0256063D03*
D455*
X0301996Y0256033D03*
X0301996Y0241813D03*
D456*
X0301981Y0241843D03*
D457*
X0301996Y0241873D03*
X0301996Y0255973D03*
D458*
X0301996Y0255943D03*
X0301996Y0241903D03*
D459*
X0301996Y0241933D03*
X0301996Y0255913D03*
D460*
X0301996Y0255883D03*
X0301996Y0241963D03*
D461*
X0301996Y0241993D03*
D462*
X0301996Y0242023D03*
X0301996Y0255823D03*
D463*
X0301996Y0255793D03*
X0301996Y0242053D03*
D464*
X0301996Y0242083D03*
X0301996Y0255763D03*
D465*
X0301996Y0255733D03*
X0301996Y0242113D03*
D466*
X0301996Y0242143D03*
X0301996Y0255673D03*
D467*
X0301996Y0242173D03*
D468*
X0301996Y0242203D03*
X0301996Y0255643D03*
D469*
X0301996Y0255613D03*
X0301996Y0242233D03*
D470*
X0301996Y0242263D03*
X0301996Y0255583D03*
D471*
X0301996Y0255553D03*
X0301996Y0242293D03*
D472*
X0301996Y0242323D03*
X0301996Y0255523D03*
D473*
X0301996Y0255493D03*
X0301996Y0242353D03*
D474*
X0301996Y0242383D03*
X0301996Y0255463D03*
D475*
X0301996Y0255433D03*
X0301996Y0242413D03*
D476*
X0301996Y0242443D03*
X0301996Y0255403D03*
D477*
X0301996Y0255373D03*
X0301996Y0242473D03*
D478*
X0301996Y0242503D03*
X0301996Y0255343D03*
D479*
X0301996Y0255313D03*
X0301996Y0242533D03*
D480*
X0301996Y0242563D03*
X0301996Y0255283D03*
D481*
X0301996Y0255253D03*
X0301996Y0242593D03*
D482*
X0301996Y0242623D03*
X0301996Y0255223D03*
D483*
X0301996Y0255193D03*
X0301996Y0242653D03*
D484*
X0301996Y0242683D03*
X0301996Y0255163D03*
D485*
X0301996Y0255133D03*
X0301996Y0242713D03*
D486*
X0301996Y0242743D03*
X0301996Y0255103D03*
D487*
X0301996Y0255073D03*
X0301996Y0242773D03*
D488*
X0301996Y0242803D03*
X0301996Y0255043D03*
D489*
X0301996Y0255013D03*
X0301996Y0242833D03*
D490*
X0301996Y0242863D03*
X0301996Y0254983D03*
D491*
X0301996Y0254953D03*
X0301996Y0242893D03*
D492*
X0301996Y0242923D03*
X0301996Y0254893D03*
X0301996Y0254923D03*
D493*
X0301996Y0254863D03*
X0301996Y0242953D03*
D494*
X0301996Y0242983D03*
X0301996Y0243013D03*
X0301996Y0254833D03*
D495*
X0301996Y0254803D03*
X0301996Y0243043D03*
D496*
X0301996Y0243073D03*
X0301996Y0254773D03*
D497*
X0301996Y0254743D03*
X0301996Y0243103D03*
D498*
X0301996Y0243133D03*
X0301996Y0254683D03*
X0301996Y0254713D03*
D499*
X0301996Y0254653D03*
X0301996Y0243193D03*
X0301996Y0243163D03*
D500*
X0301996Y0243223D03*
X0301996Y0254623D03*
D501*
X0301996Y0254593D03*
X0301996Y0243253D03*
D502*
X0301996Y0243283D03*
X0301996Y0254563D03*
D503*
X0301996Y0254503D03*
X0301996Y0243313D03*
D504*
X0301981Y0243343D03*
D505*
X0301996Y0243373D03*
X0301996Y0254473D03*
D506*
X0301996Y0254443D03*
X0301996Y0243403D03*
D507*
X0301996Y0243433D03*
X0301996Y0254383D03*
X0301996Y0254413D03*
D508*
X0301996Y0254353D03*
X0301996Y0243493D03*
X0301996Y0243463D03*
D509*
X0301996Y0243523D03*
X0301996Y0254323D03*
D510*
X0301996Y0254293D03*
X0301996Y0254263D03*
X0301996Y0243553D03*
D511*
X0301996Y0243583D03*
X0301996Y0243613D03*
X0301996Y0254233D03*
D512*
X0301996Y0254203D03*
X0301996Y0243643D03*
D513*
X0301996Y0243673D03*
X0301996Y0254143D03*
X0301996Y0254173D03*
D514*
X0301981Y0243703D03*
D515*
X0301996Y0243733D03*
X0301996Y0254113D03*
D516*
X0301996Y0254083D03*
X0301996Y0254053D03*
X0301996Y0243763D03*
D517*
X0301996Y0243793D03*
X0301996Y0243823D03*
X0301996Y0254023D03*
D518*
X0301996Y0253993D03*
X0301996Y0253963D03*
X0301996Y0243853D03*
D519*
X0301996Y0243883D03*
X0301996Y0243913D03*
X0301996Y0253933D03*
D520*
X0301996Y0253903D03*
X0301996Y0253873D03*
X0301996Y0243943D03*
D521*
X0301996Y0243973D03*
X0301996Y0244003D03*
X0301996Y0253843D03*
D522*
X0301996Y0253813D03*
X0301996Y0253783D03*
X0301996Y0244033D03*
D523*
X0301996Y0244063D03*
X0301996Y0244093D03*
X0301996Y0253753D03*
D524*
X0301996Y0253723D03*
X0301996Y0253693D03*
X0301996Y0244153D03*
X0301996Y0244123D03*
D525*
X0301996Y0244183D03*
X0301996Y0253663D03*
D526*
X0301996Y0253603D03*
X0301996Y0244243D03*
X0301996Y0244213D03*
D527*
X0301996Y0244273D03*
X0301996Y0253573D03*
D528*
X0301996Y0244333D03*
X0301996Y0244303D03*
D529*
X0301996Y0244363D03*
X0301996Y0244393D03*
D530*
X0301996Y0244423D03*
X0301996Y0244453D03*
D531*
X0301996Y0244483D03*
D532*
X0301996Y0244513D03*
X0301996Y0244543D03*
D533*
X0301996Y0244573D03*
X0301996Y0244603D03*
D534*
X0301996Y0244633D03*
X0301996Y0244663D03*
D535*
X0301996Y0244693D03*
D536*
X0309226Y0244723D03*
X0295666Y0247423D03*
X0295666Y0247453D03*
X0295666Y0247483D03*
X0295666Y0247513D03*
X0295666Y0252943D03*
D537*
X0305176Y0244723D03*
D538*
X0298831Y0244723D03*
D539*
X0298261Y0248353D03*
X0298261Y0248383D03*
X0302011Y0247543D03*
X0302011Y0247513D03*
X0302011Y0247483D03*
X0305761Y0248383D03*
X0308341Y0247543D03*
X0308341Y0247513D03*
X0308341Y0247483D03*
X0297301Y0253153D03*
X0294781Y0244723D03*
D540*
X0294676Y0244753D03*
X0295666Y0247183D03*
X0295666Y0247213D03*
X0295666Y0247243D03*
X0295666Y0247273D03*
X0298936Y0250693D03*
X0298906Y0250753D03*
X0298906Y0250783D03*
X0298876Y0250843D03*
X0298846Y0251053D03*
X0297316Y0253093D03*
X0295666Y0253003D03*
X0301996Y0247243D03*
X0301996Y0247213D03*
X0305776Y0248563D03*
X0305776Y0248593D03*
X0305086Y0250723D03*
X0305086Y0250753D03*
X0305116Y0250783D03*
X0305116Y0250813D03*
X0305176Y0251023D03*
X0305176Y0251053D03*
X0305176Y0251083D03*
X0308356Y0247243D03*
X0308356Y0247213D03*
X0309316Y0244753D03*
D541*
X0309361Y0244783D03*
X0308341Y0247033D03*
X0308341Y0247063D03*
X0308341Y0247093D03*
X0305791Y0248683D03*
X0305791Y0248713D03*
X0305791Y0248743D03*
X0304951Y0250363D03*
X0304951Y0250393D03*
X0304981Y0250423D03*
X0304981Y0250453D03*
X0306661Y0253033D03*
X0308341Y0253033D03*
X0309151Y0253453D03*
X0302011Y0247093D03*
X0302011Y0247063D03*
X0302011Y0247033D03*
X0299071Y0250333D03*
X0299071Y0250363D03*
X0299041Y0250393D03*
X0299041Y0250423D03*
X0298831Y0251203D03*
X0298831Y0251233D03*
X0297331Y0253033D03*
X0294841Y0253453D03*
X0294631Y0244783D03*
D542*
X0298831Y0244783D03*
X0301981Y0257503D03*
D543*
X0306661Y0253003D03*
X0304891Y0250213D03*
X0304891Y0250183D03*
X0304861Y0250153D03*
X0304861Y0250123D03*
X0305791Y0248803D03*
X0305791Y0248773D03*
X0308341Y0246973D03*
X0308341Y0246943D03*
X0309421Y0244813D03*
X0302011Y0246943D03*
X0302011Y0246973D03*
X0298201Y0248773D03*
X0298201Y0248803D03*
X0298201Y0248833D03*
X0299161Y0250093D03*
X0299131Y0250153D03*
X0299131Y0250183D03*
X0298831Y0251293D03*
X0298831Y0251323D03*
X0298831Y0251353D03*
X0294541Y0244843D03*
D544*
X0305176Y0244813D03*
D545*
X0298831Y0244813D03*
D546*
X0295666Y0246973D03*
X0295666Y0247003D03*
X0295666Y0247033D03*
X0294586Y0244813D03*
X0298216Y0248713D03*
X0298216Y0248743D03*
X0299116Y0250213D03*
X0299116Y0250243D03*
X0299086Y0250273D03*
X0299086Y0250303D03*
X0298846Y0251263D03*
X0297346Y0253003D03*
X0295666Y0253033D03*
X0301996Y0247003D03*
X0304906Y0250243D03*
X0304906Y0250273D03*
X0304936Y0250303D03*
X0304936Y0250333D03*
X0305176Y0251233D03*
X0305176Y0251263D03*
X0305176Y0251293D03*
X0305176Y0251323D03*
X0308356Y0247003D03*
D547*
X0308356Y0246913D03*
X0308356Y0246883D03*
X0309436Y0244843D03*
X0305806Y0248833D03*
X0305806Y0248863D03*
X0304846Y0250063D03*
X0304846Y0250093D03*
X0306646Y0252973D03*
X0308356Y0253063D03*
X0301996Y0246913D03*
X0301996Y0246883D03*
X0299206Y0249973D03*
X0299146Y0250123D03*
X0298846Y0251383D03*
X0297346Y0252973D03*
D548*
X0301996Y0257533D03*
X0305176Y0244843D03*
D549*
X0298831Y0244843D03*
D550*
X0302011Y0246823D03*
X0302011Y0246853D03*
X0299251Y0249853D03*
X0299191Y0250003D03*
X0298831Y0251413D03*
X0298831Y0251443D03*
X0297361Y0252943D03*
X0294751Y0253423D03*
X0298201Y0248893D03*
X0298201Y0248863D03*
X0294481Y0244903D03*
X0304801Y0249943D03*
X0304801Y0249973D03*
X0308341Y0246853D03*
X0308341Y0246823D03*
X0309481Y0244873D03*
D551*
X0305161Y0244873D03*
X0298831Y0244873D03*
D552*
X0295666Y0246853D03*
X0295666Y0246883D03*
X0295666Y0246913D03*
X0295666Y0246943D03*
X0294526Y0244873D03*
X0299176Y0250033D03*
X0299176Y0250063D03*
X0295666Y0253063D03*
X0304816Y0250033D03*
X0304816Y0250003D03*
X0305176Y0251353D03*
X0305176Y0251383D03*
X0305176Y0251413D03*
D553*
X0305176Y0251443D03*
X0305176Y0251473D03*
X0305176Y0251503D03*
X0305176Y0251533D03*
X0304756Y0249853D03*
X0304756Y0249823D03*
X0304726Y0249793D03*
X0304726Y0249763D03*
X0304726Y0249733D03*
X0305806Y0248923D03*
X0308356Y0246793D03*
X0309526Y0244933D03*
X0309496Y0244903D03*
X0301996Y0246793D03*
X0299296Y0249733D03*
X0299266Y0249793D03*
X0299266Y0249823D03*
X0299236Y0249883D03*
X0298186Y0248953D03*
X0298186Y0248923D03*
X0298846Y0251473D03*
X0295666Y0253093D03*
X0295666Y0246823D03*
X0295666Y0246793D03*
X0295666Y0246763D03*
X0294436Y0244963D03*
X0294466Y0244933D03*
X0306646Y0252943D03*
X0309256Y0253423D03*
D554*
X0301996Y0257563D03*
X0305176Y0244903D03*
D555*
X0305176Y0244933D03*
D556*
X0298846Y0244933D03*
D557*
X0302011Y0246733D03*
X0302011Y0246763D03*
X0299341Y0249583D03*
X0299341Y0249613D03*
X0299311Y0249643D03*
X0299311Y0249673D03*
X0299311Y0249703D03*
X0299281Y0249763D03*
X0298831Y0251503D03*
X0298831Y0251533D03*
X0298831Y0251563D03*
X0297361Y0252913D03*
X0304681Y0249643D03*
X0304681Y0249613D03*
X0304711Y0249673D03*
X0304711Y0249703D03*
X0305821Y0248983D03*
X0305821Y0248953D03*
X0308341Y0246763D03*
X0308341Y0246733D03*
X0309571Y0244993D03*
X0309541Y0244963D03*
X0306631Y0252913D03*
X0308341Y0253093D03*
X0294421Y0245023D03*
X0294421Y0244993D03*
X0294391Y0245053D03*
D558*
X0298846Y0244963D03*
X0305176Y0244963D03*
D559*
X0298831Y0244993D03*
X0302011Y0253303D03*
D560*
X0305176Y0251623D03*
X0305176Y0251593D03*
X0305176Y0251563D03*
X0304666Y0249583D03*
X0304666Y0249553D03*
X0304636Y0249523D03*
X0304636Y0249493D03*
X0305836Y0249013D03*
X0308356Y0246703D03*
X0308356Y0246673D03*
X0309646Y0245113D03*
X0309616Y0245053D03*
X0309586Y0245023D03*
X0301996Y0246673D03*
X0301996Y0246703D03*
X0299386Y0249463D03*
X0299386Y0249493D03*
X0299356Y0249523D03*
X0299356Y0249553D03*
X0298186Y0249013D03*
X0298186Y0248983D03*
X0298846Y0251593D03*
X0297376Y0252883D03*
X0294706Y0253393D03*
X0295666Y0246733D03*
X0295666Y0246703D03*
X0295666Y0246673D03*
X0295666Y0246643D03*
X0294256Y0245293D03*
X0294286Y0245233D03*
X0294316Y0245173D03*
X0294346Y0245143D03*
X0294346Y0245113D03*
X0294376Y0245083D03*
D561*
X0298816Y0245023D03*
X0305176Y0245023D03*
D562*
X0305206Y0245053D03*
X0301996Y0253213D03*
D563*
X0302011Y0253183D03*
X0298801Y0245053D03*
D564*
X0305206Y0245083D03*
D565*
X0298801Y0245083D03*
X0302011Y0253153D03*
D566*
X0302011Y0253093D03*
X0305221Y0245113D03*
X0298801Y0245113D03*
D567*
X0298771Y0245143D03*
X0305221Y0245143D03*
X0302011Y0253033D03*
D568*
X0299401Y0249433D03*
X0299401Y0249403D03*
X0304591Y0249403D03*
X0304591Y0249373D03*
X0308341Y0246643D03*
X0308341Y0246613D03*
X0309991Y0245893D03*
X0309901Y0245653D03*
X0309841Y0245503D03*
X0309751Y0245323D03*
X0309751Y0245293D03*
X0309691Y0245203D03*
X0309691Y0245173D03*
X0308341Y0253123D03*
X0309301Y0253393D03*
X0293791Y0246583D03*
X0293851Y0246373D03*
X0293941Y0246103D03*
X0293941Y0246073D03*
X0294001Y0245923D03*
X0294001Y0245893D03*
X0294091Y0245683D03*
X0294091Y0245653D03*
X0294151Y0245533D03*
X0294151Y0245503D03*
X0294241Y0245353D03*
X0294241Y0245323D03*
X0294301Y0245203D03*
D569*
X0305236Y0245173D03*
D570*
X0298771Y0245173D03*
X0302011Y0252973D03*
X0302011Y0253003D03*
D571*
X0298756Y0245203D03*
D572*
X0305266Y0245233D03*
D573*
X0298741Y0245233D03*
X0302011Y0252853D03*
X0302011Y0252883D03*
D574*
X0305266Y0245263D03*
D575*
X0298741Y0245263D03*
X0302011Y0252793D03*
X0302011Y0252823D03*
D576*
X0301996Y0252763D03*
X0305266Y0245293D03*
X0298726Y0245293D03*
D577*
X0300856Y0245833D03*
X0300886Y0245773D03*
X0301996Y0245323D03*
X0303136Y0245803D03*
X0308356Y0245323D03*
X0310696Y0250393D03*
X0310696Y0250423D03*
X0310216Y0252013D03*
X0306466Y0252013D03*
X0305176Y0252943D03*
X0305986Y0250423D03*
X0305986Y0250393D03*
X0298006Y0250423D03*
X0297556Y0252013D03*
X0293776Y0252013D03*
X0293326Y0250423D03*
X0295666Y0245323D03*
D578*
X0296431Y0253543D03*
X0302011Y0252733D03*
X0307561Y0253543D03*
X0305281Y0245323D03*
D579*
X0298726Y0245323D03*
D580*
X0295666Y0246553D03*
X0295666Y0246583D03*
X0295666Y0246613D03*
X0293956Y0246043D03*
X0293986Y0245953D03*
X0294016Y0245863D03*
X0294076Y0245713D03*
X0294136Y0245563D03*
X0293926Y0246133D03*
X0293866Y0246313D03*
X0293866Y0246343D03*
X0293836Y0246403D03*
X0293836Y0246433D03*
X0293806Y0246523D03*
X0293806Y0246553D03*
X0293776Y0246613D03*
X0293776Y0246643D03*
X0293716Y0246823D03*
X0293716Y0246853D03*
X0293716Y0246883D03*
X0293686Y0246943D03*
X0293686Y0246973D03*
X0293686Y0247003D03*
X0293656Y0247063D03*
X0293656Y0247093D03*
X0293656Y0247123D03*
X0293626Y0247213D03*
X0299416Y0249373D03*
X0299476Y0249223D03*
X0297376Y0252853D03*
X0295666Y0253123D03*
X0305176Y0251713D03*
X0305176Y0251683D03*
X0305176Y0251653D03*
X0306616Y0252853D03*
X0305836Y0249103D03*
X0305836Y0249073D03*
X0304576Y0249313D03*
X0304576Y0249343D03*
X0308356Y0246583D03*
X0310036Y0246043D03*
X0310036Y0246013D03*
X0310036Y0245983D03*
X0310006Y0245953D03*
X0310006Y0245923D03*
X0309976Y0245863D03*
X0309976Y0245833D03*
X0309916Y0245713D03*
X0309916Y0245683D03*
X0309886Y0245623D03*
X0309886Y0245593D03*
X0309856Y0245563D03*
X0309856Y0245533D03*
X0309826Y0245473D03*
X0309766Y0245353D03*
X0310066Y0246073D03*
X0310066Y0246103D03*
X0310066Y0246133D03*
X0310126Y0246253D03*
X0310126Y0246283D03*
X0310126Y0246313D03*
X0310156Y0246373D03*
X0310156Y0246403D03*
X0310156Y0246433D03*
X0310186Y0246463D03*
X0310186Y0246493D03*
X0310186Y0246523D03*
X0310216Y0246583D03*
X0310216Y0246613D03*
X0310276Y0246823D03*
X0310306Y0246943D03*
X0310336Y0247063D03*
D581*
X0308341Y0245353D03*
X0303211Y0245923D03*
X0303181Y0245893D03*
X0303181Y0245863D03*
X0303151Y0245833D03*
X0302011Y0245353D03*
X0300871Y0245803D03*
X0300841Y0245863D03*
X0300811Y0245893D03*
X0295681Y0245353D03*
X0298021Y0250363D03*
X0298021Y0250393D03*
X0297541Y0252043D03*
X0298831Y0252913D03*
X0298831Y0252943D03*
X0293791Y0252043D03*
X0293311Y0250393D03*
X0293311Y0250363D03*
X0306481Y0252043D03*
X0310231Y0252043D03*
D582*
X0310216Y0252073D03*
X0306466Y0252073D03*
X0305176Y0252883D03*
X0305176Y0252913D03*
X0305986Y0250363D03*
X0305986Y0250333D03*
X0303256Y0246013D03*
X0303226Y0245953D03*
X0300766Y0245983D03*
X0295666Y0245383D03*
X0297526Y0252073D03*
X0293806Y0252073D03*
X0308356Y0245383D03*
D583*
X0305296Y0245383D03*
X0301996Y0252643D03*
X0301996Y0257683D03*
X0307636Y0253513D03*
X0296356Y0253513D03*
D584*
X0293296Y0250333D03*
X0300796Y0245953D03*
X0300796Y0245923D03*
X0301996Y0245383D03*
X0310696Y0250333D03*
X0310696Y0250363D03*
D585*
X0302011Y0252583D03*
X0302011Y0252613D03*
X0298711Y0245383D03*
D586*
X0301996Y0246583D03*
X0304546Y0249253D03*
X0304546Y0249283D03*
X0299446Y0249283D03*
X0299446Y0249313D03*
X0298846Y0251683D03*
X0294646Y0253363D03*
X0293746Y0246763D03*
X0293746Y0246733D03*
X0293746Y0246703D03*
X0293896Y0246223D03*
X0294046Y0245803D03*
X0301996Y0257923D03*
X0310246Y0246733D03*
X0310246Y0246703D03*
X0310096Y0246223D03*
X0310096Y0246193D03*
X0310096Y0246163D03*
X0309946Y0245803D03*
X0309946Y0245773D03*
X0309946Y0245743D03*
X0309796Y0245413D03*
D587*
X0308341Y0245413D03*
X0303301Y0246103D03*
X0303241Y0245983D03*
X0300751Y0246013D03*
X0297541Y0252103D03*
X0293791Y0252103D03*
X0310201Y0252103D03*
D588*
X0307696Y0253483D03*
X0301996Y0252553D03*
X0305296Y0245413D03*
X0298696Y0245413D03*
D589*
X0300721Y0246073D03*
X0302011Y0245413D03*
X0303271Y0246043D03*
X0305971Y0250273D03*
X0305971Y0250303D03*
X0306481Y0252103D03*
X0310711Y0250303D03*
X0310711Y0250273D03*
X0298831Y0252853D03*
X0298831Y0252883D03*
X0298021Y0250333D03*
X0298021Y0250303D03*
X0293311Y0250303D03*
D590*
X0293296Y0250273D03*
X0293296Y0250243D03*
X0293806Y0252133D03*
X0293806Y0252163D03*
X0297526Y0252133D03*
X0298036Y0250273D03*
X0298036Y0250243D03*
X0300676Y0246163D03*
X0300706Y0246103D03*
X0300736Y0246043D03*
X0301996Y0245443D03*
X0303286Y0246073D03*
X0303316Y0246133D03*
X0303346Y0246193D03*
X0308356Y0245443D03*
X0310216Y0252133D03*
X0306496Y0252133D03*
X0305176Y0252823D03*
X0305176Y0252853D03*
X0295666Y0245443D03*
X0295666Y0245413D03*
D591*
X0302011Y0252523D03*
X0305311Y0245443D03*
D592*
X0305326Y0245473D03*
X0298696Y0245443D03*
X0301996Y0252493D03*
D593*
X0298831Y0252793D03*
X0298831Y0252823D03*
X0297511Y0252163D03*
X0293281Y0250213D03*
X0300631Y0246253D03*
X0300661Y0246193D03*
X0300691Y0246133D03*
X0302011Y0245473D03*
X0303331Y0246163D03*
X0303361Y0246223D03*
X0303391Y0246283D03*
X0305971Y0250213D03*
X0305971Y0250243D03*
X0306481Y0252163D03*
X0310201Y0252163D03*
X0310711Y0250243D03*
X0310711Y0250213D03*
X0308341Y0245473D03*
D594*
X0302011Y0252433D03*
X0302011Y0252463D03*
X0298681Y0245473D03*
D595*
X0300586Y0246343D03*
X0300616Y0246283D03*
X0300646Y0246223D03*
X0301996Y0245503D03*
X0303376Y0246253D03*
X0303406Y0246313D03*
X0305956Y0250153D03*
X0305956Y0250183D03*
X0306496Y0252193D03*
X0305176Y0252763D03*
X0305176Y0252793D03*
X0310186Y0252193D03*
X0310726Y0250183D03*
X0310726Y0250153D03*
X0308356Y0245503D03*
X0298036Y0250153D03*
X0298036Y0250183D03*
X0298036Y0250213D03*
X0297526Y0252193D03*
X0293806Y0252193D03*
X0293296Y0250183D03*
X0295666Y0245533D03*
X0295666Y0245503D03*
X0295666Y0245473D03*
D596*
X0301996Y0252403D03*
X0305326Y0245503D03*
D597*
X0298681Y0245503D03*
X0302011Y0252343D03*
X0302011Y0252373D03*
D598*
X0298831Y0252733D03*
X0298831Y0252763D03*
X0297511Y0252223D03*
X0298051Y0250123D03*
X0300541Y0246433D03*
X0300601Y0246313D03*
X0302011Y0245533D03*
X0303451Y0246403D03*
X0308341Y0245533D03*
X0306511Y0252223D03*
X0308341Y0253303D03*
X0310201Y0252223D03*
X0293281Y0250153D03*
X0293281Y0250123D03*
D599*
X0305341Y0245533D03*
D600*
X0298666Y0245533D03*
X0298666Y0245563D03*
D601*
X0300496Y0246553D03*
X0301996Y0245563D03*
X0303496Y0246493D03*
X0303496Y0246523D03*
X0305956Y0250093D03*
X0305956Y0250123D03*
X0306496Y0252253D03*
X0310186Y0252253D03*
X0308356Y0245563D03*
X0298036Y0250093D03*
X0297496Y0252253D03*
X0298846Y0252703D03*
X0293836Y0252253D03*
D602*
X0302011Y0252253D03*
X0302011Y0252283D03*
X0305341Y0245563D03*
D603*
X0303466Y0246433D03*
X0303466Y0246463D03*
X0300526Y0246463D03*
X0300526Y0246493D03*
X0295666Y0245593D03*
X0295666Y0245563D03*
X0293266Y0250093D03*
X0295666Y0253303D03*
X0305176Y0252733D03*
X0305176Y0252703D03*
X0310726Y0250123D03*
X0310726Y0250093D03*
D604*
X0310741Y0250063D03*
X0310741Y0250033D03*
X0310171Y0252283D03*
X0306511Y0252283D03*
X0305941Y0250063D03*
X0305941Y0250033D03*
X0303571Y0246673D03*
X0303541Y0246613D03*
X0303541Y0246583D03*
X0303511Y0246553D03*
X0302011Y0245623D03*
X0302011Y0245593D03*
X0300511Y0246523D03*
X0300481Y0246583D03*
X0300451Y0246643D03*
X0298051Y0250033D03*
X0298051Y0250063D03*
X0297511Y0252283D03*
X0298831Y0252673D03*
X0293821Y0252283D03*
X0293281Y0250063D03*
X0308341Y0245623D03*
X0308341Y0245593D03*
D605*
X0305356Y0245593D03*
X0298666Y0245593D03*
X0301996Y0252223D03*
D606*
X0302011Y0252193D03*
X0302011Y0252163D03*
X0305341Y0245623D03*
X0298651Y0245623D03*
D607*
X0300466Y0246613D03*
X0300436Y0246673D03*
X0300436Y0246703D03*
X0300406Y0246733D03*
X0303556Y0246643D03*
X0303586Y0246703D03*
X0305956Y0250003D03*
X0306526Y0252313D03*
X0305176Y0252613D03*
X0305176Y0252643D03*
X0305176Y0252673D03*
X0310126Y0252403D03*
X0310156Y0252343D03*
X0310186Y0252313D03*
X0310756Y0250003D03*
X0298846Y0252643D03*
X0297496Y0252313D03*
X0298066Y0250003D03*
X0298066Y0249973D03*
X0293266Y0250003D03*
X0293266Y0250033D03*
X0293836Y0252313D03*
X0295666Y0245653D03*
X0295666Y0245623D03*
D608*
X0300361Y0246853D03*
X0300391Y0246793D03*
X0300391Y0246763D03*
X0302011Y0245683D03*
X0302011Y0245653D03*
X0303601Y0246733D03*
X0303601Y0246763D03*
X0303631Y0246793D03*
X0303631Y0246823D03*
X0305941Y0249943D03*
X0305941Y0249973D03*
X0306511Y0252343D03*
X0310111Y0252433D03*
X0310141Y0252373D03*
X0310741Y0249973D03*
X0308341Y0245683D03*
X0308341Y0245653D03*
X0298831Y0252583D03*
X0298831Y0252613D03*
X0297481Y0252343D03*
X0293881Y0252403D03*
X0293851Y0252373D03*
X0293851Y0252343D03*
X0293251Y0249973D03*
D609*
X0301996Y0252133D03*
X0305356Y0245653D03*
D610*
X0298651Y0245653D03*
X0302011Y0252073D03*
X0302011Y0252103D03*
D611*
X0305371Y0245683D03*
D612*
X0298636Y0245683D03*
X0301996Y0252043D03*
D613*
X0305176Y0252553D03*
X0305176Y0252583D03*
X0306526Y0252373D03*
X0305926Y0249913D03*
X0303676Y0246913D03*
X0300376Y0246823D03*
X0298066Y0249913D03*
X0298066Y0249943D03*
X0293266Y0249943D03*
X0293926Y0252493D03*
X0295666Y0245743D03*
X0295666Y0245713D03*
X0295666Y0245683D03*
X0308356Y0245713D03*
X0310756Y0249883D03*
X0310756Y0249913D03*
X0310756Y0249943D03*
X0310066Y0252493D03*
X0310036Y0252553D03*
D614*
X0302011Y0252013D03*
X0302011Y0251983D03*
X0305371Y0245713D03*
X0298621Y0245713D03*
D615*
X0300346Y0246883D03*
X0300346Y0246913D03*
X0301996Y0245713D03*
X0303646Y0246853D03*
X0303646Y0246883D03*
X0297496Y0252373D03*
X0293896Y0252433D03*
X0310096Y0252463D03*
D616*
X0310051Y0252523D03*
X0309991Y0252613D03*
X0310741Y0249853D03*
X0310741Y0249823D03*
X0310741Y0249793D03*
X0308341Y0245743D03*
X0305941Y0249883D03*
X0306541Y0252403D03*
X0303691Y0246973D03*
X0303691Y0246943D03*
X0300301Y0246973D03*
X0300301Y0247003D03*
X0293251Y0249853D03*
X0293251Y0249883D03*
X0293251Y0249913D03*
X0293941Y0252523D03*
D617*
X0293971Y0252553D03*
X0293911Y0252463D03*
X0297481Y0252403D03*
X0298831Y0252523D03*
X0298831Y0252553D03*
X0298081Y0249883D03*
X0298081Y0249853D03*
X0300271Y0247063D03*
X0300331Y0246943D03*
X0302011Y0245743D03*
X0303721Y0247003D03*
X0303721Y0247033D03*
X0310021Y0252583D03*
D618*
X0309976Y0252643D03*
X0309946Y0252703D03*
X0308356Y0253273D03*
X0305176Y0252523D03*
X0305176Y0252493D03*
X0305176Y0252463D03*
X0305926Y0249853D03*
X0305926Y0249823D03*
X0303766Y0247153D03*
X0303766Y0247123D03*
X0303736Y0247093D03*
X0303736Y0247063D03*
X0301996Y0245773D03*
X0300286Y0247033D03*
X0300256Y0247093D03*
X0300256Y0247123D03*
X0300226Y0247183D03*
X0295666Y0245803D03*
X0295666Y0245773D03*
X0293266Y0249763D03*
X0293266Y0249793D03*
X0293266Y0249823D03*
X0293986Y0252583D03*
X0294016Y0252613D03*
X0294016Y0252643D03*
X0295666Y0253273D03*
X0297466Y0252433D03*
X0298846Y0252493D03*
X0308356Y0245773D03*
X0310756Y0249763D03*
D619*
X0305371Y0245773D03*
X0298621Y0245773D03*
X0302011Y0251893D03*
X0302011Y0251923D03*
X0301981Y0257743D03*
D620*
X0298831Y0252463D03*
X0298831Y0252433D03*
X0298081Y0249823D03*
X0298081Y0249793D03*
X0300181Y0247303D03*
X0300211Y0247243D03*
X0300211Y0247213D03*
X0300241Y0247153D03*
X0302011Y0245833D03*
X0302011Y0245803D03*
X0303781Y0247183D03*
X0303781Y0247213D03*
X0303811Y0247243D03*
X0303811Y0247273D03*
X0305911Y0249793D03*
X0306541Y0252433D03*
X0306541Y0252463D03*
X0309901Y0252763D03*
X0309931Y0252733D03*
X0309961Y0252673D03*
X0310741Y0249733D03*
X0310741Y0249703D03*
X0310741Y0249673D03*
X0310741Y0249643D03*
X0308341Y0245833D03*
X0308341Y0245803D03*
X0293251Y0249733D03*
X0294031Y0252673D03*
X0294061Y0252703D03*
D621*
X0305386Y0245803D03*
D622*
X0305401Y0245833D03*
X0298621Y0245803D03*
X0302011Y0251803D03*
X0302011Y0251833D03*
D623*
X0301996Y0251773D03*
X0298606Y0245863D03*
X0298606Y0245833D03*
D624*
X0300196Y0247273D03*
X0300166Y0247333D03*
X0301996Y0245863D03*
X0303826Y0247303D03*
X0303856Y0247333D03*
X0303856Y0247363D03*
X0305926Y0249763D03*
X0305176Y0252403D03*
X0305176Y0252433D03*
X0309856Y0252823D03*
X0309886Y0252793D03*
X0310726Y0249613D03*
X0310726Y0249583D03*
X0310726Y0249553D03*
X0310726Y0249523D03*
X0308356Y0245863D03*
X0298096Y0249733D03*
X0298096Y0249763D03*
X0297466Y0252463D03*
X0297466Y0252493D03*
X0294106Y0252763D03*
X0294076Y0252733D03*
X0293266Y0249703D03*
X0293266Y0249673D03*
X0293266Y0249643D03*
X0293266Y0249613D03*
X0293266Y0249583D03*
X0295666Y0245893D03*
X0295666Y0245863D03*
X0295666Y0245833D03*
D625*
X0302011Y0251683D03*
X0302011Y0251713D03*
X0302011Y0251743D03*
X0305401Y0245893D03*
X0305401Y0245863D03*
D626*
X0303901Y0247453D03*
X0303901Y0247483D03*
X0302011Y0245923D03*
X0302011Y0245893D03*
X0300151Y0247363D03*
X0300151Y0247393D03*
X0300091Y0247513D03*
X0298831Y0252373D03*
X0298831Y0252403D03*
X0294181Y0252883D03*
X0294151Y0252823D03*
X0293281Y0249553D03*
X0293281Y0249523D03*
X0293281Y0249493D03*
X0293281Y0249463D03*
X0305911Y0249703D03*
X0305911Y0249733D03*
X0306541Y0252493D03*
X0309811Y0252883D03*
X0309841Y0252853D03*
X0310711Y0249493D03*
X0310711Y0249463D03*
X0310711Y0249433D03*
X0310711Y0249403D03*
X0308341Y0245923D03*
X0308341Y0245893D03*
D627*
X0301996Y0251653D03*
X0298606Y0245893D03*
D628*
X0298591Y0245923D03*
X0302011Y0251593D03*
X0302011Y0251623D03*
X0305401Y0245923D03*
D629*
X0303916Y0247513D03*
X0303916Y0247543D03*
X0300076Y0247543D03*
X0300076Y0247573D03*
X0295666Y0245983D03*
X0295666Y0245953D03*
X0295666Y0245923D03*
X0297466Y0252523D03*
X0295666Y0253243D03*
X0294226Y0252943D03*
X0294166Y0252853D03*
X0305176Y0252373D03*
X0305176Y0252343D03*
X0305176Y0252313D03*
X0309766Y0252943D03*
D630*
X0309796Y0252913D03*
X0306556Y0252523D03*
X0305896Y0249673D03*
X0303946Y0247603D03*
X0303946Y0247573D03*
X0301996Y0245953D03*
X0300106Y0247483D03*
X0300046Y0247633D03*
X0298096Y0249673D03*
X0298096Y0249703D03*
X0298846Y0252343D03*
X0294196Y0252913D03*
X0293296Y0249433D03*
X0293296Y0249403D03*
X0293296Y0249373D03*
X0308356Y0245953D03*
D631*
X0305416Y0245953D03*
X0308356Y0251563D03*
X0301996Y0251563D03*
X0298576Y0245953D03*
X0295666Y0251533D03*
X0295666Y0251563D03*
D632*
X0297451Y0252553D03*
X0298831Y0252313D03*
X0298831Y0252283D03*
X0298111Y0249643D03*
X0298111Y0249613D03*
X0300001Y0247753D03*
X0300031Y0247693D03*
X0300031Y0247663D03*
X0300061Y0247603D03*
X0302011Y0245983D03*
X0303961Y0247633D03*
X0303961Y0247663D03*
X0303991Y0247693D03*
X0303991Y0247723D03*
X0305911Y0249643D03*
X0306571Y0252553D03*
X0308341Y0253243D03*
X0309721Y0253003D03*
X0309751Y0252973D03*
X0310711Y0249373D03*
X0310711Y0249343D03*
X0310711Y0249313D03*
X0310711Y0249283D03*
X0310711Y0249253D03*
X0308341Y0246013D03*
X0308341Y0245983D03*
X0293281Y0249343D03*
D633*
X0298591Y0245983D03*
X0302011Y0251473D03*
X0302011Y0251503D03*
X0302011Y0251533D03*
X0308341Y0251533D03*
X0308341Y0251503D03*
X0308341Y0251473D03*
X0308341Y0251593D03*
X0305431Y0245983D03*
D634*
X0304006Y0247753D03*
X0304006Y0247783D03*
X0304036Y0247813D03*
X0304036Y0247843D03*
X0305896Y0249583D03*
X0305896Y0249613D03*
X0305176Y0252223D03*
X0305176Y0252253D03*
X0305176Y0252283D03*
X0306556Y0252583D03*
X0309676Y0253063D03*
X0309706Y0253033D03*
X0310696Y0249223D03*
X0310696Y0249193D03*
X0310696Y0249163D03*
X0310696Y0249133D03*
X0301996Y0246013D03*
X0300016Y0247723D03*
X0299986Y0247783D03*
X0299986Y0247813D03*
X0299956Y0247873D03*
X0298846Y0252253D03*
X0297436Y0252583D03*
X0294286Y0253003D03*
X0294256Y0252973D03*
X0293296Y0249313D03*
X0293296Y0249283D03*
X0293296Y0249253D03*
X0293296Y0249223D03*
X0295666Y0246043D03*
X0295666Y0246013D03*
D635*
X0293311Y0249103D03*
X0293311Y0249133D03*
X0293311Y0249163D03*
X0293311Y0249193D03*
X0294301Y0253033D03*
X0294331Y0253063D03*
X0298831Y0252223D03*
X0298831Y0252193D03*
X0298111Y0249583D03*
X0298111Y0249553D03*
X0299911Y0247993D03*
X0299941Y0247933D03*
X0299941Y0247903D03*
X0299971Y0247843D03*
X0302011Y0246073D03*
X0302011Y0246043D03*
X0304051Y0247873D03*
X0304051Y0247903D03*
X0304081Y0247933D03*
X0304081Y0247963D03*
X0305881Y0249553D03*
X0306571Y0252613D03*
X0309661Y0253093D03*
X0310681Y0249103D03*
X0310681Y0249073D03*
X0310681Y0249043D03*
X0310681Y0249013D03*
X0308341Y0246073D03*
X0308341Y0246043D03*
D636*
X0305431Y0246043D03*
X0302011Y0251383D03*
X0302011Y0251413D03*
D637*
X0308356Y0251353D03*
X0298576Y0246073D03*
X0298576Y0246043D03*
X0295666Y0251323D03*
X0295666Y0251353D03*
X0295666Y0251383D03*
X0295666Y0251653D03*
X0295666Y0251683D03*
D638*
X0301996Y0251353D03*
X0305446Y0246073D03*
D639*
X0304126Y0248053D03*
X0304126Y0248083D03*
X0305176Y0252133D03*
X0305176Y0252163D03*
X0305176Y0252193D03*
X0306586Y0252643D03*
X0309616Y0253123D03*
X0310666Y0248983D03*
X0310666Y0248953D03*
X0310666Y0248923D03*
X0310666Y0248893D03*
X0308356Y0246103D03*
X0299926Y0247963D03*
X0298126Y0249493D03*
X0298126Y0249523D03*
X0297436Y0252613D03*
X0297436Y0252643D03*
X0295666Y0253213D03*
X0294376Y0253123D03*
X0293326Y0249073D03*
X0293326Y0249043D03*
X0293326Y0249013D03*
X0293326Y0248983D03*
X0293326Y0248953D03*
X0295666Y0246133D03*
X0295666Y0246103D03*
X0295666Y0246073D03*
D640*
X0298561Y0246103D03*
X0295681Y0251293D03*
X0302011Y0251293D03*
X0302011Y0251263D03*
X0302011Y0251323D03*
X0305431Y0246103D03*
X0308341Y0251263D03*
X0308341Y0251293D03*
X0308341Y0251323D03*
X0308341Y0251683D03*
D641*
X0305896Y0249523D03*
X0304096Y0248023D03*
X0304096Y0247993D03*
X0301996Y0246103D03*
X0299896Y0248023D03*
X0299896Y0248053D03*
X0298846Y0252163D03*
X0294346Y0253093D03*
D642*
X0293341Y0248923D03*
X0293341Y0248893D03*
X0293341Y0248863D03*
X0293341Y0248833D03*
X0299851Y0248173D03*
X0299851Y0248143D03*
X0304141Y0248143D03*
X0304141Y0248113D03*
X0308341Y0246163D03*
X0308341Y0246133D03*
X0310651Y0248773D03*
X0310651Y0248803D03*
X0310651Y0248833D03*
X0310651Y0248863D03*
X0309601Y0253153D03*
X0308341Y0253213D03*
D643*
X0308356Y0251713D03*
X0308356Y0251233D03*
X0305446Y0246133D03*
X0301996Y0251233D03*
X0295666Y0251233D03*
X0295666Y0251203D03*
X0295666Y0251263D03*
X0295666Y0251713D03*
D644*
X0298831Y0252103D03*
X0298831Y0252133D03*
X0299881Y0248113D03*
X0299881Y0248083D03*
X0302011Y0246163D03*
X0302011Y0246133D03*
X0304171Y0248173D03*
X0304171Y0248203D03*
X0305881Y0249463D03*
X0305881Y0249493D03*
D645*
X0308341Y0251143D03*
X0308341Y0251173D03*
X0308341Y0251203D03*
X0308341Y0251743D03*
X0305461Y0246163D03*
X0302011Y0251173D03*
X0302011Y0251203D03*
X0298561Y0246163D03*
X0298561Y0246133D03*
D646*
X0299836Y0248203D03*
X0299836Y0248233D03*
X0299806Y0248263D03*
X0299806Y0248293D03*
X0299776Y0248383D03*
X0298126Y0249403D03*
X0298126Y0249433D03*
X0298126Y0249463D03*
X0298846Y0252073D03*
X0297436Y0252673D03*
X0294436Y0253183D03*
X0294406Y0253153D03*
X0293356Y0248803D03*
X0293356Y0248773D03*
X0293356Y0248743D03*
X0293356Y0248713D03*
X0295666Y0246223D03*
X0295666Y0246193D03*
X0295666Y0246163D03*
X0301996Y0246193D03*
X0304186Y0248233D03*
X0304186Y0248263D03*
X0304216Y0248293D03*
X0304216Y0248323D03*
X0305866Y0249403D03*
X0305866Y0249433D03*
X0305176Y0252043D03*
X0305176Y0252073D03*
X0305176Y0252103D03*
X0306586Y0252673D03*
X0309556Y0253183D03*
X0310636Y0248743D03*
X0310636Y0248713D03*
X0310636Y0248683D03*
X0310636Y0248653D03*
X0310636Y0248623D03*
X0308356Y0246193D03*
D647*
X0305446Y0246193D03*
X0308356Y0251113D03*
X0301996Y0251113D03*
X0301996Y0251143D03*
X0298546Y0246193D03*
D648*
X0299791Y0248323D03*
X0299791Y0248353D03*
X0299761Y0248413D03*
X0299761Y0248443D03*
X0299731Y0248503D03*
X0298141Y0249373D03*
X0298831Y0252013D03*
X0298831Y0252043D03*
X0297421Y0252703D03*
X0293371Y0248683D03*
X0293371Y0248653D03*
X0293371Y0248623D03*
X0293371Y0248593D03*
X0302011Y0246253D03*
X0302011Y0246223D03*
X0304231Y0248353D03*
X0304231Y0248383D03*
X0304261Y0248413D03*
X0304261Y0248443D03*
X0308341Y0246253D03*
X0308341Y0246223D03*
X0310591Y0248383D03*
X0310621Y0248503D03*
X0310621Y0248533D03*
X0310621Y0248563D03*
X0310621Y0248593D03*
X0309541Y0253213D03*
X0306601Y0252703D03*
D649*
X0308341Y0251803D03*
X0308341Y0251773D03*
X0308341Y0251083D03*
X0308341Y0251053D03*
X0305461Y0246223D03*
X0302011Y0251053D03*
X0302011Y0251083D03*
D650*
X0301996Y0251023D03*
X0298546Y0246253D03*
X0298546Y0246223D03*
X0295666Y0250963D03*
X0295666Y0250993D03*
X0295666Y0251023D03*
X0295666Y0251053D03*
X0295666Y0251803D03*
X0295666Y0251833D03*
X0305476Y0246253D03*
X0308356Y0250993D03*
X0308356Y0251023D03*
D651*
X0308356Y0253183D03*
X0309496Y0253243D03*
X0305176Y0252013D03*
X0305176Y0251983D03*
X0305176Y0251953D03*
X0305866Y0249373D03*
X0305866Y0249343D03*
X0304306Y0248593D03*
X0304306Y0248563D03*
X0304276Y0248533D03*
X0304276Y0248503D03*
X0304276Y0248473D03*
X0301996Y0246313D03*
X0301996Y0246283D03*
X0299746Y0248473D03*
X0299716Y0248533D03*
X0299716Y0248563D03*
X0299686Y0248623D03*
X0298126Y0249343D03*
X0298846Y0251983D03*
X0297406Y0252733D03*
X0295666Y0253183D03*
X0294496Y0253243D03*
X0294466Y0253213D03*
X0293386Y0248563D03*
X0293386Y0248533D03*
X0293386Y0248503D03*
X0293386Y0248473D03*
X0293416Y0248383D03*
X0293416Y0248353D03*
X0293416Y0248323D03*
X0295666Y0246313D03*
X0295666Y0246283D03*
X0295666Y0246253D03*
X0308356Y0246283D03*
X0310576Y0248263D03*
X0310576Y0248293D03*
X0310576Y0248323D03*
X0310576Y0248353D03*
X0310606Y0248413D03*
X0310606Y0248443D03*
X0310606Y0248473D03*
D652*
X0308341Y0250933D03*
X0308341Y0250963D03*
X0308341Y0251833D03*
X0305461Y0246283D03*
X0302011Y0250933D03*
X0302011Y0250963D03*
X0302011Y0250993D03*
X0298531Y0246283D03*
D653*
X0299701Y0248593D03*
X0299641Y0248743D03*
X0298141Y0249283D03*
X0298141Y0249313D03*
X0298831Y0251923D03*
X0298831Y0251953D03*
X0294541Y0253273D03*
X0293401Y0248443D03*
X0293401Y0248413D03*
X0293431Y0248293D03*
X0293431Y0248263D03*
X0293431Y0248233D03*
X0293431Y0248203D03*
X0295681Y0246343D03*
X0302011Y0246343D03*
X0304351Y0248683D03*
X0304351Y0248713D03*
X0305851Y0249283D03*
X0305851Y0249313D03*
X0306601Y0252733D03*
X0306601Y0252763D03*
X0309481Y0253273D03*
X0310561Y0248233D03*
X0310561Y0248203D03*
X0310561Y0248173D03*
X0310561Y0248143D03*
X0308341Y0246373D03*
X0308341Y0246343D03*
X0308341Y0246313D03*
D654*
X0305476Y0246313D03*
X0308356Y0250903D03*
X0308356Y0251863D03*
X0301996Y0250903D03*
X0295666Y0250903D03*
X0295666Y0250873D03*
X0295666Y0250843D03*
X0295666Y0250933D03*
X0295666Y0251863D03*
D655*
X0298531Y0246343D03*
X0298531Y0246313D03*
X0302011Y0250813D03*
X0302011Y0250843D03*
X0302011Y0250873D03*
D656*
X0304531Y0249223D03*
X0304531Y0249193D03*
X0304501Y0249163D03*
X0304501Y0249133D03*
X0304501Y0249103D03*
X0305851Y0249133D03*
X0305161Y0251743D03*
X0309361Y0253363D03*
X0310411Y0247393D03*
X0310381Y0247273D03*
X0310381Y0247243D03*
X0310381Y0247213D03*
X0310351Y0247153D03*
X0310351Y0247123D03*
X0310351Y0247093D03*
X0310321Y0247033D03*
X0310321Y0247003D03*
X0310321Y0246973D03*
X0310291Y0246913D03*
X0310291Y0246883D03*
X0310291Y0246853D03*
X0310261Y0246793D03*
X0310261Y0246763D03*
X0310231Y0246673D03*
X0310231Y0246643D03*
X0310201Y0246553D03*
X0310141Y0246343D03*
X0308341Y0246523D03*
X0308341Y0246553D03*
X0302011Y0246553D03*
X0302011Y0246523D03*
X0299521Y0249103D03*
X0299491Y0249163D03*
X0299491Y0249193D03*
X0299461Y0249253D03*
X0298171Y0249133D03*
X0298171Y0249103D03*
X0298831Y0251713D03*
X0298831Y0251743D03*
X0298831Y0251773D03*
X0297391Y0252823D03*
X0293551Y0247573D03*
X0293581Y0247453D03*
X0293581Y0247423D03*
X0293581Y0247393D03*
X0293611Y0247333D03*
X0293611Y0247303D03*
X0293611Y0247273D03*
X0293611Y0247243D03*
X0293641Y0247183D03*
X0293641Y0247153D03*
X0293671Y0247033D03*
X0293701Y0246913D03*
D657*
X0305491Y0246343D03*
X0308341Y0250813D03*
X0308341Y0250843D03*
X0308341Y0250873D03*
X0308341Y0251893D03*
D658*
X0303421Y0246373D03*
X0303421Y0246343D03*
X0300571Y0246373D03*
X0300571Y0246403D03*
X0293821Y0252223D03*
D659*
X0295666Y0251923D03*
X0295666Y0251893D03*
X0295666Y0250813D03*
X0295666Y0250783D03*
X0295666Y0250753D03*
X0298516Y0246403D03*
X0298516Y0246373D03*
X0305476Y0246373D03*
X0308356Y0250783D03*
D660*
X0309436Y0253303D03*
X0304396Y0248833D03*
X0304396Y0248803D03*
X0301996Y0246403D03*
X0301996Y0246373D03*
X0299656Y0248713D03*
X0298156Y0249223D03*
X0298156Y0249253D03*
X0298846Y0251893D03*
X0297406Y0252763D03*
X0293446Y0248173D03*
X0293446Y0248143D03*
X0293446Y0248113D03*
X0293446Y0248083D03*
X0308356Y0246403D03*
X0310546Y0248023D03*
X0310546Y0248053D03*
X0310546Y0248083D03*
X0310546Y0248113D03*
D661*
X0310516Y0247993D03*
X0310516Y0247963D03*
X0310516Y0247933D03*
X0310516Y0247903D03*
X0305866Y0249253D03*
X0304366Y0248773D03*
X0304366Y0248743D03*
X0305176Y0251863D03*
X0305176Y0251893D03*
X0305176Y0251923D03*
X0299626Y0248803D03*
X0299626Y0248773D03*
X0295666Y0246433D03*
X0295666Y0246403D03*
X0295666Y0246373D03*
X0293476Y0247963D03*
X0293476Y0247993D03*
D662*
X0302011Y0250693D03*
X0302011Y0250723D03*
X0302011Y0250753D03*
X0305491Y0246433D03*
X0305491Y0246403D03*
X0308341Y0250693D03*
X0308341Y0250723D03*
X0308341Y0250753D03*
X0308341Y0251923D03*
D663*
X0308341Y0253153D03*
X0309391Y0253333D03*
X0306601Y0252793D03*
X0305851Y0249223D03*
X0305851Y0249193D03*
X0304441Y0248953D03*
X0304441Y0248923D03*
X0304411Y0248893D03*
X0304411Y0248863D03*
X0302011Y0246463D03*
X0302011Y0246433D03*
X0299611Y0248833D03*
X0299611Y0248863D03*
X0299581Y0248893D03*
X0299581Y0248923D03*
X0298831Y0251833D03*
X0298831Y0251863D03*
X0297391Y0252793D03*
X0294571Y0253303D03*
X0293461Y0248053D03*
X0293461Y0248023D03*
X0293491Y0247933D03*
X0293491Y0247903D03*
X0293491Y0247873D03*
X0293491Y0247843D03*
X0293521Y0247753D03*
X0293521Y0247723D03*
X0308341Y0246463D03*
X0308341Y0246433D03*
X0310441Y0247543D03*
X0310471Y0247663D03*
X0310471Y0247693D03*
X0310471Y0247723D03*
X0310471Y0247753D03*
X0310501Y0247783D03*
X0310501Y0247813D03*
X0310501Y0247843D03*
X0310501Y0247873D03*
D664*
X0308356Y0250663D03*
X0308356Y0251953D03*
X0305506Y0246463D03*
X0301996Y0250663D03*
X0298516Y0246433D03*
X0295666Y0250633D03*
X0295666Y0250663D03*
X0295666Y0250693D03*
X0295666Y0250723D03*
X0295666Y0251953D03*
D665*
X0298501Y0246493D03*
X0298501Y0246463D03*
X0302011Y0250573D03*
X0302011Y0250603D03*
X0302011Y0250633D03*
X0308341Y0250633D03*
X0308341Y0250603D03*
X0308341Y0250573D03*
X0308341Y0251983D03*
D666*
X0306616Y0252823D03*
X0305176Y0251833D03*
X0305176Y0251803D03*
X0305176Y0251773D03*
X0305836Y0249163D03*
X0304486Y0249073D03*
X0304486Y0249043D03*
X0304456Y0249013D03*
X0304456Y0248983D03*
X0301996Y0246493D03*
X0299566Y0248953D03*
X0299566Y0248983D03*
X0299536Y0249013D03*
X0299536Y0249043D03*
X0299536Y0249073D03*
X0299506Y0249133D03*
X0298156Y0249163D03*
X0298156Y0249193D03*
X0298846Y0251803D03*
X0295666Y0253153D03*
X0294616Y0253333D03*
X0293506Y0247813D03*
X0293506Y0247783D03*
X0293536Y0247693D03*
X0293536Y0247663D03*
X0293536Y0247633D03*
X0293536Y0247603D03*
X0293566Y0247543D03*
X0293566Y0247513D03*
X0293566Y0247483D03*
X0293596Y0247363D03*
X0295666Y0246523D03*
X0295666Y0246493D03*
X0295666Y0246463D03*
X0308356Y0246493D03*
X0310366Y0247183D03*
X0310396Y0247303D03*
X0310396Y0247333D03*
X0310396Y0247363D03*
X0310426Y0247423D03*
X0310426Y0247453D03*
X0310426Y0247483D03*
X0310426Y0247513D03*
X0310456Y0247573D03*
X0310456Y0247603D03*
X0310456Y0247633D03*
D667*
X0308356Y0250543D03*
X0305506Y0246523D03*
X0305506Y0246493D03*
X0301996Y0250543D03*
D668*
X0302011Y0250513D03*
X0302011Y0250483D03*
X0302011Y0250453D03*
X0298501Y0246553D03*
X0298501Y0246523D03*
X0308341Y0250453D03*
X0308341Y0250483D03*
X0308341Y0250513D03*
X0308341Y0252013D03*
D669*
X0305521Y0246553D03*
D670*
X0305506Y0246583D03*
X0308356Y0250423D03*
X0308356Y0252043D03*
X0301996Y0250423D03*
X0298486Y0246583D03*
X0295666Y0250393D03*
X0295666Y0250423D03*
X0295666Y0250453D03*
X0295666Y0250483D03*
X0295666Y0252043D03*
D671*
X0295651Y0252073D03*
X0302011Y0250393D03*
X0302011Y0250363D03*
X0302011Y0250333D03*
X0305521Y0246613D03*
X0308341Y0250333D03*
X0308341Y0250363D03*
X0308341Y0250393D03*
X0308341Y0252073D03*
D672*
X0308356Y0250303D03*
X0305536Y0246643D03*
X0301996Y0250303D03*
X0298486Y0246643D03*
X0298486Y0246613D03*
X0295666Y0250273D03*
X0295666Y0250303D03*
X0295666Y0250333D03*
X0295666Y0250363D03*
X0295666Y0252103D03*
D673*
X0295681Y0250243D03*
X0298471Y0246703D03*
X0298471Y0246673D03*
X0302011Y0250213D03*
X0302011Y0250243D03*
X0302011Y0250273D03*
X0305521Y0246673D03*
D674*
X0305536Y0246703D03*
X0305536Y0246733D03*
X0308356Y0250183D03*
X0308356Y0252133D03*
X0295666Y0252133D03*
X0295666Y0250213D03*
X0295666Y0250183D03*
X0295666Y0250153D03*
X0295666Y0250123D03*
D675*
X0298471Y0246733D03*
X0302011Y0250093D03*
X0302011Y0250123D03*
X0302011Y0250153D03*
X0305551Y0246763D03*
X0308341Y0250093D03*
X0308341Y0250123D03*
X0308341Y0250153D03*
X0308341Y0252163D03*
D676*
X0308341Y0252193D03*
X0308341Y0250033D03*
X0308341Y0250003D03*
X0308341Y0249973D03*
X0305551Y0246823D03*
X0302011Y0249973D03*
X0302011Y0250003D03*
X0302011Y0250033D03*
D677*
X0301996Y0249943D03*
X0301996Y0249913D03*
X0298456Y0246853D03*
X0298456Y0246823D03*
X0308356Y0249913D03*
X0308356Y0249943D03*
X0308356Y0252223D03*
D678*
X0305566Y0246853D03*
X0295666Y0249883D03*
X0295666Y0249913D03*
X0295666Y0249943D03*
X0295666Y0249973D03*
X0295666Y0252223D03*
D679*
X0298441Y0246913D03*
X0298441Y0246883D03*
X0302011Y0249853D03*
X0302011Y0249883D03*
X0305551Y0246883D03*
X0308341Y0249853D03*
X0308341Y0249883D03*
X0308341Y0252253D03*
D680*
X0308356Y0249823D03*
X0308356Y0249793D03*
X0305566Y0246943D03*
X0305566Y0246913D03*
X0301996Y0249793D03*
X0301996Y0249823D03*
X0295666Y0249823D03*
X0295666Y0249793D03*
X0295666Y0249763D03*
X0295666Y0249853D03*
X0295666Y0252253D03*
X0295666Y0252283D03*
D681*
X0298441Y0246973D03*
X0298441Y0246943D03*
X0302011Y0249733D03*
X0302011Y0249763D03*
X0305581Y0246973D03*
X0308341Y0249703D03*
X0308341Y0249733D03*
X0308341Y0249763D03*
X0308341Y0252283D03*
D682*
X0308356Y0252313D03*
X0308356Y0249673D03*
X0305566Y0247003D03*
X0301996Y0249673D03*
X0301996Y0249703D03*
X0298426Y0247003D03*
X0295666Y0249643D03*
X0295666Y0249673D03*
X0295666Y0249703D03*
X0295666Y0249733D03*
X0295666Y0252313D03*
D683*
X0302011Y0249643D03*
X0302011Y0249613D03*
X0302011Y0249583D03*
X0305581Y0247063D03*
X0305581Y0247033D03*
D684*
X0308356Y0249553D03*
X0306916Y0253453D03*
X0298426Y0247063D03*
X0298426Y0247033D03*
X0295666Y0249523D03*
X0295666Y0249553D03*
X0295666Y0249583D03*
X0295666Y0249613D03*
X0295666Y0252343D03*
X0297106Y0253453D03*
D685*
X0299026Y0250483D03*
X0299026Y0250453D03*
X0298216Y0248683D03*
X0298216Y0248653D03*
X0295666Y0247153D03*
X0295666Y0247123D03*
X0295666Y0247093D03*
X0295666Y0247063D03*
X0305026Y0250543D03*
X0305026Y0250573D03*
X0305176Y0251113D03*
X0305176Y0251143D03*
X0305176Y0251173D03*
X0305176Y0251203D03*
X0305776Y0248653D03*
X0308356Y0247123D03*
D686*
X0305596Y0247093D03*
X0301996Y0249553D03*
D687*
X0302011Y0249523D03*
X0302011Y0249493D03*
X0302011Y0249463D03*
X0298411Y0247123D03*
X0298411Y0247093D03*
X0295651Y0252373D03*
X0308341Y0252373D03*
X0308341Y0249523D03*
X0308341Y0249493D03*
X0308341Y0249463D03*
D688*
X0308356Y0249433D03*
X0305596Y0247153D03*
X0305596Y0247123D03*
X0301996Y0249433D03*
X0295666Y0249433D03*
X0295666Y0249403D03*
X0295666Y0249373D03*
X0295666Y0249463D03*
X0295666Y0249493D03*
X0295666Y0252403D03*
D689*
X0298846Y0251173D03*
X0298996Y0250543D03*
X0298996Y0250513D03*
X0301996Y0247123D03*
X0304996Y0250483D03*
X0304996Y0250513D03*
D690*
X0305041Y0250603D03*
X0305041Y0250633D03*
X0305791Y0248623D03*
X0308341Y0247183D03*
X0308341Y0247153D03*
X0308341Y0253003D03*
X0306691Y0253063D03*
X0298951Y0250663D03*
X0298951Y0250633D03*
D691*
X0298981Y0250603D03*
X0298981Y0250573D03*
X0298921Y0250723D03*
X0298831Y0251083D03*
X0298831Y0251113D03*
X0298831Y0251143D03*
X0297331Y0253063D03*
X0298231Y0248623D03*
X0298231Y0248593D03*
X0302011Y0247183D03*
X0302011Y0247153D03*
X0305071Y0250663D03*
X0305071Y0250693D03*
D692*
X0302011Y0249403D03*
X0302011Y0249373D03*
X0302011Y0249343D03*
X0305611Y0247183D03*
X0308341Y0249343D03*
X0308341Y0249373D03*
X0308341Y0249403D03*
X0308341Y0252403D03*
X0298411Y0247183D03*
X0298411Y0247153D03*
D693*
X0298396Y0247213D03*
X0298396Y0247243D03*
X0301996Y0249283D03*
X0301996Y0249313D03*
X0305596Y0247213D03*
X0308356Y0249313D03*
X0308356Y0252433D03*
D694*
X0308341Y0252463D03*
X0308341Y0249283D03*
X0308341Y0249253D03*
X0308341Y0249223D03*
X0305611Y0247273D03*
X0305611Y0247243D03*
X0302011Y0249223D03*
X0302011Y0249253D03*
D695*
X0302011Y0247303D03*
X0302011Y0247273D03*
X0305761Y0248533D03*
X0305131Y0250843D03*
X0305131Y0250873D03*
X0305161Y0250903D03*
X0305161Y0250933D03*
X0306691Y0253093D03*
X0308341Y0252973D03*
X0308341Y0247303D03*
X0308341Y0247273D03*
X0298891Y0250813D03*
X0298861Y0250873D03*
X0298861Y0250903D03*
X0298831Y0250963D03*
X0298831Y0250993D03*
X0298831Y0251023D03*
X0298231Y0248563D03*
X0298231Y0248533D03*
D696*
X0298246Y0248503D03*
X0298246Y0248473D03*
X0298846Y0250933D03*
X0297316Y0253123D03*
X0295666Y0252973D03*
X0295666Y0247393D03*
X0295666Y0247363D03*
X0295666Y0247333D03*
X0295666Y0247303D03*
X0301996Y0247333D03*
X0301996Y0247363D03*
X0305776Y0248503D03*
X0305176Y0250963D03*
X0305176Y0250993D03*
X0306706Y0253123D03*
X0308356Y0247333D03*
D697*
X0308341Y0249073D03*
X0308341Y0249103D03*
X0308341Y0249133D03*
X0305611Y0247333D03*
X0302011Y0249103D03*
X0302011Y0249133D03*
X0298381Y0247363D03*
X0298381Y0247333D03*
X0295651Y0252493D03*
X0297151Y0253423D03*
X0301981Y0257863D03*
X0308341Y0252493D03*
D698*
X0308341Y0252943D03*
X0305761Y0248473D03*
X0305761Y0248443D03*
X0308341Y0247423D03*
X0308341Y0247393D03*
X0308341Y0247363D03*
X0302011Y0247393D03*
X0302011Y0247423D03*
D699*
X0301996Y0249043D03*
X0301996Y0249073D03*
X0305626Y0247393D03*
X0305626Y0247363D03*
X0308356Y0249043D03*
X0295666Y0249043D03*
X0295666Y0249013D03*
X0295666Y0249073D03*
X0295666Y0249103D03*
X0295666Y0252523D03*
D700*
X0294121Y0252793D03*
X0300121Y0247453D03*
X0300121Y0247423D03*
X0303871Y0247423D03*
X0303871Y0247393D03*
D701*
X0302011Y0248953D03*
X0302011Y0248983D03*
X0302011Y0249013D03*
X0298381Y0247423D03*
X0298381Y0247393D03*
D702*
X0305641Y0247423D03*
X0308341Y0248953D03*
X0308341Y0248983D03*
X0308341Y0249013D03*
X0308341Y0252523D03*
D703*
X0306706Y0253153D03*
X0305746Y0248413D03*
X0308356Y0247453D03*
X0301996Y0247453D03*
X0298246Y0248413D03*
X0298246Y0248443D03*
D704*
X0298366Y0247483D03*
X0298366Y0247453D03*
X0295666Y0248893D03*
X0295666Y0248923D03*
X0295666Y0248953D03*
X0295666Y0248983D03*
X0295666Y0252553D03*
X0305626Y0247453D03*
X0308356Y0248923D03*
X0308356Y0252553D03*
D705*
X0308341Y0248893D03*
X0308341Y0248863D03*
X0308341Y0248833D03*
X0305641Y0247513D03*
X0305641Y0247483D03*
X0302011Y0248833D03*
X0302011Y0248863D03*
X0302011Y0248893D03*
X0295681Y0248863D03*
X0297181Y0253393D03*
D706*
X0295666Y0252583D03*
X0295666Y0248833D03*
X0295666Y0248803D03*
X0295666Y0248773D03*
X0295666Y0248743D03*
X0298366Y0247543D03*
X0298366Y0247513D03*
X0301996Y0248803D03*
X0305656Y0247543D03*
X0308356Y0248803D03*
X0308356Y0252583D03*
X0306826Y0253393D03*
D707*
X0308356Y0252913D03*
X0305746Y0248353D03*
X0305746Y0248323D03*
X0308356Y0247573D03*
X0301996Y0247573D03*
X0295666Y0247573D03*
X0295666Y0247543D03*
X0295666Y0247603D03*
X0295666Y0252913D03*
X0297286Y0253183D03*
D708*
X0302011Y0248773D03*
X0302011Y0248743D03*
X0302011Y0248713D03*
X0305641Y0247573D03*
X0308341Y0248713D03*
X0308341Y0248743D03*
X0308341Y0248773D03*
X0308341Y0252613D03*
X0298351Y0247603D03*
X0298351Y0247573D03*
D709*
X0298261Y0248293D03*
X0298261Y0248323D03*
X0295681Y0247633D03*
X0302011Y0247633D03*
X0302011Y0247603D03*
X0302011Y0247663D03*
X0305731Y0248293D03*
X0308341Y0247663D03*
X0308341Y0247633D03*
X0308341Y0247603D03*
X0306721Y0253183D03*
D710*
X0308356Y0248683D03*
X0305656Y0247633D03*
X0305656Y0247603D03*
X0301996Y0248653D03*
X0301996Y0248683D03*
D711*
X0302011Y0248623D03*
X0302011Y0248593D03*
X0298351Y0247663D03*
X0298351Y0247633D03*
X0297211Y0253363D03*
X0306811Y0253363D03*
X0308341Y0252643D03*
X0308341Y0248653D03*
X0308341Y0248623D03*
X0308341Y0248593D03*
D712*
X0305671Y0247663D03*
D713*
X0308356Y0247693D03*
X0308356Y0252883D03*
X0298276Y0248263D03*
X0298276Y0248233D03*
X0295666Y0247723D03*
X0295666Y0247693D03*
X0295666Y0247663D03*
X0295666Y0252883D03*
D714*
X0295666Y0252673D03*
X0295666Y0252643D03*
X0295666Y0248593D03*
X0295666Y0248563D03*
X0295666Y0248533D03*
X0295666Y0248503D03*
X0298336Y0247693D03*
X0301996Y0248533D03*
X0301996Y0248563D03*
X0305656Y0247693D03*
X0308356Y0248533D03*
X0308356Y0248563D03*
D715*
X0305746Y0248263D03*
X0301996Y0247693D03*
D716*
X0308341Y0247723D03*
X0308341Y0247753D03*
X0308341Y0247783D03*
D717*
X0308341Y0248443D03*
X0308341Y0248473D03*
X0308341Y0248503D03*
X0305671Y0247753D03*
X0305671Y0247723D03*
X0302011Y0248473D03*
X0302011Y0248503D03*
X0298321Y0247723D03*
X0308341Y0252673D03*
D718*
X0306721Y0253213D03*
X0305731Y0248233D03*
X0305731Y0248203D03*
X0302011Y0247783D03*
X0302011Y0247753D03*
X0302011Y0247723D03*
X0297271Y0253213D03*
D719*
X0297226Y0253333D03*
X0295666Y0252703D03*
X0295666Y0248473D03*
X0295666Y0248443D03*
X0295666Y0248413D03*
X0295666Y0248383D03*
X0298336Y0247753D03*
X0301996Y0248413D03*
X0301996Y0248443D03*
X0305686Y0247783D03*
X0308356Y0248413D03*
D720*
X0308356Y0247813D03*
X0305716Y0248173D03*
X0301996Y0247813D03*
X0298276Y0248173D03*
X0298276Y0248203D03*
X0295666Y0247843D03*
X0295666Y0247813D03*
X0295666Y0247783D03*
X0295666Y0247753D03*
X0295666Y0252853D03*
X0308356Y0252853D03*
D721*
X0306781Y0253333D03*
X0302011Y0248383D03*
X0302011Y0248353D03*
X0302011Y0248323D03*
X0305671Y0247813D03*
X0298321Y0247813D03*
X0298321Y0247783D03*
D722*
X0298291Y0248113D03*
X0298291Y0248143D03*
X0302011Y0247903D03*
X0302011Y0247873D03*
X0302011Y0247843D03*
X0305731Y0248143D03*
X0308341Y0247903D03*
X0308341Y0247873D03*
X0308341Y0247843D03*
X0306751Y0253243D03*
X0297271Y0253243D03*
D723*
X0295666Y0252733D03*
X0295666Y0248353D03*
X0295666Y0248323D03*
X0295666Y0248293D03*
X0295666Y0248263D03*
X0298306Y0247843D03*
X0305686Y0247843D03*
X0305686Y0247873D03*
X0308356Y0248293D03*
D724*
X0308341Y0248263D03*
X0308341Y0248233D03*
X0308341Y0248203D03*
X0305701Y0247903D03*
X0302011Y0248203D03*
X0302011Y0248233D03*
X0302011Y0248263D03*
X0298321Y0247903D03*
X0298321Y0247873D03*
X0297241Y0253303D03*
X0308341Y0252733D03*
D725*
X0308356Y0252823D03*
X0308356Y0247933D03*
X0305716Y0248083D03*
X0305716Y0248113D03*
X0301996Y0247933D03*
X0295666Y0247933D03*
X0295666Y0247903D03*
X0295666Y0247873D03*
X0295666Y0247963D03*
X0295666Y0252823D03*
D726*
X0295666Y0252763D03*
X0295666Y0248233D03*
X0295666Y0248203D03*
X0295666Y0248173D03*
X0295666Y0248143D03*
X0298306Y0247963D03*
X0298306Y0247933D03*
X0301996Y0248173D03*
X0305686Y0247933D03*
X0308356Y0248173D03*
X0308356Y0252763D03*
X0306766Y0253303D03*
D727*
X0305701Y0248053D03*
X0308341Y0248023D03*
X0308341Y0247993D03*
X0308341Y0247963D03*
X0302011Y0247963D03*
X0302011Y0247993D03*
X0302011Y0248023D03*
X0298291Y0248053D03*
X0298291Y0248083D03*
X0295681Y0247993D03*
D728*
X0298306Y0247993D03*
X0298306Y0248023D03*
X0301996Y0248053D03*
X0308356Y0248053D03*
X0308356Y0252793D03*
X0301996Y0257893D03*
X0297256Y0253273D03*
D729*
X0295666Y0252793D03*
X0295666Y0248113D03*
X0295666Y0248083D03*
X0295666Y0248053D03*
X0295666Y0248023D03*
X0305716Y0248023D03*
X0306766Y0253273D03*
D730*
X0301996Y0248293D03*
D731*
X0308341Y0248323D03*
X0308341Y0248353D03*
X0308341Y0248383D03*
X0308341Y0252703D03*
D732*
X0304321Y0248653D03*
X0304321Y0248623D03*
X0299671Y0248653D03*
X0299671Y0248683D03*
D733*
X0295666Y0248683D03*
X0295666Y0248653D03*
X0295666Y0248623D03*
X0295666Y0248713D03*
X0295666Y0252613D03*
D734*
X0299221Y0249943D03*
X0299221Y0249913D03*
X0304771Y0249913D03*
X0304771Y0249883D03*
X0305821Y0248893D03*
D735*
X0301996Y0248923D03*
D736*
X0295666Y0249253D03*
X0295666Y0249283D03*
X0295666Y0249313D03*
X0295666Y0249343D03*
X0295666Y0252433D03*
D737*
X0308341Y0252343D03*
X0308341Y0249643D03*
X0308341Y0249613D03*
X0308341Y0249583D03*
D738*
X0301996Y0250183D03*
D739*
X0308341Y0250213D03*
X0308341Y0250243D03*
X0308341Y0250273D03*
X0308341Y0252103D03*
D740*
X0295666Y0252013D03*
X0295666Y0251983D03*
X0295666Y0250603D03*
X0295666Y0250573D03*
X0295666Y0250543D03*
X0295666Y0250513D03*
D741*
X0295666Y0251083D03*
X0295666Y0251113D03*
X0295666Y0251143D03*
X0295666Y0251173D03*
X0295666Y0251743D03*
X0295666Y0251773D03*
D742*
X0308341Y0251653D03*
X0308341Y0251623D03*
X0308341Y0251413D03*
X0308341Y0251383D03*
D743*
X0301996Y0251863D03*
D744*
X0301996Y0252703D03*
D745*
X0301996Y0253063D03*
D746*
X0301996Y0253243D03*
D747*
X0302011Y0253273D03*
X0301981Y0257593D03*
D748*
X0302011Y0253333D03*
D749*
X0302011Y0253363D03*
D750*
X0301996Y0253393D03*
D751*
X0301996Y0253423D03*
D752*
X0301996Y0253453D03*
D753*
X0301996Y0253483D03*
D754*
X0296326Y0253483D03*
D755*
X0302011Y0253513D03*
D756*
X0302011Y0253543D03*
D757*
X0302011Y0253633D03*
D758*
X0302011Y0254533D03*
D759*
X0301996Y0255703D03*
D760*
X0301996Y0255853D03*
D761*
X0301996Y0256003D03*
D762*
X0301996Y0256093D03*
D763*
X0301996Y0256183D03*
D764*
X0301996Y0256273D03*
D765*
X0301996Y0256333D03*
D766*
X0301981Y0256453D03*
D767*
X0301996Y0256513D03*
D768*
X0301996Y0256573D03*
D769*
X0301996Y0256663D03*
D770*
X0301996Y0256783D03*
D771*
X0301996Y0256933D03*
D772*
X0301996Y0256963D03*
D773*
X0301996Y0256993D03*
D774*
X0301996Y0257023D03*
D775*
X0301981Y0257173D03*
D776*
X0301996Y0257203D03*
D777*
X0301996Y0257263D03*
D778*
X0301996Y0257323D03*
D779*
X0301996Y0257413D03*
D780*
X0301981Y0257473D03*
D781*
X0301996Y0257653D03*
D782*
X0174150Y0195802D03*
X0171198Y0195802D03*
X0169150Y0195802D03*
X0166198Y0195802D03*
D783*
X0167674Y0195802D03*
X0172674Y0195802D03*
D784*
X0153030Y0182874D02*
X0153030Y0180511D01*
X0153030Y0182874D02*
X0149880Y0182874D01*
X0153030Y0174212D02*
X0153030Y0171850D01*
X0149880Y0171850D01*
X0214344Y0172028D02*
X0214344Y0170059D01*
X0216313Y0170059D01*
X0240935Y0170059D02*
X0242903Y0172028D01*
X0251571Y0170580D02*
X0251571Y0166643D01*
X0257477Y0166643D02*
X0257477Y0170580D01*
X0242903Y0196650D02*
X0242903Y0198618D01*
X0240935Y0198618D01*
X0216313Y0198618D02*
X0214344Y0198618D01*
X0214344Y0196650D01*
D785*
X0243084Y0169878D03*
D786*
X0243968Y0231843D02*
X0240326Y0231843D01*
X0243968Y0231843D02*
X0243968Y0270623D01*
X0240326Y0270623D01*
X0228515Y0270623D02*
X0220641Y0270623D01*
X0208830Y0270623D02*
X0205189Y0270623D01*
X0205189Y0231843D01*
X0208830Y0231843D01*
X0220641Y0231843D02*
X0228515Y0231843D01*
D787*
X0234027Y0229973D02*
X0234027Y0229973D01*
X0234029Y0229934D01*
X0234035Y0229896D01*
X0234044Y0229859D01*
X0234057Y0229822D01*
X0234074Y0229787D01*
X0234093Y0229754D01*
X0234116Y0229723D01*
X0234142Y0229694D01*
X0234171Y0229668D01*
X0234202Y0229645D01*
X0234235Y0229626D01*
X0234270Y0229609D01*
X0234307Y0229596D01*
X0234344Y0229587D01*
X0234382Y0229581D01*
X0234421Y0229579D01*
X0234460Y0229581D01*
X0234498Y0229587D01*
X0234535Y0229596D01*
X0234572Y0229609D01*
X0234607Y0229626D01*
X0234640Y0229645D01*
X0234671Y0229668D01*
X0234700Y0229694D01*
X0234726Y0229723D01*
X0234749Y0229754D01*
X0234768Y0229787D01*
X0234785Y0229822D01*
X0234798Y0229859D01*
X0234807Y0229896D01*
X0234813Y0229934D01*
X0234815Y0229973D01*
X0234815Y0229973D01*
X0234813Y0230012D01*
X0234807Y0230050D01*
X0234798Y0230087D01*
X0234785Y0230124D01*
X0234768Y0230159D01*
X0234749Y0230192D01*
X0234726Y0230223D01*
X0234700Y0230252D01*
X0234671Y0230278D01*
X0234640Y0230301D01*
X0234607Y0230320D01*
X0234572Y0230337D01*
X0234535Y0230350D01*
X0234498Y0230359D01*
X0234460Y0230365D01*
X0234421Y0230367D01*
X0234382Y0230365D01*
X0234344Y0230359D01*
X0234307Y0230350D01*
X0234270Y0230337D01*
X0234235Y0230320D01*
X0234202Y0230301D01*
X0234171Y0230278D01*
X0234142Y0230252D01*
X0234116Y0230223D01*
X0234093Y0230192D01*
X0234074Y0230159D01*
X0234057Y0230124D01*
X0234044Y0230087D01*
X0234035Y0230050D01*
X0234029Y0230012D01*
X0234027Y0229973D01*
D788*
X0278700Y0197950D03*
X0278700Y0169825D03*
M02*
