%
M48
M72
T01C0.01181
T02C0.01200
T03C0.02362
T04C0.03937
T05C0.04000
%
T01
X110459Y225223
X131897Y203663
X138271Y209422
X138850Y213220
X140502Y205387
X145165Y197638
X148065Y191638
X148139Y185914
X142054Y185498
X136877Y194865
X150758Y204737
X146006Y169334
X140006Y168984
X166256Y170234
X210406Y152734
X220423Y148503
X225397Y148703
X230023Y151403
X238923Y147903
X242723Y146103
X243956Y139034
X240323Y139003
X220156Y139134
X242456Y162834
X255856Y158334
X276347Y163824
X286215Y175451
X274048Y185243
X304295Y193656
X303307Y197344
X302143Y201231
X305020Y206614
X311212Y189869
X322972Y209637
X321325Y215785
X332341Y213934
X348506Y259334
X320742Y294568
X313285Y290274
X309670Y291535
X292717Y300204
X304875Y311850
X310175Y313871
X308052Y331765
X282256Y361834
X263534Y327157
X235734Y332207
X235734Y335957
X235734Y339707
X232520Y344218
X234820Y346918
X234720Y355718
X239734Y359807
X219734Y359807
X211120Y356318
X204920Y351518
X203234Y359707
X203234Y339707
X203234Y335957
X203234Y332207
X203234Y327207
X203234Y322207
X213634Y313307
X213934Y317007
X215534Y320207
X218134Y323007
X217934Y326807
X213234Y332207
X213234Y335957
X213234Y339707
X230734Y327207
X230834Y323507
X230834Y319757
X230834Y316007
X225934Y313107
X178506Y360584
X139153Y312226
X146619Y307985
X147377Y303898
X150940Y301666
X147211Y294879
X152024Y292215
X156787Y289465
X131923Y290304
X127296Y293090
X236023Y181303
X226356Y173134
X303506Y161834
T02
X147674Y155212
X151574Y155212
X154774Y168212
X158174Y168212
X162674Y170162
X154074Y172762
X155774Y181662
X155874Y181662
X153424Y202562
X161724Y202462
X167724Y202262
X172624Y202162
X184824Y198162
X178824Y185562
X178924Y170212
X183024Y170162
X187524Y170162
X203274Y176762
X203274Y180162
X197524Y185862
X202024Y194362
X207744Y198745
X207800Y205337
X207800Y214737
X203769Y216859
X197599Y207373
X217900Y206237
X222900Y206237
X230000Y206487
X218724Y196112
X218824Y192612
X224400Y189287
X227724Y185762
X225200Y182937
X220174Y179262
X217674Y176462
X209424Y170703
X223724Y176062
X228400Y176637
X232566Y180970
X235824Y178262
X235624Y173962
X244000Y167637
X244524Y155562
X271324Y176562
X273924Y173962
X269500Y183837
X266824Y198962
X273000Y206837
X251900Y192337
X252324Y189062
X247700Y198137
X245600Y201837
X248200Y205337
X250700Y201937
X250469Y214146
X235400Y225537
X228725Y226612
X228700Y226637
X223384Y234633
X228725Y243887
X235266Y243015
X204950Y261387
X195900Y236737
X195900Y231637
X226100Y195537
X230950Y189287
X234150Y189287
X282677Y161181
X295000Y203337
T03
X194477Y150331
X175382Y150331
T04
X174201Y138402
X195658Y138402
T05
X224625Y319362
M30
