M48
; DRILL file {KiCad (5.1.5)-3} date 12/02/2020 15:38:17
; FORMAT={-:-/ absolute / inch / decimal}
; #@! TF.CreationDate,2020-02-12T15:38:17+01:00
; #@! TF.GenerationSoftware,Kicad,Pcbnew,(5.1.5)-3
FMAT,2
INCH
T1C0.0157
T2C0.0256
T3C0.0276
T4C0.0300
T5C0.0394
%
G90
G05
T1
X4.99Y-3.58
X5.01Y-3.5
X5.04Y-3.37
X5.05Y-3.69
X5.06Y-3.81
X5.1Y-3.27
X5.16Y-3.4
X5.164Y-3.4445
X5.1787Y-3.939
X5.19Y-3.85
X5.19Y-3.85
X5.235Y-3.2625
X5.28Y-3.4
X5.28Y-3.46
X5.28Y-3.52
X5.28Y-3.6
X5.28Y-3.68
X5.31Y-3.35
X5.331Y-4.0385
X5.34Y-3.1725
X5.3737Y-3.1487
X5.3751Y-4.2812
X5.3775Y-4.015
X5.38Y-3.29
X5.3825Y-4.42
X5.42Y-4.175
X5.4229Y-3.0065
X5.4476Y-3.0346
X5.45Y-4.54
X5.5136Y-3.23
X5.515Y-3.82
X5.525Y-3.05
X5.53Y-4.69
X5.531Y-4.1377
X5.55Y-4.27
X5.5686Y-4.5891
X5.59Y-3.47
X5.62Y-3.8
X5.6245Y-4.1556
X5.6309Y-3.7247
X5.64Y-4.0
X5.64Y-4.08
X5.6453Y-3.2615
X5.6557Y-3.3043
X5.67Y-3.5335
X5.67Y-3.75
X5.68Y-4.48
X5.6984Y-3.23
X5.7024Y-4.1344
X5.7206Y-3.7402
X5.73Y-4.0
X5.731Y-3.4672
X5.7344Y-4.6903
X5.74Y-4.19
X5.75Y-3.5
X5.78Y-3.72
X5.78Y-4.13
X5.7826Y-3.4678
X5.7886Y-4.419
X5.83Y-3.24
X5.8936Y-3.8177
X5.8972Y-3.8569
X5.9Y-4.13
X5.905Y-4.2125
X5.905Y-3.7646
X5.91Y-3.725
X5.947Y-3.5046
X5.95Y-3.0234
X5.95Y-4.46
X5.95Y-4.71
X5.9516Y-3.625
X5.9705Y-4.5405
X5.9935Y-4.6495
X5.9975Y-4.0453
X6.0Y-3.38
X6.0009Y-3.9364
X6.0266Y-3.525
X6.0469Y-4.229
X6.06Y-3.8
X6.065Y-3.6825
X6.0718Y-4.021
X6.0742Y-3.8839
X6.0886Y-3.5114
X6.09Y-3.85
X6.09Y-4.34
X6.1Y-4.55
X6.12Y-3.708
X6.12Y-4.2
X6.175Y-3.525
X6.19Y-4.53
X6.195Y-3.72
X6.2Y-3.35
X6.24Y-3.77
X6.24Y-3.82
X6.28Y-3.52
X6.3Y-4.5696
X6.3136Y-3.9321
X6.32Y-4.06
X6.3334Y-4.2741
X6.3387Y-4.4277
X6.36Y-3.18
X6.36Y-3.45
X6.3625Y-3.0375
X6.39Y-4.57
X6.4016Y-3.3762
X6.4069Y-3.6845
X6.43Y-4.26
X6.43Y-4.52
X6.44Y-4.69
X6.4442Y-3.6447
X6.47Y-3.42
X6.48Y-3.59
X6.48Y-3.98
X6.48Y-4.06
X6.48Y-4.39
X6.5Y-2.55
X6.5498Y-2.5989
X6.59Y-4.66
X6.595Y-2.7325
X6.6Y-3.67
X6.6Y-3.93
X6.61Y-4.46
X6.625Y-2.8984
X6.6296Y-2.672
X6.63Y-4.03
X6.6414Y-2.7914
X6.67Y-3.16
X6.67Y-3.31
X6.67Y-3.68
X6.675Y-3.85
X6.69Y-4.62
X6.6925Y-4.219
X6.7Y-2.975
X6.7Y-4.1
X6.72Y-3.75
X6.72Y-4.5
X6.725Y-2.75
X6.725Y-2.875
X6.74Y-3.28
X6.74Y-4.0
X6.7475Y-3.8225
X6.7592Y-4.2892
X6.77Y-4.68
X6.775Y-4.175
X6.78Y-4.62
X6.79Y-3.33
X6.79Y-4.12
X6.793Y-2.818
X6.8Y-3.65
X6.8115Y-4.3415
X6.825Y-2.625
X6.825Y-3.0
X6.825Y-3.35
X6.825Y-4.075
X6.83Y-4.23
X6.8516Y-2.95
X6.855Y-2.818
X6.87Y-3.07
X6.9Y-3.95
X6.93Y-4.15
X6.94Y-3.85
X6.94Y-4.49
X6.95Y-2.775
X6.975Y-2.95
X6.975Y-3.375
X6.98Y-2.99
X6.98Y-4.17
X7.0Y-4.1
X7.0112Y-3.6888
X7.025Y-3.475
X7.04Y-3.85
X7.05Y-3.24
X7.0534Y-3.3696
X7.06Y-4.0
X7.0737Y-3.1185
X7.0994Y-3.4271
X7.1217Y-3.3517
X7.1586Y-3.2898
X7.1611Y-3.6589
X7.17Y-3.49
X7.1778Y-3.6074
X7.18Y-3.43
X7.26Y-3.22
X7.34Y-3.74
T4
X6.3325Y-2.7625
T5
X5.3825Y-3.505
X5.3825Y-3.605
X5.3825Y-3.705
X5.4825Y-3.505
X5.4825Y-3.605
X5.4825Y-3.705
X5.65Y-3.11
X5.75Y-3.11
X5.85Y-3.11
T2
G00X7.2544Y-3.3751
M15
G01X7.2407Y-3.3829
M16
G05
G00X7.3496Y-3.5401
M15
G01X7.336Y-3.548
M16
G05
T3
G00X7.3371Y-3.2782
M15
G01X7.3201Y-3.288
M16
G05
G00X7.4749Y-3.5169
M15
G01X7.4578Y-3.5267
M16
G05
T0
M30
