G04 #@! TF.GenerationSoftware,KiCad,Pcbnew,(5.1.5)-3*
G04 #@! TF.CreationDate,2020-02-12T15:38:08+01:00*
G04 #@! TF.ProjectId,MotherBoard,4d6f7468-6572-4426-9f61-72642e6b6963,rev?*
G04 #@! TF.SameCoordinates,Original*
G04 #@! TF.FileFunction,Soldermask,Top*
G04 #@! TF.FilePolarity,Negative*
%FSLAX46Y46*%
G04 Gerber Fmt 4.6, Leading zero omitted, Abs format (unit mm)*
G04 Created by KiCad (PCBNEW (5.1.5)-3) date 2020-02-12 15:38:08*
%MOMM*%
%LPD*%
G04 APERTURE LIST*
%ADD10C,0.100000*%
G04 APERTURE END LIST*
D10*
G36*
X155778400Y-120669000D02*
G01*
X154152400Y-120669000D01*
X154152400Y-116567000D01*
X155778400Y-116567000D01*
X155778400Y-120669000D01*
G37*
G36*
X158318400Y-120669000D02*
G01*
X156692400Y-120669000D01*
X156692400Y-116567000D01*
X158318400Y-116567000D01*
X158318400Y-120669000D01*
G37*
G36*
X160858400Y-120669000D02*
G01*
X159232400Y-120669000D01*
X159232400Y-116567000D01*
X160858400Y-116567000D01*
X160858400Y-120669000D01*
G37*
G36*
X144195500Y-119639960D02*
G01*
X142068500Y-119639960D01*
X142068500Y-117262960D01*
X144195500Y-117262960D01*
X144195500Y-119639960D01*
G37*
G36*
X149270500Y-119639960D02*
G01*
X147143500Y-119639960D01*
X147143500Y-117262960D01*
X149270500Y-117262960D01*
X149270500Y-119639960D01*
G37*
G36*
X144195500Y-110315960D02*
G01*
X142068500Y-110315960D01*
X142068500Y-107938960D01*
X144195500Y-107938960D01*
X144195500Y-110315960D01*
G37*
G36*
X149270500Y-110315960D02*
G01*
X147143500Y-110315960D01*
X147143500Y-107938960D01*
X149270500Y-107938960D01*
X149270500Y-110315960D01*
G37*
G36*
X136942418Y-106653284D02*
G01*
X133389982Y-108704284D01*
X132576982Y-107296126D01*
X136129418Y-105245126D01*
X136942418Y-106653284D01*
G37*
G36*
X182421118Y-107258025D02*
G01*
X181608118Y-108666183D01*
X178055682Y-106615183D01*
X178868682Y-105207025D01*
X182421118Y-107258025D01*
G37*
G36*
X135672418Y-104453579D02*
G01*
X132119982Y-106504579D01*
X131306982Y-105096421D01*
X134859418Y-103045421D01*
X135672418Y-104453579D01*
G37*
G36*
X183691118Y-105058321D02*
G01*
X182878118Y-106466479D01*
X179325682Y-104415479D01*
X180138682Y-103007321D01*
X183691118Y-105058321D01*
G37*
G36*
X162261674Y-104663465D02*
G01*
X162299367Y-104674899D01*
X162334103Y-104693466D01*
X162364548Y-104718452D01*
X162389534Y-104748897D01*
X162408101Y-104783633D01*
X162419535Y-104821326D01*
X162424000Y-104866661D01*
X162424000Y-105953339D01*
X162419535Y-105998674D01*
X162408101Y-106036367D01*
X162389534Y-106071103D01*
X162364548Y-106101548D01*
X162334103Y-106126534D01*
X162299367Y-106145101D01*
X162261674Y-106156535D01*
X162216339Y-106161000D01*
X161379661Y-106161000D01*
X161334326Y-106156535D01*
X161296633Y-106145101D01*
X161261897Y-106126534D01*
X161231452Y-106101548D01*
X161206466Y-106071103D01*
X161187899Y-106036367D01*
X161176465Y-105998674D01*
X161172000Y-105953339D01*
X161172000Y-104866661D01*
X161176465Y-104821326D01*
X161187899Y-104783633D01*
X161206466Y-104748897D01*
X161231452Y-104718452D01*
X161261897Y-104693466D01*
X161296633Y-104674899D01*
X161334326Y-104663465D01*
X161379661Y-104659000D01*
X162216339Y-104659000D01*
X162261674Y-104663465D01*
G37*
G36*
X160211674Y-104663465D02*
G01*
X160249367Y-104674899D01*
X160284103Y-104693466D01*
X160314548Y-104718452D01*
X160339534Y-104748897D01*
X160358101Y-104783633D01*
X160369535Y-104821326D01*
X160374000Y-104866661D01*
X160374000Y-105953339D01*
X160369535Y-105998674D01*
X160358101Y-106036367D01*
X160339534Y-106071103D01*
X160314548Y-106101548D01*
X160284103Y-106126534D01*
X160249367Y-106145101D01*
X160211674Y-106156535D01*
X160166339Y-106161000D01*
X159329661Y-106161000D01*
X159284326Y-106156535D01*
X159246633Y-106145101D01*
X159211897Y-106126534D01*
X159181452Y-106101548D01*
X159156466Y-106071103D01*
X159137899Y-106036367D01*
X159126465Y-105998674D01*
X159122000Y-105953339D01*
X159122000Y-104866661D01*
X159126465Y-104821326D01*
X159137899Y-104783633D01*
X159156466Y-104748897D01*
X159181452Y-104718452D01*
X159211897Y-104693466D01*
X159246633Y-104674899D01*
X159284326Y-104663465D01*
X159329661Y-104659000D01*
X160166339Y-104659000D01*
X160211674Y-104663465D01*
G37*
G36*
X134402418Y-102253875D02*
G01*
X130849982Y-104304875D01*
X130036982Y-102896717D01*
X133589418Y-100845717D01*
X134402418Y-102253875D01*
G37*
G36*
X184961118Y-102858616D02*
G01*
X184148118Y-104266774D01*
X180595682Y-102215774D01*
X181408682Y-100807616D01*
X184961118Y-102858616D01*
G37*
G36*
X157063674Y-102758465D02*
G01*
X157101367Y-102769899D01*
X157136101Y-102788465D01*
X157166548Y-102813452D01*
X157191534Y-102843897D01*
X157210101Y-102878633D01*
X157221535Y-102916326D01*
X157226000Y-102961661D01*
X157226000Y-104048339D01*
X157221535Y-104093674D01*
X157210101Y-104131367D01*
X157191534Y-104166103D01*
X157166548Y-104196548D01*
X157136103Y-104221534D01*
X157101367Y-104240101D01*
X157063674Y-104251535D01*
X157018339Y-104256000D01*
X156181661Y-104256000D01*
X156136326Y-104251535D01*
X156098633Y-104240101D01*
X156063897Y-104221534D01*
X156033452Y-104196548D01*
X156008466Y-104166103D01*
X155989899Y-104131367D01*
X155978465Y-104093674D01*
X155974000Y-104048339D01*
X155974000Y-102961661D01*
X155978465Y-102916326D01*
X155989899Y-102878633D01*
X156008466Y-102843897D01*
X156033452Y-102813452D01*
X156063899Y-102788465D01*
X156098633Y-102769899D01*
X156136326Y-102758465D01*
X156181661Y-102754000D01*
X157018339Y-102754000D01*
X157063674Y-102758465D01*
G37*
G36*
X155013674Y-102758465D02*
G01*
X155051367Y-102769899D01*
X155086101Y-102788465D01*
X155116548Y-102813452D01*
X155141534Y-102843897D01*
X155160101Y-102878633D01*
X155171535Y-102916326D01*
X155176000Y-102961661D01*
X155176000Y-104048339D01*
X155171535Y-104093674D01*
X155160101Y-104131367D01*
X155141534Y-104166103D01*
X155116548Y-104196548D01*
X155086103Y-104221534D01*
X155051367Y-104240101D01*
X155013674Y-104251535D01*
X154968339Y-104256000D01*
X154131661Y-104256000D01*
X154086326Y-104251535D01*
X154048633Y-104240101D01*
X154013897Y-104221534D01*
X153983452Y-104196548D01*
X153958466Y-104166103D01*
X153939899Y-104131367D01*
X153928465Y-104093674D01*
X153924000Y-104048339D01*
X153924000Y-102961661D01*
X153928465Y-102916326D01*
X153939899Y-102878633D01*
X153958466Y-102843897D01*
X153983452Y-102813452D01*
X154013899Y-102788465D01*
X154048633Y-102769899D01*
X154086326Y-102758465D01*
X154131661Y-102754000D01*
X154968339Y-102754000D01*
X155013674Y-102758465D01*
G37*
G36*
X159425000Y-101338000D02*
G01*
X153503000Y-101338000D01*
X153503000Y-99236000D01*
X159425000Y-99236000D01*
X159425000Y-101338000D01*
G37*
G36*
X142574674Y-99713765D02*
G01*
X142612367Y-99725199D01*
X142647103Y-99743766D01*
X142677548Y-99768752D01*
X142702534Y-99799197D01*
X142721101Y-99833933D01*
X142732535Y-99871626D01*
X142737000Y-99916961D01*
X142737000Y-100753639D01*
X142732535Y-100798974D01*
X142721101Y-100836667D01*
X142702534Y-100871403D01*
X142677548Y-100901848D01*
X142647103Y-100926834D01*
X142612367Y-100945401D01*
X142574674Y-100956835D01*
X142529339Y-100961300D01*
X141442661Y-100961300D01*
X141397326Y-100956835D01*
X141359633Y-100945401D01*
X141324897Y-100926834D01*
X141294452Y-100901848D01*
X141269466Y-100871403D01*
X141250899Y-100836667D01*
X141239465Y-100798974D01*
X141235000Y-100753639D01*
X141235000Y-99916961D01*
X141239465Y-99871626D01*
X141250899Y-99833933D01*
X141269466Y-99799197D01*
X141294452Y-99768752D01*
X141324897Y-99743766D01*
X141359633Y-99725199D01*
X141397326Y-99713765D01*
X141442661Y-99709300D01*
X142529339Y-99709300D01*
X142574674Y-99713765D01*
G37*
G36*
X146638674Y-99708465D02*
G01*
X146676367Y-99719899D01*
X146711103Y-99738466D01*
X146741548Y-99763452D01*
X146766534Y-99793897D01*
X146785101Y-99828633D01*
X146796535Y-99866326D01*
X146801000Y-99911661D01*
X146801000Y-100748339D01*
X146796535Y-100793674D01*
X146785101Y-100831367D01*
X146766534Y-100866103D01*
X146741548Y-100896548D01*
X146711103Y-100921534D01*
X146676367Y-100940101D01*
X146638674Y-100951535D01*
X146593339Y-100956000D01*
X145506661Y-100956000D01*
X145461326Y-100951535D01*
X145423633Y-100940101D01*
X145388897Y-100921534D01*
X145358452Y-100896548D01*
X145333466Y-100866103D01*
X145314899Y-100831367D01*
X145303465Y-100793674D01*
X145299000Y-100748339D01*
X145299000Y-99911661D01*
X145303465Y-99866326D01*
X145314899Y-99828633D01*
X145333466Y-99793897D01*
X145358452Y-99763452D01*
X145388897Y-99738466D01*
X145423633Y-99719899D01*
X145461326Y-99708465D01*
X145506661Y-99704000D01*
X146593339Y-99704000D01*
X146638674Y-99708465D01*
G37*
G36*
X149178674Y-99708465D02*
G01*
X149216367Y-99719899D01*
X149251103Y-99738466D01*
X149281548Y-99763452D01*
X149306534Y-99793897D01*
X149325101Y-99828633D01*
X149336535Y-99866326D01*
X149341000Y-99911661D01*
X149341000Y-100748339D01*
X149336535Y-100793674D01*
X149325101Y-100831367D01*
X149306534Y-100866103D01*
X149281548Y-100896548D01*
X149251103Y-100921534D01*
X149216367Y-100940101D01*
X149178674Y-100951535D01*
X149133339Y-100956000D01*
X148046661Y-100956000D01*
X148001326Y-100951535D01*
X147963633Y-100940101D01*
X147928897Y-100921534D01*
X147898452Y-100896548D01*
X147873466Y-100866103D01*
X147854899Y-100831367D01*
X147843465Y-100793674D01*
X147839000Y-100748339D01*
X147839000Y-99911661D01*
X147843465Y-99866326D01*
X147854899Y-99828633D01*
X147873466Y-99793897D01*
X147898452Y-99763452D01*
X147928897Y-99738466D01*
X147963633Y-99719899D01*
X148001326Y-99708465D01*
X148046661Y-99704000D01*
X149133339Y-99704000D01*
X149178674Y-99708465D01*
G37*
G36*
X144682874Y-99683065D02*
G01*
X144720567Y-99694499D01*
X144755303Y-99713066D01*
X144785748Y-99738052D01*
X144810734Y-99768497D01*
X144829301Y-99803233D01*
X144840735Y-99840926D01*
X144845200Y-99886261D01*
X144845200Y-100722939D01*
X144840735Y-100768274D01*
X144829301Y-100805967D01*
X144810734Y-100840703D01*
X144785748Y-100871148D01*
X144755303Y-100896134D01*
X144720567Y-100914701D01*
X144682874Y-100926135D01*
X144637539Y-100930600D01*
X143550861Y-100930600D01*
X143505526Y-100926135D01*
X143467833Y-100914701D01*
X143433097Y-100896134D01*
X143402652Y-100871148D01*
X143377666Y-100840703D01*
X143359099Y-100805967D01*
X143347665Y-100768274D01*
X143343200Y-100722939D01*
X143343200Y-99886261D01*
X143347665Y-99840926D01*
X143359099Y-99803233D01*
X143377666Y-99768497D01*
X143402652Y-99738052D01*
X143433097Y-99713066D01*
X143467833Y-99694499D01*
X143505526Y-99683065D01*
X143550861Y-99678600D01*
X144637539Y-99678600D01*
X144682874Y-99683065D01*
G37*
G36*
X166343674Y-98948465D02*
G01*
X166381367Y-98959899D01*
X166416103Y-98978466D01*
X166446548Y-99003452D01*
X166471534Y-99033897D01*
X166490101Y-99068633D01*
X166501535Y-99106326D01*
X166506000Y-99151661D01*
X166506000Y-100238339D01*
X166501535Y-100283674D01*
X166490101Y-100321367D01*
X166471534Y-100356103D01*
X166446548Y-100386548D01*
X166416103Y-100411534D01*
X166381367Y-100430101D01*
X166343674Y-100441535D01*
X166298339Y-100446000D01*
X165461661Y-100446000D01*
X165416326Y-100441535D01*
X165378633Y-100430101D01*
X165343897Y-100411534D01*
X165313452Y-100386548D01*
X165288466Y-100356103D01*
X165269899Y-100321367D01*
X165258465Y-100283674D01*
X165254000Y-100238339D01*
X165254000Y-99151661D01*
X165258465Y-99106326D01*
X165269899Y-99068633D01*
X165288466Y-99033897D01*
X165313452Y-99003452D01*
X165343897Y-98978466D01*
X165378633Y-98959899D01*
X165416326Y-98948465D01*
X165461661Y-98944000D01*
X166298339Y-98944000D01*
X166343674Y-98948465D01*
G37*
G36*
X164293674Y-98948465D02*
G01*
X164331367Y-98959899D01*
X164366103Y-98978466D01*
X164396548Y-99003452D01*
X164421534Y-99033897D01*
X164440101Y-99068633D01*
X164451535Y-99106326D01*
X164456000Y-99151661D01*
X164456000Y-100238339D01*
X164451535Y-100283674D01*
X164440101Y-100321367D01*
X164421534Y-100356103D01*
X164396548Y-100386548D01*
X164366103Y-100411534D01*
X164331367Y-100430101D01*
X164293674Y-100441535D01*
X164248339Y-100446000D01*
X163411661Y-100446000D01*
X163366326Y-100441535D01*
X163328633Y-100430101D01*
X163293897Y-100411534D01*
X163263452Y-100386548D01*
X163238466Y-100356103D01*
X163219899Y-100321367D01*
X163208465Y-100283674D01*
X163204000Y-100238339D01*
X163204000Y-99151661D01*
X163208465Y-99106326D01*
X163219899Y-99068633D01*
X163238466Y-99033897D01*
X163263452Y-99003452D01*
X163293897Y-98978466D01*
X163328633Y-98959899D01*
X163366326Y-98948465D01*
X163411661Y-98944000D01*
X164248339Y-98944000D01*
X164293674Y-98948465D01*
G37*
G36*
X186008674Y-97955865D02*
G01*
X186046367Y-97967299D01*
X186081103Y-97985866D01*
X186111548Y-98010852D01*
X186136534Y-98041297D01*
X186155101Y-98076033D01*
X186166535Y-98113726D01*
X186171000Y-98159061D01*
X186171000Y-98995739D01*
X186166535Y-99041074D01*
X186155101Y-99078767D01*
X186136534Y-99113503D01*
X186111548Y-99143948D01*
X186081103Y-99168934D01*
X186046367Y-99187501D01*
X186008674Y-99198935D01*
X185963339Y-99203400D01*
X184876661Y-99203400D01*
X184831326Y-99198935D01*
X184793633Y-99187501D01*
X184758897Y-99168934D01*
X184728452Y-99143948D01*
X184703466Y-99113503D01*
X184684899Y-99078767D01*
X184673465Y-99041074D01*
X184669000Y-98995739D01*
X184669000Y-98159061D01*
X184673465Y-98113726D01*
X184684899Y-98076033D01*
X184703466Y-98041297D01*
X184728452Y-98010852D01*
X184758897Y-97985866D01*
X184793633Y-97967299D01*
X184831326Y-97955865D01*
X184876661Y-97951400D01*
X185963339Y-97951400D01*
X186008674Y-97955865D01*
G37*
G36*
X183829354Y-97945705D02*
G01*
X183867047Y-97957139D01*
X183901783Y-97975706D01*
X183932228Y-98000692D01*
X183957214Y-98031137D01*
X183975781Y-98065873D01*
X183987215Y-98103566D01*
X183991680Y-98148901D01*
X183991680Y-98985579D01*
X183987215Y-99030914D01*
X183975781Y-99068607D01*
X183957214Y-99103343D01*
X183932228Y-99133788D01*
X183901783Y-99158774D01*
X183867047Y-99177341D01*
X183829354Y-99188775D01*
X183784019Y-99193240D01*
X182697341Y-99193240D01*
X182652006Y-99188775D01*
X182614313Y-99177341D01*
X182579577Y-99158774D01*
X182549132Y-99133788D01*
X182524146Y-99103343D01*
X182505579Y-99068607D01*
X182494145Y-99030914D01*
X182489680Y-98985579D01*
X182489680Y-98148901D01*
X182494145Y-98103566D01*
X182505579Y-98065873D01*
X182524146Y-98031137D01*
X182549132Y-98000692D01*
X182579577Y-97975706D01*
X182614313Y-97957139D01*
X182652006Y-97945705D01*
X182697341Y-97941240D01*
X183784019Y-97941240D01*
X183829354Y-97945705D01*
G37*
G36*
X161790000Y-98973000D02*
G01*
X159688000Y-98973000D01*
X159688000Y-93051000D01*
X161790000Y-93051000D01*
X161790000Y-98973000D01*
G37*
G36*
X153240000Y-98973000D02*
G01*
X151138000Y-98973000D01*
X151138000Y-93051000D01*
X153240000Y-93051000D01*
X153240000Y-98973000D01*
G37*
G36*
X142574674Y-97663765D02*
G01*
X142612367Y-97675199D01*
X142647103Y-97693766D01*
X142677548Y-97718752D01*
X142702534Y-97749197D01*
X142721101Y-97783933D01*
X142732535Y-97821626D01*
X142737000Y-97866961D01*
X142737000Y-98703639D01*
X142732535Y-98748974D01*
X142721101Y-98786667D01*
X142702534Y-98821403D01*
X142677548Y-98851848D01*
X142647103Y-98876834D01*
X142612367Y-98895401D01*
X142574674Y-98906835D01*
X142529339Y-98911300D01*
X141442661Y-98911300D01*
X141397326Y-98906835D01*
X141359633Y-98895401D01*
X141324897Y-98876834D01*
X141294452Y-98851848D01*
X141269466Y-98821403D01*
X141250899Y-98786667D01*
X141239465Y-98748974D01*
X141235000Y-98703639D01*
X141235000Y-97866961D01*
X141239465Y-97821626D01*
X141250899Y-97783933D01*
X141269466Y-97749197D01*
X141294452Y-97718752D01*
X141324897Y-97693766D01*
X141359633Y-97675199D01*
X141397326Y-97663765D01*
X141442661Y-97659300D01*
X142529339Y-97659300D01*
X142574674Y-97663765D01*
G37*
G36*
X149178674Y-97658465D02*
G01*
X149216367Y-97669899D01*
X149251103Y-97688466D01*
X149281548Y-97713452D01*
X149306534Y-97743897D01*
X149325101Y-97778633D01*
X149336535Y-97816326D01*
X149341000Y-97861661D01*
X149341000Y-98698339D01*
X149336535Y-98743674D01*
X149325101Y-98781367D01*
X149306534Y-98816103D01*
X149281548Y-98846548D01*
X149251103Y-98871534D01*
X149216367Y-98890101D01*
X149178674Y-98901535D01*
X149133339Y-98906000D01*
X148046661Y-98906000D01*
X148001326Y-98901535D01*
X147963633Y-98890101D01*
X147928897Y-98871534D01*
X147898452Y-98846548D01*
X147873466Y-98816103D01*
X147854899Y-98781367D01*
X147843465Y-98743674D01*
X147839000Y-98698339D01*
X147839000Y-97861661D01*
X147843465Y-97816326D01*
X147854899Y-97778633D01*
X147873466Y-97743897D01*
X147898452Y-97713452D01*
X147928897Y-97688466D01*
X147963633Y-97669899D01*
X148001326Y-97658465D01*
X148046661Y-97654000D01*
X149133339Y-97654000D01*
X149178674Y-97658465D01*
G37*
G36*
X146638674Y-97658465D02*
G01*
X146676367Y-97669899D01*
X146711103Y-97688466D01*
X146741548Y-97713452D01*
X146766534Y-97743897D01*
X146785101Y-97778633D01*
X146796535Y-97816326D01*
X146801000Y-97861661D01*
X146801000Y-98698339D01*
X146796535Y-98743674D01*
X146785101Y-98781367D01*
X146766534Y-98816103D01*
X146741548Y-98846548D01*
X146711103Y-98871534D01*
X146676367Y-98890101D01*
X146638674Y-98901535D01*
X146593339Y-98906000D01*
X145506661Y-98906000D01*
X145461326Y-98901535D01*
X145423633Y-98890101D01*
X145388897Y-98871534D01*
X145358452Y-98846548D01*
X145333466Y-98816103D01*
X145314899Y-98781367D01*
X145303465Y-98743674D01*
X145299000Y-98698339D01*
X145299000Y-97861661D01*
X145303465Y-97816326D01*
X145314899Y-97778633D01*
X145333466Y-97743897D01*
X145358452Y-97713452D01*
X145388897Y-97688466D01*
X145423633Y-97669899D01*
X145461326Y-97658465D01*
X145506661Y-97654000D01*
X146593339Y-97654000D01*
X146638674Y-97658465D01*
G37*
G36*
X144682874Y-97633065D02*
G01*
X144720567Y-97644499D01*
X144755303Y-97663066D01*
X144785748Y-97688052D01*
X144810734Y-97718497D01*
X144829301Y-97753233D01*
X144840735Y-97790926D01*
X144845200Y-97836261D01*
X144845200Y-98672939D01*
X144840735Y-98718274D01*
X144829301Y-98755967D01*
X144810734Y-98790703D01*
X144785748Y-98821148D01*
X144755303Y-98846134D01*
X144720567Y-98864701D01*
X144682874Y-98876135D01*
X144637539Y-98880600D01*
X143550861Y-98880600D01*
X143505526Y-98876135D01*
X143467833Y-98864701D01*
X143433097Y-98846134D01*
X143402652Y-98821148D01*
X143377666Y-98790703D01*
X143359099Y-98755967D01*
X143347665Y-98718274D01*
X143343200Y-98672939D01*
X143343200Y-97836261D01*
X143347665Y-97790926D01*
X143359099Y-97753233D01*
X143377666Y-97718497D01*
X143402652Y-97688052D01*
X143433097Y-97663066D01*
X143467833Y-97644499D01*
X143505526Y-97633065D01*
X143550861Y-97628600D01*
X144637539Y-97628600D01*
X144682874Y-97633065D01*
G37*
G36*
X166468674Y-96678465D02*
G01*
X166506367Y-96689899D01*
X166541103Y-96708466D01*
X166571548Y-96733452D01*
X166596534Y-96763897D01*
X166615101Y-96798633D01*
X166626535Y-96836326D01*
X166631000Y-96881661D01*
X166631000Y-97718339D01*
X166626535Y-97763674D01*
X166615101Y-97801367D01*
X166596534Y-97836103D01*
X166571548Y-97866548D01*
X166541103Y-97891534D01*
X166506367Y-97910101D01*
X166468674Y-97921535D01*
X166423339Y-97926000D01*
X165336661Y-97926000D01*
X165291326Y-97921535D01*
X165253633Y-97910101D01*
X165218897Y-97891534D01*
X165188452Y-97866548D01*
X165163466Y-97836103D01*
X165144899Y-97801367D01*
X165133465Y-97763674D01*
X165129000Y-97718339D01*
X165129000Y-96881661D01*
X165133465Y-96836326D01*
X165144899Y-96798633D01*
X165163466Y-96763897D01*
X165188452Y-96733452D01*
X165218897Y-96708466D01*
X165253633Y-96689899D01*
X165291326Y-96678465D01*
X165336661Y-96674000D01*
X166423339Y-96674000D01*
X166468674Y-96678465D01*
G37*
G36*
X186008674Y-95905865D02*
G01*
X186046367Y-95917299D01*
X186081103Y-95935866D01*
X186111548Y-95960852D01*
X186136534Y-95991297D01*
X186155101Y-96026033D01*
X186166535Y-96063726D01*
X186171000Y-96109061D01*
X186171000Y-96945739D01*
X186166535Y-96991074D01*
X186155101Y-97028767D01*
X186136534Y-97063503D01*
X186111548Y-97093948D01*
X186081103Y-97118934D01*
X186046367Y-97137501D01*
X186008674Y-97148935D01*
X185963339Y-97153400D01*
X184876661Y-97153400D01*
X184831326Y-97148935D01*
X184793633Y-97137501D01*
X184758897Y-97118934D01*
X184728452Y-97093948D01*
X184703466Y-97063503D01*
X184684899Y-97028767D01*
X184673465Y-96991074D01*
X184669000Y-96945739D01*
X184669000Y-96109061D01*
X184673465Y-96063726D01*
X184684899Y-96026033D01*
X184703466Y-95991297D01*
X184728452Y-95960852D01*
X184758897Y-95935866D01*
X184793633Y-95917299D01*
X184831326Y-95905865D01*
X184876661Y-95901400D01*
X185963339Y-95901400D01*
X186008674Y-95905865D01*
G37*
G36*
X183829354Y-95895705D02*
G01*
X183867047Y-95907139D01*
X183901783Y-95925706D01*
X183932228Y-95950692D01*
X183957214Y-95981137D01*
X183975781Y-96015873D01*
X183987215Y-96053566D01*
X183991680Y-96098901D01*
X183991680Y-96935579D01*
X183987215Y-96980914D01*
X183975781Y-97018607D01*
X183957214Y-97053343D01*
X183932228Y-97083788D01*
X183901783Y-97108774D01*
X183867047Y-97127341D01*
X183829354Y-97138775D01*
X183784019Y-97143240D01*
X182697341Y-97143240D01*
X182652006Y-97138775D01*
X182614313Y-97127341D01*
X182579577Y-97108774D01*
X182549132Y-97083788D01*
X182524146Y-97053343D01*
X182505579Y-97018607D01*
X182494145Y-96980914D01*
X182489680Y-96935579D01*
X182489680Y-96098901D01*
X182494145Y-96053566D01*
X182505579Y-96015873D01*
X182524146Y-95981137D01*
X182549132Y-95950692D01*
X182579577Y-95925706D01*
X182614313Y-95907139D01*
X182652006Y-95895705D01*
X182697341Y-95891240D01*
X183784019Y-95891240D01*
X183829354Y-95895705D01*
G37*
G36*
X146436499Y-95998445D02*
G01*
X146473995Y-96009820D01*
X146508554Y-96028292D01*
X146538847Y-96053153D01*
X146563708Y-96083446D01*
X146582180Y-96118005D01*
X146593555Y-96155501D01*
X146598000Y-96200638D01*
X146598000Y-96839362D01*
X146593555Y-96884499D01*
X146582180Y-96921995D01*
X146563708Y-96956554D01*
X146538847Y-96986847D01*
X146508554Y-97011708D01*
X146473995Y-97030180D01*
X146436499Y-97041555D01*
X146391362Y-97046000D01*
X145652638Y-97046000D01*
X145607501Y-97041555D01*
X145570005Y-97030180D01*
X145535446Y-97011708D01*
X145505153Y-96986847D01*
X145480292Y-96956554D01*
X145461820Y-96921995D01*
X145450445Y-96884499D01*
X145446000Y-96839362D01*
X145446000Y-96200638D01*
X145450445Y-96155501D01*
X145461820Y-96118005D01*
X145480292Y-96083446D01*
X145505153Y-96053153D01*
X145535446Y-96028292D01*
X145570005Y-96009820D01*
X145607501Y-95998445D01*
X145652638Y-95994000D01*
X146391362Y-95994000D01*
X146436499Y-95998445D01*
G37*
G36*
X144686499Y-95998445D02*
G01*
X144723995Y-96009820D01*
X144758554Y-96028292D01*
X144788847Y-96053153D01*
X144813708Y-96083446D01*
X144832180Y-96118005D01*
X144843555Y-96155501D01*
X144848000Y-96200638D01*
X144848000Y-96839362D01*
X144843555Y-96884499D01*
X144832180Y-96921995D01*
X144813708Y-96956554D01*
X144788847Y-96986847D01*
X144758554Y-97011708D01*
X144723995Y-97030180D01*
X144686499Y-97041555D01*
X144641362Y-97046000D01*
X143902638Y-97046000D01*
X143857501Y-97041555D01*
X143820005Y-97030180D01*
X143785446Y-97011708D01*
X143755153Y-96986847D01*
X143730292Y-96956554D01*
X143711820Y-96921995D01*
X143700445Y-96884499D01*
X143696000Y-96839362D01*
X143696000Y-96200638D01*
X143700445Y-96155501D01*
X143711820Y-96118005D01*
X143730292Y-96083446D01*
X143755153Y-96053153D01*
X143785446Y-96028292D01*
X143820005Y-96009820D01*
X143857501Y-95998445D01*
X143902638Y-95994000D01*
X144641362Y-95994000D01*
X144686499Y-95998445D01*
G37*
G36*
X166468674Y-94628465D02*
G01*
X166506367Y-94639899D01*
X166541103Y-94658466D01*
X166571548Y-94683452D01*
X166596534Y-94713897D01*
X166615101Y-94748633D01*
X166626535Y-94786326D01*
X166631000Y-94831661D01*
X166631000Y-95668339D01*
X166626535Y-95713674D01*
X166615101Y-95751367D01*
X166596534Y-95786103D01*
X166571548Y-95816548D01*
X166541103Y-95841534D01*
X166506367Y-95860101D01*
X166468674Y-95871535D01*
X166423339Y-95876000D01*
X165336661Y-95876000D01*
X165291326Y-95871535D01*
X165253633Y-95860101D01*
X165218897Y-95841534D01*
X165188452Y-95816548D01*
X165163466Y-95786103D01*
X165144899Y-95751367D01*
X165133465Y-95713674D01*
X165129000Y-95668339D01*
X165129000Y-94831661D01*
X165133465Y-94786326D01*
X165144899Y-94748633D01*
X165163466Y-94713897D01*
X165188452Y-94683452D01*
X165218897Y-94658466D01*
X165253633Y-94639899D01*
X165291326Y-94628465D01*
X165336661Y-94624000D01*
X166423339Y-94624000D01*
X166468674Y-94628465D01*
G37*
G36*
X139369012Y-93210927D02*
G01*
X139518312Y-93240624D01*
X139682284Y-93308544D01*
X139829854Y-93407147D01*
X139955353Y-93532646D01*
X140053956Y-93680216D01*
X140121876Y-93844188D01*
X140147903Y-93975038D01*
X140156500Y-94018258D01*
X140156500Y-94195742D01*
X140152118Y-94217770D01*
X140121876Y-94369812D01*
X140053956Y-94533784D01*
X139955353Y-94681354D01*
X139829854Y-94806853D01*
X139682284Y-94905456D01*
X139518312Y-94973376D01*
X139369012Y-95003073D01*
X139344242Y-95008000D01*
X139166758Y-95008000D01*
X139141988Y-95003073D01*
X138992688Y-94973376D01*
X138828716Y-94905456D01*
X138681146Y-94806853D01*
X138555647Y-94681354D01*
X138457044Y-94533784D01*
X138389124Y-94369812D01*
X138358882Y-94217770D01*
X138354500Y-94195742D01*
X138354500Y-94018258D01*
X138363097Y-93975038D01*
X138389124Y-93844188D01*
X138457044Y-93680216D01*
X138555647Y-93532646D01*
X138681146Y-93407147D01*
X138828716Y-93308544D01*
X138992688Y-93240624D01*
X139141988Y-93210927D01*
X139166758Y-93206000D01*
X139344242Y-93206000D01*
X139369012Y-93210927D01*
G37*
G36*
X136829012Y-93210927D02*
G01*
X136978312Y-93240624D01*
X137142284Y-93308544D01*
X137289854Y-93407147D01*
X137415353Y-93532646D01*
X137513956Y-93680216D01*
X137581876Y-93844188D01*
X137607903Y-93975038D01*
X137616500Y-94018258D01*
X137616500Y-94195742D01*
X137612118Y-94217770D01*
X137581876Y-94369812D01*
X137513956Y-94533784D01*
X137415353Y-94681354D01*
X137289854Y-94806853D01*
X137142284Y-94905456D01*
X136978312Y-94973376D01*
X136829012Y-95003073D01*
X136804242Y-95008000D01*
X136626758Y-95008000D01*
X136601988Y-95003073D01*
X136452688Y-94973376D01*
X136288716Y-94905456D01*
X136141146Y-94806853D01*
X136015647Y-94681354D01*
X135917044Y-94533784D01*
X135849124Y-94369812D01*
X135818882Y-94217770D01*
X135814500Y-94195742D01*
X135814500Y-94018258D01*
X135823097Y-93975038D01*
X135849124Y-93844188D01*
X135917044Y-93680216D01*
X136015647Y-93532646D01*
X136141146Y-93407147D01*
X136288716Y-93308544D01*
X136452688Y-93240624D01*
X136601988Y-93210927D01*
X136626758Y-93206000D01*
X136804242Y-93206000D01*
X136829012Y-93210927D01*
G37*
G36*
X144481674Y-92725465D02*
G01*
X144519367Y-92736899D01*
X144554103Y-92755466D01*
X144584548Y-92780452D01*
X144609534Y-92810897D01*
X144628101Y-92845633D01*
X144639535Y-92883326D01*
X144644000Y-92928661D01*
X144644000Y-94015339D01*
X144639535Y-94060674D01*
X144628101Y-94098367D01*
X144609534Y-94133103D01*
X144584548Y-94163548D01*
X144554103Y-94188534D01*
X144519367Y-94207101D01*
X144481674Y-94218535D01*
X144436339Y-94223000D01*
X143599661Y-94223000D01*
X143554326Y-94218535D01*
X143516633Y-94207101D01*
X143481897Y-94188534D01*
X143451452Y-94163548D01*
X143426466Y-94133103D01*
X143407899Y-94098367D01*
X143396465Y-94060674D01*
X143392000Y-94015339D01*
X143392000Y-92928661D01*
X143396465Y-92883326D01*
X143407899Y-92845633D01*
X143426466Y-92810897D01*
X143451452Y-92780452D01*
X143481897Y-92755466D01*
X143516633Y-92736899D01*
X143554326Y-92725465D01*
X143599661Y-92721000D01*
X144436339Y-92721000D01*
X144481674Y-92725465D01*
G37*
G36*
X142431674Y-92725465D02*
G01*
X142469367Y-92736899D01*
X142504103Y-92755466D01*
X142534548Y-92780452D01*
X142559534Y-92810897D01*
X142578101Y-92845633D01*
X142589535Y-92883326D01*
X142594000Y-92928661D01*
X142594000Y-94015339D01*
X142589535Y-94060674D01*
X142578101Y-94098367D01*
X142559534Y-94133103D01*
X142534548Y-94163548D01*
X142504103Y-94188534D01*
X142469367Y-94207101D01*
X142431674Y-94218535D01*
X142386339Y-94223000D01*
X141549661Y-94223000D01*
X141504326Y-94218535D01*
X141466633Y-94207101D01*
X141431897Y-94188534D01*
X141401452Y-94163548D01*
X141376466Y-94133103D01*
X141357899Y-94098367D01*
X141346465Y-94060674D01*
X141342000Y-94015339D01*
X141342000Y-92928661D01*
X141346465Y-92883326D01*
X141357899Y-92845633D01*
X141376466Y-92810897D01*
X141401452Y-92780452D01*
X141431897Y-92755466D01*
X141466633Y-92736899D01*
X141504326Y-92725465D01*
X141549661Y-92721000D01*
X142386339Y-92721000D01*
X142431674Y-92725465D01*
G37*
G36*
X146241674Y-92598465D02*
G01*
X146279367Y-92609899D01*
X146314103Y-92628466D01*
X146344548Y-92653452D01*
X146369534Y-92683897D01*
X146388101Y-92718633D01*
X146399535Y-92756326D01*
X146404000Y-92801661D01*
X146404000Y-93888339D01*
X146399535Y-93933674D01*
X146388101Y-93971367D01*
X146369534Y-94006103D01*
X146344548Y-94036548D01*
X146314103Y-94061534D01*
X146279367Y-94080101D01*
X146241674Y-94091535D01*
X146196339Y-94096000D01*
X145359661Y-94096000D01*
X145314326Y-94091535D01*
X145276633Y-94080101D01*
X145241897Y-94061534D01*
X145211452Y-94036548D01*
X145186466Y-94006103D01*
X145167899Y-93971367D01*
X145156465Y-93933674D01*
X145152000Y-93888339D01*
X145152000Y-92801661D01*
X145156465Y-92756326D01*
X145167899Y-92718633D01*
X145186466Y-92683897D01*
X145211452Y-92653452D01*
X145241897Y-92628466D01*
X145276633Y-92609899D01*
X145314326Y-92598465D01*
X145359661Y-92594000D01*
X146196339Y-92594000D01*
X146241674Y-92598465D01*
G37*
G36*
X148291674Y-92598465D02*
G01*
X148329367Y-92609899D01*
X148364103Y-92628466D01*
X148394548Y-92653452D01*
X148419534Y-92683897D01*
X148438101Y-92718633D01*
X148449535Y-92756326D01*
X148454000Y-92801661D01*
X148454000Y-93888339D01*
X148449535Y-93933674D01*
X148438101Y-93971367D01*
X148419534Y-94006103D01*
X148394548Y-94036548D01*
X148364103Y-94061534D01*
X148329367Y-94080101D01*
X148291674Y-94091535D01*
X148246339Y-94096000D01*
X147409661Y-94096000D01*
X147364326Y-94091535D01*
X147326633Y-94080101D01*
X147291897Y-94061534D01*
X147261452Y-94036548D01*
X147236466Y-94006103D01*
X147217899Y-93971367D01*
X147206465Y-93933674D01*
X147202000Y-93888339D01*
X147202000Y-92801661D01*
X147206465Y-92756326D01*
X147217899Y-92718633D01*
X147236466Y-92683897D01*
X147261452Y-92653452D01*
X147291897Y-92628466D01*
X147326633Y-92609899D01*
X147364326Y-92598465D01*
X147409661Y-92594000D01*
X148246339Y-92594000D01*
X148291674Y-92598465D01*
G37*
G36*
X150661000Y-93906000D02*
G01*
X149059000Y-93906000D01*
X149059000Y-92304000D01*
X150661000Y-92304000D01*
X150661000Y-93906000D01*
G37*
G36*
X159425000Y-92788000D02*
G01*
X153503000Y-92788000D01*
X153503000Y-90686000D01*
X159425000Y-90686000D01*
X159425000Y-92788000D01*
G37*
G36*
X136829012Y-90670927D02*
G01*
X136978312Y-90700624D01*
X137142284Y-90768544D01*
X137289854Y-90867147D01*
X137415353Y-90992646D01*
X137513956Y-91140216D01*
X137581876Y-91304188D01*
X137616500Y-91478259D01*
X137616500Y-91655741D01*
X137581876Y-91829812D01*
X137513956Y-91993784D01*
X137415353Y-92141354D01*
X137289854Y-92266853D01*
X137142284Y-92365456D01*
X136978312Y-92433376D01*
X136829012Y-92463073D01*
X136804242Y-92468000D01*
X136626758Y-92468000D01*
X136601988Y-92463073D01*
X136452688Y-92433376D01*
X136288716Y-92365456D01*
X136141146Y-92266853D01*
X136015647Y-92141354D01*
X135917044Y-91993784D01*
X135849124Y-91829812D01*
X135814500Y-91655741D01*
X135814500Y-91478259D01*
X135849124Y-91304188D01*
X135917044Y-91140216D01*
X136015647Y-90992646D01*
X136141146Y-90867147D01*
X136288716Y-90768544D01*
X136452688Y-90700624D01*
X136601988Y-90670927D01*
X136626758Y-90666000D01*
X136804242Y-90666000D01*
X136829012Y-90670927D01*
G37*
G36*
X139369012Y-90670927D02*
G01*
X139518312Y-90700624D01*
X139682284Y-90768544D01*
X139829854Y-90867147D01*
X139955353Y-90992646D01*
X140053956Y-91140216D01*
X140121876Y-91304188D01*
X140156500Y-91478259D01*
X140156500Y-91655741D01*
X140121876Y-91829812D01*
X140053956Y-91993784D01*
X139955353Y-92141354D01*
X139829854Y-92266853D01*
X139682284Y-92365456D01*
X139518312Y-92433376D01*
X139369012Y-92463073D01*
X139344242Y-92468000D01*
X139166758Y-92468000D01*
X139141988Y-92463073D01*
X138992688Y-92433376D01*
X138828716Y-92365456D01*
X138681146Y-92266853D01*
X138555647Y-92141354D01*
X138457044Y-91993784D01*
X138389124Y-91829812D01*
X138354500Y-91655741D01*
X138354500Y-91478259D01*
X138389124Y-91304188D01*
X138457044Y-91140216D01*
X138555647Y-90992646D01*
X138681146Y-90867147D01*
X138828716Y-90768544D01*
X138992688Y-90700624D01*
X139141988Y-90670927D01*
X139166758Y-90666000D01*
X139344242Y-90666000D01*
X139369012Y-90670927D01*
G37*
G36*
X178942920Y-92268840D02*
G01*
X177240920Y-92268840D01*
X177240920Y-90966840D01*
X178942920Y-90966840D01*
X178942920Y-92268840D01*
G37*
G36*
X144481674Y-90693465D02*
G01*
X144519367Y-90704899D01*
X144554103Y-90723466D01*
X144584548Y-90748452D01*
X144609534Y-90778897D01*
X144628101Y-90813633D01*
X144639535Y-90851326D01*
X144644000Y-90896661D01*
X144644000Y-91983339D01*
X144639535Y-92028674D01*
X144628101Y-92066367D01*
X144609534Y-92101103D01*
X144584548Y-92131548D01*
X144554103Y-92156534D01*
X144519367Y-92175101D01*
X144481674Y-92186535D01*
X144436339Y-92191000D01*
X143599661Y-92191000D01*
X143554326Y-92186535D01*
X143516633Y-92175101D01*
X143481897Y-92156534D01*
X143451452Y-92131548D01*
X143426466Y-92101103D01*
X143407899Y-92066367D01*
X143396465Y-92028674D01*
X143392000Y-91983339D01*
X143392000Y-90896661D01*
X143396465Y-90851326D01*
X143407899Y-90813633D01*
X143426466Y-90778897D01*
X143451452Y-90748452D01*
X143481897Y-90723466D01*
X143516633Y-90704899D01*
X143554326Y-90693465D01*
X143599661Y-90689000D01*
X144436339Y-90689000D01*
X144481674Y-90693465D01*
G37*
G36*
X142431674Y-90693465D02*
G01*
X142469367Y-90704899D01*
X142504103Y-90723466D01*
X142534548Y-90748452D01*
X142559534Y-90778897D01*
X142578101Y-90813633D01*
X142589535Y-90851326D01*
X142594000Y-90896661D01*
X142594000Y-91983339D01*
X142589535Y-92028674D01*
X142578101Y-92066367D01*
X142559534Y-92101103D01*
X142534548Y-92131548D01*
X142504103Y-92156534D01*
X142469367Y-92175101D01*
X142431674Y-92186535D01*
X142386339Y-92191000D01*
X141549661Y-92191000D01*
X141504326Y-92186535D01*
X141466633Y-92175101D01*
X141431897Y-92156534D01*
X141401452Y-92131548D01*
X141376466Y-92101103D01*
X141357899Y-92066367D01*
X141346465Y-92028674D01*
X141342000Y-91983339D01*
X141342000Y-90896661D01*
X141346465Y-90851326D01*
X141357899Y-90813633D01*
X141376466Y-90778897D01*
X141401452Y-90748452D01*
X141431897Y-90723466D01*
X141466633Y-90704899D01*
X141504326Y-90693465D01*
X141549661Y-90689000D01*
X142386339Y-90689000D01*
X142431674Y-90693465D01*
G37*
G36*
X181142920Y-92188840D02*
G01*
X179440920Y-92188840D01*
X179440920Y-90686840D01*
X181142920Y-90686840D01*
X181142920Y-92188840D01*
G37*
G36*
X161878674Y-90818465D02*
G01*
X161916367Y-90829899D01*
X161951103Y-90848466D01*
X161981548Y-90873452D01*
X162006534Y-90903897D01*
X162025101Y-90938633D01*
X162036535Y-90976326D01*
X162041000Y-91021661D01*
X162041000Y-91858339D01*
X162036535Y-91903674D01*
X162025101Y-91941367D01*
X162006534Y-91976103D01*
X161981548Y-92006548D01*
X161951103Y-92031534D01*
X161916367Y-92050101D01*
X161878674Y-92061535D01*
X161833339Y-92066000D01*
X160746661Y-92066000D01*
X160701326Y-92061535D01*
X160663633Y-92050101D01*
X160628897Y-92031534D01*
X160598452Y-92006548D01*
X160573466Y-91976103D01*
X160554899Y-91941367D01*
X160543465Y-91903674D01*
X160539000Y-91858339D01*
X160539000Y-91021661D01*
X160543465Y-90976326D01*
X160554899Y-90938633D01*
X160573466Y-90903897D01*
X160598452Y-90873452D01*
X160628897Y-90848466D01*
X160663633Y-90829899D01*
X160701326Y-90818465D01*
X160746661Y-90814000D01*
X161833339Y-90814000D01*
X161878674Y-90818465D01*
G37*
G36*
X175213674Y-90818465D02*
G01*
X175251367Y-90829899D01*
X175286103Y-90848466D01*
X175316548Y-90873452D01*
X175341534Y-90903897D01*
X175360101Y-90938633D01*
X175371535Y-90976326D01*
X175376000Y-91021661D01*
X175376000Y-91858339D01*
X175371535Y-91903674D01*
X175360101Y-91941367D01*
X175341534Y-91976103D01*
X175316548Y-92006548D01*
X175286103Y-92031534D01*
X175251367Y-92050101D01*
X175213674Y-92061535D01*
X175168339Y-92066000D01*
X174081661Y-92066000D01*
X174036326Y-92061535D01*
X173998633Y-92050101D01*
X173963897Y-92031534D01*
X173933452Y-92006548D01*
X173908466Y-91976103D01*
X173889899Y-91941367D01*
X173878465Y-91903674D01*
X173874000Y-91858339D01*
X173874000Y-91021661D01*
X173878465Y-90976326D01*
X173889899Y-90938633D01*
X173908466Y-90903897D01*
X173933452Y-90873452D01*
X173963897Y-90848466D01*
X173998633Y-90829899D01*
X174036326Y-90818465D01*
X174081661Y-90814000D01*
X175168339Y-90814000D01*
X175213674Y-90818465D01*
G37*
G36*
X173084499Y-90637245D02*
G01*
X173121995Y-90648620D01*
X173156554Y-90667092D01*
X173186847Y-90691953D01*
X173211708Y-90722246D01*
X173230180Y-90756805D01*
X173241555Y-90794301D01*
X173246000Y-90839438D01*
X173246000Y-91578162D01*
X173241555Y-91623299D01*
X173230180Y-91660795D01*
X173211708Y-91695354D01*
X173186847Y-91725647D01*
X173156554Y-91750508D01*
X173121995Y-91768980D01*
X173084499Y-91780355D01*
X173039362Y-91784800D01*
X172400638Y-91784800D01*
X172355501Y-91780355D01*
X172318005Y-91768980D01*
X172283446Y-91750508D01*
X172253153Y-91725647D01*
X172228292Y-91695354D01*
X172209820Y-91660795D01*
X172198445Y-91623299D01*
X172194000Y-91578162D01*
X172194000Y-90839438D01*
X172198445Y-90794301D01*
X172209820Y-90756805D01*
X172228292Y-90722246D01*
X172253153Y-90691953D01*
X172283446Y-90667092D01*
X172318005Y-90648620D01*
X172355501Y-90637245D01*
X172400638Y-90632800D01*
X173039362Y-90632800D01*
X173084499Y-90637245D01*
G37*
G36*
X185589063Y-86434983D02*
G01*
X185682729Y-86597218D01*
X185972310Y-87098787D01*
X186347585Y-87748782D01*
X186622310Y-88224620D01*
X186935809Y-88767616D01*
X186892507Y-88792617D01*
X186872589Y-88806890D01*
X186855839Y-88824775D01*
X186842899Y-88845583D01*
X186834267Y-88868517D01*
X186830276Y-88892694D01*
X186831077Y-88917185D01*
X186836642Y-88941049D01*
X186846755Y-88963368D01*
X186939506Y-89124018D01*
X186953779Y-89143936D01*
X186971663Y-89160687D01*
X186992472Y-89173627D01*
X187015406Y-89182259D01*
X187039582Y-89186250D01*
X187064073Y-89185449D01*
X187087937Y-89179884D01*
X187110257Y-89169771D01*
X187835315Y-88751159D01*
X187852245Y-88750605D01*
X187876109Y-88745041D01*
X187898430Y-88734927D01*
X189002614Y-88097426D01*
X189326553Y-88658504D01*
X189340826Y-88678422D01*
X189358711Y-88695172D01*
X189379519Y-88708112D01*
X189402453Y-88716744D01*
X189426630Y-88720735D01*
X189451121Y-88719934D01*
X189474985Y-88714369D01*
X189486393Y-88709861D01*
X189562880Y-88675205D01*
X189562882Y-88675205D01*
X189562883Y-88675204D01*
X189702156Y-88642730D01*
X189702160Y-88642729D01*
X189845090Y-88638050D01*
X189986187Y-88661345D01*
X190120028Y-88711719D01*
X190241479Y-88787242D01*
X190345852Y-88884998D01*
X190345853Y-88884999D01*
X190429153Y-89001244D01*
X190488174Y-89131506D01*
X190506213Y-89208872D01*
X190520649Y-89270783D01*
X190525328Y-89413714D01*
X190502033Y-89554810D01*
X190451657Y-89688654D01*
X190376139Y-89810098D01*
X190278382Y-89914472D01*
X190278379Y-89914475D01*
X190212210Y-89961891D01*
X190191256Y-89976907D01*
X190072686Y-90045363D01*
X189826389Y-90187563D01*
X189728764Y-90231797D01*
X189596345Y-90262672D01*
X189589487Y-90264271D01*
X189446557Y-90268950D01*
X189305460Y-90245655D01*
X189171616Y-90195279D01*
X189050175Y-90119763D01*
X188945794Y-90022000D01*
X188902732Y-89961907D01*
X188886576Y-89943484D01*
X188867135Y-89928567D01*
X188845158Y-89917729D01*
X188821489Y-89911387D01*
X188797038Y-89909784D01*
X188772743Y-89912982D01*
X188749539Y-89920859D01*
X188738627Y-89926464D01*
X188624430Y-89992396D01*
X188604512Y-90006669D01*
X188587761Y-90024554D01*
X188574822Y-90045363D01*
X188566190Y-90068296D01*
X188562199Y-90092473D01*
X188563000Y-90116964D01*
X188568565Y-90140828D01*
X188578677Y-90163147D01*
X188744928Y-90451101D01*
X188744928Y-90451102D01*
X187988385Y-90887892D01*
X187982060Y-90888099D01*
X187958196Y-90893663D01*
X187935875Y-90903777D01*
X186571883Y-91691278D01*
X185918193Y-90559053D01*
X185903920Y-90539134D01*
X185895388Y-90530319D01*
X185880503Y-90516378D01*
X185811546Y-90420148D01*
X185762685Y-90312310D01*
X185758054Y-90292449D01*
X185750178Y-90269245D01*
X185744572Y-90258333D01*
X185495502Y-89826931D01*
X185496512Y-89820812D01*
X185495710Y-89796321D01*
X185490146Y-89772457D01*
X185480033Y-89750139D01*
X185134840Y-89152247D01*
X184780033Y-88537704D01*
X184489755Y-88034928D01*
X184130033Y-87411871D01*
X183867532Y-86957206D01*
X185384809Y-86081206D01*
X185589063Y-86434983D01*
G37*
G36*
X150661000Y-91606000D02*
G01*
X149059000Y-91606000D01*
X149059000Y-90004000D01*
X150661000Y-90004000D01*
X150661000Y-91606000D01*
G37*
G36*
X146495674Y-89423465D02*
G01*
X146533367Y-89434899D01*
X146568103Y-89453466D01*
X146598548Y-89478452D01*
X146623534Y-89508897D01*
X146642101Y-89543633D01*
X146653535Y-89581326D01*
X146658000Y-89626661D01*
X146658000Y-90713339D01*
X146653535Y-90758674D01*
X146642101Y-90796367D01*
X146623534Y-90831103D01*
X146598548Y-90861548D01*
X146568103Y-90886534D01*
X146533367Y-90905101D01*
X146495674Y-90916535D01*
X146450339Y-90921000D01*
X145613661Y-90921000D01*
X145568326Y-90916535D01*
X145530633Y-90905101D01*
X145495897Y-90886534D01*
X145465452Y-90861548D01*
X145440466Y-90831103D01*
X145421899Y-90796367D01*
X145410465Y-90758674D01*
X145406000Y-90713339D01*
X145406000Y-89626661D01*
X145410465Y-89581326D01*
X145421899Y-89543633D01*
X145440466Y-89508897D01*
X145465452Y-89478452D01*
X145495897Y-89453466D01*
X145530633Y-89434899D01*
X145568326Y-89423465D01*
X145613661Y-89419000D01*
X146450339Y-89419000D01*
X146495674Y-89423465D01*
G37*
G36*
X148545674Y-89423465D02*
G01*
X148583367Y-89434899D01*
X148618103Y-89453466D01*
X148648548Y-89478452D01*
X148673534Y-89508897D01*
X148692101Y-89543633D01*
X148703535Y-89581326D01*
X148708000Y-89626661D01*
X148708000Y-90713339D01*
X148703535Y-90758674D01*
X148692101Y-90796367D01*
X148673534Y-90831103D01*
X148648548Y-90861548D01*
X148618103Y-90886534D01*
X148583367Y-90905101D01*
X148545674Y-90916535D01*
X148500339Y-90921000D01*
X147663661Y-90921000D01*
X147618326Y-90916535D01*
X147580633Y-90905101D01*
X147545897Y-90886534D01*
X147515452Y-90861548D01*
X147490466Y-90831103D01*
X147471899Y-90796367D01*
X147460465Y-90758674D01*
X147456000Y-90713339D01*
X147456000Y-89626661D01*
X147460465Y-89581326D01*
X147471899Y-89543633D01*
X147490466Y-89508897D01*
X147515452Y-89478452D01*
X147545897Y-89453466D01*
X147580633Y-89434899D01*
X147618326Y-89423465D01*
X147663661Y-89419000D01*
X148500339Y-89419000D01*
X148545674Y-89423465D01*
G37*
G36*
X171252112Y-88942021D02*
G01*
X171302461Y-88957294D01*
X171348857Y-88982094D01*
X171389528Y-89015472D01*
X171422906Y-89056143D01*
X171447706Y-89102539D01*
X171462979Y-89152888D01*
X171468740Y-89211384D01*
X171468740Y-90463136D01*
X171462979Y-90521632D01*
X171447706Y-90571981D01*
X171422906Y-90618377D01*
X171389528Y-90659048D01*
X171348857Y-90692426D01*
X171302461Y-90717226D01*
X171252112Y-90732499D01*
X171193616Y-90738260D01*
X168241864Y-90738260D01*
X168183368Y-90732499D01*
X168133019Y-90717226D01*
X168086623Y-90692426D01*
X168045952Y-90659048D01*
X168012574Y-90618377D01*
X167987774Y-90571981D01*
X167972501Y-90521632D01*
X167966740Y-90463136D01*
X167966740Y-89211384D01*
X167972501Y-89152888D01*
X167987774Y-89102539D01*
X168012574Y-89056143D01*
X168045952Y-89015472D01*
X168086623Y-88982094D01*
X168133019Y-88957294D01*
X168183368Y-88942021D01*
X168241864Y-88936260D01*
X171193616Y-88936260D01*
X171252112Y-88942021D01*
G37*
G36*
X178942920Y-90368840D02*
G01*
X177240920Y-90368840D01*
X177240920Y-89066840D01*
X178942920Y-89066840D01*
X178942920Y-90368840D01*
G37*
G36*
X181142920Y-90368840D02*
G01*
X179440920Y-90368840D01*
X179440920Y-89066840D01*
X181142920Y-89066840D01*
X181142920Y-90368840D01*
G37*
G36*
X173084499Y-88887245D02*
G01*
X173121995Y-88898620D01*
X173156554Y-88917092D01*
X173186847Y-88941953D01*
X173211708Y-88972246D01*
X173230180Y-89006805D01*
X173241555Y-89044301D01*
X173246000Y-89089438D01*
X173246000Y-89828162D01*
X173241555Y-89873299D01*
X173230180Y-89910795D01*
X173211708Y-89945354D01*
X173186847Y-89975647D01*
X173156554Y-90000508D01*
X173121995Y-90018980D01*
X173084499Y-90030355D01*
X173039362Y-90034800D01*
X172400638Y-90034800D01*
X172355501Y-90030355D01*
X172318005Y-90018980D01*
X172283446Y-90000508D01*
X172253153Y-89975647D01*
X172228292Y-89945354D01*
X172209820Y-89910795D01*
X172198445Y-89873299D01*
X172194000Y-89828162D01*
X172194000Y-89089438D01*
X172198445Y-89044301D01*
X172209820Y-89006805D01*
X172228292Y-88972246D01*
X172253153Y-88941953D01*
X172283446Y-88917092D01*
X172318005Y-88898620D01*
X172355501Y-88887245D01*
X172400638Y-88882800D01*
X173039362Y-88882800D01*
X173084499Y-88887245D01*
G37*
G36*
X175213674Y-88768465D02*
G01*
X175251367Y-88779899D01*
X175286103Y-88798466D01*
X175316548Y-88823452D01*
X175341534Y-88853897D01*
X175360101Y-88888633D01*
X175371535Y-88926326D01*
X175376000Y-88971661D01*
X175376000Y-89808339D01*
X175371535Y-89853674D01*
X175360101Y-89891367D01*
X175341534Y-89926103D01*
X175316548Y-89956548D01*
X175286103Y-89981534D01*
X175251367Y-90000101D01*
X175213674Y-90011535D01*
X175168339Y-90016000D01*
X174081661Y-90016000D01*
X174036326Y-90011535D01*
X173998633Y-90000101D01*
X173963897Y-89981534D01*
X173933452Y-89956548D01*
X173908466Y-89926103D01*
X173889899Y-89891367D01*
X173878465Y-89853674D01*
X173874000Y-89808339D01*
X173874000Y-88971661D01*
X173878465Y-88926326D01*
X173889899Y-88888633D01*
X173908466Y-88853897D01*
X173933452Y-88823452D01*
X173963897Y-88798466D01*
X173998633Y-88779899D01*
X174036326Y-88768465D01*
X174081661Y-88764000D01*
X175168339Y-88764000D01*
X175213674Y-88768465D01*
G37*
G36*
X161878674Y-88768465D02*
G01*
X161916367Y-88779899D01*
X161951103Y-88798466D01*
X161981548Y-88823452D01*
X162006534Y-88853897D01*
X162025101Y-88888633D01*
X162036535Y-88926326D01*
X162041000Y-88971661D01*
X162041000Y-89808339D01*
X162036535Y-89853674D01*
X162025101Y-89891367D01*
X162006534Y-89926103D01*
X161981548Y-89956548D01*
X161951103Y-89981534D01*
X161916367Y-90000101D01*
X161878674Y-90011535D01*
X161833339Y-90016000D01*
X160746661Y-90016000D01*
X160701326Y-90011535D01*
X160663633Y-90000101D01*
X160628897Y-89981534D01*
X160598452Y-89956548D01*
X160573466Y-89926103D01*
X160554899Y-89891367D01*
X160543465Y-89853674D01*
X160539000Y-89808339D01*
X160539000Y-88971661D01*
X160543465Y-88926326D01*
X160554899Y-88888633D01*
X160573466Y-88853897D01*
X160598452Y-88823452D01*
X160628897Y-88798466D01*
X160663633Y-88779899D01*
X160701326Y-88768465D01*
X160746661Y-88764000D01*
X161833339Y-88764000D01*
X161878674Y-88768465D01*
G37*
G36*
X139369012Y-88130927D02*
G01*
X139518312Y-88160624D01*
X139682284Y-88228544D01*
X139829854Y-88327147D01*
X139955353Y-88452646D01*
X140053956Y-88600216D01*
X140121876Y-88764188D01*
X140149451Y-88902820D01*
X140156103Y-88936260D01*
X140156500Y-88938259D01*
X140156500Y-89115741D01*
X140121876Y-89289812D01*
X140053956Y-89453784D01*
X139955353Y-89601354D01*
X139829854Y-89726853D01*
X139682284Y-89825456D01*
X139518312Y-89893376D01*
X139380142Y-89920859D01*
X139344242Y-89928000D01*
X139166758Y-89928000D01*
X139130858Y-89920859D01*
X138992688Y-89893376D01*
X138828716Y-89825456D01*
X138681146Y-89726853D01*
X138555647Y-89601354D01*
X138457044Y-89453784D01*
X138389124Y-89289812D01*
X138354500Y-89115741D01*
X138354500Y-88938259D01*
X138354898Y-88936260D01*
X138361549Y-88902820D01*
X138389124Y-88764188D01*
X138457044Y-88600216D01*
X138555647Y-88452646D01*
X138681146Y-88327147D01*
X138828716Y-88228544D01*
X138992688Y-88160624D01*
X139141988Y-88130927D01*
X139166758Y-88126000D01*
X139344242Y-88126000D01*
X139369012Y-88130927D01*
G37*
G36*
X137616500Y-89928000D02*
G01*
X135814500Y-89928000D01*
X135814500Y-88126000D01*
X137616500Y-88126000D01*
X137616500Y-89928000D01*
G37*
G36*
X189585589Y-86207170D02*
G01*
X190119350Y-87131671D01*
X190119350Y-87131672D01*
X187865952Y-88432672D01*
X187284640Y-87425810D01*
X187099952Y-87105921D01*
X187099952Y-87105920D01*
X189353350Y-85804920D01*
X189585589Y-86207170D01*
G37*
G36*
X154258674Y-86518465D02*
G01*
X154296367Y-86529899D01*
X154331103Y-86548466D01*
X154361548Y-86573452D01*
X154386534Y-86603897D01*
X154405101Y-86638633D01*
X154416535Y-86676326D01*
X154421000Y-86721661D01*
X154421000Y-87558339D01*
X154416535Y-87603674D01*
X154405101Y-87641367D01*
X154386534Y-87676103D01*
X154361548Y-87706548D01*
X154331103Y-87731534D01*
X154296367Y-87750101D01*
X154258674Y-87761535D01*
X154213339Y-87766000D01*
X153126661Y-87766000D01*
X153081326Y-87761535D01*
X153043633Y-87750101D01*
X153008897Y-87731534D01*
X152978452Y-87706548D01*
X152953466Y-87676103D01*
X152934899Y-87641367D01*
X152923465Y-87603674D01*
X152919000Y-87558339D01*
X152919000Y-86721661D01*
X152923465Y-86676326D01*
X152934899Y-86638633D01*
X152953466Y-86603897D01*
X152978452Y-86573452D01*
X153008897Y-86548466D01*
X153043633Y-86529899D01*
X153081326Y-86518465D01*
X153126661Y-86514000D01*
X154213339Y-86514000D01*
X154258674Y-86518465D01*
G37*
G36*
X151718674Y-86518465D02*
G01*
X151756367Y-86529899D01*
X151791103Y-86548466D01*
X151821548Y-86573452D01*
X151846534Y-86603897D01*
X151865101Y-86638633D01*
X151876535Y-86676326D01*
X151881000Y-86721661D01*
X151881000Y-87558339D01*
X151876535Y-87603674D01*
X151865101Y-87641367D01*
X151846534Y-87676103D01*
X151821548Y-87706548D01*
X151791103Y-87731534D01*
X151756367Y-87750101D01*
X151718674Y-87761535D01*
X151673339Y-87766000D01*
X150586661Y-87766000D01*
X150541326Y-87761535D01*
X150503633Y-87750101D01*
X150468897Y-87731534D01*
X150438452Y-87706548D01*
X150413466Y-87676103D01*
X150394899Y-87641367D01*
X150383465Y-87603674D01*
X150379000Y-87558339D01*
X150379000Y-86721661D01*
X150383465Y-86676326D01*
X150394899Y-86638633D01*
X150413466Y-86603897D01*
X150438452Y-86573452D01*
X150468897Y-86548466D01*
X150503633Y-86529899D01*
X150541326Y-86518465D01*
X150586661Y-86514000D01*
X151673339Y-86514000D01*
X151718674Y-86518465D01*
G37*
G36*
X156798674Y-86518465D02*
G01*
X156836367Y-86529899D01*
X156871103Y-86548466D01*
X156901548Y-86573452D01*
X156926534Y-86603897D01*
X156945101Y-86638633D01*
X156956535Y-86676326D01*
X156961000Y-86721661D01*
X156961000Y-87558339D01*
X156956535Y-87603674D01*
X156945101Y-87641367D01*
X156926534Y-87676103D01*
X156901548Y-87706548D01*
X156871103Y-87731534D01*
X156836367Y-87750101D01*
X156798674Y-87761535D01*
X156753339Y-87766000D01*
X155666661Y-87766000D01*
X155621326Y-87761535D01*
X155583633Y-87750101D01*
X155548897Y-87731534D01*
X155518452Y-87706548D01*
X155493466Y-87676103D01*
X155474899Y-87641367D01*
X155463465Y-87603674D01*
X155459000Y-87558339D01*
X155459000Y-86721661D01*
X155463465Y-86676326D01*
X155474899Y-86638633D01*
X155493466Y-86603897D01*
X155518452Y-86573452D01*
X155548897Y-86548466D01*
X155583633Y-86529899D01*
X155621326Y-86518465D01*
X155666661Y-86514000D01*
X156753339Y-86514000D01*
X156798674Y-86518465D01*
G37*
G36*
X173465394Y-85933505D02*
G01*
X173503087Y-85944939D01*
X173537823Y-85963506D01*
X173568268Y-85988492D01*
X173593254Y-86018937D01*
X173611821Y-86053673D01*
X173623255Y-86091366D01*
X173627720Y-86136701D01*
X173627720Y-87223379D01*
X173623255Y-87268714D01*
X173611821Y-87306407D01*
X173593254Y-87341143D01*
X173568268Y-87371588D01*
X173537823Y-87396574D01*
X173503087Y-87415141D01*
X173465394Y-87426575D01*
X173420059Y-87431040D01*
X172583381Y-87431040D01*
X172538046Y-87426575D01*
X172500353Y-87415141D01*
X172465617Y-87396574D01*
X172435172Y-87371588D01*
X172410186Y-87341143D01*
X172391619Y-87306407D01*
X172380185Y-87268714D01*
X172375720Y-87223379D01*
X172375720Y-86136701D01*
X172380185Y-86091366D01*
X172391619Y-86053673D01*
X172410186Y-86018937D01*
X172435172Y-85988492D01*
X172465617Y-85963506D01*
X172500353Y-85944939D01*
X172538046Y-85933505D01*
X172583381Y-85929040D01*
X173420059Y-85929040D01*
X173465394Y-85933505D01*
G37*
G36*
X175515394Y-85933505D02*
G01*
X175553087Y-85944939D01*
X175587823Y-85963506D01*
X175618268Y-85988492D01*
X175643254Y-86018937D01*
X175661821Y-86053673D01*
X175673255Y-86091366D01*
X175677720Y-86136701D01*
X175677720Y-87223379D01*
X175673255Y-87268714D01*
X175661821Y-87306407D01*
X175643254Y-87341143D01*
X175618268Y-87371588D01*
X175587823Y-87396574D01*
X175553087Y-87415141D01*
X175515394Y-87426575D01*
X175470059Y-87431040D01*
X174633381Y-87431040D01*
X174588046Y-87426575D01*
X174550353Y-87415141D01*
X174515617Y-87396574D01*
X174485172Y-87371588D01*
X174460186Y-87341143D01*
X174441619Y-87306407D01*
X174430185Y-87268714D01*
X174425720Y-87223379D01*
X174425720Y-86136701D01*
X174430185Y-86091366D01*
X174441619Y-86053673D01*
X174460186Y-86018937D01*
X174485172Y-85988492D01*
X174515617Y-85963506D01*
X174550353Y-85944939D01*
X174588046Y-85933505D01*
X174633381Y-85929040D01*
X175470059Y-85929040D01*
X175515394Y-85933505D01*
G37*
G36*
X149443674Y-85613465D02*
G01*
X149481367Y-85624899D01*
X149516103Y-85643466D01*
X149546548Y-85668452D01*
X149571534Y-85698897D01*
X149590101Y-85733633D01*
X149601535Y-85771326D01*
X149606000Y-85816661D01*
X149606000Y-86903339D01*
X149601535Y-86948674D01*
X149590101Y-86986367D01*
X149571534Y-87021103D01*
X149546548Y-87051548D01*
X149516103Y-87076534D01*
X149481367Y-87095101D01*
X149443674Y-87106535D01*
X149398339Y-87111000D01*
X148561661Y-87111000D01*
X148516326Y-87106535D01*
X148478633Y-87095101D01*
X148443897Y-87076534D01*
X148413452Y-87051548D01*
X148388466Y-87021103D01*
X148369899Y-86986367D01*
X148358465Y-86948674D01*
X148354000Y-86903339D01*
X148354000Y-85816661D01*
X148358465Y-85771326D01*
X148369899Y-85733633D01*
X148388466Y-85698897D01*
X148413452Y-85668452D01*
X148443897Y-85643466D01*
X148478633Y-85624899D01*
X148516326Y-85613465D01*
X148561661Y-85609000D01*
X149398339Y-85609000D01*
X149443674Y-85613465D01*
G37*
G36*
X147393674Y-85613465D02*
G01*
X147431367Y-85624899D01*
X147466103Y-85643466D01*
X147496548Y-85668452D01*
X147521534Y-85698897D01*
X147540101Y-85733633D01*
X147551535Y-85771326D01*
X147556000Y-85816661D01*
X147556000Y-86903339D01*
X147551535Y-86948674D01*
X147540101Y-86986367D01*
X147521534Y-87021103D01*
X147496548Y-87051548D01*
X147466103Y-87076534D01*
X147431367Y-87095101D01*
X147393674Y-87106535D01*
X147348339Y-87111000D01*
X146511661Y-87111000D01*
X146466326Y-87106535D01*
X146428633Y-87095101D01*
X146393897Y-87076534D01*
X146363452Y-87051548D01*
X146338466Y-87021103D01*
X146319899Y-86986367D01*
X146308465Y-86948674D01*
X146304000Y-86903339D01*
X146304000Y-85816661D01*
X146308465Y-85771326D01*
X146319899Y-85733633D01*
X146338466Y-85698897D01*
X146363452Y-85668452D01*
X146393897Y-85643466D01*
X146428633Y-85624899D01*
X146466326Y-85613465D01*
X146511661Y-85609000D01*
X147348339Y-85609000D01*
X147393674Y-85613465D01*
G37*
G36*
X171252112Y-85132021D02*
G01*
X171302461Y-85147294D01*
X171348857Y-85172094D01*
X171389528Y-85205472D01*
X171422906Y-85246143D01*
X171447706Y-85292539D01*
X171462979Y-85342888D01*
X171468740Y-85401384D01*
X171468740Y-86653136D01*
X171462979Y-86711632D01*
X171447706Y-86761981D01*
X171422906Y-86808377D01*
X171389528Y-86849048D01*
X171348857Y-86882426D01*
X171302461Y-86907226D01*
X171252112Y-86922499D01*
X171193616Y-86928260D01*
X168241864Y-86928260D01*
X168183368Y-86922499D01*
X168133019Y-86907226D01*
X168086623Y-86882426D01*
X168045952Y-86849048D01*
X168012574Y-86808377D01*
X167987774Y-86761981D01*
X167972501Y-86711632D01*
X167966740Y-86653136D01*
X167966740Y-85401384D01*
X167972501Y-85342888D01*
X167987774Y-85292539D01*
X168012574Y-85246143D01*
X168045952Y-85205472D01*
X168086623Y-85172094D01*
X168133019Y-85147294D01*
X168183368Y-85132021D01*
X168241864Y-85126260D01*
X171193616Y-85126260D01*
X171252112Y-85132021D01*
G37*
G36*
X141687674Y-85359465D02*
G01*
X141725367Y-85370899D01*
X141760103Y-85389466D01*
X141790548Y-85414452D01*
X141815534Y-85444897D01*
X141834101Y-85479633D01*
X141845535Y-85517326D01*
X141850000Y-85562661D01*
X141850000Y-86649339D01*
X141845535Y-86694674D01*
X141834101Y-86732367D01*
X141815534Y-86767103D01*
X141790548Y-86797548D01*
X141760103Y-86822534D01*
X141725367Y-86841101D01*
X141687674Y-86852535D01*
X141642339Y-86857000D01*
X140805661Y-86857000D01*
X140760326Y-86852535D01*
X140722633Y-86841101D01*
X140687897Y-86822534D01*
X140657452Y-86797548D01*
X140632466Y-86767103D01*
X140613899Y-86732367D01*
X140602465Y-86694674D01*
X140598000Y-86649339D01*
X140598000Y-85562661D01*
X140602465Y-85517326D01*
X140613899Y-85479633D01*
X140632466Y-85444897D01*
X140657452Y-85414452D01*
X140687897Y-85389466D01*
X140722633Y-85370899D01*
X140760326Y-85359465D01*
X140805661Y-85355000D01*
X141642339Y-85355000D01*
X141687674Y-85359465D01*
G37*
G36*
X143737674Y-85359465D02*
G01*
X143775367Y-85370899D01*
X143810103Y-85389466D01*
X143840548Y-85414452D01*
X143865534Y-85444897D01*
X143884101Y-85479633D01*
X143895535Y-85517326D01*
X143900000Y-85562661D01*
X143900000Y-86649339D01*
X143895535Y-86694674D01*
X143884101Y-86732367D01*
X143865534Y-86767103D01*
X143840548Y-86797548D01*
X143810103Y-86822534D01*
X143775367Y-86841101D01*
X143737674Y-86852535D01*
X143692339Y-86857000D01*
X142855661Y-86857000D01*
X142810326Y-86852535D01*
X142772633Y-86841101D01*
X142737897Y-86822534D01*
X142707452Y-86797548D01*
X142682466Y-86767103D01*
X142663899Y-86732367D01*
X142652465Y-86694674D01*
X142648000Y-86649339D01*
X142648000Y-85562661D01*
X142652465Y-85517326D01*
X142663899Y-85479633D01*
X142682466Y-85444897D01*
X142707452Y-85414452D01*
X142737897Y-85389466D01*
X142772633Y-85370899D01*
X142810326Y-85359465D01*
X142855661Y-85355000D01*
X143692339Y-85355000D01*
X143737674Y-85359465D01*
G37*
G36*
X139909674Y-85359465D02*
G01*
X139947367Y-85370899D01*
X139982103Y-85389466D01*
X140012548Y-85414452D01*
X140037534Y-85444897D01*
X140056101Y-85479633D01*
X140067535Y-85517326D01*
X140072000Y-85562661D01*
X140072000Y-86649339D01*
X140067535Y-86694674D01*
X140056101Y-86732367D01*
X140037534Y-86767103D01*
X140012548Y-86797548D01*
X139982103Y-86822534D01*
X139947367Y-86841101D01*
X139909674Y-86852535D01*
X139864339Y-86857000D01*
X139027661Y-86857000D01*
X138982326Y-86852535D01*
X138944633Y-86841101D01*
X138909897Y-86822534D01*
X138879452Y-86797548D01*
X138854466Y-86767103D01*
X138835899Y-86732367D01*
X138824465Y-86694674D01*
X138820000Y-86649339D01*
X138820000Y-85562661D01*
X138824465Y-85517326D01*
X138835899Y-85479633D01*
X138854466Y-85444897D01*
X138879452Y-85414452D01*
X138909897Y-85389466D01*
X138944633Y-85370899D01*
X138982326Y-85359465D01*
X139027661Y-85355000D01*
X139864339Y-85355000D01*
X139909674Y-85359465D01*
G37*
G36*
X137859674Y-85359465D02*
G01*
X137897367Y-85370899D01*
X137932103Y-85389466D01*
X137962548Y-85414452D01*
X137987534Y-85444897D01*
X138006101Y-85479633D01*
X138017535Y-85517326D01*
X138022000Y-85562661D01*
X138022000Y-86649339D01*
X138017535Y-86694674D01*
X138006101Y-86732367D01*
X137987534Y-86767103D01*
X137962548Y-86797548D01*
X137932103Y-86822534D01*
X137897367Y-86841101D01*
X137859674Y-86852535D01*
X137814339Y-86857000D01*
X136977661Y-86857000D01*
X136932326Y-86852535D01*
X136894633Y-86841101D01*
X136859897Y-86822534D01*
X136829452Y-86797548D01*
X136804466Y-86767103D01*
X136785899Y-86732367D01*
X136774465Y-86694674D01*
X136770000Y-86649339D01*
X136770000Y-85562661D01*
X136774465Y-85517326D01*
X136785899Y-85479633D01*
X136804466Y-85444897D01*
X136829452Y-85414452D01*
X136859897Y-85389466D01*
X136894633Y-85370899D01*
X136932326Y-85359465D01*
X136977661Y-85355000D01*
X137814339Y-85355000D01*
X137859674Y-85359465D01*
G37*
G36*
X188667700Y-84617339D02*
G01*
X189159350Y-85468902D01*
X189159350Y-85468903D01*
X186905952Y-86769903D01*
X186457829Y-85993730D01*
X186139952Y-85443152D01*
X186139952Y-85443151D01*
X188393350Y-84142151D01*
X188667700Y-84617339D01*
G37*
G36*
X186486187Y-82599168D02*
G01*
X186620028Y-82649542D01*
X186741479Y-82725065D01*
X186845852Y-82822821D01*
X186845853Y-82822822D01*
X186929153Y-82939067D01*
X186988174Y-83069329D01*
X187006685Y-83148718D01*
X187020649Y-83208606D01*
X187025328Y-83351537D01*
X187002033Y-83492633D01*
X186951657Y-83626477D01*
X186876139Y-83747921D01*
X186778379Y-83852298D01*
X186710117Y-83901215D01*
X186691694Y-83917371D01*
X186676777Y-83936812D01*
X186665939Y-83958789D01*
X186659597Y-83982458D01*
X186657995Y-84006910D01*
X186661194Y-84031204D01*
X186674674Y-84065316D01*
X186988614Y-84609076D01*
X186988614Y-84609077D01*
X185087687Y-85706577D01*
X185067768Y-85720850D01*
X185051018Y-85738734D01*
X185038078Y-85759543D01*
X185029446Y-85782477D01*
X185025455Y-85806654D01*
X185026256Y-85831145D01*
X185031821Y-85855009D01*
X185041934Y-85877328D01*
X185066935Y-85920631D01*
X184725359Y-86117840D01*
X184705440Y-86132113D01*
X184696625Y-86140644D01*
X184659135Y-86180672D01*
X184587017Y-86232351D01*
X184189479Y-86461870D01*
X184108663Y-86498487D01*
X184070844Y-86507305D01*
X184059462Y-86509959D01*
X184055254Y-86510940D01*
X184032051Y-86518816D01*
X184021145Y-86524418D01*
X183679562Y-86721631D01*
X183679561Y-86721631D01*
X183411885Y-86258002D01*
X183405238Y-86247692D01*
X183391545Y-86228584D01*
X183381843Y-86207170D01*
X183376238Y-86196259D01*
X182628561Y-84901245D01*
X184009873Y-84103744D01*
X184029792Y-84089471D01*
X184046542Y-84071587D01*
X184049886Y-84066209D01*
X184806428Y-83629419D01*
X184987679Y-83943355D01*
X185001952Y-83963274D01*
X185019836Y-83980024D01*
X185040645Y-83992964D01*
X185063579Y-84001596D01*
X185087756Y-84005587D01*
X185112247Y-84004786D01*
X185136111Y-83999221D01*
X185158431Y-83989108D01*
X185274334Y-83922191D01*
X185294252Y-83907918D01*
X185311003Y-83890033D01*
X185323942Y-83869224D01*
X185332574Y-83846291D01*
X185336565Y-83822114D01*
X185335764Y-83797623D01*
X185325692Y-83762354D01*
X185303473Y-83713317D01*
X185271000Y-83574044D01*
X185270999Y-83574040D01*
X185266320Y-83431110D01*
X185289615Y-83290013D01*
X185339991Y-83156169D01*
X185415507Y-83034728D01*
X185513270Y-82930346D01*
X185600387Y-82867919D01*
X185965260Y-82657259D01*
X186062880Y-82613028D01*
X186062882Y-82613028D01*
X186062883Y-82613027D01*
X186202156Y-82580553D01*
X186202160Y-82580552D01*
X186345090Y-82575873D01*
X186486187Y-82599168D01*
G37*
G36*
X161508674Y-85105465D02*
G01*
X161546367Y-85116899D01*
X161581103Y-85135466D01*
X161611548Y-85160452D01*
X161636534Y-85190897D01*
X161655101Y-85225633D01*
X161666535Y-85263326D01*
X161671000Y-85308661D01*
X161671000Y-86395339D01*
X161666535Y-86440674D01*
X161655101Y-86478367D01*
X161636534Y-86513103D01*
X161611548Y-86543548D01*
X161581103Y-86568534D01*
X161546367Y-86587101D01*
X161508674Y-86598535D01*
X161463339Y-86603000D01*
X160626661Y-86603000D01*
X160581326Y-86598535D01*
X160543633Y-86587101D01*
X160508897Y-86568534D01*
X160478452Y-86543548D01*
X160453466Y-86513103D01*
X160434899Y-86478367D01*
X160423465Y-86440674D01*
X160419000Y-86395339D01*
X160419000Y-85308661D01*
X160423465Y-85263326D01*
X160434899Y-85225633D01*
X160453466Y-85190897D01*
X160478452Y-85160452D01*
X160508897Y-85135466D01*
X160543633Y-85116899D01*
X160581326Y-85105465D01*
X160626661Y-85101000D01*
X161463339Y-85101000D01*
X161508674Y-85105465D01*
G37*
G36*
X159458674Y-85105465D02*
G01*
X159496367Y-85116899D01*
X159531103Y-85135466D01*
X159561548Y-85160452D01*
X159586534Y-85190897D01*
X159605101Y-85225633D01*
X159616535Y-85263326D01*
X159621000Y-85308661D01*
X159621000Y-86395339D01*
X159616535Y-86440674D01*
X159605101Y-86478367D01*
X159586534Y-86513103D01*
X159561548Y-86543548D01*
X159531103Y-86568534D01*
X159496367Y-86587101D01*
X159458674Y-86598535D01*
X159413339Y-86603000D01*
X158576661Y-86603000D01*
X158531326Y-86598535D01*
X158493633Y-86587101D01*
X158458897Y-86568534D01*
X158428452Y-86543548D01*
X158403466Y-86513103D01*
X158384899Y-86478367D01*
X158373465Y-86440674D01*
X158369000Y-86395339D01*
X158369000Y-85308661D01*
X158373465Y-85263326D01*
X158384899Y-85225633D01*
X158403466Y-85190897D01*
X158428452Y-85160452D01*
X158458897Y-85135466D01*
X158493633Y-85116899D01*
X158531326Y-85105465D01*
X158576661Y-85101000D01*
X159413339Y-85101000D01*
X159458674Y-85105465D01*
G37*
G36*
X156798674Y-84468465D02*
G01*
X156836367Y-84479899D01*
X156871103Y-84498466D01*
X156901548Y-84523452D01*
X156926534Y-84553897D01*
X156945101Y-84588633D01*
X156956535Y-84626326D01*
X156961000Y-84671661D01*
X156961000Y-85508339D01*
X156956535Y-85553674D01*
X156945101Y-85591367D01*
X156926534Y-85626103D01*
X156901548Y-85656548D01*
X156871103Y-85681534D01*
X156836367Y-85700101D01*
X156798674Y-85711535D01*
X156753339Y-85716000D01*
X155666661Y-85716000D01*
X155621326Y-85711535D01*
X155583633Y-85700101D01*
X155548897Y-85681534D01*
X155518452Y-85656548D01*
X155493466Y-85626103D01*
X155474899Y-85591367D01*
X155463465Y-85553674D01*
X155459000Y-85508339D01*
X155459000Y-84671661D01*
X155463465Y-84626326D01*
X155474899Y-84588633D01*
X155493466Y-84553897D01*
X155518452Y-84523452D01*
X155548897Y-84498466D01*
X155583633Y-84479899D01*
X155621326Y-84468465D01*
X155666661Y-84464000D01*
X156753339Y-84464000D01*
X156798674Y-84468465D01*
G37*
G36*
X151718674Y-84468465D02*
G01*
X151756367Y-84479899D01*
X151791103Y-84498466D01*
X151821548Y-84523452D01*
X151846534Y-84553897D01*
X151865101Y-84588633D01*
X151876535Y-84626326D01*
X151881000Y-84671661D01*
X151881000Y-85508339D01*
X151876535Y-85553674D01*
X151865101Y-85591367D01*
X151846534Y-85626103D01*
X151821548Y-85656548D01*
X151791103Y-85681534D01*
X151756367Y-85700101D01*
X151718674Y-85711535D01*
X151673339Y-85716000D01*
X150586661Y-85716000D01*
X150541326Y-85711535D01*
X150503633Y-85700101D01*
X150468897Y-85681534D01*
X150438452Y-85656548D01*
X150413466Y-85626103D01*
X150394899Y-85591367D01*
X150383465Y-85553674D01*
X150379000Y-85508339D01*
X150379000Y-84671661D01*
X150383465Y-84626326D01*
X150394899Y-84588633D01*
X150413466Y-84553897D01*
X150438452Y-84523452D01*
X150468897Y-84498466D01*
X150503633Y-84479899D01*
X150541326Y-84468465D01*
X150586661Y-84464000D01*
X151673339Y-84464000D01*
X151718674Y-84468465D01*
G37*
G36*
X154258674Y-84468465D02*
G01*
X154296367Y-84479899D01*
X154331103Y-84498466D01*
X154361548Y-84523452D01*
X154386534Y-84553897D01*
X154405101Y-84588633D01*
X154416535Y-84626326D01*
X154421000Y-84671661D01*
X154421000Y-85508339D01*
X154416535Y-85553674D01*
X154405101Y-85591367D01*
X154386534Y-85626103D01*
X154361548Y-85656548D01*
X154331103Y-85681534D01*
X154296367Y-85700101D01*
X154258674Y-85711535D01*
X154213339Y-85716000D01*
X153126661Y-85716000D01*
X153081326Y-85711535D01*
X153043633Y-85700101D01*
X153008897Y-85681534D01*
X152978452Y-85656548D01*
X152953466Y-85626103D01*
X152934899Y-85591367D01*
X152923465Y-85553674D01*
X152919000Y-85508339D01*
X152919000Y-84671661D01*
X152923465Y-84626326D01*
X152934899Y-84588633D01*
X152953466Y-84553897D01*
X152978452Y-84523452D01*
X153008897Y-84498466D01*
X153043633Y-84479899D01*
X153081326Y-84468465D01*
X153126661Y-84464000D01*
X154213339Y-84464000D01*
X154258674Y-84468465D01*
G37*
G36*
X142449674Y-83327465D02*
G01*
X142487367Y-83338899D01*
X142522103Y-83357466D01*
X142552548Y-83382452D01*
X142577534Y-83412897D01*
X142596101Y-83447633D01*
X142607535Y-83485326D01*
X142612000Y-83530661D01*
X142612000Y-84617339D01*
X142607535Y-84662674D01*
X142596101Y-84700367D01*
X142577534Y-84735103D01*
X142552548Y-84765548D01*
X142522103Y-84790534D01*
X142487367Y-84809101D01*
X142449674Y-84820535D01*
X142404339Y-84825000D01*
X141567661Y-84825000D01*
X141522326Y-84820535D01*
X141484633Y-84809101D01*
X141449897Y-84790534D01*
X141419452Y-84765548D01*
X141394466Y-84735103D01*
X141375899Y-84700367D01*
X141364465Y-84662674D01*
X141360000Y-84617339D01*
X141360000Y-83530661D01*
X141364465Y-83485326D01*
X141375899Y-83447633D01*
X141394466Y-83412897D01*
X141419452Y-83382452D01*
X141449897Y-83357466D01*
X141484633Y-83338899D01*
X141522326Y-83327465D01*
X141567661Y-83323000D01*
X142404339Y-83323000D01*
X142449674Y-83327465D01*
G37*
G36*
X140399674Y-83327465D02*
G01*
X140437367Y-83338899D01*
X140472103Y-83357466D01*
X140502548Y-83382452D01*
X140527534Y-83412897D01*
X140546101Y-83447633D01*
X140557535Y-83485326D01*
X140562000Y-83530661D01*
X140562000Y-84617339D01*
X140557535Y-84662674D01*
X140546101Y-84700367D01*
X140527534Y-84735103D01*
X140502548Y-84765548D01*
X140472103Y-84790534D01*
X140437367Y-84809101D01*
X140399674Y-84820535D01*
X140354339Y-84825000D01*
X139517661Y-84825000D01*
X139472326Y-84820535D01*
X139434633Y-84809101D01*
X139399897Y-84790534D01*
X139369452Y-84765548D01*
X139344466Y-84735103D01*
X139325899Y-84700367D01*
X139314465Y-84662674D01*
X139310000Y-84617339D01*
X139310000Y-83530661D01*
X139314465Y-83485326D01*
X139325899Y-83447633D01*
X139344466Y-83412897D01*
X139369452Y-83382452D01*
X139399897Y-83357466D01*
X139434633Y-83338899D01*
X139472326Y-83327465D01*
X139517661Y-83323000D01*
X140354339Y-83323000D01*
X140399674Y-83327465D01*
G37*
G36*
X174759440Y-84731960D02*
G01*
X173657440Y-84731960D01*
X173657440Y-83029960D01*
X174759440Y-83029960D01*
X174759440Y-84731960D01*
G37*
G36*
X177050520Y-84726880D02*
G01*
X175948520Y-84726880D01*
X175948520Y-83024880D01*
X177050520Y-83024880D01*
X177050520Y-84726880D01*
G37*
G36*
X161508674Y-83073465D02*
G01*
X161546367Y-83084899D01*
X161581103Y-83103466D01*
X161611548Y-83128452D01*
X161636534Y-83158897D01*
X161655101Y-83193633D01*
X161666535Y-83231326D01*
X161671000Y-83276661D01*
X161671000Y-84363339D01*
X161666535Y-84408674D01*
X161655101Y-84446367D01*
X161636534Y-84481103D01*
X161611548Y-84511548D01*
X161581103Y-84536534D01*
X161546367Y-84555101D01*
X161508674Y-84566535D01*
X161463339Y-84571000D01*
X160626661Y-84571000D01*
X160581326Y-84566535D01*
X160543633Y-84555101D01*
X160508897Y-84536534D01*
X160478452Y-84511548D01*
X160453466Y-84481103D01*
X160434899Y-84446367D01*
X160423465Y-84408674D01*
X160419000Y-84363339D01*
X160419000Y-83276661D01*
X160423465Y-83231326D01*
X160434899Y-83193633D01*
X160453466Y-83158897D01*
X160478452Y-83128452D01*
X160508897Y-83103466D01*
X160543633Y-83084899D01*
X160581326Y-83073465D01*
X160626661Y-83069000D01*
X161463339Y-83069000D01*
X161508674Y-83073465D01*
G37*
G36*
X159458674Y-83073465D02*
G01*
X159496367Y-83084899D01*
X159531103Y-83103466D01*
X159561548Y-83128452D01*
X159586534Y-83158897D01*
X159605101Y-83193633D01*
X159616535Y-83231326D01*
X159621000Y-83276661D01*
X159621000Y-84363339D01*
X159616535Y-84408674D01*
X159605101Y-84446367D01*
X159586534Y-84481103D01*
X159561548Y-84511548D01*
X159531103Y-84536534D01*
X159496367Y-84555101D01*
X159458674Y-84566535D01*
X159413339Y-84571000D01*
X158576661Y-84571000D01*
X158531326Y-84566535D01*
X158493633Y-84555101D01*
X158458897Y-84536534D01*
X158428452Y-84511548D01*
X158403466Y-84481103D01*
X158384899Y-84446367D01*
X158373465Y-84408674D01*
X158369000Y-84363339D01*
X158369000Y-83276661D01*
X158373465Y-83231326D01*
X158384899Y-83193633D01*
X158403466Y-83158897D01*
X158428452Y-83128452D01*
X158458897Y-83103466D01*
X158493633Y-83084899D01*
X158531326Y-83073465D01*
X158576661Y-83069000D01*
X159413339Y-83069000D01*
X159458674Y-83073465D01*
G37*
G36*
X149443674Y-83073465D02*
G01*
X149481367Y-83084899D01*
X149516103Y-83103466D01*
X149546548Y-83128452D01*
X149571534Y-83158897D01*
X149590101Y-83193633D01*
X149601535Y-83231326D01*
X149606000Y-83276661D01*
X149606000Y-84363339D01*
X149601535Y-84408674D01*
X149590101Y-84446367D01*
X149571534Y-84481103D01*
X149546548Y-84511548D01*
X149516103Y-84536534D01*
X149481367Y-84555101D01*
X149443674Y-84566535D01*
X149398339Y-84571000D01*
X148561661Y-84571000D01*
X148516326Y-84566535D01*
X148478633Y-84555101D01*
X148443897Y-84536534D01*
X148413452Y-84511548D01*
X148388466Y-84481103D01*
X148369899Y-84446367D01*
X148358465Y-84408674D01*
X148354000Y-84363339D01*
X148354000Y-83276661D01*
X148358465Y-83231326D01*
X148369899Y-83193633D01*
X148388466Y-83158897D01*
X148413452Y-83128452D01*
X148443897Y-83103466D01*
X148478633Y-83084899D01*
X148516326Y-83073465D01*
X148561661Y-83069000D01*
X149398339Y-83069000D01*
X149443674Y-83073465D01*
G37*
G36*
X147393674Y-83073465D02*
G01*
X147431367Y-83084899D01*
X147466103Y-83103466D01*
X147496548Y-83128452D01*
X147521534Y-83158897D01*
X147540101Y-83193633D01*
X147551535Y-83231326D01*
X147556000Y-83276661D01*
X147556000Y-84363339D01*
X147551535Y-84408674D01*
X147540101Y-84446367D01*
X147521534Y-84481103D01*
X147496548Y-84511548D01*
X147466103Y-84536534D01*
X147431367Y-84555101D01*
X147393674Y-84566535D01*
X147348339Y-84571000D01*
X146511661Y-84571000D01*
X146466326Y-84566535D01*
X146428633Y-84555101D01*
X146393897Y-84536534D01*
X146363452Y-84511548D01*
X146338466Y-84481103D01*
X146319899Y-84446367D01*
X146308465Y-84408674D01*
X146304000Y-84363339D01*
X146304000Y-83276661D01*
X146308465Y-83231326D01*
X146319899Y-83193633D01*
X146338466Y-83158897D01*
X146363452Y-83128452D01*
X146393897Y-83103466D01*
X146428633Y-83084899D01*
X146466326Y-83073465D01*
X146511661Y-83069000D01*
X147348339Y-83069000D01*
X147393674Y-83073465D01*
G37*
G36*
X165701000Y-84039000D02*
G01*
X164499000Y-84039000D01*
X164499000Y-81437000D01*
X165701000Y-81437000D01*
X165701000Y-84039000D01*
G37*
G36*
X168301000Y-84039000D02*
G01*
X167099000Y-84039000D01*
X167099000Y-83337000D01*
X168301000Y-83337000D01*
X168301000Y-84039000D01*
G37*
G36*
X174759440Y-82445960D02*
G01*
X173657440Y-82445960D01*
X173657440Y-80743960D01*
X174759440Y-80743960D01*
X174759440Y-82445960D01*
G37*
G36*
X177050520Y-82440880D02*
G01*
X175948520Y-82440880D01*
X175948520Y-80738880D01*
X177050520Y-80738880D01*
X177050520Y-82440880D01*
G37*
G36*
X168301000Y-82139000D02*
G01*
X167099000Y-82139000D01*
X167099000Y-81437000D01*
X168301000Y-81437000D01*
X168301000Y-82139000D01*
G37*
G36*
X184986518Y-79020688D02*
G01*
X181434082Y-81071688D01*
X180621082Y-79663530D01*
X184173518Y-77612530D01*
X184986518Y-79020688D01*
G37*
G36*
X134415118Y-79584726D02*
G01*
X133602118Y-80992884D01*
X130049682Y-78941884D01*
X130862682Y-77533726D01*
X134415118Y-79584726D01*
G37*
G36*
X167915714Y-78943425D02*
G01*
X167953407Y-78954859D01*
X167988143Y-78973426D01*
X168018588Y-78998412D01*
X168043574Y-79028857D01*
X168062141Y-79063593D01*
X168073575Y-79101286D01*
X168078040Y-79146621D01*
X168078040Y-80233299D01*
X168073575Y-80278634D01*
X168062141Y-80316327D01*
X168043574Y-80351063D01*
X168018588Y-80381508D01*
X167988143Y-80406494D01*
X167953407Y-80425061D01*
X167915714Y-80436495D01*
X167870379Y-80440960D01*
X167033701Y-80440960D01*
X166988366Y-80436495D01*
X166950673Y-80425061D01*
X166915937Y-80406494D01*
X166885492Y-80381508D01*
X166860506Y-80351063D01*
X166841939Y-80316327D01*
X166830505Y-80278634D01*
X166826040Y-80233299D01*
X166826040Y-79146621D01*
X166830505Y-79101286D01*
X166841939Y-79063593D01*
X166860506Y-79028857D01*
X166885492Y-78998412D01*
X166915937Y-78973426D01*
X166950673Y-78954859D01*
X166988366Y-78943425D01*
X167033701Y-78938960D01*
X167870379Y-78938960D01*
X167915714Y-78943425D01*
G37*
G36*
X165865714Y-78943425D02*
G01*
X165903407Y-78954859D01*
X165938143Y-78973426D01*
X165968588Y-78998412D01*
X165993574Y-79028857D01*
X166012141Y-79063593D01*
X166023575Y-79101286D01*
X166028040Y-79146621D01*
X166028040Y-80233299D01*
X166023575Y-80278634D01*
X166012141Y-80316327D01*
X165993574Y-80351063D01*
X165968588Y-80381508D01*
X165938143Y-80406494D01*
X165903407Y-80425061D01*
X165865714Y-80436495D01*
X165820379Y-80440960D01*
X164983701Y-80440960D01*
X164938366Y-80436495D01*
X164900673Y-80425061D01*
X164865937Y-80406494D01*
X164835492Y-80381508D01*
X164810506Y-80351063D01*
X164791939Y-80316327D01*
X164780505Y-80278634D01*
X164776040Y-80233299D01*
X164776040Y-79146621D01*
X164780505Y-79101286D01*
X164791939Y-79063593D01*
X164810506Y-79028857D01*
X164835492Y-78998412D01*
X164865937Y-78973426D01*
X164900673Y-78954859D01*
X164938366Y-78943425D01*
X164983701Y-78938960D01*
X165820379Y-78938960D01*
X165865714Y-78943425D01*
G37*
G36*
X173673674Y-78755465D02*
G01*
X173711367Y-78766899D01*
X173746103Y-78785466D01*
X173776548Y-78810452D01*
X173801534Y-78840897D01*
X173820101Y-78875633D01*
X173831535Y-78913326D01*
X173836000Y-78958661D01*
X173836000Y-80045339D01*
X173831535Y-80090674D01*
X173820101Y-80128367D01*
X173801534Y-80163103D01*
X173776548Y-80193548D01*
X173746103Y-80218534D01*
X173711367Y-80237101D01*
X173673674Y-80248535D01*
X173628339Y-80253000D01*
X172791661Y-80253000D01*
X172746326Y-80248535D01*
X172708633Y-80237101D01*
X172673897Y-80218534D01*
X172643452Y-80193548D01*
X172618466Y-80163103D01*
X172599899Y-80128367D01*
X172588465Y-80090674D01*
X172584000Y-80045339D01*
X172584000Y-78958661D01*
X172588465Y-78913326D01*
X172599899Y-78875633D01*
X172618466Y-78840897D01*
X172643452Y-78810452D01*
X172673897Y-78785466D01*
X172708633Y-78766899D01*
X172746326Y-78755465D01*
X172791661Y-78751000D01*
X173628339Y-78751000D01*
X173673674Y-78755465D01*
G37*
G36*
X175723674Y-78755465D02*
G01*
X175761367Y-78766899D01*
X175796103Y-78785466D01*
X175826548Y-78810452D01*
X175851534Y-78840897D01*
X175870101Y-78875633D01*
X175881535Y-78913326D01*
X175886000Y-78958661D01*
X175886000Y-80045339D01*
X175881535Y-80090674D01*
X175870101Y-80128367D01*
X175851534Y-80163103D01*
X175826548Y-80193548D01*
X175796103Y-80218534D01*
X175761367Y-80237101D01*
X175723674Y-80248535D01*
X175678339Y-80253000D01*
X174841661Y-80253000D01*
X174796326Y-80248535D01*
X174758633Y-80237101D01*
X174723897Y-80218534D01*
X174693452Y-80193548D01*
X174668466Y-80163103D01*
X174649899Y-80128367D01*
X174638465Y-80090674D01*
X174634000Y-80045339D01*
X174634000Y-78958661D01*
X174638465Y-78913326D01*
X174649899Y-78875633D01*
X174668466Y-78840897D01*
X174693452Y-78810452D01*
X174723897Y-78785466D01*
X174758633Y-78766899D01*
X174796326Y-78755465D01*
X174841661Y-78751000D01*
X175678339Y-78751000D01*
X175723674Y-78755465D01*
G37*
G36*
X144411000Y-79895000D02*
G01*
X142609000Y-79895000D01*
X142609000Y-78093000D01*
X144411000Y-78093000D01*
X144411000Y-79895000D01*
G37*
G36*
X148703512Y-78097927D02*
G01*
X148852812Y-78127624D01*
X149016784Y-78195544D01*
X149164354Y-78294147D01*
X149289853Y-78419646D01*
X149388456Y-78567216D01*
X149456376Y-78731188D01*
X149491000Y-78905259D01*
X149491000Y-79082741D01*
X149456376Y-79256812D01*
X149388456Y-79420784D01*
X149289853Y-79568354D01*
X149164354Y-79693853D01*
X149016784Y-79792456D01*
X148852812Y-79860376D01*
X148703512Y-79890073D01*
X148678742Y-79895000D01*
X148501258Y-79895000D01*
X148476488Y-79890073D01*
X148327188Y-79860376D01*
X148163216Y-79792456D01*
X148015646Y-79693853D01*
X147890147Y-79568354D01*
X147791544Y-79420784D01*
X147723624Y-79256812D01*
X147689000Y-79082741D01*
X147689000Y-78905259D01*
X147723624Y-78731188D01*
X147791544Y-78567216D01*
X147890147Y-78419646D01*
X148015646Y-78294147D01*
X148163216Y-78195544D01*
X148327188Y-78127624D01*
X148476488Y-78097927D01*
X148501258Y-78093000D01*
X148678742Y-78093000D01*
X148703512Y-78097927D01*
G37*
G36*
X146163512Y-78097927D02*
G01*
X146312812Y-78127624D01*
X146476784Y-78195544D01*
X146624354Y-78294147D01*
X146749853Y-78419646D01*
X146848456Y-78567216D01*
X146916376Y-78731188D01*
X146951000Y-78905259D01*
X146951000Y-79082741D01*
X146916376Y-79256812D01*
X146848456Y-79420784D01*
X146749853Y-79568354D01*
X146624354Y-79693853D01*
X146476784Y-79792456D01*
X146312812Y-79860376D01*
X146163512Y-79890073D01*
X146138742Y-79895000D01*
X145961258Y-79895000D01*
X145936488Y-79890073D01*
X145787188Y-79860376D01*
X145623216Y-79792456D01*
X145475646Y-79693853D01*
X145350147Y-79568354D01*
X145251544Y-79420784D01*
X145183624Y-79256812D01*
X145149000Y-79082741D01*
X145149000Y-78905259D01*
X145183624Y-78731188D01*
X145251544Y-78567216D01*
X145350147Y-78419646D01*
X145475646Y-78294147D01*
X145623216Y-78195544D01*
X145787188Y-78127624D01*
X145936488Y-78097927D01*
X145961258Y-78093000D01*
X146138742Y-78093000D01*
X146163512Y-78097927D01*
G37*
G36*
X183716518Y-76820984D02*
G01*
X180164082Y-78871984D01*
X179351082Y-77463826D01*
X182903518Y-75412826D01*
X183716518Y-76820984D01*
G37*
G36*
X135685118Y-77385021D02*
G01*
X134872118Y-78793179D01*
X131319682Y-76742179D01*
X132132682Y-75334021D01*
X135685118Y-77385021D01*
G37*
G36*
X167951274Y-76875865D02*
G01*
X167988967Y-76887299D01*
X168023703Y-76905866D01*
X168054148Y-76930852D01*
X168079134Y-76961297D01*
X168097701Y-76996033D01*
X168109135Y-77033726D01*
X168113600Y-77079061D01*
X168113600Y-78165739D01*
X168109135Y-78211074D01*
X168097701Y-78248767D01*
X168079134Y-78283503D01*
X168054148Y-78313948D01*
X168023703Y-78338934D01*
X167988967Y-78357501D01*
X167951274Y-78368935D01*
X167905939Y-78373400D01*
X167069261Y-78373400D01*
X167023926Y-78368935D01*
X166986233Y-78357501D01*
X166951497Y-78338934D01*
X166921052Y-78313948D01*
X166896066Y-78283503D01*
X166877499Y-78248767D01*
X166866065Y-78211074D01*
X166861600Y-78165739D01*
X166861600Y-77079061D01*
X166866065Y-77033726D01*
X166877499Y-76996033D01*
X166896066Y-76961297D01*
X166921052Y-76930852D01*
X166951497Y-76905866D01*
X166986233Y-76887299D01*
X167023926Y-76875865D01*
X167069261Y-76871400D01*
X167905939Y-76871400D01*
X167951274Y-76875865D01*
G37*
G36*
X165901274Y-76875865D02*
G01*
X165938967Y-76887299D01*
X165973703Y-76905866D01*
X166004148Y-76930852D01*
X166029134Y-76961297D01*
X166047701Y-76996033D01*
X166059135Y-77033726D01*
X166063600Y-77079061D01*
X166063600Y-78165739D01*
X166059135Y-78211074D01*
X166047701Y-78248767D01*
X166029134Y-78283503D01*
X166004148Y-78313948D01*
X165973703Y-78338934D01*
X165938967Y-78357501D01*
X165901274Y-78368935D01*
X165855939Y-78373400D01*
X165019261Y-78373400D01*
X164973926Y-78368935D01*
X164936233Y-78357501D01*
X164901497Y-78338934D01*
X164871052Y-78313948D01*
X164846066Y-78283503D01*
X164827499Y-78248767D01*
X164816065Y-78211074D01*
X164811600Y-78165739D01*
X164811600Y-77079061D01*
X164816065Y-77033726D01*
X164827499Y-76996033D01*
X164846066Y-76961297D01*
X164871052Y-76930852D01*
X164901497Y-76905866D01*
X164936233Y-76887299D01*
X164973926Y-76875865D01*
X165019261Y-76871400D01*
X165855939Y-76871400D01*
X165901274Y-76875865D01*
G37*
G36*
X182446518Y-74621279D02*
G01*
X178894082Y-76672279D01*
X178081082Y-75264121D01*
X181633518Y-73213121D01*
X182446518Y-74621279D01*
G37*
G36*
X136955118Y-75185317D02*
G01*
X136142118Y-76593475D01*
X132589682Y-74542475D01*
X133402682Y-73134317D01*
X136955118Y-75185317D01*
G37*
G36*
X166568500Y-73145500D02*
G01*
X164266500Y-73145500D01*
X164266500Y-71193500D01*
X166568500Y-71193500D01*
X166568500Y-73145500D01*
G37*
G36*
X161658500Y-70980500D02*
G01*
X160032500Y-70980500D01*
X160032500Y-69354500D01*
X161658500Y-69354500D01*
X161658500Y-70980500D01*
G37*
G36*
X164468500Y-70845500D02*
G01*
X162866500Y-70845500D01*
X162866500Y-69743500D01*
X164468500Y-69743500D01*
X164468500Y-70845500D01*
G37*
G36*
X166568500Y-69395500D02*
G01*
X164266500Y-69395500D01*
X164266500Y-67443500D01*
X166568500Y-67443500D01*
X166568500Y-69395500D01*
G37*
G36*
X160820300Y-65271600D02*
G01*
X159194300Y-65271600D01*
X159194300Y-61169600D01*
X160820300Y-61169600D01*
X160820300Y-65271600D01*
G37*
G36*
X158280300Y-65271600D02*
G01*
X156654300Y-65271600D01*
X156654300Y-61169600D01*
X158280300Y-61169600D01*
X158280300Y-65271600D01*
G37*
G36*
X155740300Y-65271600D02*
G01*
X154114300Y-65271600D01*
X154114300Y-61169600D01*
X155740300Y-61169600D01*
X155740300Y-65271600D01*
G37*
M02*
