G04 #@! TF.GenerationSoftware,KiCad,Pcbnew,(5.1.5)-3*
G04 #@! TF.CreationDate,2020-02-12T15:38:08+01:00*
G04 #@! TF.ProjectId,MotherBoard,4d6f7468-6572-4426-9f61-72642e6b6963,rev?*
G04 #@! TF.SameCoordinates,Original*
G04 #@! TF.FileFunction,Legend,Top*
G04 #@! TF.FilePolarity,Positive*
%FSLAX46Y46*%
G04 Gerber Fmt 4.6, Leading zero omitted, Abs format (unit mm)*
G04 Created by KiCad (PCBNEW (5.1.5)-3) date 2020-02-12 15:38:08*
%MOMM*%
%LPD*%
G04 APERTURE LIST*
%ADD10C,0.125000*%
%ADD11C,0.010000*%
%ADD12C,0.120000*%
%ADD13C,0.254000*%
%ADD14C,0.070000*%
%ADD15C,0.100000*%
%ADD16C,0.200000*%
%ADD17C,0.150000*%
G04 APERTURE END LIST*
D10*
X138846809Y-96619190D02*
X138680142Y-96381095D01*
X138561095Y-96619190D02*
X138561095Y-96119190D01*
X138751571Y-96119190D01*
X138799190Y-96143000D01*
X138823000Y-96166809D01*
X138846809Y-96214428D01*
X138846809Y-96285857D01*
X138823000Y-96333476D01*
X138799190Y-96357285D01*
X138751571Y-96381095D01*
X138561095Y-96381095D01*
X139061095Y-96357285D02*
X139227761Y-96357285D01*
X139299190Y-96619190D02*
X139061095Y-96619190D01*
X139061095Y-96119190D01*
X139299190Y-96119190D01*
X139489666Y-96595380D02*
X139561095Y-96619190D01*
X139680142Y-96619190D01*
X139727761Y-96595380D01*
X139751571Y-96571571D01*
X139775380Y-96523952D01*
X139775380Y-96476333D01*
X139751571Y-96428714D01*
X139727761Y-96404904D01*
X139680142Y-96381095D01*
X139584904Y-96357285D01*
X139537285Y-96333476D01*
X139513476Y-96309666D01*
X139489666Y-96262047D01*
X139489666Y-96214428D01*
X139513476Y-96166809D01*
X139537285Y-96143000D01*
X139584904Y-96119190D01*
X139703952Y-96119190D01*
X139775380Y-96143000D01*
X139989666Y-96357285D02*
X140156333Y-96357285D01*
X140227761Y-96619190D02*
X139989666Y-96619190D01*
X139989666Y-96119190D01*
X140227761Y-96119190D01*
X140370619Y-96119190D02*
X140656333Y-96119190D01*
X140513476Y-96619190D02*
X140513476Y-96119190D01*
X141236047Y-89356380D02*
X141307476Y-89380190D01*
X141426523Y-89380190D01*
X141474142Y-89356380D01*
X141497952Y-89332571D01*
X141521761Y-89284952D01*
X141521761Y-89237333D01*
X141497952Y-89189714D01*
X141474142Y-89165904D01*
X141426523Y-89142095D01*
X141331285Y-89118285D01*
X141283666Y-89094476D01*
X141259857Y-89070666D01*
X141236047Y-89023047D01*
X141236047Y-88975428D01*
X141259857Y-88927809D01*
X141283666Y-88904000D01*
X141331285Y-88880190D01*
X141450333Y-88880190D01*
X141521761Y-88904000D01*
X141688428Y-88880190D02*
X141807476Y-89380190D01*
X141902714Y-89023047D01*
X141997952Y-89380190D01*
X142117000Y-88880190D01*
X142593190Y-89332571D02*
X142569380Y-89356380D01*
X142497952Y-89380190D01*
X142450333Y-89380190D01*
X142378904Y-89356380D01*
X142331285Y-89308761D01*
X142307476Y-89261142D01*
X142283666Y-89165904D01*
X142283666Y-89094476D01*
X142307476Y-88999238D01*
X142331285Y-88951619D01*
X142378904Y-88904000D01*
X142450333Y-88880190D01*
X142497952Y-88880190D01*
X142569380Y-88904000D01*
X142593190Y-88927809D01*
X143045571Y-89380190D02*
X142807476Y-89380190D01*
X142807476Y-88880190D01*
X143212238Y-89380190D02*
X143212238Y-88880190D01*
X143497952Y-89380190D02*
X143283666Y-89094476D01*
X143497952Y-88880190D02*
X143212238Y-89165904D01*
X141307476Y-88340380D02*
X141378904Y-88364190D01*
X141497952Y-88364190D01*
X141545571Y-88340380D01*
X141569380Y-88316571D01*
X141593190Y-88268952D01*
X141593190Y-88221333D01*
X141569380Y-88173714D01*
X141545571Y-88149904D01*
X141497952Y-88126095D01*
X141402714Y-88102285D01*
X141355095Y-88078476D01*
X141331285Y-88054666D01*
X141307476Y-88007047D01*
X141307476Y-87959428D01*
X141331285Y-87911809D01*
X141355095Y-87888000D01*
X141402714Y-87864190D01*
X141521761Y-87864190D01*
X141593190Y-87888000D01*
X141759857Y-87864190D02*
X141878904Y-88364190D01*
X141974142Y-88007047D01*
X142069380Y-88364190D01*
X142188428Y-87864190D01*
X142378904Y-88364190D02*
X142378904Y-87864190D01*
X142497952Y-87864190D01*
X142569380Y-87888000D01*
X142617000Y-87935619D01*
X142640809Y-87983238D01*
X142664619Y-88078476D01*
X142664619Y-88149904D01*
X142640809Y-88245142D01*
X142617000Y-88292761D01*
X142569380Y-88340380D01*
X142497952Y-88364190D01*
X142378904Y-88364190D01*
X142878904Y-88364190D02*
X142878904Y-87864190D01*
X143212238Y-87864190D02*
X143307476Y-87864190D01*
X143355095Y-87888000D01*
X143402714Y-87935619D01*
X143426523Y-88030857D01*
X143426523Y-88197523D01*
X143402714Y-88292761D01*
X143355095Y-88340380D01*
X143307476Y-88364190D01*
X143212238Y-88364190D01*
X143164619Y-88340380D01*
X143117000Y-88292761D01*
X143093190Y-88197523D01*
X143093190Y-88030857D01*
X143117000Y-87935619D01*
X143164619Y-87888000D01*
X143212238Y-87864190D01*
X133604047Y-93984000D02*
X133556428Y-93960190D01*
X133485000Y-93960190D01*
X133413571Y-93984000D01*
X133365952Y-94031619D01*
X133342142Y-94079238D01*
X133318333Y-94174476D01*
X133318333Y-94245904D01*
X133342142Y-94341142D01*
X133365952Y-94388761D01*
X133413571Y-94436380D01*
X133485000Y-94460190D01*
X133532619Y-94460190D01*
X133604047Y-94436380D01*
X133627857Y-94412571D01*
X133627857Y-94245904D01*
X133532619Y-94245904D01*
X133842142Y-94460190D02*
X133842142Y-93960190D01*
X134127857Y-94460190D01*
X134127857Y-93960190D01*
X134365952Y-94460190D02*
X134365952Y-93960190D01*
X134485000Y-93960190D01*
X134556428Y-93984000D01*
X134604047Y-94031619D01*
X134627857Y-94079238D01*
X134651666Y-94174476D01*
X134651666Y-94245904D01*
X134627857Y-94341142D01*
X134604047Y-94388761D01*
X134556428Y-94436380D01*
X134485000Y-94460190D01*
X134365952Y-94460190D01*
X133604047Y-91444000D02*
X133556428Y-91420190D01*
X133485000Y-91420190D01*
X133413571Y-91444000D01*
X133365952Y-91491619D01*
X133342142Y-91539238D01*
X133318333Y-91634476D01*
X133318333Y-91705904D01*
X133342142Y-91801142D01*
X133365952Y-91848761D01*
X133413571Y-91896380D01*
X133485000Y-91920190D01*
X133532619Y-91920190D01*
X133604047Y-91896380D01*
X133627857Y-91872571D01*
X133627857Y-91705904D01*
X133532619Y-91705904D01*
X133842142Y-91920190D02*
X133842142Y-91420190D01*
X134127857Y-91920190D01*
X134127857Y-91420190D01*
X134365952Y-91920190D02*
X134365952Y-91420190D01*
X134485000Y-91420190D01*
X134556428Y-91444000D01*
X134604047Y-91491619D01*
X134627857Y-91539238D01*
X134651666Y-91634476D01*
X134651666Y-91705904D01*
X134627857Y-91801142D01*
X134604047Y-91848761D01*
X134556428Y-91896380D01*
X134485000Y-91920190D01*
X134365952Y-91920190D01*
X133238952Y-88626190D02*
X133548476Y-88626190D01*
X133381809Y-88816666D01*
X133453238Y-88816666D01*
X133500857Y-88840476D01*
X133524666Y-88864285D01*
X133548476Y-88911904D01*
X133548476Y-89030952D01*
X133524666Y-89078571D01*
X133500857Y-89102380D01*
X133453238Y-89126190D01*
X133310380Y-89126190D01*
X133262761Y-89102380D01*
X133238952Y-89078571D01*
X133691333Y-88626190D02*
X133858000Y-89126190D01*
X134024666Y-88626190D01*
X134143714Y-88626190D02*
X134453238Y-88626190D01*
X134286571Y-88816666D01*
X134358000Y-88816666D01*
X134405619Y-88840476D01*
X134429428Y-88864285D01*
X134453238Y-88911904D01*
X134453238Y-89030952D01*
X134429428Y-89078571D01*
X134405619Y-89102380D01*
X134358000Y-89126190D01*
X134215142Y-89126190D01*
X134167523Y-89102380D01*
X134143714Y-89078571D01*
X148209047Y-76331000D02*
X148161428Y-76307190D01*
X148090000Y-76307190D01*
X148018571Y-76331000D01*
X147970952Y-76378619D01*
X147947142Y-76426238D01*
X147923333Y-76521476D01*
X147923333Y-76592904D01*
X147947142Y-76688142D01*
X147970952Y-76735761D01*
X148018571Y-76783380D01*
X148090000Y-76807190D01*
X148137619Y-76807190D01*
X148209047Y-76783380D01*
X148232857Y-76759571D01*
X148232857Y-76592904D01*
X148137619Y-76592904D01*
X148447142Y-76807190D02*
X148447142Y-76307190D01*
X148732857Y-76807190D01*
X148732857Y-76307190D01*
X148970952Y-76807190D02*
X148970952Y-76307190D01*
X149090000Y-76307190D01*
X149161428Y-76331000D01*
X149209047Y-76378619D01*
X149232857Y-76426238D01*
X149256666Y-76521476D01*
X149256666Y-76592904D01*
X149232857Y-76688142D01*
X149209047Y-76735761D01*
X149161428Y-76783380D01*
X149090000Y-76807190D01*
X148970952Y-76807190D01*
X145839666Y-76807190D02*
X145673000Y-76569095D01*
X145553952Y-76807190D02*
X145553952Y-76307190D01*
X145744428Y-76307190D01*
X145792047Y-76331000D01*
X145815857Y-76354809D01*
X145839666Y-76402428D01*
X145839666Y-76473857D01*
X145815857Y-76521476D01*
X145792047Y-76545285D01*
X145744428Y-76569095D01*
X145553952Y-76569095D01*
X146006333Y-76307190D02*
X146339666Y-76807190D01*
X146339666Y-76307190D02*
X146006333Y-76807190D01*
X143002047Y-76307190D02*
X143287761Y-76307190D01*
X143144904Y-76807190D02*
X143144904Y-76307190D01*
X143406809Y-76307190D02*
X143740142Y-76807190D01*
X143740142Y-76307190D02*
X143406809Y-76807190D01*
D11*
G36*
X172401034Y-110623558D02*
G01*
X172406300Y-110632242D01*
X172413266Y-110645870D01*
X172415980Y-110651228D01*
X172436637Y-110693841D01*
X172457384Y-110740800D01*
X172478322Y-110792396D01*
X172499552Y-110848919D01*
X172521176Y-110910659D01*
X172543295Y-110977909D01*
X172566011Y-111050957D01*
X172589425Y-111130096D01*
X172613637Y-111215615D01*
X172617045Y-111227927D01*
X172624045Y-111253489D01*
X172630420Y-111277167D01*
X172635950Y-111298113D01*
X172640417Y-111315483D01*
X172643601Y-111328432D01*
X172645283Y-111336113D01*
X172645493Y-111337687D01*
X172643989Y-111342355D01*
X172639743Y-111352189D01*
X172633154Y-111366351D01*
X172624620Y-111384007D01*
X172614539Y-111404319D01*
X172603310Y-111426452D01*
X172601779Y-111429433D01*
X172587936Y-111456541D01*
X172573098Y-111485950D01*
X172557102Y-111518003D01*
X172539779Y-111553043D01*
X172520966Y-111591411D01*
X172500494Y-111633449D01*
X172478200Y-111679500D01*
X172453916Y-111729904D01*
X172427477Y-111785006D01*
X172398716Y-111845146D01*
X172367469Y-111910666D01*
X172333568Y-111981909D01*
X172325559Y-111998760D01*
X172280495Y-112093333D01*
X172237977Y-112182011D01*
X172197841Y-112265107D01*
X172159922Y-112342932D01*
X172124056Y-112415798D01*
X172090079Y-112484019D01*
X172057826Y-112547907D01*
X172027133Y-112607773D01*
X171997837Y-112663931D01*
X171969772Y-112716692D01*
X171942775Y-112766369D01*
X171916681Y-112813274D01*
X171891326Y-112857720D01*
X171866545Y-112900019D01*
X171842175Y-112940483D01*
X171818051Y-112979424D01*
X171794010Y-113017156D01*
X171773439Y-113048626D01*
X171757029Y-113073145D01*
X171740379Y-113097480D01*
X171723916Y-113121051D01*
X171708071Y-113143278D01*
X171693275Y-113163582D01*
X171679957Y-113181382D01*
X171668547Y-113196098D01*
X171659475Y-113207151D01*
X171653171Y-113213961D01*
X171650065Y-113215948D01*
X171649813Y-113215351D01*
X171650931Y-113211888D01*
X171654016Y-113203202D01*
X171658661Y-113190416D01*
X171664460Y-113174649D01*
X171667964Y-113165197D01*
X171680073Y-113132058D01*
X171692111Y-113097944D01*
X171704157Y-113062561D01*
X171716289Y-113025616D01*
X171728587Y-112986815D01*
X171741129Y-112945864D01*
X171753994Y-112902469D01*
X171767262Y-112856337D01*
X171781011Y-112807175D01*
X171795319Y-112754688D01*
X171810267Y-112698583D01*
X171825933Y-112638566D01*
X171842395Y-112574344D01*
X171859733Y-112505623D01*
X171878026Y-112432109D01*
X171897353Y-112353508D01*
X171917792Y-112269528D01*
X171939423Y-112179873D01*
X171962324Y-112084251D01*
X171986574Y-111982369D01*
X171991925Y-111959813D01*
X172009753Y-111884893D01*
X172027388Y-111811300D01*
X172044697Y-111739574D01*
X172061546Y-111670256D01*
X172077802Y-111603886D01*
X172093331Y-111541007D01*
X172108000Y-111482158D01*
X172121676Y-111427880D01*
X172134224Y-111378715D01*
X172145512Y-111335203D01*
X172153183Y-111306186D01*
X172179786Y-111208582D01*
X172205693Y-111117658D01*
X172230924Y-111033360D01*
X172255496Y-110955631D01*
X172279429Y-110884418D01*
X172302740Y-110819665D01*
X172325449Y-110761317D01*
X172347574Y-110709318D01*
X172369133Y-110663614D01*
X172370987Y-110659925D01*
X172380274Y-110641475D01*
X172387087Y-110628774D01*
X172392262Y-110621662D01*
X172396632Y-110619977D01*
X172401034Y-110623558D01*
G37*
X172401034Y-110623558D02*
X172406300Y-110632242D01*
X172413266Y-110645870D01*
X172415980Y-110651228D01*
X172436637Y-110693841D01*
X172457384Y-110740800D01*
X172478322Y-110792396D01*
X172499552Y-110848919D01*
X172521176Y-110910659D01*
X172543295Y-110977909D01*
X172566011Y-111050957D01*
X172589425Y-111130096D01*
X172613637Y-111215615D01*
X172617045Y-111227927D01*
X172624045Y-111253489D01*
X172630420Y-111277167D01*
X172635950Y-111298113D01*
X172640417Y-111315483D01*
X172643601Y-111328432D01*
X172645283Y-111336113D01*
X172645493Y-111337687D01*
X172643989Y-111342355D01*
X172639743Y-111352189D01*
X172633154Y-111366351D01*
X172624620Y-111384007D01*
X172614539Y-111404319D01*
X172603310Y-111426452D01*
X172601779Y-111429433D01*
X172587936Y-111456541D01*
X172573098Y-111485950D01*
X172557102Y-111518003D01*
X172539779Y-111553043D01*
X172520966Y-111591411D01*
X172500494Y-111633449D01*
X172478200Y-111679500D01*
X172453916Y-111729904D01*
X172427477Y-111785006D01*
X172398716Y-111845146D01*
X172367469Y-111910666D01*
X172333568Y-111981909D01*
X172325559Y-111998760D01*
X172280495Y-112093333D01*
X172237977Y-112182011D01*
X172197841Y-112265107D01*
X172159922Y-112342932D01*
X172124056Y-112415798D01*
X172090079Y-112484019D01*
X172057826Y-112547907D01*
X172027133Y-112607773D01*
X171997837Y-112663931D01*
X171969772Y-112716692D01*
X171942775Y-112766369D01*
X171916681Y-112813274D01*
X171891326Y-112857720D01*
X171866545Y-112900019D01*
X171842175Y-112940483D01*
X171818051Y-112979424D01*
X171794010Y-113017156D01*
X171773439Y-113048626D01*
X171757029Y-113073145D01*
X171740379Y-113097480D01*
X171723916Y-113121051D01*
X171708071Y-113143278D01*
X171693275Y-113163582D01*
X171679957Y-113181382D01*
X171668547Y-113196098D01*
X171659475Y-113207151D01*
X171653171Y-113213961D01*
X171650065Y-113215948D01*
X171649813Y-113215351D01*
X171650931Y-113211888D01*
X171654016Y-113203202D01*
X171658661Y-113190416D01*
X171664460Y-113174649D01*
X171667964Y-113165197D01*
X171680073Y-113132058D01*
X171692111Y-113097944D01*
X171704157Y-113062561D01*
X171716289Y-113025616D01*
X171728587Y-112986815D01*
X171741129Y-112945864D01*
X171753994Y-112902469D01*
X171767262Y-112856337D01*
X171781011Y-112807175D01*
X171795319Y-112754688D01*
X171810267Y-112698583D01*
X171825933Y-112638566D01*
X171842395Y-112574344D01*
X171859733Y-112505623D01*
X171878026Y-112432109D01*
X171897353Y-112353508D01*
X171917792Y-112269528D01*
X171939423Y-112179873D01*
X171962324Y-112084251D01*
X171986574Y-111982369D01*
X171991925Y-111959813D01*
X172009753Y-111884893D01*
X172027388Y-111811300D01*
X172044697Y-111739574D01*
X172061546Y-111670256D01*
X172077802Y-111603886D01*
X172093331Y-111541007D01*
X172108000Y-111482158D01*
X172121676Y-111427880D01*
X172134224Y-111378715D01*
X172145512Y-111335203D01*
X172153183Y-111306186D01*
X172179786Y-111208582D01*
X172205693Y-111117658D01*
X172230924Y-111033360D01*
X172255496Y-110955631D01*
X172279429Y-110884418D01*
X172302740Y-110819665D01*
X172325449Y-110761317D01*
X172347574Y-110709318D01*
X172369133Y-110663614D01*
X172370987Y-110659925D01*
X172380274Y-110641475D01*
X172387087Y-110628774D01*
X172392262Y-110621662D01*
X172396632Y-110619977D01*
X172401034Y-110623558D01*
G36*
X170121810Y-110618268D02*
G01*
X170126674Y-110626552D01*
X170133362Y-110639262D01*
X170141450Y-110655496D01*
X170150510Y-110674358D01*
X170160119Y-110694947D01*
X170169849Y-110716364D01*
X170179277Y-110737711D01*
X170187975Y-110758089D01*
X170195316Y-110776086D01*
X170208710Y-110810535D01*
X170221933Y-110845831D01*
X170235068Y-110882276D01*
X170248198Y-110920174D01*
X170261406Y-110959826D01*
X170274777Y-111001533D01*
X170288393Y-111045598D01*
X170302338Y-111092322D01*
X170316694Y-111142007D01*
X170331547Y-111194957D01*
X170346978Y-111251471D01*
X170363072Y-111311852D01*
X170379911Y-111376403D01*
X170397580Y-111445425D01*
X170416160Y-111519220D01*
X170435737Y-111598090D01*
X170456393Y-111682336D01*
X170478212Y-111772262D01*
X170501277Y-111868168D01*
X170525671Y-111970357D01*
X170528802Y-111983520D01*
X170550817Y-112075926D01*
X170571443Y-112162099D01*
X170590778Y-112242414D01*
X170608917Y-112317246D01*
X170625959Y-112386971D01*
X170641999Y-112451963D01*
X170657135Y-112512599D01*
X170671464Y-112569253D01*
X170685082Y-112622300D01*
X170698086Y-112672116D01*
X170710574Y-112719075D01*
X170722642Y-112763554D01*
X170734387Y-112805928D01*
X170745906Y-112846570D01*
X170757296Y-112885858D01*
X170768654Y-112924166D01*
X170780076Y-112961869D01*
X170788498Y-112989183D01*
X170797500Y-113017723D01*
X170807238Y-113047807D01*
X170817340Y-113078344D01*
X170827433Y-113108245D01*
X170837142Y-113136419D01*
X170846097Y-113161777D01*
X170853923Y-113183229D01*
X170860247Y-113199685D01*
X170862047Y-113204086D01*
X170865147Y-113212522D01*
X170866334Y-113217944D01*
X170866154Y-113218734D01*
X170863789Y-113216605D01*
X170858050Y-113209828D01*
X170849579Y-113199211D01*
X170839019Y-113185558D01*
X170827011Y-113169678D01*
X170825952Y-113168261D01*
X170800810Y-113134047D01*
X170775853Y-113098911D01*
X170750932Y-113062580D01*
X170725899Y-113024779D01*
X170700605Y-112985233D01*
X170674901Y-112943667D01*
X170648638Y-112899806D01*
X170621667Y-112853377D01*
X170593839Y-112804104D01*
X170565006Y-112751712D01*
X170535018Y-112695927D01*
X170503727Y-112636475D01*
X170470984Y-112573080D01*
X170436640Y-112505468D01*
X170400546Y-112433364D01*
X170362554Y-112356494D01*
X170322514Y-112274583D01*
X170280277Y-112187356D01*
X170235695Y-112094538D01*
X170188619Y-111995855D01*
X170174710Y-111966586D01*
X170153232Y-111921484D01*
X170130363Y-111873694D01*
X170106592Y-111824228D01*
X170082410Y-111774097D01*
X170058307Y-111724313D01*
X170034774Y-111675886D01*
X170012301Y-111629830D01*
X169991379Y-111587155D01*
X169972497Y-111548873D01*
X169960498Y-111524711D01*
X169867702Y-111338529D01*
X169888808Y-111260551D01*
X169915885Y-111162874D01*
X169942431Y-111071895D01*
X169968461Y-110987561D01*
X169993994Y-110909818D01*
X170019046Y-110838614D01*
X170040070Y-110782946D01*
X170046466Y-110767209D01*
X170054322Y-110748830D01*
X170063206Y-110728725D01*
X170072686Y-110707810D01*
X170082331Y-110687002D01*
X170091706Y-110667216D01*
X170100381Y-110649367D01*
X170107922Y-110634373D01*
X170113898Y-110623149D01*
X170117876Y-110616610D01*
X170119196Y-110615306D01*
X170121810Y-110618268D01*
G37*
X170121810Y-110618268D02*
X170126674Y-110626552D01*
X170133362Y-110639262D01*
X170141450Y-110655496D01*
X170150510Y-110674358D01*
X170160119Y-110694947D01*
X170169849Y-110716364D01*
X170179277Y-110737711D01*
X170187975Y-110758089D01*
X170195316Y-110776086D01*
X170208710Y-110810535D01*
X170221933Y-110845831D01*
X170235068Y-110882276D01*
X170248198Y-110920174D01*
X170261406Y-110959826D01*
X170274777Y-111001533D01*
X170288393Y-111045598D01*
X170302338Y-111092322D01*
X170316694Y-111142007D01*
X170331547Y-111194957D01*
X170346978Y-111251471D01*
X170363072Y-111311852D01*
X170379911Y-111376403D01*
X170397580Y-111445425D01*
X170416160Y-111519220D01*
X170435737Y-111598090D01*
X170456393Y-111682336D01*
X170478212Y-111772262D01*
X170501277Y-111868168D01*
X170525671Y-111970357D01*
X170528802Y-111983520D01*
X170550817Y-112075926D01*
X170571443Y-112162099D01*
X170590778Y-112242414D01*
X170608917Y-112317246D01*
X170625959Y-112386971D01*
X170641999Y-112451963D01*
X170657135Y-112512599D01*
X170671464Y-112569253D01*
X170685082Y-112622300D01*
X170698086Y-112672116D01*
X170710574Y-112719075D01*
X170722642Y-112763554D01*
X170734387Y-112805928D01*
X170745906Y-112846570D01*
X170757296Y-112885858D01*
X170768654Y-112924166D01*
X170780076Y-112961869D01*
X170788498Y-112989183D01*
X170797500Y-113017723D01*
X170807238Y-113047807D01*
X170817340Y-113078344D01*
X170827433Y-113108245D01*
X170837142Y-113136419D01*
X170846097Y-113161777D01*
X170853923Y-113183229D01*
X170860247Y-113199685D01*
X170862047Y-113204086D01*
X170865147Y-113212522D01*
X170866334Y-113217944D01*
X170866154Y-113218734D01*
X170863789Y-113216605D01*
X170858050Y-113209828D01*
X170849579Y-113199211D01*
X170839019Y-113185558D01*
X170827011Y-113169678D01*
X170825952Y-113168261D01*
X170800810Y-113134047D01*
X170775853Y-113098911D01*
X170750932Y-113062580D01*
X170725899Y-113024779D01*
X170700605Y-112985233D01*
X170674901Y-112943667D01*
X170648638Y-112899806D01*
X170621667Y-112853377D01*
X170593839Y-112804104D01*
X170565006Y-112751712D01*
X170535018Y-112695927D01*
X170503727Y-112636475D01*
X170470984Y-112573080D01*
X170436640Y-112505468D01*
X170400546Y-112433364D01*
X170362554Y-112356494D01*
X170322514Y-112274583D01*
X170280277Y-112187356D01*
X170235695Y-112094538D01*
X170188619Y-111995855D01*
X170174710Y-111966586D01*
X170153232Y-111921484D01*
X170130363Y-111873694D01*
X170106592Y-111824228D01*
X170082410Y-111774097D01*
X170058307Y-111724313D01*
X170034774Y-111675886D01*
X170012301Y-111629830D01*
X169991379Y-111587155D01*
X169972497Y-111548873D01*
X169960498Y-111524711D01*
X169867702Y-111338529D01*
X169888808Y-111260551D01*
X169915885Y-111162874D01*
X169942431Y-111071895D01*
X169968461Y-110987561D01*
X169993994Y-110909818D01*
X170019046Y-110838614D01*
X170040070Y-110782946D01*
X170046466Y-110767209D01*
X170054322Y-110748830D01*
X170063206Y-110728725D01*
X170072686Y-110707810D01*
X170082331Y-110687002D01*
X170091706Y-110667216D01*
X170100381Y-110649367D01*
X170107922Y-110634373D01*
X170113898Y-110623149D01*
X170117876Y-110616610D01*
X170119196Y-110615306D01*
X170121810Y-110618268D01*
G36*
X169019610Y-110497656D02*
G01*
X169055167Y-110507092D01*
X169092183Y-110522317D01*
X169131327Y-110543307D01*
X169145373Y-110551835D01*
X169188757Y-110581863D01*
X169233223Y-110618500D01*
X169278713Y-110661675D01*
X169325167Y-110711321D01*
X169372529Y-110767368D01*
X169420741Y-110829747D01*
X169469744Y-110898389D01*
X169519480Y-110973226D01*
X169569891Y-111054188D01*
X169574076Y-111061135D01*
X169612003Y-111124248D01*
X169602728Y-111156797D01*
X169592114Y-111194547D01*
X169580929Y-111235322D01*
X169569100Y-111279414D01*
X169556554Y-111327114D01*
X169543218Y-111378714D01*
X169529019Y-111434507D01*
X169513884Y-111494784D01*
X169497739Y-111559837D01*
X169480511Y-111629957D01*
X169462128Y-111705437D01*
X169442516Y-111786568D01*
X169421602Y-111873643D01*
X169399312Y-111966952D01*
X169392544Y-111995373D01*
X169369710Y-112091085D01*
X169348247Y-112180536D01*
X169328063Y-112264074D01*
X169309065Y-112342052D01*
X169291162Y-112414820D01*
X169274261Y-112482729D01*
X169258270Y-112546131D01*
X169243095Y-112605375D01*
X169228645Y-112660812D01*
X169214828Y-112712794D01*
X169201550Y-112761672D01*
X169188720Y-112807796D01*
X169176245Y-112851517D01*
X169164033Y-112893186D01*
X169151992Y-112933153D01*
X169140028Y-112971771D01*
X169128050Y-113009389D01*
X169115966Y-113046359D01*
X169115215Y-113048626D01*
X169105738Y-113076758D01*
X169095485Y-113106406D01*
X169085044Y-113135923D01*
X169075003Y-113163660D01*
X169065952Y-113187968D01*
X169059591Y-113204413D01*
X169050646Y-113226358D01*
X169040870Y-113249309D01*
X169030664Y-113272423D01*
X169020429Y-113294862D01*
X169010565Y-113315784D01*
X169001474Y-113334348D01*
X168993556Y-113349714D01*
X168987212Y-113361041D01*
X168982842Y-113367488D01*
X168981295Y-113368666D01*
X168978607Y-113365797D01*
X168973600Y-113357907D01*
X168966901Y-113346078D01*
X168959138Y-113331386D01*
X168955906Y-113325012D01*
X168941830Y-113296111D01*
X168927880Y-113265776D01*
X168913987Y-113233759D01*
X168900077Y-113199811D01*
X168886079Y-113163685D01*
X168871920Y-113125132D01*
X168857529Y-113083905D01*
X168842834Y-113039755D01*
X168827763Y-112992434D01*
X168812243Y-112941694D01*
X168796203Y-112887287D01*
X168779571Y-112828966D01*
X168762275Y-112766480D01*
X168744243Y-112699584D01*
X168725403Y-112628028D01*
X168705683Y-112551564D01*
X168685011Y-112469945D01*
X168663315Y-112382922D01*
X168640523Y-112290247D01*
X168616563Y-112191672D01*
X168591363Y-112086949D01*
X168566277Y-111981826D01*
X168541745Y-111879021D01*
X168518363Y-111781777D01*
X168496162Y-111690217D01*
X168475171Y-111604462D01*
X168455420Y-111524635D01*
X168436940Y-111450855D01*
X168419762Y-111383245D01*
X168403914Y-111321926D01*
X168389428Y-111267021D01*
X168379622Y-111230666D01*
X168350261Y-111122972D01*
X168388517Y-111059639D01*
X168438267Y-110979518D01*
X168486807Y-110905914D01*
X168534241Y-110838699D01*
X168580675Y-110777746D01*
X168626214Y-110722926D01*
X168670966Y-110674113D01*
X168715035Y-110631180D01*
X168758526Y-110593998D01*
X168799373Y-110563908D01*
X168840251Y-110538121D01*
X168878567Y-110518264D01*
X168914990Y-110504312D01*
X168950192Y-110496243D01*
X168984842Y-110494032D01*
X169019610Y-110497656D01*
G37*
X169019610Y-110497656D02*
X169055167Y-110507092D01*
X169092183Y-110522317D01*
X169131327Y-110543307D01*
X169145373Y-110551835D01*
X169188757Y-110581863D01*
X169233223Y-110618500D01*
X169278713Y-110661675D01*
X169325167Y-110711321D01*
X169372529Y-110767368D01*
X169420741Y-110829747D01*
X169469744Y-110898389D01*
X169519480Y-110973226D01*
X169569891Y-111054188D01*
X169574076Y-111061135D01*
X169612003Y-111124248D01*
X169602728Y-111156797D01*
X169592114Y-111194547D01*
X169580929Y-111235322D01*
X169569100Y-111279414D01*
X169556554Y-111327114D01*
X169543218Y-111378714D01*
X169529019Y-111434507D01*
X169513884Y-111494784D01*
X169497739Y-111559837D01*
X169480511Y-111629957D01*
X169462128Y-111705437D01*
X169442516Y-111786568D01*
X169421602Y-111873643D01*
X169399312Y-111966952D01*
X169392544Y-111995373D01*
X169369710Y-112091085D01*
X169348247Y-112180536D01*
X169328063Y-112264074D01*
X169309065Y-112342052D01*
X169291162Y-112414820D01*
X169274261Y-112482729D01*
X169258270Y-112546131D01*
X169243095Y-112605375D01*
X169228645Y-112660812D01*
X169214828Y-112712794D01*
X169201550Y-112761672D01*
X169188720Y-112807796D01*
X169176245Y-112851517D01*
X169164033Y-112893186D01*
X169151992Y-112933153D01*
X169140028Y-112971771D01*
X169128050Y-113009389D01*
X169115966Y-113046359D01*
X169115215Y-113048626D01*
X169105738Y-113076758D01*
X169095485Y-113106406D01*
X169085044Y-113135923D01*
X169075003Y-113163660D01*
X169065952Y-113187968D01*
X169059591Y-113204413D01*
X169050646Y-113226358D01*
X169040870Y-113249309D01*
X169030664Y-113272423D01*
X169020429Y-113294862D01*
X169010565Y-113315784D01*
X169001474Y-113334348D01*
X168993556Y-113349714D01*
X168987212Y-113361041D01*
X168982842Y-113367488D01*
X168981295Y-113368666D01*
X168978607Y-113365797D01*
X168973600Y-113357907D01*
X168966901Y-113346078D01*
X168959138Y-113331386D01*
X168955906Y-113325012D01*
X168941830Y-113296111D01*
X168927880Y-113265776D01*
X168913987Y-113233759D01*
X168900077Y-113199811D01*
X168886079Y-113163685D01*
X168871920Y-113125132D01*
X168857529Y-113083905D01*
X168842834Y-113039755D01*
X168827763Y-112992434D01*
X168812243Y-112941694D01*
X168796203Y-112887287D01*
X168779571Y-112828966D01*
X168762275Y-112766480D01*
X168744243Y-112699584D01*
X168725403Y-112628028D01*
X168705683Y-112551564D01*
X168685011Y-112469945D01*
X168663315Y-112382922D01*
X168640523Y-112290247D01*
X168616563Y-112191672D01*
X168591363Y-112086949D01*
X168566277Y-111981826D01*
X168541745Y-111879021D01*
X168518363Y-111781777D01*
X168496162Y-111690217D01*
X168475171Y-111604462D01*
X168455420Y-111524635D01*
X168436940Y-111450855D01*
X168419762Y-111383245D01*
X168403914Y-111321926D01*
X168389428Y-111267021D01*
X168379622Y-111230666D01*
X168350261Y-111122972D01*
X168388517Y-111059639D01*
X168438267Y-110979518D01*
X168486807Y-110905914D01*
X168534241Y-110838699D01*
X168580675Y-110777746D01*
X168626214Y-110722926D01*
X168670966Y-110674113D01*
X168715035Y-110631180D01*
X168758526Y-110593998D01*
X168799373Y-110563908D01*
X168840251Y-110538121D01*
X168878567Y-110518264D01*
X168914990Y-110504312D01*
X168950192Y-110496243D01*
X168984842Y-110494032D01*
X169019610Y-110497656D01*
G36*
X173579648Y-110499100D02*
G01*
X173613289Y-110509191D01*
X173646253Y-110523354D01*
X173684168Y-110543512D01*
X173720719Y-110566751D01*
X173756884Y-110593816D01*
X173793644Y-110625451D01*
X173831979Y-110662400D01*
X173839379Y-110669936D01*
X173877367Y-110710515D01*
X173914847Y-110753842D01*
X173952233Y-110800480D01*
X173989937Y-110850992D01*
X174028372Y-110905942D01*
X174067952Y-110965892D01*
X174109089Y-111031406D01*
X174130731Y-111067024D01*
X174165119Y-111124195D01*
X174158646Y-111144917D01*
X174150956Y-111170496D01*
X174141838Y-111202559D01*
X174131325Y-111240977D01*
X174119449Y-111285621D01*
X174106243Y-111336360D01*
X174091739Y-111393065D01*
X174075969Y-111455607D01*
X174058968Y-111523856D01*
X174040766Y-111597682D01*
X174021397Y-111676956D01*
X174000894Y-111761549D01*
X173979288Y-111851330D01*
X173956613Y-111946171D01*
X173949331Y-111976746D01*
X173926543Y-112072314D01*
X173905140Y-112161619D01*
X173885031Y-112245007D01*
X173866125Y-112322827D01*
X173848330Y-112395424D01*
X173831557Y-112463148D01*
X173815715Y-112526344D01*
X173800711Y-112585360D01*
X173786456Y-112640544D01*
X173772859Y-112692242D01*
X173759828Y-112740802D01*
X173747273Y-112786570D01*
X173735103Y-112829895D01*
X173723227Y-112871124D01*
X173711554Y-112910603D01*
X173699994Y-112948680D01*
X173688454Y-112985702D01*
X173676845Y-113022017D01*
X173670939Y-113040160D01*
X173654983Y-113087555D01*
X173638437Y-113134205D01*
X173621637Y-113179272D01*
X173604921Y-113221915D01*
X173588624Y-113261297D01*
X173573085Y-113296577D01*
X173558640Y-113326916D01*
X173546680Y-113349612D01*
X173533600Y-113372892D01*
X173521536Y-113351306D01*
X173505488Y-113320536D01*
X173488288Y-113283723D01*
X173470156Y-113241456D01*
X173451314Y-113194325D01*
X173431982Y-113142919D01*
X173412380Y-113087828D01*
X173392731Y-113029641D01*
X173373254Y-112968947D01*
X173354171Y-112906336D01*
X173351681Y-112897920D01*
X173334285Y-112837694D01*
X173315734Y-112771155D01*
X173296118Y-112698645D01*
X173275530Y-112620510D01*
X173254063Y-112537092D01*
X173238272Y-112474586D01*
X173231512Y-112447598D01*
X173225105Y-112421941D01*
X173218926Y-112397093D01*
X173212849Y-112372532D01*
X173206747Y-112347735D01*
X173200494Y-112322181D01*
X173193964Y-112295347D01*
X173187032Y-112266711D01*
X173179570Y-112235751D01*
X173171454Y-112201944D01*
X173162556Y-112164768D01*
X173152751Y-112123702D01*
X173141913Y-112078222D01*
X173129916Y-112027807D01*
X173116633Y-111971935D01*
X173101939Y-111910083D01*
X173099272Y-111898853D01*
X173076865Y-111804848D01*
X173055792Y-111717147D01*
X173035970Y-111635427D01*
X173017319Y-111559367D01*
X172999758Y-111488646D01*
X172983207Y-111422942D01*
X172967584Y-111361934D01*
X172952809Y-111305302D01*
X172938802Y-111252722D01*
X172925481Y-111203874D01*
X172916714Y-111172413D01*
X172903378Y-111125000D01*
X172913886Y-111106373D01*
X172924442Y-111088165D01*
X172937963Y-111065622D01*
X172953643Y-111040035D01*
X172970675Y-111012693D01*
X172988255Y-110984889D01*
X173005576Y-110957913D01*
X173021832Y-110933057D01*
X173025932Y-110926880D01*
X173075041Y-110855812D01*
X173123550Y-110790936D01*
X173171387Y-110732329D01*
X173218480Y-110680069D01*
X173264755Y-110634236D01*
X173310142Y-110594908D01*
X173354569Y-110562164D01*
X173370240Y-110552048D01*
X173409773Y-110529324D01*
X173446459Y-110512263D01*
X173481043Y-110500788D01*
X173514271Y-110494820D01*
X173546891Y-110494284D01*
X173579648Y-110499100D01*
G37*
X173579648Y-110499100D02*
X173613289Y-110509191D01*
X173646253Y-110523354D01*
X173684168Y-110543512D01*
X173720719Y-110566751D01*
X173756884Y-110593816D01*
X173793644Y-110625451D01*
X173831979Y-110662400D01*
X173839379Y-110669936D01*
X173877367Y-110710515D01*
X173914847Y-110753842D01*
X173952233Y-110800480D01*
X173989937Y-110850992D01*
X174028372Y-110905942D01*
X174067952Y-110965892D01*
X174109089Y-111031406D01*
X174130731Y-111067024D01*
X174165119Y-111124195D01*
X174158646Y-111144917D01*
X174150956Y-111170496D01*
X174141838Y-111202559D01*
X174131325Y-111240977D01*
X174119449Y-111285621D01*
X174106243Y-111336360D01*
X174091739Y-111393065D01*
X174075969Y-111455607D01*
X174058968Y-111523856D01*
X174040766Y-111597682D01*
X174021397Y-111676956D01*
X174000894Y-111761549D01*
X173979288Y-111851330D01*
X173956613Y-111946171D01*
X173949331Y-111976746D01*
X173926543Y-112072314D01*
X173905140Y-112161619D01*
X173885031Y-112245007D01*
X173866125Y-112322827D01*
X173848330Y-112395424D01*
X173831557Y-112463148D01*
X173815715Y-112526344D01*
X173800711Y-112585360D01*
X173786456Y-112640544D01*
X173772859Y-112692242D01*
X173759828Y-112740802D01*
X173747273Y-112786570D01*
X173735103Y-112829895D01*
X173723227Y-112871124D01*
X173711554Y-112910603D01*
X173699994Y-112948680D01*
X173688454Y-112985702D01*
X173676845Y-113022017D01*
X173670939Y-113040160D01*
X173654983Y-113087555D01*
X173638437Y-113134205D01*
X173621637Y-113179272D01*
X173604921Y-113221915D01*
X173588624Y-113261297D01*
X173573085Y-113296577D01*
X173558640Y-113326916D01*
X173546680Y-113349612D01*
X173533600Y-113372892D01*
X173521536Y-113351306D01*
X173505488Y-113320536D01*
X173488288Y-113283723D01*
X173470156Y-113241456D01*
X173451314Y-113194325D01*
X173431982Y-113142919D01*
X173412380Y-113087828D01*
X173392731Y-113029641D01*
X173373254Y-112968947D01*
X173354171Y-112906336D01*
X173351681Y-112897920D01*
X173334285Y-112837694D01*
X173315734Y-112771155D01*
X173296118Y-112698645D01*
X173275530Y-112620510D01*
X173254063Y-112537092D01*
X173238272Y-112474586D01*
X173231512Y-112447598D01*
X173225105Y-112421941D01*
X173218926Y-112397093D01*
X173212849Y-112372532D01*
X173206747Y-112347735D01*
X173200494Y-112322181D01*
X173193964Y-112295347D01*
X173187032Y-112266711D01*
X173179570Y-112235751D01*
X173171454Y-112201944D01*
X173162556Y-112164768D01*
X173152751Y-112123702D01*
X173141913Y-112078222D01*
X173129916Y-112027807D01*
X173116633Y-111971935D01*
X173101939Y-111910083D01*
X173099272Y-111898853D01*
X173076865Y-111804848D01*
X173055792Y-111717147D01*
X173035970Y-111635427D01*
X173017319Y-111559367D01*
X172999758Y-111488646D01*
X172983207Y-111422942D01*
X172967584Y-111361934D01*
X172952809Y-111305302D01*
X172938802Y-111252722D01*
X172925481Y-111203874D01*
X172916714Y-111172413D01*
X172903378Y-111125000D01*
X172913886Y-111106373D01*
X172924442Y-111088165D01*
X172937963Y-111065622D01*
X172953643Y-111040035D01*
X172970675Y-111012693D01*
X172988255Y-110984889D01*
X173005576Y-110957913D01*
X173021832Y-110933057D01*
X173025932Y-110926880D01*
X173075041Y-110855812D01*
X173123550Y-110790936D01*
X173171387Y-110732329D01*
X173218480Y-110680069D01*
X173264755Y-110634236D01*
X173310142Y-110594908D01*
X173354569Y-110562164D01*
X173370240Y-110552048D01*
X173409773Y-110529324D01*
X173446459Y-110512263D01*
X173481043Y-110500788D01*
X173514271Y-110494820D01*
X173546891Y-110494284D01*
X173579648Y-110499100D01*
G36*
X171407897Y-108837327D02*
G01*
X171554621Y-108847371D01*
X171700316Y-108864022D01*
X171844782Y-108887213D01*
X171987816Y-108916874D01*
X172129217Y-108952936D01*
X172268784Y-108995332D01*
X172406315Y-109043993D01*
X172541609Y-109098851D01*
X172674465Y-109159836D01*
X172804681Y-109226881D01*
X172932055Y-109299917D01*
X173056386Y-109378875D01*
X173177473Y-109463687D01*
X173231386Y-109504156D01*
X173327365Y-109581049D01*
X173422416Y-109663675D01*
X173515468Y-109750994D01*
X173605454Y-109841965D01*
X173691302Y-109935549D01*
X173768134Y-110026026D01*
X173840218Y-110118060D01*
X173910722Y-110215393D01*
X173978663Y-110316578D01*
X174043062Y-110420168D01*
X174088388Y-110498466D01*
X174103266Y-110525710D01*
X174120114Y-110557754D01*
X174138230Y-110593177D01*
X174156912Y-110630555D01*
X174175458Y-110668465D01*
X174193165Y-110705485D01*
X174209331Y-110740193D01*
X174223254Y-110771164D01*
X174225193Y-110775601D01*
X174254413Y-110842763D01*
X174232872Y-110907247D01*
X174211331Y-110971732D01*
X174175506Y-110917979D01*
X174130961Y-110853123D01*
X174087633Y-110794136D01*
X174044985Y-110740345D01*
X174002482Y-110691078D01*
X173959588Y-110645662D01*
X173954563Y-110640614D01*
X173908923Y-110597498D01*
X173864245Y-110560457D01*
X173819849Y-110528994D01*
X173775054Y-110502614D01*
X173744466Y-110487530D01*
X173706612Y-110471563D01*
X173671004Y-110459565D01*
X173635099Y-110450857D01*
X173596352Y-110444759D01*
X173576440Y-110442601D01*
X173520111Y-110440579D01*
X173464171Y-110445317D01*
X173408633Y-110456810D01*
X173353514Y-110475055D01*
X173298828Y-110500048D01*
X173256786Y-110524036D01*
X173230710Y-110540917D01*
X173206472Y-110558222D01*
X173182786Y-110577006D01*
X173158364Y-110598324D01*
X173131919Y-110623232D01*
X173112670Y-110642212D01*
X173076649Y-110679555D01*
X173041811Y-110718475D01*
X173007420Y-110759896D01*
X172972735Y-110804744D01*
X172937018Y-110853944D01*
X172899531Y-110908420D01*
X172896696Y-110912642D01*
X172857331Y-110971356D01*
X172836480Y-110909325D01*
X172817272Y-110853462D01*
X172799041Y-110803201D01*
X172781374Y-110757516D01*
X172763856Y-110715378D01*
X172746075Y-110675760D01*
X172727617Y-110637637D01*
X172724894Y-110632240D01*
X172701212Y-110588145D01*
X172677892Y-110550244D01*
X172654479Y-110518003D01*
X172630517Y-110490893D01*
X172605550Y-110468382D01*
X172579124Y-110449938D01*
X172559133Y-110438976D01*
X172522813Y-110424277D01*
X172482925Y-110413835D01*
X172440642Y-110407608D01*
X172397136Y-110405553D01*
X172353579Y-110407629D01*
X172311142Y-110413794D01*
X172270998Y-110424005D01*
X172234318Y-110438221D01*
X172209785Y-110451487D01*
X172183712Y-110470500D01*
X172158123Y-110494810D01*
X172132906Y-110524606D01*
X172107947Y-110560073D01*
X172083131Y-110601400D01*
X172058345Y-110648772D01*
X172033476Y-110702378D01*
X172008409Y-110762404D01*
X171987529Y-110816813D01*
X171973499Y-110855421D01*
X171959488Y-110895538D01*
X171945410Y-110937476D01*
X171931180Y-110981546D01*
X171916714Y-111028062D01*
X171901926Y-111077335D01*
X171886731Y-111129679D01*
X171871044Y-111185405D01*
X171854780Y-111244827D01*
X171837855Y-111308255D01*
X171820182Y-111376004D01*
X171801677Y-111448385D01*
X171782255Y-111525710D01*
X171761830Y-111608293D01*
X171740319Y-111696445D01*
X171717635Y-111790479D01*
X171693693Y-111890707D01*
X171683718Y-111932720D01*
X171662715Y-112021189D01*
X171643121Y-112103446D01*
X171624835Y-112179882D01*
X171607760Y-112250889D01*
X171591797Y-112316858D01*
X171576846Y-112378180D01*
X171562808Y-112435248D01*
X171549585Y-112488452D01*
X171537078Y-112538183D01*
X171525188Y-112584833D01*
X171513815Y-112628794D01*
X171502861Y-112670457D01*
X171492228Y-112710214D01*
X171481815Y-112748455D01*
X171471524Y-112785572D01*
X171461257Y-112821956D01*
X171450913Y-112858000D01*
X171442748Y-112886066D01*
X171423516Y-112950112D01*
X171403904Y-113012186D01*
X171384124Y-113071723D01*
X171364384Y-113128158D01*
X171344895Y-113180927D01*
X171325867Y-113229463D01*
X171307511Y-113273202D01*
X171290037Y-113311578D01*
X171273655Y-113344026D01*
X171269696Y-113351251D01*
X171257673Y-113372782D01*
X171248948Y-113357895D01*
X171235543Y-113333207D01*
X171220758Y-113302697D01*
X171204887Y-113267106D01*
X171188223Y-113227174D01*
X171171060Y-113183642D01*
X171153691Y-113137250D01*
X171136410Y-113088741D01*
X171119510Y-113038855D01*
X171106265Y-112997826D01*
X171094486Y-112960081D01*
X171082810Y-112921794D01*
X171071139Y-112882591D01*
X171059377Y-112842094D01*
X171047425Y-112799927D01*
X171035185Y-112755715D01*
X171022559Y-112709080D01*
X171009451Y-112659647D01*
X170995761Y-112607040D01*
X170981392Y-112550882D01*
X170966247Y-112490797D01*
X170950228Y-112426409D01*
X170933236Y-112357342D01*
X170915175Y-112283219D01*
X170895946Y-112203665D01*
X170875451Y-112118302D01*
X170853593Y-112026756D01*
X170850542Y-112013944D01*
X170827498Y-111917349D01*
X170805842Y-111827025D01*
X170785485Y-111742631D01*
X170766338Y-111663827D01*
X170748311Y-111590275D01*
X170731315Y-111521634D01*
X170715261Y-111457564D01*
X170700058Y-111397725D01*
X170685619Y-111341778D01*
X170671854Y-111289383D01*
X170658673Y-111240200D01*
X170645987Y-111193889D01*
X170633706Y-111150110D01*
X170621742Y-111108524D01*
X170610006Y-111068790D01*
X170598407Y-111030570D01*
X170586856Y-110993522D01*
X170575265Y-110957308D01*
X170563544Y-110921586D01*
X170563052Y-110920106D01*
X170538602Y-110848774D01*
X170514769Y-110783915D01*
X170491393Y-110725273D01*
X170468314Y-110672595D01*
X170445373Y-110625623D01*
X170422411Y-110584103D01*
X170399268Y-110547779D01*
X170375785Y-110516396D01*
X170351801Y-110489699D01*
X170327158Y-110467432D01*
X170301697Y-110449339D01*
X170275256Y-110435166D01*
X170255208Y-110427134D01*
X170213675Y-110415632D01*
X170168952Y-110408534D01*
X170122693Y-110405855D01*
X170076550Y-110407612D01*
X170032178Y-110413822D01*
X169991259Y-110424491D01*
X169971821Y-110431356D01*
X169956401Y-110437942D01*
X169942432Y-110445570D01*
X169927350Y-110455560D01*
X169918346Y-110462033D01*
X169893748Y-110482563D01*
X169869562Y-110507991D01*
X169845675Y-110538527D01*
X169821973Y-110574381D01*
X169798342Y-110615764D01*
X169774670Y-110662884D01*
X169750842Y-110715952D01*
X169726745Y-110775177D01*
X169702266Y-110840770D01*
X169681994Y-110898965D01*
X169657615Y-110970957D01*
X169614797Y-110907432D01*
X169577624Y-110853475D01*
X169542352Y-110804846D01*
X169508243Y-110760633D01*
X169474561Y-110719925D01*
X169440568Y-110681811D01*
X169405529Y-110645379D01*
X169392161Y-110632154D01*
X169350198Y-110593106D01*
X169309788Y-110559639D01*
X169269943Y-110531056D01*
X169229673Y-110506661D01*
X169187989Y-110485755D01*
X169178048Y-110481346D01*
X169124034Y-110461558D01*
X169068680Y-110448270D01*
X169012497Y-110441466D01*
X168955997Y-110441130D01*
X168899691Y-110447248D01*
X168844090Y-110459803D01*
X168789706Y-110478779D01*
X168755906Y-110494221D01*
X168708261Y-110520932D01*
X168660702Y-110553306D01*
X168613092Y-110591484D01*
X168565295Y-110635602D01*
X168517175Y-110685800D01*
X168468595Y-110742217D01*
X168419419Y-110804989D01*
X168369511Y-110874257D01*
X168342428Y-110914081D01*
X168330855Y-110931360D01*
X168320666Y-110946450D01*
X168312413Y-110958542D01*
X168306648Y-110966830D01*
X168303923Y-110970507D01*
X168303781Y-110970601D01*
X168302747Y-110967105D01*
X168299877Y-110958228D01*
X168295511Y-110945001D01*
X168289989Y-110928455D01*
X168283827Y-110910140D01*
X168263879Y-110851068D01*
X168289259Y-110791607D01*
X168348484Y-110661402D01*
X168413930Y-110533549D01*
X168485357Y-110408368D01*
X168562526Y-110286175D01*
X168645197Y-110167291D01*
X168733131Y-110052032D01*
X168826087Y-109940719D01*
X168923827Y-109833669D01*
X169026110Y-109731200D01*
X169132696Y-109633632D01*
X169209720Y-109568436D01*
X169326208Y-109477348D01*
X169446221Y-109391957D01*
X169569554Y-109312339D01*
X169695998Y-109238567D01*
X169825349Y-109170715D01*
X169957399Y-109108858D01*
X170091942Y-109053068D01*
X170228772Y-109003421D01*
X170367683Y-108959989D01*
X170508468Y-108922847D01*
X170650920Y-108892068D01*
X170794833Y-108867728D01*
X170940002Y-108849899D01*
X171086218Y-108838655D01*
X171233277Y-108834071D01*
X171260346Y-108833959D01*
X171407897Y-108837327D01*
G37*
X171407897Y-108837327D02*
X171554621Y-108847371D01*
X171700316Y-108864022D01*
X171844782Y-108887213D01*
X171987816Y-108916874D01*
X172129217Y-108952936D01*
X172268784Y-108995332D01*
X172406315Y-109043993D01*
X172541609Y-109098851D01*
X172674465Y-109159836D01*
X172804681Y-109226881D01*
X172932055Y-109299917D01*
X173056386Y-109378875D01*
X173177473Y-109463687D01*
X173231386Y-109504156D01*
X173327365Y-109581049D01*
X173422416Y-109663675D01*
X173515468Y-109750994D01*
X173605454Y-109841965D01*
X173691302Y-109935549D01*
X173768134Y-110026026D01*
X173840218Y-110118060D01*
X173910722Y-110215393D01*
X173978663Y-110316578D01*
X174043062Y-110420168D01*
X174088388Y-110498466D01*
X174103266Y-110525710D01*
X174120114Y-110557754D01*
X174138230Y-110593177D01*
X174156912Y-110630555D01*
X174175458Y-110668465D01*
X174193165Y-110705485D01*
X174209331Y-110740193D01*
X174223254Y-110771164D01*
X174225193Y-110775601D01*
X174254413Y-110842763D01*
X174232872Y-110907247D01*
X174211331Y-110971732D01*
X174175506Y-110917979D01*
X174130961Y-110853123D01*
X174087633Y-110794136D01*
X174044985Y-110740345D01*
X174002482Y-110691078D01*
X173959588Y-110645662D01*
X173954563Y-110640614D01*
X173908923Y-110597498D01*
X173864245Y-110560457D01*
X173819849Y-110528994D01*
X173775054Y-110502614D01*
X173744466Y-110487530D01*
X173706612Y-110471563D01*
X173671004Y-110459565D01*
X173635099Y-110450857D01*
X173596352Y-110444759D01*
X173576440Y-110442601D01*
X173520111Y-110440579D01*
X173464171Y-110445317D01*
X173408633Y-110456810D01*
X173353514Y-110475055D01*
X173298828Y-110500048D01*
X173256786Y-110524036D01*
X173230710Y-110540917D01*
X173206472Y-110558222D01*
X173182786Y-110577006D01*
X173158364Y-110598324D01*
X173131919Y-110623232D01*
X173112670Y-110642212D01*
X173076649Y-110679555D01*
X173041811Y-110718475D01*
X173007420Y-110759896D01*
X172972735Y-110804744D01*
X172937018Y-110853944D01*
X172899531Y-110908420D01*
X172896696Y-110912642D01*
X172857331Y-110971356D01*
X172836480Y-110909325D01*
X172817272Y-110853462D01*
X172799041Y-110803201D01*
X172781374Y-110757516D01*
X172763856Y-110715378D01*
X172746075Y-110675760D01*
X172727617Y-110637637D01*
X172724894Y-110632240D01*
X172701212Y-110588145D01*
X172677892Y-110550244D01*
X172654479Y-110518003D01*
X172630517Y-110490893D01*
X172605550Y-110468382D01*
X172579124Y-110449938D01*
X172559133Y-110438976D01*
X172522813Y-110424277D01*
X172482925Y-110413835D01*
X172440642Y-110407608D01*
X172397136Y-110405553D01*
X172353579Y-110407629D01*
X172311142Y-110413794D01*
X172270998Y-110424005D01*
X172234318Y-110438221D01*
X172209785Y-110451487D01*
X172183712Y-110470500D01*
X172158123Y-110494810D01*
X172132906Y-110524606D01*
X172107947Y-110560073D01*
X172083131Y-110601400D01*
X172058345Y-110648772D01*
X172033476Y-110702378D01*
X172008409Y-110762404D01*
X171987529Y-110816813D01*
X171973499Y-110855421D01*
X171959488Y-110895538D01*
X171945410Y-110937476D01*
X171931180Y-110981546D01*
X171916714Y-111028062D01*
X171901926Y-111077335D01*
X171886731Y-111129679D01*
X171871044Y-111185405D01*
X171854780Y-111244827D01*
X171837855Y-111308255D01*
X171820182Y-111376004D01*
X171801677Y-111448385D01*
X171782255Y-111525710D01*
X171761830Y-111608293D01*
X171740319Y-111696445D01*
X171717635Y-111790479D01*
X171693693Y-111890707D01*
X171683718Y-111932720D01*
X171662715Y-112021189D01*
X171643121Y-112103446D01*
X171624835Y-112179882D01*
X171607760Y-112250889D01*
X171591797Y-112316858D01*
X171576846Y-112378180D01*
X171562808Y-112435248D01*
X171549585Y-112488452D01*
X171537078Y-112538183D01*
X171525188Y-112584833D01*
X171513815Y-112628794D01*
X171502861Y-112670457D01*
X171492228Y-112710214D01*
X171481815Y-112748455D01*
X171471524Y-112785572D01*
X171461257Y-112821956D01*
X171450913Y-112858000D01*
X171442748Y-112886066D01*
X171423516Y-112950112D01*
X171403904Y-113012186D01*
X171384124Y-113071723D01*
X171364384Y-113128158D01*
X171344895Y-113180927D01*
X171325867Y-113229463D01*
X171307511Y-113273202D01*
X171290037Y-113311578D01*
X171273655Y-113344026D01*
X171269696Y-113351251D01*
X171257673Y-113372782D01*
X171248948Y-113357895D01*
X171235543Y-113333207D01*
X171220758Y-113302697D01*
X171204887Y-113267106D01*
X171188223Y-113227174D01*
X171171060Y-113183642D01*
X171153691Y-113137250D01*
X171136410Y-113088741D01*
X171119510Y-113038855D01*
X171106265Y-112997826D01*
X171094486Y-112960081D01*
X171082810Y-112921794D01*
X171071139Y-112882591D01*
X171059377Y-112842094D01*
X171047425Y-112799927D01*
X171035185Y-112755715D01*
X171022559Y-112709080D01*
X171009451Y-112659647D01*
X170995761Y-112607040D01*
X170981392Y-112550882D01*
X170966247Y-112490797D01*
X170950228Y-112426409D01*
X170933236Y-112357342D01*
X170915175Y-112283219D01*
X170895946Y-112203665D01*
X170875451Y-112118302D01*
X170853593Y-112026756D01*
X170850542Y-112013944D01*
X170827498Y-111917349D01*
X170805842Y-111827025D01*
X170785485Y-111742631D01*
X170766338Y-111663827D01*
X170748311Y-111590275D01*
X170731315Y-111521634D01*
X170715261Y-111457564D01*
X170700058Y-111397725D01*
X170685619Y-111341778D01*
X170671854Y-111289383D01*
X170658673Y-111240200D01*
X170645987Y-111193889D01*
X170633706Y-111150110D01*
X170621742Y-111108524D01*
X170610006Y-111068790D01*
X170598407Y-111030570D01*
X170586856Y-110993522D01*
X170575265Y-110957308D01*
X170563544Y-110921586D01*
X170563052Y-110920106D01*
X170538602Y-110848774D01*
X170514769Y-110783915D01*
X170491393Y-110725273D01*
X170468314Y-110672595D01*
X170445373Y-110625623D01*
X170422411Y-110584103D01*
X170399268Y-110547779D01*
X170375785Y-110516396D01*
X170351801Y-110489699D01*
X170327158Y-110467432D01*
X170301697Y-110449339D01*
X170275256Y-110435166D01*
X170255208Y-110427134D01*
X170213675Y-110415632D01*
X170168952Y-110408534D01*
X170122693Y-110405855D01*
X170076550Y-110407612D01*
X170032178Y-110413822D01*
X169991259Y-110424491D01*
X169971821Y-110431356D01*
X169956401Y-110437942D01*
X169942432Y-110445570D01*
X169927350Y-110455560D01*
X169918346Y-110462033D01*
X169893748Y-110482563D01*
X169869562Y-110507991D01*
X169845675Y-110538527D01*
X169821973Y-110574381D01*
X169798342Y-110615764D01*
X169774670Y-110662884D01*
X169750842Y-110715952D01*
X169726745Y-110775177D01*
X169702266Y-110840770D01*
X169681994Y-110898965D01*
X169657615Y-110970957D01*
X169614797Y-110907432D01*
X169577624Y-110853475D01*
X169542352Y-110804846D01*
X169508243Y-110760633D01*
X169474561Y-110719925D01*
X169440568Y-110681811D01*
X169405529Y-110645379D01*
X169392161Y-110632154D01*
X169350198Y-110593106D01*
X169309788Y-110559639D01*
X169269943Y-110531056D01*
X169229673Y-110506661D01*
X169187989Y-110485755D01*
X169178048Y-110481346D01*
X169124034Y-110461558D01*
X169068680Y-110448270D01*
X169012497Y-110441466D01*
X168955997Y-110441130D01*
X168899691Y-110447248D01*
X168844090Y-110459803D01*
X168789706Y-110478779D01*
X168755906Y-110494221D01*
X168708261Y-110520932D01*
X168660702Y-110553306D01*
X168613092Y-110591484D01*
X168565295Y-110635602D01*
X168517175Y-110685800D01*
X168468595Y-110742217D01*
X168419419Y-110804989D01*
X168369511Y-110874257D01*
X168342428Y-110914081D01*
X168330855Y-110931360D01*
X168320666Y-110946450D01*
X168312413Y-110958542D01*
X168306648Y-110966830D01*
X168303923Y-110970507D01*
X168303781Y-110970601D01*
X168302747Y-110967105D01*
X168299877Y-110958228D01*
X168295511Y-110945001D01*
X168289989Y-110928455D01*
X168283827Y-110910140D01*
X168263879Y-110851068D01*
X168289259Y-110791607D01*
X168348484Y-110661402D01*
X168413930Y-110533549D01*
X168485357Y-110408368D01*
X168562526Y-110286175D01*
X168645197Y-110167291D01*
X168733131Y-110052032D01*
X168826087Y-109940719D01*
X168923827Y-109833669D01*
X169026110Y-109731200D01*
X169132696Y-109633632D01*
X169209720Y-109568436D01*
X169326208Y-109477348D01*
X169446221Y-109391957D01*
X169569554Y-109312339D01*
X169695998Y-109238567D01*
X169825349Y-109170715D01*
X169957399Y-109108858D01*
X170091942Y-109053068D01*
X170228772Y-109003421D01*
X170367683Y-108959989D01*
X170508468Y-108922847D01*
X170650920Y-108892068D01*
X170794833Y-108867728D01*
X170940002Y-108849899D01*
X171086218Y-108838655D01*
X171233277Y-108834071D01*
X171260346Y-108833959D01*
X171407897Y-108837327D01*
G36*
X172693837Y-111523500D02*
G01*
X172694667Y-111525406D01*
X172695851Y-111528960D01*
X172697465Y-111534468D01*
X172699583Y-111542239D01*
X172702281Y-111552580D01*
X172705635Y-111565799D01*
X172709719Y-111582204D01*
X172714608Y-111602102D01*
X172720379Y-111625800D01*
X172727105Y-111653608D01*
X172734863Y-111685832D01*
X172743727Y-111722780D01*
X172753772Y-111764759D01*
X172765075Y-111812079D01*
X172777710Y-111865045D01*
X172791752Y-111923966D01*
X172807276Y-111989150D01*
X172808355Y-111993680D01*
X172820301Y-112043777D01*
X172832545Y-112094976D01*
X172844900Y-112146503D01*
X172857178Y-112197584D01*
X172869193Y-112247446D01*
X172880757Y-112295314D01*
X172891684Y-112340414D01*
X172901787Y-112381973D01*
X172910878Y-112419217D01*
X172918772Y-112451372D01*
X172924936Y-112476280D01*
X172951809Y-112582680D01*
X172977857Y-112682531D01*
X173003141Y-112775997D01*
X173027720Y-112863243D01*
X173051654Y-112944436D01*
X173075003Y-113019739D01*
X173097826Y-113089319D01*
X173120184Y-113153340D01*
X173142137Y-113211968D01*
X173163744Y-113265368D01*
X173185065Y-113313706D01*
X173206160Y-113357147D01*
X173227089Y-113395855D01*
X173247912Y-113429997D01*
X173268688Y-113459738D01*
X173289478Y-113485242D01*
X173291027Y-113486975D01*
X173309860Y-113505406D01*
X173332319Y-113523460D01*
X173356146Y-113539508D01*
X173379083Y-113551925D01*
X173384413Y-113554271D01*
X173416690Y-113565622D01*
X173451167Y-113573502D01*
X173489141Y-113578131D01*
X173531912Y-113579731D01*
X173534493Y-113579735D01*
X173577222Y-113578331D01*
X173615003Y-113573972D01*
X173649084Y-113566443D01*
X173680713Y-113555525D01*
X173685670Y-113553432D01*
X173707088Y-113543258D01*
X173725660Y-113532163D01*
X173743314Y-113518774D01*
X173761979Y-113501721D01*
X173770822Y-113492895D01*
X173795136Y-113465304D01*
X173819196Y-113432219D01*
X173843138Y-113393402D01*
X173867092Y-113348615D01*
X173891194Y-113297620D01*
X173915576Y-113240179D01*
X173923266Y-113220889D01*
X173939438Y-113178633D01*
X173955731Y-113133789D01*
X173972223Y-113086075D01*
X173988993Y-113035208D01*
X174006121Y-112980907D01*
X174023684Y-112922890D01*
X174041763Y-112860874D01*
X174060435Y-112794578D01*
X174079780Y-112723719D01*
X174099876Y-112648016D01*
X174120803Y-112567187D01*
X174142639Y-112480949D01*
X174165463Y-112389021D01*
X174189355Y-112291121D01*
X174214392Y-112186966D01*
X174225337Y-112141000D01*
X174243822Y-112063189D01*
X174260812Y-111991739D01*
X174276363Y-111926415D01*
X174290532Y-111866984D01*
X174303375Y-111813213D01*
X174314950Y-111764868D01*
X174325313Y-111721717D01*
X174334521Y-111683526D01*
X174342631Y-111650061D01*
X174349699Y-111621090D01*
X174355782Y-111596378D01*
X174360937Y-111575694D01*
X174365220Y-111558802D01*
X174368689Y-111545471D01*
X174371400Y-111535466D01*
X174373409Y-111528555D01*
X174374774Y-111524504D01*
X174375551Y-111523080D01*
X174375595Y-111523073D01*
X174377539Y-111526041D01*
X174382062Y-111534405D01*
X174388808Y-111547459D01*
X174397418Y-111564494D01*
X174407533Y-111584805D01*
X174418796Y-111607685D01*
X174427497Y-111625520D01*
X174477221Y-111727826D01*
X174480868Y-111761693D01*
X174492205Y-111897517D01*
X174497227Y-112035129D01*
X174495990Y-112174017D01*
X174488549Y-112313669D01*
X174474960Y-112453572D01*
X174455279Y-112593215D01*
X174429562Y-112732085D01*
X174397864Y-112869671D01*
X174360241Y-113005459D01*
X174337626Y-113077413D01*
X174288411Y-113216827D01*
X174233091Y-113353408D01*
X174171796Y-113486980D01*
X174104652Y-113617365D01*
X174031786Y-113744386D01*
X173953326Y-113867868D01*
X173869399Y-113987632D01*
X173780132Y-114103504D01*
X173685653Y-114215305D01*
X173586088Y-114322860D01*
X173481566Y-114425991D01*
X173372213Y-114524521D01*
X173258156Y-114618275D01*
X173190746Y-114669764D01*
X173070502Y-114754954D01*
X172946767Y-114834396D01*
X172819767Y-114908005D01*
X172689725Y-114975695D01*
X172556868Y-115037382D01*
X172421418Y-115092981D01*
X172283602Y-115142408D01*
X172143643Y-115185576D01*
X172001767Y-115222402D01*
X171858197Y-115252800D01*
X171713159Y-115276686D01*
X171566877Y-115293975D01*
X171529586Y-115297302D01*
X171464271Y-115301980D01*
X171395961Y-115305449D01*
X171326707Y-115307658D01*
X171258562Y-115308554D01*
X171193576Y-115308084D01*
X171151973Y-115306949D01*
X171003047Y-115298143D01*
X170855335Y-115282725D01*
X170709008Y-115260747D01*
X170564236Y-115232259D01*
X170421193Y-115197311D01*
X170280048Y-115155954D01*
X170140974Y-115108240D01*
X170004142Y-115054218D01*
X169869722Y-114993939D01*
X169737887Y-114927455D01*
X169608807Y-114854815D01*
X169594106Y-114846044D01*
X169476231Y-114771909D01*
X169363008Y-114693701D01*
X169253744Y-114610876D01*
X169147744Y-114522892D01*
X169044315Y-114429204D01*
X168972543Y-114359408D01*
X168911968Y-114297529D01*
X168855883Y-114237430D01*
X168802906Y-114177516D01*
X168751657Y-114116189D01*
X168700754Y-114051851D01*
X168659711Y-113997621D01*
X168576071Y-113879564D01*
X168498015Y-113757983D01*
X168425618Y-113633147D01*
X168358955Y-113505326D01*
X168298101Y-113374790D01*
X168243131Y-113241806D01*
X168194120Y-113106644D01*
X168151143Y-112969575D01*
X168114275Y-112830865D01*
X168083591Y-112690786D01*
X168059166Y-112549606D01*
X168041075Y-112407594D01*
X168029394Y-112265019D01*
X168024196Y-112122151D01*
X168025558Y-111979259D01*
X168033554Y-111836612D01*
X168039409Y-111771853D01*
X168045583Y-111710893D01*
X168092043Y-111616066D01*
X168105330Y-111589077D01*
X168116018Y-111567702D01*
X168124396Y-111551425D01*
X168130753Y-111539734D01*
X168135379Y-111532114D01*
X168138562Y-111528052D01*
X168140591Y-111527033D01*
X168141555Y-111528013D01*
X168142498Y-111530627D01*
X168143947Y-111535498D01*
X168145975Y-111542932D01*
X168148658Y-111553236D01*
X168152070Y-111566719D01*
X168156286Y-111583686D01*
X168161380Y-111604446D01*
X168167428Y-111629304D01*
X168174504Y-111658569D01*
X168182683Y-111692548D01*
X168192040Y-111731548D01*
X168202648Y-111775875D01*
X168214583Y-111825837D01*
X168227920Y-111881742D01*
X168242733Y-111943896D01*
X168244508Y-111951346D01*
X168267090Y-112045992D01*
X168288256Y-112134374D01*
X168308096Y-112216830D01*
X168326696Y-112293699D01*
X168344148Y-112365323D01*
X168360538Y-112432038D01*
X168375955Y-112494186D01*
X168390490Y-112552105D01*
X168404229Y-112606135D01*
X168417262Y-112656615D01*
X168429677Y-112703884D01*
X168441563Y-112748282D01*
X168453009Y-112790148D01*
X168464104Y-112829821D01*
X168474935Y-112867642D01*
X168485593Y-112903948D01*
X168496164Y-112939081D01*
X168506739Y-112973378D01*
X168517406Y-113007179D01*
X168528253Y-113040824D01*
X168533019Y-113055400D01*
X168557323Y-113127199D01*
X168581015Y-113192527D01*
X168604246Y-113251640D01*
X168627163Y-113304799D01*
X168649917Y-113352260D01*
X168672655Y-113394282D01*
X168695526Y-113431124D01*
X168718681Y-113463044D01*
X168742267Y-113490300D01*
X168766433Y-113513152D01*
X168791328Y-113531856D01*
X168815820Y-113546034D01*
X168854864Y-113562124D01*
X168897793Y-113573460D01*
X168943495Y-113579864D01*
X168990859Y-113581153D01*
X169021007Y-113579264D01*
X169056512Y-113574738D01*
X169087379Y-113568342D01*
X169115611Y-113559547D01*
X169143208Y-113547823D01*
X169147066Y-113545952D01*
X169161810Y-113538331D01*
X169173916Y-113530958D01*
X169185184Y-113522486D01*
X169197416Y-113511566D01*
X169211609Y-113497658D01*
X169234347Y-113473090D01*
X169255333Y-113446512D01*
X169275366Y-113416742D01*
X169295248Y-113382599D01*
X169313924Y-113346653D01*
X169334722Y-113302835D01*
X169355531Y-113255050D01*
X169376453Y-113202994D01*
X169397592Y-113146361D01*
X169419051Y-113084849D01*
X169440933Y-113018150D01*
X169463340Y-112945962D01*
X169486375Y-112867979D01*
X169510143Y-112783896D01*
X169534674Y-112693676D01*
X169540812Y-112670382D01*
X169548372Y-112641160D01*
X169557193Y-112606663D01*
X169567110Y-112567548D01*
X169577963Y-112524472D01*
X169589589Y-112478088D01*
X169601825Y-112429054D01*
X169614508Y-112378025D01*
X169627477Y-112325657D01*
X169640568Y-112272605D01*
X169653619Y-112219525D01*
X169666469Y-112167074D01*
X169678953Y-112115906D01*
X169690910Y-112066678D01*
X169702178Y-112020045D01*
X169712594Y-111976663D01*
X169719438Y-111947960D01*
X169732699Y-111892243D01*
X169745378Y-111839126D01*
X169757394Y-111788946D01*
X169768664Y-111742045D01*
X169779105Y-111698761D01*
X169788634Y-111659434D01*
X169797169Y-111624405D01*
X169804626Y-111594012D01*
X169810924Y-111568595D01*
X169815979Y-111548495D01*
X169819709Y-111534051D01*
X169822031Y-111525602D01*
X169822803Y-111523401D01*
X169824705Y-111525928D01*
X169829344Y-111534264D01*
X169836565Y-111548092D01*
X169846213Y-111567095D01*
X169858134Y-111590958D01*
X169872173Y-111619363D01*
X169888176Y-111651994D01*
X169905989Y-111688534D01*
X169925456Y-111728667D01*
X169946424Y-111772076D01*
X169968738Y-111818444D01*
X169992243Y-111867454D01*
X170016785Y-111918791D01*
X170042210Y-111972137D01*
X170059697Y-112008920D01*
X170101512Y-112096751D01*
X170140766Y-112178752D01*
X170177641Y-112255284D01*
X170212317Y-112326710D01*
X170244977Y-112393392D01*
X170275802Y-112455693D01*
X170304972Y-112513976D01*
X170332669Y-112568602D01*
X170359075Y-112619934D01*
X170384371Y-112668335D01*
X170408737Y-112714167D01*
X170432356Y-112757792D01*
X170453201Y-112795606D01*
X170506591Y-112889254D01*
X170558922Y-112976252D01*
X170610222Y-113056635D01*
X170660517Y-113130438D01*
X170709837Y-113197696D01*
X170758208Y-113258444D01*
X170805658Y-113312718D01*
X170852215Y-113360552D01*
X170897907Y-113401982D01*
X170942761Y-113437044D01*
X170975215Y-113458776D01*
X170991411Y-113469728D01*
X171008708Y-113482844D01*
X171024073Y-113495787D01*
X171028079Y-113499504D01*
X171053883Y-113521986D01*
X171079479Y-113539365D01*
X171106892Y-113552931D01*
X171119481Y-113557820D01*
X171164185Y-113570715D01*
X171211894Y-113578447D01*
X171261160Y-113580953D01*
X171310534Y-113578175D01*
X171358568Y-113570053D01*
X171366714Y-113568081D01*
X171404822Y-113555493D01*
X171440234Y-113537996D01*
X171471729Y-113516275D01*
X171492333Y-113497325D01*
X171500804Y-113489610D01*
X171513235Y-113479751D01*
X171527806Y-113469137D01*
X171539746Y-113461061D01*
X171584802Y-113429273D01*
X171629804Y-113392545D01*
X171674899Y-113350695D01*
X171720236Y-113303543D01*
X171765964Y-113250905D01*
X171812230Y-113192600D01*
X171859183Y-113128446D01*
X171906973Y-113058262D01*
X171955746Y-112981865D01*
X172005651Y-112899074D01*
X172023670Y-112868107D01*
X172050226Y-112821321D01*
X172078497Y-112770059D01*
X172108566Y-112714154D01*
X172140517Y-112653441D01*
X172174434Y-112587755D01*
X172210401Y-112516928D01*
X172248501Y-112440796D01*
X172288818Y-112359193D01*
X172331436Y-112271953D01*
X172376439Y-112178910D01*
X172423911Y-112079899D01*
X172458523Y-112007226D01*
X172489436Y-111942218D01*
X172518504Y-111881216D01*
X172545643Y-111824392D01*
X172570771Y-111771915D01*
X172593805Y-111723958D01*
X172614661Y-111680691D01*
X172633258Y-111642285D01*
X172649511Y-111608911D01*
X172663339Y-111580741D01*
X172674658Y-111557944D01*
X172683386Y-111540693D01*
X172689439Y-111529157D01*
X172692735Y-111523509D01*
X172693287Y-111522933D01*
X172693837Y-111523500D01*
G37*
X172693837Y-111523500D02*
X172694667Y-111525406D01*
X172695851Y-111528960D01*
X172697465Y-111534468D01*
X172699583Y-111542239D01*
X172702281Y-111552580D01*
X172705635Y-111565799D01*
X172709719Y-111582204D01*
X172714608Y-111602102D01*
X172720379Y-111625800D01*
X172727105Y-111653608D01*
X172734863Y-111685832D01*
X172743727Y-111722780D01*
X172753772Y-111764759D01*
X172765075Y-111812079D01*
X172777710Y-111865045D01*
X172791752Y-111923966D01*
X172807276Y-111989150D01*
X172808355Y-111993680D01*
X172820301Y-112043777D01*
X172832545Y-112094976D01*
X172844900Y-112146503D01*
X172857178Y-112197584D01*
X172869193Y-112247446D01*
X172880757Y-112295314D01*
X172891684Y-112340414D01*
X172901787Y-112381973D01*
X172910878Y-112419217D01*
X172918772Y-112451372D01*
X172924936Y-112476280D01*
X172951809Y-112582680D01*
X172977857Y-112682531D01*
X173003141Y-112775997D01*
X173027720Y-112863243D01*
X173051654Y-112944436D01*
X173075003Y-113019739D01*
X173097826Y-113089319D01*
X173120184Y-113153340D01*
X173142137Y-113211968D01*
X173163744Y-113265368D01*
X173185065Y-113313706D01*
X173206160Y-113357147D01*
X173227089Y-113395855D01*
X173247912Y-113429997D01*
X173268688Y-113459738D01*
X173289478Y-113485242D01*
X173291027Y-113486975D01*
X173309860Y-113505406D01*
X173332319Y-113523460D01*
X173356146Y-113539508D01*
X173379083Y-113551925D01*
X173384413Y-113554271D01*
X173416690Y-113565622D01*
X173451167Y-113573502D01*
X173489141Y-113578131D01*
X173531912Y-113579731D01*
X173534493Y-113579735D01*
X173577222Y-113578331D01*
X173615003Y-113573972D01*
X173649084Y-113566443D01*
X173680713Y-113555525D01*
X173685670Y-113553432D01*
X173707088Y-113543258D01*
X173725660Y-113532163D01*
X173743314Y-113518774D01*
X173761979Y-113501721D01*
X173770822Y-113492895D01*
X173795136Y-113465304D01*
X173819196Y-113432219D01*
X173843138Y-113393402D01*
X173867092Y-113348615D01*
X173891194Y-113297620D01*
X173915576Y-113240179D01*
X173923266Y-113220889D01*
X173939438Y-113178633D01*
X173955731Y-113133789D01*
X173972223Y-113086075D01*
X173988993Y-113035208D01*
X174006121Y-112980907D01*
X174023684Y-112922890D01*
X174041763Y-112860874D01*
X174060435Y-112794578D01*
X174079780Y-112723719D01*
X174099876Y-112648016D01*
X174120803Y-112567187D01*
X174142639Y-112480949D01*
X174165463Y-112389021D01*
X174189355Y-112291121D01*
X174214392Y-112186966D01*
X174225337Y-112141000D01*
X174243822Y-112063189D01*
X174260812Y-111991739D01*
X174276363Y-111926415D01*
X174290532Y-111866984D01*
X174303375Y-111813213D01*
X174314950Y-111764868D01*
X174325313Y-111721717D01*
X174334521Y-111683526D01*
X174342631Y-111650061D01*
X174349699Y-111621090D01*
X174355782Y-111596378D01*
X174360937Y-111575694D01*
X174365220Y-111558802D01*
X174368689Y-111545471D01*
X174371400Y-111535466D01*
X174373409Y-111528555D01*
X174374774Y-111524504D01*
X174375551Y-111523080D01*
X174375595Y-111523073D01*
X174377539Y-111526041D01*
X174382062Y-111534405D01*
X174388808Y-111547459D01*
X174397418Y-111564494D01*
X174407533Y-111584805D01*
X174418796Y-111607685D01*
X174427497Y-111625520D01*
X174477221Y-111727826D01*
X174480868Y-111761693D01*
X174492205Y-111897517D01*
X174497227Y-112035129D01*
X174495990Y-112174017D01*
X174488549Y-112313669D01*
X174474960Y-112453572D01*
X174455279Y-112593215D01*
X174429562Y-112732085D01*
X174397864Y-112869671D01*
X174360241Y-113005459D01*
X174337626Y-113077413D01*
X174288411Y-113216827D01*
X174233091Y-113353408D01*
X174171796Y-113486980D01*
X174104652Y-113617365D01*
X174031786Y-113744386D01*
X173953326Y-113867868D01*
X173869399Y-113987632D01*
X173780132Y-114103504D01*
X173685653Y-114215305D01*
X173586088Y-114322860D01*
X173481566Y-114425991D01*
X173372213Y-114524521D01*
X173258156Y-114618275D01*
X173190746Y-114669764D01*
X173070502Y-114754954D01*
X172946767Y-114834396D01*
X172819767Y-114908005D01*
X172689725Y-114975695D01*
X172556868Y-115037382D01*
X172421418Y-115092981D01*
X172283602Y-115142408D01*
X172143643Y-115185576D01*
X172001767Y-115222402D01*
X171858197Y-115252800D01*
X171713159Y-115276686D01*
X171566877Y-115293975D01*
X171529586Y-115297302D01*
X171464271Y-115301980D01*
X171395961Y-115305449D01*
X171326707Y-115307658D01*
X171258562Y-115308554D01*
X171193576Y-115308084D01*
X171151973Y-115306949D01*
X171003047Y-115298143D01*
X170855335Y-115282725D01*
X170709008Y-115260747D01*
X170564236Y-115232259D01*
X170421193Y-115197311D01*
X170280048Y-115155954D01*
X170140974Y-115108240D01*
X170004142Y-115054218D01*
X169869722Y-114993939D01*
X169737887Y-114927455D01*
X169608807Y-114854815D01*
X169594106Y-114846044D01*
X169476231Y-114771909D01*
X169363008Y-114693701D01*
X169253744Y-114610876D01*
X169147744Y-114522892D01*
X169044315Y-114429204D01*
X168972543Y-114359408D01*
X168911968Y-114297529D01*
X168855883Y-114237430D01*
X168802906Y-114177516D01*
X168751657Y-114116189D01*
X168700754Y-114051851D01*
X168659711Y-113997621D01*
X168576071Y-113879564D01*
X168498015Y-113757983D01*
X168425618Y-113633147D01*
X168358955Y-113505326D01*
X168298101Y-113374790D01*
X168243131Y-113241806D01*
X168194120Y-113106644D01*
X168151143Y-112969575D01*
X168114275Y-112830865D01*
X168083591Y-112690786D01*
X168059166Y-112549606D01*
X168041075Y-112407594D01*
X168029394Y-112265019D01*
X168024196Y-112122151D01*
X168025558Y-111979259D01*
X168033554Y-111836612D01*
X168039409Y-111771853D01*
X168045583Y-111710893D01*
X168092043Y-111616066D01*
X168105330Y-111589077D01*
X168116018Y-111567702D01*
X168124396Y-111551425D01*
X168130753Y-111539734D01*
X168135379Y-111532114D01*
X168138562Y-111528052D01*
X168140591Y-111527033D01*
X168141555Y-111528013D01*
X168142498Y-111530627D01*
X168143947Y-111535498D01*
X168145975Y-111542932D01*
X168148658Y-111553236D01*
X168152070Y-111566719D01*
X168156286Y-111583686D01*
X168161380Y-111604446D01*
X168167428Y-111629304D01*
X168174504Y-111658569D01*
X168182683Y-111692548D01*
X168192040Y-111731548D01*
X168202648Y-111775875D01*
X168214583Y-111825837D01*
X168227920Y-111881742D01*
X168242733Y-111943896D01*
X168244508Y-111951346D01*
X168267090Y-112045992D01*
X168288256Y-112134374D01*
X168308096Y-112216830D01*
X168326696Y-112293699D01*
X168344148Y-112365323D01*
X168360538Y-112432038D01*
X168375955Y-112494186D01*
X168390490Y-112552105D01*
X168404229Y-112606135D01*
X168417262Y-112656615D01*
X168429677Y-112703884D01*
X168441563Y-112748282D01*
X168453009Y-112790148D01*
X168464104Y-112829821D01*
X168474935Y-112867642D01*
X168485593Y-112903948D01*
X168496164Y-112939081D01*
X168506739Y-112973378D01*
X168517406Y-113007179D01*
X168528253Y-113040824D01*
X168533019Y-113055400D01*
X168557323Y-113127199D01*
X168581015Y-113192527D01*
X168604246Y-113251640D01*
X168627163Y-113304799D01*
X168649917Y-113352260D01*
X168672655Y-113394282D01*
X168695526Y-113431124D01*
X168718681Y-113463044D01*
X168742267Y-113490300D01*
X168766433Y-113513152D01*
X168791328Y-113531856D01*
X168815820Y-113546034D01*
X168854864Y-113562124D01*
X168897793Y-113573460D01*
X168943495Y-113579864D01*
X168990859Y-113581153D01*
X169021007Y-113579264D01*
X169056512Y-113574738D01*
X169087379Y-113568342D01*
X169115611Y-113559547D01*
X169143208Y-113547823D01*
X169147066Y-113545952D01*
X169161810Y-113538331D01*
X169173916Y-113530958D01*
X169185184Y-113522486D01*
X169197416Y-113511566D01*
X169211609Y-113497658D01*
X169234347Y-113473090D01*
X169255333Y-113446512D01*
X169275366Y-113416742D01*
X169295248Y-113382599D01*
X169313924Y-113346653D01*
X169334722Y-113302835D01*
X169355531Y-113255050D01*
X169376453Y-113202994D01*
X169397592Y-113146361D01*
X169419051Y-113084849D01*
X169440933Y-113018150D01*
X169463340Y-112945962D01*
X169486375Y-112867979D01*
X169510143Y-112783896D01*
X169534674Y-112693676D01*
X169540812Y-112670382D01*
X169548372Y-112641160D01*
X169557193Y-112606663D01*
X169567110Y-112567548D01*
X169577963Y-112524472D01*
X169589589Y-112478088D01*
X169601825Y-112429054D01*
X169614508Y-112378025D01*
X169627477Y-112325657D01*
X169640568Y-112272605D01*
X169653619Y-112219525D01*
X169666469Y-112167074D01*
X169678953Y-112115906D01*
X169690910Y-112066678D01*
X169702178Y-112020045D01*
X169712594Y-111976663D01*
X169719438Y-111947960D01*
X169732699Y-111892243D01*
X169745378Y-111839126D01*
X169757394Y-111788946D01*
X169768664Y-111742045D01*
X169779105Y-111698761D01*
X169788634Y-111659434D01*
X169797169Y-111624405D01*
X169804626Y-111594012D01*
X169810924Y-111568595D01*
X169815979Y-111548495D01*
X169819709Y-111534051D01*
X169822031Y-111525602D01*
X169822803Y-111523401D01*
X169824705Y-111525928D01*
X169829344Y-111534264D01*
X169836565Y-111548092D01*
X169846213Y-111567095D01*
X169858134Y-111590958D01*
X169872173Y-111619363D01*
X169888176Y-111651994D01*
X169905989Y-111688534D01*
X169925456Y-111728667D01*
X169946424Y-111772076D01*
X169968738Y-111818444D01*
X169992243Y-111867454D01*
X170016785Y-111918791D01*
X170042210Y-111972137D01*
X170059697Y-112008920D01*
X170101512Y-112096751D01*
X170140766Y-112178752D01*
X170177641Y-112255284D01*
X170212317Y-112326710D01*
X170244977Y-112393392D01*
X170275802Y-112455693D01*
X170304972Y-112513976D01*
X170332669Y-112568602D01*
X170359075Y-112619934D01*
X170384371Y-112668335D01*
X170408737Y-112714167D01*
X170432356Y-112757792D01*
X170453201Y-112795606D01*
X170506591Y-112889254D01*
X170558922Y-112976252D01*
X170610222Y-113056635D01*
X170660517Y-113130438D01*
X170709837Y-113197696D01*
X170758208Y-113258444D01*
X170805658Y-113312718D01*
X170852215Y-113360552D01*
X170897907Y-113401982D01*
X170942761Y-113437044D01*
X170975215Y-113458776D01*
X170991411Y-113469728D01*
X171008708Y-113482844D01*
X171024073Y-113495787D01*
X171028079Y-113499504D01*
X171053883Y-113521986D01*
X171079479Y-113539365D01*
X171106892Y-113552931D01*
X171119481Y-113557820D01*
X171164185Y-113570715D01*
X171211894Y-113578447D01*
X171261160Y-113580953D01*
X171310534Y-113578175D01*
X171358568Y-113570053D01*
X171366714Y-113568081D01*
X171404822Y-113555493D01*
X171440234Y-113537996D01*
X171471729Y-113516275D01*
X171492333Y-113497325D01*
X171500804Y-113489610D01*
X171513235Y-113479751D01*
X171527806Y-113469137D01*
X171539746Y-113461061D01*
X171584802Y-113429273D01*
X171629804Y-113392545D01*
X171674899Y-113350695D01*
X171720236Y-113303543D01*
X171765964Y-113250905D01*
X171812230Y-113192600D01*
X171859183Y-113128446D01*
X171906973Y-113058262D01*
X171955746Y-112981865D01*
X172005651Y-112899074D01*
X172023670Y-112868107D01*
X172050226Y-112821321D01*
X172078497Y-112770059D01*
X172108566Y-112714154D01*
X172140517Y-112653441D01*
X172174434Y-112587755D01*
X172210401Y-112516928D01*
X172248501Y-112440796D01*
X172288818Y-112359193D01*
X172331436Y-112271953D01*
X172376439Y-112178910D01*
X172423911Y-112079899D01*
X172458523Y-112007226D01*
X172489436Y-111942218D01*
X172518504Y-111881216D01*
X172545643Y-111824392D01*
X172570771Y-111771915D01*
X172593805Y-111723958D01*
X172614661Y-111680691D01*
X172633258Y-111642285D01*
X172649511Y-111608911D01*
X172663339Y-111580741D01*
X172674658Y-111557944D01*
X172683386Y-111540693D01*
X172689439Y-111529157D01*
X172692735Y-111523509D01*
X172693287Y-111522933D01*
X172693837Y-111523500D01*
G36*
X171305375Y-117660420D02*
G01*
X171315253Y-117685067D01*
X171326836Y-117713925D01*
X171339957Y-117746581D01*
X171354450Y-117782622D01*
X171370149Y-117821635D01*
X171386886Y-117863207D01*
X171404496Y-117906926D01*
X171422811Y-117952379D01*
X171441665Y-117999154D01*
X171460892Y-118046838D01*
X171480324Y-118095017D01*
X171499795Y-118143280D01*
X171519140Y-118191213D01*
X171538190Y-118238404D01*
X171556779Y-118284441D01*
X171574742Y-118328910D01*
X171591911Y-118371398D01*
X171608119Y-118411494D01*
X171623201Y-118448784D01*
X171636989Y-118482856D01*
X171649317Y-118513297D01*
X171660018Y-118539694D01*
X171668926Y-118561634D01*
X171675875Y-118578706D01*
X171680697Y-118590495D01*
X171683226Y-118596590D01*
X171683565Y-118597355D01*
X171683905Y-118598397D01*
X171684077Y-118599683D01*
X171684198Y-118600937D01*
X171684381Y-118601879D01*
X171684743Y-118602230D01*
X171685399Y-118601713D01*
X171686464Y-118600048D01*
X171688053Y-118596956D01*
X171690283Y-118592159D01*
X171693268Y-118585379D01*
X171697124Y-118576336D01*
X171701965Y-118564752D01*
X171707908Y-118550348D01*
X171715068Y-118532845D01*
X171723559Y-118511966D01*
X171733498Y-118487431D01*
X171745000Y-118458961D01*
X171758180Y-118426278D01*
X171773153Y-118389104D01*
X171790035Y-118347159D01*
X171808941Y-118300164D01*
X171829986Y-118247842D01*
X171853287Y-118189914D01*
X171878957Y-118126100D01*
X171890525Y-118097347D01*
X172081613Y-117622414D01*
X172198453Y-117622320D01*
X172198453Y-118736533D01*
X172120560Y-118736533D01*
X172120560Y-118286895D01*
X172120585Y-118212547D01*
X172120663Y-118144687D01*
X172120799Y-118083027D01*
X172120996Y-118027284D01*
X172121259Y-117977170D01*
X172121592Y-117932400D01*
X172121999Y-117892687D01*
X172122486Y-117857747D01*
X172123054Y-117827293D01*
X172123710Y-117801039D01*
X172124458Y-117778700D01*
X172125300Y-117759989D01*
X172126243Y-117744621D01*
X172127289Y-117732310D01*
X172128444Y-117722770D01*
X172128981Y-117719414D01*
X172129206Y-117712580D01*
X172127060Y-117711028D01*
X172125413Y-117714246D01*
X172121362Y-117723413D01*
X172115044Y-117738199D01*
X172106596Y-117758273D01*
X172096152Y-117783304D01*
X172083849Y-117812963D01*
X172069824Y-117846918D01*
X172054211Y-117884840D01*
X172037149Y-117926398D01*
X172018771Y-117971262D01*
X171999215Y-118019100D01*
X171978616Y-118069584D01*
X171957111Y-118122382D01*
X171934836Y-118177164D01*
X171916009Y-118223534D01*
X171708557Y-118734840D01*
X171659733Y-118736834D01*
X171651927Y-118718904D01*
X171649799Y-118713783D01*
X171645282Y-118702731D01*
X171638519Y-118686099D01*
X171629653Y-118664239D01*
X171618825Y-118637502D01*
X171606177Y-118606241D01*
X171591852Y-118570806D01*
X171575992Y-118531550D01*
X171558738Y-118488824D01*
X171540233Y-118442980D01*
X171520618Y-118394370D01*
X171500037Y-118343344D01*
X171478631Y-118290255D01*
X171456541Y-118235455D01*
X171444881Y-118206520D01*
X171422607Y-118151259D01*
X171401008Y-118097703D01*
X171380221Y-118046189D01*
X171360383Y-117997056D01*
X171341629Y-117950640D01*
X171324096Y-117907279D01*
X171307922Y-117867310D01*
X171293243Y-117831070D01*
X171280195Y-117798898D01*
X171268915Y-117771130D01*
X171259540Y-117748104D01*
X171252207Y-117730157D01*
X171247051Y-117717628D01*
X171244211Y-117710852D01*
X171243680Y-117709694D01*
X171243464Y-117712747D01*
X171243268Y-117722207D01*
X171243093Y-117737710D01*
X171242940Y-117758889D01*
X171242808Y-117785379D01*
X171242699Y-117816815D01*
X171242614Y-117852831D01*
X171242552Y-117893061D01*
X171242516Y-117937139D01*
X171242504Y-117984701D01*
X171242519Y-118035381D01*
X171242560Y-118088813D01*
X171242629Y-118144631D01*
X171242725Y-118202470D01*
X171242763Y-118221928D01*
X171243807Y-118736533D01*
X171168906Y-118736533D01*
X171168906Y-117622320D01*
X171290121Y-117622320D01*
X171305375Y-117660420D01*
G37*
X171305375Y-117660420D02*
X171315253Y-117685067D01*
X171326836Y-117713925D01*
X171339957Y-117746581D01*
X171354450Y-117782622D01*
X171370149Y-117821635D01*
X171386886Y-117863207D01*
X171404496Y-117906926D01*
X171422811Y-117952379D01*
X171441665Y-117999154D01*
X171460892Y-118046838D01*
X171480324Y-118095017D01*
X171499795Y-118143280D01*
X171519140Y-118191213D01*
X171538190Y-118238404D01*
X171556779Y-118284441D01*
X171574742Y-118328910D01*
X171591911Y-118371398D01*
X171608119Y-118411494D01*
X171623201Y-118448784D01*
X171636989Y-118482856D01*
X171649317Y-118513297D01*
X171660018Y-118539694D01*
X171668926Y-118561634D01*
X171675875Y-118578706D01*
X171680697Y-118590495D01*
X171683226Y-118596590D01*
X171683565Y-118597355D01*
X171683905Y-118598397D01*
X171684077Y-118599683D01*
X171684198Y-118600937D01*
X171684381Y-118601879D01*
X171684743Y-118602230D01*
X171685399Y-118601713D01*
X171686464Y-118600048D01*
X171688053Y-118596956D01*
X171690283Y-118592159D01*
X171693268Y-118585379D01*
X171697124Y-118576336D01*
X171701965Y-118564752D01*
X171707908Y-118550348D01*
X171715068Y-118532845D01*
X171723559Y-118511966D01*
X171733498Y-118487431D01*
X171745000Y-118458961D01*
X171758180Y-118426278D01*
X171773153Y-118389104D01*
X171790035Y-118347159D01*
X171808941Y-118300164D01*
X171829986Y-118247842D01*
X171853287Y-118189914D01*
X171878957Y-118126100D01*
X171890525Y-118097347D01*
X172081613Y-117622414D01*
X172198453Y-117622320D01*
X172198453Y-118736533D01*
X172120560Y-118736533D01*
X172120560Y-118286895D01*
X172120585Y-118212547D01*
X172120663Y-118144687D01*
X172120799Y-118083027D01*
X172120996Y-118027284D01*
X172121259Y-117977170D01*
X172121592Y-117932400D01*
X172121999Y-117892687D01*
X172122486Y-117857747D01*
X172123054Y-117827293D01*
X172123710Y-117801039D01*
X172124458Y-117778700D01*
X172125300Y-117759989D01*
X172126243Y-117744621D01*
X172127289Y-117732310D01*
X172128444Y-117722770D01*
X172128981Y-117719414D01*
X172129206Y-117712580D01*
X172127060Y-117711028D01*
X172125413Y-117714246D01*
X172121362Y-117723413D01*
X172115044Y-117738199D01*
X172106596Y-117758273D01*
X172096152Y-117783304D01*
X172083849Y-117812963D01*
X172069824Y-117846918D01*
X172054211Y-117884840D01*
X172037149Y-117926398D01*
X172018771Y-117971262D01*
X171999215Y-118019100D01*
X171978616Y-118069584D01*
X171957111Y-118122382D01*
X171934836Y-118177164D01*
X171916009Y-118223534D01*
X171708557Y-118734840D01*
X171659733Y-118736834D01*
X171651927Y-118718904D01*
X171649799Y-118713783D01*
X171645282Y-118702731D01*
X171638519Y-118686099D01*
X171629653Y-118664239D01*
X171618825Y-118637502D01*
X171606177Y-118606241D01*
X171591852Y-118570806D01*
X171575992Y-118531550D01*
X171558738Y-118488824D01*
X171540233Y-118442980D01*
X171520618Y-118394370D01*
X171500037Y-118343344D01*
X171478631Y-118290255D01*
X171456541Y-118235455D01*
X171444881Y-118206520D01*
X171422607Y-118151259D01*
X171401008Y-118097703D01*
X171380221Y-118046189D01*
X171360383Y-117997056D01*
X171341629Y-117950640D01*
X171324096Y-117907279D01*
X171307922Y-117867310D01*
X171293243Y-117831070D01*
X171280195Y-117798898D01*
X171268915Y-117771130D01*
X171259540Y-117748104D01*
X171252207Y-117730157D01*
X171247051Y-117717628D01*
X171244211Y-117710852D01*
X171243680Y-117709694D01*
X171243464Y-117712747D01*
X171243268Y-117722207D01*
X171243093Y-117737710D01*
X171242940Y-117758889D01*
X171242808Y-117785379D01*
X171242699Y-117816815D01*
X171242614Y-117852831D01*
X171242552Y-117893061D01*
X171242516Y-117937139D01*
X171242504Y-117984701D01*
X171242519Y-118035381D01*
X171242560Y-118088813D01*
X171242629Y-118144631D01*
X171242725Y-118202470D01*
X171242763Y-118221928D01*
X171243807Y-118736533D01*
X171168906Y-118736533D01*
X171168906Y-117622320D01*
X171290121Y-117622320D01*
X171305375Y-117660420D01*
G36*
X170331262Y-117619451D02*
G01*
X170340324Y-117620973D01*
X170343483Y-117623227D01*
X170344876Y-117626789D01*
X170348617Y-117636332D01*
X170354578Y-117651535D01*
X170362633Y-117672073D01*
X170372654Y-117697623D01*
X170384516Y-117727863D01*
X170398091Y-117762470D01*
X170413253Y-117801119D01*
X170429874Y-117843488D01*
X170447828Y-117889253D01*
X170466989Y-117938092D01*
X170487229Y-117989681D01*
X170508421Y-118043697D01*
X170530439Y-118099817D01*
X170553157Y-118157717D01*
X170560535Y-118176523D01*
X170583457Y-118234944D01*
X170605725Y-118291701D01*
X170627212Y-118346468D01*
X170647791Y-118398922D01*
X170667335Y-118448739D01*
X170685716Y-118495594D01*
X170702808Y-118539163D01*
X170718483Y-118579122D01*
X170732614Y-118615147D01*
X170745074Y-118646913D01*
X170755735Y-118674098D01*
X170764472Y-118696376D01*
X170771156Y-118713423D01*
X170775660Y-118724916D01*
X170777858Y-118730529D01*
X170778052Y-118731028D01*
X170778277Y-118733282D01*
X170776256Y-118734827D01*
X170770994Y-118735794D01*
X170761497Y-118736312D01*
X170746771Y-118736511D01*
X170736029Y-118736533D01*
X170691893Y-118736533D01*
X170651495Y-118634086D01*
X170639273Y-118603077D01*
X170625679Y-118568562D01*
X170611499Y-118532538D01*
X170597519Y-118497001D01*
X170584524Y-118463947D01*
X170574195Y-118437652D01*
X170537293Y-118343664D01*
X170310983Y-118344518D01*
X170084674Y-118345373D01*
X170007725Y-118540106D01*
X169930776Y-118734840D01*
X169887345Y-118735790D01*
X169869544Y-118736118D01*
X169857493Y-118736098D01*
X169850172Y-118735603D01*
X169846560Y-118734509D01*
X169845638Y-118732690D01*
X169846121Y-118730710D01*
X169847593Y-118726972D01*
X169851450Y-118717267D01*
X169857563Y-118701916D01*
X169865804Y-118681242D01*
X169876043Y-118655568D01*
X169888153Y-118625214D01*
X169902005Y-118590504D01*
X169917470Y-118551759D01*
X169934419Y-118509303D01*
X169952725Y-118463456D01*
X169972257Y-118414542D01*
X169992889Y-118362882D01*
X170014491Y-118308799D01*
X170030835Y-118267882D01*
X170116490Y-118267882D01*
X170117421Y-118268943D01*
X170119846Y-118269830D01*
X170124271Y-118270560D01*
X170131200Y-118271147D01*
X170141139Y-118271607D01*
X170154593Y-118271956D01*
X170172067Y-118272208D01*
X170194067Y-118272378D01*
X170221097Y-118272484D01*
X170253664Y-118272538D01*
X170292272Y-118272558D01*
X170311685Y-118272560D01*
X170351555Y-118272507D01*
X170387921Y-118272356D01*
X170420341Y-118272111D01*
X170448378Y-118271781D01*
X170471590Y-118271372D01*
X170489537Y-118270892D01*
X170501781Y-118270346D01*
X170507881Y-118269742D01*
X170508506Y-118269465D01*
X170507340Y-118265863D01*
X170503969Y-118256434D01*
X170498582Y-118241688D01*
X170491367Y-118222132D01*
X170482515Y-118198276D01*
X170472214Y-118170630D01*
X170460654Y-118139701D01*
X170448023Y-118105999D01*
X170434512Y-118070033D01*
X170422575Y-118038325D01*
X170408107Y-117999871D01*
X170394095Y-117962515D01*
X170380762Y-117926860D01*
X170368332Y-117893508D01*
X170357027Y-117863060D01*
X170347071Y-117836120D01*
X170338687Y-117813289D01*
X170332098Y-117795168D01*
X170327528Y-117782361D01*
X170325655Y-117776897D01*
X170314666Y-117743514D01*
X170296790Y-117797217D01*
X170292347Y-117809988D01*
X170285685Y-117828335D01*
X170277078Y-117851537D01*
X170266802Y-117878872D01*
X170255129Y-117909617D01*
X170242334Y-117943052D01*
X170228692Y-117978453D01*
X170214476Y-118015101D01*
X170199960Y-118052272D01*
X170198573Y-118055813D01*
X170184661Y-118091316D01*
X170171462Y-118125048D01*
X170159187Y-118156466D01*
X170148047Y-118185026D01*
X170138254Y-118210185D01*
X170130020Y-118231398D01*
X170123557Y-118248121D01*
X170119075Y-118259811D01*
X170116787Y-118265924D01*
X170116547Y-118266633D01*
X170116490Y-118267882D01*
X170030835Y-118267882D01*
X170036934Y-118252614D01*
X170060090Y-118194651D01*
X170069197Y-118171856D01*
X170290066Y-117619032D01*
X170315950Y-117618982D01*
X170331262Y-117619451D01*
G37*
X170331262Y-117619451D02*
X170340324Y-117620973D01*
X170343483Y-117623227D01*
X170344876Y-117626789D01*
X170348617Y-117636332D01*
X170354578Y-117651535D01*
X170362633Y-117672073D01*
X170372654Y-117697623D01*
X170384516Y-117727863D01*
X170398091Y-117762470D01*
X170413253Y-117801119D01*
X170429874Y-117843488D01*
X170447828Y-117889253D01*
X170466989Y-117938092D01*
X170487229Y-117989681D01*
X170508421Y-118043697D01*
X170530439Y-118099817D01*
X170553157Y-118157717D01*
X170560535Y-118176523D01*
X170583457Y-118234944D01*
X170605725Y-118291701D01*
X170627212Y-118346468D01*
X170647791Y-118398922D01*
X170667335Y-118448739D01*
X170685716Y-118495594D01*
X170702808Y-118539163D01*
X170718483Y-118579122D01*
X170732614Y-118615147D01*
X170745074Y-118646913D01*
X170755735Y-118674098D01*
X170764472Y-118696376D01*
X170771156Y-118713423D01*
X170775660Y-118724916D01*
X170777858Y-118730529D01*
X170778052Y-118731028D01*
X170778277Y-118733282D01*
X170776256Y-118734827D01*
X170770994Y-118735794D01*
X170761497Y-118736312D01*
X170746771Y-118736511D01*
X170736029Y-118736533D01*
X170691893Y-118736533D01*
X170651495Y-118634086D01*
X170639273Y-118603077D01*
X170625679Y-118568562D01*
X170611499Y-118532538D01*
X170597519Y-118497001D01*
X170584524Y-118463947D01*
X170574195Y-118437652D01*
X170537293Y-118343664D01*
X170310983Y-118344518D01*
X170084674Y-118345373D01*
X170007725Y-118540106D01*
X169930776Y-118734840D01*
X169887345Y-118735790D01*
X169869544Y-118736118D01*
X169857493Y-118736098D01*
X169850172Y-118735603D01*
X169846560Y-118734509D01*
X169845638Y-118732690D01*
X169846121Y-118730710D01*
X169847593Y-118726972D01*
X169851450Y-118717267D01*
X169857563Y-118701916D01*
X169865804Y-118681242D01*
X169876043Y-118655568D01*
X169888153Y-118625214D01*
X169902005Y-118590504D01*
X169917470Y-118551759D01*
X169934419Y-118509303D01*
X169952725Y-118463456D01*
X169972257Y-118414542D01*
X169992889Y-118362882D01*
X170014491Y-118308799D01*
X170030835Y-118267882D01*
X170116490Y-118267882D01*
X170117421Y-118268943D01*
X170119846Y-118269830D01*
X170124271Y-118270560D01*
X170131200Y-118271147D01*
X170141139Y-118271607D01*
X170154593Y-118271956D01*
X170172067Y-118272208D01*
X170194067Y-118272378D01*
X170221097Y-118272484D01*
X170253664Y-118272538D01*
X170292272Y-118272558D01*
X170311685Y-118272560D01*
X170351555Y-118272507D01*
X170387921Y-118272356D01*
X170420341Y-118272111D01*
X170448378Y-118271781D01*
X170471590Y-118271372D01*
X170489537Y-118270892D01*
X170501781Y-118270346D01*
X170507881Y-118269742D01*
X170508506Y-118269465D01*
X170507340Y-118265863D01*
X170503969Y-118256434D01*
X170498582Y-118241688D01*
X170491367Y-118222132D01*
X170482515Y-118198276D01*
X170472214Y-118170630D01*
X170460654Y-118139701D01*
X170448023Y-118105999D01*
X170434512Y-118070033D01*
X170422575Y-118038325D01*
X170408107Y-117999871D01*
X170394095Y-117962515D01*
X170380762Y-117926860D01*
X170368332Y-117893508D01*
X170357027Y-117863060D01*
X170347071Y-117836120D01*
X170338687Y-117813289D01*
X170332098Y-117795168D01*
X170327528Y-117782361D01*
X170325655Y-117776897D01*
X170314666Y-117743514D01*
X170296790Y-117797217D01*
X170292347Y-117809988D01*
X170285685Y-117828335D01*
X170277078Y-117851537D01*
X170266802Y-117878872D01*
X170255129Y-117909617D01*
X170242334Y-117943052D01*
X170228692Y-117978453D01*
X170214476Y-118015101D01*
X170199960Y-118052272D01*
X170198573Y-118055813D01*
X170184661Y-118091316D01*
X170171462Y-118125048D01*
X170159187Y-118156466D01*
X170148047Y-118185026D01*
X170138254Y-118210185D01*
X170130020Y-118231398D01*
X170123557Y-118248121D01*
X170119075Y-118259811D01*
X170116787Y-118265924D01*
X170116547Y-118266633D01*
X170116490Y-118267882D01*
X170030835Y-118267882D01*
X170036934Y-118252614D01*
X170060090Y-118194651D01*
X170069197Y-118171856D01*
X170290066Y-117619032D01*
X170315950Y-117618982D01*
X170331262Y-117619451D01*
G36*
X168997206Y-117622331D02*
G01*
X169030637Y-117622413D01*
X169063362Y-117622644D01*
X169094467Y-117623005D01*
X169123039Y-117623481D01*
X169148162Y-117624055D01*
X169168923Y-117624709D01*
X169184406Y-117625427D01*
X169191093Y-117625910D01*
X169241306Y-117632379D01*
X169288034Y-117642171D01*
X169330485Y-117655064D01*
X169367869Y-117670836D01*
X169385323Y-117680267D01*
X169404032Y-117693092D01*
X169423771Y-117709656D01*
X169442931Y-117728353D01*
X169459905Y-117747573D01*
X169473084Y-117765709D01*
X169476409Y-117771333D01*
X169492199Y-117806466D01*
X169503505Y-117845421D01*
X169510269Y-117886891D01*
X169512433Y-117929568D01*
X169509938Y-117972148D01*
X169502726Y-118013323D01*
X169490739Y-118051786D01*
X169489102Y-118055855D01*
X169470100Y-118093182D01*
X169445449Y-118126959D01*
X169415395Y-118156967D01*
X169380184Y-118182993D01*
X169340062Y-118204819D01*
X169302169Y-118219947D01*
X169290604Y-118224389D01*
X169282208Y-118228573D01*
X169278472Y-118231729D01*
X169278425Y-118232215D01*
X169280270Y-118235644D01*
X169285335Y-118244455D01*
X169293365Y-118258217D01*
X169304105Y-118276500D01*
X169317301Y-118298872D01*
X169332696Y-118324902D01*
X169350037Y-118354158D01*
X169369068Y-118386210D01*
X169389535Y-118420626D01*
X169411182Y-118456975D01*
X169426591Y-118482820D01*
X169448883Y-118520230D01*
X169470148Y-118555997D01*
X169490135Y-118589689D01*
X169508589Y-118620877D01*
X169525258Y-118649131D01*
X169539890Y-118674020D01*
X169552230Y-118695115D01*
X169562026Y-118711985D01*
X169569024Y-118724199D01*
X169572973Y-118731329D01*
X169573786Y-118733058D01*
X169570485Y-118734589D01*
X169560904Y-118735701D01*
X169545525Y-118736359D01*
X169528858Y-118736533D01*
X169483930Y-118736533D01*
X169198370Y-118253933D01*
X169059265Y-118253049D01*
X168920160Y-118252164D01*
X168920160Y-118736533D01*
X168842266Y-118736533D01*
X168842266Y-117936715D01*
X168920160Y-117936715D01*
X168920190Y-117976706D01*
X168920279Y-118014710D01*
X168920421Y-118050185D01*
X168920610Y-118082591D01*
X168920843Y-118111384D01*
X168921114Y-118136024D01*
X168921418Y-118155970D01*
X168921750Y-118170679D01*
X168922106Y-118179609D01*
X168922417Y-118182248D01*
X168926459Y-118182979D01*
X168936354Y-118183555D01*
X168951186Y-118183982D01*
X168970036Y-118184264D01*
X168991988Y-118184403D01*
X169016123Y-118184406D01*
X169041524Y-118184274D01*
X169067273Y-118184014D01*
X169092453Y-118183628D01*
X169116146Y-118183121D01*
X169137434Y-118182497D01*
X169155401Y-118181761D01*
X169165729Y-118181165D01*
X169211904Y-118176227D01*
X169252636Y-118167975D01*
X169288502Y-118156191D01*
X169320084Y-118140656D01*
X169347961Y-118121153D01*
X169363959Y-118106654D01*
X169383871Y-118084586D01*
X169399026Y-118062153D01*
X169410743Y-118037103D01*
X169418617Y-118013361D01*
X169421750Y-118001506D01*
X169423923Y-117990299D01*
X169425296Y-117978064D01*
X169426031Y-117963123D01*
X169426291Y-117943799D01*
X169426297Y-117933893D01*
X169426105Y-117911958D01*
X169425500Y-117895103D01*
X169424318Y-117881641D01*
X169422394Y-117869883D01*
X169419563Y-117858140D01*
X169418529Y-117854425D01*
X169406565Y-117820882D01*
X169390904Y-117792075D01*
X169371097Y-117767619D01*
X169346700Y-117747126D01*
X169317264Y-117730209D01*
X169282344Y-117716482D01*
X169248666Y-117707183D01*
X169231345Y-117703544D01*
X169212829Y-117700556D01*
X169192319Y-117698167D01*
X169169017Y-117696327D01*
X169142126Y-117694986D01*
X169110847Y-117694092D01*
X169074383Y-117693594D01*
X169032766Y-117693442D01*
X168920160Y-117693440D01*
X168920160Y-117936715D01*
X168842266Y-117936715D01*
X168842266Y-117622320D01*
X168997206Y-117622331D01*
G37*
X168997206Y-117622331D02*
X169030637Y-117622413D01*
X169063362Y-117622644D01*
X169094467Y-117623005D01*
X169123039Y-117623481D01*
X169148162Y-117624055D01*
X169168923Y-117624709D01*
X169184406Y-117625427D01*
X169191093Y-117625910D01*
X169241306Y-117632379D01*
X169288034Y-117642171D01*
X169330485Y-117655064D01*
X169367869Y-117670836D01*
X169385323Y-117680267D01*
X169404032Y-117693092D01*
X169423771Y-117709656D01*
X169442931Y-117728353D01*
X169459905Y-117747573D01*
X169473084Y-117765709D01*
X169476409Y-117771333D01*
X169492199Y-117806466D01*
X169503505Y-117845421D01*
X169510269Y-117886891D01*
X169512433Y-117929568D01*
X169509938Y-117972148D01*
X169502726Y-118013323D01*
X169490739Y-118051786D01*
X169489102Y-118055855D01*
X169470100Y-118093182D01*
X169445449Y-118126959D01*
X169415395Y-118156967D01*
X169380184Y-118182993D01*
X169340062Y-118204819D01*
X169302169Y-118219947D01*
X169290604Y-118224389D01*
X169282208Y-118228573D01*
X169278472Y-118231729D01*
X169278425Y-118232215D01*
X169280270Y-118235644D01*
X169285335Y-118244455D01*
X169293365Y-118258217D01*
X169304105Y-118276500D01*
X169317301Y-118298872D01*
X169332696Y-118324902D01*
X169350037Y-118354158D01*
X169369068Y-118386210D01*
X169389535Y-118420626D01*
X169411182Y-118456975D01*
X169426591Y-118482820D01*
X169448883Y-118520230D01*
X169470148Y-118555997D01*
X169490135Y-118589689D01*
X169508589Y-118620877D01*
X169525258Y-118649131D01*
X169539890Y-118674020D01*
X169552230Y-118695115D01*
X169562026Y-118711985D01*
X169569024Y-118724199D01*
X169572973Y-118731329D01*
X169573786Y-118733058D01*
X169570485Y-118734589D01*
X169560904Y-118735701D01*
X169545525Y-118736359D01*
X169528858Y-118736533D01*
X169483930Y-118736533D01*
X169198370Y-118253933D01*
X169059265Y-118253049D01*
X168920160Y-118252164D01*
X168920160Y-118736533D01*
X168842266Y-118736533D01*
X168842266Y-117936715D01*
X168920160Y-117936715D01*
X168920190Y-117976706D01*
X168920279Y-118014710D01*
X168920421Y-118050185D01*
X168920610Y-118082591D01*
X168920843Y-118111384D01*
X168921114Y-118136024D01*
X168921418Y-118155970D01*
X168921750Y-118170679D01*
X168922106Y-118179609D01*
X168922417Y-118182248D01*
X168926459Y-118182979D01*
X168936354Y-118183555D01*
X168951186Y-118183982D01*
X168970036Y-118184264D01*
X168991988Y-118184403D01*
X169016123Y-118184406D01*
X169041524Y-118184274D01*
X169067273Y-118184014D01*
X169092453Y-118183628D01*
X169116146Y-118183121D01*
X169137434Y-118182497D01*
X169155401Y-118181761D01*
X169165729Y-118181165D01*
X169211904Y-118176227D01*
X169252636Y-118167975D01*
X169288502Y-118156191D01*
X169320084Y-118140656D01*
X169347961Y-118121153D01*
X169363959Y-118106654D01*
X169383871Y-118084586D01*
X169399026Y-118062153D01*
X169410743Y-118037103D01*
X169418617Y-118013361D01*
X169421750Y-118001506D01*
X169423923Y-117990299D01*
X169425296Y-117978064D01*
X169426031Y-117963123D01*
X169426291Y-117943799D01*
X169426297Y-117933893D01*
X169426105Y-117911958D01*
X169425500Y-117895103D01*
X169424318Y-117881641D01*
X169422394Y-117869883D01*
X169419563Y-117858140D01*
X169418529Y-117854425D01*
X169406565Y-117820882D01*
X169390904Y-117792075D01*
X169371097Y-117767619D01*
X169346700Y-117747126D01*
X169317264Y-117730209D01*
X169282344Y-117716482D01*
X169248666Y-117707183D01*
X169231345Y-117703544D01*
X169212829Y-117700556D01*
X169192319Y-117698167D01*
X169169017Y-117696327D01*
X169142126Y-117694986D01*
X169110847Y-117694092D01*
X169074383Y-117693594D01*
X169032766Y-117693442D01*
X168920160Y-117693440D01*
X168920160Y-117936715D01*
X168842266Y-117936715D01*
X168842266Y-117622320D01*
X168997206Y-117622331D01*
G36*
X167703500Y-117623242D02*
G01*
X167747747Y-117623590D01*
X167785894Y-117623960D01*
X167818613Y-117624402D01*
X167846575Y-117624963D01*
X167870454Y-117625692D01*
X167890921Y-117626638D01*
X167908650Y-117627847D01*
X167924311Y-117629370D01*
X167938579Y-117631254D01*
X167952125Y-117633547D01*
X167965622Y-117636297D01*
X167979741Y-117639554D01*
X167995156Y-117643365D01*
X167999760Y-117644529D01*
X168054293Y-117661500D01*
X168104732Y-117683662D01*
X168150892Y-117710874D01*
X168192588Y-117742992D01*
X168229635Y-117779872D01*
X168261849Y-117821372D01*
X168289045Y-117867348D01*
X168290161Y-117869546D01*
X168309828Y-117913129D01*
X168325445Y-117958199D01*
X168337199Y-118005678D01*
X168345281Y-118056488D01*
X168349881Y-118111549D01*
X168351199Y-118166186D01*
X168349495Y-118230217D01*
X168344278Y-118288984D01*
X168335392Y-118343110D01*
X168322679Y-118393214D01*
X168305982Y-118439917D01*
X168285146Y-118483839D01*
X168260647Y-118524652D01*
X168229128Y-118565966D01*
X168192395Y-118603216D01*
X168150832Y-118636157D01*
X168104820Y-118664540D01*
X168054744Y-118688119D01*
X168000985Y-118706646D01*
X167964653Y-118715775D01*
X167946608Y-118719578D01*
X167929842Y-118722816D01*
X167913603Y-118725541D01*
X167897137Y-118727808D01*
X167879691Y-118729667D01*
X167860513Y-118731171D01*
X167838849Y-118732374D01*
X167813946Y-118733328D01*
X167785051Y-118734085D01*
X167751412Y-118734699D01*
X167712275Y-118735221D01*
X167681486Y-118735557D01*
X167507920Y-118737341D01*
X167507920Y-118666094D01*
X167585813Y-118666094D01*
X167725513Y-118664428D01*
X167761221Y-118663970D01*
X167790950Y-118663497D01*
X167815494Y-118662972D01*
X167835649Y-118662355D01*
X167852208Y-118661608D01*
X167865965Y-118660691D01*
X167877717Y-118659567D01*
X167888255Y-118658196D01*
X167898377Y-118656540D01*
X167902466Y-118655793D01*
X167959620Y-118642626D01*
X168011391Y-118625445D01*
X168057954Y-118604102D01*
X168099487Y-118578451D01*
X168136164Y-118548346D01*
X168168163Y-118513641D01*
X168195659Y-118474188D01*
X168218829Y-118429843D01*
X168237849Y-118380459D01*
X168239245Y-118376134D01*
X168246946Y-118350270D01*
X168253013Y-118325666D01*
X168257613Y-118300989D01*
X168260915Y-118274911D01*
X168263086Y-118246099D01*
X168264295Y-118213224D01*
X168264708Y-118174954D01*
X168264709Y-118174346D01*
X168264624Y-118142500D01*
X168264175Y-118116076D01*
X168263229Y-118093727D01*
X168261652Y-118074105D01*
X168259311Y-118055864D01*
X168256073Y-118037655D01*
X168251803Y-118018131D01*
X168247501Y-118000441D01*
X168231550Y-117948894D01*
X168210669Y-117901872D01*
X168184923Y-117859461D01*
X168154375Y-117821745D01*
X168119090Y-117788809D01*
X168079132Y-117760739D01*
X168057336Y-117748512D01*
X168034416Y-117737152D01*
X168012244Y-117727403D01*
X167990073Y-117719138D01*
X167967157Y-117712228D01*
X167942746Y-117706547D01*
X167916093Y-117701967D01*
X167886450Y-117698361D01*
X167853071Y-117695600D01*
X167815206Y-117693559D01*
X167772108Y-117692108D01*
X167723030Y-117691121D01*
X167720433Y-117691082D01*
X167585813Y-117689085D01*
X167585813Y-118666094D01*
X167507920Y-118666094D01*
X167507920Y-117621792D01*
X167703500Y-117623242D01*
G37*
X167703500Y-117623242D02*
X167747747Y-117623590D01*
X167785894Y-117623960D01*
X167818613Y-117624402D01*
X167846575Y-117624963D01*
X167870454Y-117625692D01*
X167890921Y-117626638D01*
X167908650Y-117627847D01*
X167924311Y-117629370D01*
X167938579Y-117631254D01*
X167952125Y-117633547D01*
X167965622Y-117636297D01*
X167979741Y-117639554D01*
X167995156Y-117643365D01*
X167999760Y-117644529D01*
X168054293Y-117661500D01*
X168104732Y-117683662D01*
X168150892Y-117710874D01*
X168192588Y-117742992D01*
X168229635Y-117779872D01*
X168261849Y-117821372D01*
X168289045Y-117867348D01*
X168290161Y-117869546D01*
X168309828Y-117913129D01*
X168325445Y-117958199D01*
X168337199Y-118005678D01*
X168345281Y-118056488D01*
X168349881Y-118111549D01*
X168351199Y-118166186D01*
X168349495Y-118230217D01*
X168344278Y-118288984D01*
X168335392Y-118343110D01*
X168322679Y-118393214D01*
X168305982Y-118439917D01*
X168285146Y-118483839D01*
X168260647Y-118524652D01*
X168229128Y-118565966D01*
X168192395Y-118603216D01*
X168150832Y-118636157D01*
X168104820Y-118664540D01*
X168054744Y-118688119D01*
X168000985Y-118706646D01*
X167964653Y-118715775D01*
X167946608Y-118719578D01*
X167929842Y-118722816D01*
X167913603Y-118725541D01*
X167897137Y-118727808D01*
X167879691Y-118729667D01*
X167860513Y-118731171D01*
X167838849Y-118732374D01*
X167813946Y-118733328D01*
X167785051Y-118734085D01*
X167751412Y-118734699D01*
X167712275Y-118735221D01*
X167681486Y-118735557D01*
X167507920Y-118737341D01*
X167507920Y-118666094D01*
X167585813Y-118666094D01*
X167725513Y-118664428D01*
X167761221Y-118663970D01*
X167790950Y-118663497D01*
X167815494Y-118662972D01*
X167835649Y-118662355D01*
X167852208Y-118661608D01*
X167865965Y-118660691D01*
X167877717Y-118659567D01*
X167888255Y-118658196D01*
X167898377Y-118656540D01*
X167902466Y-118655793D01*
X167959620Y-118642626D01*
X168011391Y-118625445D01*
X168057954Y-118604102D01*
X168099487Y-118578451D01*
X168136164Y-118548346D01*
X168168163Y-118513641D01*
X168195659Y-118474188D01*
X168218829Y-118429843D01*
X168237849Y-118380459D01*
X168239245Y-118376134D01*
X168246946Y-118350270D01*
X168253013Y-118325666D01*
X168257613Y-118300989D01*
X168260915Y-118274911D01*
X168263086Y-118246099D01*
X168264295Y-118213224D01*
X168264708Y-118174954D01*
X168264709Y-118174346D01*
X168264624Y-118142500D01*
X168264175Y-118116076D01*
X168263229Y-118093727D01*
X168261652Y-118074105D01*
X168259311Y-118055864D01*
X168256073Y-118037655D01*
X168251803Y-118018131D01*
X168247501Y-118000441D01*
X168231550Y-117948894D01*
X168210669Y-117901872D01*
X168184923Y-117859461D01*
X168154375Y-117821745D01*
X168119090Y-117788809D01*
X168079132Y-117760739D01*
X168057336Y-117748512D01*
X168034416Y-117737152D01*
X168012244Y-117727403D01*
X167990073Y-117719138D01*
X167967157Y-117712228D01*
X167942746Y-117706547D01*
X167916093Y-117701967D01*
X167886450Y-117698361D01*
X167853071Y-117695600D01*
X167815206Y-117693559D01*
X167772108Y-117692108D01*
X167723030Y-117691121D01*
X167720433Y-117691082D01*
X167585813Y-117689085D01*
X167585813Y-118666094D01*
X167507920Y-118666094D01*
X167507920Y-117621792D01*
X167703500Y-117623242D01*
G36*
X174414371Y-117607363D02*
G01*
X174436952Y-117607761D01*
X174455200Y-117608542D01*
X174470333Y-117609774D01*
X174483569Y-117611524D01*
X174492920Y-117613206D01*
X174545395Y-117625962D01*
X174592867Y-117642570D01*
X174636182Y-117663466D01*
X174676187Y-117689087D01*
X174713728Y-117719870D01*
X174730079Y-117735557D01*
X174767302Y-117777678D01*
X174799378Y-117824162D01*
X174826309Y-117875017D01*
X174848099Y-117930255D01*
X174864751Y-117989885D01*
X174876268Y-118053917D01*
X174882655Y-118122360D01*
X174884080Y-118176269D01*
X174881490Y-118248099D01*
X174873728Y-118315673D01*
X174860803Y-118378962D01*
X174842726Y-118437937D01*
X174819507Y-118492568D01*
X174791157Y-118542827D01*
X174757685Y-118588685D01*
X174727823Y-118621586D01*
X174688137Y-118656784D01*
X174644903Y-118686304D01*
X174598067Y-118710167D01*
X174547573Y-118728393D01*
X174493366Y-118741002D01*
X174435392Y-118748014D01*
X174381248Y-118749572D01*
X174363086Y-118749300D01*
X174346563Y-118748910D01*
X174333262Y-118748449D01*
X174324763Y-118747964D01*
X174323586Y-118747846D01*
X174264696Y-118737877D01*
X174209994Y-118722590D01*
X174159451Y-118701963D01*
X174113036Y-118675975D01*
X174070719Y-118644607D01*
X174032469Y-118607838D01*
X173998255Y-118565646D01*
X173968047Y-118518013D01*
X173959520Y-118502192D01*
X173936822Y-118451853D01*
X173918365Y-118396924D01*
X173904290Y-118338208D01*
X173894737Y-118276504D01*
X173889845Y-118212613D01*
X173889797Y-118177733D01*
X173976453Y-118177733D01*
X173978373Y-118243559D01*
X173984200Y-118304081D01*
X173994032Y-118359597D01*
X174007969Y-118410406D01*
X174026109Y-118456805D01*
X174048553Y-118499092D01*
X174075399Y-118537566D01*
X174106746Y-118572525D01*
X174108216Y-118573973D01*
X174143784Y-118604613D01*
X174182356Y-118629598D01*
X174224387Y-118649145D01*
X174270331Y-118663470D01*
X174313426Y-118671795D01*
X174331818Y-118673639D01*
X174354952Y-118674720D01*
X174380845Y-118675056D01*
X174407511Y-118674665D01*
X174432965Y-118673563D01*
X174455221Y-118671770D01*
X174465768Y-118670437D01*
X174516451Y-118659842D01*
X174562954Y-118643938D01*
X174605332Y-118622683D01*
X174643644Y-118596030D01*
X174677947Y-118563935D01*
X174708297Y-118526354D01*
X174734751Y-118483241D01*
X174752917Y-118445280D01*
X174768871Y-118401378D01*
X174781530Y-118352632D01*
X174790838Y-118300147D01*
X174796735Y-118245028D01*
X174799163Y-118188381D01*
X174798064Y-118131313D01*
X174793379Y-118074928D01*
X174785050Y-118020333D01*
X174777227Y-117984601D01*
X174762139Y-117934060D01*
X174743155Y-117888584D01*
X174719889Y-117847445D01*
X174691955Y-117809915D01*
X174674361Y-117790444D01*
X174640812Y-117759590D01*
X174604696Y-117734156D01*
X174565570Y-117713974D01*
X174522990Y-117698876D01*
X174476511Y-117688695D01*
X174425688Y-117683262D01*
X174387933Y-117682194D01*
X174349818Y-117683095D01*
X174316259Y-117685991D01*
X174285255Y-117691174D01*
X174254808Y-117698937D01*
X174239052Y-117703915D01*
X174194461Y-117722305D01*
X174153354Y-117746390D01*
X174116005Y-117775896D01*
X174082693Y-117810553D01*
X174053691Y-117850089D01*
X174029278Y-117894232D01*
X174017126Y-117922357D01*
X174003170Y-117962469D01*
X173992337Y-118003868D01*
X173984451Y-118047670D01*
X173979332Y-118094992D01*
X173976804Y-118146951D01*
X173976453Y-118177733D01*
X173889797Y-118177733D01*
X173889755Y-118147337D01*
X173891624Y-118113482D01*
X173898915Y-118046874D01*
X173910532Y-117985292D01*
X173926580Y-117928462D01*
X173947166Y-117876111D01*
X173972396Y-117827966D01*
X174002377Y-117783753D01*
X174034674Y-117745863D01*
X174072343Y-117710174D01*
X174112766Y-117679999D01*
X174156561Y-117654999D01*
X174204347Y-117634838D01*
X174256741Y-117619178D01*
X174274480Y-117615085D01*
X174287361Y-117612479D01*
X174299438Y-117610523D01*
X174312028Y-117609125D01*
X174326450Y-117608193D01*
X174344022Y-117607635D01*
X174366063Y-117607359D01*
X174386240Y-117607281D01*
X174414371Y-117607363D01*
G37*
X174414371Y-117607363D02*
X174436952Y-117607761D01*
X174455200Y-117608542D01*
X174470333Y-117609774D01*
X174483569Y-117611524D01*
X174492920Y-117613206D01*
X174545395Y-117625962D01*
X174592867Y-117642570D01*
X174636182Y-117663466D01*
X174676187Y-117689087D01*
X174713728Y-117719870D01*
X174730079Y-117735557D01*
X174767302Y-117777678D01*
X174799378Y-117824162D01*
X174826309Y-117875017D01*
X174848099Y-117930255D01*
X174864751Y-117989885D01*
X174876268Y-118053917D01*
X174882655Y-118122360D01*
X174884080Y-118176269D01*
X174881490Y-118248099D01*
X174873728Y-118315673D01*
X174860803Y-118378962D01*
X174842726Y-118437937D01*
X174819507Y-118492568D01*
X174791157Y-118542827D01*
X174757685Y-118588685D01*
X174727823Y-118621586D01*
X174688137Y-118656784D01*
X174644903Y-118686304D01*
X174598067Y-118710167D01*
X174547573Y-118728393D01*
X174493366Y-118741002D01*
X174435392Y-118748014D01*
X174381248Y-118749572D01*
X174363086Y-118749300D01*
X174346563Y-118748910D01*
X174333262Y-118748449D01*
X174324763Y-118747964D01*
X174323586Y-118747846D01*
X174264696Y-118737877D01*
X174209994Y-118722590D01*
X174159451Y-118701963D01*
X174113036Y-118675975D01*
X174070719Y-118644607D01*
X174032469Y-118607838D01*
X173998255Y-118565646D01*
X173968047Y-118518013D01*
X173959520Y-118502192D01*
X173936822Y-118451853D01*
X173918365Y-118396924D01*
X173904290Y-118338208D01*
X173894737Y-118276504D01*
X173889845Y-118212613D01*
X173889797Y-118177733D01*
X173976453Y-118177733D01*
X173978373Y-118243559D01*
X173984200Y-118304081D01*
X173994032Y-118359597D01*
X174007969Y-118410406D01*
X174026109Y-118456805D01*
X174048553Y-118499092D01*
X174075399Y-118537566D01*
X174106746Y-118572525D01*
X174108216Y-118573973D01*
X174143784Y-118604613D01*
X174182356Y-118629598D01*
X174224387Y-118649145D01*
X174270331Y-118663470D01*
X174313426Y-118671795D01*
X174331818Y-118673639D01*
X174354952Y-118674720D01*
X174380845Y-118675056D01*
X174407511Y-118674665D01*
X174432965Y-118673563D01*
X174455221Y-118671770D01*
X174465768Y-118670437D01*
X174516451Y-118659842D01*
X174562954Y-118643938D01*
X174605332Y-118622683D01*
X174643644Y-118596030D01*
X174677947Y-118563935D01*
X174708297Y-118526354D01*
X174734751Y-118483241D01*
X174752917Y-118445280D01*
X174768871Y-118401378D01*
X174781530Y-118352632D01*
X174790838Y-118300147D01*
X174796735Y-118245028D01*
X174799163Y-118188381D01*
X174798064Y-118131313D01*
X174793379Y-118074928D01*
X174785050Y-118020333D01*
X174777227Y-117984601D01*
X174762139Y-117934060D01*
X174743155Y-117888584D01*
X174719889Y-117847445D01*
X174691955Y-117809915D01*
X174674361Y-117790444D01*
X174640812Y-117759590D01*
X174604696Y-117734156D01*
X174565570Y-117713974D01*
X174522990Y-117698876D01*
X174476511Y-117688695D01*
X174425688Y-117683262D01*
X174387933Y-117682194D01*
X174349818Y-117683095D01*
X174316259Y-117685991D01*
X174285255Y-117691174D01*
X174254808Y-117698937D01*
X174239052Y-117703915D01*
X174194461Y-117722305D01*
X174153354Y-117746390D01*
X174116005Y-117775896D01*
X174082693Y-117810553D01*
X174053691Y-117850089D01*
X174029278Y-117894232D01*
X174017126Y-117922357D01*
X174003170Y-117962469D01*
X173992337Y-118003868D01*
X173984451Y-118047670D01*
X173979332Y-118094992D01*
X173976804Y-118146951D01*
X173976453Y-118177733D01*
X173889797Y-118177733D01*
X173889755Y-118147337D01*
X173891624Y-118113482D01*
X173898915Y-118046874D01*
X173910532Y-117985292D01*
X173926580Y-117928462D01*
X173947166Y-117876111D01*
X173972396Y-117827966D01*
X174002377Y-117783753D01*
X174034674Y-117745863D01*
X174072343Y-117710174D01*
X174112766Y-117679999D01*
X174156561Y-117654999D01*
X174204347Y-117634838D01*
X174256741Y-117619178D01*
X174274480Y-117615085D01*
X174287361Y-117612479D01*
X174299438Y-117610523D01*
X174312028Y-117609125D01*
X174326450Y-117608193D01*
X174344022Y-117607635D01*
X174366063Y-117607359D01*
X174386240Y-117607281D01*
X174414371Y-117607363D01*
G36*
X173263686Y-117608295D02*
G01*
X173300102Y-117610633D01*
X173334462Y-117614833D01*
X173369058Y-117621168D01*
X173402236Y-117628907D01*
X173418247Y-117633307D01*
X173436107Y-117638794D01*
X173454471Y-117644887D01*
X173471993Y-117651105D01*
X173487329Y-117656968D01*
X173499133Y-117661994D01*
X173506060Y-117665702D01*
X173506762Y-117666262D01*
X173506425Y-117669982D01*
X173503861Y-117678266D01*
X173499712Y-117689542D01*
X173494618Y-117702239D01*
X173489222Y-117714785D01*
X173484166Y-117725609D01*
X173480091Y-117733140D01*
X173478611Y-117735192D01*
X173474440Y-117735334D01*
X173466387Y-117732743D01*
X173459373Y-117729547D01*
X173442074Y-117721768D01*
X173420169Y-117713393D01*
X173395703Y-117705106D01*
X173370724Y-117697590D01*
X173347275Y-117691528D01*
X173342010Y-117690345D01*
X173286198Y-117681066D01*
X173231033Y-117677378D01*
X173177049Y-117679135D01*
X173124781Y-117686191D01*
X173074764Y-117698402D01*
X173027533Y-117715620D01*
X172983623Y-117737700D01*
X172943568Y-117764496D01*
X172907904Y-117795862D01*
X172892051Y-117813020D01*
X172860164Y-117854583D01*
X172833457Y-117899279D01*
X172811834Y-117947417D01*
X172795194Y-117999305D01*
X172783439Y-118055253D01*
X172776469Y-118115568D01*
X172774186Y-118180160D01*
X172776630Y-118245901D01*
X172783902Y-118307508D01*
X172795910Y-118364851D01*
X172812563Y-118417799D01*
X172833769Y-118466220D01*
X172859438Y-118509983D01*
X172889476Y-118548959D01*
X172923794Y-118583016D01*
X172962300Y-118612023D01*
X173004902Y-118635849D01*
X173051510Y-118654363D01*
X173102030Y-118667435D01*
X173116240Y-118670000D01*
X173166069Y-118675805D01*
X173219940Y-118677683D01*
X173276439Y-118675720D01*
X173334152Y-118670003D01*
X173391663Y-118660616D01*
X173436355Y-118650578D01*
X173468453Y-118642428D01*
X173468453Y-118711839D01*
X173443900Y-118718937D01*
X173412333Y-118727504D01*
X173382508Y-118734298D01*
X173352948Y-118739513D01*
X173322176Y-118743340D01*
X173288714Y-118745974D01*
X173251087Y-118747608D01*
X173219533Y-118748289D01*
X173196036Y-118748563D01*
X173174187Y-118748689D01*
X173155101Y-118748672D01*
X173139891Y-118748516D01*
X173129671Y-118748224D01*
X173126400Y-118747985D01*
X173118103Y-118746742D01*
X173105164Y-118744573D01*
X173089594Y-118741822D01*
X173078427Y-118739775D01*
X173023504Y-118726349D01*
X172972218Y-118707293D01*
X172924712Y-118682780D01*
X172881128Y-118652982D01*
X172841608Y-118618071D01*
X172806295Y-118578220D01*
X172775330Y-118533600D01*
X172748856Y-118484384D01*
X172727015Y-118430745D01*
X172709950Y-118372855D01*
X172697802Y-118310885D01*
X172693056Y-118273047D01*
X172691118Y-118247070D01*
X172689972Y-118216809D01*
X172689600Y-118184169D01*
X172689985Y-118151053D01*
X172691109Y-118119364D01*
X172692954Y-118091007D01*
X172694910Y-118072210D01*
X172706021Y-118008966D01*
X172722439Y-117949665D01*
X172744011Y-117894473D01*
X172770580Y-117843554D01*
X172801992Y-117797072D01*
X172838089Y-117755192D01*
X172878717Y-117718079D01*
X172923721Y-117685897D01*
X172972944Y-117658811D01*
X173026232Y-117636985D01*
X173083428Y-117620584D01*
X173130026Y-117611758D01*
X173142914Y-117610363D01*
X173160821Y-117609166D01*
X173181992Y-117608247D01*
X173204672Y-117607685D01*
X173222920Y-117607547D01*
X173263686Y-117608295D01*
G37*
X173263686Y-117608295D02*
X173300102Y-117610633D01*
X173334462Y-117614833D01*
X173369058Y-117621168D01*
X173402236Y-117628907D01*
X173418247Y-117633307D01*
X173436107Y-117638794D01*
X173454471Y-117644887D01*
X173471993Y-117651105D01*
X173487329Y-117656968D01*
X173499133Y-117661994D01*
X173506060Y-117665702D01*
X173506762Y-117666262D01*
X173506425Y-117669982D01*
X173503861Y-117678266D01*
X173499712Y-117689542D01*
X173494618Y-117702239D01*
X173489222Y-117714785D01*
X173484166Y-117725609D01*
X173480091Y-117733140D01*
X173478611Y-117735192D01*
X173474440Y-117735334D01*
X173466387Y-117732743D01*
X173459373Y-117729547D01*
X173442074Y-117721768D01*
X173420169Y-117713393D01*
X173395703Y-117705106D01*
X173370724Y-117697590D01*
X173347275Y-117691528D01*
X173342010Y-117690345D01*
X173286198Y-117681066D01*
X173231033Y-117677378D01*
X173177049Y-117679135D01*
X173124781Y-117686191D01*
X173074764Y-117698402D01*
X173027533Y-117715620D01*
X172983623Y-117737700D01*
X172943568Y-117764496D01*
X172907904Y-117795862D01*
X172892051Y-117813020D01*
X172860164Y-117854583D01*
X172833457Y-117899279D01*
X172811834Y-117947417D01*
X172795194Y-117999305D01*
X172783439Y-118055253D01*
X172776469Y-118115568D01*
X172774186Y-118180160D01*
X172776630Y-118245901D01*
X172783902Y-118307508D01*
X172795910Y-118364851D01*
X172812563Y-118417799D01*
X172833769Y-118466220D01*
X172859438Y-118509983D01*
X172889476Y-118548959D01*
X172923794Y-118583016D01*
X172962300Y-118612023D01*
X173004902Y-118635849D01*
X173051510Y-118654363D01*
X173102030Y-118667435D01*
X173116240Y-118670000D01*
X173166069Y-118675805D01*
X173219940Y-118677683D01*
X173276439Y-118675720D01*
X173334152Y-118670003D01*
X173391663Y-118660616D01*
X173436355Y-118650578D01*
X173468453Y-118642428D01*
X173468453Y-118711839D01*
X173443900Y-118718937D01*
X173412333Y-118727504D01*
X173382508Y-118734298D01*
X173352948Y-118739513D01*
X173322176Y-118743340D01*
X173288714Y-118745974D01*
X173251087Y-118747608D01*
X173219533Y-118748289D01*
X173196036Y-118748563D01*
X173174187Y-118748689D01*
X173155101Y-118748672D01*
X173139891Y-118748516D01*
X173129671Y-118748224D01*
X173126400Y-118747985D01*
X173118103Y-118746742D01*
X173105164Y-118744573D01*
X173089594Y-118741822D01*
X173078427Y-118739775D01*
X173023504Y-118726349D01*
X172972218Y-118707293D01*
X172924712Y-118682780D01*
X172881128Y-118652982D01*
X172841608Y-118618071D01*
X172806295Y-118578220D01*
X172775330Y-118533600D01*
X172748856Y-118484384D01*
X172727015Y-118430745D01*
X172709950Y-118372855D01*
X172697802Y-118310885D01*
X172693056Y-118273047D01*
X172691118Y-118247070D01*
X172689972Y-118216809D01*
X172689600Y-118184169D01*
X172689985Y-118151053D01*
X172691109Y-118119364D01*
X172692954Y-118091007D01*
X172694910Y-118072210D01*
X172706021Y-118008966D01*
X172722439Y-117949665D01*
X172744011Y-117894473D01*
X172770580Y-117843554D01*
X172801992Y-117797072D01*
X172838089Y-117755192D01*
X172878717Y-117718079D01*
X172923721Y-117685897D01*
X172972944Y-117658811D01*
X173026232Y-117636985D01*
X173083428Y-117620584D01*
X173130026Y-117611758D01*
X173142914Y-117610363D01*
X173160821Y-117609166D01*
X173181992Y-117608247D01*
X173204672Y-117607685D01*
X173222920Y-117607547D01*
X173263686Y-117608295D01*
G36*
X177622200Y-105657650D02*
G01*
X177129061Y-105657650D01*
X176879746Y-105198862D01*
X176841317Y-105128201D01*
X176804561Y-105060719D01*
X176769936Y-104997256D01*
X176737904Y-104938651D01*
X176708925Y-104885743D01*
X176683459Y-104839370D01*
X176661967Y-104800372D01*
X176644908Y-104769586D01*
X176632744Y-104747853D01*
X176625935Y-104736011D01*
X176624665Y-104734042D01*
X176623603Y-104739128D01*
X176622627Y-104756247D01*
X176621746Y-104784735D01*
X176620968Y-104823925D01*
X176620301Y-104873151D01*
X176619753Y-104931747D01*
X176619334Y-104999048D01*
X176619051Y-105074387D01*
X176618912Y-105157100D01*
X176618900Y-105192829D01*
X176618900Y-105657650D01*
X176136253Y-105657650D01*
X176137864Y-104808337D01*
X176139475Y-103959025D01*
X176399825Y-103957458D01*
X176660175Y-103955892D01*
X176894021Y-104399819D01*
X176930873Y-104469713D01*
X176966159Y-104536515D01*
X176999412Y-104599347D01*
X177030165Y-104657332D01*
X177057951Y-104709595D01*
X177082304Y-104755258D01*
X177102755Y-104793443D01*
X177118839Y-104823276D01*
X177130087Y-104843878D01*
X177136034Y-104854373D01*
X177136707Y-104855411D01*
X177138416Y-104856269D01*
X177139897Y-104853491D01*
X177141166Y-104846285D01*
X177142240Y-104833856D01*
X177143134Y-104815414D01*
X177143865Y-104790165D01*
X177144449Y-104757317D01*
X177144901Y-104716077D01*
X177145239Y-104665653D01*
X177145478Y-104605253D01*
X177145635Y-104534082D01*
X177145725Y-104451351D01*
X177145748Y-104411462D01*
X177145950Y-103955850D01*
X177622200Y-103955850D01*
X177622200Y-105657650D01*
G37*
X177622200Y-105657650D02*
X177129061Y-105657650D01*
X176879746Y-105198862D01*
X176841317Y-105128201D01*
X176804561Y-105060719D01*
X176769936Y-104997256D01*
X176737904Y-104938651D01*
X176708925Y-104885743D01*
X176683459Y-104839370D01*
X176661967Y-104800372D01*
X176644908Y-104769586D01*
X176632744Y-104747853D01*
X176625935Y-104736011D01*
X176624665Y-104734042D01*
X176623603Y-104739128D01*
X176622627Y-104756247D01*
X176621746Y-104784735D01*
X176620968Y-104823925D01*
X176620301Y-104873151D01*
X176619753Y-104931747D01*
X176619334Y-104999048D01*
X176619051Y-105074387D01*
X176618912Y-105157100D01*
X176618900Y-105192829D01*
X176618900Y-105657650D01*
X176136253Y-105657650D01*
X176137864Y-104808337D01*
X176139475Y-103959025D01*
X176399825Y-103957458D01*
X176660175Y-103955892D01*
X176894021Y-104399819D01*
X176930873Y-104469713D01*
X176966159Y-104536515D01*
X176999412Y-104599347D01*
X177030165Y-104657332D01*
X177057951Y-104709595D01*
X177082304Y-104755258D01*
X177102755Y-104793443D01*
X177118839Y-104823276D01*
X177130087Y-104843878D01*
X177136034Y-104854373D01*
X177136707Y-104855411D01*
X177138416Y-104856269D01*
X177139897Y-104853491D01*
X177141166Y-104846285D01*
X177142240Y-104833856D01*
X177143134Y-104815414D01*
X177143865Y-104790165D01*
X177144449Y-104757317D01*
X177144901Y-104716077D01*
X177145239Y-104665653D01*
X177145478Y-104605253D01*
X177145635Y-104534082D01*
X177145725Y-104451351D01*
X177145748Y-104411462D01*
X177145950Y-103955850D01*
X177622200Y-103955850D01*
X177622200Y-105657650D01*
G36*
X175983900Y-104394000D02*
G01*
X175139350Y-104394000D01*
X175139350Y-104603550D01*
X175907700Y-104603550D01*
X175907700Y-105009950D01*
X175139350Y-105009950D01*
X175139350Y-105219500D01*
X176009300Y-105219500D01*
X176009300Y-105657650D01*
X174631350Y-105657650D01*
X174631350Y-103955850D01*
X175983900Y-103955850D01*
X175983900Y-104394000D01*
G37*
X175983900Y-104394000D02*
X175139350Y-104394000D01*
X175139350Y-104603550D01*
X175907700Y-104603550D01*
X175907700Y-105009950D01*
X175139350Y-105009950D01*
X175139350Y-105219500D01*
X176009300Y-105219500D01*
X176009300Y-105657650D01*
X174631350Y-105657650D01*
X174631350Y-103955850D01*
X175983900Y-103955850D01*
X175983900Y-104394000D01*
G36*
X173506803Y-103979662D02*
G01*
X173509366Y-103989453D01*
X173514887Y-104010547D01*
X173523108Y-104041962D01*
X173533773Y-104082716D01*
X173546623Y-104131825D01*
X173561403Y-104188307D01*
X173577854Y-104251180D01*
X173595719Y-104319460D01*
X173614743Y-104392165D01*
X173634666Y-104468312D01*
X173640975Y-104492425D01*
X173660979Y-104568807D01*
X173680077Y-104641583D01*
X173698022Y-104709826D01*
X173714569Y-104772608D01*
X173729472Y-104829001D01*
X173742486Y-104878078D01*
X173753365Y-104918911D01*
X173761863Y-104950571D01*
X173767734Y-104972132D01*
X173770733Y-104982666D01*
X173771062Y-104983580D01*
X173771749Y-104983848D01*
X173772668Y-104982849D01*
X173774020Y-104979829D01*
X173776002Y-104974038D01*
X173778815Y-104964723D01*
X173782658Y-104951132D01*
X173787730Y-104932513D01*
X173794231Y-104908115D01*
X173802359Y-104877185D01*
X173812313Y-104838971D01*
X173824294Y-104792721D01*
X173838501Y-104737684D01*
X173855132Y-104673106D01*
X173874387Y-104598237D01*
X173896466Y-104512324D01*
X173912997Y-104447975D01*
X174038602Y-103959025D01*
X174300051Y-103957367D01*
X174356281Y-103957055D01*
X174408363Y-103956855D01*
X174454974Y-103956763D01*
X174494788Y-103956779D01*
X174526481Y-103956901D01*
X174548727Y-103957128D01*
X174560203Y-103957459D01*
X174561500Y-103957643D01*
X174559695Y-103963839D01*
X174554420Y-103981498D01*
X174545883Y-104009931D01*
X174534293Y-104048445D01*
X174519859Y-104096351D01*
X174502789Y-104152955D01*
X174483292Y-104217569D01*
X174461575Y-104289499D01*
X174437849Y-104368055D01*
X174412322Y-104452546D01*
X174385201Y-104542281D01*
X174356697Y-104636568D01*
X174327017Y-104734717D01*
X174305145Y-104807026D01*
X174048791Y-105654475D01*
X173478155Y-105657777D01*
X173234671Y-104814751D01*
X173205631Y-104714219D01*
X173177537Y-104616992D01*
X173150592Y-104523774D01*
X173125001Y-104435270D01*
X173100968Y-104352182D01*
X173078696Y-104275214D01*
X173058388Y-104205070D01*
X173040249Y-104142453D01*
X173024482Y-104088066D01*
X173011291Y-104042615D01*
X173000880Y-104006801D01*
X172993453Y-103981329D01*
X172989212Y-103966902D01*
X172988264Y-103963787D01*
X172989967Y-103961742D01*
X172997354Y-103960058D01*
X173011370Y-103958704D01*
X173032962Y-103957651D01*
X173063076Y-103956870D01*
X173102659Y-103956331D01*
X173152658Y-103956005D01*
X173214017Y-103955862D01*
X173242950Y-103955850D01*
X173500560Y-103955850D01*
X173506803Y-103979662D01*
G37*
X173506803Y-103979662D02*
X173509366Y-103989453D01*
X173514887Y-104010547D01*
X173523108Y-104041962D01*
X173533773Y-104082716D01*
X173546623Y-104131825D01*
X173561403Y-104188307D01*
X173577854Y-104251180D01*
X173595719Y-104319460D01*
X173614743Y-104392165D01*
X173634666Y-104468312D01*
X173640975Y-104492425D01*
X173660979Y-104568807D01*
X173680077Y-104641583D01*
X173698022Y-104709826D01*
X173714569Y-104772608D01*
X173729472Y-104829001D01*
X173742486Y-104878078D01*
X173753365Y-104918911D01*
X173761863Y-104950571D01*
X173767734Y-104972132D01*
X173770733Y-104982666D01*
X173771062Y-104983580D01*
X173771749Y-104983848D01*
X173772668Y-104982849D01*
X173774020Y-104979829D01*
X173776002Y-104974038D01*
X173778815Y-104964723D01*
X173782658Y-104951132D01*
X173787730Y-104932513D01*
X173794231Y-104908115D01*
X173802359Y-104877185D01*
X173812313Y-104838971D01*
X173824294Y-104792721D01*
X173838501Y-104737684D01*
X173855132Y-104673106D01*
X173874387Y-104598237D01*
X173896466Y-104512324D01*
X173912997Y-104447975D01*
X174038602Y-103959025D01*
X174300051Y-103957367D01*
X174356281Y-103957055D01*
X174408363Y-103956855D01*
X174454974Y-103956763D01*
X174494788Y-103956779D01*
X174526481Y-103956901D01*
X174548727Y-103957128D01*
X174560203Y-103957459D01*
X174561500Y-103957643D01*
X174559695Y-103963839D01*
X174554420Y-103981498D01*
X174545883Y-104009931D01*
X174534293Y-104048445D01*
X174519859Y-104096351D01*
X174502789Y-104152955D01*
X174483292Y-104217569D01*
X174461575Y-104289499D01*
X174437849Y-104368055D01*
X174412322Y-104452546D01*
X174385201Y-104542281D01*
X174356697Y-104636568D01*
X174327017Y-104734717D01*
X174305145Y-104807026D01*
X174048791Y-105654475D01*
X173478155Y-105657777D01*
X173234671Y-104814751D01*
X173205631Y-104714219D01*
X173177537Y-104616992D01*
X173150592Y-104523774D01*
X173125001Y-104435270D01*
X173100968Y-104352182D01*
X173078696Y-104275214D01*
X173058388Y-104205070D01*
X173040249Y-104142453D01*
X173024482Y-104088066D01*
X173011291Y-104042615D01*
X173000880Y-104006801D01*
X172993453Y-103981329D01*
X172989212Y-103966902D01*
X172988264Y-103963787D01*
X172989967Y-103961742D01*
X172997354Y-103960058D01*
X173011370Y-103958704D01*
X173032962Y-103957651D01*
X173063076Y-103956870D01*
X173102659Y-103956331D01*
X173152658Y-103956005D01*
X173214017Y-103955862D01*
X173242950Y-103955850D01*
X173500560Y-103955850D01*
X173506803Y-103979662D01*
G36*
X171259500Y-104394000D02*
G01*
X170408600Y-104394000D01*
X170408600Y-104603550D01*
X171183300Y-104603550D01*
X171183300Y-105009950D01*
X170408600Y-105009950D01*
X170408600Y-105219500D01*
X171284900Y-105219500D01*
X171284900Y-105657650D01*
X169906950Y-105657650D01*
X169906950Y-103955850D01*
X171259500Y-103955850D01*
X171259500Y-104394000D01*
G37*
X171259500Y-104394000D02*
X170408600Y-104394000D01*
X170408600Y-104603550D01*
X171183300Y-104603550D01*
X171183300Y-105009950D01*
X170408600Y-105009950D01*
X170408600Y-105219500D01*
X171284900Y-105219500D01*
X171284900Y-105657650D01*
X169906950Y-105657650D01*
X169906950Y-103955850D01*
X171259500Y-103955850D01*
X171259500Y-104394000D01*
G36*
X169037000Y-105219394D02*
G01*
X169394187Y-105221034D01*
X169751375Y-105222675D01*
X169753045Y-105440162D01*
X169754716Y-105657650D01*
X168529000Y-105657650D01*
X168529000Y-103955850D01*
X169037000Y-103955850D01*
X169037000Y-105219394D01*
G37*
X169037000Y-105219394D02*
X169394187Y-105221034D01*
X169751375Y-105222675D01*
X169753045Y-105440162D01*
X169754716Y-105657650D01*
X168529000Y-105657650D01*
X168529000Y-103955850D01*
X169037000Y-103955850D01*
X169037000Y-105219394D01*
G36*
X165080950Y-104249361D02*
G01*
X165080962Y-104317941D01*
X165081027Y-104374852D01*
X165081190Y-104421125D01*
X165081496Y-104457790D01*
X165081987Y-104485879D01*
X165082709Y-104506421D01*
X165083706Y-104520448D01*
X165085022Y-104528991D01*
X165086700Y-104533081D01*
X165088786Y-104533747D01*
X165091324Y-104532022D01*
X165093004Y-104530348D01*
X165099095Y-104523032D01*
X165112157Y-104506621D01*
X165131428Y-104482094D01*
X165156146Y-104450430D01*
X165185549Y-104412609D01*
X165218876Y-104369610D01*
X165255364Y-104322412D01*
X165294252Y-104271993D01*
X165312766Y-104247950D01*
X165352453Y-104196434D01*
X165390047Y-104147728D01*
X165424792Y-104102807D01*
X165455933Y-104062641D01*
X165482714Y-104028205D01*
X165504379Y-104000469D01*
X165520173Y-103980408D01*
X165529340Y-103968994D01*
X165531136Y-103966901D01*
X165534252Y-103964348D01*
X165539015Y-103962227D01*
X165546504Y-103960505D01*
X165557798Y-103959152D01*
X165573978Y-103958134D01*
X165596122Y-103957419D01*
X165625311Y-103956977D01*
X165662624Y-103956773D01*
X165709139Y-103956778D01*
X165765938Y-103956958D01*
X165834099Y-103957281D01*
X165852166Y-103957376D01*
X166162532Y-103959025D01*
X165866011Y-104288874D01*
X165809540Y-104351867D01*
X165757988Y-104409723D01*
X165711807Y-104461922D01*
X165671449Y-104507942D01*
X165637363Y-104547262D01*
X165610003Y-104579361D01*
X165589819Y-104603718D01*
X165577263Y-104619811D01*
X165572786Y-104627121D01*
X165572807Y-104627366D01*
X165576744Y-104633771D01*
X165587268Y-104649985D01*
X165603888Y-104675272D01*
X165626115Y-104708898D01*
X165653460Y-104750124D01*
X165685432Y-104798216D01*
X165721543Y-104852436D01*
X165761302Y-104912049D01*
X165804219Y-104976318D01*
X165849806Y-105044508D01*
X165897572Y-105115881D01*
X165915911Y-105143264D01*
X165964282Y-105215511D01*
X166010596Y-105284759D01*
X166054372Y-105350282D01*
X166095125Y-105411354D01*
X166132373Y-105467246D01*
X166165631Y-105517234D01*
X166194418Y-105560589D01*
X166218249Y-105596586D01*
X166236641Y-105624498D01*
X166249111Y-105643598D01*
X166255175Y-105653159D01*
X166255700Y-105654144D01*
X166249551Y-105654823D01*
X166231908Y-105655397D01*
X166203979Y-105655856D01*
X166166968Y-105656194D01*
X166122082Y-105656403D01*
X166070527Y-105656476D01*
X166013510Y-105656404D01*
X165952235Y-105656181D01*
X165940252Y-105656121D01*
X165624804Y-105654475D01*
X165426258Y-105330743D01*
X165390497Y-105272551D01*
X165356623Y-105217656D01*
X165325230Y-105167003D01*
X165296909Y-105121539D01*
X165272255Y-105082210D01*
X165251860Y-105049962D01*
X165236318Y-105025741D01*
X165226221Y-105010493D01*
X165222187Y-105005170D01*
X165216307Y-105009043D01*
X165203623Y-105020933D01*
X165185672Y-105039283D01*
X165163995Y-105062537D01*
X165148806Y-105079354D01*
X165080950Y-105155380D01*
X165080950Y-105657650D01*
X164572950Y-105657650D01*
X164572950Y-103955850D01*
X165080950Y-103955850D01*
X165080950Y-104249361D01*
G37*
X165080950Y-104249361D02*
X165080962Y-104317941D01*
X165081027Y-104374852D01*
X165081190Y-104421125D01*
X165081496Y-104457790D01*
X165081987Y-104485879D01*
X165082709Y-104506421D01*
X165083706Y-104520448D01*
X165085022Y-104528991D01*
X165086700Y-104533081D01*
X165088786Y-104533747D01*
X165091324Y-104532022D01*
X165093004Y-104530348D01*
X165099095Y-104523032D01*
X165112157Y-104506621D01*
X165131428Y-104482094D01*
X165156146Y-104450430D01*
X165185549Y-104412609D01*
X165218876Y-104369610D01*
X165255364Y-104322412D01*
X165294252Y-104271993D01*
X165312766Y-104247950D01*
X165352453Y-104196434D01*
X165390047Y-104147728D01*
X165424792Y-104102807D01*
X165455933Y-104062641D01*
X165482714Y-104028205D01*
X165504379Y-104000469D01*
X165520173Y-103980408D01*
X165529340Y-103968994D01*
X165531136Y-103966901D01*
X165534252Y-103964348D01*
X165539015Y-103962227D01*
X165546504Y-103960505D01*
X165557798Y-103959152D01*
X165573978Y-103958134D01*
X165596122Y-103957419D01*
X165625311Y-103956977D01*
X165662624Y-103956773D01*
X165709139Y-103956778D01*
X165765938Y-103956958D01*
X165834099Y-103957281D01*
X165852166Y-103957376D01*
X166162532Y-103959025D01*
X165866011Y-104288874D01*
X165809540Y-104351867D01*
X165757988Y-104409723D01*
X165711807Y-104461922D01*
X165671449Y-104507942D01*
X165637363Y-104547262D01*
X165610003Y-104579361D01*
X165589819Y-104603718D01*
X165577263Y-104619811D01*
X165572786Y-104627121D01*
X165572807Y-104627366D01*
X165576744Y-104633771D01*
X165587268Y-104649985D01*
X165603888Y-104675272D01*
X165626115Y-104708898D01*
X165653460Y-104750124D01*
X165685432Y-104798216D01*
X165721543Y-104852436D01*
X165761302Y-104912049D01*
X165804219Y-104976318D01*
X165849806Y-105044508D01*
X165897572Y-105115881D01*
X165915911Y-105143264D01*
X165964282Y-105215511D01*
X166010596Y-105284759D01*
X166054372Y-105350282D01*
X166095125Y-105411354D01*
X166132373Y-105467246D01*
X166165631Y-105517234D01*
X166194418Y-105560589D01*
X166218249Y-105596586D01*
X166236641Y-105624498D01*
X166249111Y-105643598D01*
X166255175Y-105653159D01*
X166255700Y-105654144D01*
X166249551Y-105654823D01*
X166231908Y-105655397D01*
X166203979Y-105655856D01*
X166166968Y-105656194D01*
X166122082Y-105656403D01*
X166070527Y-105656476D01*
X166013510Y-105656404D01*
X165952235Y-105656181D01*
X165940252Y-105656121D01*
X165624804Y-105654475D01*
X165426258Y-105330743D01*
X165390497Y-105272551D01*
X165356623Y-105217656D01*
X165325230Y-105167003D01*
X165296909Y-105121539D01*
X165272255Y-105082210D01*
X165251860Y-105049962D01*
X165236318Y-105025741D01*
X165226221Y-105010493D01*
X165222187Y-105005170D01*
X165216307Y-105009043D01*
X165203623Y-105020933D01*
X165185672Y-105039283D01*
X165163995Y-105062537D01*
X165148806Y-105079354D01*
X165080950Y-105155380D01*
X165080950Y-105657650D01*
X164572950Y-105657650D01*
X164572950Y-103955850D01*
X165080950Y-103955850D01*
X165080950Y-104249361D01*
G36*
X172663508Y-103955850D02*
G01*
X172917456Y-103955850D01*
X172915096Y-104547987D01*
X172914689Y-104648257D01*
X172914301Y-104736667D01*
X172913914Y-104814057D01*
X172913507Y-104881269D01*
X172913060Y-104939141D01*
X172912552Y-104988514D01*
X172911965Y-105030229D01*
X172911277Y-105065125D01*
X172910469Y-105094042D01*
X172909520Y-105117822D01*
X172908411Y-105137304D01*
X172907122Y-105153328D01*
X172905632Y-105166735D01*
X172903921Y-105178364D01*
X172901970Y-105189056D01*
X172899758Y-105199652D01*
X172899509Y-105200796D01*
X172886054Y-105253264D01*
X172868743Y-105306795D01*
X172849072Y-105357319D01*
X172828537Y-105400764D01*
X172821072Y-105414142D01*
X172800510Y-105443736D01*
X172772199Y-105477261D01*
X172739086Y-105511808D01*
X172704118Y-105544464D01*
X172670245Y-105572319D01*
X172640625Y-105592340D01*
X172565059Y-105629316D01*
X172481184Y-105658868D01*
X172391524Y-105680197D01*
X172335825Y-105688738D01*
X172301690Y-105691738D01*
X172258641Y-105693752D01*
X172209663Y-105694806D01*
X172157739Y-105694926D01*
X172105856Y-105694136D01*
X172056999Y-105692462D01*
X172014152Y-105689930D01*
X171980301Y-105686564D01*
X171974039Y-105685665D01*
X171882223Y-105667596D01*
X171800640Y-105643290D01*
X171728190Y-105612247D01*
X171663774Y-105573964D01*
X171606294Y-105527940D01*
X171586525Y-105508809D01*
X171538410Y-105453272D01*
X171498972Y-105392702D01*
X171467258Y-105325243D01*
X171442317Y-105249038D01*
X171432232Y-105207721D01*
X171415915Y-105133775D01*
X171413548Y-104544812D01*
X171411181Y-103955850D01*
X171919070Y-103955850D01*
X171921599Y-104497187D01*
X171922077Y-104594464D01*
X171922557Y-104679879D01*
X171923057Y-104754267D01*
X171923596Y-104818468D01*
X171924191Y-104873317D01*
X171924862Y-104919651D01*
X171925625Y-104958309D01*
X171926500Y-104990127D01*
X171927505Y-105015942D01*
X171928658Y-105036591D01*
X171929977Y-105052912D01*
X171931481Y-105065742D01*
X171933188Y-105075918D01*
X171934351Y-105081239D01*
X171947684Y-105127544D01*
X171963843Y-105164578D01*
X171984449Y-105195716D01*
X171995679Y-105208783D01*
X172022781Y-105233444D01*
X172053076Y-105250847D01*
X172089218Y-105262011D01*
X172133862Y-105267957D01*
X172152439Y-105269013D01*
X172209151Y-105268083D01*
X172256431Y-105259755D01*
X172295577Y-105243424D01*
X172327888Y-105218483D01*
X172354665Y-105184326D01*
X172362474Y-105170990D01*
X172369562Y-105158022D01*
X172375808Y-105146047D01*
X172381269Y-105134213D01*
X172386002Y-105121664D01*
X172390063Y-105107550D01*
X172393510Y-105091015D01*
X172396400Y-105071207D01*
X172398789Y-105047272D01*
X172400734Y-105018357D01*
X172402292Y-104983610D01*
X172403519Y-104942176D01*
X172404474Y-104893202D01*
X172405212Y-104835835D01*
X172405791Y-104769222D01*
X172406266Y-104692509D01*
X172406696Y-104604843D01*
X172407137Y-104505372D01*
X172407159Y-104500362D01*
X172409561Y-103955849D01*
X172663508Y-103955850D01*
G37*
X172663508Y-103955850D02*
X172917456Y-103955850D01*
X172915096Y-104547987D01*
X172914689Y-104648257D01*
X172914301Y-104736667D01*
X172913914Y-104814057D01*
X172913507Y-104881269D01*
X172913060Y-104939141D01*
X172912552Y-104988514D01*
X172911965Y-105030229D01*
X172911277Y-105065125D01*
X172910469Y-105094042D01*
X172909520Y-105117822D01*
X172908411Y-105137304D01*
X172907122Y-105153328D01*
X172905632Y-105166735D01*
X172903921Y-105178364D01*
X172901970Y-105189056D01*
X172899758Y-105199652D01*
X172899509Y-105200796D01*
X172886054Y-105253264D01*
X172868743Y-105306795D01*
X172849072Y-105357319D01*
X172828537Y-105400764D01*
X172821072Y-105414142D01*
X172800510Y-105443736D01*
X172772199Y-105477261D01*
X172739086Y-105511808D01*
X172704118Y-105544464D01*
X172670245Y-105572319D01*
X172640625Y-105592340D01*
X172565059Y-105629316D01*
X172481184Y-105658868D01*
X172391524Y-105680197D01*
X172335825Y-105688738D01*
X172301690Y-105691738D01*
X172258641Y-105693752D01*
X172209663Y-105694806D01*
X172157739Y-105694926D01*
X172105856Y-105694136D01*
X172056999Y-105692462D01*
X172014152Y-105689930D01*
X171980301Y-105686564D01*
X171974039Y-105685665D01*
X171882223Y-105667596D01*
X171800640Y-105643290D01*
X171728190Y-105612247D01*
X171663774Y-105573964D01*
X171606294Y-105527940D01*
X171586525Y-105508809D01*
X171538410Y-105453272D01*
X171498972Y-105392702D01*
X171467258Y-105325243D01*
X171442317Y-105249038D01*
X171432232Y-105207721D01*
X171415915Y-105133775D01*
X171413548Y-104544812D01*
X171411181Y-103955850D01*
X171919070Y-103955850D01*
X171921599Y-104497187D01*
X171922077Y-104594464D01*
X171922557Y-104679879D01*
X171923057Y-104754267D01*
X171923596Y-104818468D01*
X171924191Y-104873317D01*
X171924862Y-104919651D01*
X171925625Y-104958309D01*
X171926500Y-104990127D01*
X171927505Y-105015942D01*
X171928658Y-105036591D01*
X171929977Y-105052912D01*
X171931481Y-105065742D01*
X171933188Y-105075918D01*
X171934351Y-105081239D01*
X171947684Y-105127544D01*
X171963843Y-105164578D01*
X171984449Y-105195716D01*
X171995679Y-105208783D01*
X172022781Y-105233444D01*
X172053076Y-105250847D01*
X172089218Y-105262011D01*
X172133862Y-105267957D01*
X172152439Y-105269013D01*
X172209151Y-105268083D01*
X172256431Y-105259755D01*
X172295577Y-105243424D01*
X172327888Y-105218483D01*
X172354665Y-105184326D01*
X172362474Y-105170990D01*
X172369562Y-105158022D01*
X172375808Y-105146047D01*
X172381269Y-105134213D01*
X172386002Y-105121664D01*
X172390063Y-105107550D01*
X172393510Y-105091015D01*
X172396400Y-105071207D01*
X172398789Y-105047272D01*
X172400734Y-105018357D01*
X172402292Y-104983610D01*
X172403519Y-104942176D01*
X172404474Y-104893202D01*
X172405212Y-104835835D01*
X172405791Y-104769222D01*
X172406266Y-104692509D01*
X172406696Y-104604843D01*
X172407137Y-104505372D01*
X172407159Y-104500362D01*
X172409561Y-103955849D01*
X172663508Y-103955850D01*
G36*
X166790763Y-104503537D02*
G01*
X166791193Y-104600750D01*
X166791622Y-104686100D01*
X166792068Y-104760424D01*
X166792550Y-104824561D01*
X166793087Y-104879348D01*
X166793696Y-104925621D01*
X166794397Y-104964218D01*
X166795208Y-104995978D01*
X166796147Y-105021736D01*
X166797234Y-105042330D01*
X166798486Y-105058599D01*
X166799922Y-105071378D01*
X166801561Y-105081506D01*
X166803421Y-105089820D01*
X166803760Y-105091112D01*
X166820709Y-105142335D01*
X166841774Y-105182908D01*
X166868187Y-105214549D01*
X166901180Y-105238975D01*
X166915129Y-105246444D01*
X166933258Y-105255077D01*
X166948246Y-105260897D01*
X166963346Y-105264455D01*
X166981809Y-105266305D01*
X167006888Y-105266998D01*
X167036645Y-105267091D01*
X167080455Y-105266006D01*
X167114584Y-105262167D01*
X167141923Y-105254632D01*
X167165360Y-105242461D01*
X167187786Y-105224713D01*
X167198619Y-105214356D01*
X167210734Y-105201682D01*
X167221547Y-105188633D01*
X167231133Y-105174452D01*
X167239564Y-105158381D01*
X167246916Y-105139661D01*
X167253262Y-105117535D01*
X167258676Y-105091245D01*
X167263232Y-105060032D01*
X167267004Y-105023139D01*
X167270065Y-104979808D01*
X167272490Y-104929281D01*
X167274353Y-104870800D01*
X167275726Y-104803606D01*
X167276685Y-104726943D01*
X167277304Y-104640051D01*
X167277655Y-104542174D01*
X167277813Y-104432553D01*
X167277832Y-104401937D01*
X167278050Y-103955850D01*
X167786050Y-103955850D01*
X167785995Y-104490837D01*
X167785910Y-104578037D01*
X167785678Y-104662022D01*
X167785312Y-104741769D01*
X167784822Y-104816252D01*
X167784218Y-104884449D01*
X167783511Y-104945334D01*
X167782712Y-104997884D01*
X167781833Y-105041073D01*
X167780883Y-105073878D01*
X167779873Y-105095274D01*
X167779601Y-105098850D01*
X167766221Y-105196744D01*
X167743815Y-105285720D01*
X167712322Y-105365843D01*
X167671680Y-105437176D01*
X167621827Y-105499784D01*
X167562703Y-105553733D01*
X167494245Y-105599086D01*
X167416392Y-105635909D01*
X167329082Y-105664265D01*
X167232253Y-105684220D01*
X167220085Y-105686039D01*
X167193497Y-105688846D01*
X167157595Y-105691195D01*
X167115164Y-105693041D01*
X167068988Y-105694340D01*
X167021850Y-105695050D01*
X166976535Y-105695126D01*
X166935825Y-105694525D01*
X166902507Y-105693203D01*
X166881175Y-105691364D01*
X166793228Y-105677097D01*
X166715458Y-105658353D01*
X166645972Y-105634609D01*
X166596514Y-105612383D01*
X166525601Y-105570519D01*
X166463935Y-105520513D01*
X166411267Y-105462028D01*
X166367347Y-105394728D01*
X166331927Y-105318274D01*
X166304757Y-105232329D01*
X166299275Y-105209542D01*
X166296864Y-105198739D01*
X166294736Y-105188345D01*
X166292872Y-105177521D01*
X166291250Y-105165429D01*
X166289849Y-105151231D01*
X166288647Y-105134087D01*
X166287625Y-105113160D01*
X166286760Y-105087611D01*
X166286032Y-105056602D01*
X166285420Y-105019293D01*
X166284903Y-104974848D01*
X166284460Y-104922426D01*
X166284069Y-104861190D01*
X166283710Y-104790302D01*
X166283361Y-104708922D01*
X166283003Y-104616212D01*
X166282760Y-104551162D01*
X166280552Y-103955850D01*
X166534501Y-103955850D01*
X166788450Y-103955849D01*
X166790763Y-104503537D01*
G37*
X166790763Y-104503537D02*
X166791193Y-104600750D01*
X166791622Y-104686100D01*
X166792068Y-104760424D01*
X166792550Y-104824561D01*
X166793087Y-104879348D01*
X166793696Y-104925621D01*
X166794397Y-104964218D01*
X166795208Y-104995978D01*
X166796147Y-105021736D01*
X166797234Y-105042330D01*
X166798486Y-105058599D01*
X166799922Y-105071378D01*
X166801561Y-105081506D01*
X166803421Y-105089820D01*
X166803760Y-105091112D01*
X166820709Y-105142335D01*
X166841774Y-105182908D01*
X166868187Y-105214549D01*
X166901180Y-105238975D01*
X166915129Y-105246444D01*
X166933258Y-105255077D01*
X166948246Y-105260897D01*
X166963346Y-105264455D01*
X166981809Y-105266305D01*
X167006888Y-105266998D01*
X167036645Y-105267091D01*
X167080455Y-105266006D01*
X167114584Y-105262167D01*
X167141923Y-105254632D01*
X167165360Y-105242461D01*
X167187786Y-105224713D01*
X167198619Y-105214356D01*
X167210734Y-105201682D01*
X167221547Y-105188633D01*
X167231133Y-105174452D01*
X167239564Y-105158381D01*
X167246916Y-105139661D01*
X167253262Y-105117535D01*
X167258676Y-105091245D01*
X167263232Y-105060032D01*
X167267004Y-105023139D01*
X167270065Y-104979808D01*
X167272490Y-104929281D01*
X167274353Y-104870800D01*
X167275726Y-104803606D01*
X167276685Y-104726943D01*
X167277304Y-104640051D01*
X167277655Y-104542174D01*
X167277813Y-104432553D01*
X167277832Y-104401937D01*
X167278050Y-103955850D01*
X167786050Y-103955850D01*
X167785995Y-104490837D01*
X167785910Y-104578037D01*
X167785678Y-104662022D01*
X167785312Y-104741769D01*
X167784822Y-104816252D01*
X167784218Y-104884449D01*
X167783511Y-104945334D01*
X167782712Y-104997884D01*
X167781833Y-105041073D01*
X167780883Y-105073878D01*
X167779873Y-105095274D01*
X167779601Y-105098850D01*
X167766221Y-105196744D01*
X167743815Y-105285720D01*
X167712322Y-105365843D01*
X167671680Y-105437176D01*
X167621827Y-105499784D01*
X167562703Y-105553733D01*
X167494245Y-105599086D01*
X167416392Y-105635909D01*
X167329082Y-105664265D01*
X167232253Y-105684220D01*
X167220085Y-105686039D01*
X167193497Y-105688846D01*
X167157595Y-105691195D01*
X167115164Y-105693041D01*
X167068988Y-105694340D01*
X167021850Y-105695050D01*
X166976535Y-105695126D01*
X166935825Y-105694525D01*
X166902507Y-105693203D01*
X166881175Y-105691364D01*
X166793228Y-105677097D01*
X166715458Y-105658353D01*
X166645972Y-105634609D01*
X166596514Y-105612383D01*
X166525601Y-105570519D01*
X166463935Y-105520513D01*
X166411267Y-105462028D01*
X166367347Y-105394728D01*
X166331927Y-105318274D01*
X166304757Y-105232329D01*
X166299275Y-105209542D01*
X166296864Y-105198739D01*
X166294736Y-105188345D01*
X166292872Y-105177521D01*
X166291250Y-105165429D01*
X166289849Y-105151231D01*
X166288647Y-105134087D01*
X166287625Y-105113160D01*
X166286760Y-105087611D01*
X166286032Y-105056602D01*
X166285420Y-105019293D01*
X166284903Y-104974848D01*
X166284460Y-104922426D01*
X166284069Y-104861190D01*
X166283710Y-104790302D01*
X166283361Y-104708922D01*
X166283003Y-104616212D01*
X166282760Y-104551162D01*
X166280552Y-103955850D01*
X166534501Y-103955850D01*
X166788450Y-103955849D01*
X166790763Y-104503537D01*
G36*
X178758850Y-101971472D02*
G01*
X178758849Y-102254044D01*
X171099162Y-102255634D01*
X163439475Y-102257225D01*
X163437879Y-104808337D01*
X163436284Y-107359450D01*
X162871150Y-107359450D01*
X162871150Y-101688900D01*
X178758850Y-101688900D01*
X178758850Y-101971472D01*
G37*
X178758850Y-101971472D02*
X178758849Y-102254044D01*
X171099162Y-102255634D01*
X163439475Y-102257225D01*
X163437879Y-104808337D01*
X163436284Y-107359450D01*
X162871150Y-107359450D01*
X162871150Y-101688900D01*
X178758850Y-101688900D01*
X178758850Y-101971472D01*
D12*
X160045500Y-70167500D02*
X155245500Y-70167500D01*
X155245500Y-70167500D02*
X154045500Y-70167500D01*
X154045500Y-70167500D02*
X154045500Y-66167500D01*
X154045500Y-66167500D02*
X135245500Y-66167500D01*
X135245500Y-66167500D02*
X135245500Y-74167500D01*
X135245500Y-74167500D02*
X154045500Y-74167500D01*
X154045500Y-74167500D02*
X154045500Y-70167500D01*
X154045500Y-69767500D02*
X160045500Y-69767500D01*
X160045500Y-69767500D02*
X160045500Y-70567500D01*
X160045500Y-70567500D02*
X154045500Y-70567500D01*
X184909332Y-90109655D02*
X184509332Y-89416834D01*
X188948914Y-90606417D02*
X188798914Y-90346609D01*
X185099043Y-89538244D02*
X184909332Y-90109655D01*
X184509332Y-89416834D02*
X185099043Y-89538244D01*
X187373786Y-82278214D02*
X184948914Y-83678214D01*
X191223786Y-88946609D02*
X188798914Y-90346609D01*
X184798914Y-83418406D02*
X183456575Y-84193406D01*
X184948914Y-83678214D02*
X184798914Y-83418406D01*
X188948914Y-90606417D02*
X187606575Y-91381417D01*
X147693748Y-84530000D02*
X148216252Y-84530000D01*
X147693748Y-83110000D02*
X148216252Y-83110000D01*
X171460740Y-89318512D02*
X171460740Y-86546008D01*
X168040740Y-89318512D02*
X168040740Y-86546008D01*
D13*
X153996700Y-93262000D02*
G75*
G03X153996700Y-93262000I-282700J0D01*
G01*
D12*
X162000000Y-90153748D02*
X162000000Y-90676252D01*
X160580000Y-90153748D02*
X160580000Y-90676252D01*
X146760000Y-99043748D02*
X146760000Y-99566252D01*
X145340000Y-99043748D02*
X145340000Y-99566252D01*
X147880000Y-99043748D02*
X147880000Y-99566252D01*
X149300000Y-99043748D02*
X149300000Y-99566252D01*
X159758748Y-83110000D02*
X160281252Y-83110000D01*
X159758748Y-84530000D02*
X160281252Y-84530000D01*
X155313748Y-104215000D02*
X155836252Y-104215000D01*
X155313748Y-102795000D02*
X155836252Y-102795000D01*
X186130000Y-97291148D02*
X186130000Y-97813652D01*
X184710000Y-97291148D02*
X184710000Y-97813652D01*
X147318252Y-90880000D02*
X146795748Y-90880000D01*
X147318252Y-89460000D02*
X146795748Y-89460000D01*
X147064252Y-92635000D02*
X146541748Y-92635000D01*
X147064252Y-94055000D02*
X146541748Y-94055000D01*
X175335000Y-90676252D02*
X175335000Y-90153748D01*
X173915000Y-90676252D02*
X173915000Y-90153748D01*
X173765468Y-87390040D02*
X174287972Y-87390040D01*
X173765468Y-85970040D02*
X174287972Y-85970040D01*
X152960000Y-85853748D02*
X152960000Y-86376252D01*
X154380000Y-85853748D02*
X154380000Y-86376252D01*
X156920000Y-85853748D02*
X156920000Y-86376252D01*
X155500000Y-85853748D02*
X155500000Y-86376252D01*
X166165788Y-78979960D02*
X166688292Y-78979960D01*
X166165788Y-80399960D02*
X166688292Y-80399960D01*
X173973748Y-80212000D02*
X174496252Y-80212000D01*
X173973748Y-78792000D02*
X174496252Y-78792000D01*
X146095000Y-87320000D02*
X148955000Y-87320000D01*
X146095000Y-85400000D02*
X146095000Y-87320000D01*
X148955000Y-85400000D02*
X146095000Y-85400000D01*
X180391920Y-89117840D02*
X177991920Y-89117840D01*
X177991920Y-92217840D02*
X180941920Y-92217840D01*
X144975733Y-97030000D02*
X145318267Y-97030000D01*
X144975733Y-96010000D02*
X145318267Y-96010000D01*
X173230000Y-90162533D02*
X173230000Y-90505067D01*
X172210000Y-90162533D02*
X172210000Y-90505067D01*
X182530680Y-97280988D02*
X182530680Y-97803492D01*
X183950680Y-97280988D02*
X183950680Y-97803492D01*
X166590000Y-96013748D02*
X166590000Y-96536252D01*
X165170000Y-96013748D02*
X165170000Y-96536252D01*
X165116252Y-98985000D02*
X164593748Y-98985000D01*
X165116252Y-100405000D02*
X164593748Y-100405000D01*
X135385500Y-87697000D02*
X136715500Y-87697000D01*
X135385500Y-89027000D02*
X135385500Y-87697000D01*
X137985500Y-87697000D02*
X140585500Y-87697000D01*
X137985500Y-90297000D02*
X137985500Y-87697000D01*
X135385500Y-90297000D02*
X137985500Y-90297000D01*
X140585500Y-87697000D02*
X140585500Y-95437000D01*
X135385500Y-90297000D02*
X135385500Y-95437000D01*
X135385500Y-95437000D02*
X140585500Y-95437000D01*
X143254252Y-94182000D02*
X142731748Y-94182000D01*
X143254252Y-92762000D02*
X142731748Y-92762000D01*
X166201348Y-78332400D02*
X166723852Y-78332400D01*
X166201348Y-76912400D02*
X166723852Y-76912400D01*
X142510252Y-86816000D02*
X141987748Y-86816000D01*
X142510252Y-85396000D02*
X141987748Y-85396000D01*
X144804200Y-99018348D02*
X144804200Y-99540852D01*
X143384200Y-99018348D02*
X143384200Y-99540852D01*
X141276000Y-99049048D02*
X141276000Y-99571552D01*
X142696000Y-99049048D02*
X142696000Y-99571552D01*
X126424676Y-113620020D02*
X122297176Y-106470981D01*
X133353745Y-109619520D02*
X129226245Y-102470481D01*
X133625655Y-99930481D02*
X122297176Y-106470981D01*
X137753155Y-107079520D02*
X126424676Y-113620020D01*
X137753155Y-107079520D02*
X133625655Y-99930481D01*
X133638355Y-81908120D02*
X137765855Y-74759081D01*
X133638355Y-81908120D02*
X122309876Y-75367620D01*
X137765855Y-74759081D02*
X126437376Y-68218581D01*
X129238945Y-79368120D02*
X133366445Y-72219081D01*
X122309876Y-75367620D02*
X126437376Y-68218581D01*
X153339800Y-65760600D02*
X161594800Y-65760600D01*
X153339800Y-65760600D02*
X153339800Y-52679600D01*
X161594800Y-65760600D02*
X161594800Y-52679600D01*
X153339800Y-60680600D02*
X161594800Y-60680600D01*
X153339800Y-52679600D02*
X161594800Y-52679600D01*
X188598824Y-68297385D02*
X192726324Y-75446424D01*
X181669755Y-72297885D02*
X185797255Y-79446924D01*
X181397845Y-81986924D02*
X192726324Y-75446424D01*
X177270345Y-74837885D02*
X188598824Y-68297385D01*
X177270345Y-74837885D02*
X181397845Y-81986924D01*
X181372445Y-99892380D02*
X177244945Y-107041419D01*
X181372445Y-99892380D02*
X192700924Y-106432880D01*
X177244945Y-107041419D02*
X188573424Y-113581919D01*
X185771855Y-102432380D02*
X181644355Y-109581419D01*
X192700924Y-106432880D02*
X188573424Y-113581919D01*
X161632900Y-129159000D02*
X153377900Y-129159000D01*
X161632900Y-121158000D02*
X153377900Y-121158000D01*
X153377900Y-116078000D02*
X153377900Y-129159000D01*
X161632900Y-116078000D02*
X161632900Y-129159000D01*
X161632900Y-116078000D02*
X153377900Y-116078000D01*
X149920000Y-80324000D02*
X149920000Y-77664000D01*
X144780000Y-80324000D02*
X149920000Y-80324000D01*
X144780000Y-77664000D02*
X149920000Y-77664000D01*
X144780000Y-80324000D02*
X144780000Y-77664000D01*
X143510000Y-80324000D02*
X142180000Y-80324000D01*
X142180000Y-80324000D02*
X142180000Y-78994000D01*
X143254252Y-90730000D02*
X142731748Y-90730000D01*
X143254252Y-92150000D02*
X142731748Y-92150000D01*
X140699748Y-84784000D02*
X141222252Y-84784000D01*
X140699748Y-83364000D02*
X141222252Y-83364000D01*
X138159748Y-85396000D02*
X138682252Y-85396000D01*
X138159748Y-86816000D02*
X138682252Y-86816000D01*
X160511748Y-104700000D02*
X161034252Y-104700000D01*
X160511748Y-106120000D02*
X161034252Y-106120000D01*
D14*
X165735000Y-81470500D02*
X167005000Y-81470500D01*
X167005000Y-81470500D02*
X167005000Y-84010500D01*
X167005000Y-84010500D02*
X165735000Y-84010500D01*
X165735000Y-84010500D02*
X165735000Y-81470500D01*
X166078803Y-81724500D02*
G75*
G03X166078803Y-81724500I-89803J0D01*
G01*
D12*
X161020000Y-84892000D02*
X158160000Y-84892000D01*
X158160000Y-84892000D02*
X158160000Y-86812000D01*
X158160000Y-86812000D02*
X161020000Y-86812000D01*
D15*
X149669000Y-118714460D02*
X150594000Y-118714460D01*
X150594000Y-118714460D02*
X150594000Y-108864460D01*
X150594000Y-108864460D02*
X149669000Y-108864460D01*
X141669000Y-118714460D02*
X140744000Y-118714460D01*
X140744000Y-118714460D02*
X140744000Y-108864460D01*
X140744000Y-108864460D02*
X141669000Y-108864460D01*
X146669000Y-118714460D02*
X144669000Y-118714460D01*
X146669000Y-108864460D02*
X144669000Y-108864460D01*
D16*
X143269000Y-107889460D02*
X143269000Y-107889460D01*
X143069000Y-107889460D02*
X143069000Y-107889460D01*
X143069000Y-107889460D02*
G75*
G02X143269000Y-107889460I100000J0D01*
G01*
X143269000Y-107889460D02*
G75*
G02X143069000Y-107889460I-100000J0D01*
G01*
D12*
X151840000Y-85853748D02*
X151840000Y-86376252D01*
X150420000Y-85853748D02*
X150420000Y-86376252D01*
X163917500Y-70994500D02*
X163417500Y-70994500D01*
X163917500Y-69594500D02*
X163417500Y-69594500D01*
X163917500Y-69594500D02*
X163917500Y-68994500D01*
X163917500Y-68994500D02*
X164117500Y-68794500D01*
X164117500Y-71794500D02*
X163917500Y-71794500D01*
X163917500Y-71794500D02*
X163917500Y-70994500D01*
X166917500Y-70994500D02*
X166917500Y-71794500D01*
X166917500Y-71794500D02*
X166717500Y-71794500D01*
X166717500Y-68794500D02*
X166917500Y-68794500D01*
X166917500Y-68794500D02*
X166917500Y-69594500D01*
D10*
X160142786Y-68561733D02*
X160380881Y-68561733D01*
X160095167Y-68704590D02*
X160261834Y-68204590D01*
X160428500Y-68704590D01*
X160595167Y-68442685D02*
X160761834Y-68442685D01*
X160833262Y-68704590D02*
X160595167Y-68704590D01*
X160595167Y-68204590D01*
X160833262Y-68204590D01*
X161309453Y-68704590D02*
X161023739Y-68704590D01*
X161166596Y-68704590D02*
X161166596Y-68204590D01*
X161118977Y-68276019D01*
X161071358Y-68323638D01*
X161023739Y-68347447D01*
X183868757Y-82396207D02*
X184047329Y-82705502D01*
X184062423Y-82779265D01*
X184044993Y-82844314D01*
X183995039Y-82900648D01*
X183953800Y-82924458D01*
X184078144Y-82330303D02*
X184086858Y-82297779D01*
X184116193Y-82253350D01*
X184219291Y-82193826D01*
X184272435Y-82190636D01*
X184304960Y-82199351D01*
X184349389Y-82228685D01*
X184373198Y-82269925D01*
X184388293Y-82343688D01*
X184283714Y-82733981D01*
X184551770Y-82579220D01*
D17*
D10*
X147871666Y-82396190D02*
X147705000Y-82158095D01*
X147585952Y-82396190D02*
X147585952Y-81896190D01*
X147776428Y-81896190D01*
X147824047Y-81920000D01*
X147847857Y-81943809D01*
X147871666Y-81991428D01*
X147871666Y-82062857D01*
X147847857Y-82110476D01*
X147824047Y-82134285D01*
X147776428Y-82158095D01*
X147585952Y-82158095D01*
X148062142Y-81943809D02*
X148085952Y-81920000D01*
X148133571Y-81896190D01*
X148252619Y-81896190D01*
X148300238Y-81920000D01*
X148324047Y-81943809D01*
X148347857Y-81991428D01*
X148347857Y-82039047D01*
X148324047Y-82110476D01*
X148038333Y-82396190D01*
X148347857Y-82396190D01*
X166965333Y-87975285D02*
X166798666Y-87975285D01*
X166798666Y-88237190D02*
X166798666Y-87737190D01*
X167036761Y-87737190D01*
X167489142Y-88237190D02*
X167203428Y-88237190D01*
X167346285Y-88237190D02*
X167346285Y-87737190D01*
X167298666Y-87808619D01*
X167251047Y-87856238D01*
X167203428Y-87880047D01*
X155956047Y-89515190D02*
X155956047Y-89919952D01*
X155979857Y-89967571D01*
X156003666Y-89991380D01*
X156051285Y-90015190D01*
X156146523Y-90015190D01*
X156194142Y-89991380D01*
X156217952Y-89967571D01*
X156241761Y-89919952D01*
X156241761Y-89515190D01*
X156741761Y-90015190D02*
X156456047Y-90015190D01*
X156598904Y-90015190D02*
X156598904Y-89515190D01*
X156551285Y-89586619D01*
X156503666Y-89634238D01*
X156456047Y-89658047D01*
X161206666Y-88189571D02*
X161182857Y-88213380D01*
X161111428Y-88237190D01*
X161063809Y-88237190D01*
X160992380Y-88213380D01*
X160944761Y-88165761D01*
X160920952Y-88118142D01*
X160897142Y-88022904D01*
X160897142Y-87951476D01*
X160920952Y-87856238D01*
X160944761Y-87808619D01*
X160992380Y-87761000D01*
X161063809Y-87737190D01*
X161111428Y-87737190D01*
X161182857Y-87761000D01*
X161206666Y-87784809D01*
X161373333Y-87737190D02*
X161706666Y-87737190D01*
X161492380Y-88237190D01*
X145966666Y-101905571D02*
X145942857Y-101929380D01*
X145871428Y-101953190D01*
X145823809Y-101953190D01*
X145752380Y-101929380D01*
X145704761Y-101881761D01*
X145680952Y-101834142D01*
X145657142Y-101738904D01*
X145657142Y-101667476D01*
X145680952Y-101572238D01*
X145704761Y-101524619D01*
X145752380Y-101477000D01*
X145823809Y-101453190D01*
X145871428Y-101453190D01*
X145942857Y-101477000D01*
X145966666Y-101500809D01*
X146395238Y-101619857D02*
X146395238Y-101953190D01*
X146276190Y-101429380D02*
X146157142Y-101786523D01*
X146466666Y-101786523D01*
X148506666Y-102032571D02*
X148482857Y-102056380D01*
X148411428Y-102080190D01*
X148363809Y-102080190D01*
X148292380Y-102056380D01*
X148244761Y-102008761D01*
X148220952Y-101961142D01*
X148197142Y-101865904D01*
X148197142Y-101794476D01*
X148220952Y-101699238D01*
X148244761Y-101651619D01*
X148292380Y-101604000D01*
X148363809Y-101580190D01*
X148411428Y-101580190D01*
X148482857Y-101604000D01*
X148506666Y-101627809D01*
X148982857Y-102080190D02*
X148697142Y-102080190D01*
X148840000Y-102080190D02*
X148840000Y-101580190D01*
X148792380Y-101651619D01*
X148744761Y-101699238D01*
X148697142Y-101723047D01*
X162349666Y-84046190D02*
X162183000Y-83808095D01*
X162063952Y-84046190D02*
X162063952Y-83546190D01*
X162254428Y-83546190D01*
X162302047Y-83570000D01*
X162325857Y-83593809D01*
X162349666Y-83641428D01*
X162349666Y-83712857D01*
X162325857Y-83760476D01*
X162302047Y-83784285D01*
X162254428Y-83808095D01*
X162063952Y-83808095D01*
X162516333Y-83546190D02*
X162825857Y-83546190D01*
X162659190Y-83736666D01*
X162730619Y-83736666D01*
X162778238Y-83760476D01*
X162802047Y-83784285D01*
X162825857Y-83831904D01*
X162825857Y-83950952D01*
X162802047Y-83998571D01*
X162778238Y-84022380D01*
X162730619Y-84046190D01*
X162587761Y-84046190D01*
X162540142Y-84022380D01*
X162516333Y-83998571D01*
X155491666Y-102286571D02*
X155467857Y-102310380D01*
X155396428Y-102334190D01*
X155348809Y-102334190D01*
X155277380Y-102310380D01*
X155229761Y-102262761D01*
X155205952Y-102215142D01*
X155182142Y-102119904D01*
X155182142Y-102048476D01*
X155205952Y-101953238D01*
X155229761Y-101905619D01*
X155277380Y-101858000D01*
X155348809Y-101834190D01*
X155396428Y-101834190D01*
X155467857Y-101858000D01*
X155491666Y-101881809D01*
X155682142Y-101881809D02*
X155705952Y-101858000D01*
X155753571Y-101834190D01*
X155872619Y-101834190D01*
X155920238Y-101858000D01*
X155944047Y-101881809D01*
X155967857Y-101929428D01*
X155967857Y-101977047D01*
X155944047Y-102048476D01*
X155658333Y-102334190D01*
X155967857Y-102334190D01*
X186748571Y-97730971D02*
X186724761Y-97754780D01*
X186653333Y-97778590D01*
X186605714Y-97778590D01*
X186534285Y-97754780D01*
X186486666Y-97707161D01*
X186462857Y-97659542D01*
X186439047Y-97564304D01*
X186439047Y-97492876D01*
X186462857Y-97397638D01*
X186486666Y-97350019D01*
X186534285Y-97302400D01*
X186605714Y-97278590D01*
X186653333Y-97278590D01*
X186724761Y-97302400D01*
X186748571Y-97326209D01*
X187224761Y-97778590D02*
X186939047Y-97778590D01*
X187081904Y-97778590D02*
X187081904Y-97278590D01*
X187034285Y-97350019D01*
X186986666Y-97397638D01*
X186939047Y-97421447D01*
X187700952Y-97778590D02*
X187415238Y-97778590D01*
X187558095Y-97778590D02*
X187558095Y-97278590D01*
X187510476Y-97350019D01*
X187462857Y-97397638D01*
X187415238Y-97421447D01*
X146783166Y-88824571D02*
X146759357Y-88848380D01*
X146687928Y-88872190D01*
X146640309Y-88872190D01*
X146568880Y-88848380D01*
X146521261Y-88800761D01*
X146497452Y-88753142D01*
X146473642Y-88657904D01*
X146473642Y-88586476D01*
X146497452Y-88491238D01*
X146521261Y-88443619D01*
X146568880Y-88396000D01*
X146640309Y-88372190D01*
X146687928Y-88372190D01*
X146759357Y-88396000D01*
X146783166Y-88419809D01*
X147235547Y-88372190D02*
X146997452Y-88372190D01*
X146973642Y-88610285D01*
X146997452Y-88586476D01*
X147045071Y-88562666D01*
X147164119Y-88562666D01*
X147211738Y-88586476D01*
X147235547Y-88610285D01*
X147259357Y-88657904D01*
X147259357Y-88776952D01*
X147235547Y-88824571D01*
X147211738Y-88848380D01*
X147164119Y-88872190D01*
X147045071Y-88872190D01*
X146997452Y-88848380D01*
X146973642Y-88824571D01*
X146656166Y-91999571D02*
X146632357Y-92023380D01*
X146560928Y-92047190D01*
X146513309Y-92047190D01*
X146441880Y-92023380D01*
X146394261Y-91975761D01*
X146370452Y-91928142D01*
X146346642Y-91832904D01*
X146346642Y-91761476D01*
X146370452Y-91666238D01*
X146394261Y-91618619D01*
X146441880Y-91571000D01*
X146513309Y-91547190D01*
X146560928Y-91547190D01*
X146632357Y-91571000D01*
X146656166Y-91594809D01*
X147084738Y-91547190D02*
X146989500Y-91547190D01*
X146941880Y-91571000D01*
X146918071Y-91594809D01*
X146870452Y-91666238D01*
X146846642Y-91761476D01*
X146846642Y-91951952D01*
X146870452Y-91999571D01*
X146894261Y-92023380D01*
X146941880Y-92047190D01*
X147037119Y-92047190D01*
X147084738Y-92023380D01*
X147108547Y-91999571D01*
X147132357Y-91951952D01*
X147132357Y-91832904D01*
X147108547Y-91785285D01*
X147084738Y-91761476D01*
X147037119Y-91737666D01*
X146941880Y-91737666D01*
X146894261Y-91761476D01*
X146870452Y-91785285D01*
X146846642Y-91832904D01*
X174303571Y-92888571D02*
X174279761Y-92912380D01*
X174208333Y-92936190D01*
X174160714Y-92936190D01*
X174089285Y-92912380D01*
X174041666Y-92864761D01*
X174017857Y-92817142D01*
X173994047Y-92721904D01*
X173994047Y-92650476D01*
X174017857Y-92555238D01*
X174041666Y-92507619D01*
X174089285Y-92460000D01*
X174160714Y-92436190D01*
X174208333Y-92436190D01*
X174279761Y-92460000D01*
X174303571Y-92483809D01*
X174779761Y-92936190D02*
X174494047Y-92936190D01*
X174636904Y-92936190D02*
X174636904Y-92436190D01*
X174589285Y-92507619D01*
X174541666Y-92555238D01*
X174494047Y-92579047D01*
X174946428Y-92436190D02*
X175255952Y-92436190D01*
X175089285Y-92626666D01*
X175160714Y-92626666D01*
X175208333Y-92650476D01*
X175232142Y-92674285D01*
X175255952Y-92721904D01*
X175255952Y-92840952D01*
X175232142Y-92888571D01*
X175208333Y-92912380D01*
X175160714Y-92936190D01*
X175017857Y-92936190D01*
X174970238Y-92912380D01*
X174946428Y-92888571D01*
X176462571Y-86792571D02*
X176438761Y-86816380D01*
X176367333Y-86840190D01*
X176319714Y-86840190D01*
X176248285Y-86816380D01*
X176200666Y-86768761D01*
X176176857Y-86721142D01*
X176153047Y-86625904D01*
X176153047Y-86554476D01*
X176176857Y-86459238D01*
X176200666Y-86411619D01*
X176248285Y-86364000D01*
X176319714Y-86340190D01*
X176367333Y-86340190D01*
X176438761Y-86364000D01*
X176462571Y-86387809D01*
X176938761Y-86840190D02*
X176653047Y-86840190D01*
X176795904Y-86840190D02*
X176795904Y-86340190D01*
X176748285Y-86411619D01*
X176700666Y-86459238D01*
X176653047Y-86483047D01*
X177391142Y-86340190D02*
X177153047Y-86340190D01*
X177129238Y-86578285D01*
X177153047Y-86554476D01*
X177200666Y-86530666D01*
X177319714Y-86530666D01*
X177367333Y-86554476D01*
X177391142Y-86578285D01*
X177414952Y-86625904D01*
X177414952Y-86744952D01*
X177391142Y-86792571D01*
X177367333Y-86816380D01*
X177319714Y-86840190D01*
X177200666Y-86840190D01*
X177153047Y-86816380D01*
X177129238Y-86792571D01*
X153459666Y-83808071D02*
X153435857Y-83831880D01*
X153364428Y-83855690D01*
X153316809Y-83855690D01*
X153245380Y-83831880D01*
X153197761Y-83784261D01*
X153173952Y-83736642D01*
X153150142Y-83641404D01*
X153150142Y-83569976D01*
X153173952Y-83474738D01*
X153197761Y-83427119D01*
X153245380Y-83379500D01*
X153316809Y-83355690D01*
X153364428Y-83355690D01*
X153435857Y-83379500D01*
X153459666Y-83403309D01*
X153697761Y-83855690D02*
X153793000Y-83855690D01*
X153840619Y-83831880D01*
X153864428Y-83808071D01*
X153912047Y-83736642D01*
X153935857Y-83641404D01*
X153935857Y-83450928D01*
X153912047Y-83403309D01*
X153888238Y-83379500D01*
X153840619Y-83355690D01*
X153745380Y-83355690D01*
X153697761Y-83379500D01*
X153673952Y-83403309D01*
X153650142Y-83450928D01*
X153650142Y-83569976D01*
X153673952Y-83617595D01*
X153697761Y-83641404D01*
X153745380Y-83665214D01*
X153840619Y-83665214D01*
X153888238Y-83641404D01*
X153912047Y-83617595D01*
X153935857Y-83569976D01*
X156079071Y-83744571D02*
X156055261Y-83768380D01*
X155983833Y-83792190D01*
X155936214Y-83792190D01*
X155864785Y-83768380D01*
X155817166Y-83720761D01*
X155793357Y-83673142D01*
X155769547Y-83577904D01*
X155769547Y-83506476D01*
X155793357Y-83411238D01*
X155817166Y-83363619D01*
X155864785Y-83316000D01*
X155936214Y-83292190D01*
X155983833Y-83292190D01*
X156055261Y-83316000D01*
X156079071Y-83339809D01*
X156555261Y-83792190D02*
X156269547Y-83792190D01*
X156412404Y-83792190D02*
X156412404Y-83292190D01*
X156364785Y-83363619D01*
X156317166Y-83411238D01*
X156269547Y-83435047D01*
X156864785Y-83292190D02*
X156912404Y-83292190D01*
X156960023Y-83316000D01*
X156983833Y-83339809D01*
X157007642Y-83387428D01*
X157031452Y-83482666D01*
X157031452Y-83601714D01*
X157007642Y-83696952D01*
X156983833Y-83744571D01*
X156960023Y-83768380D01*
X156912404Y-83792190D01*
X156864785Y-83792190D01*
X156817166Y-83768380D01*
X156793357Y-83744571D01*
X156769547Y-83696952D01*
X156745738Y-83601714D01*
X156745738Y-83482666D01*
X156769547Y-83387428D01*
X156793357Y-83339809D01*
X156817166Y-83316000D01*
X156864785Y-83292190D01*
X168842571Y-79807571D02*
X168818761Y-79831380D01*
X168747333Y-79855190D01*
X168699714Y-79855190D01*
X168628285Y-79831380D01*
X168580666Y-79783761D01*
X168556857Y-79736142D01*
X168533047Y-79640904D01*
X168533047Y-79569476D01*
X168556857Y-79474238D01*
X168580666Y-79426619D01*
X168628285Y-79379000D01*
X168699714Y-79355190D01*
X168747333Y-79355190D01*
X168818761Y-79379000D01*
X168842571Y-79402809D01*
X169318761Y-79855190D02*
X169033047Y-79855190D01*
X169175904Y-79855190D02*
X169175904Y-79355190D01*
X169128285Y-79426619D01*
X169080666Y-79474238D01*
X169033047Y-79498047D01*
X169509238Y-79402809D02*
X169533047Y-79379000D01*
X169580666Y-79355190D01*
X169699714Y-79355190D01*
X169747333Y-79379000D01*
X169771142Y-79402809D01*
X169794952Y-79450428D01*
X169794952Y-79498047D01*
X169771142Y-79569476D01*
X169485428Y-79855190D01*
X169794952Y-79855190D01*
X173922571Y-78156571D02*
X173898761Y-78180380D01*
X173827333Y-78204190D01*
X173779714Y-78204190D01*
X173708285Y-78180380D01*
X173660666Y-78132761D01*
X173636857Y-78085142D01*
X173613047Y-77989904D01*
X173613047Y-77918476D01*
X173636857Y-77823238D01*
X173660666Y-77775619D01*
X173708285Y-77728000D01*
X173779714Y-77704190D01*
X173827333Y-77704190D01*
X173898761Y-77728000D01*
X173922571Y-77751809D01*
X174398761Y-78204190D02*
X174113047Y-78204190D01*
X174255904Y-78204190D02*
X174255904Y-77704190D01*
X174208285Y-77775619D01*
X174160666Y-77823238D01*
X174113047Y-77847047D01*
X174827333Y-77870857D02*
X174827333Y-78204190D01*
X174708285Y-77680380D02*
X174589238Y-78037523D01*
X174898761Y-78037523D01*
X147712952Y-87983190D02*
X147712952Y-87483190D01*
X147832000Y-87483190D01*
X147903428Y-87507000D01*
X147951047Y-87554619D01*
X147974857Y-87602238D01*
X147998666Y-87697476D01*
X147998666Y-87768904D01*
X147974857Y-87864142D01*
X147951047Y-87911761D01*
X147903428Y-87959380D01*
X147832000Y-87983190D01*
X147712952Y-87983190D01*
X148474857Y-87983190D02*
X148189142Y-87983190D01*
X148332000Y-87983190D02*
X148332000Y-87483190D01*
X148284380Y-87554619D01*
X148236761Y-87602238D01*
X148189142Y-87626047D01*
X178802872Y-93274030D02*
X178802872Y-92774030D01*
X178921920Y-92774030D01*
X178993348Y-92797840D01*
X179040967Y-92845459D01*
X179064777Y-92893078D01*
X179088586Y-92988316D01*
X179088586Y-93059744D01*
X179064777Y-93154982D01*
X179040967Y-93202601D01*
X178993348Y-93250220D01*
X178921920Y-93274030D01*
X178802872Y-93274030D01*
X179255253Y-92774030D02*
X179564777Y-92774030D01*
X179398110Y-92964506D01*
X179469539Y-92964506D01*
X179517158Y-92988316D01*
X179540967Y-93012125D01*
X179564777Y-93059744D01*
X179564777Y-93178792D01*
X179540967Y-93226411D01*
X179517158Y-93250220D01*
X179469539Y-93274030D01*
X179326681Y-93274030D01*
X179279062Y-93250220D01*
X179255253Y-93226411D01*
X144617333Y-95341285D02*
X144450666Y-95341285D01*
X144450666Y-95603190D02*
X144450666Y-95103190D01*
X144688761Y-95103190D01*
X145045904Y-95341285D02*
X145117333Y-95365095D01*
X145141142Y-95388904D01*
X145164952Y-95436523D01*
X145164952Y-95507952D01*
X145141142Y-95555571D01*
X145117333Y-95579380D01*
X145069714Y-95603190D01*
X144879238Y-95603190D01*
X144879238Y-95103190D01*
X145045904Y-95103190D01*
X145093523Y-95127000D01*
X145117333Y-95150809D01*
X145141142Y-95198428D01*
X145141142Y-95246047D01*
X145117333Y-95293666D01*
X145093523Y-95317476D01*
X145045904Y-95341285D01*
X144879238Y-95341285D01*
X145641142Y-95603190D02*
X145355428Y-95603190D01*
X145498285Y-95603190D02*
X145498285Y-95103190D01*
X145450666Y-95174619D01*
X145403047Y-95222238D01*
X145355428Y-95246047D01*
X172303333Y-92547285D02*
X172136666Y-92547285D01*
X172136666Y-92809190D02*
X172136666Y-92309190D01*
X172374761Y-92309190D01*
X172731904Y-92547285D02*
X172803333Y-92571095D01*
X172827142Y-92594904D01*
X172850952Y-92642523D01*
X172850952Y-92713952D01*
X172827142Y-92761571D01*
X172803333Y-92785380D01*
X172755714Y-92809190D01*
X172565238Y-92809190D01*
X172565238Y-92309190D01*
X172731904Y-92309190D01*
X172779523Y-92333000D01*
X172803333Y-92356809D01*
X172827142Y-92404428D01*
X172827142Y-92452047D01*
X172803333Y-92499666D01*
X172779523Y-92523476D01*
X172731904Y-92547285D01*
X172565238Y-92547285D01*
X173041428Y-92356809D02*
X173065238Y-92333000D01*
X173112857Y-92309190D01*
X173231904Y-92309190D01*
X173279523Y-92333000D01*
X173303333Y-92356809D01*
X173327142Y-92404428D01*
X173327142Y-92452047D01*
X173303333Y-92523476D01*
X173017619Y-92809190D01*
X173327142Y-92809190D01*
X181288571Y-97768430D02*
X181121904Y-97530335D01*
X181002857Y-97768430D02*
X181002857Y-97268430D01*
X181193333Y-97268430D01*
X181240952Y-97292240D01*
X181264761Y-97316049D01*
X181288571Y-97363668D01*
X181288571Y-97435097D01*
X181264761Y-97482716D01*
X181240952Y-97506525D01*
X181193333Y-97530335D01*
X181002857Y-97530335D01*
X181764761Y-97768430D02*
X181479047Y-97768430D01*
X181621904Y-97768430D02*
X181621904Y-97268430D01*
X181574285Y-97339859D01*
X181526666Y-97387478D01*
X181479047Y-97411287D01*
X182074285Y-97268430D02*
X182121904Y-97268430D01*
X182169523Y-97292240D01*
X182193333Y-97316049D01*
X182217142Y-97363668D01*
X182240952Y-97458906D01*
X182240952Y-97577954D01*
X182217142Y-97673192D01*
X182193333Y-97720811D01*
X182169523Y-97744620D01*
X182121904Y-97768430D01*
X182074285Y-97768430D01*
X182026666Y-97744620D01*
X182002857Y-97720811D01*
X181979047Y-97673192D01*
X181955238Y-97577954D01*
X181955238Y-97458906D01*
X181979047Y-97363668D01*
X182002857Y-97316049D01*
X182026666Y-97292240D01*
X182074285Y-97268430D01*
X165778666Y-93952190D02*
X165612000Y-93714095D01*
X165492952Y-93952190D02*
X165492952Y-93452190D01*
X165683428Y-93452190D01*
X165731047Y-93476000D01*
X165754857Y-93499809D01*
X165778666Y-93547428D01*
X165778666Y-93618857D01*
X165754857Y-93666476D01*
X165731047Y-93690285D01*
X165683428Y-93714095D01*
X165492952Y-93714095D01*
X165945333Y-93452190D02*
X166278666Y-93452190D01*
X166064380Y-93952190D01*
X164771666Y-101571190D02*
X164605000Y-101333095D01*
X164485952Y-101571190D02*
X164485952Y-101071190D01*
X164676428Y-101071190D01*
X164724047Y-101095000D01*
X164747857Y-101118809D01*
X164771666Y-101166428D01*
X164771666Y-101237857D01*
X164747857Y-101285476D01*
X164724047Y-101309285D01*
X164676428Y-101333095D01*
X164485952Y-101333095D01*
X165057380Y-101285476D02*
X165009761Y-101261666D01*
X164985952Y-101237857D01*
X164962142Y-101190238D01*
X164962142Y-101166428D01*
X164985952Y-101118809D01*
X165009761Y-101095000D01*
X165057380Y-101071190D01*
X165152619Y-101071190D01*
X165200238Y-101095000D01*
X165224047Y-101118809D01*
X165247857Y-101166428D01*
X165247857Y-101190238D01*
X165224047Y-101237857D01*
X165200238Y-101261666D01*
X165152619Y-101285476D01*
X165057380Y-101285476D01*
X165009761Y-101309285D01*
X164985952Y-101333095D01*
X164962142Y-101380714D01*
X164962142Y-101475952D01*
X164985952Y-101523571D01*
X165009761Y-101547380D01*
X165057380Y-101571190D01*
X165152619Y-101571190D01*
X165200238Y-101547380D01*
X165224047Y-101523571D01*
X165247857Y-101475952D01*
X165247857Y-101380714D01*
X165224047Y-101333095D01*
X165200238Y-101309285D01*
X165152619Y-101285476D01*
X151018904Y-91936095D02*
X151018904Y-92174190D01*
X150852238Y-91674190D02*
X151018904Y-91936095D01*
X151185571Y-91674190D01*
X151614142Y-92174190D02*
X151328428Y-92174190D01*
X151471285Y-92174190D02*
X151471285Y-91674190D01*
X151423666Y-91745619D01*
X151376047Y-91793238D01*
X151328428Y-91817047D01*
X134453333Y-86086190D02*
X134453333Y-86443333D01*
X134429523Y-86514761D01*
X134381904Y-86562380D01*
X134310476Y-86586190D01*
X134262857Y-86586190D01*
X134953333Y-86586190D02*
X134667619Y-86586190D01*
X134810476Y-86586190D02*
X134810476Y-86086190D01*
X134762857Y-86157619D01*
X134715238Y-86205238D01*
X134667619Y-86229047D01*
X142918666Y-95222190D02*
X142752000Y-94984095D01*
X142632952Y-95222190D02*
X142632952Y-94722190D01*
X142823428Y-94722190D01*
X142871047Y-94746000D01*
X142894857Y-94769809D01*
X142918666Y-94817428D01*
X142918666Y-94888857D01*
X142894857Y-94936476D01*
X142871047Y-94960285D01*
X142823428Y-94984095D01*
X142632952Y-94984095D01*
X143156761Y-95222190D02*
X143252000Y-95222190D01*
X143299619Y-95198380D01*
X143323428Y-95174571D01*
X143371047Y-95103142D01*
X143394857Y-95007904D01*
X143394857Y-94817428D01*
X143371047Y-94769809D01*
X143347238Y-94746000D01*
X143299619Y-94722190D01*
X143204380Y-94722190D01*
X143156761Y-94746000D01*
X143132952Y-94769809D01*
X143109142Y-94817428D01*
X143109142Y-94936476D01*
X143132952Y-94984095D01*
X143156761Y-95007904D01*
X143204380Y-95031714D01*
X143299619Y-95031714D01*
X143347238Y-95007904D01*
X143371047Y-94984095D01*
X143394857Y-94936476D01*
X168842571Y-77823190D02*
X168675904Y-77585095D01*
X168556857Y-77823190D02*
X168556857Y-77323190D01*
X168747333Y-77323190D01*
X168794952Y-77347000D01*
X168818761Y-77370809D01*
X168842571Y-77418428D01*
X168842571Y-77489857D01*
X168818761Y-77537476D01*
X168794952Y-77561285D01*
X168747333Y-77585095D01*
X168556857Y-77585095D01*
X169318761Y-77823190D02*
X169033047Y-77823190D01*
X169175904Y-77823190D02*
X169175904Y-77323190D01*
X169128285Y-77394619D01*
X169080666Y-77442238D01*
X169033047Y-77466047D01*
X169509238Y-77370809D02*
X169533047Y-77347000D01*
X169580666Y-77323190D01*
X169699714Y-77323190D01*
X169747333Y-77347000D01*
X169771142Y-77370809D01*
X169794952Y-77418428D01*
X169794952Y-77466047D01*
X169771142Y-77537476D01*
X169485428Y-77823190D01*
X169794952Y-77823190D01*
X177430952Y-82776190D02*
X177430952Y-82276190D01*
X177550000Y-82276190D01*
X177621428Y-82300000D01*
X177669047Y-82347619D01*
X177692857Y-82395238D01*
X177716666Y-82490476D01*
X177716666Y-82561904D01*
X177692857Y-82657142D01*
X177669047Y-82704761D01*
X177621428Y-82752380D01*
X177550000Y-82776190D01*
X177430952Y-82776190D01*
X178169047Y-82276190D02*
X177930952Y-82276190D01*
X177907142Y-82514285D01*
X177930952Y-82490476D01*
X177978571Y-82466666D01*
X178097619Y-82466666D01*
X178145238Y-82490476D01*
X178169047Y-82514285D01*
X178192857Y-82561904D01*
X178192857Y-82680952D01*
X178169047Y-82728571D01*
X178145238Y-82752380D01*
X178097619Y-82776190D01*
X177978571Y-82776190D01*
X177930952Y-82752380D01*
X177907142Y-82728571D01*
X172577012Y-82776190D02*
X172577012Y-82276190D01*
X172696060Y-82276190D01*
X172767488Y-82300000D01*
X172815107Y-82347619D01*
X172838917Y-82395238D01*
X172862726Y-82490476D01*
X172862726Y-82561904D01*
X172838917Y-82657142D01*
X172815107Y-82704761D01*
X172767488Y-82752380D01*
X172696060Y-82776190D01*
X172577012Y-82776190D01*
X173291298Y-82442857D02*
X173291298Y-82776190D01*
X173172250Y-82252380D02*
X173053202Y-82609523D01*
X173362726Y-82609523D01*
X144569666Y-86157571D02*
X144545857Y-86181380D01*
X144474428Y-86205190D01*
X144426809Y-86205190D01*
X144355380Y-86181380D01*
X144307761Y-86133761D01*
X144283952Y-86086142D01*
X144260142Y-85990904D01*
X144260142Y-85919476D01*
X144283952Y-85824238D01*
X144307761Y-85776619D01*
X144355380Y-85729000D01*
X144426809Y-85705190D01*
X144474428Y-85705190D01*
X144545857Y-85729000D01*
X144569666Y-85752809D01*
X144736333Y-85705190D02*
X145045857Y-85705190D01*
X144879190Y-85895666D01*
X144950619Y-85895666D01*
X144998238Y-85919476D01*
X145022047Y-85943285D01*
X145045857Y-85990904D01*
X145045857Y-86109952D01*
X145022047Y-86157571D01*
X144998238Y-86181380D01*
X144950619Y-86205190D01*
X144807761Y-86205190D01*
X144760142Y-86181380D01*
X144736333Y-86157571D01*
X143696571Y-101905571D02*
X143672761Y-101929380D01*
X143601333Y-101953190D01*
X143553714Y-101953190D01*
X143482285Y-101929380D01*
X143434666Y-101881761D01*
X143410857Y-101834142D01*
X143387047Y-101738904D01*
X143387047Y-101667476D01*
X143410857Y-101572238D01*
X143434666Y-101524619D01*
X143482285Y-101477000D01*
X143553714Y-101453190D01*
X143601333Y-101453190D01*
X143672761Y-101477000D01*
X143696571Y-101500809D01*
X144172761Y-101953190D02*
X143887047Y-101953190D01*
X144029904Y-101953190D02*
X144029904Y-101453190D01*
X143982285Y-101524619D01*
X143934666Y-101572238D01*
X143887047Y-101596047D01*
X144601333Y-101453190D02*
X144506095Y-101453190D01*
X144458476Y-101477000D01*
X144434666Y-101500809D01*
X144387047Y-101572238D01*
X144363238Y-101667476D01*
X144363238Y-101857952D01*
X144387047Y-101905571D01*
X144410857Y-101929380D01*
X144458476Y-101953190D01*
X144553714Y-101953190D01*
X144601333Y-101929380D01*
X144625142Y-101905571D01*
X144648952Y-101857952D01*
X144648952Y-101738904D01*
X144625142Y-101691285D01*
X144601333Y-101667476D01*
X144553714Y-101643666D01*
X144458476Y-101643666D01*
X144410857Y-101667476D01*
X144387047Y-101691285D01*
X144363238Y-101738904D01*
X141664571Y-101905571D02*
X141640761Y-101929380D01*
X141569333Y-101953190D01*
X141521714Y-101953190D01*
X141450285Y-101929380D01*
X141402666Y-101881761D01*
X141378857Y-101834142D01*
X141355047Y-101738904D01*
X141355047Y-101667476D01*
X141378857Y-101572238D01*
X141402666Y-101524619D01*
X141450285Y-101477000D01*
X141521714Y-101453190D01*
X141569333Y-101453190D01*
X141640761Y-101477000D01*
X141664571Y-101500809D01*
X142140761Y-101953190D02*
X141855047Y-101953190D01*
X141997904Y-101953190D02*
X141997904Y-101453190D01*
X141950285Y-101524619D01*
X141902666Y-101572238D01*
X141855047Y-101596047D01*
X142307428Y-101453190D02*
X142640761Y-101453190D01*
X142426476Y-101953190D01*
X135862756Y-108939207D02*
X136041328Y-109248502D01*
X136056422Y-109322265D01*
X136038992Y-109387314D01*
X135989038Y-109443648D01*
X135947799Y-109467458D01*
X136337863Y-108857354D02*
X136504530Y-109146029D01*
X136139527Y-108751921D02*
X136215000Y-109120739D01*
X136483055Y-108965977D01*
X130929567Y-80832540D02*
X130750995Y-81141835D01*
X130694661Y-81191789D01*
X130629612Y-81209219D01*
X130555849Y-81194124D01*
X130514609Y-81170315D01*
X131341960Y-81070635D02*
X131135763Y-80951588D01*
X130996096Y-81145880D01*
X131028620Y-81137165D01*
X131081764Y-81140355D01*
X131184863Y-81199878D01*
X131214197Y-81244308D01*
X131222912Y-81276832D01*
X131219722Y-81329976D01*
X131160198Y-81433074D01*
X131115769Y-81462409D01*
X131083245Y-81471124D01*
X131030101Y-81467934D01*
X130927003Y-81408410D01*
X130897668Y-81363981D01*
X130888953Y-81331456D01*
X162393333Y-62946790D02*
X162393333Y-63303933D01*
X162369523Y-63375361D01*
X162321904Y-63422980D01*
X162250476Y-63446790D01*
X162202857Y-63446790D01*
X162845714Y-62946790D02*
X162750476Y-62946790D01*
X162702857Y-62970600D01*
X162679047Y-62994409D01*
X162631428Y-63065838D01*
X162607619Y-63161076D01*
X162607619Y-63351552D01*
X162631428Y-63399171D01*
X162655238Y-63422980D01*
X162702857Y-63446790D01*
X162798095Y-63446790D01*
X162845714Y-63422980D01*
X162869523Y-63399171D01*
X162893333Y-63351552D01*
X162893333Y-63232504D01*
X162869523Y-63184885D01*
X162845714Y-63161076D01*
X162798095Y-63137266D01*
X162702857Y-63137266D01*
X162655238Y-63161076D01*
X162631428Y-63184885D01*
X162607619Y-63232504D01*
X178788757Y-72236207D02*
X178967329Y-72545502D01*
X178982423Y-72619265D01*
X178964993Y-72684314D01*
X178915039Y-72740648D01*
X178873800Y-72764458D01*
X178953714Y-72140969D02*
X179242390Y-71974302D01*
X179306813Y-72514458D01*
X184650567Y-100517540D02*
X184471995Y-100826835D01*
X184415661Y-100876789D01*
X184350612Y-100894219D01*
X184276849Y-100879124D01*
X184235609Y-100855315D01*
X184811479Y-100857879D02*
X184782145Y-100813450D01*
X184773430Y-100780925D01*
X184776620Y-100727781D01*
X184788525Y-100707162D01*
X184832954Y-100677827D01*
X184865478Y-100669112D01*
X184918622Y-100672302D01*
X185001101Y-100719921D01*
X185030435Y-100764350D01*
X185039150Y-100796875D01*
X185035960Y-100850019D01*
X185024056Y-100870638D01*
X184979626Y-100899973D01*
X184947102Y-100908688D01*
X184893958Y-100905498D01*
X184811479Y-100857879D01*
X184758335Y-100854689D01*
X184725811Y-100863404D01*
X184681382Y-100892739D01*
X184633763Y-100975217D01*
X184630573Y-101028361D01*
X184639288Y-101060886D01*
X184668622Y-101105315D01*
X184751101Y-101152934D01*
X184804245Y-101156124D01*
X184836769Y-101147409D01*
X184881198Y-101118074D01*
X184928817Y-101035596D01*
X184932007Y-100982452D01*
X184923292Y-100949927D01*
X184893958Y-100905498D01*
X162393333Y-118598190D02*
X162393333Y-118955333D01*
X162369523Y-119026761D01*
X162321904Y-119074380D01*
X162250476Y-119098190D01*
X162202857Y-119098190D01*
X162655238Y-119098190D02*
X162750476Y-119098190D01*
X162798095Y-119074380D01*
X162821904Y-119050571D01*
X162869523Y-118979142D01*
X162893333Y-118883904D01*
X162893333Y-118693428D01*
X162869523Y-118645809D01*
X162845714Y-118622000D01*
X162798095Y-118598190D01*
X162702857Y-118598190D01*
X162655238Y-118622000D01*
X162631428Y-118645809D01*
X162607619Y-118693428D01*
X162607619Y-118812476D01*
X162631428Y-118860095D01*
X162655238Y-118883904D01*
X162702857Y-118907714D01*
X162798095Y-118907714D01*
X162845714Y-118883904D01*
X162869523Y-118860095D01*
X162893333Y-118812476D01*
X140803333Y-78847190D02*
X140803333Y-79204333D01*
X140779523Y-79275761D01*
X140731904Y-79323380D01*
X140660476Y-79347190D01*
X140612857Y-79347190D01*
X140993809Y-78847190D02*
X141303333Y-78847190D01*
X141136666Y-79037666D01*
X141208095Y-79037666D01*
X141255714Y-79061476D01*
X141279523Y-79085285D01*
X141303333Y-79132904D01*
X141303333Y-79251952D01*
X141279523Y-79299571D01*
X141255714Y-79323380D01*
X141208095Y-79347190D01*
X141065238Y-79347190D01*
X141017619Y-79323380D01*
X140993809Y-79299571D01*
X144442666Y-90269190D02*
X144276000Y-90031095D01*
X144156952Y-90269190D02*
X144156952Y-89769190D01*
X144347428Y-89769190D01*
X144395047Y-89793000D01*
X144418857Y-89816809D01*
X144442666Y-89864428D01*
X144442666Y-89935857D01*
X144418857Y-89983476D01*
X144395047Y-90007285D01*
X144347428Y-90031095D01*
X144156952Y-90031095D01*
X144895047Y-89769190D02*
X144656952Y-89769190D01*
X144633142Y-90007285D01*
X144656952Y-89983476D01*
X144704571Y-89959666D01*
X144823619Y-89959666D01*
X144871238Y-89983476D01*
X144895047Y-90007285D01*
X144918857Y-90054904D01*
X144918857Y-90173952D01*
X144895047Y-90221571D01*
X144871238Y-90245380D01*
X144823619Y-90269190D01*
X144704571Y-90269190D01*
X144656952Y-90245380D01*
X144633142Y-90221571D01*
X140877666Y-82650190D02*
X140711000Y-82412095D01*
X140591952Y-82650190D02*
X140591952Y-82150190D01*
X140782428Y-82150190D01*
X140830047Y-82174000D01*
X140853857Y-82197809D01*
X140877666Y-82245428D01*
X140877666Y-82316857D01*
X140853857Y-82364476D01*
X140830047Y-82388285D01*
X140782428Y-82412095D01*
X140591952Y-82412095D01*
X141353857Y-82650190D02*
X141068142Y-82650190D01*
X141211000Y-82650190D02*
X141211000Y-82150190D01*
X141163380Y-82221619D01*
X141115761Y-82269238D01*
X141068142Y-82293047D01*
X138092666Y-84935190D02*
X137926000Y-84697095D01*
X137806952Y-84935190D02*
X137806952Y-84435190D01*
X137997428Y-84435190D01*
X138045047Y-84459000D01*
X138068857Y-84482809D01*
X138092666Y-84530428D01*
X138092666Y-84601857D01*
X138068857Y-84649476D01*
X138045047Y-84673285D01*
X137997428Y-84697095D01*
X137806952Y-84697095D01*
X138521238Y-84435190D02*
X138426000Y-84435190D01*
X138378380Y-84459000D01*
X138354571Y-84482809D01*
X138306952Y-84554238D01*
X138283142Y-84649476D01*
X138283142Y-84839952D01*
X138306952Y-84887571D01*
X138330761Y-84911380D01*
X138378380Y-84935190D01*
X138473619Y-84935190D01*
X138521238Y-84911380D01*
X138545047Y-84887571D01*
X138568857Y-84839952D01*
X138568857Y-84720904D01*
X138545047Y-84673285D01*
X138521238Y-84649476D01*
X138473619Y-84625666D01*
X138378380Y-84625666D01*
X138330761Y-84649476D01*
X138306952Y-84673285D01*
X138283142Y-84720904D01*
X160689666Y-104239190D02*
X160523000Y-104001095D01*
X160403952Y-104239190D02*
X160403952Y-103739190D01*
X160594428Y-103739190D01*
X160642047Y-103763000D01*
X160665857Y-103786809D01*
X160689666Y-103834428D01*
X160689666Y-103905857D01*
X160665857Y-103953476D01*
X160642047Y-103977285D01*
X160594428Y-104001095D01*
X160403952Y-104001095D01*
X161118238Y-103905857D02*
X161118238Y-104239190D01*
X160999190Y-103715380D02*
X160880142Y-104072523D01*
X161189666Y-104072523D01*
X168529047Y-82276190D02*
X168529047Y-82680952D01*
X168552857Y-82728571D01*
X168576666Y-82752380D01*
X168624285Y-82776190D01*
X168719523Y-82776190D01*
X168767142Y-82752380D01*
X168790952Y-82728571D01*
X168814761Y-82680952D01*
X168814761Y-82276190D01*
X169029047Y-82323809D02*
X169052857Y-82300000D01*
X169100476Y-82276190D01*
X169219523Y-82276190D01*
X169267142Y-82300000D01*
X169290952Y-82323809D01*
X169314761Y-82371428D01*
X169314761Y-82419047D01*
X169290952Y-82490476D01*
X169005238Y-82776190D01*
X169314761Y-82776190D01*
X162063952Y-85951190D02*
X162063952Y-85451190D01*
X162183000Y-85451190D01*
X162254428Y-85475000D01*
X162302047Y-85522619D01*
X162325857Y-85570238D01*
X162349666Y-85665476D01*
X162349666Y-85736904D01*
X162325857Y-85832142D01*
X162302047Y-85879761D01*
X162254428Y-85927380D01*
X162183000Y-85951190D01*
X162063952Y-85951190D01*
X162540142Y-85498809D02*
X162563952Y-85475000D01*
X162611571Y-85451190D01*
X162730619Y-85451190D01*
X162778238Y-85475000D01*
X162802047Y-85498809D01*
X162825857Y-85546428D01*
X162825857Y-85594047D01*
X162802047Y-85665476D01*
X162516333Y-85951190D01*
X162825857Y-85951190D01*
X145161047Y-107644380D02*
X145232476Y-107668190D01*
X145351523Y-107668190D01*
X145399142Y-107644380D01*
X145422952Y-107620571D01*
X145446761Y-107572952D01*
X145446761Y-107525333D01*
X145422952Y-107477714D01*
X145399142Y-107453904D01*
X145351523Y-107430095D01*
X145256285Y-107406285D01*
X145208666Y-107382476D01*
X145184857Y-107358666D01*
X145161047Y-107311047D01*
X145161047Y-107263428D01*
X145184857Y-107215809D01*
X145208666Y-107192000D01*
X145256285Y-107168190D01*
X145375333Y-107168190D01*
X145446761Y-107192000D01*
X145922952Y-107668190D02*
X145637238Y-107668190D01*
X145780095Y-107668190D02*
X145780095Y-107168190D01*
X145732476Y-107239619D01*
X145684857Y-107287238D01*
X145637238Y-107311047D01*
X151046666Y-83871571D02*
X151022857Y-83895380D01*
X150951428Y-83919190D01*
X150903809Y-83919190D01*
X150832380Y-83895380D01*
X150784761Y-83847761D01*
X150760952Y-83800142D01*
X150737142Y-83704904D01*
X150737142Y-83633476D01*
X150760952Y-83538238D01*
X150784761Y-83490619D01*
X150832380Y-83443000D01*
X150903809Y-83419190D01*
X150951428Y-83419190D01*
X151022857Y-83443000D01*
X151046666Y-83466809D01*
X151332380Y-83633476D02*
X151284761Y-83609666D01*
X151260952Y-83585857D01*
X151237142Y-83538238D01*
X151237142Y-83514428D01*
X151260952Y-83466809D01*
X151284761Y-83443000D01*
X151332380Y-83419190D01*
X151427619Y-83419190D01*
X151475238Y-83443000D01*
X151499047Y-83466809D01*
X151522857Y-83514428D01*
X151522857Y-83538238D01*
X151499047Y-83585857D01*
X151475238Y-83609666D01*
X151427619Y-83633476D01*
X151332380Y-83633476D01*
X151284761Y-83657285D01*
X151260952Y-83681095D01*
X151237142Y-83728714D01*
X151237142Y-83823952D01*
X151260952Y-83871571D01*
X151284761Y-83895380D01*
X151332380Y-83919190D01*
X151427619Y-83919190D01*
X151475238Y-83895380D01*
X151499047Y-83871571D01*
X151522857Y-83823952D01*
X151522857Y-83728714D01*
X151499047Y-83681095D01*
X151475238Y-83657285D01*
X151427619Y-83633476D01*
D17*
X161369880Y-71056404D02*
X162179404Y-71056404D01*
X162274642Y-71008785D01*
X162322261Y-70961166D01*
X162369880Y-70865928D01*
X162369880Y-70675452D01*
X162322261Y-70580214D01*
X162274642Y-70532595D01*
X162179404Y-70484976D01*
X161369880Y-70484976D01*
X161703214Y-69580214D02*
X162369880Y-69580214D01*
X161322261Y-69818309D02*
X162036547Y-70056404D01*
X162036547Y-69437357D01*
M02*
